<svg xmlns="http://www.w3.org/2000/svg" width="101" height="101" viewBox="0 0 101 101">
  <g id="Grupo_157902" data-name="Grupo 157902" transform="translate(9465 -579.754)">
    <circle id="Elipse_4938" data-name="Elipse 4938" cx="50.5" cy="50.5" r="50.5" transform="translate(-9465 579.754)" fill="#6dc5db"/>
    <g id="comunicacion" transform="translate(-9449.476 596.803)">
      <path id="Trazado_129431" data-name="Trazado 129431" d="M18.155,31H5.165A2.164,2.164,0,0,0,3,33.165v6.5a2.164,2.164,0,0,0,2.165,2.165H9.5l3.248,5.413,1.083-5.413H18.09A2.164,2.164,0,0,0,20.254,39.6l-.224-7.514A2.164,2.164,0,0,0,18.155,31Z" transform="translate(0.083 2.392)" fill="#eaeaea"/>
      <path id="Trazado_129432" data-name="Trazado 129432" d="M47.215,30H34.225a2.164,2.164,0,0,0-2.165,2.165v6.5a2.164,2.164,0,0,0,2.165,2.165h4.33L41.8,46.238l1.083-5.413H47.15A2.164,2.164,0,0,0,49.314,38.6l-.223-7.514A2.164,2.164,0,0,0,47.215,30Z" transform="translate(2.481 2.31)" fill="#eaeaea"/>
      <path id="Trazado_129433" data-name="Trazado 129433" d="M18,34.165v6.5a2.164,2.164,0,0,0,2.165,2.165h3.248v4.33l4.33-4.33H30.99a2.164,2.164,0,0,0,2.165-2.165v-6.5A2.164,2.164,0,0,0,30.99,32H20.165A2.164,2.164,0,0,0,18,34.165Z" transform="translate(1.32 2.475)" fill="#90d2fc"/>
      <path id="Trazado_129434" data-name="Trazado 129434" d="M47,34.165v6.5a2.164,2.164,0,0,0,2.165,2.165h3.248v4.33l4.33-4.33H59.99a2.164,2.164,0,0,0,2.165-2.165v-6.5A2.164,2.164,0,0,0,59.99,32H49.165A2.164,2.164,0,0,0,47,34.165Z" transform="translate(3.714 2.475)" fill="#90d2fc"/>
      <path id="Trazado_129435" data-name="Trazado 129435" d="M33.651,8A21.65,21.65,0,0,0,12,29.651H55.3A21.65,21.65,0,0,0,33.651,8Z" transform="translate(0.825 0.494)" fill="#a7dbfc"/>
      <path id="Trazado_129436" data-name="Trazado 129436" d="M42.946,10.812l-.2.2-2.165,3.248L37.33,16.428H34.083L33,19.676l1.083,3.248,4.33,2.165,3.248-1.083h4.33l3.248,3.248,4.275,1.068a21.608,21.608,0,0,0-10.567-17.51Z" transform="translate(2.558 0.726)" fill="#63bc94"/>
      <path id="Trazado_129437" data-name="Trazado 129437" d="M18.463,23.976l3.248-1.083,4.33,1.083,3.248-2.165-1.083-3.248-2.165-1.083V14.234l-4.087-3.065a21.649,21.649,0,0,0-9.567,13.995l3.911.978Z" transform="translate(0.857 0.756)" fill="#63bc94"/>
      <path id="Trazado_129438" data-name="Trazado 129438" d="M33.5,56H31.33A4.33,4.33,0,0,0,27,60.33V62.5H37.825V60.33A4.33,4.33,0,0,0,33.5,56Z" transform="translate(2.063 4.456)" fill="#eaeaea"/>
      <path id="Trazado_129439" data-name="Trazado 129439" d="M43.5,56H41.33A4.33,4.33,0,0,0,37,60.33V62.5H47.825V60.33A4.33,4.33,0,0,0,43.5,56Z" transform="translate(2.888 4.456)" fill="#a8a8a8"/>
      <path id="Trazado_129440" data-name="Trazado 129440" d="M53.5,56H51.33A4.33,4.33,0,0,0,47,60.33V62.5H57.825V60.33A4.33,4.33,0,0,0,53.5,56Z" transform="translate(3.714 4.456)" fill="#eaeaea"/>
      <path id="Trazado_129441" data-name="Trazado 129441" d="M13.5,56H11.33A4.33,4.33,0,0,0,7,60.33V62.5H17.825V60.33A4.33,4.33,0,0,0,13.5,56Z" transform="translate(0.413 4.456)" fill="#eaeaea"/>
      <path id="Trazado_129442" data-name="Trazado 129442" d="M23.5,56H21.33A4.33,4.33,0,0,0,17,60.33V62.5H27.825V60.33A4.33,4.33,0,0,0,23.5,56Z" transform="translate(1.238 4.456)" fill="#a8a8a8"/>
      <g id="Grupo_157160" data-name="Grupo 157160" transform="translate(9.578 53.961)">
        <circle id="Elipse_4871" data-name="Elipse 4871" cx="3.5" cy="3.5" r="3.5" transform="translate(21.374 -0.009)" fill="#ffd6a8"/>
        <circle id="Elipse_4872" data-name="Elipse 4872" cx="3.5" cy="3.5" r="3.5" transform="translate(32.374 -0.009)" fill="#ffd6a8"/>
        <ellipse id="Elipse_4873" data-name="Elipse 4873" cx="3" cy="3.5" rx="3" ry="3.5" transform="translate(43.374 -0.009)" fill="#ffd6a8"/>
        <ellipse id="Elipse_4874" data-name="Elipse 4874" cx="3" cy="3.5" rx="3" ry="3.5" transform="translate(0.374 -0.009)" fill="#ffd6a8"/>
        <circle id="Elipse_4875" data-name="Elipse 4875" cx="3.5" cy="3.5" r="3.5" transform="translate(10.374 -0.009)" fill="#ffd6a8"/>
      </g>
      <path id="Trazado_129443" data-name="Trazado 129443" d="M66.952,34.413A3.252,3.252,0,0,0,63.7,31.165H52.879c-.066,0-.128.015-.194.019A3.24,3.24,0,0,0,49.631,29H36.641a3.243,3.243,0,0,0-3.122,2.4,3.23,3.23,0,0,0-1.208-.238H21.485a3.253,3.253,0,0,0-.773.1,3.236,3.236,0,0,0-2.475-1.185H5.248A3.252,3.252,0,0,0,2,33.33v6.5a3.252,3.252,0,0,0,3.248,3.248H8.965L11.9,47.96a1.083,1.083,0,0,0,1.99-.345l.907-4.542h4.288a3.229,3.229,0,0,0,2.4,1.083h2.165V47.4a1.081,1.081,0,0,0,.668,1,1.069,1.069,0,0,0,.415.082,1.083,1.083,0,0,0,.765-.317l4.013-4.013h2.8a3.242,3.242,0,0,0,3.122-2.4,3.23,3.23,0,0,0,1.208.238h3.717l2.933,4.888a1.083,1.083,0,0,0,1.99-.345l.907-4.542H49.83a3.243,3.243,0,0,0,3.048,2.165h2.165V47.4a1.081,1.081,0,0,0,.668,1,1.069,1.069,0,0,0,.415.082,1.083,1.083,0,0,0,.765-.317L60.9,44.155h2.8a3.252,3.252,0,0,0,3.248-3.248Zm-48.714,0v6.5h-4.33a1.082,1.082,0,0,0-1.061.87l-.534,2.667-1.807-3.012a1.084,1.084,0,0,0-.929-.526H5.248a1.083,1.083,0,0,1-1.083-1.083v-6.5a1.083,1.083,0,0,1,1.083-1.083h12.99a1.076,1.076,0,0,1,.654.232A3.215,3.215,0,0,0,18.238,34.413Zm15.155,4.33v2.165a1.083,1.083,0,0,1-1.083,1.083H29.063a1.078,1.078,0,0,0-.765.317L25.816,44.79V43.073a1.082,1.082,0,0,0-1.083-1.083H21.485A1.083,1.083,0,0,1,20.4,40.908v-6.5a1.083,1.083,0,0,1,1.083-1.083H32.311a1.083,1.083,0,0,1,1.083,1.083Zm16.238-4.33v5.413H45.3a1.082,1.082,0,0,0-1.061.87l-.534,2.667L41.9,40.351a1.084,1.084,0,0,0-.929-.526h-4.33a1.083,1.083,0,0,1-1.083-1.083v-6.5a1.083,1.083,0,0,1,1.083-1.083h12.99a1.068,1.068,0,0,1,1.041.879A3.23,3.23,0,0,0,49.631,34.413Zm15.155,6.5A1.083,1.083,0,0,1,63.7,41.99H60.456a1.078,1.078,0,0,0-.765.317L57.209,44.79V43.073a1.082,1.082,0,0,0-1.083-1.083H52.879A1.083,1.083,0,0,1,51.8,40.908v-6.5a1.083,1.083,0,0,1,1.083-1.083H63.7a1.083,1.083,0,0,1,1.083,1.083Z" transform="translate(0 2.227)"/>
      <path id="Trazado_129444" data-name="Trazado 129444" d="M11,29.733h2.165a20.475,20.475,0,0,1,.227-2.887l2.758.69a1.08,1.08,0,0,0,1.027-.285l1.984-1.984,2.706-.9,4.025,1.006a1.081,1.081,0,0,0,.863-.149L30,23.056a1.084,1.084,0,0,0,.427-1.243l-1.083-3.248a1.082,1.082,0,0,0-.542-.626l-1.567-.784V14.578a1.083,1.083,0,0,0-.433-.866l-2.794-2.1a20.458,20.458,0,0,1,19.151-.142L41.614,13.8l-2.8,1.863H35.9a1.08,1.08,0,0,0-1.026.74l-1.083,3.248a1.076,1.076,0,0,0,0,.685l1.083,3.248a1.082,1.082,0,0,0,.542.626l4.33,2.165a1.067,1.067,0,0,0,.827.058l3.08-1.027h3.707l2.93,2.93a1.084,1.084,0,0,0,.5.285l3.5.875c0,.08.012.159.012.24h2.165a22.733,22.733,0,0,0-45.466,0ZM25.073,15.119v2.706a1.084,1.084,0,0,0,.6.969l1.765.881.679,2.038-2.161,1.441-3.866-.967a1.076,1.076,0,0,0-.605.023l-3.248,1.083a1.094,1.094,0,0,0-.423.261L16.08,25.286l-2.272-.567a20.61,20.61,0,0,1,8.224-11.881Zm19.962-2.552a20.576,20.576,0,0,1,9.1,14.655l-2.524-.632L48.57,23.555a1.073,1.073,0,0,0-.764-.317h-4.33a1.084,1.084,0,0,0-.342.056l-2.821.94L36.784,22.47l-.827-2.48.722-2.165h2.467a1.089,1.089,0,0,0,.6-.182l3.248-2.165a1.1,1.1,0,0,0,.3-.3Z" transform="translate(0.743 0.412)"/>
      <path id="Trazado_129445" data-name="Trazado 129445" d="M25.153,5.206c.667-.2,1.343-.373,2.009-.514l-.448-2.119c-.724.154-1.459.341-2.183.559Z" transform="translate(1.859 0.046)"/>
      <path id="Trazado_129446" data-name="Trazado 129446" d="M40.195,5.591c.647.236,1.295.5,1.925.789l.9-1.97c-.682-.311-1.382-.6-2.084-.852Z" transform="translate(3.152 0.128)"/>
      <path id="Trazado_129447" data-name="Trazado 129447" d="M44.742,5.285l-1.058,1.89c.605.338,1.2.7,1.774,1.086l1.2-1.8c-.619-.415-1.264-.811-1.919-1.177Z" transform="translate(3.44 0.27)"/>
      <path id="Trazado_129448" data-name="Trazado 129448" d="M52.045,14.889c.382.577.743,1.175,1.074,1.778l1.9-1.042c-.359-.654-.75-1.3-1.163-1.927Z" transform="translate(4.13 0.965)"/>
      <path id="Trazado_129449" data-name="Trazado 129449" d="M6,28.171H8.165c0-.7.027-1.394.082-2.075l-2.159-.173c-.06.738-.089,1.5-.089,2.248Z" transform="translate(0.33 1.973)"/>
      <path id="Trazado_129450" data-name="Trazado 129450" d="M11.143,12.608,12.879,13.9c.412-.553.851-1.1,1.307-1.614L12.56,10.859C12.065,11.421,11.589,12.01,11.143,12.608Z" transform="translate(0.755 0.73)"/>
      <path id="Trazado_129451" data-name="Trazado 129451" d="M38.522,5.052l.573-2.087c-.716-.2-1.454-.368-2.192-.509l-.4,2.127c.682.13,1.363.288,2.023.469Z" transform="translate(2.847 0.037)"/>
      <path id="Trazado_129452" data-name="Trazado 129452" d="M16.939,9.631l-1.38-1.668c-.574.474-1.138.981-1.675,1.5l1.508,1.555C15.888,10.536,16.408,10.07,16.939,9.631Z" transform="translate(0.981 0.491)"/>
      <path id="Trazado_129453" data-name="Trazado 129453" d="M58.169,27.577c-.017-.745-.064-1.5-.14-2.245l-2.154.22c.07.688.114,1.386.129,2.072Z" transform="translate(4.446 1.925)"/>
      <path id="Trazado_129454" data-name="Trazado 129454" d="M53.895,18.222c.283.628.543,1.275.776,1.925l2.038-.727c-.251-.7-.534-1.406-.839-2.086Z" transform="translate(4.283 1.265)"/>
      <path id="Trazado_129455" data-name="Trazado 129455" d="M11.885,15.343l-1.831-1.154c-.4.629-.774,1.286-1.121,1.955l1.919,1C11.173,16.528,11.52,15.922,11.885,15.343Z" transform="translate(0.572 1.005)"/>
      <path id="Trazado_129456" data-name="Trazado 129456" d="M55.183,21.808c.18.668.333,1.349.458,2.024l2.129-.391c-.134-.733-.3-1.471-.5-2.2Z" transform="translate(4.389 1.588)"/>
      <path id="Trazado_129457" data-name="Trazado 129457" d="M10.1,18.719l-1.994-.843c-.292.691-.56,1.4-.793,2.108l2.055.681C9.584,20.012,9.831,19.356,10.1,18.719Z" transform="translate(0.438 1.309)"/>
      <path id="Trazado_129458" data-name="Trazado 129458" d="M46.875,9.293c.536.425,1.067.879,1.577,1.354L49.926,9.06c-.553-.512-1.127-1-1.708-1.465Z" transform="translate(3.703 0.461)"/>
      <path id="Trazado_129459" data-name="Trazado 129459" d="M20.074,7.442l-1.1-1.865c-.64.377-1.276.787-1.891,1.217l1.243,1.774C18.894,8.17,19.482,7.791,20.074,7.442Z" transform="translate(1.245 0.294)"/>
      <path id="Trazado_129460" data-name="Trazado 129460" d="M34.76,4.315l.233-2.152c-.737-.08-1.492-.131-2.245-.153l-.06,2.165c.695.018,1.392.065,2.072.14Z" transform="translate(2.533 0)"/>
      <path id="Trazado_129461" data-name="Trazado 129461" d="M49.686,11.888c.46.5.913,1.034,1.345,1.586l1.7-1.336c-.468-.6-.957-1.172-1.455-1.715Z" transform="translate(3.935 0.694)"/>
      <path id="Trazado_129462" data-name="Trazado 129462" d="M22.722,3.765c-.7.273-1.392.575-2.061.9l.945,1.947c.618-.3,1.259-.579,1.9-.831Z" transform="translate(1.54 0.145)"/>
      <path id="Trazado_129463" data-name="Trazado 129463" d="M28.875,4.383c.683-.089,1.379-.153,2.07-.187l-.11-2.163c-.747.038-1.5.107-2.241.2Z" transform="translate(2.195 0.002)"/>
      <path id="Trazado_129464" data-name="Trazado 129464" d="M8.877,22.335l-2.1-.514c-.175.721-.326,1.464-.445,2.205l2.138.344c.108-.685.247-1.37.41-2.035Z" transform="translate(0.357 1.635)"/>
      <path id="Trazado_129465" data-name="Trazado 129465" d="M62.291,60.908a5.407,5.407,0,0,0-3.127-4.889,4.287,4.287,0,0,0,.962-2.689,4.33,4.33,0,1,0-8.66,0,4.287,4.287,0,0,0,.962,2.689,5.421,5.421,0,0,0-2.045,1.675,5.429,5.429,0,0,0-2.045-1.675A4.287,4.287,0,0,0,49.3,53.33a4.33,4.33,0,1,0-8.66,0,4.287,4.287,0,0,0,.962,2.689,5.421,5.421,0,0,0-2.045,1.675,5.429,5.429,0,0,0-2.045-1.675,4.287,4.287,0,0,0,.962-2.689,4.33,4.33,0,1,0-8.66,0,4.287,4.287,0,0,0,.962,2.689,5.421,5.421,0,0,0-2.045,1.675,5.429,5.429,0,0,0-2.045-1.675,4.287,4.287,0,0,0,.962-2.689,4.33,4.33,0,1,0-8.66,0,4.287,4.287,0,0,0,.962,2.689,5.421,5.421,0,0,0-2.045,1.675,5.429,5.429,0,0,0-2.045-1.675,4.287,4.287,0,0,0,.962-2.689,4.33,4.33,0,1,0-8.66,0,4.287,4.287,0,0,0,.962,2.689A5.407,5.407,0,0,0,6,60.908v2.165H8.165V60.908a3.252,3.252,0,0,1,3.248-3.248h2.165a3.252,3.252,0,0,1,3.248,3.248v2.165H18.99V60.908a3.252,3.252,0,0,1,3.248-3.248H24.4a3.252,3.252,0,0,1,3.248,3.248v2.165h2.165V60.908a3.252,3.252,0,0,1,3.248-3.248h2.165a3.252,3.252,0,0,1,3.248,3.248v2.165h2.165V60.908a3.252,3.252,0,0,1,3.248-3.248h2.165A3.252,3.252,0,0,1,49.3,60.908v2.165h2.165V60.908a3.252,3.252,0,0,1,3.248-3.248h2.165a3.252,3.252,0,0,1,3.248,3.248v2.165h2.165ZM12.5,55.5A2.165,2.165,0,1,1,14.66,53.33,2.167,2.167,0,0,1,12.5,55.5Zm10.825,0a2.165,2.165,0,1,1,2.165-2.165A2.167,2.167,0,0,1,23.32,55.5Zm10.825,0a2.165,2.165,0,1,1,2.165-2.165A2.167,2.167,0,0,1,34.146,55.5Zm10.825,0a2.165,2.165,0,1,1,2.165-2.165A2.167,2.167,0,0,1,44.971,55.5Zm10.825,0a2.165,2.165,0,1,1,2.165-2.165A2.167,2.167,0,0,1,55.8,55.5Z" transform="translate(0.33 3.878)"/>
    </g>
  </g>
</svg>
