<svg xmlns="http://www.w3.org/2000/svg" width="127.371" height="127.371" viewBox="0 0 127.371 127.371">
  <g id="Grupo_156635" data-name="Grupo 156635" transform="translate(6399 6571)">
    <path id="Trazado_127483" data-name="Trazado 127483" d="M63.685,0A63.685,63.685,0,1,1,0,63.685,63.685,63.685,0,0,1,63.685,0Z" transform="translate(-6399 -6571)" fill="#b0c8cb"/>
    <g id="Grupo_156595" data-name="Grupo 156595" transform="translate(-6379.701 -6549.128)">
      <path id="Trazado_127053" data-name="Trazado 127053" d="M16.2,125.2c.584.13.72-.145.714-.691-.015-1.367.008-1.391,1.424-1.383.526,0,.69-.16.68-.681-.01-.485-.1-.711-.658-.709-1.419.005-1.455-.023-1.44-1.44.007-.641-.308-.653-.783-.658s-.721.074-.721.644c0,1.434-.029,1.46-1.43,1.455-.542,0-.67.193-.672.7s.127.7.669.693c1.428-.008,1.463.019,1.431,1.372-.015.628.217.812.787.7" transform="translate(68.221 -69.461)" fill="#29c4bb"/>
      <path id="Trazado_127054" data-name="Trazado 127054" d="M214.1,151.167c-.523-.1-.812.073-.726.665.072.5-.1.771-.647.686s-.733.113-.737.69c0,.6.243.744.758.675.493-.067.649.148.639.638-.015.768.46,1.062,1.2.83.352-.11.275-.392.253-.614-.062-.607.077-.978.793-.857.554.094.588-.253.587-.679s-.018-.769-.58-.682c-.606.094-.893-.128-.792-.768.1-.612-.3-.638-.748-.584" transform="translate(-211.994 -86.324)" fill="#29c4bb"/>
      <path id="Trazado_127055" data-name="Trazado 127055" d="M207.488,69.736c-.135.583.132.783.679.691.592-.1.834.143.729.732-.1.57.145.706.7.711.569.005.784-.163.684-.717-.106-.59.14-.833.726-.723.607.114.66-.2.683-.714.027-.6-.206-.756-.728-.665-.568.1-.779-.136-.683-.69.092-.531-.079-.745-.67-.724-.521.019-.822.092-.711.689s-.148.822-.73.724c-.547-.092-.813.1-.677.687" transform="translate(-203.221 -59.548)" fill="#010000"/>
      <path id="Trazado_127056" data-name="Trazado 127056" d="M51.812,187.114c-.128.544.141.744.685.646.639-.116.79.217.7.755-.1.6.188.691.714.688.5,0,.772-.117.667-.658-.138-.711.217-.886.829-.781.628.107.6-.289.6-.72s-.009-.771-.576-.659c-.764.151-.959-.216-.855-.9.1-.654-.4-.466-.733-.486-.352-.021-.745-.067-.642.5.127.7-.119,1.027-.861.884-.62-.119-.544.313-.526.728" transform="translate(15.167 -104.002)" fill="#010000"/>
      <path id="Trazado_127057" data-name="Trazado 127057" d="M125.968,17.888c.146-.621-.2-.742-.705-.667-.528.078-.736-.14-.655-.66s-.074-.756-.672-.744c-.55.011-.8.154-.706.718s-.169.767-.712.686c-.5-.075-.755.045-.758.659,0,.629.234.8.782.711.58-.092.776.172.686.712-.1.607.225.676.735.687.546.011.724-.194.643-.694-.088-.549.115-.8.688-.7s.8-.137.673-.7" transform="translate(-84.07 -15.817)" fill="#29c4bb"/>
    </g>
    <g id="XMLID_323_" transform="translate(-6363.62 -6534.855)">
      <path id="XMLID_1905_" d="M19.467,111.12H14.733A4.733,4.733,0,0,1,10,106.386v-35.5h4.733V64h4.733Z" transform="translate(-8.924 -57.115)" fill="#c3d3dd"/>
      <path id="XMLID_1904_" d="M97.462,62.929A4.733,4.733,0,0,0,102.2,58.2V10H58.733V58.2A4.733,4.733,0,0,1,54,62.929Z" transform="translate(-48.191 -8.924)" fill="#fff"/>
      <path id="XMLID_1876_" d="M146,196h16.567v20.655H146Z" transform="translate(-130.293 -174.914)" fill="#29c4bb"/>
      <path id="XMLID_1135_" d="M146,76h33.134v7.746H146Z" transform="translate(-130.293 -67.824)" fill="#fee734"/>
      <g id="XMLID_1291_">
        <path id="XMLID_1351_" d="M54,0H10.543A1.076,1.076,0,0,0,9.467,1.076V5.809H5.809A1.076,1.076,0,0,0,4.733,6.885v5.809H1.076A1.076,1.076,0,0,0,0,13.77v35.5a5.816,5.816,0,0,0,5.809,5.809H49.271a5.816,5.816,0,0,0,5.809-5.809V1.076A1.076,1.076,0,0,0,54,0ZM52.929,49.271a3.662,3.662,0,0,1-3.658,3.658H10.318a5.781,5.781,0,0,0,1.3-3.658V34.748a1.076,1.076,0,0,0-2.152,0V49.271a3.658,3.658,0,0,1-7.315,0V14.846H4.733V48.2a1.076,1.076,0,1,0,2.152,0V7.961H9.467V25.066a1.076,1.076,0,0,0,2.152,0V2.152h41.31Z"/>
        <path id="XMLID_1376_" d="M137.076,75.9H170.21a1.076,1.076,0,0,0,1.076-1.076V67.076A1.076,1.076,0,0,0,170.21,66H137.076A1.076,1.076,0,0,0,136,67.076v7.746A1.076,1.076,0,0,0,137.076,75.9Zm1.076-7.746h30.983v5.594H138.152Z" transform="translate(-121.369 -58.9)"/>
        <path id="XMLID_1459_" d="M137.076,208.807h16.567a1.076,1.076,0,0,0,1.076-1.076V187.076A1.076,1.076,0,0,0,153.643,186H137.076A1.076,1.076,0,0,0,136,187.076v20.655A1.076,1.076,0,0,0,137.076,208.807Zm1.076-20.655h14.416v18.5H138.152Z" transform="translate(-121.369 -165.99)"/>
        <path id="XMLID_1460_" d="M350.479,186h-11.4a1.076,1.076,0,1,0,0,2.152h11.4a1.076,1.076,0,1,0,0-2.152Z" transform="translate(-301.638 -165.99)"/>
        <path id="XMLID_1476_" d="M350.479,234h-11.4a1.076,1.076,0,1,0,0,2.152h11.4a1.076,1.076,0,1,0,0-2.152Z" transform="translate(-301.638 -208.826)"/>
        <path id="XMLID_1533_" d="M350.479,282h-11.4a1.076,1.076,0,1,0,0,2.152h11.4a1.076,1.076,0,1,0,0-2.152Z" transform="translate(-301.638 -251.663)"/>
        <path id="XMLID_1535_" d="M350.479,330h-11.4a1.076,1.076,0,1,0,0,2.152h11.4a1.076,1.076,0,1,0,0-2.152Z" transform="translate(-301.638 -294.499)"/>
        <path id="XMLID_1545_" d="M350.479,378h-11.4a1.076,1.076,0,1,0,0,2.152h11.4a1.076,1.076,0,1,0,0-2.152Z" transform="translate(-301.638 -337.335)"/>
        <path id="XMLID_1550_" d="M137.076,428.152H170.21a1.076,1.076,0,0,0,0-2.152H137.076a1.076,1.076,0,1,0,0,2.152Z" transform="translate(-121.369 -380.171)"/>
        <path id="XMLID_1572_" d="M89.576,268a1.076,1.076,0,1,0,.76.315A1.083,1.083,0,0,0,89.576,268Z" transform="translate(-78.979 -239.169)"/>
      </g>
    </g>
  </g>
</svg>
