<svg xmlns="http://www.w3.org/2000/svg" width="127.727" height="127.727" viewBox="0 0 127.727 127.727">
  <g id="Grupo_156636" data-name="Grupo 156636" transform="translate(6399 6571)">
    <path id="Trazado_127482" data-name="Trazado 127482" d="M63.863,0A63.863,63.863,0,1,1,0,63.863,63.863,63.863,0,0,1,63.863,0Z" transform="translate(-6399 -6571)" fill="#b0c8cb"/>
    <g id="Grupo_156595" data-name="Grupo 156595" transform="translate(-6379.647 -6549.067)">
      <path id="Trazado_127053" data-name="Trazado 127053" d="M16.213,125.214c.586.13.722-.146.716-.693-.015-1.371.008-1.4,1.428-1.387.528,0,.692-.161.682-.683-.01-.487-.1-.713-.66-.711-1.423.005-1.46-.023-1.444-1.444.007-.643-.308-.654-.785-.659s-.723.075-.723.645c0,1.438-.029,1.464-1.434,1.459-.544,0-.672.194-.673.7s.127.7.671.7c1.432-.008,1.467.019,1.435,1.376-.015.63.218.814.789.7" transform="translate(68.449 -69.321)" fill="#29c4bb"/>
      <path id="Trazado_127054" data-name="Trazado 127054" d="M214.111,151.167c-.524-.1-.815.073-.728.667.072.5-.1.773-.649.688s-.735.114-.739.692c0,.607.243.746.76.677.494-.067.65.148.641.64-.016.77.461,1.065,1.205.832.353-.111.276-.393.253-.616-.062-.608.077-.981.8-.859.556.094.59-.254.588-.681s-.018-.772-.582-.684c-.608.094-.9-.128-.794-.77.1-.613-.3-.64-.75-.586" transform="translate(-211.994 -86.143)" fill="#29c4bb"/>
      <path id="Trazado_127055" data-name="Trazado 127055" d="M207.488,69.742c-.135.585.132.785.681.693.594-.1.836.144.731.734-.1.571.145.708.7.713.571.005.786-.163.686-.719-.106-.592.141-.836.728-.725.609.114.662-.2.685-.716.027-.6-.207-.758-.73-.667-.569.1-.781-.136-.685-.692.093-.532-.079-.747-.672-.726-.522.019-.824.093-.713.691s-.148.824-.732.726c-.549-.092-.816.1-.679.689" transform="translate(-203.21 -59.526)" fill="#010000"/>
      <path id="Trazado_127056" data-name="Trazado 127056" d="M51.812,187.119c-.128.546.141.746.687.648.641-.116.792.217.7.757-.1.6.189.693.716.69.5,0,.774-.117.668-.66-.139-.713.218-.888.832-.783.63.107.6-.29.6-.722s-.009-.773-.578-.661c-.766.152-.961-.216-.858-.9.1-.656-.4-.467-.735-.487-.353-.021-.747-.067-.644.5.127.7-.119,1.03-.864.887-.622-.119-.545.314-.527.73" transform="translate(15.354 -103.776)" fill="#010000"/>
      <path id="Trazado_127057" data-name="Trazado 127057" d="M125.979,17.893c.147-.623-.2-.744-.707-.668-.53.079-.738-.14-.657-.662s-.074-.758-.674-.746c-.551.011-.8.154-.708.72s-.17.769-.714.688c-.5-.075-.757.045-.76.661,0,.631.235.8.785.713.581-.093.778.172.688.714-.1.608.226.678.737.689.547.011.726-.194.645-.7-.088-.55.116-.8.69-.706s.8-.137.675-.706" transform="translate(-83.965 -15.817)" fill="#29c4bb"/>
    </g>
    <g id="radio" transform="translate(-6372.265 -6545.134)">
      <g id="Grupo_156642" data-name="Grupo 156642" transform="translate(1.051 0.596)">
        <path id="Trazado_127484" data-name="Trazado 127484" d="M66.487,137.094H57.2V132.87a1.121,1.121,0,0,1,1.121-1.121h7.045a1.121,1.121,0,0,1,1.121,1.121Z" transform="translate(-50.233 -115.039)" fill="#ffce69"/>
        <path id="Trazado_127485" data-name="Trazado 127485" d="M95.69,131.749H92.466a1.121,1.121,0,0,1,1.121,1.121v3.943h3.224V132.87A1.121,1.121,0,0,0,95.69,131.749Z" transform="translate(-80.557 -115.039)" fill="#ffbd61"/>
        <path id="Trazado_127486" data-name="Trazado 127486" d="M397.822,136.814h-9.288V132.87a1.121,1.121,0,0,1,1.121-1.121H396.7a1.121,1.121,0,0,1,1.121,1.121Z" transform="translate(-335.128 -115.039)" fill="#868eaf"/>
        <path id="Trazado_127487" data-name="Trazado 127487" d="M298.422,136.814h-9.288V132.87a1.121,1.121,0,0,1,1.121-1.121H297.3a1.121,1.121,0,0,1,1.121,1.121Z" transform="translate(-249.66 -115.039)" fill="#868eaf"/>
        <path id="Trazado_127488" data-name="Trazado 127488" d="M427.025,131.749H423.8a1.121,1.121,0,0,1,1.121,1.121v3.943h3.224V132.87A1.121,1.121,0,0,0,427.025,131.749Z" transform="translate(-365.452 -115.039)" fill="#7d83ad"/>
        <path id="Trazado_127489" data-name="Trazado 127489" d="M327.625,131.749H324.4a1.121,1.121,0,0,1,1.121,1.121v3.943h3.224V132.87A1.121,1.121,0,0,0,327.625,131.749Z" transform="translate(-279.984 -115.039)" fill="#7d83ad"/>
        <path id="Trazado_127490" data-name="Trazado 127490" d="M272.566,211.322H300.43a4.644,4.644,0,0,0,4.644-4.644V169.526a4.644,4.644,0,0,0-4.644-4.644H272.566Z" transform="translate(-235.415 -143.529)" fill="#b4eae7"/>
        <path id="Trazado_127491" data-name="Trazado 127491" d="M46.974,164.883H12.144A4.644,4.644,0,0,0,7.5,169.527v37.152a4.644,4.644,0,0,0,4.644,4.644h34.83Z" transform="translate(-7.5 -143.529)" fill="#29c4bb"/>
        <g id="Grupo_156641" data-name="Grupo 156641" transform="translate(4.644 29.481)">
          <g id="Grupo_156640" data-name="Grupo 156640">
            <circle id="Elipse_4847" data-name="Elipse 4847" cx="15.093" cy="15.093" r="15.093" fill="#b4eae7"/>
            <circle id="Elipse_4848" data-name="Elipse 4848" cx="5.805" cy="5.805" r="5.805" transform="translate(9.288 9.288)" fill="#b4eae7"/>
          </g>
        </g>
        <path id="Trazado_127492" data-name="Trazado 127492" d="M342.044,204.982H323.388a1.121,1.121,0,0,1-1.121-1.121v-4.723a1.121,1.121,0,0,1,1.121-1.121h18.655a1.121,1.121,0,0,1,1.121,1.121v4.723A1.121,1.121,0,0,1,342.044,204.982Z" transform="translate(-278.149 -172.019)" fill="#f9f5f3"/>
        <circle id="Elipse_4849" data-name="Elipse 4849" cx="3.483" cy="3.483" r="3.483" transform="translate(43.412 43.701) rotate(-76.7)" fill="#868eaf"/>
        <circle id="Elipse_4850" data-name="Elipse 4850" cx="3.483" cy="3.483" r="3.483" transform="translate(57.38 43.663) rotate(-76.533)" fill="#868eaf"/>
        <circle id="Elipse_4851" data-name="Elipse 4851" cx="2.322" cy="2.322" r="2.322" transform="translate(55.27 4.519) rotate(-76.7)" fill="#ffce69"/>
        <path id="Trazado_127493" data-name="Trazado 127493" d="M138.428,222.867a15.267,15.267,0,0,0-1.612.086,15.094,15.094,0,0,1,0,30.014,15.267,15.267,0,0,0,1.612.086,15.093,15.093,0,1,0,0-30.186Z" transform="translate(-118.691 -193.386)" fill="#7d83ad"/>
        <path id="Trazado_127494" data-name="Trazado 127494" d="M443.592,198.016h-3.224a1.121,1.121,0,0,1,1.121,1.121v4.723a1.121,1.121,0,0,1-1.121,1.121h3.224a1.121,1.121,0,0,0,1.121-1.121v-4.723A1.121,1.121,0,0,0,443.592,198.016Z" transform="translate(-379.697 -172.019)" fill="#f9eae0"/>
        <path id="Trazado_127495" data-name="Trazado 127495" d="M436.63,280.849a3.466,3.466,0,0,0-1.612.4,3.483,3.483,0,0,1,0,6.175,3.483,3.483,0,1,0,1.612-6.571Z" transform="translate(-375.097 -243.242)" fill="#7d83ad"/>
        <path id="Trazado_127496" data-name="Trazado 127496" d="M337.229,280.849a3.466,3.466,0,0,0-1.612.4,3.483,3.483,0,0,1,0,6.175,3.483,3.483,0,1,0,1.612-6.571Z" transform="translate(-289.628 -243.242)" fill="#7d83ad"/>
        <path id="Trazado_127497" data-name="Trazado 127497" d="M451.591,164.883h-3.224a4.644,4.644,0,0,1,4.644,4.644v37.152a4.644,4.644,0,0,1-4.644,4.644h3.224a4.644,4.644,0,0,0,4.644-4.644V169.527A4.644,4.644,0,0,0,451.591,164.883Z" transform="translate(-386.575 -143.529)" fill="#91b2fa"/>
      </g>
      <g id="Grupo_156643" data-name="Grupo 156643" transform="translate(0 0)">
        <path id="Trazado_127498" data-name="Trazado 127498" d="M49.276,215.367a16.162,16.162,0,0,0-16.144,16.144,16,16,0,0,0,3.294,9.773,1.051,1.051,0,1,0,1.673-1.274,13.915,13.915,0,0,1-2.864-8.5,14.039,14.039,0,1,1,5.644,11.255,1.051,1.051,0,0,0-1.259,1.684,16.144,16.144,0,1,0,9.657-29.083Z" transform="translate(-28.488 -186.342)"/>
        <path id="Trazado_127499" data-name="Trazado 127499" d="M113.111,288.49a6.856,6.856,0,1,0-6.856,6.856A6.864,6.864,0,0,0,113.111,288.49Zm-11.61,0a4.754,4.754,0,1,1,4.754,4.754,4.759,4.759,0,0,1-4.754-4.754Z" transform="translate(-85.467 -243.321)"/>
        <path id="Trazado_127500" data-name="Trazado 127500" d="M70.71,43.331a1.051,1.051,0,0,0,1.051-1.051V34.875a5.7,5.7,0,0,0-5.7-5.7H64.8V26.708a2.175,2.175,0,0,0-2.172-2.172H55.578a2.175,2.175,0,0,0-2.172,2.172V29.18H50.864V26.708a2.175,2.175,0,0,0-2.172-2.172H41.646a2.175,2.175,0,0,0-2.172,2.172V29.18H18.356v-2.15L56.425,13.705a3.371,3.371,0,1,0-.7-2.05c0,.022,0,.044,0,.066L17.6,25.066a2.161,2.161,0,0,0-1.418-.53H9.138a2.175,2.175,0,0,0-2.172,2.172V29.18H5.7a5.7,5.7,0,0,0-5.7,5.7V72.027a5.7,5.7,0,0,0,5.7,5.7H66.067a5.7,5.7,0,0,0,5.7-5.7V46.485a1.051,1.051,0,1,0-2.1,0V72.027a3.6,3.6,0,0,1-3.593,3.593H41.576V31.282H66.067a3.6,3.6,0,0,1,3.593,3.593V42.28A1.051,1.051,0,0,0,70.71,43.331ZM59.1,10.384a1.271,1.271,0,1,1-1.271,1.271A1.272,1.272,0,0,1,59.1,10.384ZM9.068,26.708a.07.07,0,0,1,.07-.07h7.045a.069.069,0,0,1,.042.016l0,.007c.007.02.018.039.026.058V29.18H9.068ZM5.7,75.62A3.6,3.6,0,0,1,2.1,72.027V34.875A3.6,3.6,0,0,1,5.7,31.282H39.474V75.62ZM41.576,29.18V26.708a.07.07,0,0,1,.07-.07h7.045a.07.07,0,0,1,.07.07V29.18Zm13.932,0V26.708a.07.07,0,0,1,.07-.07h7.045a.07.07,0,0,1,.07.07V29.18Z" transform="translate(0 -8.282)"/>
        <path id="Trazado_127501" data-name="Trazado 127501" d="M337.767,192.688a2.175,2.175,0,0,0-2.172-2.172H316.94a2.175,2.175,0,0,0-2.172,2.172v4.723a2.175,2.175,0,0,0,2.172,2.172h18.655a2.175,2.175,0,0,0,2.172-2.172Zm-2.1,4.723a.07.07,0,0,1-.07.07H316.94a.07.07,0,0,1-.07-.07v-4.723a.07.07,0,0,1,.07-.07h18.655a.07.07,0,0,1,.07.07Z" transform="translate(-270.649 -164.974)"/>
        <path id="Trazado_127502" data-name="Trazado 127502" d="M319.3,282.417a4.534,4.534,0,1,0-4.534-4.534A4.539,4.539,0,0,0,319.3,282.417Zm0-6.966a2.432,2.432,0,1,1-2.432,2.432A2.435,2.435,0,0,1,319.3,275.451Z" transform="translate(-270.649 -236.197)"/>
        <path id="Trazado_127503" data-name="Trazado 127503" d="M418.7,273.35a4.534,4.534,0,1,0,4.534,4.534A4.539,4.539,0,0,0,418.7,273.35Zm0,6.966a2.432,2.432,0,1,1,2.432-2.432A2.434,2.434,0,0,1,418.7,280.316Z" transform="translate(-356.118 -236.198)"/>
        <path id="Trazado_127504" data-name="Trazado 127504" d="M336.716,356.184h-20.9a1.051,1.051,0,1,0,0,2.1h20.9a1.051,1.051,0,1,0,0-2.1Z" transform="translate(-270.649 -307.422)"/>
        <path id="Trazado_127505" data-name="Trazado 127505" d="M336.716,389.316h-20.9a1.051,1.051,0,0,0,0,2.1h20.9a1.051,1.051,0,1,0,0-2.1Z" transform="translate(-270.649 -335.91)"/>
        <path id="Trazado_127506" data-name="Trazado 127506" d="M336.716,422.45h-20.9a1.051,1.051,0,0,0,0,2.1h20.9a1.051,1.051,0,1,0,0-2.1Z" transform="translate(-270.649 -364.4)"/>
      </g>
    </g>
  </g>
</svg>
