<svg xmlns="http://www.w3.org/2000/svg" xmlns:xlink="http://www.w3.org/1999/xlink" width="400" height="232.811" viewBox="0 0 400 232.811">
  <defs>
    <clipPath id="clip-path">
      <rect id="Rectángulo_37369" data-name="Rectángulo 37369" width="265.64" height="227.811" fill="none"/>
    </clipPath>
  </defs>
  <g id="Grupo_156662" data-name="Grupo 156662" transform="translate(-1020 -4985)">
    <path id="Elipse_4785" data-name="Elipse 4785" d="M78.5,52.333A26.167,26.167,0,1,0,104.667,78.5,26.2,26.2,0,0,0,78.5,52.333M78.5,0A78.5,78.5,0,1,1,0,78.5,78.5,78.5,0,0,1,78.5,0Z" transform="translate(1020 4985)" fill="#1169e3"/>
    <g id="Grupo_156660" data-name="Grupo 156660" transform="translate(735 2468.155)">
      <g id="Grupo_156602" data-name="Grupo 156602" transform="translate(369.557 1697.189)">
        <path id="Trazado_99257" data-name="Trazado 99257" d="M421.327,106.178a3.56,3.56,0,1,1-3.558-3.4A3.481,3.481,0,0,1,421.327,106.178Z" transform="translate(-234.737 884.221)" fill="#209c95"/>
        <path id="Trazado_116526" data-name="Trazado 116526" d="M421.327,106.178a3.56,3.56,0,1,1-3.558-3.4A3.481,3.481,0,0,1,421.327,106.178Z" transform="translate(-154.204 884.221)" fill="#209c95"/>
        <path id="Trazado_99258" data-name="Trazado 99258" d="M429.772,106.178a3.56,3.56,0,1,1-3.554-3.4A3.48,3.48,0,0,1,429.772,106.178Z" transform="translate(-227.077 884.221)" fill="#209c95"/>
        <path id="Trazado_116527" data-name="Trazado 116527" d="M429.772,106.178a3.56,3.56,0,1,1-3.554-3.4A3.48,3.48,0,0,1,429.772,106.178Z" transform="translate(-146.543 884.221)" fill="#209c95"/>
        <path id="Trazado_99259" data-name="Trazado 99259" d="M438.218,106.178a3.56,3.56,0,1,1-3.554-3.4A3.48,3.48,0,0,1,438.218,106.178Z" transform="translate(-219.416 884.221)" fill="#209c95"/>
        <path id="Trazado_116531" data-name="Trazado 116531" d="M438.218,106.178a3.56,3.56,0,1,1-3.554-3.4A3.48,3.48,0,0,1,438.218,106.178Z" transform="translate(-138.883 884.221)" fill="#209c95"/>
        <path id="Trazado_99260" data-name="Trazado 99260" d="M446.665,106.178a3.56,3.56,0,1,1-3.558-3.4A3.481,3.481,0,0,1,446.665,106.178Z" transform="translate(-211.757 884.221)" fill="#209c95"/>
        <path id="Trazado_116532" data-name="Trazado 116532" d="M446.665,106.178a3.56,3.56,0,1,1-3.558-3.4A3.481,3.481,0,0,1,446.665,106.178Z" transform="translate(-131.223 884.221)" fill="#209c95"/>
        <path id="Trazado_99261" data-name="Trazado 99261" d="M455.111,106.178a3.56,3.56,0,1,1-3.554-3.4A3.48,3.48,0,0,1,455.111,106.178Z" transform="translate(-204.096 884.221)" fill="#209c95"/>
        <ellipse id="Elipse_3975" data-name="Elipse 3975" cx="3.556" cy="3.401" rx="3.556" ry="3.401" transform="translate(179.477 1004.668)" fill="#209c95"/>
        <ellipse id="Elipse_4742" data-name="Elipse 4742" cx="3.556" cy="3.401" rx="3.556" ry="3.401" transform="translate(260.01 1004.668)" fill="#209c95"/>
        <path id="Trazado_99268" data-name="Trazado 99268" d="M429.772,113.686a3.56,3.56,0,1,1-3.554-3.4A3.482,3.482,0,0,1,429.772,113.686Z" transform="translate(-227.077 894.38)" fill="#209c95"/>
        <path id="Trazado_116528" data-name="Trazado 116528" d="M429.772,113.686a3.56,3.56,0,1,1-3.554-3.4A3.482,3.482,0,0,1,429.772,113.686Z" transform="translate(-146.543 894.38)" fill="#209c95"/>
        <ellipse id="Elipse_3976" data-name="Elipse 3976" cx="3.556" cy="3.401" rx="3.556" ry="3.401" transform="translate(211.69 1004.668)" fill="#209c95"/>
        <ellipse id="Elipse_4743" data-name="Elipse 4743" cx="3.556" cy="3.401" rx="3.556" ry="3.401" transform="translate(292.224 1004.668)" fill="#209c95"/>
        <path id="Trazado_99269" data-name="Trazado 99269" d="M446.665,113.686a3.56,3.56,0,1,1-3.558-3.4A3.483,3.483,0,0,1,446.665,113.686Z" transform="translate(-211.757 894.38)" fill="#209c95"/>
        <path id="Trazado_116533" data-name="Trazado 116533" d="M446.665,113.686a3.56,3.56,0,1,1-3.558-3.4A3.483,3.483,0,0,1,446.665,113.686Z" transform="translate(-131.223 894.38)" fill="#209c95"/>
        <path id="Trazado_99270" data-name="Trazado 99270" d="M455.111,113.686a3.56,3.56,0,1,1-3.554-3.4A3.482,3.482,0,0,1,455.111,113.686Z" transform="translate(-204.096 894.38)" fill="#209c95"/>
        <path id="Trazado_99274" data-name="Trazado 99274" d="M421.327,121.2a3.56,3.56,0,1,1-3.558-3.4A3.484,3.484,0,0,1,421.327,121.2Z" transform="translate(-234.737 904.541)" fill="#209c95"/>
        <path id="Trazado_116529" data-name="Trazado 116529" d="M421.327,121.2a3.56,3.56,0,1,1-3.558-3.4A3.484,3.484,0,0,1,421.327,121.2Z" transform="translate(-154.204 904.541)" fill="#209c95"/>
        <path id="Trazado_99275" data-name="Trazado 99275" d="M429.772,121.2a3.56,3.56,0,1,1-3.554-3.4A3.482,3.482,0,0,1,429.772,121.2Z" transform="translate(-227.077 904.541)" fill="#209c95"/>
        <path id="Trazado_116530" data-name="Trazado 116530" d="M429.772,121.2a3.56,3.56,0,1,1-3.554-3.4A3.482,3.482,0,0,1,429.772,121.2Z" transform="translate(-146.543 904.541)" fill="#209c95"/>
        <path id="Trazado_99276" data-name="Trazado 99276" d="M438.218,121.2a3.56,3.56,0,1,1-3.554-3.4A3.483,3.483,0,0,1,438.218,121.2Z" transform="translate(-219.416 904.541)" fill="#209c95"/>
        <path id="Trazado_116534" data-name="Trazado 116534" d="M438.218,121.2a3.56,3.56,0,1,1-3.554-3.4A3.483,3.483,0,0,1,438.218,121.2Z" transform="translate(-138.883 904.541)" fill="#209c95"/>
        <path id="Trazado_99277" data-name="Trazado 99277" d="M446.665,121.2a3.56,3.56,0,1,1-3.558-3.4A3.483,3.483,0,0,1,446.665,121.2Z" transform="translate(-211.757 904.541)" fill="#209c95"/>
        <path id="Trazado_116535" data-name="Trazado 116535" d="M446.665,121.2a3.56,3.56,0,1,1-3.558-3.4A3.483,3.483,0,0,1,446.665,121.2Z" transform="translate(-131.223 904.541)" fill="#209c95"/>
        <path id="Trazado_99278" data-name="Trazado 99278" d="M455.111,121.2a3.56,3.56,0,1,1-3.554-3.4A3.482,3.482,0,0,1,455.111,121.2Z" transform="translate(-204.096 904.541)" fill="#209c95"/>
        <ellipse id="Elipse_3980" data-name="Elipse 3980" cx="3.556" cy="3.401" rx="3.556" ry="3.401" transform="translate(179.477 1040.009)" fill="#209c95"/>
        <ellipse id="Elipse_4744" data-name="Elipse 4744" cx="3.556" cy="3.401" rx="3.556" ry="3.401" transform="translate(260.01 1040.009)" fill="#209c95"/>
        <path id="Trazado_99285" data-name="Trazado 99285" d="M429.772,128.7a3.56,3.56,0,1,1-3.554-3.4A3.479,3.479,0,0,1,429.772,128.7Z" transform="translate(-227.077 914.704)" fill="#209c95"/>
        <path id="Trazado_116536" data-name="Trazado 116536" d="M429.772,128.7a3.56,3.56,0,1,1-3.554-3.4A3.479,3.479,0,0,1,429.772,128.7Z" transform="translate(-146.543 914.704)" fill="#209c95"/>
        <ellipse id="Elipse_3981" data-name="Elipse 3981" cx="3.556" cy="3.401" rx="3.556" ry="3.401" transform="translate(211.69 1040.009)" fill="#209c95"/>
        <ellipse id="Elipse_4745" data-name="Elipse 4745" cx="3.556" cy="3.401" rx="3.556" ry="3.401" transform="translate(292.224 1040.009)" fill="#209c95"/>
        <path id="Trazado_99286" data-name="Trazado 99286" d="M446.665,128.7a3.56,3.56,0,1,1-3.558-3.4A3.481,3.481,0,0,1,446.665,128.7Z" transform="translate(-211.757 914.704)" fill="#209c95"/>
        <path id="Trazado_116537" data-name="Trazado 116537" d="M446.665,128.7a3.56,3.56,0,1,1-3.558-3.4A3.481,3.481,0,0,1,446.665,128.7Z" transform="translate(-131.223 914.704)" fill="#209c95"/>
        <path id="Trazado_99287" data-name="Trazado 99287" d="M455.111,128.7a3.56,3.56,0,1,1-3.554-3.4A3.479,3.479,0,0,1,455.111,128.7Z" transform="translate(-204.096 914.704)" fill="#209c95"/>
      </g>
      <g id="Grupo_156603" data-name="Grupo 156603" transform="translate(369.557 1629.189)">
        <path id="Trazado_99257-2" data-name="Trazado 99257" d="M421.327,106.178a3.56,3.56,0,1,1-3.558-3.4A3.481,3.481,0,0,1,421.327,106.178Z" transform="translate(-234.737 884.221)" fill="#209c95"/>
        <path id="Trazado_116526-2" data-name="Trazado 116526" d="M421.327,106.178a3.56,3.56,0,1,1-3.558-3.4A3.481,3.481,0,0,1,421.327,106.178Z" transform="translate(-154.204 884.221)" fill="#209c95"/>
        <path id="Trazado_99258-2" data-name="Trazado 99258" d="M429.772,106.178a3.56,3.56,0,1,1-3.554-3.4A3.48,3.48,0,0,1,429.772,106.178Z" transform="translate(-227.077 884.221)" fill="#209c95"/>
        <path id="Trazado_116527-2" data-name="Trazado 116527" d="M429.772,106.178a3.56,3.56,0,1,1-3.554-3.4A3.48,3.48,0,0,1,429.772,106.178Z" transform="translate(-146.543 884.221)" fill="#209c95"/>
        <path id="Trazado_99259-2" data-name="Trazado 99259" d="M438.218,106.178a3.56,3.56,0,1,1-3.554-3.4A3.48,3.48,0,0,1,438.218,106.178Z" transform="translate(-219.416 884.221)" fill="#209c95"/>
        <path id="Trazado_116531-2" data-name="Trazado 116531" d="M438.218,106.178a3.56,3.56,0,1,1-3.554-3.4A3.48,3.48,0,0,1,438.218,106.178Z" transform="translate(-138.883 884.221)" fill="#209c95"/>
        <path id="Trazado_99260-2" data-name="Trazado 99260" d="M446.665,106.178a3.56,3.56,0,1,1-3.558-3.4A3.481,3.481,0,0,1,446.665,106.178Z" transform="translate(-211.757 884.221)" fill="#209c95"/>
        <path id="Trazado_116532-2" data-name="Trazado 116532" d="M446.665,106.178a3.56,3.56,0,1,1-3.558-3.4A3.481,3.481,0,0,1,446.665,106.178Z" transform="translate(-131.223 884.221)" fill="#209c95"/>
        <path id="Trazado_99261-2" data-name="Trazado 99261" d="M455.111,106.178a3.56,3.56,0,1,1-3.554-3.4A3.48,3.48,0,0,1,455.111,106.178Z" transform="translate(-204.096 884.221)" fill="#209c95"/>
        <ellipse id="Elipse_3975-2" data-name="Elipse 3975" cx="3.556" cy="3.401" rx="3.556" ry="3.401" transform="translate(179.477 1004.668)" fill="#209c95"/>
        <ellipse id="Elipse_4742-2" data-name="Elipse 4742" cx="3.556" cy="3.401" rx="3.556" ry="3.401" transform="translate(260.01 1004.668)" fill="#209c95"/>
        <path id="Trazado_99268-2" data-name="Trazado 99268" d="M429.772,113.686a3.56,3.56,0,1,1-3.554-3.4A3.482,3.482,0,0,1,429.772,113.686Z" transform="translate(-227.077 894.38)" fill="#209c95"/>
        <path id="Trazado_116528-2" data-name="Trazado 116528" d="M429.772,113.686a3.56,3.56,0,1,1-3.554-3.4A3.482,3.482,0,0,1,429.772,113.686Z" transform="translate(-146.543 894.38)" fill="#209c95"/>
        <ellipse id="Elipse_3976-2" data-name="Elipse 3976" cx="3.556" cy="3.401" rx="3.556" ry="3.401" transform="translate(211.69 1004.668)" fill="#209c95"/>
        <ellipse id="Elipse_4743-2" data-name="Elipse 4743" cx="3.556" cy="3.401" rx="3.556" ry="3.401" transform="translate(292.224 1004.668)" fill="#209c95"/>
        <path id="Trazado_99269-2" data-name="Trazado 99269" d="M446.665,113.686a3.56,3.56,0,1,1-3.558-3.4A3.483,3.483,0,0,1,446.665,113.686Z" transform="translate(-211.757 894.38)" fill="#209c95"/>
        <path id="Trazado_116533-2" data-name="Trazado 116533" d="M446.665,113.686a3.56,3.56,0,1,1-3.558-3.4A3.483,3.483,0,0,1,446.665,113.686Z" transform="translate(-131.223 894.38)" fill="#209c95"/>
        <path id="Trazado_99270-2" data-name="Trazado 99270" d="M455.111,113.686a3.56,3.56,0,1,1-3.554-3.4A3.482,3.482,0,0,1,455.111,113.686Z" transform="translate(-204.096 894.38)" fill="#209c95"/>
        <path id="Trazado_99274-2" data-name="Trazado 99274" d="M421.327,121.2a3.56,3.56,0,1,1-3.558-3.4A3.484,3.484,0,0,1,421.327,121.2Z" transform="translate(-234.737 904.541)" fill="#209c95"/>
        <path id="Trazado_116529-2" data-name="Trazado 116529" d="M421.327,121.2a3.56,3.56,0,1,1-3.558-3.4A3.484,3.484,0,0,1,421.327,121.2Z" transform="translate(-154.204 904.541)" fill="#209c95"/>
        <path id="Trazado_99275-2" data-name="Trazado 99275" d="M429.772,121.2a3.56,3.56,0,1,1-3.554-3.4A3.482,3.482,0,0,1,429.772,121.2Z" transform="translate(-227.077 904.541)" fill="#209c95"/>
        <path id="Trazado_116530-2" data-name="Trazado 116530" d="M429.772,121.2a3.56,3.56,0,1,1-3.554-3.4A3.482,3.482,0,0,1,429.772,121.2Z" transform="translate(-146.543 904.541)" fill="#209c95"/>
        <path id="Trazado_99276-2" data-name="Trazado 99276" d="M438.218,121.2a3.56,3.56,0,1,1-3.554-3.4A3.483,3.483,0,0,1,438.218,121.2Z" transform="translate(-219.416 904.541)" fill="#209c95"/>
        <path id="Trazado_116534-2" data-name="Trazado 116534" d="M438.218,121.2a3.56,3.56,0,1,1-3.554-3.4A3.483,3.483,0,0,1,438.218,121.2Z" transform="translate(-138.883 904.541)" fill="#209c95"/>
        <path id="Trazado_99277-2" data-name="Trazado 99277" d="M446.665,121.2a3.56,3.56,0,1,1-3.558-3.4A3.483,3.483,0,0,1,446.665,121.2Z" transform="translate(-211.757 904.541)" fill="#209c95"/>
        <path id="Trazado_116535-2" data-name="Trazado 116535" d="M446.665,121.2a3.56,3.56,0,1,1-3.558-3.4A3.483,3.483,0,0,1,446.665,121.2Z" transform="translate(-131.223 904.541)" fill="#209c95"/>
        <path id="Trazado_99278-2" data-name="Trazado 99278" d="M455.111,121.2a3.56,3.56,0,1,1-3.554-3.4A3.482,3.482,0,0,1,455.111,121.2Z" transform="translate(-204.096 904.541)" fill="#209c95"/>
        <ellipse id="Elipse_3980-2" data-name="Elipse 3980" cx="3.556" cy="3.401" rx="3.556" ry="3.401" transform="translate(179.477 1040.009)" fill="#209c95"/>
        <ellipse id="Elipse_4744-2" data-name="Elipse 4744" cx="3.556" cy="3.401" rx="3.556" ry="3.401" transform="translate(260.01 1040.009)" fill="#209c95"/>
        <path id="Trazado_99285-2" data-name="Trazado 99285" d="M429.772,128.7a3.56,3.56,0,1,1-3.554-3.4A3.479,3.479,0,0,1,429.772,128.7Z" transform="translate(-227.077 914.704)" fill="#209c95"/>
        <path id="Trazado_116536-2" data-name="Trazado 116536" d="M429.772,128.7a3.56,3.56,0,1,1-3.554-3.4A3.479,3.479,0,0,1,429.772,128.7Z" transform="translate(-146.543 914.704)" fill="#209c95"/>
        <ellipse id="Elipse_3981-2" data-name="Elipse 3981" cx="3.556" cy="3.401" rx="3.556" ry="3.401" transform="translate(211.69 1040.009)" fill="#209c95"/>
        <ellipse id="Elipse_4745-2" data-name="Elipse 4745" cx="3.556" cy="3.401" rx="3.556" ry="3.401" transform="translate(292.224 1040.009)" fill="#209c95"/>
        <path id="Trazado_99286-2" data-name="Trazado 99286" d="M446.665,128.7a3.56,3.56,0,1,1-3.558-3.4A3.481,3.481,0,0,1,446.665,128.7Z" transform="translate(-211.757 914.704)" fill="#209c95"/>
        <path id="Trazado_116537-2" data-name="Trazado 116537" d="M446.665,128.7a3.56,3.56,0,1,1-3.558-3.4A3.481,3.481,0,0,1,446.665,128.7Z" transform="translate(-131.223 914.704)" fill="#209c95"/>
        <path id="Trazado_99287-2" data-name="Trazado 99287" d="M455.111,128.7a3.56,3.56,0,1,1-3.554-3.4A3.479,3.479,0,0,1,455.111,128.7Z" transform="translate(-204.096 914.704)" fill="#209c95"/>
      </g>
    </g>
    <g id="Grupo_156661" data-name="Grupo 156661" transform="translate(1097.013 4990)">
      <path id="Trazado_128753" data-name="Trazado 128753" d="M150.218,204.314H109.107l3.379-49.56h34.353Z" transform="translate(12.678 17.982)" fill="#072b49"/>
      <g id="Grupo_156658" data-name="Grupo 156658">
        <g id="Grupo_156657" data-name="Grupo 156657" clip-path="url(#clip-path)">
          <path id="Trazado_128754" data-name="Trazado 128754" d="M156.862,192.17a2.687,2.687,0,0,0-2.232-1.191H107.206a2.687,2.687,0,0,0-2.232,1.191l-6.211,9.268a2.686,2.686,0,0,0,2.231,4.182h59.847a2.687,2.687,0,0,0,2.232-4.182Z" transform="translate(11.422 22.191)" fill="#072b49"/>
          <path id="Trazado_128755" data-name="Trazado 128755" d="M239.867,182.222H38.543a11.57,11.57,0,0,1-11.569-11.57V43.326A11.57,11.57,0,0,1,38.543,31.754H239.867a11.571,11.571,0,0,1,11.57,11.572V170.651a11.57,11.57,0,0,1-11.57,11.57" transform="translate(3.134 3.69)" fill="#072b49"/>
          <rect id="Rectángulo_37353" data-name="Rectángulo 37353" width="203.795" height="128.972" transform="translate(40.442 45.412)" fill="#fefefe"/>
          <rect id="Rectángulo_37354" data-name="Rectángulo 37354" width="193.612" height="114.926" transform="translate(45.534 59.459)" fill="#e5e6ed"/>
          <rect id="Rectángulo_37355" data-name="Rectángulo 37355" width="193.612" height="9.508" transform="translate(45.534 59.459)" fill="#b3eef6"/>
          <rect id="Rectángulo_37356" data-name="Rectángulo 37356" width="60.128" height="7.937" transform="translate(169.619 99.975)" fill="#fefefe"/>
          <rect id="Rectángulo_37357" data-name="Rectángulo 37357" width="60.128" height="7.937" transform="translate(169.619 114.007)" fill="#fefefe"/>
          <rect id="Rectángulo_37358" data-name="Rectángulo 37358" width="60.128" height="7.937" transform="translate(169.619 128.039)" fill="#fefefe"/>
          <rect id="Rectángulo_37359" data-name="Rectángulo 37359" width="60.128" height="7.937" transform="translate(63.39 78.506)" fill="#fefefe"/>
          <rect id="Rectángulo_37360" data-name="Rectángulo 37360" width="60.128" height="7.937" transform="translate(63.39 92.538)" fill="#fefefe"/>
          <path id="Trazado_128756" data-name="Trazado 128756" d="M120.715,85.1H7.2A7.2,7.2,0,0,0,0,92.3v36.6a7.2,7.2,0,0,0,7.2,7.2H78.316L105.4,159.137,92.542,136.1h28.174a7.2,7.2,0,0,0,7.2-7.2V92.3a7.2,7.2,0,0,0-7.2-7.2" transform="translate(0 9.889)" fill="#fee734"/>
          <rect id="Rectángulo_37361" data-name="Rectángulo 37361" width="76.502" height="4.405" transform="translate(42.775 104.862)" fill="#072b49"/>
          <rect id="Rectángulo_37362" data-name="Rectángulo 37362" width="76.502" height="4.405" transform="translate(42.775 113.849)" fill="#072b49"/>
          <rect id="Rectángulo_37363" data-name="Rectángulo 37363" width="76.502" height="4.405" transform="translate(42.775 122.835)" fill="#072b49"/>
          <rect id="Rectángulo_37364" data-name="Rectángulo 37364" width="50.775" height="4.405" transform="translate(42.776 131.822)" fill="#072b49"/>
          <path id="Trazado_128757" data-name="Trazado 128757" d="M35.969,108.78A14.759,14.759,0,1,1,21.209,94.022,14.759,14.759,0,0,1,35.969,108.78" transform="translate(0.75 10.925)" fill="#072b49"/>
          <path id="Trazado_128758" data-name="Trazado 128758" d="M24.272,103.759a4.167,4.167,0,1,1-4.165-4.3,4.232,4.232,0,0,1,4.165,4.3" transform="translate(1.852 11.557)" fill="#fff"/>
          <path id="Trazado_128759" data-name="Trazado 128759" d="M20.525,107.74h-.15a7.394,7.394,0,0,0-7.394,7.395v4.714a14.355,14.355,0,0,0,14.938,0v-4.714a7.4,7.4,0,0,0-7.395-7.395" transform="translate(1.508 12.519)" fill="#fff"/>
          <path id="Trazado_128760" data-name="Trazado 128760" d="M244.1,0H130.586a7.2,7.2,0,0,0-7.2,7.2V43.8a7.2,7.2,0,0,0,7.2,7.2h32.867l-8.807,23.033L177.68,51H244.1a7.2,7.2,0,0,0,7.2-7.2V7.2A7.2,7.2,0,0,0,244.1,0" transform="translate(14.337)" fill="#d0d1de"/>
          <rect id="Rectángulo_37365" data-name="Rectángulo 37365" width="76.502" height="4.405" transform="translate(180.501 9.872)" fill="#fff"/>
          <rect id="Rectángulo_37366" data-name="Rectángulo 37366" width="76.502" height="4.405" transform="translate(180.501 18.857)" fill="#fff"/>
          <rect id="Rectángulo_37367" data-name="Rectángulo 37367" width="76.502" height="4.405" transform="translate(180.501 27.843)" fill="#fff"/>
          <rect id="Rectángulo_37368" data-name="Rectángulo 37368" width="50.775" height="4.405" transform="translate(180.502 36.83)" fill="#fff"/>
          <path id="Trazado_128761" data-name="Trazado 128761" d="M159.358,23.677A14.759,14.759,0,1,1,144.6,8.919a14.758,14.758,0,0,1,14.758,14.758" transform="translate(15.087 1.036)" fill="#110239"/>
          <path id="Trazado_128762" data-name="Trazado 128762" d="M147.661,18.657a4.167,4.167,0,1,1-4.165-4.3,4.231,4.231,0,0,1,4.165,4.3" transform="translate(16.19 1.669)" fill="#fff"/>
          <path id="Trazado_128763" data-name="Trazado 128763" d="M143.914,22.637h-.15a7.394,7.394,0,0,0-7.394,7.395v4.716a14.361,14.361,0,0,0,14.938,0V30.032a7.4,7.4,0,0,0-7.395-7.395" transform="translate(15.846 2.63)" fill="#fff"/>
          <path id="Trazado_128764" data-name="Trazado 128764" d="M135.221,80.817a33.489,33.489,0,0,1-9.108.4,13.538,13.538,0,0,1-3.2-.7c.147,3.793.176,12.681-2.523,16.361,0,0,.972,4.371,8.864,4.5s8.78-5.824,8.78-5.824-2.654-9.151-2.815-14.745" transform="translate(13.989 9.356)" fill="#f88667"/>
          <path id="Trazado_128765" data-name="Trazado 128765" d="M120.434,97.024c.025.076.065.182.121.31.006.012.013.026.019.039a4.391,4.391,0,0,0,.246.46.13.13,0,0,0,.012.021,5.293,5.293,0,0,0,.4.56q.032.04.067.08a6.462,6.462,0,0,0,1.431,1.242c.035.023.067.047.1.069a8.39,8.39,0,0,0,1.067.559c.051.022.107.044.16.066a10.61,10.61,0,0,0,1.385.472,11.129,11.129,0,0,1,2.324-5.6,13.936,13.936,0,0,1,8.886-5.158,53.531,53.531,0,0,1-1.437-9.327,33.438,33.438,0,0,1-9.107.4,13.559,13.559,0,0,1-3.2-.7c.148,3.793.177,12.681-2.521,16.362l.027.094.015.045" transform="translate(13.989 9.356)" fill="#e45940"/>
          <path id="Trazado_128766" data-name="Trazado 128766" d="M124.237,61.916s12.931-3.819,14.991-.686,1.687,8.191,2.544,10.419,4.066,4.579,4.41,5.469-2.15,2.594-2.5,3.291-1.65,8.015-3.894,9.631-14.285-2.673-17.269-8.358-1.754-17.891,1.714-19.764" transform="translate(14.041 6.971)" fill="#f88667"/>
          <path id="Trazado_128767" data-name="Trazado 128767" d="M130.851,64.341a12.843,12.843,0,0,1-1.362,6.682c-.775,1.546,3.088,5.659,2.012,7.529-.717,1.243-1.762.929-2.712-1.529a3.735,3.735,0,0,0-2.091-1.787c-3.164-1.37-3.9,3.454-1.064,4.887,1.987,1,.806,6.032.806,6.032-2.134,1.642-9.184-.337-8.412-5.485.492-3.277.71-4.525-.439-5.323-2.078-1.445-4.783-5.456-1.362-8.857,4.713-4.687.414-6.175,5.863-7.528s9.953,1.976,8.759,5.38" transform="translate(13.316 6.815)" fill="#110239"/>
          <path id="Trazado_128768" data-name="Trazado 128768" d="M120.517,61.956c.307-1.189,2.457-2.721,3.52-3.514a15.674,15.674,0,0,1,5.578-2.517,14.388,14.388,0,0,1,6.215-.21c1.768.338,3.251,1.123,5.06,1.329a5.84,5.84,0,0,0,4.508-.874,11.546,11.546,0,0,1,.222,4.091,12.78,12.78,0,0,1-2.325,4.5c-2.622,3.915-9.759,6.081-14.79,4.013-2.431-1-4.612-1.864-5.806-3.978a12.654,12.654,0,0,0-2.182-2.837" transform="translate(14.004 6.446)" fill="#110239"/>
          <path id="Trazado_128769" data-name="Trazado 128769" d="M183.841,68.834l12.5,27.746s-3.659,4.115-4.878,3.2-19.971-23.427-21.8-24.6,14.178-6.352,14.178-6.352" transform="translate(19.697 7.998)" fill="#110239"/>
          <path id="Trazado_128770" data-name="Trazado 128770" d="M154.578,75.638s.051,7.979,4.929,9.808c0,0,25-10.359,30.032-11.354s23.325-1.147,23.325-1.147L194.418,40.016S185.577,57.7,177.5,63.493s-22.919,12.145-22.919,12.145" transform="translate(17.961 4.65)" fill="#1169e3"/>
          <path id="Trazado_128771" data-name="Trazado 128771" d="M169.622,78.043c1.978-.786,4.041-1.6,6.073-2.383a25.433,25.433,0,0,1-5.262-11.283c-1.9,1.086-3.861,2.133-5.763,3.106a22.931,22.931,0,0,0,4.951,10.559" transform="translate(19.134 7.48)" fill="#110239"/>
          <path id="Trazado_128772" data-name="Trazado 128772" d="M216.025,49.458c5.208,12.561,3.368,25.256-4.111,28.357s-17.761-4.569-22.969-17.129-3.368-25.257,4.111-28.357,17.762,4.569,22.969,17.129" transform="translate(21.61 3.676)" fill="#01c7e2"/>
          <path id="Trazado_128773" data-name="Trazado 128773" d="M214.654,49.556c4.43,10.684,2.864,21.485-3.5,24.122s-15.11-3.887-19.539-14.572-2.865-21.485,3.5-24.122,15.11,3.887,19.54,14.572" transform="translate(21.972 3.997)" fill="#110239"/>
          <path id="Trazado_128774" data-name="Trazado 128774" d="M181.235,87.408c-.595-.361-.428-2.594-.307-3.176.189-.909.818-2.094.188-2.962-1.115-1.538-2.684,2.6-2.888,3.2a4.334,4.334,0,0,0-.287,2.757,10.857,10.857,0,0,0,2.392,3.613c-.115.412-.242.838-.4,1.295a27.56,27.56,0,0,1,3.014,1.526c1.207.694,1.144,1.556,2.273,2.332l1.128-2.592c-.473-.592-4.122-5.39-5.113-5.991" transform="translate(20.662 9.404)" fill="#f88667"/>
          <path id="Trazado_128775" data-name="Trazado 128775" d="M188.8,78.671c-1.08-1.163-2.764-.717-4.071.237-.955.7-3.7,2.921-2.965,4.534.616,1.341,4.154-1.627,4.154-1.627-1.3,1.122-3.731,2.018-3.121,3.14.682,1.252,3.771-.531,4.446-1.028-.694.177-4.143,2.271-2.761,3.365.947.748,3.483-.824,4.243-1.357-1.018.309-2.4,1.212-2.135,2.623.443.772,1.981.26,2.839-.088,1.293-.525,2.509-.727,2.614-2.333a7.222,7.222,0,0,0,.044-.872,8.8,8.8,0,0,0-1.137-3.5,15.222,15.222,0,0,0-2.149-3.1" transform="translate(21.106 9.06)" fill="#f88667"/>
          <path id="Trazado_128776" data-name="Trazado 128776" d="M72.92,89.494a14.177,14.177,0,0,1-1.445-3.076c-.321-.921-.549-1.862-.867-2.783a7.228,7.228,0,0,1-.622-2.726,7.973,7.973,0,0,1,.335-1.664c.184-.707.444-1.4.589-2.112.129-.637.073-1.258.193-1.893a11.26,11.26,0,0,1,1.1-3.495,13.009,13.009,0,0,1,1.605-2.212,8.226,8.226,0,0,1,.951-1.014,2.524,2.524,0,0,0,.872-1.072,1.026,1.026,0,0,0-.747-1.381,3.836,3.836,0,0,0-3.544,1.16c-.942,1.3-1.386,2.883-2.434,4.132-3.208,3.821-6.217-.676-9.959-2.294a22.448,22.448,0,0,1-3.615-2.331c-.67-.5-3.542-3.233-4.9-2.521-1,.523.957,2.816,1.9,3.378.373.22,3.579,2.824,4,2.949-.945-.161-3.4-1.784-5.376-3.33-1.419-1.111-2.794-2.2-3.568-1.57-2.381,1.951,6.962,6.416,7.691,6.824-.778.067-8.092-5.112-8.784-3.208-.381,1.046,1.137,2.084,2.379,2.758,1.558.846,4.169,1.452,4.757,1.909-1.1.374-5.944-2.92-5.946-.91,0,1.316,3.007,2.3,4.139,2.645,1.165.356,4.592,2.686,5.676,3.2,3.615,1.723,5.107,1.524,6.533,3.689.909,1.38,2.527,8.669,3.839,11.444Z" transform="translate(5.372 7.448)" fill="#f88667"/>
          <path id="Trazado_128777" data-name="Trazado 128777" d="M183.309,90.078c-3.224,9.385-10.117,25.986-12.392,24.822-4.269-2.187-13.457-9.7-20.321-14.294a48.213,48.213,0,0,0-7.982-4.6l4.778,22.658s22.65,17.2,27.395,14.565c3.731-2.073,12.917-28.23,16.158-39.07,0,0-7.582-4.04-7.636-4.081" transform="translate(16.571 10.467)" fill="#01c7e2"/>
          <path id="Trazado_128778" data-name="Trazado 128778" d="M160.532,120.582c-2.552-3.314-12.294-12.854-14.929-14.887l.761,10.744s22.831,17.164,27.884,15.021c-4.35-2.8-10.614-6.852-13.716-10.878" transform="translate(16.918 12.281)" fill="#00a7cc"/>
          <path id="Trazado_128779" data-name="Trazado 128779" d="M113.643,98.448S85.789,109.691,82.757,108.9s-13.13-29.51-13.13-29.51l-8.436,3.427S70.2,124.241,76,126.177s40.372-8.05,40.372-8.05a58.6,58.6,0,0,0-2.728-19.68" transform="translate(7.11 9.225)" fill="#01c7e2"/>
          <path id="Trazado_128780" data-name="Trazado 128780" d="M87.669,120.658c-2.455.881-4.953,1.748-7.461,2.487,11.815-1.562,33.954-7.954,33.954-7.954a60.653,60.653,0,0,0-.6-10.529c-6.858,7.427-16.612,12.668-25.888,16" transform="translate(9.32 12.161)" fill="#00a7cc"/>
          <path id="Trazado_128781" data-name="Trazado 128781" d="M201.358,55.389c-1.274-3.929-5.108-6.207-8.562-5.087a5.948,5.948,0,0,0-2.879,2.084,34.321,34.321,0,0,0,1.606,4.9,33.248,33.248,0,0,0,4.3,7.5,5.765,5.765,0,0,0,1.587-.257c3.456-1.12,5.223-5.214,3.949-9.143" transform="translate(22.068 5.812)" fill="#d0d1de"/>
          <path id="Trazado_128782" data-name="Trazado 128782" d="M108.467,130.747c-.983,9.668-1.749,29.988-2.327,32.828h45.7c.807-15.18.538-37.165-.213-45.255-1.308-14.1-4.778-22.658-4.778-22.658s-3.412-1.078-7.46-2.636c0,0-8.413,5.141-16.245.07,0,0-14.14,3.347-15.85,4.165-1.419.676,2.22,23.162,1.17,33.486" transform="translate(12.333 10.809)" fill="#01c7e2"/>
          <path id="Trazado_128783" data-name="Trazado 128783" d="M120.556,142.318a36.1,36.1,0,0,0-2.616-13.187,11.913,11.913,0,0,1-.838-2.958,19.64,19.64,0,0,0-1.935-6.751c-1.021-1.544-2.057-3.081-3.066-4.632-.56-.76-1.15-1.565-1.8-2.516a43.5,43.5,0,0,1-2.793-4.937c.537,7.1,1.487,16.578.961,21.746-.983,9.668-1.749,29.988-2.327,32.828h21.27c-2.735-3.518-4.375-7.8-5.981-13.024a23.358,23.358,0,0,1-.874-6.57" transform="translate(12.333 12.472)" fill="#00a7cc"/>
        </g>
      </g>
    </g>
  </g>
</svg>
