<svg xmlns="http://www.w3.org/2000/svg" width="145" height="145" viewBox="0 0 145 145">
  <g id="Grupo_157685" data-name="Grupo 157685" transform="translate(-1171 -5097)">
    <path id="Trazado_127721" data-name="Trazado 127721" d="M72.5,0A72.5,72.5,0,1,1,0,72.5,72.5,72.5,0,0,1,72.5,0Z" transform="translate(1171 5097)" fill="#fff"/>
    <g id="Grupo_156593" data-name="Grupo 156593" transform="translate(1193.586 5120.435)">
      <path id="Trazado_127053" data-name="Trazado 127053" d="M16.525,125.968c-.665.148-.819-.165-.812-.786.017-1.556-.01-1.584-1.621-1.574-.6,0-.786-.182-.774-.775.011-.553.112-.81.75-.807,1.616.006,1.657-.026,1.64-1.639-.008-.73.35-.743.891-.749s.821.085.821.733c0,1.633.033,1.662,1.628,1.656.617,0,.763.22.764.793s-.145.793-.762.789c-1.626-.009-1.665.021-1.629,1.562.017.715-.247.924-.9.8" transform="translate(-13.318 -62.516)" fill="#29c4bb"/>
      <path id="Trazado_127054" data-name="Trazado 127054" d="M214.408,151.171c.6-.114.925.083.827.757-.082.564.113.878.737.781s.834.129.839.786c0,.689-.276.847-.863.768-.561-.076-.738.168-.727.726.018.874-.523,1.209-1.368.945-.4-.126-.313-.446-.288-.7.07-.691-.087-1.113-.9-.975-.631.107-.67-.288-.668-.773s.02-.876.661-.777c.69.106,1.016-.146.9-.874-.109-.7.337-.727.852-.665" transform="translate(-117.493 -77.353)" fill="#29c4bb"/>
      <path id="Trazado_127055" data-name="Trazado 127055" d="M212.236,70.027c.154.664-.15.891-.773.786-.674-.114-.949.163-.83.833.115.648-.165.8-.793.809-.648.006-.892-.185-.779-.816.121-.672-.16-.948-.827-.823-.691.13-.752-.232-.778-.813-.031-.683.234-.861.829-.757.646.113.887-.155.777-.786-.105-.6.09-.848.763-.824.593.021.936.105.809.785s.168.936.831.824c.623-.1.926.118.771.782" transform="translate(-114.553 -39.389)" fill="#010000"/>
      <path id="Trazado_127056" data-name="Trazado 127056" d="M56.555,187.408c.145.619-.16.847-.78.735-.727-.132-.9.247-.795.859.116.681-.214.787-.812.783-.572,0-.879-.133-.759-.749.158-.81-.247-1.008-.944-.889-.715.122-.682-.329-.684-.819,0-.475.01-.878.656-.75.869.172,1.091-.245.974-1.023-.112-.745.455-.53.834-.553.4-.024.848-.076.731.57-.145.8.135,1.169.981,1.007.706-.135.619.357.6.829" transform="translate(-33.486 -92.792)" fill="#010000"/>
      <path id="Trazado_127057" data-name="Trazado 127057" d="M121.8,18.174c-.166-.707.225-.844.8-.759.6.089.837-.159.746-.751s.084-.861.765-.847c.626.013.912.175.8.817-.111.659.193.873.811.781.573-.086.859.051.863.751,0,.716-.267.909-.891.809-.66-.105-.883.2-.781.811.115.691-.256.77-.837.782-.621.013-.824-.221-.732-.791.1-.625-.131-.91-.783-.8-.636.106-.908-.156-.766-.8" transform="translate(-70.176 -15.816)" fill="#29c4bb"/>
    </g>
    <g id="FILLED_OUTLINE" transform="translate(1164.097 5113.795)">
      <rect id="Rectángulo_37373" data-name="Rectángulo 37373" width="59.898" height="76.331" rx="5" transform="translate(46.891 17.591)" fill="#1169e3"/>
      <path id="Trazado_128836" data-name="Trazado 128836" d="M112,56h49.163v65.551H112Z" transform="translate(-59.709 -33.172)" fill="#dff6f5"/>
      <g id="Grupo_156795" data-name="Grupo 156795" transform="translate(75.507 26.925)">
        <path id="Trazado_128837" data-name="Trazado 128837" d="M248,80h20.485v2.731H248Z" transform="translate(-248 -80)" fill="#f9cb58"/>
        <path id="Trazado_128838" data-name="Trazado 128838" d="M248,216h13.656v2.731H248Z" transform="translate(-248 -192.784)" fill="#f9cb58"/>
        <path id="Trazado_128839" data-name="Trazado 128839" d="M248,320h12.291v2.731H248Z" transform="translate(-248 -279.031)" fill="#f9cb58"/>
        <path id="Trazado_128840" data-name="Trazado 128840" d="M248,112h16.388v2.731H248Z" transform="translate(-248 -106.537)" fill="#f9cb58"/>
        <path id="Trazado_128841" data-name="Trazado 128841" d="M248,184h20.485v2.731H248Z" transform="translate(-248 -166.247)" fill="#f9cb58"/>
      </g>
      <rect id="Rectángulo_37374" data-name="Rectángulo 37374" width="11.132" height="11.132" rx="5.566" transform="translate(59.083 28.192)" fill="#fee734"/>
      <path id="Trazado_128842" data-name="Trazado 128842" d="M0,0H9.657V2.731H0Z" transform="translate(62.246 34.156) rotate(-45)" fill="#f4f4f4"/>
      <rect id="Rectángulo_37375" data-name="Rectángulo 37375" width="11.132" height="10.601" rx="5.301" transform="translate(59.083 46.215)" fill="#fee734"/>
      <path id="Trazado_128843" data-name="Trazado 128843" d="M0,0H9.657V2.731H0Z" transform="translate(62.243 51.908) rotate(-45)" fill="#f4f4f4"/>
      <rect id="Rectángulo_37376" data-name="Rectángulo 37376" width="11.132" height="11.132" rx="5.566" transform="translate(59.083 63.707)" fill="#fee734"/>
      <path id="Trazado_128844" data-name="Trazado 128844" d="M284.19,191.878a2.9,2.9,0,0,0-4.1,0L248,223.971v4.1h4.1l32.093-32.093A2.9,2.9,0,0,0,284.19,191.878Z" transform="translate(-172.494 -145.151)" fill="#fee734"/>
      <path id="Trazado_128845" data-name="Trazado 128845" d="M416,195.292l4.1,4.1,3.414-3.414a2.9,2.9,0,1,0-4.1-4.1Z" transform="translate(-311.815 -145.151)" fill="#d3a039"/>
      <path id="Trazado_128846" data-name="Trazado 128846" d="M278.314,271.022l-.483-.242a2.731,2.731,0,0,1-1.314-3.457l3.842-9.606A2.731,2.731,0,0,1,282.895,256H290.2a8.194,8.194,0,0,1,6.913,3.795l7.145,11.227,9.56,9.559v16.388l-16.953-16.953a2.731,2.731,0,0,0-1.931-.8h-2.966a8.194,8.194,0,0,1-4.916-1.639l-5.952-4.464a3.023,3.023,0,0,1,3.313-5.043l5.937,3.393a2.439,2.439,0,0,0,3.24-3.471l-1.622-2.433-4.1-4.1Z" transform="translate(-195.979 -199.03)" fill="#f9cea0"/>
      <path id="Trazado_128847" data-name="Trazado 128847" d="M0,0H11.588V5.794H0Z" transform="translate(90.518 63.799) rotate(-45)" fill="#cbb829"/>
      <path id="Trazado_128848" data-name="Trazado 128848" d="M69.639,211.45l-.069-.052a3.375,3.375,0,0,0-4.523.431l-9.207,10.137a1.366,1.366,0,0,1-2.377-.918V200l-3.278,2.458A5.463,5.463,0,0,0,48,206.828v43.7H60.291V236.638a9.325,9.325,0,0,1,2.731-6.594,9.325,9.325,0,0,0,2.731-6.594v-.611a2.729,2.729,0,0,1,.633-1.748c.871-1.045,2.486-2.982,3.85-4.617a3.484,3.484,0,0,0-.6-5.025Z" transform="translate(-6.635 -152.59)" fill="#f9cea0"/>
      <path id="Trazado_128849" data-name="Trazado 128849" d="M98.957,78.82H95.991a6.871,6.871,0,0,1-4.1-1.366L85.942,72.99a1.657,1.657,0,0,1,1.816-2.764L93.7,73.619A3.8,3.8,0,0,0,98.749,68.2l-1-1.5,3.391-3.391,6.071,9.539,9.665,9.665,1.931-1.931-9.454-9.454-1.072-1.684V56.17l4.38-4.38a4.264,4.264,0,0,0-4.38-7.053V20.1a4.1,4.1,0,0,0-4.1-4.1H49.559a4.1,4.1,0,0,0-4.1,4.1v26.63l-2.731,2.048A6.861,6.861,0,0,0,40,54.238v43.7h2.731v-43.7a4.117,4.117,0,0,1,1.639-3.278l1.093-.819V68.457a2.731,2.731,0,0,0,4.753,1.836l3.419-3.764h.022v-.024l5.766-6.349a2,2,0,0,1,2.693-.257l.07.052a2.12,2.12,0,0,1,.844,1.462,2.091,2.091,0,0,1-.476,1.6c-1.364,1.635-2.98,3.572-3.851,4.617a4.1,4.1,0,0,0-.95,2.623v.611a7.907,7.907,0,0,1-2.331,5.628,10.621,10.621,0,0,0-3.131,7.56V97.939h2.731V95.208h49.163a4.1,4.1,0,0,0,4.1-4.1v-.8l8.594,8.594,1.931-1.931L101.854,80.02a4.07,4.07,0,0,0-2.9-1.2ZM84.3,75.175l.634.476-5.9,5.9H76.872V79.386l6.02-6.02A4.386,4.386,0,0,0,84.3,75.175ZM81.8,68.8l3.842-9.606a1.359,1.359,0,0,1,1.268-.858H94.06L82.116,70.279A1.374,1.374,0,0,1,81.8,68.8Zm6.83-1.177,15.55-15.55,2.166,2.166L91.418,69.171l-2.3-1.317a4.367,4.367,0,0,0-.478-.232Zm7.842,2.1a1.074,1.074,0,0,1-1.426,1.528l-1.175-.672,1.9-1.9Zm9.074-4.564-2.433-3.823,2.433-2.433Zm4.1-17.912a1.531,1.531,0,0,1,1.083,2.614l-2.448,2.448-2.166-2.166,2.448-2.448a1.521,1.521,0,0,1,1.083-.449ZM48.194,68.456V20.1a1.367,1.367,0,0,1,1.366-1.366h54.626a1.367,1.367,0,0,1,1.366,1.366V46.844l-2.731,2.731V21.463H50.925V65.449Zm12.291,1.794a1.366,1.366,0,0,1,.316-.874l3.513-4.212h3a1.367,1.367,0,0,1,1.366,1.366v5.463a1.367,1.367,0,0,1-1.366,1.366H61.85a1.367,1.367,0,0,1-1.366-1.366ZM57.353,78.42A10.693,10.693,0,0,0,59.5,75.346a4.073,4.073,0,0,0,2.348.743h5.463a4.1,4.1,0,0,0,4.1-4.1V66.529a4.1,4.1,0,0,0-4.1-4.1h-1.6a4.872,4.872,0,0,0,.028-1.334,4.813,4.813,0,0,0-1.284-2.763h2.854a4.1,4.1,0,0,0,4.1-4.1V51.507H68.678v2.731A1.367,1.367,0,0,1,67.313,55.6H61.85a1.367,1.367,0,0,1-1.366-1.366V48.776A1.367,1.367,0,0,1,61.85,47.41h2.731V44.679H61.85a4.1,4.1,0,0,0-4.1,4.1v5.463a4.084,4.084,0,0,0,1.237,2.93A4.759,4.759,0,0,0,57.4,58.32l-3.745,4.122V24.194h46.432V52.307l-3.575,3.575a9.524,9.524,0,0,0-2.289-.278H86.915a4.077,4.077,0,0,0-3.8,2.575l-3.842,9.606c-.014.036-.024.073-.038.109H75.506v2.731h3.7a4.135,4.135,0,0,0,.981,1.581l-6.048,6.048v6.028h6.028l6.976-6.976,3.11,2.333a9.619,9.619,0,0,0,5.736,1.912h2.966a1.356,1.356,0,0,1,.966.4l.166.166v4.9H55.022V84.048a7.907,7.907,0,0,1,2.331-5.628Zm48.2,12.691a1.367,1.367,0,0,1-1.366,1.366H55.022V89.745h47.8v-4.9l2.731,2.731Z"/>
      <path id="Trazado_128850" data-name="Trazado 128850" d="M157.656,86.828h-2.731v2.731a1.367,1.367,0,0,1-1.366,1.366H148.1a1.367,1.367,0,0,1-1.366-1.366V84.1a1.367,1.367,0,0,1,1.366-1.366h2.731V80H148.1a4.1,4.1,0,0,0-4.1,4.1v5.463a4.1,4.1,0,0,0,4.1,4.1h5.463a4.1,4.1,0,0,0,4.1-4.1Z" transform="translate(-86.247 -53.075)"/>
      <path id="Trazado_128851" data-name="Trazado 128851" d="M0,0H9.657V2.731H0Z" transform="translate(62.245 34.155) rotate(-45)"/>
      <path id="Trazado_128852" data-name="Trazado 128852" d="M248,80h20.485v2.731H248Z" transform="translate(-172.494 -53.075)"/>
      <path id="Trazado_128853" data-name="Trazado 128853" d="M0,0H9.657V2.731H0Z" transform="translate(62.243 51.908) rotate(-45)"/>
      <path id="Trazado_128854" data-name="Trazado 128854" d="M248,216h13.656v2.731H248Z" transform="translate(-172.494 -165.859)"/>
      <path id="Trazado_128855" data-name="Trazado 128855" d="M248,112h16.388v2.731H248Z" transform="translate(-172.494 -79.612)"/>
      <path id="Trazado_128856" data-name="Trazado 128856" d="M248,184h20.485v2.731H248Z" transform="translate(-172.494 -139.321)"/>
    </g>
  </g>
</svg>
