<svg xmlns="http://www.w3.org/2000/svg" width="90.773" height="90.773" viewBox="0 0 90.773 90.773">
  <g id="Grupo_156628" data-name="Grupo 156628" transform="translate(6399 6571)">
    <circle id="Elipse_4762" data-name="Elipse 4762" cx="45.387" cy="45.387" r="45.387" transform="translate(-6399 -6571)" fill="#b0c8cb"/>
    <g id="Grupo_156595" data-name="Grupo 156595" transform="translate(-6385.246 -6555.413)">
      <path id="Trazado_127053" data-name="Trazado 127053" d="M15.375,123.6c.416.093.513-.1.509-.492-.011-.974.006-.992,1.015-.986.375,0,.492-.114.485-.485-.007-.346-.07-.507-.469-.505-1.011,0-1.037-.017-1.026-1.026,0-.457-.219-.465-.558-.469s-.514.053-.514.459c0,1.022-.021,1.041-1.019,1.037-.386,0-.478.138-.479.5s.091.5.477.494c1.018-.006,1.042.013,1.02.978-.011.448.155.579.561.5" transform="translate(44.792 -83.878)" fill="#29c4bb"/>
      <path id="Trazado_127054" data-name="Trazado 127054" d="M213.5,151.159c-.373-.071-.579.052-.518.474.051.353-.071.55-.461.489s-.522.081-.525.492c0,.431.173.53.54.481.351-.047.462.105.455.455-.011.547.328.757.857.591.251-.079.2-.279.18-.437-.044-.432.055-.7.565-.611.395.067.419-.181.418-.484s-.013-.548-.414-.486c-.432.067-.636-.091-.564-.547.068-.436-.211-.455-.533-.417" transform="translate(-211.994 -104.948)" fill="#29c4bb"/>
      <path id="Trazado_127055" data-name="Trazado 127055" d="M207.478,69.132c-.1.416.094.558.484.492.422-.071.594.1.52.521s.1.5.5.507.558-.116.488-.511c-.075-.42.1-.594.518-.515s.471-.145.487-.509c.019-.427-.147-.539-.519-.474-.4.071-.555-.1-.487-.492.066-.378-.056-.531-.477-.516-.371.013-.586.066-.506.491s-.105.586-.52.516c-.39-.066-.58.074-.483.49" transform="translate(-204.437 -61.871)" fill="#010000"/>
      <path id="Trazado_127056" data-name="Trazado 127056" d="M51.8,186.5c-.091.388.1.53.488.46.455-.082.563.155.5.538-.072.426.134.493.509.49.358,0,.55-.083.475-.469-.1-.507.155-.631.591-.556s.427-.206.428-.513-.006-.549-.411-.47c-.544.108-.683-.154-.61-.641.07-.466-.285-.332-.522-.346s-.531-.047-.458.357c.09.5-.085.732-.614.63-.442-.085-.388.223-.375.519" transform="translate(-4.069 -127.272)" fill="#010000"/>
      <path id="Trazado_127057" data-name="Trazado 127057" d="M124.759,17.292c.1-.443-.141-.529-.5-.475s-.524-.1-.467-.47-.053-.539-.479-.53c-.392.008-.571.109-.5.512s-.121.547-.507.489c-.358-.054-.538.032-.54.47s.167.569.558.507c.413-.066.553.122.489.507-.072.432.16.482.524.49.389.008.516-.138.458-.495-.062-.391.082-.57.49-.5s.569-.1.48-.5" transform="translate(-94.9 -15.817)" fill="#29c4bb"/>
    </g>
    <g id="medios-de-comunicacion-social" transform="translate(-6392.57 -6549.779)">
      <path id="Trazado_129018" data-name="Trazado 129018" d="M219.048,32.189a4.589,4.589,0,0,0,2.7.87h8.618v4.179l5.463-4.179h2.357a4.593,4.593,0,0,0,4.6-4.586V12.086a4.593,4.593,0,0,0-4.6-4.586H221.745a4.593,4.593,0,0,0-4.6,4.586v20.1Z" transform="translate(-182.398 -6.792)" fill="#f7f3f1"/>
      <path id="Trazado_129019" data-name="Trazado 129019" d="M364.967,7.5h-3.94a4.593,4.593,0,0,1,4.6,4.586V28.473a4.593,4.593,0,0,1-4.6,4.586h-2.357l-1.523,1.165v3.014l5.463-4.179h2.357a4.593,4.593,0,0,0,4.6-4.586V12.086A4.593,4.593,0,0,0,364.967,7.5Z" transform="translate(-309.184 -6.792)" fill="#ebe1dc"/>
      <path id="Trazado_129020" data-name="Trazado 129020" d="M305.945,76.082l.474.384a4.223,4.223,0,0,0,2.657.941h6.731a1.123,1.123,0,0,0,1.121-1.177c-.028-.6,0-6.1,0-6.723a1.123,1.123,0,0,0-1.123-1.123l-4.564-.014.559-1.323a4.789,4.789,0,0,0-.254-4.239.747.747,0,0,0-1.4.371,4.871,4.871,0,0,1-1.219,3.223l-2.91,3.293h-1.061v6.388h.983Z" transform="translate(-261.925 -56.537)" fill="#ffd36c"/>
      <path id="Trazado_129021" data-name="Trazado 129021" d="M277.56,135.553h-3.073a.368.368,0,0,1-.368-.368v-7.834a.368.368,0,0,1,.368-.368h3.073a.368.368,0,0,1,.368.368v7.834A.368.368,0,0,1,277.56,135.553Z" transform="translate(-233.993 -114.995)" fill="#8ee6f3"/>
      <path id="Trazado_129022" data-name="Trazado 129022" d="M43.447,162.655V146.116A3.622,3.622,0,0,0,39.82,142.5H26.858a3.622,3.622,0,0,0-3.628,3.616v12.923a3.622,3.622,0,0,0,3.628,3.616h7.121v3.326l4.308-3.326Z" transform="translate(-6.791 -129.046)" fill="#4ed5ea"/>
      <path id="Trazado_129023" data-name="Trazado 129023" d="M149.678,142.5h-5.137a3.622,3.622,0,0,1,3.628,3.616v16.539h5.137V146.116A3.622,3.622,0,0,0,149.678,142.5Z" transform="translate(-116.649 -129.046)" fill="#62a6fd"/>
      <path id="Trazado_129024" data-name="Trazado 129024" d="M198.771,328h-9.2A2.57,2.57,0,0,0,187,330.564v9.171a2.57,2.57,0,0,0,2.574,2.566h5.053v2.36l3.057-2.36h1.088a2.57,2.57,0,0,0,2.574-2.566v-9.17A2.571,2.571,0,0,0,198.771,328Z" transform="translate(-155.098 -297.031)" fill="#fa9084"/>
      <path id="Trazado_129025" data-name="Trazado 129025" d="M271.935,328H267.97a2.57,2.57,0,0,1,2.574,2.566v9.171a2.57,2.57,0,0,1-2.574,2.566h-.18v2.36l3.057-2.36h1.088a2.57,2.57,0,0,0,2.574-2.566v-9.171A2.57,2.57,0,0,0,271.935,328Z" transform="translate(-228.262 -297.031)" fill="#ff6cb5"/>
      <path id="Trazado_129026" data-name="Trazado 129026" d="M230.747,381.7c2.214-1.173,3.36-2.172,3.36-3.719a1.8,1.8,0,0,0-3.36-1.067,1.8,1.8,0,0,0-3.36,1.067C227.387,379.532,228.534,380.53,230.747,381.7Z" transform="translate(-191.673 -340.47)" fill="#f7f3f1"/>
      <path id="Trazado_129027" data-name="Trazado 129027" d="M55.784,0H53.706a.708.708,0,0,0,0,1.416h2.078a3.889,3.889,0,0,1,3.892,3.878V21.681a3.889,3.889,0,0,1-3.892,3.878H53.427A.708.708,0,0,0,53,25.7l-4.325,3.308V26.267a.708.708,0,0,0-.708-.708H39.347a3.873,3.873,0,0,1-1.982-.54V17.07a4.321,4.321,0,0,0-1.91-3.583V5.294a3.889,3.889,0,0,1,3.892-3.878h9.922a.708.708,0,0,0,0-1.416H39.347a5.307,5.307,0,0,0-5.308,5.294v7.571a4.341,4.341,0,0,0-1.01-.12H20.067a4.335,4.335,0,0,0-4.336,4.324V18.6a.708.708,0,0,0,1.416,0V17.07a2.917,2.917,0,0,1,2.919-2.908H33.029a2.917,2.917,0,0,1,2.919,2.908V25.3a.709.709,0,0,0,0,.188v4.5c0,.089-.005.178-.013.266h-1.46a3.285,3.285,0,0,0-3.229,2.688.71.71,0,0,0-.184.1L27.9,35.494V33.609a.708.708,0,0,0-.708-.708H20.067a2.917,2.917,0,0,1-2.919-2.908V22.847a.708.708,0,0,0-1.416,0v7.145a4.335,4.335,0,0,0,4.336,4.324h6.413v2.618a.719.719,0,0,0,1.141.561l3.572-2.758V42.7a3.282,3.282,0,0,0,3.282,3.274H38.82V47.63a.719.719,0,0,0,1.141.561l2.866-2.213h.847A3.282,3.282,0,0,0,46.956,42.7V41.446a.708.708,0,0,0-1.416,0V42.7a1.864,1.864,0,0,1-1.866,1.858H42.585a.708.708,0,0,0-.433.148l-1.916,1.48V45.27a.708.708,0,0,0-.708-.708H34.475A1.864,1.864,0,0,1,32.608,42.7v-9.17a1.864,1.864,0,0,1,1.866-1.858h9.2a1.864,1.864,0,0,1,1.866,1.858v3.476a.708.708,0,0,0,1.416,0V33.533a3.282,3.282,0,0,0-3.282-3.274H37.356c.005-.088.008-3.665.008-3.665a5.3,5.3,0,0,0,1.982.382h7.91v3.471a.719.719,0,0,0,1.138.562l5.272-4.033h2.117a5.307,5.307,0,0,0,5.308-5.294V5.294A5.307,5.307,0,0,0,55.784,0Z"/>
      <path id="Trazado_129028" data-name="Trazado 129028" d="M276.536,54.613a1.476,1.476,0,0,0-1.815,1.41,4.16,4.16,0,0,1-1.041,2.754l-1.951,2.208a.707.707,0,0,0-.593-.322h-3.809a.708.708,0,0,0-.708.708v8.569a.708.708,0,0,0,.708.708h3.809a.708.708,0,0,0,.644-.414,4.947,4.947,0,0,0,2.574.726h6.731a1.853,1.853,0,0,0,1.829-1.918c-.021-.454,0-6.554,0-6.69a1.832,1.832,0,0,0-1.829-1.831l-3.5-.01.145-.343a5.529,5.529,0,0,0-.291-4.865,1.443,1.443,0,0,0-.9-.688Zm-6.108,14.618h-2.392V62.078h2.392Zm10.656-7.3a.415.415,0,0,1,.415.415c0,.135,0,.5,0,1-.01,2.737-.017,5.329,0,5.76a.415.415,0,0,1-.414.436h-6.731a3.525,3.525,0,0,1-2.211-.783l-.3-.241V62.992l2.9-3.279a5.575,5.575,0,0,0,1.4-3.691A.039.039,0,0,1,276.21,56a4.1,4.1,0,0,1,.216,3.612l-.559,1.324a.708.708,0,0,0,.65.984Z" transform="translate(-227.202 -49.381)"/>
      <path id="Trazado_129029" data-name="Trazado 129029" d="M73.159,199.824a.708.708,0,1,0,0,1.416h2.087l-.39,2.358a.708.708,0,1,0,1.4.231l.428-2.589H78.39L78,203.6a.708.708,0,1,0,1.4.231l.428-2.589h2.841a.708.708,0,1,0,0-1.416H80.059l.286-1.727h2.321a.708.708,0,1,0,0-1.416H80.579l.39-2.358a.708.708,0,0,0-1.4-.231l-.428,2.589H77.435l.39-2.358a.708.708,0,1,0-1.4-.231L76,196.681H73.159a.708.708,0,1,0,0,1.416h2.607l-.286,1.727ZM77.2,198.1H78.91l-.286,1.727H76.916Z" transform="translate(-51.365 -175.23)"/>
      <path id="Trazado_129030" data-name="Trazado 129030" d="M223.947,369a2.381,2.381,0,0,0-2.1-.471,2.634,2.634,0,0,0-1.964,2.658,3.476,3.476,0,0,0,1.046,2.489,10.388,10.388,0,0,0,2.691,1.856.708.708,0,0,0,.663,0c2.243-1.189,3.737-2.383,3.737-4.344a2.617,2.617,0,0,0-2.034-2.644,2.374,2.374,0,0,0-2.043.457Zm2.661,2.187c0,1.058-.7,1.84-2.652,2.914-1.951-1.074-2.652-1.856-2.652-2.914a1.211,1.211,0,0,1,.882-1.282,1.06,1.06,0,0,1,.249-.03.977.977,0,0,1,.891.57.708.708,0,0,0,1.271-.025.92.92,0,0,1,1.086-.494A1.2,1.2,0,0,1,226.608,371.186Z" transform="translate(-184.882 -333.67)"/>
    </g>
  </g>
</svg>
