<svg xmlns="http://www.w3.org/2000/svg" width="90.773" height="90.773" viewBox="0 0 90.773 90.773">
  <g id="Grupo_157072" data-name="Grupo 157072" transform="translate(6399 6571)">
    <circle id="Elipse_4762" data-name="Elipse 4762" cx="45.387" cy="45.387" r="45.387" transform="translate(-6399 -6571)" fill="#b0c8cb"/>
    <g id="Grupo_156595" data-name="Grupo 156595" transform="translate(-6385.246 -6555.413)">
      <path id="Trazado_127053" data-name="Trazado 127053" d="M15.375,123.6c.416.093.513-.1.509-.492-.011-.974.006-.992,1.015-.986.375,0,.492-.114.485-.485-.007-.346-.07-.507-.469-.505-1.011,0-1.037-.017-1.026-1.026,0-.457-.219-.465-.558-.469s-.514.053-.514.459c0,1.022-.021,1.041-1.019,1.037-.386,0-.478.138-.479.5s.091.5.477.494c1.018-.006,1.042.013,1.02.978-.011.448.155.579.561.5" transform="translate(44.792 -83.878)" fill="#29c4bb"/>
      <path id="Trazado_127054" data-name="Trazado 127054" d="M213.5,151.159c-.373-.071-.579.052-.518.474.051.353-.071.55-.461.489s-.522.081-.525.492c0,.431.173.53.54.481.351-.047.462.105.455.455-.011.547.328.757.857.591.251-.079.2-.279.18-.437-.044-.432.055-.7.565-.611.395.067.419-.181.418-.484s-.013-.548-.414-.486c-.432.067-.636-.091-.564-.547.068-.436-.211-.455-.533-.417" transform="translate(-211.994 -104.948)" fill="#29c4bb"/>
      <path id="Trazado_127055" data-name="Trazado 127055" d="M207.478,69.132c-.1.416.094.558.484.492.422-.071.594.1.52.521s.1.5.5.507.558-.116.488-.511c-.075-.42.1-.594.518-.515s.471-.145.487-.509c.019-.427-.147-.539-.519-.474-.4.071-.555-.1-.487-.492.066-.378-.056-.531-.477-.516-.371.013-.586.066-.506.491s-.105.586-.52.516c-.39-.066-.58.074-.483.49" transform="translate(-204.437 -61.871)" fill="#010000"/>
      <path id="Trazado_127056" data-name="Trazado 127056" d="M51.8,186.5c-.091.388.1.53.488.46.455-.082.563.155.5.538-.072.426.134.493.509.49.358,0,.55-.083.475-.469-.1-.507.155-.631.591-.556s.427-.206.428-.513-.006-.549-.411-.47c-.544.108-.683-.154-.61-.641.07-.466-.285-.332-.522-.346s-.531-.047-.458.357c.09.5-.085.732-.614.63-.442-.085-.388.223-.375.519" transform="translate(-4.069 -127.272)" fill="#010000"/>
      <path id="Trazado_127057" data-name="Trazado 127057" d="M124.759,17.292c.1-.443-.141-.529-.5-.475s-.524-.1-.467-.47-.053-.539-.479-.53c-.392.008-.571.109-.5.512s-.121.547-.507.489c-.358-.054-.538.032-.54.47s.167.569.558.507c.413-.066.553.122.489.507-.072.432.16.482.524.49.389.008.516-.138.458-.495-.062-.391.082-.57.49-.5s.569-.1.48-.5" transform="translate(-94.9 -15.817)" fill="#29c4bb"/>
    </g>
    <g id="fecha-limite" transform="translate(-6379.442 -6582.402)">
      <path id="Trazado_129122" data-name="Trazado 129122" d="M30.282,134.159,7.488,138.7v23.87a2.875,2.875,0,0,0,2.875,2.875H50.2a2.875,2.875,0,0,0,2.875-2.875V138.7Z" transform="translate(-6.717 -89.57)" fill="#ccc"/>
      <path id="Trazado_129123" data-name="Trazado 129123" d="M50.2,90.035H10.363A2.875,2.875,0,0,0,7.488,92.91v6.215H53.076V92.91A2.875,2.875,0,0,0,50.2,90.035Z" transform="translate(-6.717 -49.991)" fill="#fee734"/>
      <path id="Trazado_129124" data-name="Trazado 129124" d="M252.581,202.972a15.3,15.3,0,0,0-12.449,24.2h16.185a2.875,2.875,0,0,0,2.875-2.875V204.475A15.216,15.216,0,0,0,252.581,202.972Z" transform="translate(-212.833 -151.295)" opacity="0.1"/>
      <circle id="Elipse_4868" data-name="Elipse 4868" cx="12.221" cy="12.221" r="12.221" transform="translate(27.527 54.763)" fill="#b4eae7"/>
      <circle id="Elipse_4869" data-name="Elipse 4869" cx="8.803" cy="8.803" r="8.803" transform="translate(30.945 58.181)" fill="#fff"/>
      <path id="Trazado_129125" data-name="Trazado 129125" d="M302.472,274.914a8.8,8.8,0,0,1,7.774-8.741,8.8,8.8,0,1,0,0,17.481A8.8,8.8,0,0,1,302.472,274.914Z" transform="translate(-269.47 -207.93)" opacity="0.1"/>
      <g id="Grupo_157082" data-name="Grupo 157082" transform="translate(6.073 35.074)">
        <path id="Trazado_129126" data-name="Trazado 129126" d="M61.257,41.791a2.3,2.3,0,0,0-2.3,2.3V49.43a2.3,2.3,0,1,0,4.6,0V44.091A2.3,2.3,0,0,0,61.257,41.791Z" transform="translate(-58.957 -41.791)" fill="#666"/>
        <path id="Trazado_129127" data-name="Trazado 129127" d="M159.58,41.791a2.3,2.3,0,0,0-2.3,2.3V49.43a2.3,2.3,0,1,0,4.6,0V44.091A2.3,2.3,0,0,0,159.58,41.791Z" transform="translate(-147.152 -41.791)" fill="#666"/>
        <path id="Trazado_129128" data-name="Trazado 129128" d="M257.9,41.791a2.3,2.3,0,0,0-2.3,2.3V49.43a2.3,2.3,0,0,0,4.6,0V44.091A2.3,2.3,0,0,0,257.9,41.791Z" transform="translate(-235.346 -41.791)" fill="#666"/>
        <path id="Trazado_129129" data-name="Trazado 129129" d="M356.224,41.791a2.3,2.3,0,0,0-2.3,2.3V49.43a2.3,2.3,0,1,0,4.6,0V44.091A2.3,2.3,0,0,0,356.224,41.791Z" transform="translate(-323.54 -41.791)" fill="#666"/>
      </g>
      <path id="Trazado_129130" data-name="Trazado 129130" d="M295.458,262.864a.771.771,0,0,0-1.064.242,9.583,9.583,0,1,0,2.208-2.447.771.771,0,0,0,.951,1.214,7.949,7.949,0,0,1,4.947-1.707,8.034,8.034,0,1,1-6.8,3.761A.771.771,0,0,0,295.458,262.864Z" transform="translate(-262.753 -201.214)"/>
      <path id="Trazado_129131" data-name="Trazado 129131" d="M379.152,296.52a.771.771,0,0,0-.771.771v6.05a.771.771,0,0,0,.771.771h6.05a.771.771,0,0,0,0-1.543h-5.278v-5.278A.771.771,0,0,0,379.152,296.52Z" transform="translate(-339.405 -235.206)"/>
      <path id="Trazado_129132" data-name="Trazado 129132" d="M47.13,56.3V42.919a3.651,3.651,0,0,0-3.646-3.646H41.828v-1.9a3.071,3.071,0,0,0-6.143,0v1.9H31.7v-1.9a3.071,3.071,0,0,0-6.143,0v1.9H21.573v-1.9a3.071,3.071,0,0,0-6.143,0v1.9H11.445v-1.9a3.072,3.072,0,0,0-6.143,0v1.9H3.646A3.65,3.65,0,0,0,0,42.919V43.3a.771.771,0,1,0,1.543,0v-.381a2.106,2.106,0,0,1,2.1-2.1H5.3v1.9a3.071,3.071,0,1,0,6.143,0v-1.9H15.43v1.9a3.071,3.071,0,1,0,6.143,0v-1.9h3.985v1.9a3.071,3.071,0,1,0,6.143,0v-1.9h3.985v1.9a3.071,3.071,0,1,0,6.143,0v-1.9h1.655a2.106,2.106,0,0,1,2.1,2.1v5.444H1.543V46.385a.771.771,0,1,0-1.543,0V73a3.651,3.651,0,0,0,3.646,3.646H31.077a12.978,12.978,0,0,0,16.34.82.771.771,0,1,0-.912-1.245A11.449,11.449,0,1,1,43.12,56.041l.065.02a11.45,11.45,0,0,1,5.422,18.176.771.771,0,1,0,1.193.978A12.985,12.985,0,0,0,47.13,56.3ZM6.844,37.374a1.529,1.529,0,0,1,3.057,0v5.339a1.529,1.529,0,0,1-3.057,0Zm10.128,0a1.529,1.529,0,0,1,3.057,0v5.339a1.529,1.529,0,0,1-3.057,0Zm10.128,0a1.529,1.529,0,0,1,3.057,0v5.339a1.529,1.529,0,0,1-3.057,0Zm10.128,0a1.529,1.529,0,0,1,3.057,0v5.339a1.529,1.529,0,0,1-3.057,0Zm-6.108,19.9H28.9V49.906H36.47v4.5A12.977,12.977,0,0,0,31.121,57.278ZM26.78,66.193h-7V58.821h7.575v4.267A12.921,12.921,0,0,0,26.78,66.193Zm-16.12,0V58.821h7.575v7.372Zm7.575,1.543v7.372H10.66V67.736ZM1.543,58.821H9.117v7.372H1.543Zm16.692-1.543H10.66V49.906h7.575Zm1.543-7.372h7.575v7.372H19.778V49.906ZM28.9,58.821h.753q-.4.495-.753,1.028ZM9.117,49.906v7.372H1.543V49.906ZM1.543,73V67.736H9.117v7.372H3.646A2.106,2.106,0,0,1,1.543,73Zm18.235,2.1V67.736h7a12.821,12.821,0,0,0,2.828,7.372Zm18.235-21v-4.2h7.575v5.47a12.919,12.919,0,0,0-2.263-.883l-.05-.014a13.015,13.015,0,0,0-5.262-.37Z" transform="translate(0 0)"/>
    </g>
  </g>
</svg>
