<svg id="Grupo_157110" data-name="Grupo 157110" xmlns="http://www.w3.org/2000/svg" xmlns:xlink="http://www.w3.org/1999/xlink" width="179.606" height="134.43" viewBox="0 0 179.606 134.43">
  <defs>
    <clipPath id="clip-path">
      <rect id="Rectángulo_37517" data-name="Rectángulo 37517" width="179.606" height="134.43" fill="none"/>
    </clipPath>
  </defs>
  <rect id="Rectángulo_37498" data-name="Rectángulo 37498" width="5.085" height="28.495" transform="translate(32.791 99.935)" fill="#110239"/>
  <rect id="Rectángulo_37499" data-name="Rectángulo 37499" width="5.085" height="28.495" transform="translate(128.916 99.935)" fill="#110239"/>
  <rect id="Rectángulo_37500" data-name="Rectángulo 37500" width="166.792" height="102.528" fill="#d0d1de"/>
  <rect id="Rectángulo_37501" data-name="Rectángulo 37501" width="150.849" height="88.793" transform="translate(7.972 6.868)" fill="#fff"/>
  <g id="Grupo_157111" data-name="Grupo 157111">
    <g id="Grupo_157110-2" data-name="Grupo 157110" clip-path="url(#clip-path)">
      <path id="Trazado_129181" data-name="Trazado 129181" d="M111.043,83.2H15.9s.473-35.851,12.151-41,19.492,20.78,24.988,21.123S58.049,42.1,66.047,38.9c20.609-8.243,18.505,24.259,22.283,23.915S95.5,32.8,100.7,32.8c12.752,0,10.348,50.406,10.348,50.406" transform="translate(1.995 4.116)" fill="#e4e5ec"/>
      <path id="Trazado_129182" data-name="Trazado 129182" d="M111.043,82.831H15.9S18.3,52.262,29.982,47.11s16.83,19.578,22.326,19.922S62.955,49.857,71.543,49.171s14.426,20.265,18.2,19.922,5.793-33.318,10.99-33.318c10.3,0,10.3,47.056,10.3,47.056" transform="translate(1.995 4.489)" fill="#01c7e2"/>
      <path id="Trazado_129183" data-name="Trazado 129183" d="M111.043,81.138H15.9s3.092-15.113,14.77-20.265,17.861,9.1,23.357,9.446,7.728-20.352,16.315-21.039,3.821,24.988,17.431,24.988c9.875,0,8.369-21.123,13.568-21.123,10.3,0,9.7,27.993,9.7,27.993" transform="translate(1.995 6.182)" fill="#fee734"/>
      <rect id="Rectángulo_37502" data-name="Rectángulo 37502" width="28.207" height="4.943" transform="translate(124.114 35.321)" fill="#e4e5ec"/>
      <rect id="Rectángulo_37503" data-name="Rectángulo 37503" width="28.207" height="4.943" transform="translate(124.114 46.322)" fill="#e4e5ec"/>
      <rect id="Rectángulo_37504" data-name="Rectángulo 37504" width="28.207" height="4.943" transform="translate(124.114 57.321)" fill="#01c7e2"/>
      <rect id="Rectángulo_37505" data-name="Rectángulo 37505" width="28.207" height="4.943" transform="translate(124.114 68.321)" fill="#e4e5ec"/>
      <rect id="Rectángulo_37506" data-name="Rectángulo 37506" width="28.207" height="4.943" transform="translate(124.114 79.322)" fill="#fee734"/>
      <rect id="Rectángulo_37507" data-name="Rectángulo 37507" width="5.151" height="5.151" transform="translate(15.329 12.202)" fill="#01c7e2"/>
      <rect id="Rectángulo_37508" data-name="Rectángulo 37508" width="23.363" height="5.151" transform="translate(25.448 12.202)" fill="#e4e5ec"/>
      <rect id="Rectángulo_37509" data-name="Rectángulo 37509" width="5.151" height="5.151" transform="translate(15.329 20.848)" fill="#01c7e2"/>
      <rect id="Rectángulo_37510" data-name="Rectángulo 37510" width="23.363" height="5.151" transform="translate(25.448 20.848)" fill="#e4e5ec"/>
      <rect id="Rectángulo_37511" data-name="Rectángulo 37511" width="5.151" height="5.151" transform="translate(15.329 29.494)" fill="#01c7e2"/>
      <rect id="Rectángulo_37512" data-name="Rectángulo 37512" width="23.363" height="5.151" transform="translate(25.448 29.494)" fill="#e4e5ec"/>
      <rect id="Rectángulo_37513" data-name="Rectángulo 37513" width="73.346" height="7.175" transform="translate(78.975 12.202)" fill="#e4e5ec"/>
      <rect id="Rectángulo_37514" data-name="Rectángulo 37514" width="36.792" height="6.071" transform="translate(58.966 27.472)" fill="#e4e5ec"/>
      <rect id="Rectángulo_37515" data-name="Rectángulo 37515" width="13.513" height="5.038" transform="translate(28.577 124.809)" fill="#d0d1de"/>
      <rect id="Rectángulo_37516" data-name="Rectángulo 37516" width="13.514" height="5.038" transform="translate(124.701 124.809)" fill="#d0d1de"/>
      <path id="Trazado_129184" data-name="Trazado 129184" d="M68.53,15.343,65.645,9.725l-2.886,5.617h1.98v8.39h1.836v-8.39Z" transform="translate(7.875 1.22)" fill="#1169e3"/>
      <path id="Trazado_129185" data-name="Trazado 129185" d="M141.72,42.052s-2.707,1.648-4.975,6.176-3.686,6.957-3.957,6.739c-1.208-.966-4.4-3.695-9.06-11.009-.567-.889.021-1.464.039-2.16s.951-2.3.75-2.762-.768-.348-1.317.751-.366,1.774-.8,1.463a12.094,12.094,0,0,1-1.866-2.232c-.347-.567-1.444-1.683-1.737-1.5s-.344.473,1.309,2.843c-.6-.844-2.079-2.8-2.59-2.331-.382.351,1.073,2.107,1.731,2.886-.564-.654-1.849-2.034-2.307-1.577-.557.553,2.181,2.634,2.181,2.634s-2.044-1.62-2.318-1.143.915,1.527,2.086,2.186,1.381.895,1.854,1.133a4.858,4.858,0,0,1,1.071,1.385c.018.037,8.574,18.356,11.643,16.667s7.155-7.69,7.155-7.69a14.24,14.24,0,0,0,1.58-4.791,18.414,18.414,0,0,0-.467-7.667" transform="translate(14.651 4.705)" fill="#f88667"/>
      <path id="Trazado_129186" data-name="Trazado 129186" d="M133.018,49.613c.62-1.448,4.2-8.7,6.759-9.791l3.428,1.339c1.513,1.885-.419,6.354-1.042,6.86-.528.427-3.068,5.653-3.6,6.2a44.54,44.54,0,0,1-5.549-4.607" transform="translate(16.692 4.997)" fill="#fee734"/>
      <path id="Trazado_129187" data-name="Trazado 129187" d="M144.749,30.519l4.917.766s-1.382,4.37.737,8.1c0,0-3.535,3.829-6,2.816a2.9,2.9,0,0,1-1.652-3.742s2.683-2.126,2-7.94" transform="translate(17.89 3.83)" fill="#e45940"/>
      <path id="Trazado_129188" data-name="Trazado 129188" d="M154.69,112.171s1.326,5.262.569,6.118-11.783,2.739-12.846,1.866-.733-2.622,1.513-3.572c2.409-1.019,3.721-.5,5.2-1.353s.745-3.268.745-3.268Z" transform="translate(17.797 14.049)" fill="#110239"/>
      <path id="Trazado_129189" data-name="Trazado 129189" d="M142.638,111.367s.266,6.6-.613,7.33-12.064.9-12.981-.126-.384-2.491,1.883-2.993c2.038-.451,3.557-.053,5.129-.725,1.38-.589,2.069-3.683,2.069-3.683Z" transform="translate(16.139 13.95)" fill="#110239"/>
      <path id="Trazado_129190" data-name="Trazado 129190" d="M136.985,62.743l14.376-2.556s-5.442,29.6-6.165,33.012-2.868,25.912-2.868,25.912l-6.267-.736s.073-24.59.388-26.778.536-28.854.536-28.854" transform="translate(17.073 7.552)" fill="#01c7e2"/>
      <path id="Trazado_129191" data-name="Trazado 129191" d="M141.967,74.553c-.711-4.642-.232-8.248-1.257-10.511-.407-.9-1.734-.665-2.034-1.582a2.791,2.791,0,0,0,.446-.707l11.939-1.788s-5.414,25.515-6.819,31.775c0,0-1.706-13.482-2.275-17.186" transform="translate(17.402 7.525)" fill="#00a7cc"/>
      <path id="Trazado_129192" data-name="Trazado 129192" d="M142.181,61.183l11.545,2.939a22.049,22.049,0,0,1,.7,9.574c-.951,6.423-1.043,16.5-1.16,17.864s2.159,23.069,2.334,28.264l-6.222.263S144.606,92.9,144.328,92.3s-2.147-31.121-2.147-31.121" transform="translate(17.841 7.677)" fill="#01c7e2"/>
      <path id="Trazado_129193" data-name="Trazado 129193" d="M137.688,54.084c.242-4.864-1.073-12.2,1.784-13.93,2.394-1.446,4.371-2.619,4.371-2.619a3.377,3.377,0,0,0,2.419,1.971c1.7.23,4.41-2.337,4.41-2.337s3.116,1.837,5.923,3.091c-.68,2.254.724,4.276.714,6.523a13.607,13.607,0,0,0,.488,3.662A27.8,27.8,0,0,0,155.309,57c-.622,4.432,1.379,11.239,1.379,11.239a77.819,77.819,0,0,1-10.7,1.621A34.053,34.053,0,0,1,135.443,68.6s2-9.656,2.245-14.52" transform="translate(16.996 4.664)" fill="#fee734"/>
      <path id="Trazado_129194" data-name="Trazado 129194" d="M156.218,49.752c-.089-.33-.141-.674-.207-1.013-.05-.25-.118-.493-.154-.75a13.348,13.348,0,0,1-.125-1.893c0-1.1-.074-2.279-.082-3.459-.582.425-1.293,1.448-2,1.035-3.309-1.941-3.762,6.924-3.762,11.389s-.113,9.679-1.875,13.724c4.242-.545,7.1-1.236,7.1-1.236s-.281-.958-.6-2.387c-.16-.716-.329-1.549-.476-2.44-.05-.3-.1-.6-.14-.908-.131-.923-.23-1.883-.267-2.82a15.107,15.107,0,0,1,.1-2.683,27.943,27.943,0,0,1,2.486-6.559" transform="translate(18.573 5.35)" fill="#cbb829"/>
      <path id="Trazado_129195" data-name="Trazado 129195" d="M149.785,23.376s-7.04-1.067-7.85-.286-.944,3.615-.911,6.01-.975,6.98,1.822,7.828,8.13-1.766,10.02-6.512c2.405-6.043-2.6-6.97-3.082-7.04" transform="translate(17.677 2.862)" fill="#f88667"/>
      <path id="Trazado_129196" data-name="Trazado 129196" d="M150.34,22.812s-3.329.113-3.913,5.129c-.263,2.26-.833,4-.135,4.116a1.175,1.175,0,0,0,1.417-1.013c0-.652.2-2.781,1.53-2.189s.877,3.157-.81,3.9a2.119,2.119,0,0,0,1,2.25,9.423,9.423,0,0,0,4.015-6.149c.506-3.939-.978-6.155-3.1-6.043" transform="translate(18.315 2.862)" fill="#110239"/>
      <path id="Trazado_129197" data-name="Trazado 129197" d="M152.48,23.587a4.829,4.829,0,0,0-4.5-3.4c-3.712-.248-6.681,1.979-8.457,4.948,0,0,1.012,1.777,4.835,2a14.022,14.022,0,0,0,5.826-1.08,4.147,4.147,0,0,0,2.295-2.474" transform="translate(17.508 2.531)" fill="#110239"/>
      <path id="Trazado_129198" data-name="Trazado 129198" d="M160.583,60.522c-.23-1.131-1.294-7.8-1.667-10.263-2.161.712-4.151,1.45-6.376,2.043a61.639,61.639,0,0,1,2.367,9.131c.241,2.252-.781,12.2-1.087,15.649-.025.277-.045.511-.063.7a4.805,4.805,0,0,1-.795,2.042c-.505.634-2.192,2.7-1.9,3.595s1.692-.747,2.206-1.308.6,1.312.476,2.32-2.156,2.7-1.941,3.387c.151.484.773.135,1.559-.757-.369.554-.649,1.091-.443,1.231.277.189.783-.159,1.334-.753-.295.457-.484.867-.289.968.288.151.868-.33,1.394-.908-.273.416-.461.815-.267.938.367.232,1.552-.856,2.006-2.284.367-1.157-.508-4.419-.82-6.087a2.93,2.93,0,0,1,.1-1.485c.956-2.892,4.852-15,4.208-18.161" transform="translate(18.951 6.307)" fill="#f88667"/>
      <path id="Trazado_129199" data-name="Trazado 129199" d="M152.614,55.8a36.728,36.728,0,0,0,7.769-2.334c-.6-4.191-2.07-9.949-4.235-12.244-.6-.637-1.67-1.805-2.647-1.47-1.282.439-2.924,2.192-3.053,5.594a38.535,38.535,0,0,0,1.285,7.409c.264.712.527,2.017.881,3.046" transform="translate(18.879 4.981)" fill="#fee734"/>
    </g>
  </g>
</svg>
