<svg id="Grupo_157825" data-name="Grupo 157825" xmlns="http://www.w3.org/2000/svg" xmlns:xlink="http://www.w3.org/1999/xlink" width="159.546" height="136.825" viewBox="0 0 159.546 136.825">
  <defs>
    <clipPath id="clip-path">
      <rect id="Rectángulo_38074" data-name="Rectángulo 38074" width="159.546" height="136.825" fill="none"/>
    </clipPath>
  </defs>
  <path id="Trazado_131376" data-name="Trazado 131376" d="M120.125,165.126H95.433l2.029-29.766H118.1Z" transform="translate(-22.288 -31.613)" fill="#072b49"/>
  <g id="Grupo_157824" data-name="Grupo 157824">
    <g id="Grupo_157823" data-name="Grupo 157823" clip-path="url(#clip-path)">
      <path id="Trazado_131377" data-name="Trazado 131377" d="M121.154,167.76a1.614,1.614,0,0,0-1.341-.715H91.33a1.614,1.614,0,0,0-1.341.715l-3.73,5.567a1.613,1.613,0,0,0,1.341,2.512h35.944a1.613,1.613,0,0,0,1.341-2.512Z" transform="translate(-20.081 -39.013)" fill="#072b49"/>
      <path id="Trazado_131378" data-name="Trazado 131378" d="M151.458,118.146H30.542a6.949,6.949,0,0,1-6.949-6.949V34.724a6.95,6.95,0,0,1,6.949-6.95H151.458a6.95,6.95,0,0,1,6.949,6.95V111.2a6.949,6.949,0,0,1-6.949,6.949" transform="translate(-5.51 -6.487)" fill="#072b49"/>
      <rect id="Rectángulo_38058" data-name="Rectángulo 38058" width="122.401" height="77.461" transform="translate(24.29 27.276)" fill="#fefefe"/>
      <rect id="Rectángulo_38059" data-name="Rectángulo 38059" width="116.285" height="69.026" transform="translate(27.348 35.711)" fill="#e5e6ed"/>
      <rect id="Rectángulo_38060" data-name="Rectángulo 38060" width="116.285" height="5.71" transform="translate(27.348 35.711)" fill="#b3eef6"/>
      <rect id="Rectángulo_38061" data-name="Rectángulo 38061" width="36.114" height="4.767" transform="translate(101.874 60.046)" fill="#fefefe"/>
      <rect id="Rectángulo_38062" data-name="Rectángulo 38062" width="36.114" height="4.767" transform="translate(101.874 68.474)" fill="#fefefe"/>
      <rect id="Rectángulo_38063" data-name="Rectángulo 38063" width="36.114" height="4.767" transform="translate(101.874 76.902)" fill="#fefefe"/>
      <rect id="Rectángulo_38064" data-name="Rectángulo 38064" width="36.114" height="4.767" transform="translate(38.073 47.152)" fill="#fefefe"/>
      <rect id="Rectángulo_38065" data-name="Rectángulo 38065" width="36.114" height="4.767" transform="translate(38.073 55.58)" fill="#fefefe"/>
      <path id="Trazado_131379" data-name="Trazado 131379" d="M72.5,74.437H4.324A4.323,4.323,0,0,0,0,78.76v21.986a4.323,4.323,0,0,0,4.324,4.324H47.037L63.307,118.9l-7.726-13.833H72.5a4.323,4.323,0,0,0,4.323-4.324V78.76A4.323,4.323,0,0,0,72.5,74.437" transform="translate(0 -17.385)" fill="#29c4bb"/>
      <rect id="Rectángulo_38066" data-name="Rectángulo 38066" width="45.947" height="2.646" transform="translate(25.691 62.981)" fill="#fff"/>
      <rect id="Rectángulo_38067" data-name="Rectángulo 38067" width="45.947" height="2.646" transform="translate(25.691 68.378)" fill="#fff"/>
      <rect id="Rectángulo_38068" data-name="Rectángulo 38068" width="45.947" height="2.646" transform="translate(25.691 73.775)" fill="#fff"/>
      <rect id="Rectángulo_38069" data-name="Rectángulo 38069" width="30.496" height="2.646" transform="translate(25.691 79.173)" fill="#fff"/>
      <path id="Trazado_131380" data-name="Trazado 131380" d="M23.371,91.1a8.864,8.864,0,1,1-8.864-8.864A8.864,8.864,0,0,1,23.371,91.1" transform="translate(-1.318 -19.207)" fill="#110239"/>
      <path id="Trazado_131381" data-name="Trazado 131381" d="M18.947,89.579a2.5,2.5,0,1,1-2.5-2.58,2.542,2.542,0,0,1,2.5,2.58" transform="translate(-3.257 -20.319)" fill="#fff"/>
      <path id="Trazado_131382" data-name="Trazado 131382" d="M15.885,94.238H15.8a4.441,4.441,0,0,0-4.441,4.441v2.832a8.625,8.625,0,0,0,8.972,0V98.679a4.441,4.441,0,0,0-4.442-4.441" transform="translate(-2.652 -22.009)" fill="#fff"/>
      <path id="Trazado_131383" data-name="Trazado 131383" d="M180.428,0h-68.18a4.323,4.323,0,0,0-4.324,4.323V26.308a4.323,4.323,0,0,0,4.324,4.324h19.74L126.7,44.466l13.834-13.834h39.9a4.323,4.323,0,0,0,4.323-4.324V4.323A4.323,4.323,0,0,0,180.428,0" transform="translate(-25.206)" fill="#d0d1de"/>
      <rect id="Rectángulo_38070" data-name="Rectángulo 38070" width="45.947" height="2.646" transform="translate(108.411 5.929)" fill="#fff"/>
      <rect id="Rectángulo_38071" data-name="Rectángulo 38071" width="45.947" height="2.646" transform="translate(108.411 11.326)" fill="#fff"/>
      <rect id="Rectángulo_38072" data-name="Rectángulo 38072" width="45.947" height="2.646" transform="translate(108.411 16.723)" fill="#fff"/>
      <rect id="Rectángulo_38073" data-name="Rectángulo 38073" width="30.496" height="2.646" transform="translate(108.411 22.121)" fill="#fff"/>
      <path id="Trazado_131384" data-name="Trazado 131384" d="M131.3,16.666A8.864,8.864,0,1,1,122.432,7.8a8.865,8.865,0,0,1,8.865,8.864" transform="translate(-26.524 -1.822)" fill="#110239"/>
      <path id="Trazado_131385" data-name="Trazado 131385" d="M126.873,15.142a2.5,2.5,0,1,1-2.5-2.58,2.542,2.542,0,0,1,2.5,2.58" transform="translate(-28.463 -2.934)" fill="#fff"/>
      <path id="Trazado_131386" data-name="Trazado 131386" d="M123.811,19.8h-.09a4.441,4.441,0,0,0-4.441,4.441v2.832a8.623,8.623,0,0,0,8.971,0V24.242a4.441,4.441,0,0,0-4.441-4.441" transform="translate(-27.858 -4.625)" fill="#fff"/>
      <path id="Trazado_131387" data-name="Trazado 131387" d="M114.21,70.608a20.113,20.113,0,0,1-5.47.242,8.17,8.17,0,0,1-1.921-.418c.088,2.278.106,7.616-1.515,9.827,0,0,.584,2.625,5.323,2.7s5.274-3.5,5.274-3.5a46.872,46.872,0,0,1-1.691-8.856" transform="translate(-24.594 -16.449)" fill="#f88667"/>
      <path id="Trazado_131388" data-name="Trazado 131388" d="M105.329,80.342a1.84,1.84,0,0,0,.073.186l.011.024a2.642,2.642,0,0,0,.146.276l.008.013a3.151,3.151,0,0,0,.241.336l.04.048a3.911,3.911,0,0,0,.86.747l.062.041a4.991,4.991,0,0,0,.642.336c.031.014.064.026.1.039a6.23,6.23,0,0,0,.832.284,6.68,6.68,0,0,1,1.4-3.364,8.369,8.369,0,0,1,5.338-3.1,32.109,32.109,0,0,1-.863-5.6,20.082,20.082,0,0,1-5.47.241,8.131,8.131,0,0,1-1.921-.418c.089,2.278.106,7.616-1.515,9.827,0,0,.008.028.016.057l.009.027" transform="translate(-24.594 -16.449)" fill="#e45940"/>
      <path id="Trazado_131389" data-name="Trazado 131389" d="M107.735,53.63s7.766-2.293,9-.412,1.012,4.919,1.528,6.258,2.442,2.749,2.648,3.285-1.291,1.557-1.5,1.976-.99,4.814-2.339,5.784-8.58-1.6-10.371-5.02-1.054-10.745,1.029-11.87" transform="translate(-24.685 -12.256)" fill="#f88667"/>
      <path id="Trazado_131390" data-name="Trazado 131390" d="M110,54.719a7.711,7.711,0,0,1-.818,4.012c-.465.929,1.855,3.4,1.209,4.522-.43.747-1.058.558-1.629-.918a2.245,2.245,0,0,0-1.255-1.073c-1.9-.822-2.344,2.074-.639,2.935,1.193.6.484,3.623.484,3.623-1.282.986-5.515-.2-5.052-3.294.3-1.968.426-2.718-.264-3.2-1.249-.868-2.873-3.277-.819-5.32,2.831-2.814.249-3.708,3.523-4.521s5.978,1.186,5.26,3.231" transform="translate(-23.41 -11.982)" fill="#110239"/>
      <path id="Trazado_131391" data-name="Trazado 131391" d="M105.413,52.414c.184-.714,1.475-1.634,2.115-2.111a9.411,9.411,0,0,1,3.35-1.511,8.643,8.643,0,0,1,3.733-.126c1.062.2,1.952.674,3.039.8a3.508,3.508,0,0,0,2.708-.525,6.921,6.921,0,0,1,.133,2.457,7.667,7.667,0,0,1-1.4,2.7c-1.575,2.351-5.862,3.652-8.883,2.41-1.46-.6-2.77-1.12-3.487-2.389a7.588,7.588,0,0,0-1.311-1.7" transform="translate(-24.619 -11.332)" fill="#110239"/>
      <path id="Trazado_131392" data-name="Trazado 131392" d="M156.875,60.208l7.508,16.664s-2.2,2.473-2.93,1.923-11.995-14.071-13.094-14.772,8.516-3.815,8.516-3.815" transform="translate(-34.629 -14.062)" fill="#110239"/>
      <path id="Trazado_131393" data-name="Trazado 131393" d="M135.206,56.4s.031,4.792,2.961,5.891c0,0,15.016-6.222,18.038-6.82s14.009-.688,14.009-.688L159.135,35s-5.311,10.621-10.164,14.1S135.206,56.4,135.206,56.4" transform="translate(-31.577 -8.174)" fill="#1169e3"/>
      <path id="Trazado_131394" data-name="Trazado 131394" d="M147.008,64.517c1.188-.472,2.427-.96,3.648-1.431a15.276,15.276,0,0,1-3.16-6.777c-1.139.652-2.319,1.282-3.461,1.866a13.772,13.772,0,0,0,2.974,6.342" transform="translate(-33.639 -13.151)" fill="#110239"/>
      <path id="Trazado_131395" data-name="Trazado 131395" d="M180.718,38.376c3.128,7.544,2.023,15.17-2.469,17.031s-10.667-2.744-13.8-10.288-2.023-15.169,2.469-17.031,10.667,2.744,13.8,10.288" transform="translate(-37.993 -6.463)" fill="#01c7e2"/>
      <path id="Trazado_131396" data-name="Trazado 131396" d="M180.749,39.191c2.66,6.417,1.721,12.9-2.1,14.488s-9.075-2.335-11.736-8.752-1.721-12.9,2.1-14.488,9.076,2.335,11.736,8.752" transform="translate(-38.629 -7.027)" fill="#110239"/>
      <path id="Trazado_131397" data-name="Trazado 131397" d="M157.585,74.678c-.357-.216-.257-1.557-.184-1.907.113-.546.491-1.258.112-1.78-.67-.924-1.612,1.56-1.734,1.921a2.615,2.615,0,0,0-.172,1.656,6.522,6.522,0,0,0,1.438,2.171c-.07.248-.146.5-.241.777a16.5,16.5,0,0,1,1.81.917c.725.417.688.934,1.366,1.4l.678-1.557a31.929,31.929,0,0,0-3.071-3.6" transform="translate(-36.325 -16.532)" fill="#f88667"/>
      <path id="Trazado_131398" data-name="Trazado 131398" d="M163.176,68.622c-.648-.7-1.66-.43-2.445.143-.574.418-2.225,1.754-1.78,2.722.37.806,2.495-.977,2.495-.977-.782.674-2.24,1.213-1.874,1.886.409.752,2.264-.32,2.67-.618-.417.107-2.489,1.364-1.659,2.021.569.449,2.091-.494,2.548-.816-.612.186-1.443.728-1.282,1.576.266.464,1.19.156,1.7-.053.776-.315,1.508-.436,1.57-1.4a4.214,4.214,0,0,0,.027-.524,5.285,5.285,0,0,0-.683-2.1,9.143,9.143,0,0,0-1.291-1.86" transform="translate(-37.105 -15.929)" fill="#f88667"/>
      <path id="Trazado_131399" data-name="Trazado 131399" d="M56.468,71.318a8.575,8.575,0,0,1-.868-1.847c-.193-.553-.33-1.119-.521-1.672a4.336,4.336,0,0,1-.372-1.637,4.708,4.708,0,0,1,.2-1c.11-.425.267-.838.354-1.268.077-.383.044-.756.116-1.137a6.775,6.775,0,0,1,.662-2.1A7.8,7.8,0,0,1,57,59.33a4.98,4.98,0,0,1,.571-.609,1.513,1.513,0,0,0,.523-.644.616.616,0,0,0-.448-.829,2.3,2.3,0,0,0-2.128.7c-.566.778-.832,1.731-1.462,2.481-1.926,2.295-3.733-.406-5.981-1.377a13.5,13.5,0,0,1-2.171-1.4c-.4-.3-2.127-1.941-2.942-1.515-.6.315.574,1.692,1.143,2.029.224.133,2.149,1.7,2.4,1.771a12.219,12.219,0,0,1-3.228-2c-.852-.667-1.679-1.324-2.143-.943-1.43,1.171,4.181,3.853,4.619,4.1-.468.04-4.86-3.07-5.275-1.927-.228.628.683,1.252,1.429,1.657.935.508,2.5.871,2.857,1.146-.661.225-3.57-1.754-3.571-.546,0,.791,1.806,1.382,2.486,1.59.7.213,2.758,1.612,3.409,1.922,2.171,1.035,3.067.915,3.924,2.216.546.829,1.517,5.206,2.3,6.874Z" transform="translate(-9.445 -13.093)" fill="#f88667"/>
      <path id="Trazado_131400" data-name="Trazado 131400" d="M149.183,78.789c-1.936,5.636-6.076,15.608-7.443,14.908-2.564-1.313-8.082-5.826-12.2-8.585a28.926,28.926,0,0,0-4.794-2.763l2.87,13.608s13.6,10.332,16.453,8.748c2.241-1.245,7.758-16.955,9.7-23.466,0,0-4.553-2.427-4.586-2.451" transform="translate(-29.133 -18.401)" fill="#01c7e2"/>
      <path id="Trazado_131401" data-name="Trazado 131401" d="M136.322,101.39a92.169,92.169,0,0,0-8.967-8.941l.457,6.454s13.713,10.309,16.748,9.022c-2.613-1.68-6.375-4.116-8.238-6.534" transform="translate(-29.744 -21.591)" fill="#00a7cc"/>
      <path id="Trazado_131402" data-name="Trazado 131402" d="M85.025,80.887s-16.73,6.753-18.55,6.278-7.886-17.723-7.886-17.723L53.522,71.5s5.411,24.879,8.895,26.042,24.247-4.836,24.247-4.836a35.2,35.2,0,0,0-1.639-11.819" transform="translate(-12.5 -16.218)" fill="#01c7e2"/>
      <path id="Trazado_131403" data-name="Trazado 131403" d="M74.638,101.153c-1.475.529-2.975,1.05-4.481,1.493,7.1-.937,20.391-4.777,20.391-4.777a36.351,36.351,0,0,0-.363-6.323c-4.119,4.461-9.977,7.609-15.547,9.607" transform="translate(-16.385 -21.381)" fill="#00a7cc"/>
      <path id="Trazado_131404" data-name="Trazado 131404" d="M172.987,46.976a4.247,4.247,0,0,0-5.143-3.055,3.579,3.579,0,0,0-1.729,1.252,20.8,20.8,0,0,0,.965,2.946,20,20,0,0,0,2.582,4.5,3.467,3.467,0,0,0,.953-.155,4.246,4.246,0,0,0,2.372-5.491" transform="translate(-38.796 -10.218)" fill="#d0d1de"/>
      <path id="Trazado_131405" data-name="Trazado 131405" d="M94.236,104.024c-.59,5.807-1.051,18.011-1.4,19.717h27.45a254.273,254.273,0,0,0-.128-27.181,52.546,52.546,0,0,0-2.87-13.608s-2.049-.648-4.481-1.583c0,0-5.053,3.087-9.757.041,0,0-8.493,2.011-9.52,2.5-.852.407,1.334,13.912.7,20.112" transform="translate(-21.682 -19.004)" fill="#01c7e2"/>
      <path id="Trazado_131406" data-name="Trazado 131406" d="M101.5,114.9a21.674,21.674,0,0,0-1.571-7.92,7.129,7.129,0,0,1-.5-1.777,11.778,11.778,0,0,0-1.163-4.054c-.613-.927-1.236-1.85-1.842-2.782-.336-.457-.691-.94-1.081-1.511a26.091,26.091,0,0,1-1.677-2.966c.322,4.264.892,9.957.576,13.061-.59,5.807-1.051,18.011-1.4,19.717h12.775a23.8,23.8,0,0,1-3.592-7.822,14.047,14.047,0,0,1-.525-3.946" transform="translate(-21.682 -21.927)" fill="#00a7cc"/>
    </g>
  </g>
</svg>
