<svg id="Grupo_157830" data-name="Grupo 157830" xmlns="http://www.w3.org/2000/svg" xmlns:xlink="http://www.w3.org/1999/xlink" width="171.174" height="150.385" viewBox="0 0 171.174 150.385">
  <defs>
    <clipPath id="clip-path">
      <rect id="Rectángulo_37555" data-name="Rectángulo 37555" width="171.174" height="150.385" fill="none"/>
    </clipPath>
  </defs>
  <rect id="Rectángulo_37527" data-name="Rectángulo 37527" width="120.401" height="17.679" transform="translate(25.387 107.4)" fill="#093962"/>
  <g id="Grupo_157124" data-name="Grupo 157124">
    <g id="Grupo_157123" data-name="Grupo 157123" clip-path="url(#clip-path)">
      <path id="Trazado_129272" data-name="Trazado 129272" d="M147.646,115.826H19.165a7.384,7.384,0,0,1-7.384-7.384V27.184A7.383,7.383,0,0,1,19.165,19.8H147.646a7.383,7.383,0,0,1,7.384,7.384v81.258a7.384,7.384,0,0,1-7.384,7.384" transform="translate(2.182 3.667)" fill="#093962"/>
      <rect id="Rectángulo_37528" data-name="Rectángulo 37528" width="130.059" height="82.308" transform="translate(20.558 29.829)" fill="#fefefe"/>
      <path id="Trazado_129273" data-name="Trazado 129273" d="M0,122.455v2.625c0,1.452,1.581,2.629,3.532,2.629H167.644c1.95,0,3.531-1.177,3.531-2.629v-2.625Z" transform="translate(0 22.676)" fill="#093962"/>
      <path id="Trazado_129274" data-name="Trazado 129274" d="M85.588,105.366H15.33c-.238.252-11.283,10.139-14.657,17.484-1.441,3.14-.5,4.792,2.185,4.792H168.317c2.684,0,3.628-1.652,2.185-4.792-3.374-7.345-14.419-17.231-14.657-17.484Z" transform="translate(0 19.512)" fill="#093962"/>
      <path id="Trazado_129275" data-name="Trazado 129275" d="M160.319,123.392H10.616l10.375-15.359H149.945Z" transform="translate(1.966 20.006)" fill="#9c9eb9"/>
      <path id="Trazado_129276" data-name="Trazado 129276" d="M158.214,120.7l-.325-.48H147.9l-1.861-3.726h9.334l-.325-.48H145.8l-1.86-3.725h8.593l-.325-.481H143.7l-1.882-3.77h-.863l1.852,3.77h-10.7l-1.5-3.77h-.863l1.47,3.77h-10.7l-1.116-3.77h-.863l1.087,3.77H108.937l-.734-3.77h-.864l.7,3.77H97.35L97,108.034h-.863l.321,3.77H86.305v-3.77h-.951v3.77H74.833l.321-3.77h-.863l-.351,3.77H63.246l.7-3.77h-.864l-.732,3.77h-10.7l1.087-3.77h-.863l-1.116,3.77h-10.7l1.47-3.77h-.863l-1.5,3.77h-10.7l1.854-3.77h-.864l-1.882,3.77H18.158l-.325.481h9.517l-1.86,3.725H15.318l-.325.48H25.251l-1.86,3.726H12.477l-.325.48h11l-1.346,2.7h.984l1.325-2.7H35.642l-1.073,2.7h.984l1.051-2.7H48.133l-.8,2.7h.984l.777-2.7H60.623l-.524,2.7h.983l.5-2.7H73.114l-.25,2.7h.984l.229-2.7H85.355v2.7h.951v-2.7H97.214l.229,2.7h.984l-.25-2.7H109.7l.5,2.7h.984l-.525-2.7h11.528l.777,2.7h.984l-.8-2.7h11.528l1.051,2.7h.984l-1.073-2.7h11.529l1.324,2.7h.984l-1.346-2.7Zm-118.33-8.411h10.74l-1.1,3.725H38.431Zm-11.636,0h10.74l-1.483,3.725H26.417Zm7.585,7.931H24.35l1.831-3.726H37.315Zm12.442,0H36.792l1.452-3.726H49.378Zm12.442,0H49.234l1.074-3.726H61.441Zm.818-4.206H50.446l1.074-3.725H62.26Zm11.624,4.206H61.676l.695-3.726H73.505Zm.391-4.206H62.46l.7-3.725H73.9Zm11.8,4.206H74.118l.316-3.726h10.92Zm0-4.206H74.476l.316-3.725H85.355Zm.951-3.725H96.5l.318,3.725H86.305Zm0,7.931V116.49h10.55l.318,3.726Zm56.737-7.931,1.831,3.725H133.785l-1.483-3.725Zm-11.636,0,1.453,3.725h-11.09l-1.1-3.725Zm-34.012,0h10.74l.7,3.725H97.741Zm.738,7.931-.347-3.726H108.92l.695,3.726Zm10.9-7.931h10.74l1.074,3.725H109.755Zm1.543,7.931-.724-3.726h11.134l1.074,3.726Zm12.442,0-1.1-3.726h11.135l1.452,3.726Zm12.442,0-1.481-3.726h11.134l1.831,3.726Z" transform="translate(2.25 20.006)" fill="#d0d1de"/>
      <path id="Trazado_129277" data-name="Trazado 129277" d="M73.351,124.162H66.08a1.508,1.508,0,0,0,.363,1.006.8.8,0,0,0,.551.205H79.71a.793.793,0,0,0,.55-.205,1.5,1.5,0,0,0,.363-1.006Z" transform="translate(12.237 22.992)" fill="#110239"/>
      <rect id="Rectángulo_37529" data-name="Rectángulo 37529" width="130.049" height="82.301" transform="translate(20.558 29.836)" fill="#fefefe"/>
      <path id="Trazado_129278" data-name="Trazado 129278" d="M84.785,69.408,73.049,74.626,58.208,59.784,17.346,90.922v18.8H147.394V13.016L93.06,78.77Z" transform="translate(3.212 2.41)" fill="#29c4bb"/>
      <rect id="Rectángulo_37530" data-name="Rectángulo 37530" width="4.15" height="3.147" transform="translate(46.204 87.015)" fill="#fefefe"/>
      <rect id="Rectángulo_37531" data-name="Rectángulo 37531" width="4.15" height="3.147" transform="translate(52.057 87.015)" fill="#fefefe"/>
      <rect id="Rectángulo_37532" data-name="Rectángulo 37532" width="4.15" height="3.147" transform="translate(57.909 87.015)" fill="#fee734"/>
      <rect id="Rectángulo_37533" data-name="Rectángulo 37533" width="4.15" height="3.147" transform="translate(63.763 87.015)" fill="#fefefe"/>
      <rect id="Rectángulo_37534" data-name="Rectángulo 37534" width="4.15" height="3.147" transform="translate(69.615 87.015)" fill="#fefefe"/>
      <rect id="Rectángulo_37535" data-name="Rectángulo 37535" width="4.15" height="3.147" transform="translate(75.469 87.015)" fill="#fee734"/>
      <rect id="Rectángulo_37536" data-name="Rectángulo 37536" width="4.15" height="3.147" transform="translate(46.204 92.388)" fill="#fefefe"/>
      <rect id="Rectángulo_37537" data-name="Rectángulo 37537" width="4.15" height="3.147" transform="translate(52.057 92.388)" fill="#fefefe"/>
      <rect id="Rectángulo_37538" data-name="Rectángulo 37538" width="4.15" height="3.147" transform="translate(57.909 92.388)" fill="#fefefe"/>
      <rect id="Rectángulo_37539" data-name="Rectángulo 37539" width="4.15" height="3.147" transform="translate(63.763 92.388)" fill="#fefefe"/>
      <rect id="Rectángulo_37540" data-name="Rectángulo 37540" width="4.15" height="3.147" transform="translate(69.615 92.388)" fill="#fee734"/>
      <rect id="Rectángulo_37541" data-name="Rectángulo 37541" width="4.15" height="3.147" transform="translate(75.469 92.388)" fill="#fefefe"/>
      <rect id="Rectángulo_37542" data-name="Rectángulo 37542" width="4.15" height="3.147" transform="translate(46.204 97.761)" fill="#fefefe"/>
      <rect id="Rectángulo_37543" data-name="Rectángulo 37543" width="4.15" height="3.147" transform="translate(52.057 97.761)" fill="#fee734"/>
      <rect id="Rectángulo_37544" data-name="Rectángulo 37544" width="4.15" height="3.147" transform="translate(57.909 97.761)" fill="#fefefe"/>
      <rect id="Rectángulo_37545" data-name="Rectángulo 37545" width="4.15" height="3.147" transform="translate(63.763 97.761)" fill="#fefefe"/>
      <rect id="Rectángulo_37546" data-name="Rectángulo 37546" width="4.15" height="3.147" transform="translate(69.615 97.761)" fill="#fefefe"/>
      <rect id="Rectángulo_37547" data-name="Rectángulo 37547" width="4.15" height="3.147" transform="translate(75.469 97.761)" fill="#fefefe"/>
      <rect id="Rectángulo_37548" data-name="Rectángulo 37548" width="4.15" height="3.147" transform="translate(46.204 103.134)" fill="#fefefe"/>
      <rect id="Rectángulo_37549" data-name="Rectángulo 37549" width="4.15" height="3.147" transform="translate(52.057 103.134)" fill="#fefefe"/>
      <rect id="Rectángulo_37550" data-name="Rectángulo 37550" width="4.15" height="3.147" transform="translate(57.909 103.134)" fill="#fee734"/>
      <rect id="Rectángulo_37551" data-name="Rectángulo 37551" width="4.15" height="3.147" transform="translate(63.763 103.134)" fill="#fefefe"/>
      <path id="Trazado_129279" data-name="Trazado 129279" d="M75.633,66.133l-.416-.412-.527.222-.334-.814,1.036-.436.823.812Z" transform="translate(13.769 11.98)" fill="#fff"/>
      <path id="Trazado_129280" data-name="Trazado 129280" d="M67.505,69.361l-.333-.818,1.425-.6.333.818Zm2.846-1.2-.333-.817,1.42-.6.334.817Zm2.837-1.193-.334-.815,1.416-.595.334.815Z" transform="translate(12.439 12.14)" fill="#fff"/>
      <path id="Trazado_129281" data-name="Trazado 129281" d="M65.516,69.862l-.86-.753.549-.67.459.4.55-.23.333.819Z" transform="translate(11.973 12.674)" fill="#fff"/>
      <path id="Trazado_129282" data-name="Trazado 129282" d="M65.365,69.727l-1.259-1.1.55-.668,1.257,1.1Zm-2.517-2.2-1.259-1.1.551-.668,1.257,1.1Zm-2.52-2.2-1.259-1.1.552-.667,1.257,1.1Zm-2.519-2.2-1.259-1.1.553-.667,1.259,1.1Zm-2.519-2.2-1.26-1.1.555-.665,1.259,1.1Z" transform="translate(10.005 10.957)" fill="#fff"/>
      <path id="Trazado_129283" data-name="Trazado 129283" d="M53.178,59.03l-.405-.354-.437.306-.494-.73.978-.685.914.8Z" transform="translate(9.6 10.66)" fill="#fff"/>
      <path id="Trazado_129284" data-name="Trazado 129284" d="M19.9,85.722l-.506-.747L20.9,83.913l.506.747ZM22.919,83.6l-.5-.744L23.921,81.8l.5.744Zm3.01-2.114-.5-.744,1.5-1.055.5.744Zm3-2.108-.5-.742,1.5-1.05.5.742Zm2.989-2.1-.5-.741,1.492-1.047.5.74Zm2.98-2.093-.5-.74L35.881,73.4l.5.738ZM37.865,73.1l-.5-.738,1.479-1.039.5.737Zm2.957-2.078-.5-.737L41.8,69.251l.5.736Zm2.946-2.069-.5-.736,1.471-1.031.5.735Zm2.937-2.063-.5-.734,1.464-1.026.5.732Zm2.925-2.055-.5-.731,1.458-1.024.5.731Zm2.913-2.048-.5-.73L53.5,61.038l.5.729Zm2.908-2.04-.5-.729L56.4,59l.5.728Z" transform="translate(3.591 10.926)" fill="#fff"/>
      <path id="Trazado_129285" data-name="Trazado 129285" d="M84.053,79.967l-.639-.594,1.115-1.3.638.593Zm2.227-2.6-.636-.593,1.111-1.293.636.591Zm2.22-2.586-.635-.591L88.971,72.9l.635.591Zm2.213-2.578-.635-.59,1.1-1.285.634.59Zm2.2-2.568-.633-.589,1.1-1.28.633.589Zm2.2-2.559-.633-.589,1.1-1.275.632.588ZM97.3,64.53l-.632-.588,1.092-1.271.632.587Zm2.181-2.541-.631-.585,1.088-1.267.631.584Zm2.174-2.533-.629-.584,1.084-1.263.629.584Zm2.167-2.524-.628-.583,1.081-1.257.627.582Zm2.158-2.514-.627-.583,1.077-1.254.626.582Zm2.151-2.507-.626-.582,1.074-1.249.625.581Zm2.144-2.5-.625-.58,1.069-1.246.625.58Zm2.136-2.489-.623-.578,1.065-1.242.623.578Zm2.131-2.479-.622-.58,1.062-1.236.622.58Zm2.121-2.472-.621-.578,1.058-1.231.621.578Zm2.114-2.463-.621-.578,1.056-1.228.62.578Zm2.107-2.456-.62-.576,1.051-1.224.619.577Zm2.1-2.446-.619-.576,1.048-1.22.617.576Zm2.092-2.438-.617-.575,1.045-1.216.616.575Zm2.086-2.43-.616-.575,1.041-1.211.616.574Zm2.079-2.423-.615-.572,1.037-1.208.614.574Zm1.935-2.293-.615-.574,1.037-1.207.614.572Zm1.935-2.295-.615-.572,1.037-1.208.615.572Z" transform="translate(15.447 3.88)" fill="#fff"/>
      <path id="Trazado_129286" data-name="Trazado 129286" d="M82.444,72.92l-.942-.928.578-.632.3.3.269-.314.639.594Z" transform="translate(15.092 13.211)" fill="#fff"/>
      <path id="Trazado_129287" data-name="Trazado 129287" d="M80.961,71.457l-1.438-1.419.578-.631,1.438,1.417Zm-2.876-2.836L76.646,67.2l.581-.631,1.438,1.417Z" transform="translate(14.193 12.328)" fill="#fff"/>
      <path id="Trazado_129288" data-name="Trazado 129288" d="M143.939,4.91,93.244,69.172l-8.2-9.9-12.008,5.7L57.781,48.693,17.346,81.567v3.951L57.631,52.768,72.657,68.8l11.937-5.663,8.681,10.478,52.61-66.691a21.37,21.37,0,0,1-1.947-2.015" transform="translate(3.212 0.909)" fill="#1169e3"/>
      <path id="Trazado_129289" data-name="Trazado 129289" d="M132.656,0,120.693,4.05l7.912,7.912Z" transform="translate(22.35 0)" fill="#1169e3"/>
      <path id="Trazado_129290" data-name="Trazado 129290" d="M89.951,110.463s.187,3.661-.345,4.206-7.783,1.335-8.462.718-.4-1.769,1.127-2.325c1.637-.6,2.492-.206,3.506-.724s.606-2.15.606-2.15Z" transform="translate(14.962 20.405)" fill="#110239"/>
      <path id="Trazado_129291" data-name="Trazado 129291" d="M108.584,110.463s-.187,3.661.345,4.206,7.783,1.335,8.462.718.4-1.769-1.127-2.325c-1.637-.6-2.492-.206-3.506-.724s-.606-2.15-.606-2.15Z" transform="translate(20.102 20.405)" fill="#110239"/>
      <path id="Trazado_129292" data-name="Trazado 129292" d="M113.326,95.909c-.792-3.988-5.039-14.875-6.613-18.651-.633-.213-1.326-.424-2.029-.629.184-.85.307-1.581.444-2.22-1.234.326-2.543.484-3.868.9-.18.057-.38.117-.59.179-.21-.062-.411-.122-.591-.179-1.325-.421-2.635-.578-3.867-.9.136.639.26,1.37.444,2.22-.7.205-1.4.416-2.029.629-1.575,3.776-5.823,14.663-6.614,18.651-1.1,5.519-2.924,21.88-2.924,21.88l4.665.614s4.685-21.98,5.355-23.2c1.2-2.184,2.462-4.116,3.584-5.828a2.363,2.363,0,0,1,3.956,0c1.122,1.711,2.382,3.643,3.583,5.828.67,1.217,5.356,23.2,5.356,23.2l4.665-.614s-1.83-16.36-2.925-21.88" transform="translate(15.757 13.779)" fill="#1169e3"/>
      <path id="Trazado_129293" data-name="Trazado 129293" d="M110.658,36.579c-.275-1.894-.557-2.188-1.193-2.559a2.439,2.439,0,0,1-.8-.6,5.272,5.272,0,0,0-.852-.775,2.064,2.064,0,0,1-.76-.847c-.147-.454.449-.329.834-.19.418.153,1.2,1.3,1.649,1.146s-.6-1.5-.811-1.767c-.5-.623-1.094-.539-1.759-.827-.388-.168-.514-.363-.095-.614a1.272,1.272,0,0,1,1.028.073,4.336,4.336,0,0,1,1.792,1.114,5.066,5.066,0,0,0-1.563-1.211c-.335-.172-1.9-.649-1.672-1.2.448-1.109,3.482.98,3.813,1.567a5.927,5.927,0,0,0-1.5-1.319c-.321-.23-1.1-.74-.447-1,.969-.389,2.143,1.41,2.81,2.121a6.951,6.951,0,0,0-1.129-1.523c-.535-.651.129-.817.793-.247a9.594,9.594,0,0,1,.852.937c1.058,1.335,1.1,2.229,1.286,3.857.066.584.082,1.537.274,3.239.11.979-1.734.474-2.553.632" transform="translate(19.709 5.094)" fill="#f88667"/>
      <path id="Trazado_129294" data-name="Trazado 129294" d="M73.049,58.474c-1.792-.673-2.014-1.393-2.24-2.093a2.467,2.467,0,0,0-.417-.91,5.371,5.371,0,0,1-.576-1,2.051,2.051,0,0,0-.664-.923c-.412-.242-.418.367-.364.774.059.442,1.017,1.455.767,1.856s-1.34-.908-1.553-1.171c-.5-.622-.294-1.183-.433-1.894-.082-.415-.245-.581-.58-.224a1.269,1.269,0,0,0-.148,1.019,4.342,4.342,0,0,0,.705,1.989,5.066,5.066,0,0,1-.849-1.785c-.1-.365-.23-1.992-.818-1.893-1.178.2.215,3.611.717,4.06a5.912,5.912,0,0,1-.969-1.743c-.155-.363-.486-1.236-.884-.651-.588.864.92,2.394,1.471,3.2a6.922,6.922,0,0,1-1.247-1.429c-.521-.661-.825-.047-.409.722a9.515,9.515,0,0,0,.732,1.033c1.077,1.319,1.943,1.549,3.493,2.08a14.887,14.887,0,0,1,2.982,1.127c.887.429.953-1.378,1.282-2.145" transform="translate(11.919 9.669)" fill="#f88667"/>
      <path id="Trazado_129295" data-name="Trazado 129295" d="M100.953,54.515a11.207,11.207,0,0,1-3.055.148,4.431,4.431,0,0,1-1.07-.23c.045,1.273.045,4.222-.851,5.432,0,0,.319,1.423,2.916,1.461s2.919-1.461,2.919-1.461a13.231,13.231,0,0,1-.858-5.35" transform="translate(17.773 10.08)" fill="#f88667"/>
      <path id="Trazado_129296" data-name="Trazado 129296" d="M112.19,61.143a14.16,14.16,0,0,0-6.342-3.253,35.728,35.728,0,0,0-11.157,0c-2.274.36-4.537.936-5.246,1.841-.887,1.132,1.767,7.483,2.209,13.31.366,4.832,1.024,8.566,1.024,8.566,1.458,2.677,12.853,2.751,14.31.072,0,0,.275-4.129,1.065-8.639,1.029-5.87,5.033-10.751,4.136-11.9" transform="translate(16.53 10.639)" fill="#e5e6ed"/>
      <path id="Trazado_129297" data-name="Trazado 129297" d="M93.852,70.967c.073-1.568.593-4.377.014-5.814-.826-2.055-2.692-2.825-4.417-3.763.516,2.628,1.865,6.882,2.171,10.92.366,4.832,1.024,8.565,1.024,8.565a3.2,3.2,0,0,0,1.726,1.2c-1.619-3.1-.661-8.053-.518-11.111" transform="translate(16.564 11.368)" fill="#abadc4"/>
      <path id="Trazado_129298" data-name="Trazado 129298" d="M104.8,48.925s-5.384-3.168-6.2-2.388-2.094,3.428-2.713,3.832-1.586.787-1.5,1.263.4.507.373.988-1.115,2.776-.52,3.454,4.507,2.171,6.857.608,6.353-6.34,3.7-7.757" transform="translate(17.42 8.595)" fill="#f88667"/>
      <path id="Trazado_129299" data-name="Trazado 129299" d="M105.273,49.518l-4.534.072a9.255,9.255,0,0,1-2.789,3.682s.108.668.593.532a1.5,1.5,0,0,0,1.109-.7c.326-.508,1.3-1.83,1.969-.668s-.756,1.557-1.353,1.548c0,0-2.065,2.5-.459,2.971,0,0,1.792-.265,4.52-3.161s2.168-4.5.945-4.274" transform="translate(18.138 9.166)" fill="#110239"/>
      <path id="Trazado_129300" data-name="Trazado 129300" d="M97.03,45.042s-2.2,1.338.348,4.019,8.561,1.269,8.561,1.269.638-1.748-1.534-3.582c-1.622-1.369-3.4-2.068-4.833-1.41-2.43,1.116-2.542-.3-2.542-.3" transform="translate(17.804 8.341)" fill="#110239"/>
      <path id="Trazado_129301" data-name="Trazado 129301" d="M71.493,56.771l-1.927,3.068a87.273,87.273,0,0,0,10.662,8.543c3.32,2.2,14.688-1.319,16.444-1.847,2.509-.753,4.4-6.062.21-8.036-2.453-1.156-12.292,6.319-14.7,5.054-3.02-1.588-10.688-6.783-10.688-6.783" transform="translate(12.882 10.513)" fill="#e5e6ed"/>
      <path id="Trazado_129302" data-name="Trazado 129302" d="M110.235,34.59l3.828-.64S116.589,45,116.438,48.98s-6.478,18.443-7.922,19.574c-1.735,1.358-6.547-2.568-3.059-6.8S111.2,48.8,111.3,48.447s-1.062-13.857-1.062-13.857" transform="translate(19.299 6.287)" fill="#e5e6ed"/>
      <rect id="Rectángulo_37552" data-name="Rectángulo 37552" width="30.868" height="2.777" transform="translate(50.403 34.572)" fill="#d0d1de"/>
      <rect id="Rectángulo_37553" data-name="Rectángulo 37553" width="30.868" height="2.776" transform="translate(50.403 38.96)" fill="#d0d1de"/>
      <rect id="Rectángulo_37554" data-name="Rectángulo 37554" width="23.362" height="2.777" transform="translate(50.403 43.347)" fill="#d0d1de"/>
    </g>
  </g>
</svg>
