<svg id="Grupo_157122" data-name="Grupo 157122" xmlns="http://www.w3.org/2000/svg" xmlns:xlink="http://www.w3.org/1999/xlink" width="128.689" height="134.868" viewBox="0 0 128.689 134.868">
  <defs>
    <clipPath id="clip-path">
      <rect id="Rectángulo_37526" data-name="Rectángulo 37526" width="128.69" height="134.868" fill="none"/>
    </clipPath>
    <clipPath id="clip-path-3">
      <rect id="Rectángulo_37521" data-name="Rectángulo 37521" width="39.556" height="16.34" fill="none"/>
    </clipPath>
    <clipPath id="clip-path-4">
      <rect id="Rectángulo_37522" data-name="Rectángulo 37522" width="32.889" height="11.162" fill="none"/>
    </clipPath>
  </defs>
  <g id="Grupo_157121" data-name="Grupo 157121" clip-path="url(#clip-path)">
    <path id="Trazado_129241" data-name="Trazado 129241" d="M70.506,116.867H46.936l1.937-28.414h19.7Z" transform="translate(5.624 10.598)" fill="#093962"/>
    <g id="Grupo_157120" data-name="Grupo 157120">
      <g id="Grupo_157119" data-name="Grupo 157119" clip-path="url(#clip-path)">
        <path id="Trazado_129242" data-name="Trazado 129242" d="M74.335,109.837a1.54,1.54,0,0,0-1.28-.683H45.866a1.542,1.542,0,0,0-1.28.683l-3.561,5.314a1.54,1.54,0,0,0,1.28,2.4H76.616a1.54,1.54,0,0,0,1.28-2.4Z" transform="translate(4.884 13.079)" fill="#093962"/>
        <path id="Trazado_129243" data-name="Trazado 129243" d="M122.057,104.429H6.634A6.633,6.633,0,0,1,0,97.8v-73a6.633,6.633,0,0,1,6.634-6.634H122.057a6.633,6.633,0,0,1,6.634,6.634v73a6.633,6.633,0,0,1-6.634,6.634" transform="translate(0 2.176)" fill="#093962"/>
        <rect id="Rectángulo_37520" data-name="Rectángulo 37520" width="116.84" height="73.942" transform="translate(5.925 26.055)" fill="#1169e3"/>
        <path id="Trazado_129244" data-name="Trazado 129244" d="M99.146,109.233c-13.574-2.516-29.4-5.5-29.443-.242-.041,4.968,5.975,8.819,11.172,11.28,2.816-1.075,6-1.279,9-1.744,5.318-.823,10.535.028,15.86.018a21.3,21.3,0,0,0,8.482-6.279s-4.611-1.094-15.073-3.034" transform="translate(8.352 12.71)" fill="#616161"/>
        <path id="Trazado_129245" data-name="Trazado 129245" d="M87.261,118.683c.431.221-4.759,2.674-4.345,2.88,2.221.7,24.1.822,26.1.306,3.465-.892-6.43-5.195-2.974-5.914,5.684-4.019,8.879-9.279,5.8-9.935-3.471-.74-8.9,1.088-12.4,1.456-2.674.279-4.222.459-6.76-.426l-8.542-.942c-8.758,1.74-10.562,4.891-10.653,4.85,0,1.249,6.389,3.823,12.114,6.857a6.157,6.157,0,0,1,1.663.868" transform="translate(8.805 12.682)" fill="#00bad1"/>
        <g id="Grupo_157115" data-name="Grupo 157115" transform="translate(82.288 118.528)" opacity="0.32" style="mix-blend-mode: multiply;isolation: isolate">
          <g id="Grupo_157114" data-name="Grupo 157114">
            <g id="Grupo_157113" data-name="Grupo 157113" clip-path="url(#clip-path-3)">
              <path id="Trazado_129246" data-name="Trazado 129246" d="M87.261,118.683c.431.221-4.759,2.674-4.345,2.88,2.221.7,24.1.822,26.1.306,3.465-.892-6.43-5.195-2.974-5.914,5.684-4.019,8.879-9.279,5.8-9.935-3.471-.74-8.9,1.088-12.4,1.456-2.674.279-4.222.459-6.76-.426l-8.542-.942c-8.758,1.74-10.562,4.891-10.653,4.85,0,1.249,6.389,3.823,12.114,6.857a6.157,6.157,0,0,1,1.663.868" transform="translate(-73.483 -105.845)" fill="#00547a"/>
            </g>
          </g>
        </g>
        <path id="Trazado_129247" data-name="Trazado 129247" d="M84.179,114.308l2.777,3.76s-3.016,2.107-3.858,2.482-7.655.651-9.44-.719c-1.6-1.227-2.151-2.838-1.331-3.6,1.046-.968,3.57-1.275,4.829-1.441,2.77-.366,7.024-.484,7.024-.484" transform="translate(8.621 13.696)"/>
        <path id="Trazado_129248" data-name="Trazado 129248" d="M81.371,115.507l1.6,5.669s26.894-.4,29.7-4.527c3.609-3.726,5.069-11.047-2.2-11.2a15.643,15.643,0,0,0-4.689.944c-9.864,3.325-24.414,9.111-24.414,9.111" transform="translate(9.75 12.635)" fill="#00bad1"/>
        <g id="Grupo_157118" data-name="Grupo 157118" transform="translate(91.121 122.442)" opacity="0.32" style="mix-blend-mode: multiply;isolation: isolate">
          <g id="Grupo_157117" data-name="Grupo 157117">
            <g id="Grupo_157116" data-name="Grupo 157116" clip-path="url(#clip-path-4)">
              <path id="Trazado_129249" data-name="Trazado 129249" d="M111.089,114.656a8.686,8.686,0,0,1-4.457-1.672,18.93,18.93,0,0,0-5.57-2.186c-1.7-.4-3.477-.991-4.84-1.457-7.817,2.536-14.851,5.7-14.851,5.7l1.254,4.443c.685.165,1.374.342,2.06.529a14.445,14.445,0,0,1,2.441.383c.169.046.34.078.511.108,7.728-.421,23.3-1.619,25.365-4.652a15.659,15.659,0,0,0,1.258-1.872,14.093,14.093,0,0,1-3.171.676" transform="translate(-81.371 -109.341)" fill="#00547a"/>
            </g>
          </g>
        </g>
        <path id="Trazado_129250" data-name="Trazado 129250" d="M102.3,114.625l-2.331,2.955s3.8,2.315,4.6,2.7,6.29.639,8.034-.613c1.564-1.123,2.138-2.642,1.38-3.391-.968-.955-3.366-1.326-4.562-1.523a40.4,40.4,0,0,0-7.116-.127" transform="translate(11.978 13.722)"/>
        <path id="Trazado_129251" data-name="Trazado 129251" d="M108.66,115.036l-2.394,6.624s-33.03-2.6-35.717-7.214c-1.607-2.756-1.84-7.045,1.621-8.573,2.129-.941,5.139-1.424,9.421.049,10.647,3.664,27.068,9.114,27.068,9.114" transform="translate(8.318 12.579)" fill="#00bad1"/>
        <path id="Trazado_129252" data-name="Trazado 129252" d="M93.589,74.732H88.913s-.673,6.371-1.894,7.129c0,0-1.505,7.525,4.232,7.525,6.942,0,4.232-7.525,4.232-7.525-1.221-.758-1.894-7.129-1.894-7.129" transform="translate(10.405 8.954)" fill="#e45940"/>
        <path id="Trazado_129253" data-name="Trazado 129253" d="M97.5,76.574c-.648-.746-1.426.389-1.426.389s1.069-4.213,0-6.059-4.537-.875-4.537-.875S88.07,69.055,87,70.9s0,6.059,0,6.059-.777-1.134-1.426-.389,1.069,2.625,1.458,2.852c0,0,2.495,4.666,4.5,4.666s4.505-4.666,4.505-4.666c.389-.227,2.106-2.106,1.458-2.852" transform="translate(10.236 8.36)" fill="#f88667"/>
        <path id="Trazado_129254" data-name="Trazado 129254" d="M90.668,71.721s-2.625.462-2.916,1.871a5.551,5.551,0,0,0,.14,2.1,13.885,13.885,0,0,1,.224,2.323.4.4,0,0,1-.34-.059,4.775,4.775,0,0,1-.887-1.071c-.5-.73-1.215-.609-1.422-.147,0,0-.582-6.914,2.309-7.158s2.892,2.139,2.892,2.139" transform="translate(10.235 8.335)" fill="#110239"/>
        <path id="Trazado_129255" data-name="Trazado 129255" d="M91.631,71.721s2.625.462,2.916,1.871a5.551,5.551,0,0,1-.14,2.1,13.764,13.764,0,0,0-.224,2.323.4.4,0,0,0,.34-.059,4.776,4.776,0,0,0,.887-1.071c.5-.73,1.215-.609,1.422-.147,0,0,.582-6.914-2.309-7.158s-2.892,2.139-2.892,2.139" transform="translate(10.979 8.335)" fill="#110239"/>
        <path id="Trazado_129256" data-name="Trazado 129256" d="M96.349,70.213a2.115,2.115,0,0,0-1.233-1.843,7.026,7.026,0,0,0-5.913,0c-2.043,1.021-2.662,1.252-3.258.912s-.218-.681-.218-.681-1.337-.012-1.272,2.063,2.615,4.649,5.946,4.649c5.088,0,6.733-3.557,5.947-5.1" transform="translate(10.119 8.114)" fill="#110239"/>
        <path id="Trazado_129257" data-name="Trazado 129257" d="M96.477,81.1c-.245,6.4-4.233,5.737-4.233,5.737s-3.985.661-4.231-5.737c0,0-6.366,1.759-9.47,3.84A61.459,61.459,0,0,1,79.948,96.73l3.639,14.1,8.656-1.578,8.656,1.578,3.639-14.1a61.459,61.459,0,0,1,1.405-11.792c-3.1-2.081-9.468-3.84-9.468-3.84" transform="translate(9.411 9.717)" fill="#d0d1de"/>
        <path id="Trazado_129258" data-name="Trazado 129258" d="M103.854,87.916c-3.957,2.11-5.88,6.961-9.723,9.338-3.976,2.46-6.791-2.51-8.725-5.094a15.028,15.028,0,0,0-6.364-5.066,60.259,60.259,0,0,1,.848,8.916l3.639,14.1,8.656-1.06,8.656,1.06,3.639-14.1a59.883,59.883,0,0,1,.825-8.779c-.5.218-.994.441-1.452.685" transform="translate(9.471 10.436)" fill="#b8b9cd"/>
        <path id="Trazado_129259" data-name="Trazado 129259" d="M79.325,84.527s-7.215,16.943-7.3,19.278c-.165,4.52,9.719,6.348,14.227,5.518l1.834-.337S81.4,84.4,79.325,84.527" transform="translate(8.63 10.128)" fill="#d0d1de"/>
        <path id="Trazado_129260" data-name="Trazado 129260" d="M103.937,84.527s7.286,16.942,7.3,19.278c.03,4.57-9.719,6.348-14.226,5.518l-1.834-.337s6.691-24.581,8.76-24.459" transform="translate(11.404 10.128)" fill="#d0d1de"/>
        <path id="Trazado_129261" data-name="Trazado 129261" d="M81.439,89.841a12.007,12.007,0,0,1-.3,2.485c-.7,3.074-1.793,6.282-.643,9.405a50.1,50.1,0,0,0,3.553,7.028,5.746,5.746,0,0,0,1.249-.073l1.834-.337s-3.068-11.269-5.692-18.508" transform="translate(9.585 10.765)" fill="#b8b9cd"/>
        <path id="Trazado_129262" data-name="Trazado 129262" d="M99.633,108.511a11.071,11.071,0,0,0,.871-4.533c-.105-3.142-.122-6.283-.072-9.427.021-1.358.056-2.674.135-3.962-2.551,7.239-5.392,17.671-5.392,17.671l1.835.337a7.487,7.487,0,0,0,2.621-.086" transform="translate(11.404 10.854)" fill="#b8b9cd"/>
        <rect id="Rectángulo_37523" data-name="Rectángulo 37523" width="22.688" height="1.345" transform="translate(90.312 119.309)" fill="#110239"/>
        <path id="Trazado_129263" data-name="Trazado 129263" d="M107.174,92.5H77.814A1.36,1.36,0,0,0,76.5,94.265c.271,1.768,3.972,14.134,4.719,14.134h22.548c.656,0,4.448-12.366,4.719-14.134a1.36,1.36,0,0,0-1.312-1.768" transform="translate(9.163 11.083)" fill="#093962"/>
        <path id="Trazado_129264" data-name="Trazado 129264" d="M92.124,100.272a1.215,1.215,0,1,1-1.215-1.215,1.215,1.215,0,0,1,1.215,1.215" transform="translate(10.747 11.869)" fill="#fff"/>
        <path id="Trazado_129265" data-name="Trazado 129265" d="M22.363,58.487s36.764,46.376,78.6,0c-41.841-46.376-78.6,0-78.6,0" transform="translate(2.68 4.538)" fill="#072b49"/>
        <path id="Trazado_129266" data-name="Trazado 129266" d="M27.277,58.179s31.617,39.883,67.6,0c-35.982-39.883-67.6,0-67.6,0" transform="translate(3.268 4.847)" fill="#fff"/>
        <path id="Trazado_129267" data-name="Trazado 129267" d="M76.8,58.151A17.471,17.471,0,1,1,59.329,40.68,17.471,17.471,0,0,1,76.8,58.151" transform="translate(5.015 4.874)" fill="#01c7e2"/>
        <path id="Trazado_129268" data-name="Trazado 129268" d="M69.642,57.459a11,11,0,1,1-11-11,11,11,0,0,1,11,11" transform="translate(5.707 5.566)" fill="#072b49"/>
        <path id="Trazado_129269" data-name="Trazado 129269" d="M70.046,50.571a4.475,4.475,0,1,1-4.476-4.476,4.476,4.476,0,0,1,4.476,4.476" transform="translate(7.32 5.523)" fill="#fff"/>
        <path id="Trazado_129270" data-name="Trazado 129270" d="M59.21,35.2h-47.3a2.365,2.365,0,0,1-2.366-2.365V2.365A2.365,2.365,0,0,1,11.905,0h47.3a2.365,2.365,0,0,1,2.366,2.365v30.47A2.365,2.365,0,0,1,59.21,35.2" transform="translate(1.143)" fill="#e5e6ed"/>
        <rect id="Rectángulo_37524" data-name="Rectángulo 37524" width="47.305" height="29.592" transform="translate(13.048 2.804)" fill="#093962"/>
        <path id="Trazado_129271" data-name="Trazado 129271" d="M27.088,9.6V24.1L41.2,16.85Z" transform="translate(3.246 1.151)" fill="#fee734"/>
      </g>
    </g>
  </g>
</svg>
