<svg xmlns="http://www.w3.org/2000/svg" width="101" height="101" viewBox="0 0 101 101">
  <g id="Grupo_157900" data-name="Grupo 157900" transform="translate(9465 -257.754)">
    <circle id="Elipse_4936" data-name="Elipse 4936" cx="50.5" cy="50.5" r="50.5" transform="translate(-9465 257.754)" fill="#6dc5db"/>
    <g id="boca-a-boca" transform="translate(-9448.645 264.961)">
      <g id="Grupo_157127" data-name="Grupo 157127" transform="translate(20.383 38.563)">
        <path id="Trazado_129389" data-name="Trazado 129389" d="M198.924,222.973a.707.707,0,0,1,.337,1.166c-2.593,2.784-11.454,11.384-21.986,11.384s-19.393-8.6-21.986-11.384a.707.707,0,0,1,.337-1.166,85.448,85.448,0,0,1,43.3,0Z" transform="translate(-155.098 -220.185)" fill="#335995"/>
      </g>
      <g id="Grupo_157128" data-name="Grupo 157128" transform="translate(34.526 39.947)">
        <path id="Trazado_129390" data-name="Trazado 129390" d="M292.4,232.124c-1.251-.331-3.5-.88-6.452-1.4-4.382,4.2-13.033,11.174-23.231,12.372a22.384,22.384,0,0,0,8.033,1.582c10.532,0,19.393-8.6,21.986-11.384a.707.707,0,0,0-.337-1.166Z" transform="translate(-262.714 -230.721)" fill="#21386b"/>
      </g>
      <g id="Grupo_157129" data-name="Grupo 157129" transform="translate(20.883 37.06)">
        <path id="Trazado_129391" data-name="Trazado 129391" d="M180.576,215.656c8.119,0,21.909-4.051,21.674-4.113a85.547,85.547,0,0,0-43.348,0C158.667,211.6,172.457,215.656,180.576,215.656Z" transform="translate(-158.899 -208.751)" fill="#f4fbff"/>
      </g>
      <g id="Grupo_157130" data-name="Grupo 157130" transform="translate(37.802 38.506)">
        <path id="Trazado_129392" data-name="Trazado 129392" d="M314.07,221.1c-1.2-.318-3.339-.839-6.127-1.345-3.871,1.435-13.291,4.585-19.536,5.071q-.376.029-.769.048a39.311,39.311,0,0,0,4.758.339C300.515,225.211,314.3,221.16,314.07,221.1Z" transform="translate(-287.638 -219.752)" fill="#e4f6ff"/>
      </g>
      <g id="Grupo_157131" data-name="Grupo 157131" transform="translate(29.749 47.973)">
        <path id="Trazado_129393" data-name="Trazado 129393" d="M251.985,298.85a7.1,7.1,0,0,0-11.928-5.165,1.3,1.3,0,0,1-1.764,0,7.1,7.1,0,0,0-11.928,5.165Z" transform="translate(-226.365 -291.786)" fill="#da387d"/>
      </g>
      <g id="Grupo_157133" data-name="Grupo 157133" transform="translate(45.894 47.973)">
        <g id="Grupo_157132" data-name="Grupo 157132">
          <path id="Trazado_129394" data-name="Trazado 129394" d="M351.587,291.786a7.081,7.081,0,0,0-2.379.41,7.1,7.1,0,0,1,4.719,6.654h4.758A7.1,7.1,0,0,0,351.587,291.786Z" transform="translate(-349.208 -291.786)" fill="#b94029"/>
        </g>
      </g>
      <g id="Grupo_157134" data-name="Grupo 157134" transform="translate(18.817 33.051)">
        <path id="Trazado_129395" data-name="Trazado 129395" d="M190.108,185.093a28.687,28.687,0,0,0-10.06-6.086,12.59,12.59,0,0,0-11.578,1.546l-.486.343a1.84,1.84,0,0,1-2.12,0l-.486-.343a12.589,12.589,0,0,0-11.578-1.546,28.685,28.685,0,0,0-10.06,6.086,1.839,1.839,0,0,0-.468,1.887c1.371,4.233,7.478,19.662,23.652,19.662s22.281-15.429,23.652-19.662a1.838,1.838,0,0,0-.468-1.887Zm-2.8,2.887c-2.4,2.581-10.619,10.554-20.383,10.554s-17.98-7.973-20.383-10.554a.656.656,0,0,1,.313-1.081,79.218,79.218,0,0,1,40.142,0A.656.656,0,0,1,187.307,187.98Z" transform="translate(-143.181 -178.243)" fill="#dd5790"/>
      </g>
      <g id="Grupo_157136" data-name="Grupo 157136" transform="translate(39.631 33.052)">
        <g id="Grupo_157135" data-name="Grupo 157135" transform="translate(0 0)">
          <path id="Trazado_129396" data-name="Trazado 129396" d="M327.666,185.1a28.685,28.685,0,0,0-10.06-6.086,12.539,12.539,0,0,0-7.236-.416,12.515,12.515,0,0,1,1.378.416,28.687,28.687,0,0,1,10.06,6.086,1.837,1.837,0,0,1,.557,1.271c.91.207,1.65.393,2.188.535a.656.656,0,0,1,.313,1.081,41.4,41.4,0,0,1-4.885,4.438c-2.894,5.553-8.515,12.831-18.427,14.048a24.013,24.013,0,0,0,2.929.176c16.174,0,22.281-15.429,23.652-19.662A1.839,1.839,0,0,0,327.666,185.1Z" transform="translate(-301.553 -178.25)" fill="#da387d"/>
        </g>
      </g>
      <g id="Grupo_157137" data-name="Grupo 157137" transform="translate(0 11.082)">
        <path id="Trazado_129397" data-name="Trazado 129397" d="M48.621,185.211a.985.985,0,0,0,.9-1.383,21.99,21.99,0,0,1,0-17.738.984.984,0,1,0-1.8-.8,23.959,23.959,0,0,0,0,19.332A.985.985,0,0,0,48.621,185.211Z" transform="translate(-39.68 -144.518)"/>
        <path id="Trazado_129398" data-name="Trazado 129398" d="M3.321,220.275a.985.985,0,0,0,.9-1.383A26.249,26.249,0,0,1,1.969,208.2a26.721,26.721,0,0,1,.314-4.086.984.984,0,0,0-1.945-.3A28.691,28.691,0,0,0,0,208.2a28.207,28.207,0,0,0,2.42,11.487.985.985,0,0,0,.9.586Z" transform="translate(0 -177.761)"/>
        <path id="Trazado_129399" data-name="Trazado 129399" d="M11.006,155.314a.983.983,0,0,0,1.242-.629c.272-.83.589-1.656.943-2.455a.984.984,0,1,0-1.8-.8c-.38.859-.721,1.747-1.013,2.639A.984.984,0,0,0,11.006,155.314Z" transform="translate(-8.971 -132.479)"/>
        <path id="Trazado_129400" data-name="Trazado 129400" d="M96.856,189.183a.985.985,0,0,0-1.283.539,17.074,17.074,0,0,0,0,12.865.984.984,0,1,0,1.823-.744,15.106,15.106,0,0,1,0-11.377.984.984,0,0,0-.539-1.283Z" transform="translate(-81.92 -165.713)"/>
        <path id="Trazado_129401" data-name="Trazado 129401" d="M161.126,219.567a1.64,1.64,0,0,0-.781,2.7c2.374,2.549,10.913,10.868,21.1,10.868s18.729-8.318,21.1-10.868h0a1.64,1.64,0,0,0-.781-2.7,80.2,80.2,0,0,0-40.645,0Zm33.132.428a66.214,66.214,0,0,1-12.81,1.8,66.408,66.408,0,0,1-12.808-1.8,76.739,76.739,0,0,1,25.618,0Zm-22,8.857a6.112,6.112,0,0,1,7.634.553,2.288,2.288,0,0,0,3.1,0,6.105,6.105,0,0,1,7.631-.551,19.36,19.36,0,0,1-18.368,0Zm20.262-1.013a8.077,8.077,0,0,0-10.864.124.312.312,0,0,1-.424,0,8.079,8.079,0,0,0-10.865-.124,39.323,39.323,0,0,1-8.205-6.507c.486-.124,1.067-.264,1.729-.414,4.243,1.067,12.273,2.844,17.553,2.844,5.316,0,13.176-1.772,17.478-2.861.694.156,1.3.3,1.8.431A39.331,39.331,0,0,1,192.524,227.839Z" transform="translate(-138.889 -189.894)"/>
        <path id="Trazado_129402" data-name="Trazado 129402" d="M292.792,193.423a28,28,0,0,0-6.66-4.668.984.984,0,0,0-.9,1.752,25.986,25.986,0,0,1,6.186,4.328.85.85,0,0,1,.217.878c-1.442,4.453-7.343,18.98-22.716,18.98a21.571,21.571,0,0,1-7.006-1.127.984.984,0,0,0-.638,1.862,23.54,23.54,0,0,0,7.644,1.233,22.923,22.923,0,0,0,18.128-8.591,36.271,36.271,0,0,0,6.461-11.751A2.806,2.806,0,0,0,292.792,193.423Z" transform="translate(-226.362 -165.311)"/>
        <path id="Trazado_129403" data-name="Trazado 129403" d="M149.462,196.176c-7.606-4.617-10.932-13.419-11.77-16.006a.851.851,0,0,1,.217-.878,27.592,27.592,0,0,1,9.713-5.868,11.6,11.6,0,0,1,10.673,1.426l.486.343a2.83,2.83,0,0,0,3.254,0l.486-.343a11.68,11.68,0,0,1,10.113-1.615.984.984,0,1,0,.582-1.881,13.661,13.661,0,0,0-11.829,1.886l-.486.343a.857.857,0,0,1-.986,0l-.486-.343a13.571,13.571,0,0,0-12.484-1.665,29.6,29.6,0,0,0-10.407,6.3,2.807,2.807,0,0,0-.718,2.9c1.142,3.526,4.658,12.248,12.622,17.082a.984.984,0,1,0,1.021-1.683Z" transform="translate(-117.848 -149.767)"/>
        <path id="Trazado_129404" data-name="Trazado 129404" d="M128.13,22.792l.956,2.534a.984.984,0,0,0,1.842-.7l-4.8-12.731-.011-.027a1.272,1.272,0,0,0-1.181-.791h0a1.273,1.273,0,0,0-1.181.794l-.009.022-4.849,12.731a.984.984,0,1,0,1.84.7l.966-2.537Zm-3.2-8.482,2.458,6.514h-4.939Z" transform="translate(-103.211 -11.082)"/>
        <path id="Trazado_129405" data-name="Trazado 129405" d="M22.336,360.1H20.472l.922-4.433a.984.984,0,0,0-1.927-.4l-1,4.834H16.425l.922-4.433a.984.984,0,0,0-1.927-.4l-1,4.834H12.145a.984.984,0,0,0,0,1.968h1.86l-.827,3.976H10.916a.984.984,0,0,0,0,1.968H12.77l-.941,4.529a.984.984,0,0,0,1.927.4l1.025-4.929h2.036l-.941,4.529a.984.984,0,0,0,1.927.4l1.025-4.929h2.28a.984.984,0,0,0,0-1.968H19.236l.827-3.976h2.274a.984.984,0,0,0,0-1.969Zm-5.111,5.945H15.189l.827-3.976h2.036Z" transform="translate(-8.627 -309.351)"/>
        <circle id="Elipse_4870" data-name="Elipse 4870" cx="0.859" cy="0.859" r="0.859" transform="translate(18.31 57.619) rotate(-84.318)"/>
        <path id="Trazado_129406" data-name="Trazado 129406" d="M334.176,154.227a.859.859,0,1,0,.859.859A.859.859,0,0,0,334.176,154.227Z" transform="translate(-289.512 -135.415)"/>
        <path id="Trazado_129407" data-name="Trazado 129407" d="M140.056,325.731a.984.984,0,0,0-.984.984v11a.984.984,0,1,0,1.968,0v-11a.984.984,0,0,0-.984-.984Z" transform="translate(-120.795 -284.379)"/>
        <path id="Trazado_129408" data-name="Trazado 129408" d="M305.866,49.127a.984.984,0,0,0,.984-.984,2.668,2.668,0,0,1,.025-.368,2.628,2.628,0,0,1,2.6-2.26h.054a2.627,2.627,0,0,1,1.851,4.435,2.6,2.6,0,0,1-1.906.819.984.984,0,0,0-.984.984v3.777a.984.984,0,1,0,1.968,0v-2.9a4.619,4.619,0,0,0,2.349-1.324,4.559,4.559,0,0,0,1.257-3.407,4.6,4.6,0,0,0-9.142-.4,4.67,4.67,0,0,0-.044.64.984.984,0,0,0,.984.984Z" transform="translate(-264.814 -39.281)"/>
      </g>
    </g>
  </g>
</svg>
