<svg xmlns="http://www.w3.org/2000/svg" width="101" height="101" viewBox="0 0 101 101">
  <g id="Grupo_157899" data-name="Grupo 157899" transform="translate(9465 -95.754)">
    <circle id="Elipse_4935" data-name="Elipse 4935" cx="50.5" cy="50.5" r="50.5" transform="translate(-9465 95.754)" fill="#6dc5db"/>
    <g id="dialogo" transform="translate(-9448.809 112.533)">
      <path id="Trazado_129358" data-name="Trazado 129358" d="M228.017,48.078H211.078a3.177,3.177,0,0,0-3.176,3.176V61.841a3.176,3.176,0,0,0,3.176,3.176h4.234l5.293,5.293V65.016h7.411a3.176,3.176,0,0,0,3.176-3.176V51.254a3.176,3.176,0,0,0-3.176-3.176Zm0,0" transform="translate(-180.446 -41.295)" fill="#dad8db"/>
      <path id="Trazado_129359" data-name="Trazado 129359" d="M211.078,48.078a3.177,3.177,0,0,0-3.176,3.176V61.841a3.137,3.137,0,0,0,.2,1.059h11.45a6.352,6.352,0,0,0,6.352-6.352V48.078Zm0,0" transform="translate(-180.446 -41.295)" fill="#c8c5c9"/>
      <path id="Trazado_129360" data-name="Trazado 129360" d="M285.189,364.988v-4.281H274.6v4.281a3.06,3.06,0,0,1-1.923,2.84l-6.741,2.7a3.058,3.058,0,0,0-1.923,2.84v3.222h31.759v-3.222a3.058,3.058,0,0,0-1.923-2.84l-6.741-2.7a3.059,3.059,0,0,1-1.923-2.84Zm0,0" transform="translate(-229.148 -312.636)" fill="#ecbd83"/>
      <path id="Trazado_129361" data-name="Trazado 129361" d="M293.852,424.669,289.9,423.09a11.831,11.831,0,0,1-20.02,0l-3.947,1.579a3.058,3.058,0,0,0-1.923,2.839v3.223h31.759v-3.222a3.058,3.058,0,0,0-1.923-2.84Zm0,0" transform="translate(-229.148 -366.781)" fill="#b3e59f"/>
      <path id="Trazado_129362" data-name="Trazado 129362" d="M344.176,360.707v3.861a10.5,10.5,0,0,0,10.587,0v-3.861Zm0,0" transform="translate(-298.722 -312.636)" fill="#e2a975"/>
      <path id="Trazado_129363" data-name="Trazado 129363" d="M328.6,273.438a8.469,8.469,0,0,1-8.469-8.469V256.5h16.938v8.469a8.469,8.469,0,0,1-8.469,8.469Zm0,0" transform="translate(-277.851 -222.191)" fill="#f6d190"/>
      <path id="Trazado_129364" data-name="Trazado 129364" d="M337.067,259.676V256.5H320.129v8.469a8.452,8.452,0,0,0,10.057,8.315,8.468,8.468,0,0,1-6.881-8.315v-5.293Zm0,0" transform="translate(-277.851 -222.191)" fill="#ecbd83"/>
      <path id="Trazado_129365" data-name="Trazado 129365" d="M338.125,211.578v-2.117a1.059,1.059,0,0,0-1.059-1.059H326.48a3.176,3.176,0,0,0-3.176,3.176,3.176,3.176,0,0,0-3.176,3.176v4.234h1.059c1.755,0,3.176-2.48,3.176-4.234h12.7v-.824A3.156,3.156,0,0,0,338.125,211.578Zm0,0" transform="translate(-277.851 -180.445)" fill="#6e4848"/>
      <path id="Trazado_129366" data-name="Trazado 129366" d="M371.856,208.4H361.27a3.135,3.135,0,0,0-1.059.194,4.04,4.04,0,0,0,4.04,4.04h8.461a3.082,3.082,0,0,0,.2-1.059V209.46A1.059,1.059,0,0,0,371.856,208.4Zm0,0" transform="translate(-312.64 -180.445)" fill="#8a6055"/>
      <path id="Trazado_129367" data-name="Trazado 129367" d="M266.133,435.3v-.847l-.2.078a3.058,3.058,0,0,0-1.922,2.839V440.6h31.759V438.48H269.309a3.176,3.176,0,0,1-3.176-3.176Zm0,0" transform="translate(-229.148 -376.647)" fill="#95d6a4"/>
      <path id="Trazado_129368" data-name="Trazado 129368" d="M35.6,227.458v-7.024A11.9,11.9,0,0,0,24.173,208.4,11.645,11.645,0,0,0,12.31,220.047v7.411a17.569,17.569,0,0,1-1.6,7.521,1.057,1.057,0,0,0,.51,1.421l12.738,5.879L36.693,236.4a1.057,1.057,0,0,0,.509-1.421,17.569,17.569,0,0,1-1.6-7.521Zm0,0" transform="translate(-9.202 -180.446)" fill="#6e4848"/>
      <path id="Trazado_129369" data-name="Trazado 129369" d="M33.18,378.458l-6.453-2.978a2.117,2.117,0,0,1-1.23-1.922v-4.835H17.027v4.835a2.118,2.118,0,0,1-1.23,1.922l-6.453,2.978A3.176,3.176,0,0,0,7.5,381.342v2.2H35.024v-2.2a3.176,3.176,0,0,0-1.845-2.884Zm0,0" transform="translate(-6.509 -319.594)" fill="#ecbd83"/>
      <path id="Trazado_129370" data-name="Trazado 129370" d="M79.645,372.641a10.207,10.207,0,0,0,3.534.889c.235.015.469.023.7.023a10.518,10.518,0,0,0,4.234-.89v-3.94H79.645Zm0,0" transform="translate(-69.126 -319.594)" fill="#e2a975"/>
      <path id="Trazado_129371" data-name="Trazado 129371" d="M62.873,264.137a22.92,22.92,0,0,1-9.271-4.292,1.052,1.052,0,0,0-1.435.029L48.2,263.843a2.117,2.117,0,0,0-.621,1.5v2.009a8.662,8.662,0,0,0,7.906,8.741,8.47,8.47,0,0,0,9.033-8.451V266.2a2.117,2.117,0,0,0-1.643-2.063Zm0,0" transform="translate(-41.294 -224.861)" fill="#f6d190"/>
      <path id="Trazado_129372" data-name="Trazado 129372" d="M53.687,262.5a25.049,25.049,0,0,0,10.83,3.875v-.222a2.115,2.115,0,0,0-1.633-2.06,22.9,22.9,0,0,1-9.306-4.316,1.032,1.032,0,0,0-1.4.045L48.2,263.8a2.118,2.118,0,0,0-.621,1.5v2.028a8.753,8.753,0,0,0,5.526,8.193,8.1,8.1,0,0,0,4.515.391,8.469,8.469,0,0,1-6.864-8.313v-2.481a2.117,2.117,0,0,1,.62-1.5l.981-.981a1.052,1.052,0,0,1,1.331-.133Zm0,0" transform="translate(-41.294 -224.817)" fill="#ecbd83"/>
      <path id="Trazado_129373" data-name="Trazado 129373" d="M33.18,424.7,27.331,422l-3.178,2.968a4.234,4.234,0,0,1-5.781,0L15.194,422l-5.849,2.7A3.175,3.175,0,0,0,7.5,427.58v2.2H35.024v-2.2a3.176,3.176,0,0,0-1.845-2.884Zm0,0" transform="translate(-6.509 -365.832)" fill="#a4ccff"/>
      <path id="Trazado_129374" data-name="Trazado 129374" d="M149.974,8H130.918a3.176,3.176,0,0,0-3.176,3.176V21.762a3.176,3.176,0,0,0,3.176,3.176h1.059V31.29l6.352-6.352h11.645a3.176,3.176,0,0,0,3.176-3.176V11.176A3.176,3.176,0,0,0,149.974,8Zm0,0" transform="translate(-110.872 -6.509)" fill="#ffe07d"/>
      <path id="Trazado_129375" data-name="Trazado 129375" d="M9.617,441.488l-.272.125A3.177,3.177,0,0,0,7.5,444.5v2.2H35.025v-2.118H11.735a2.117,2.117,0,0,1-2.118-2.117Zm0,0" transform="translate(-6.509 -382.749)" fill="#8bb3ea"/>
      <path id="Trazado_129376" data-name="Trazado 129376" d="M76.422,209.385c3.327,4.826,9.2,8.546,15.247,8.546l.794,0A11.793,11.793,0,0,0,81.3,208.4a11.594,11.594,0,0,0-4.878.98Zm0,0" transform="translate(-66.329 -180.446)" fill="#8a6055"/>
      <path id="Trazado_129377" data-name="Trazado 129377" d="M130.918,8a3.176,3.176,0,0,0-3.176,3.176V21.762a3.176,3.176,0,0,0,3.176,3.176h1.059V31.29l6.352-6.352h11.645a3.176,3.176,0,0,0,3.176-3.176H134.094a3.176,3.176,0,0,1-3.176-3.176Zm0,0" transform="translate(-110.872 -6.509)" fill="#ffd064"/>
      <path id="Trazado_129378" data-name="Trazado 129378" d="M287.637,230.875l-7.259-2.9a1.122,1.122,0,0,1-.708-1.046v-3.5a9.438,9.438,0,0,0,3.176-7.063v-8.52a4.15,4.15,0,0,0,1.059-2.772v-3.176a.99.99,0,0,0-.991-.99H271.269a4.175,4.175,0,0,0-4.07,3.273,4.173,4.173,0,0,0-3.272,4.07v8.116a9.438,9.438,0,0,0,3.176,7.063v3.5a1.122,1.122,0,0,1-.708,1.046l-7.259,2.9a4.147,4.147,0,0,0-2.619,3.869v3.143a.99.99,0,1,0,1.981,0v-3.143a2.175,2.175,0,0,1,1.374-2.029l2.8-1.12a13.692,13.692,0,0,0,21.427,0l2.8,1.121a2.176,2.176,0,0,1,1.374,2.029v3.143a.99.99,0,1,0,1.981,0v-3.143A4.147,4.147,0,0,0,287.637,230.875Zm-21.672-13.6a4.166,4.166,0,1,0-.058-5.291v-3.742a2.188,2.188,0,0,1,2.185-2.186.99.99,0,0,0,.99-.99,2.188,2.188,0,0,1,2.186-2.185h10.654v2.185a2.188,2.188,0,0,1-2.185,2.186H270.21a.99.99,0,0,0,0,1.981h9.528a4.165,4.165,0,0,0,1.127-.155v2.906a4.167,4.167,0,1,0-.058,5.291,7.476,7.476,0,0,1-14.841,0Zm1-2.681a2.185,2.185,0,1,1,2.185,2.186A2.188,2.188,0,0,1,266.966,214.6Zm12.84,0a2.186,2.186,0,1,1-2.185-2.185A2.188,2.188,0,0,1,279.806,214.6Zm-6.42,20.183a11.77,11.77,0,0,1-8.778-3.959l2.522-1.009a3.093,3.093,0,0,0,1.953-2.886v-2.144a9.425,9.425,0,0,0,8.606,0v2.144a3.093,3.093,0,0,0,1.954,2.886l2.522,1.009A11.765,11.765,0,0,1,273.386,234.778Zm0,0" transform="translate(-222.639 -173.936)"/>
      <path id="Trazado_129379" data-name="Trazado 129379" d="M346.672,291.127v-1.059a.99.99,0,0,0-1.981,0v1.059a.99.99,0,0,0,1.981,0Zm0,0" transform="translate(-299.169 -250.467)"/>
      <path id="Trazado_129380" data-name="Trazado 129380" d="M408.824,290.068v1.059a.99.99,0,1,0,1.981,0v-1.059a.99.99,0,0,0-1.981,0Zm0,0" transform="translate(-354.833 -250.467)"/>
      <path id="Trazado_129381" data-name="Trazado 129381" d="M361.106,338.946a4.355,4.355,0,0,0,5.457,0,.99.99,0,1,0-1.222-1.559,2.376,2.376,0,0,1-3.013,0,.99.99,0,0,0-1.222,1.559Zm0,0" transform="translate(-313.087 -292.213)"/>
      <path id="Trazado_129382" data-name="Trazado 129382" d="M27.086,231.9l-.688-.318,2.561-1.28a.991.991,0,0,0,.381-1.436,15.365,15.365,0,0,1-1.951-7.92v-7.411a12.636,12.636,0,0,0-25.271,0v7.411a15.555,15.555,0,0,1-1.951,7.92A.991.991,0,0,0,.548,230.3l2.561,1.28-.688.318A4.178,4.178,0,0,0,0,235.684v2.2a.99.99,0,0,0,1.981,0v-2.2a2.192,2.192,0,0,1,1.27-1.985l5.244-2.42,2.691,2.514a5.24,5.24,0,0,0,7.134,0l2.691-2.514,5.244,2.42a2.193,2.193,0,0,1,1.27,1.985v2.2a.99.99,0,0,0,1.981,0v-2.2a4.18,4.18,0,0,0-2.42-3.783Zm-24.732-2.91A18.466,18.466,0,0,0,4.1,220.948v-7.411a10.655,10.655,0,0,1,21.309,0v7.411a18.466,18.466,0,0,0,1.744,8.044l-3.058,1.529-3.462-1.6a1.131,1.131,0,0,1-.655-1.023v-3.305a9.458,9.458,0,0,0,4.235-7.881v-1.439a3.1,3.1,0,0,0-2.41-3.028c-2.35-.549-6.713-1.891-9.525-4.7a.99.99,0,1,0-1.4,1.4c3.16,3.16,7.919,4.634,10.475,5.231a1.128,1.128,0,0,1,.88,1.1v1.439a7.479,7.479,0,1,1-14.957,0v-2.3a1.119,1.119,0,0,1,.33-.8l1.5-1.5a.99.99,0,0,0-1.4-1.4l-1.5,1.5a3.085,3.085,0,0,0-.91,2.2v2.3a9.457,9.457,0,0,0,4.234,7.881V227.9a1.13,1.13,0,0,1-.655,1.023l-3.462,1.6Zm14.613,3.354a3.253,3.253,0,0,1-4.429,0l-2.179-2.036a3.118,3.118,0,0,0,1.149-2.41v-2.3a9.468,9.468,0,0,0,6.488,0v2.3a3.116,3.116,0,0,0,1.15,2.41Zm0,0" transform="translate(0 -173.936)"/>
      <path id="Trazado_129383" data-name="Trazado 129383" d="M73.135,300.134a.991.991,0,0,0,.99-.99v-1.059a.99.99,0,1,0-1.981,0v1.059A.991.991,0,0,0,73.135,300.134Zm0,0" transform="translate(-62.617 -257.424)"/>
      <path id="Trazado_129384" data-name="Trazado 129384" d="M137.263,300.134a.991.991,0,0,0,.99-.99v-1.059a.99.99,0,1,0-1.981,0v1.059A.991.991,0,0,0,137.263,300.134Zm0,0" transform="translate(-118.276 -257.424)"/>
      <path id="Trazado_129385" data-name="Trazado 129385" d="M88.624,338.993a4.873,4.873,0,0,0,5.322,0,.99.99,0,1,0-1.088-1.655,2.892,2.892,0,0,1-3.146,0,.99.99,0,0,0-1.088,1.655Zm0,0" transform="translate(-76.532 -292.212)"/>
      <path id="Trazado_129386" data-name="Trazado 129386" d="M143.822,29.716a.991.991,0,0,0,1.691-.7v-4.3h6.42a4.171,4.171,0,0,0,4.166-4.166V9.96a4.171,4.171,0,0,0-4.166-4.167h-4.3V4.666A4.171,4.171,0,0,0,143.464.5H124.408a4.171,4.171,0,0,0-4.166,4.166V15.253a4.171,4.171,0,0,0,4.166,4.167h.069V24.78a.99.99,0,0,0,1.691.7l4.671-4.67a4.171,4.171,0,0,0,4.157,3.9h3.824ZM125.468,17.439h-1.059a2.188,2.188,0,0,1-2.185-2.186V4.666a2.188,2.188,0,0,1,2.185-2.185h19.056a2.188,2.188,0,0,1,2.185,2.185V15.253a2.188,2.188,0,0,1-2.185,2.186H131.819a.99.99,0,0,0-.7.29l-4.661,4.661v-3.96A.99.99,0,0,0,125.468,17.439Zm7.342,3.108V19.42h10.654a4.171,4.171,0,0,0,4.167-4.167V7.774h4.3a2.188,2.188,0,0,1,2.185,2.186V20.546a2.188,2.188,0,0,1-2.185,2.185h-7.411a.99.99,0,0,0-.99.99v2.9l-3.6-3.6a.989.989,0,0,0-.7-.29H135a2.188,2.188,0,0,1-2.186-2.185Zm0,0" transform="translate(-104.362)"/>
      <path id="Trazado_129387" data-name="Trazado 129387" d="M169.33,50.575h12.7a.99.99,0,0,0,0-1.981h-12.7a.99.99,0,0,0,0,1.981Zm0,0" transform="translate(-146.108 -41.742)"/>
      <path id="Trazado_129388" data-name="Trazado 129388" d="M169.33,82.641h12.7a.99.99,0,0,0,0-1.981h-12.7a.99.99,0,0,0,0,1.981Zm0,0" transform="translate(-146.108 -69.574)"/>
    </g>
  </g>
</svg>
