<svg xmlns="http://www.w3.org/2000/svg" width="101" height="101" viewBox="0 0 101 101">
  <g id="Grupo_157903" data-name="Grupo 157903" transform="translate(9465 -742.754)">
    <circle id="Elipse_4939" data-name="Elipse 4939" cx="50.5" cy="50.5" r="50.5" transform="translate(-9465 742.754)" fill="#6dc5db"/>
    <g id="medios-de-comunicacion-en-masa" transform="translate(-9449 760.754)">
      <path id="Trazado_129486" data-name="Trazado 129486" d="M36.6,12.4A4.4,4.4,0,0,0,32.2,8H12.4A4.4,4.4,0,0,0,8,12.4v9.9H36.6ZM16.8,17.9l5.5-5.5Zm7.7,0L30,12.4Z" transform="translate(-6.9 -6.9)" fill="#4bdddd"/>
      <path id="Trazado_129487" data-name="Trazado 129487" d="M12.4,117.5H32.2a4.4,4.4,0,0,0,4.4-4.4V112H8v1.1A4.4,4.4,0,0,0,12.4,117.5Z" transform="translate(-6.9 -96.6)" fill="#406af2"/>
      <path id="Trazado_129488" data-name="Trazado 129488" d="M80,157.5h8.8L86.6,152H82.2Z" transform="translate(-69 -131.1)" fill="#385ed6"/>
      <path id="Trazado_129489" data-name="Trazado 129489" d="M360,55.4h15.4V40H360Zm12.1-12.1v0Zm0,4.4v0Z" transform="translate(-310.5 -34.5)" fill="#4bdddd"/>
      <g id="Grupo_157182" data-name="Grupo 157182" transform="translate(49.5 1.1)">
        <path id="Trazado_129490" data-name="Trazado 129490" d="M360,154.2a2.2,2.2,0,0,0,2.2,2.2h11a2.2,2.2,0,0,0,2.2-2.2V152H360Z" transform="translate(-360 -132.2)" fill="#406af2"/>
        <path id="Trazado_129491" data-name="Trazado 129491" d="M373.2,8h-11a2.2,2.2,0,0,0-2.2,2.2v2.2h15.4V10.2A2.2,2.2,0,0,0,373.2,8Z" transform="translate(-360 -8)" fill="#406af2"/>
      </g>
      <path id="Trazado_129492" data-name="Trazado 129492" d="M10.2,347.8H34.4a2.2,2.2,0,0,0,2.2-2.2V330.2a2.2,2.2,0,0,0-2.2-2.2H10.2A2.2,2.2,0,0,0,8,330.2v15.4A2.2,2.2,0,0,0,10.2,347.8Zm23.1-15.4h0Zm0,6.6h0Zm0,4.4h0Zm-20.9-11H26.7v11H12.4Z" transform="translate(-6.9 -282.9)" fill="#ffc931"/>
      <rect id="Rectángulo_37559" data-name="Rectángulo 37559" width="14" height="11" transform="translate(6 49)" fill="#4bdddd"/>
      <g id="Grupo_157183" data-name="Grupo 157183" transform="translate(9.9 40.7)">
        <path id="Trazado_129493" data-name="Trazado 129493" d="M78.6,299.3a3.3,3.3,0,0,0-6.6,0v1.1h6.6Z" transform="translate(-72 -296)" fill="#b139d8"/>
        <path id="Trazado_129494" data-name="Trazado 129494" d="M290.4,344H266.2a2.2,2.2,0,0,0-2.2,2.2v13.2a2.2,2.2,0,0,0,2.2,2.2h24.2a2.2,2.2,0,0,0,2.2-2.2V346.2A2.2,2.2,0,0,0,290.4,344Zm-23.1,13.2h0Zm0-4.4h0Zm0-4.4h0Zm4.4,8.8h0Zm0-4.4h0Zm0-4.4h0Zm4.4,8.8h0Zm0-4.4h0Zm0-4.4h0Zm5.5,4.4h0Zm0-4.4h0Z" transform="translate(-237.6 -337.4)" fill="#b139d8"/>
      </g>
      <circle id="Elipse_4879" data-name="Elipse 4879" cx="2.5" cy="2.5" r="2.5" transform="translate(60 35)" fill="#ffc931"/>
      <g id="Grupo_157184" data-name="Grupo 157184">
        <path id="Trazado_129495" data-name="Trazado 129495" d="M5.5,22h6.075l-1.32,3.3H7.7v2.2H23.1V25.3H20.545L19.225,22H25.3a5.506,5.506,0,0,0,5.5-5.5V5.5A5.506,5.506,0,0,0,25.3,0H5.5A5.506,5.506,0,0,0,0,5.5v11A5.506,5.506,0,0,0,5.5,22Zm12.675,3.3H12.625l1.32-3.3h2.911ZM25.3,19.8H5.5a3.3,3.3,0,0,1-3.3-3.3H28.6A3.3,3.3,0,0,1,25.3,19.8ZM5.5,2.2H25.3a3.3,3.3,0,0,1,3.3,3.3v8.8H2.2V5.5A3.3,3.3,0,0,1,5.5,2.2Z"/>
        <path id="Trazado_129496" data-name="Trazado 129496" d="M366.3,0h-11A3.3,3.3,0,0,0,352,3.3V23.1a3.3,3.3,0,0,0,3.3,3.3h11a3.3,3.3,0,0,0,3.3-3.3V3.3A3.3,3.3,0,0,0,366.3,0Zm-11,2.2h11a1.1,1.1,0,0,1,1.1,1.1V4.4H354.2V3.3A1.1,1.1,0,0,1,355.3,2.2Zm12.1,4.4V19.8H354.2V6.6Zm-1.1,17.6h-11a1.1,1.1,0,0,1-1.1-1.1V22h13.2v1.1A1.1,1.1,0,0,1,366.3,24.2Z" transform="translate(-303.6)"/>
        <path id="Trazado_129497" data-name="Trazado 129497" d="M3.3,254.322H27.5a3.3,3.3,0,0,0,3.3-3.3v-15.4a3.3,3.3,0,0,0-3.3-3.3H17.6a4.386,4.386,0,0,0-2.3-3.843l8.579-8.579-1.555-1.555L13.2,227.466l-3.622-3.622L8.022,225.4l3.079,3.079a4.386,4.386,0,0,0-2.3,3.843H3.3a3.3,3.3,0,0,0-3.3,3.3v15.4A3.3,3.3,0,0,0,3.3,254.322Zm9.9-24.2a2.2,2.2,0,0,1,2.2,2.2H11A2.2,2.2,0,0,1,13.2,230.122Zm-11,5.5a1.1,1.1,0,0,1,1.1-1.1H27.5a1.1,1.1,0,0,1,1.1,1.1v15.4a1.1,1.1,0,0,1-1.1,1.1H3.3a1.1,1.1,0,0,1-1.1-1.1Z" transform="translate(0 -188.322)"/>
        <path id="Trazado_129498" data-name="Trazado 129498" d="M33.1,365.2H47.4a1.1,1.1,0,0,0,1.1-1.1v-11a1.1,1.1,0,0,0-1.1-1.1H33.1a1.1,1.1,0,0,0-1.1,1.1v11A1.1,1.1,0,0,0,33.1,365.2Zm1.1-11H46.3V363H34.2Z" transform="translate(-27.6 -303.6)"/>
        <rect id="Rectángulo_37560" data-name="Rectángulo 37560" width="2" height="2" transform="translate(24 48)"/>
        <rect id="Rectángulo_37561" data-name="Rectángulo 37561" width="3" height="3" transform="translate(23 55)"/>
        <rect id="Rectángulo_37562" data-name="Rectángulo 37562" width="3" height="2" transform="translate(23 59)"/>
        <rect id="Rectángulo_37563" data-name="Rectángulo 37563" width="7" height="3" transform="translate(54 50)"/>
        <rect id="Rectángulo_37564" data-name="Rectángulo 37564" width="7" height="3" transform="translate(54 55)"/>
        <rect id="Rectángulo_37565" data-name="Rectángulo 37565" width="2" height="3" transform="translate(40 50)"/>
        <rect id="Rectángulo_37566" data-name="Rectángulo 37566" width="2" height="3" transform="translate(44 50)"/>
        <rect id="Rectángulo_37567" data-name="Rectángulo 37567" width="2" height="3" transform="translate(48 50)"/>
        <rect id="Rectángulo_37568" data-name="Rectángulo 37568" width="2" height="3" transform="translate(40 55)"/>
        <rect id="Rectángulo_37569" data-name="Rectángulo 37569" width="2" height="3" transform="translate(44 55)"/>
        <rect id="Rectángulo_37570" data-name="Rectángulo 37570" width="2" height="3" transform="translate(48 55)"/>
        <rect id="Rectángulo_37571" data-name="Rectángulo 37571" width="2" height="2" transform="translate(40 59)"/>
        <rect id="Rectángulo_37572" data-name="Rectángulo 37572" width="2" height="2" transform="translate(44 59)"/>
        <rect id="Rectángulo_37573" data-name="Rectángulo 37573" width="2" height="2" transform="translate(48 59)"/>
        <path id="Trazado_129499" data-name="Trazado 129499" d="M283.5,254.6a3.3,3.3,0,1,0-3.3-3.3,3.137,3.137,0,0,0,.036.354l-20.06,8.446H259.3a3.3,3.3,0,0,0-3.3,3.3v13.2a3.3,3.3,0,0,0,3.3,3.3h24.2a3.3,3.3,0,0,0,3.3-3.3V263.4a3.3,3.3,0,0,0-3.3-3.3H265.848l15.334-6.456A3.288,3.288,0,0,0,283.5,254.6Zm1.1,8.8v13.2a1.1,1.1,0,0,1-1.1,1.1H259.3a1.1,1.1,0,0,1-1.1-1.1V263.4a1.1,1.1,0,0,1,1.1-1.1h24.2A1.1,1.1,0,0,1,284.6,263.4Zm-1.1-13.2a1.1,1.1,0,1,1-1.1,1.1A1.1,1.1,0,0,1,283.5,250.2Z" transform="translate(-220.8 -213.9)"/>
        <path id="Trazado_129500" data-name="Trazado 129500" d="M242.721,226.265a7.695,7.695,0,0,0-10.889,0l1.555,1.555a5.5,5.5,0,0,1,7.778,0Z" transform="translate(-199.955 -193.207)"/>
        <path id="Trazado_129501" data-name="Trazado 129501" d="M226.32,195.594a12.112,12.112,0,0,0-17.112,0l1.555,1.555a9.913,9.913,0,0,1,14,0Z" transform="translate(-180.442 -165.647)"/>
        <path id="Trazado_129502" data-name="Trazado 129502" d="M254.464,256.993l1.555,1.555a1.1,1.1,0,0,1,1.556,0l1.555-1.555A3.3,3.3,0,0,0,254.464,256.993Z" transform="translate(-219.475 -220.824)"/>
        <rect id="Rectángulo_37574" data-name="Rectángulo 37574" width="7.777" height="2.2" transform="translate(16.176 6.279) rotate(135)"/>
        <rect id="Rectángulo_37575" data-name="Rectángulo 37575" width="7.777" height="2.2" transform="translate(23.877 6.279) rotate(135)"/>
        <rect id="Rectángulo_37576" data-name="Rectángulo 37576" width="2" height="5" transform="translate(60 13)"/>
        <rect id="Rectángulo_37577" data-name="Rectángulo 37577" width="2" height="3" transform="translate(60 8)"/>
      </g>
    </g>
  </g>
</svg>
