<svg xmlns="http://www.w3.org/2000/svg" width="101" height="101" viewBox="0 0 101 101">
  <g id="Grupo_157896" data-name="Grupo 157896" transform="translate(-750 -11473.754)">
    <circle id="Elipse_4926" data-name="Elipse 4926" cx="50.5" cy="50.5" r="50.5" transform="translate(750 11473.754)" fill="#6dc5db"/>
    <g id="chat" transform="translate(768.856 11492.836)">
      <path id="Trazado_129303" data-name="Trazado 129303" d="M271.877,36.137c-8.239,0-14.916,4.355-14.916,12.756a14.918,14.918,0,1,0,29.831,0C286.791,40.492,280.114,36.137,271.877,36.137Zm0,0" transform="translate(-225.425 -31.702)" fill="#fbc4ac"/>
      <path id="Trazado_129304" data-name="Trazado 129304" d="M259.91,31.347A15.1,15.1,0,0,1,273.353,16.21q-.726-.073-1.472-.074a15.213,15.213,0,0,0,0,30.421q.745,0,1.472-.074A15.1,15.1,0,0,1,259.91,31.347Zm0,0" transform="translate(-225.428 -14.156)" fill="#e3b098"/>
      <path id="Trazado_129305" data-name="Trazado 129305" d="M430.225,171.415h-2.106a.92.92,0,1,1,0-1.841h2.106a.92.92,0,1,1,0,1.841Zm0,0" transform="translate(-374.77 -148.763)" fill="#f98084"/>
      <path id="Trazado_129306" data-name="Trazado 129306" d="M300.659,171.415h-2.106a.92.92,0,0,1,0-1.841h2.106a.92.92,0,0,1,0,1.841Zm0,0" transform="translate(-261.105 -148.763)" fill="#f98084"/>
      <path id="Trazado_129307" data-name="Trazado 129307" d="M286.078,19.114c-1.024-12.47-6.052-10.55-14.2-10.55-6.16,0-9.119-.617-10.379-1.01a1.08,1.08,0,0,0-1.286.54c-1.006,1.974-3.251,7.316-3.251,15.68,0,0,3.567-6.424,14.916-6.424,5.279,0,4.838,1.763,14.2,1.763Zm0,0" transform="translate(-225.425 -6.584)" fill="#c86d5c"/>
      <path id="Trazado_129308" data-name="Trazado 129308" d="M263.157,8.094a1.094,1.094,0,0,1,.079-.129,14.894,14.894,0,0,1-1.738-.411,1.08,1.08,0,0,0-1.286.54c-1.006,1.974-3.251,7.316-3.251,15.68a10.809,10.809,0,0,1,3.052-3.106,33.084,33.084,0,0,1,3.144-12.575Zm0,0" transform="translate(-225.424 -6.584)" fill="#ad4f3d"/>
      <path id="Trazado_129309" data-name="Trazado 129309" d="M7.59,375.762v9.805a4.794,4.794,0,0,0,4.265,4.765l7.048.784Zm0,0" transform="translate(-6.658 -329.646)" fill="#3a484a"/>
      <path id="Trazado_129310" data-name="Trazado 129310" d="M169.61,375.762v9.805a4.8,4.8,0,0,1-4.265,4.765l-7.048.784Zm0,0" transform="translate(-138.87 -329.646)" fill="#3a484a"/>
      <path id="Trazado_129311" data-name="Trazado 129311" d="M37.32,293.446h0L22.085,281.93,7.513,293.447h0c-.007.2-.011.392-.011.589a15.065,15.065,0,0,0,14.915,15.211,15.065,15.065,0,0,0,14.915-15.211c0-.2,0-.393-.011-.589Zm0,0" transform="translate(-6.58 -247.33)" fill="#fbc4ac"/>
      <path id="Trazado_129312" data-name="Trazado 129312" d="M9.978,371.813a15.5,15.5,0,0,1-2.466.486h0c-.007.2-.011.391-.011.588A15.065,15.065,0,0,0,22.415,388.1c.426,0,.847-.019,1.263-.055-7.407-.677-13.29-7.609-13.7-16.229Zm0,0" transform="translate(-6.579 -326.182)" fill="#e3b098"/>
      <path id="Trazado_129313" data-name="Trazado 129313" d="M51.2,411.9H49.092a.92.92,0,0,1,0-1.841H51.2a.92.92,0,0,1,0,1.841Zm0,0" transform="translate(-42.26 -359.734)" fill="#f98084"/>
      <path id="Trazado_129314" data-name="Trazado 129314" d="M180.765,411.9h-2.106a.92.92,0,1,1,0-1.841h2.106a.92.92,0,1,1,0,1.841Zm0,0" transform="translate(-155.925 -359.734)" fill="#f98084"/>
      <path id="Trazado_129315" data-name="Trazado 129315" d="M7.59,271.246h0c8-.885,14.9-8.617,14.9-8.617s6.9,7.732,14.9,8.617h0a15.051,15.051,0,0,0-14.9-14.621,15.051,15.051,0,0,0-14.9,14.621Zm0,0" transform="translate(-6.658 -225.13)" fill="#3a484a"/>
      <path id="Trazado_129316" data-name="Trazado 129316" d="M23.783,256.682c-.425-.037-.854-.057-1.289-.057a15.051,15.051,0,0,0-14.9,14.621h0a13.926,13.926,0,0,0,2.466-.486,15.24,15.24,0,0,1,13.725-14.08Zm0,0" transform="translate(-6.658 -225.131)" fill="#323e40"/>
      <path id="Trazado_129317" data-name="Trazado 129317" d="M31.652,68.211V59.017a5.947,5.947,0,0,0-5.947-5.947H13.448A5.947,5.947,0,0,0,7.5,59.017v8.4a5.947,5.947,0,0,0,5.947,5.947H34.5Zm0,0" transform="translate(-6.58 -46.557)" fill="#1169e3"/>
      <path id="Trazado_129318" data-name="Trazado 129318" d="M282.868,313.016v-9.194a5.947,5.947,0,0,1,5.947-5.947h12.258a5.947,5.947,0,0,1,5.947,5.947v8.4a5.947,5.947,0,0,1-5.947,5.947H280.019Zm0,0" transform="translate(-245.653 -261.318)" fill="#fee734"/>
      <path id="Trazado_129319" data-name="Trazado 129319" d="M436.7,141.856a.92.92,0,0,0,.92-.92V139.39a.92.92,0,1,0-1.841,0v1.546A.92.92,0,0,0,436.7,141.856Zm0,0" transform="translate(-382.295 -121.476)"/>
      <path id="Trazado_129320" data-name="Trazado 129320" d="M307.127,141.856a.92.92,0,0,0,.92-.92V139.39a.92.92,0,1,0-1.841,0v1.546A.92.92,0,0,0,307.127,141.856Zm0,0" transform="translate(-268.627 -121.476)"/>
      <path id="Trazado_129321" data-name="Trazado 129321" d="M363.777,163.968a.92.92,0,0,0-1.3.087,1,1,0,0,1-1.458,0,.921.921,0,0,0-1.386,1.212,2.843,2.843,0,0,0,4.23,0A.921.921,0,0,0,363.777,163.968Zm0,0" transform="translate(-315.298 -143.646)"/>
      <path id="Trazado_129322" data-name="Trazado 129322" d="M57.67,382.336a.921.921,0,0,0,.92-.92V379.87a.92.92,0,1,0-1.841,0v1.546A.92.92,0,0,0,57.67,382.336Zm0,0" transform="translate(-49.785 -332.442)"/>
      <path id="Trazado_129323" data-name="Trazado 129323" d="M187.236,382.336a.921.921,0,0,0,.92-.92V379.87a.92.92,0,1,0-1.841,0v1.546A.921.921,0,0,0,187.236,382.336Zm0,0" transform="translate(-163.45 -332.442)"/>
      <path id="Trazado_129324" data-name="Trazado 129324" d="M111.559,404.539a.921.921,0,0,0-1.386,1.211,2.842,2.842,0,0,0,4.23,0,.92.92,0,1,0-1.386-1.211,1,1,0,0,1-1.458,0Zm0,0" transform="translate(-96.452 -354.615)"/>
      <path id="Trazado_129325" data-name="Trazado 129325" d="M6.868,67.711H27.921a.93.93,0,0,0,.806-1.366L25.993,61.4V52.441a6.875,6.875,0,0,0-6.867-6.867H6.868A6.875,6.875,0,0,0,0,52.441v8.4a6.876,6.876,0,0,0,6.867,6.867ZM1.841,52.441a5.032,5.032,0,0,1,5.027-5.027H19.126a5.032,5.032,0,0,1,5.027,5.027v9.194a.916.916,0,0,0,.115.445l2.094,3.789H6.868a5.033,5.033,0,0,1-5.027-5.027Zm0,0" transform="translate(0 -39.981)"/>
      <path id="Trazado_129326" data-name="Trazado 129326" d="M47.01,95.872H59.85a.92.92,0,1,0,0-1.841H47.01a.92.92,0,1,0,0,1.841Zm0,0" transform="translate(-40.433 -82.491)"/>
      <path id="Trazado_129327" data-name="Trazado 129327" d="M47.01,130.1H59.85a.92.92,0,0,0,0-1.841H47.01a.92.92,0,0,0,0,1.841Zm0,0" transform="translate(-40.433 -112.521)"/>
      <path id="Trazado_129328" data-name="Trazado 129328" d="M47.01,164.333h8.007a.92.92,0,0,0,0-1.841H47.01a.92.92,0,0,0,0,1.841Zm0,0" transform="translate(-40.433 -142.55)"/>
      <path id="Trazado_129329" data-name="Trazado 129329" d="M273.464,312.512h21.053a6.875,6.875,0,0,0,6.867-6.867v-8.4a6.875,6.875,0,0,0-6.867-6.867H282.26a6.876,6.876,0,0,0-6.867,6.867V306.2l-2.733,4.947a.93.93,0,0,0,.805,1.365Zm3.654-5.63a.922.922,0,0,0,.115-.445v-9.194a5.032,5.032,0,0,1,5.027-5.027h12.258a5.032,5.032,0,0,1,5.027,5.027v8.4a5.033,5.033,0,0,1-5.027,5.027H275.024Zm0,0" transform="translate(-239.098 -254.739)"/>
      <path id="Trazado_129330" data-name="Trazado 129330" d="M342.736,340.677h12.839a.92.92,0,1,0,0-1.841H342.736a.92.92,0,1,0,0,1.841Zm0,0" transform="translate(-299.866 -297.252)"/>
      <path id="Trazado_129331" data-name="Trazado 129331" d="M356.5,373.983a.92.92,0,0,0-.92-.92H342.737a.92.92,0,1,0,0,1.841h12.839A.92.92,0,0,0,356.5,373.983Zm0,0" transform="translate(-299.867 -327.278)"/>
      <path id="Trazado_129332" data-name="Trazado 129332" d="M391.04,408.213a.92.92,0,0,0-.92-.92h-8.007a.92.92,0,0,0,0,1.841h8.007A.92.92,0,0,0,391.04,408.213Zm0,0" transform="translate(-334.409 -357.307)"/>
      <path id="Trazado_129333" data-name="Trazado 129333" d="M265.3,33.322a16,16,0,0,0,15.835-16.131,16.4,16.4,0,0,0-.725-4.829c-.454-5.39-1.678-8.5-3.966-10.066C274.281.816,271.44.9,268.149,1c-.914.028-1.858.057-2.853.057-6.092,0-8.946-.607-10.1-.968a2,2,0,0,0-2.381,1A27.941,27.941,0,0,0,250.8,6.509a.92.92,0,0,0,1.778.477,26.1,26.1,0,0,1,1.878-5.058.158.158,0,0,1,.192-.079c1.537.479,4.634,1.051,10.653,1.051,1.023,0,1.982-.029,2.909-.058,3.09-.095,5.531-.169,7.194.971s2.638,3.618,3.086,7.787a38.107,38.107,0,0,1-4.15-.242,29.367,29.367,0,0,1-3.941-.788,17.136,17.136,0,0,0-5.1-.726,26.129,26.129,0,0,0-6.309.734,18.6,18.6,0,0,0-5.039,2.055,14.982,14.982,0,0,0-2.538,1.9l-.032.029a40.422,40.422,0,0,1,.449-4.092.92.92,0,0,0-1.817-.3,43.818,43.818,0,0,0-.55,7.01A16,16,0,0,0,265.3,33.322Zm0-1.841A14.155,14.155,0,0,1,251.3,17.452c0-.009.02-.03.025-.037a11.214,11.214,0,0,1,3.355-3.058,20.07,20.07,0,0,1,12.487-2.576c2.063.228,4.032.987,6.086,1.29a40.066,40.066,0,0,0,5.391.374l.157,0a14.593,14.593,0,0,1,.486,3.744A14.161,14.161,0,0,1,265.3,31.481Zm0,0" transform="translate(-218.845 0)"/>
      <path id="Trazado_129334" data-name="Trazado 129334" d="M.016,274.472a5.709,5.709,0,0,0,5.084,5.68l7,.779a15.576,15.576,0,0,0,7.482,0l7-.779a5.709,5.709,0,0,0,5.084-5.68v-8.65c0-.4.014-.792,0-1.19a16.179,16.179,0,0,0-4.823-10.98,15.646,15.646,0,0,0-23.567,1.787.92.92,0,1,0,1.47,1.108,13.805,13.805,0,0,1,20.806-1.583,14.323,14.323,0,0,1,4.191,8.62q-.339-.065-.674-.147a22.348,22.348,0,0,1-7.436-3.581l-.007,0a35.116,35.116,0,0,1-4.033-3.333c-.3-.286-.59-.577-.874-.876a1.476,1.476,0,0,0-.59-.466.9.9,0,0,0-.573,0,1.839,1.839,0,0,0-.673.553c-.563.588-1.154,1.15-1.763,1.69a35.005,35.005,0,0,1-3.089,2.455,21.412,21.412,0,0,1-8.088,3.71,14.383,14.383,0,0,1,1.075-4.055.92.92,0,1,0-1.692-.726,16.265,16.265,0,0,0-1.307,5.829c-.015.4-.014.793,0,1.189Zm6.776,4.016L5.3,278.323a3.87,3.87,0,0,1-3.446-3.851v-1.635a16.291,16.291,0,0,0,1.734,2.641,15.99,15.99,0,0,0,2.98,2.848c.046.034.192.142.221.162Zm23.032-4.016a3.87,3.87,0,0,1-3.446,3.851l-1.489.165.223-.164a15.976,15.976,0,0,0,2.977-2.845,16.28,16.28,0,0,0,1.734-2.641Zm-13.79-16.893a30.167,30.167,0,0,0,10.253,6.914,18.2,18.2,0,0,0,3.547.978c0,.1,0,.2-.008.3a.065.065,0,0,1,0,.01,14.438,14.438,0,0,1-5.082,10.5l-.014.011a13.742,13.742,0,0,1-17.791-.012,14.439,14.439,0,0,1-5.082-10.5.053.053,0,0,1,0-.009c0-.1-.006-.2-.008-.3.084-.014.168-.031.253-.046a19.342,19.342,0,0,0,2.58-.675,24.773,24.773,0,0,0,6.325-3.3l.005,0a34.673,34.673,0,0,0,4.83-4.063l.193.193Zm0,0" transform="translate(-0.004 -218.551)"/>
    </g>
  </g>
</svg>
