<svg id="Grupo_157112" data-name="Grupo 157112" xmlns="http://www.w3.org/2000/svg" xmlns:xlink="http://www.w3.org/1999/xlink" width="196.978" height="135.471" viewBox="0 0 196.978 135.471">
  <defs>
    <clipPath id="clip-path">
      <rect id="Rect치ngulo_37519" data-name="Rect치ngulo 37519" width="196.978" height="135.47" fill="none"/>
    </clipPath>
  </defs>
  <g id="Grupo_157112-2" data-name="Grupo 157112" clip-path="url(#clip-path)">
    <path id="Trazado_129200" data-name="Trazado 129200" d="M174.784,121.353H31.869c-3.946,0-7.146-2.878-7.146-6.429V6.431c0-3.551,3.2-6.43,7.146-6.43H174.784c3.947,0,7.147,2.878,7.147,6.43V114.925c0,3.55-3.2,6.429-7.147,6.429" transform="translate(3.821 0)" fill="#d0d1de"/>
    <rect id="Rect치ngulo_37518" data-name="Rect치ngulo 37518" width="142.916" height="106.108" transform="translate(35.689 7.623)" fill="#fff"/>
    <path id="Trazado_129201" data-name="Trazado 129201" d="M126.579,97.639a46.929,46.929,0,1,0-65.1-12.912,46.929,46.929,0,0,0,65.1,12.912" transform="translate(8.276 1.808)" fill="#093962"/>
    <path id="Trazado_129202" data-name="Trazado 129202" d="M88.345,12.212A46.928,46.928,0,0,1,101.812,105.1Z" transform="translate(13.654 1.812)" fill="#fee734"/>
    <path id="Trazado_129203" data-name="Trazado 129203" d="M91.387,102.726c-.077-.006-.152-.016-.23-.022l3.274-46.736,39.18-26.209a46.908,46.908,0,0,1-42.224,72.968" transform="translate(14.088 4.599)" fill="#29c4bb"/>
    <path id="Trazado_129204" data-name="Trazado 129204" d="M94.287,99.692a47.283,47.283,0,0,0,8.075.383l-1.868-46.9L53.977,46.968a46.929,46.929,0,0,0,40.31,52.724" transform="translate(8.278 7.259)" fill="#e5e6ed"/>
    <path id="Trazado_129205" data-name="Trazado 129205" d="M84.343,65.566,40.812,42.779a49.061,49.061,0,0,0-1.225,43.15Z" transform="translate(5.435 6.611)" fill="#29c4bb"/>
    <path id="Trazado_129206" data-name="Trazado 129206" d="M98.276,57.508l47.253-8.555a48.436,48.436,0,0,1,.724,6.168A47.69,47.69,0,0,1,140.83,79.8Z" transform="translate(15.189 7.566)" fill="#fee734"/>
    <path id="Trazado_129207" data-name="Trazado 129207" d="M41.814,41.871c-.5-.209-2.274.463-3.325,1.145A13.067,13.067,0,0,1,35.562,44.1a11.207,11.207,0,0,1,.215,1.728c0-.028,1.633-.285,1.8-.339.552-.174.98-.6,1.614-.438a4.6,4.6,0,0,1,.861.427c.334.179,1.146.992,1.549.836.606-.236-.382-.932-.492-1.127-.164-.29-.1-.817.345-.7.611.162,1.656.89,2.314.585.827-.382-1.748-1.12-2.187-1.4.7.358,2.993,1.056,3.178.656.359-.772-2.072-1.178-2.743-1.51a3.3,3.3,0,0,0,1.917.406c.864-.3-1.628-1.142-2.123-1.351" transform="translate(5.496 6.465)" fill="#f88667"/>
    <path id="Trazado_129208" data-name="Trazado 129208" d="M39.611,81.288c-.516.15-2.205-.724-3.169-1.524a13.175,13.175,0,0,0-2.782-1.413,10.985,10.985,0,0,0,.413-1.691c0,.028,1.589.473,1.753.547.528.238.9.715,1.553.621a4.548,4.548,0,0,0,.9-.324c.352-.139,1.254-.852,1.636-.65.575.3-.487.881-.619,1.062-.2.269-.194.8.261.735.626-.089,1.749-.692,2.367-.313.777.476-1.867.911-2.334,1.136.734-.274,3.1-.7,3.234-.282.267.808-2.2.929-2.9,1.182a3.291,3.291,0,0,1,1.951-.182c.823.4-1.749.946-2.265,1.1" transform="translate(5.202 11.848)" fill="#f88667"/>
    <path id="Trazado_129209" data-name="Trazado 129209" d="M14.467,62.225a4.585,4.585,0,0,0,5.936-.257c2.729-2.453,7.817-7,9.472-8.268,2.3-1.769,12.623-8.238,12.623-8.238l-1.551-2.914s-12.865,5.69-14.684,7.121S13.887,57.444,13.458,60.006a2.348,2.348,0,0,0,1.009,2.219" transform="translate(2.075 6.576)" fill="#209c95"/>
    <path id="Trazado_129210" data-name="Trazado 129210" d="M14.467,62.225a4.585,4.585,0,0,0,5.936-.257c2.729-2.453,7.817-7,9.472-8.268,2.3-1.769,12.623-8.238,12.623-8.238l-1.551-2.914s-12.865,5.69-14.684,7.121S13.887,57.444,13.458,60.006a2.348,2.348,0,0,0,1.009,2.219" transform="translate(2.075 6.576)" fill="#209c95"/>
    <path id="Trazado_129211" data-name="Trazado 129211" d="M16.21,48.652c.067.072.127.148.2.218a13.748,13.748,0,0,0,2.071,1.8c.462.306,1.178.506,1.574.828a4.5,4.5,0,0,0,.5.35,38.144,38.144,0,0,0-.714,6.018s-4.133-.292-5.64-1.963a41.887,41.887,0,0,0,2.014-7.254" transform="translate(2.194 7.519)" fill="#f88667"/>
    <path id="Trazado_129212" data-name="Trazado 129212" d="M20.331,53.134c.083-.514.162-.963.218-1.282a4.662,4.662,0,0,1-.5-.351c-.4-.321-1.113-.521-1.575-.827a13.691,13.691,0,0,1-2.071-1.8c-.07-.069-.13-.145-.2-.217A41.887,41.887,0,0,1,14.2,55.907a5.442,5.442,0,0,0,2.337,1.317,4.768,4.768,0,0,1,3.8-4.091" transform="translate(2.194 7.519)" fill="#e45940"/>
    <path id="Trazado_129213" data-name="Trazado 129213" d="M17.922,112.621s.113,4.121.757,4.684,8.844.809,9.549.057.291-2.017-1.469-2.505c-1.887-.524-2.811-.01-3.994-.5S21.9,112,21.9,112Z" transform="translate(2.77 17.309)" fill="#110239"/>
    <path id="Trazado_129214" data-name="Trazado 129214" d="M.35,112.464s-.632,4.014-.009,4.6,8.973,1.245,9.707.52.368-2-1.372-2.561c-1.865-.6-2.767-.217-3.97-.656-.947-.345-.309-2.257-.309-2.257Z" transform="translate(0.01 17.327)" fill="#110239"/>
    <path id="Trazado_129215" data-name="Trazado 129215" d="M6.42,95.472A123,123,0,0,1,8.131,72.558a10.49,10.49,0,0,1,4.094.792c2.5,1.138,5.02,2.231,7.533,3.326a162.4,162.4,0,0,0-7.05,20.9c-.668,3.588-8.171,21.895-8.171,21.895L0,118.9c.073-2.95,6.437-22.435,6.42-23.425" transform="translate(0 11.214)" fill="#d0d1de"/>
    <path id="Trazado_129216" data-name="Trazado 129216" d="M14.7,74.891a41.731,41.731,0,0,0,4.05,1.648c-2,4.143-5.657,15.606-6.482,18.653-.637-1.922-3.716-6.568-4.9-11.655a27.1,27.1,0,0,1-.382-10.369L7,73.127A19.5,19.5,0,0,1,14.7,74.891" transform="translate(1.03 11.302)" fill="#b8b9cd"/>
    <path id="Trazado_129217" data-name="Trazado 129217" d="M11.261,74.633c1.769.6,4.986,1.454,7.418,2.322,1.693,4.276,6.693,14.374,6.953,18.938.287,5.038-1.456,24.121-1.456,24.121h-5.2S18.5,98.5,17.771,97.121c-2.4-4.557-5.049-8.17-6.556-11.005a35.329,35.329,0,0,1-3.83-10.039C7.19,75.094,6.33,71.8,8,70.766c1.38.391,1.78,3.367,3.262,3.867" transform="translate(1.08 10.937)" fill="#d0d1de"/>
    <path id="Trazado_129218" data-name="Trazado 129218" d="M20.807,80.534a21.121,21.121,0,0,1-8.659,1.35c-3.181-.306-4.827-.356-6.688-1.36,0,0,1.989-15.506,4.285-20.394s6.063-5.825,6.063-5.825a12.869,12.869,0,0,0,5.4,1.686s-.059,9.527-.244,13.332-.152,11.212-.152,11.212" transform="translate(0.844 8.393)" fill="#29c4bb"/>
    <path id="Trazado_129219" data-name="Trazado 129219" d="M19.649,67.053c.014-.419.027-.861.039-1.331l0-.171c.012-.448.022-.912.031-1.387,0-.079,0-.157,0-.237.01-.529.021-1.066.03-1.6V62.3a3.1,3.1,0,0,1-.587-.04,13.489,13.489,0,0,1-4.149-1.918c-.221-.13-.455-.238-.686-.352-.263,2.038.652,4.524,1.047,6.142,1.095,4.48,1.687,10.148.748,14.477a23.189,23.189,0,0,0,3.311-.954s-.032-7.408.152-11.212c.016-.337.031-.73.046-1.146,0-.081.006-.162.008-.245" transform="translate(2.208 9.272)" fill="#29c4bb"/>
    <path id="Trazado_129220" data-name="Trazado 129220" d="M37.808,82.682l1.825-3.613s-9.048-5.792-12.356-9.129-6.885-10.127-9.406-10.554-5.062.963-3.6,4.474,8.859,8.164,10.366,9.709,11.692,8.283,13.171,9.113" transform="translate(2.139 9.167)" fill="#29c4bb"/>
    <path id="Trazado_129221" data-name="Trazado 129221" d="M15.1,42.582s6.677-.765,7.139.358.562,4.283,1,4.951,1.215,1.466.922,1.9-.614.326-.8.808-.113,3.217-1,3.624-5.38.167-7.008-2.395-3.48-9.007-.254-9.243" transform="translate(2.06 6.542)" fill="#f88667"/>
    <path id="Trazado_129222" data-name="Trazado 129222" d="M13.624,43.118l4.428,2.049a9.95,9.95,0,0,0,1.135,4.839s-.4.61-.816.264a1.627,1.627,0,0,1-.784-1.174c-.1-.643-.484-2.369-1.644-1.518s.066,1.862.657,2.113c0,0,.937,3.362-.846,3.123,0,0-1.646-1.044-3.065-5.081s-.167-5.371.936-4.615" transform="translate(1.863 6.633)" fill="#110239"/>
    <path id="Trazado_129223" data-name="Trazado 129223" d="M24.2,42.077s1.583,2.277-2.1,3.8-8.971-2.488-8.971-2.488.135-2,3.07-2.852c2.194-.638,4.249-.548,5.369.722,1.9,2.158,2.629.819,2.629.819" transform="translate(2.03 6.205)" fill="#110239"/>
    <path id="Trazado_129224" data-name="Trazado 129224" d="M159.578,49.956c-.062.072-.118.145-.184.215a13.2,13.2,0,0,1-1.94,1.793c-.435.308-1.119.52-1.491.841a4.613,4.613,0,0,1-.468.351,36.585,36.585,0,0,1,.856,5.766s3.966-.4,5.367-2.047a40.3,40.3,0,0,1-2.142-6.918" transform="translate(24.032 7.721)" fill="#f88667"/>
    <path id="Trazado_129225" data-name="Trazado 129225" d="M159.653,50.454c-.062.072-.118.145-.184.215a13.2,13.2,0,0,1-1.94,1.793c-.435.307-1.119.52-1.491.841a4.661,4.661,0,0,1-.468.351c.055.267.13.638.211,1.053.02,0,.035,0,.053,0a4.711,4.711,0,0,1,4.757,3.568,4,4,0,0,0,1.2-.9,40.3,40.3,0,0,1-2.142-6.918" transform="translate(24.044 7.798)" fill="#e45940"/>
    <path id="Trazado_129226" data-name="Trazado 129226" d="M155.123,112.06s.2,3.96-.373,4.549-8.418,1.444-9.152.776-.432-1.912,1.219-2.513c1.77-.645,2.695-.223,3.79-.784s.656-2.324.656-2.324Z" transform="translate(22.444 17.273)" fill="#110239"/>
    <path id="Trazado_129227" data-name="Trazado 129227" d="M171.185,111.958s1.1,3.751.577,4.388-8.405,2.294-9.195,1.695-.6-1.868.991-2.613c1.705-.8,2.665-.461,3.707-1.116s.447-2.373.447-2.373Z" transform="translate(25.055 17.3)" fill="#110239"/>
    <path id="Trazado_129228" data-name="Trazado 129228" d="M171.1,95.083a118.282,118.282,0,0,0-1.073-22.076,10.024,10.024,0,0,0-3.956.659c-2.435,1.032-4.883,2.019-7.327,3.011A156.011,156.011,0,0,1,165,96.945c.554,3.467,2.973,22.45,2.973,22.45l4.474-.152c0-2.839-1.387-23.209-1.347-24.16" transform="translate(24.534 11.283)" fill="#0d54b5"/>
    <path id="Trazado_129229" data-name="Trazado 129229" d="M162.658,75.059a40.259,40.259,0,0,1-3.936,1.484c1.823,4.033,5.731,17.3,6.26,20.225.66-1.832,3.244-8.352,4.507-13.213a26.1,26.1,0,0,0,.627-9.961l-.006-.039a18.772,18.772,0,0,0-7.453,1.5" transform="translate(24.53 11.368)" fill="#0a3f88"/>
    <path id="Trazado_129230" data-name="Trazado 129230" d="M167.477,73.018c-1.712.544-4.821,1.31-7.174,2.1-1.7,4.084-6.3,15.859-7.154,20.172-1.185,5.969-3.163,23.664-3.163,23.664l5.045.664s5.068-23.772,5.792-25.088c2.386-4.341,5-7.769,6.5-10.471a33.257,33.257,0,0,0,4.34-12.022c-1.334.353-2.75.523-4.183.978" transform="translate(23.18 11.134)" fill="#0d54b5"/>
    <path id="Trazado_129231" data-name="Trazado 129231" d="M139.111,46.882c.48.053,1.581,1.361,2.1,2.356a11.821,11.821,0,0,0,1.822,2.131,9.961,9.961,0,0,0-.926,1.261c.013-.021-1.156-.94-1.265-1.058-.357-.379-.5-.9-1.074-1.051a4.133,4.133,0,0,0-.862-.043c-.341-.006-1.334.275-1.581-.025-.373-.449.707-.562.879-.666.256-.156.436-.6.037-.7-.55-.142-1.689-.029-2.071-.556-.48-.663,1.862-.112,2.329-.137-.7-.027-2.81-.485-2.78-.881.058-.763,2.143-.014,2.814.02a2.964,2.964,0,0,1-1.681-.522c-.546-.612,1.777-.181,2.257-.128" transform="translate(20.976 7.215)" fill="#f88667"/>
    <path id="Trazado_129232" data-name="Trazado 129232" d="M169.106,64.286a4.409,4.409,0,0,0-3.106-4.8c-3.363-1.069-9.61-3.076-11.472-3.828-2.587-1.046-12.981-6.456-12.981-6.456l-1.661,2.707s10.987,7.9,13.059,8.708S165.423,67.1,167.758,66.2a2.261,2.261,0,0,0,1.349-1.918" transform="translate(21.619 7.604)" fill="#01c7e2"/>
    <path id="Trazado_129233" data-name="Trazado 129233" d="M169.106,64.286a4.409,4.409,0,0,0-3.106-4.8c-3.363-1.069-9.61-3.076-11.472-3.828-2.587-1.046-12.981-6.456-12.981-6.456l-1.661,2.707s10.987,7.9,13.059,8.708S165.423,67.1,167.758,66.2a2.261,2.261,0,0,0,1.349-1.918" transform="translate(21.619 7.604)" fill="#01c7e2"/>
    <path id="Trazado_129234" data-name="Trazado 129234" d="M157.275,80.709a34.985,34.985,0,0,0,8.171.055c3.05-.384,5.827-1.514,6.469-2.665,0,0-2.235-12.687-4.58-17.323s-6-5.429-6-5.429a12.385,12.385,0,0,1-5.14,1.776s.327,9.158.612,12.811.464,10.774.464,10.774" transform="translate(24.14 8.554)" fill="#01c7e2"/>
    <path id="Trazado_129235" data-name="Trazado 129235" d="M160.758,66.748c.335-1.568,1.144-3.984.834-5.936-.219.117-.441.226-.65.358a12.958,12.958,0,0,1-3.935,1.962,3.046,3.046,0,0,1-.563.055c.1,2.225.219,4.481.331,5.9.285,3.653.463,10.775.463,10.775s1.136.159,2.811.234c-1.029-4.136-.217-9.01.709-13.351" transform="translate(24.178 9.398)" fill="#00a7cc"/>
    <path id="Trazado_129236" data-name="Trazado 129236" d="M162.017,46.768s-1.844-3.471-4.1-3.234-4.439.887-4.7,1.77.055,2.818-.485,3.729-1.623,2.173-1.267,2.53a13.526,13.526,0,0,1,1.019.918c.08.16.9,3.055,1.383,3.34s4.75-1.591,5.366-2.909,3.073-3.863,2.781-6.143" transform="translate(23.398 6.726)" fill="#f88667"/>
    <path id="Trazado_129237" data-name="Trazado 129237" d="M158.546,43.715s-1.8,5.021-6.295,4.6c0,0-1.1-2.047-.017-3.648.843-1.246,3.4-2.4,6.312-.951" transform="translate(23.454 6.652)" fill="#110239"/>
    <path id="Trazado_129238" data-name="Trazado 129238" d="M172.084,62.183c-.23-2.494-1.471-3.945-3.264-5.548a13.41,13.41,0,0,1-4.338-6.744c-.717-2.583-.366-5.066-2.842-6.855-1.844-1.331-4.781-.577-5.985.379a1.2,1.2,0,0,1-.035.271s-1.665,1.583,1,3.831a5.7,5.7,0,0,1,1.479,2.34,1.665,1.665,0,0,1,.563-.636.635.635,0,0,1,.953.068c.531.543-.261,1.541-.763,1.616-.087.014-.21.136-.343.285a30.789,30.789,0,0,1,1.175,6.784,5.129,5.129,0,0,0,1.3,2.776c.75.944,1.3.981,1.738,2.113.475,1.215-.486,4.086,1.807,5.444a7.163,7.163,0,0,0,3.981.291c3.13-1.082,3.852-3.324,3.568-6.416" transform="translate(23.972 6.54)" fill="#110239"/>
    <path id="Trazado_129239" data-name="Trazado 129239" d="M139.33,73.182a3.551,3.551,0,0,1-1.828.269,2.125,2.125,0,0,0-.861-.069,4.578,4.578,0,0,1-.993.014,1.771,1.771,0,0,0-.974.112c-.354.209.1.469.431.6.357.141,1.523-.154,1.719.2s-1.247.627-1.534.677c-.679.117-1.015-.277-1.608-.471-.346-.113-.539-.06-.412.342.1.3.441.427.705.54a3.74,3.74,0,0,0,1.794.306,4.378,4.378,0,0,1-1.7-.112c-.314-.082-1.6-.665-1.768-.18-.345.972,2.809,1.357,3.357,1.168a5.116,5.116,0,0,1-1.719,0c-.338-.036-1.135-.155-.862.391.4.806,2.189.315,3.027.238a5.96,5.96,0,0,1-1.6.337c-.717.115-.383.6.371.612a8.174,8.174,0,0,0,1.086-.117,5.539,5.539,0,0,0,3.165-1.668c.379-.339,1.426-.562,1.478-1,.1-.843-.832-1.619-1.271-2.189" transform="translate(20.443 11.31)" fill="#f88667"/>
    <path id="Trazado_129240" data-name="Trazado 129240" d="M138.686,78.868l-1.433-3.317s9.339-5.4,13.037-8.286,8.1-9.149,10.652-9.251,4.887,1.6,2.995,4.886-9.806,6.955-11.495,8.293a148.37,148.37,0,0,1-13.756,7.675" transform="translate(21.212 8.965)" fill="#01c7e2"/>
  </g>
</svg>
