<svg xmlns="http://www.w3.org/2000/svg" width="125" height="152" viewBox="0 0 125 152">
  <g id="Grupo_157905" data-name="Grupo 157905" transform="translate(-212 -13998.754)">
    <g id="Grupo_157196" data-name="Grupo 157196" transform="translate(212 13998.754)">
      <rect id="Rectángulo_36766" data-name="Rectángulo 36766" width="125" height="152" rx="12" fill="#0c487b"/>
    </g>
    <g id="Grupo_157195" data-name="Grupo 157195" transform="translate(222.717 14021.974)">
      <g id="Grupo_156582" data-name="Grupo 156582">
        <path id="Trazado_127053" data-name="Trazado 127053" d="M17.229,127.358c-.811.181-1-.2-.991-.959.021-1.9-.012-1.932-1.976-1.92-.731,0-.958-.222-.944-.946.013-.674.137-.987.914-.984,1.97.007,2.021-.032,2-2-.009-.89.427-.906,1.087-.913s1,.1,1,.894c0,1.991.04,2.027,1.986,2.019.752,0,.931.268.932.967s-.176.967-.929.962c-1.983-.011-2.03.026-1.987,1.9.021.872-.3,1.127-1.092.974" transform="translate(-13.318 -57.784)" fill="#29c4bb"/>
        <path id="Trazado_127054" data-name="Trazado 127054" d="M214.938,151.177c.726-.138,1.128.1,1.008.923-.1.688.138,1.071.9.953s1.017.157,1.023.958c.006.84-.337,1.033-1.053.937-.684-.092-.9.205-.887.885.022,1.066-.638,1.475-1.669,1.152-.489-.153-.382-.544-.351-.852.086-.842-.107-1.358-1.1-1.189-.769.131-.817-.352-.814-.942s.025-1.068.806-.947c.841.13,1.239-.178,1.1-1.066-.133-.849.411-.886,1.039-.811" transform="translate(-114.114 -71.077)" fill="#29c4bb"/>
        <path id="Trazado_127055" data-name="Trazado 127055" d="M213.285,70.552c.188.81-.183,1.087-.942.959-.822-.138-1.158.2-1.012,1.016.141.791-.2.98-.967.987-.79.007-1.088-.226-.95-1,.147-.819-.195-1.157-1.008-1-.843.158-.917-.283-.949-.992-.037-.832.286-1.05,1.01-.923.788.138,1.082-.189.948-.958-.128-.737.11-1.035.93-1.005.723.026,1.141.128.986.957s.205,1.141,1.014,1.005c.76-.128,1.129.144.94.954" transform="translate(-111.525 -36.984)" fill="#010000"/>
        <path id="Trazado_127056" data-name="Trazado 127056" d="M57.6,187.938c.177.755-.2,1.033-.951.9-.887-.16-1.1.3-.969,1.048.141.831-.261.96-.991.955-.7,0-1.072-.162-.925-.913.192-.987-.3-1.229-1.152-1.084-.872.149-.832-.4-.835-1,0-.579.012-1.07.8-.915,1.06.21,1.331-.3,1.188-1.248-.137-.908.555-.647,1.017-.674.489-.029,1.035-.092.892.7-.176.974.165,1.425,1.2,1.228.86-.165.755.435.73,1.011" transform="translate(-32.831 -84.939)" fill="#010000"/>
        <path id="Trazado_127057" data-name="Trazado 127057" d="M121.807,18.692c-.2-.862.274-1.03.979-.925.733.109,1.021-.194.91-.916s.1-1.05.933-1.033c.763.015,1.112.213.98,1-.136.8.235,1.065.989.952.7-.1,1.048.063,1.052.915,0,.874-.325,1.108-1.086.987-.8-.128-1.077.238-.952.989.14.842-.312.939-1.021.954-.758.015-1-.269-.893-.964.122-.762-.16-1.11-.955-.977-.776.13-1.108-.19-.934-.978" transform="translate(-68.333 -15.816)" fill="#29c4bb"/>
      </g>
      <g id="internet" transform="translate(10.94 8.951)">
        <g id="Grupo_157233" data-name="Grupo 157233" transform="translate(1.312 1.254)">
          <g id="Grupo_157198" data-name="Grupo 157198" transform="translate(14.919 14.899)">
            <g id="Grupo_157197" data-name="Grupo 157197">
              <ellipse id="Elipse_4880" data-name="Elipse 4880" cx="26.637" cy="26.643" rx="26.637" ry="26.643" fill="#71d8fd"/>
            </g>
          </g>
          <g id="Grupo_157200" data-name="Grupo 157200" transform="translate(38.292 14.899)">
            <g id="Grupo_157199" data-name="Grupo 157199">
              <path id="Trazado_129503" data-name="Trazado 129503" d="M239.755,96.576a26.884,26.884,0,0,0-3.264.2,26.645,26.645,0,0,1,0,52.887,26.643,26.643,0,1,0,3.264-53.086Z" transform="translate(-236.491 -96.576)" fill="#60c3f7"/>
            </g>
          </g>
          <g id="Grupo_157202" data-name="Grupo 157202" transform="translate(0 0.271)">
            <g id="Grupo_157201" data-name="Grupo 157201">
              <ellipse id="Elipse_4881" data-name="Elipse 4881" cx="4.985" cy="4.986" rx="4.985" ry="4.986" fill="#fee734"/>
            </g>
          </g>
          <g id="Grupo_157204" data-name="Grupo 157204" transform="translate(73.16 0.271)">
            <g id="Grupo_157203" data-name="Grupo 157203">
              <ellipse id="Elipse_4882" data-name="Elipse 4882" cx="4.985" cy="4.986" rx="4.985" ry="4.986" fill="#fee734"/>
            </g>
          </g>
          <g id="Grupo_157206" data-name="Grupo 157206" transform="translate(0 73.071)">
            <g id="Grupo_157205" data-name="Grupo 157205">
              <ellipse id="Elipse_4883" data-name="Elipse 4883" cx="4.985" cy="4.986" rx="4.985" ry="4.986" fill="#fee734"/>
            </g>
          </g>
          <g id="Grupo_157208" data-name="Grupo 157208" transform="translate(0 36.588)">
            <g id="Grupo_157207" data-name="Grupo 157207">
              <ellipse id="Elipse_4884" data-name="Elipse 4884" cx="4.985" cy="4.986" rx="4.985" ry="4.986" fill="#dff6f5"/>
            </g>
          </g>
          <g id="Grupo_157210" data-name="Grupo 157210" transform="translate(73.16 36.588)">
            <g id="Grupo_157209" data-name="Grupo 157209">
              <ellipse id="Elipse_4885" data-name="Elipse 4885" cx="4.985" cy="4.986" rx="4.985" ry="4.986" fill="#dff6f5"/>
            </g>
          </g>
          <g id="Grupo_157212" data-name="Grupo 157212" transform="translate(36.571)">
            <g id="Grupo_157211" data-name="Grupo 157211">
              <ellipse id="Elipse_4886" data-name="Elipse 4886" cx="4.985" cy="4.986" rx="4.985" ry="4.986" fill="#dff6f5"/>
            </g>
          </g>
          <g id="Grupo_157214" data-name="Grupo 157214" transform="translate(36.571 73.177)">
            <g id="Grupo_157213" data-name="Grupo 157213">
              <ellipse id="Elipse_4887" data-name="Elipse 4887" cx="4.985" cy="4.986" rx="4.985" ry="4.986" fill="#dff6f5"/>
            </g>
          </g>
          <g id="Grupo_157216" data-name="Grupo 157216" transform="translate(73.16 73.071)">
            <g id="Grupo_157215" data-name="Grupo 157215">
              <ellipse id="Elipse_4888" data-name="Elipse 4888" cx="4.985" cy="4.986" rx="4.985" ry="4.986" fill="#fee734"/>
            </g>
          </g>
          <g id="Grupo_157218" data-name="Grupo 157218" transform="translate(3.383 0.272)">
            <g id="Grupo_157217" data-name="Grupo 157217">
              <path id="Trazado_129504" data-name="Trazado 129504" d="M34.37,14.109a4.985,4.985,0,0,1-6.587,4.721,4.984,4.984,0,0,0,0-9.441,4.984,4.984,0,0,1,6.587,4.72Z" transform="translate(-27.783 -9.124)" fill="#cbb829"/>
            </g>
          </g>
          <g id="Grupo_157220" data-name="Grupo 157220" transform="translate(76.543 0.272)">
            <g id="Grupo_157219" data-name="Grupo 157219">
              <path id="Trazado_129505" data-name="Trazado 129505" d="M471.768,14.109a4.983,4.983,0,0,1-6.586,4.721,4.985,4.985,0,0,0,0-9.441,4.983,4.983,0,0,1,6.586,4.72Z" transform="translate(-465.182 -9.124)" fill="#cbb829"/>
            </g>
          </g>
          <g id="Grupo_157222" data-name="Grupo 157222" transform="translate(3.383 73.072)">
            <g id="Grupo_157221" data-name="Grupo 157221">
              <path id="Trazado_129506" data-name="Trazado 129506" d="M34.37,449.353a4.985,4.985,0,0,1-6.587,4.721,4.984,4.984,0,0,0,0-9.441,4.985,4.985,0,0,1,6.587,4.72Z" transform="translate(-27.783 -444.368)" fill="#cbb829"/>
            </g>
          </g>
          <g id="Grupo_157224" data-name="Grupo 157224" transform="translate(3.383 36.589)">
            <g id="Grupo_157223" data-name="Grupo 157223">
              <path id="Trazado_129507" data-name="Trazado 129507" d="M34.37,231.237a4.985,4.985,0,0,1-4.986,4.985,4.935,4.935,0,0,1-1.6-.265,4.984,4.984,0,0,0,0-9.441,4.985,4.985,0,0,1,6.587,4.721Z" transform="translate(-27.783 -226.252)" fill="#b4eae7"/>
            </g>
          </g>
          <g id="Grupo_157226" data-name="Grupo 157226" transform="translate(76.543 36.589)">
            <g id="Grupo_157225" data-name="Grupo 157225">
              <path id="Trazado_129508" data-name="Trazado 129508" d="M471.768,231.237a4.985,4.985,0,0,1-4.984,4.985,4.935,4.935,0,0,1-1.6-.265,4.985,4.985,0,0,0,0-9.441,4.983,4.983,0,0,1,6.586,4.721Z" transform="translate(-465.182 -226.252)" fill="#b4eae7"/>
            </g>
          </g>
          <g id="Grupo_157228" data-name="Grupo 157228" transform="translate(39.955 0)">
            <g id="Grupo_157227" data-name="Grupo 157227">
              <path id="Trazado_129509" data-name="Trazado 129509" d="M253.018,12.486a4.985,4.985,0,0,1-4.984,4.987,4.935,4.935,0,0,1-1.6-.265,4.986,4.986,0,0,0,0-9.443,4.983,4.983,0,0,1,6.586,4.721Z" transform="translate(-246.432 -7.501)" fill="#b4eae7"/>
            </g>
          </g>
          <g id="Grupo_157230" data-name="Grupo 157230" transform="translate(39.955 73.178)">
            <g id="Grupo_157229" data-name="Grupo 157229">
              <path id="Trazado_129510" data-name="Trazado 129510" d="M253.018,449.987a4.983,4.983,0,0,1-6.586,4.721,4.985,4.985,0,0,0,0-9.441,4.983,4.983,0,0,1,6.586,4.721Z" transform="translate(-246.432 -445.002)" fill="#b4eae7"/>
            </g>
          </g>
          <g id="Grupo_157232" data-name="Grupo 157232" transform="translate(76.543 73.072)">
            <g id="Grupo_157231" data-name="Grupo 157231">
              <path id="Trazado_129511" data-name="Trazado 129511" d="M471.768,449.353a4.983,4.983,0,0,1-6.586,4.721,4.985,4.985,0,0,0,0-9.441,4.983,4.983,0,0,1,6.586,4.72Z" transform="translate(-465.182 -444.368)" fill="#cbb829"/>
            </g>
          </g>
        </g>
        <g id="Grupo_157234" data-name="Grupo 157234" transform="translate(0.058)">
          <path id="Trazado_129512" data-name="Trazado 129512" d="M248.378,285.352a1.348,1.348,0,1,0,1.348,1.348A1.35,1.35,0,0,0,248.378,285.352Z" transform="translate(-205.721 -237.623)"/>
          <path id="Trazado_129513" data-name="Trazado 129513" d="M233.117,258.7a5.864,5.864,0,0,0-4.141,1.7,1.254,1.254,0,1,0,1.762,1.786,3.382,3.382,0,0,1,4.831.076,1.255,1.255,0,1,0,1.819-1.728A5.918,5.918,0,0,0,233.117,258.7Z" transform="translate(-190.376 -215.427)"/>
          <path id="Trazado_129514" data-name="Trazado 129514" d="M224.667,234.637a10.437,10.437,0,0,0-14.82-.138,1.254,1.254,0,1,0,1.765,1.783,7.928,7.928,0,0,1,11.256.1,1.255,1.255,0,0,0,1.8-1.75Z" transform="translate(-174.447 -192.763)"/>
          <path id="Trazado_129515" data-name="Trazado 129515" d="M209.689,209.551a1.255,1.255,0,0,0,1.79-1.758,15.156,15.156,0,0,0-21.471-.153,1.254,1.254,0,0,0,1.763,1.785,12.647,12.647,0,0,1,17.917.127Z" transform="translate(-157.926 -169.261)"/>
          <path id="Trazado_129516" data-name="Trazado 129516" d="M6.3,231.231a6.24,6.24,0,1,0-6.239-6.24A6.247,6.247,0,0,0,6.3,231.231Zm0-9.972a3.731,3.731,0,1,1-3.73,3.731A3.735,3.735,0,0,1,6.3,221.259Z" transform="translate(-0.058 -182.161)"/>
          <path id="Trazado_129517" data-name="Trazado 129517" d="M443.693,218.75a6.24,6.24,0,1,0,6.239,6.24A6.247,6.247,0,0,0,443.693,218.75Zm0,9.972a3.731,3.731,0,1,1,3.73-3.731A3.735,3.735,0,0,1,443.693,228.722Z" transform="translate(-364.294 -182.161)"/>
          <path id="Trazado_129518" data-name="Trazado 129518" d="M224.943,12.481A6.24,6.24,0,1,0,218.7,6.24,6.247,6.247,0,0,0,224.943,12.481Zm0-9.972a3.731,3.731,0,1,1-3.73,3.731A3.735,3.735,0,0,1,224.943,2.509Z" transform="translate(-182.133 0)"/>
          <path id="Trazado_129519" data-name="Trazado 129519" d="M224.943,437.5a6.24,6.24,0,1,0,6.239,6.24A6.247,6.247,0,0,0,224.943,437.5Zm0,9.972a3.731,3.731,0,1,1,3.73-3.731A3.735,3.735,0,0,1,224.943,447.471Z" transform="translate(-182.133 -364.322)"/>
          <path id="Trazado_129520" data-name="Trazado 129520" d="M79.457,74.42a6.2,6.2,0,0,0-3.206.889l-12.493-12.7a27.844,27.844,0,0,0,.03-36.892L76.15,13.149a6.251,6.251,0,1,0-1.816-1.732L62.047,23.909a27.879,27.879,0,0,0-30.833-5.116,1.254,1.254,0,1,0,1.05,2.279,25.34,25.34,0,0,1,2.921-1.131,21.32,21.32,0,0,0-3.343,4.781,33.491,33.491,0,0,0-2.5,6.344,33.578,33.578,0,0,0-5.878,2.305,21.162,21.162,0,0,0-4.876,3.347,25.3,25.3,0,0,1,1.663-4.1,25.624,25.624,0,0,1,7.385-8.779,1.254,1.254,0,1,0-1.508-2.005A27.863,27.863,0,0,0,23.687,23.9L11.417,11.421A6.245,6.245,0,1,0,9.6,13.151L21.947,25.7a28.013,28.013,0,0,0-3.933,5.771,27.887,27.887,0,0,0,3.97,31.139L9.5,75.307a6.257,6.257,0,1,0,1.85,1.7l12.38-12.586a27.786,27.786,0,0,0,19.121,7.624h.035a27.787,27.787,0,0,0,19.128-7.63L74.4,77.008a6.236,6.236,0,1,0,5.054-2.588ZM2.567,7.86A3.73,3.73,0,1,1,6.3,11.592,3.735,3.735,0,0,1,2.567,7.86ZM49.7,57.367a1.255,1.255,0,0,0,1.44,1.036q1.234-.2,2.409-.458A29.74,29.74,0,0,1,51.674,62.4c-2.109,4.006-4.753,6.444-7.552,7.007V59.042c.71-.017,1.418-.045,2.117-.089a1.255,1.255,0,1,0-.158-2.5c-1.058.067-2.139.1-3.213.1a47.084,47.084,0,0,1-11.481-1.364,47.96,47.96,0,0,1,0-22.08,47.085,47.085,0,0,1,11.481-1.364,47.083,47.083,0,0,1,11.481,1.364,47.96,47.96,0,0,1,0,22.074q-1.73.439-3.611.747A1.255,1.255,0,0,0,49.7,57.367ZM18.6,51.585a21.179,21.179,0,0,0,4.862,3.335,33.576,33.576,0,0,0,5.878,2.305,33.487,33.487,0,0,0,2.5,6.344,21.336,21.336,0,0,0,3.334,4.772A25.5,25.5,0,0,1,18.6,51.585ZM27.606,45.4a49,49,0,0,0,1.024,8.973,29.782,29.782,0,0,1-4.024-1.686C20.628,50.647,18.2,48.1,17.622,45.4h9.984Zm4.579,12.548a49.922,49.922,0,0,0,9.428,1.1V69.407c-2.8-.563-5.443-3-7.551-7.007A29.767,29.767,0,0,1,32.186,57.948ZM51.674,25.89a29.757,29.757,0,0,1,1.877,4.453,49.915,49.915,0,0,0-9.428-1.1V18.883C46.922,19.446,49.566,21.884,51.674,25.89Zm6.456,17a49,49,0,0,0-1.024-8.973A29.794,29.794,0,0,1,61.131,35.6c3.979,2.04,6.407,4.59,6.984,7.287Zm0,2.509h9.983c-.787,3.609-4.918,6.91-11.006,8.968A49.015,49.015,0,0,0,58.131,45.4ZM79.457,4.129a3.731,3.731,0,1,1-3.73,3.731A3.735,3.735,0,0,1,79.457,4.129ZM67.138,36.706a21.18,21.18,0,0,0-4.862-3.335A33.576,33.576,0,0,0,56.4,31.066a33.491,33.491,0,0,0-2.5-6.344,21.341,21.341,0,0,0-3.334-4.772A25.5,25.5,0,0,1,67.138,36.706ZM34.063,25.89c2.108-4.006,4.752-6.443,7.551-7.007V29.248a49.923,49.923,0,0,0-9.428,1.1A29.725,29.725,0,0,1,34.063,25.89ZM24.606,35.6a29.8,29.8,0,0,1,4.024-1.686,49,49,0,0,0-1.024,8.973H17.622C18.2,40.194,20.627,37.644,24.606,35.6ZM6.3,84.392a3.731,3.731,0,1,1,3.73-3.731A3.735,3.735,0,0,1,6.3,84.392ZM50.56,68.341a21.328,21.328,0,0,0,3.334-4.772,33.492,33.492,0,0,0,2.5-6.346,26.451,26.451,0,0,0,10.749-5.669A25.5,25.5,0,0,1,50.56,68.341Zm28.9,16.051a3.731,3.731,0,1,1,3.73-3.731A3.735,3.735,0,0,1,79.457,84.392Z" transform="translate(-0.058 -1.349)"/>
        </g>
      </g>
    </g>
  </g>
</svg>
