<svg xmlns="http://www.w3.org/2000/svg" width="125" height="152" viewBox="0 0 125 152">
  <g id="Grupo_157907" data-name="Grupo 157907" transform="translate(-1052 -13998.754)">
    <g id="Grupo_157189" data-name="Grupo 157189" transform="translate(1052 13998.754)">
      <rect id="Rectángulo_36766" data-name="Rectángulo 36766" width="125" height="152" rx="12" fill="#0c487b"/>
    </g>
    <g id="Grupo_157192" data-name="Grupo 157192" transform="translate(1062.717 14021.974)">
      <g id="Grupo_156582" data-name="Grupo 156582">
        <path id="Trazado_127053" data-name="Trazado 127053" d="M17.229,127.358c-.811.181-1-.2-.991-.959.021-1.9-.012-1.932-1.976-1.92-.731,0-.958-.222-.944-.946.013-.674.137-.987.914-.984,1.97.007,2.021-.032,2-2-.009-.89.427-.906,1.087-.913s1,.1,1,.894c0,1.991.04,2.027,1.986,2.019.752,0,.931.268.932.967s-.176.967-.929.962c-1.983-.011-2.03.026-1.987,1.9.021.872-.3,1.127-1.092.974" transform="translate(-13.318 -57.784)" fill="#29c4bb"/>
        <path id="Trazado_127054" data-name="Trazado 127054" d="M214.938,151.177c.726-.138,1.128.1,1.008.923-.1.688.138,1.071.9.953s1.017.157,1.023.958c.006.84-.337,1.033-1.053.937-.684-.092-.9.205-.887.885.022,1.066-.638,1.475-1.669,1.152-.489-.153-.382-.544-.351-.852.086-.842-.107-1.358-1.1-1.189-.769.131-.817-.352-.814-.942s.025-1.068.806-.947c.841.13,1.239-.178,1.1-1.066-.133-.849.411-.886,1.039-.811" transform="translate(-114.114 -71.077)" fill="#29c4bb"/>
        <path id="Trazado_127055" data-name="Trazado 127055" d="M213.285,70.552c.188.81-.183,1.087-.942.959-.822-.138-1.158.2-1.012,1.016.141.791-.2.98-.967.987-.79.007-1.088-.226-.95-1,.147-.819-.195-1.157-1.008-1-.843.158-.917-.283-.949-.992-.037-.832.286-1.05,1.01-.923.788.138,1.082-.189.948-.958-.128-.737.11-1.035.93-1.005.723.026,1.141.128.986.957s.205,1.141,1.014,1.005c.76-.128,1.129.144.94.954" transform="translate(-111.525 -36.984)" fill="#010000"/>
        <path id="Trazado_127056" data-name="Trazado 127056" d="M57.6,187.938c.177.755-.2,1.033-.951.9-.887-.16-1.1.3-.969,1.048.141.831-.261.96-.991.955-.7,0-1.072-.162-.925-.913.192-.987-.3-1.229-1.152-1.084-.872.149-.832-.4-.835-1,0-.579.012-1.07.8-.915,1.06.21,1.331-.3,1.188-1.248-.137-.908.555-.647,1.017-.674.489-.029,1.035-.092.892.7-.176.974.165,1.425,1.2,1.228.86-.165.755.435.73,1.011" transform="translate(-32.831 -84.939)" fill="#010000"/>
        <path id="Trazado_127057" data-name="Trazado 127057" d="M121.807,18.692c-.2-.862.274-1.03.979-.925.733.109,1.021-.194.91-.916s.1-1.05.933-1.033c.763.015,1.112.213.98,1-.136.8.235,1.065.989.952.7-.1,1.048.063,1.052.915,0,.874-.325,1.108-1.086.987-.8-.128-1.077.238-.952.989.14.842-.312.939-1.021.954-.758.015-1-.269-.893-.964.122-.762-.16-1.11-.955-.977-.776.13-1.108-.19-.934-.978" transform="translate(-68.333 -15.816)" fill="#29c4bb"/>
      </g>
      <g id="dominio" transform="translate(11.483 12.493)">
        <path id="Trazado_129537" data-name="Trazado 129537" d="M109.383,46.934A38.926,38.926,0,1,1,70.457,8.008,38.926,38.926,0,0,1,109.383,46.934Zm0,0" transform="translate(-26.063 -6.205)" fill="#80e0dc"/>
        <path id="Trazado_129538" data-name="Trazado 129538" d="M240.4,48.513a38.955,38.955,0,0,1-50.365,37.218A38.934,38.934,0,0,0,206.578,9.918,38.934,38.934,0,0,1,240.4,48.513Zm0,0" transform="translate(-157.08 -7.785)" fill="#00a8b0"/>
        <path id="Trazado_129539" data-name="Trazado 129539" d="M91.769,215H9.43a1.922,1.922,0,0,1-1.922-1.922V201.364a1.922,1.922,0,0,1,1.922-1.922H91.769a1.922,1.922,0,0,1,1.922,1.922v11.718A1.922,1.922,0,0,1,91.769,215Zm0,0" transform="translate(-6.205 -164.442)" fill="#e7e7e7"/>
        <path id="Trazado_129540" data-name="Trazado 129540" d="M421.28,214.237H406.148v-15.8H421.28a1.923,1.923,0,0,1,1.922,1.922v11.951A1.922,1.922,0,0,1,421.28,214.237Zm0,0" transform="translate(-335.716 -163.615)" fill="#c9f0ff"/>
        <path id="Trazado_129541" data-name="Trazado 129541" d="M436.1,221.378l.78,1.579a.652.652,0,0,0,.49.356l1.743.253a.651.651,0,0,1,.361,1.111l-1.261,1.229a.649.649,0,0,0-.187.576l.3,1.736a.651.651,0,0,1-.945.687l-1.559-.82a.653.653,0,0,0-.606,0l-1.559.82a.651.651,0,0,1-.945-.687l.3-1.736a.651.651,0,0,0-.187-.576l-1.261-1.229a.651.651,0,0,1,.361-1.111l1.743-.253a.652.652,0,0,0,.49-.356l.78-1.579A.651.651,0,0,1,436.1,221.378Zm0,0" transform="translate(-356.554 -182.273)" fill="#ffd86e"/>
        <path id="Trazado_129542" data-name="Trazado 129542" d="M482.225,215.008h-2.346V199.446h2.346a1.922,1.922,0,0,1,1.922,1.922v11.718a1.922,1.922,0,0,1-1.922,1.922Zm0,0" transform="translate(-396.661 -164.445)" fill="#9ae7fd"/>
        <path id="Trazado_129543" data-name="Trazado 129543" d="M85.564,33.525H83.979a40.233,40.233,0,0,0-68.03-21.241A39.932,39.932,0,0,0,4.778,33.7H3.225A3.228,3.228,0,0,0,0,36.923V48.641a3.228,3.228,0,0,0,3.224,3.224H5.74a40.222,40.222,0,0,0,12.453,19.39,1.3,1.3,0,0,0,1.7-1.975A37.7,37.7,0,0,1,15.6,64.942a49.937,49.937,0,0,1,6.072-2.1A43.166,43.166,0,0,0,24.945,67.8a50.768,50.768,0,0,0,8.839,9.03,37.313,37.313,0,0,1-7.636-3.189,1.3,1.3,0,0,0-1.265,2.277A40.263,40.263,0,0,0,83.047,51.925h2.517A3.228,3.228,0,0,0,88.788,48.7V36.749a3.228,3.228,0,0,0-3.224-3.224Zm-4.236,0H72.271c-.108-.675-.228-1.349-.368-2.023A45.877,45.877,0,0,0,68.3,20.835c.24-.066.481-.13.719-.2a49.637,49.637,0,0,0,5.841-2.006,37.214,37.214,0,0,1,6.473,14.893ZM69.661,33.7H56.208c-.045-.653-.093-1.306-.151-1.958-.258-2.913-.639-5.733-1.129-8.43A84.283,84.283,0,0,0,65.722,21.5,43.237,43.237,0,0,1,69.354,32.03c.115.555.215,1.112.308,1.669ZM71,14.124q1.15,1.15,2.187,2.381A50.253,50.253,0,0,1,68.3,18.133c-.408.117-.818.228-1.23.338a45.745,45.745,0,0,0-2.718-4.3,44.723,44.723,0,0,0-9.186-9.513A37.436,37.436,0,0,1,71,14.124ZM48.409,3.317A42.32,42.32,0,0,1,62.232,15.688q1.191,1.669,2.209,3.432a82.322,82.322,0,0,1-10.022,1.628C52.912,13.73,50.629,7.686,47.77,3.256q.32.027.639.062ZM44.394,3.1h.095c3.163,4.175,5.693,10.411,7.322,17.868q-4.172.3-8.543.24c-1.977-.028-4.092-.09-6.294-.224C38.6,13.525,41.134,7.283,44.3,3.105h.095Zm-3.375.151c-2.867,4.44-5.153,10.5-6.66,17.541a74.7,74.7,0,0,1-10.1-1.533q1.055-1.836,2.293-3.576A42.335,42.335,0,0,1,40.379,3.317q.319-.034.639-.061ZM33.85,23.366c-.486,2.68-.863,5.482-1.119,8.375-.058.652-.106,1.3-.15,1.958H19.126c.092-.557.194-1.114.309-1.669A43.268,43.268,0,0,1,23,21.642,75.737,75.737,0,0,0,33.85,23.366ZM17.79,14.124A37.436,37.436,0,0,1,33.623,4.662a44.691,44.691,0,0,0-9.186,9.513,45.529,45.529,0,0,0-2.791,4.431A49.823,49.823,0,0,1,15.6,16.514q1.04-1.233,2.194-2.39Zm-3.858,4.51a51.625,51.625,0,0,0,6.5,2.332A45.893,45.893,0,0,0,16.885,31.5q-.227,1.1-.4,2.2H7.426a37.212,37.212,0,0,1,6.505-15.065ZM3.224,49.261a.621.621,0,0,1-.62-.621V36.922a.621.621,0,0,1,.62-.62H40.807a1.3,1.3,0,1,0,0-2.6H35.19c.041-.576.085-1.152.135-1.727.258-2.913.64-5.725,1.133-8.4,2.375.152,4.651.22,6.773.251q.77.011,1.536.012,3.853,0,7.559-.283c.494,2.685.878,5.5,1.137,8.425q.076.863.136,1.727H48.935a1.3,1.3,0,1,0,0,2.6H69.13V49.261H3.224Zm65.593,2.6a41.432,41.432,0,0,1-3.1,8.095,84.333,84.333,0,0,0-10.773-1.815c.374-2.036.681-4.134.918-6.279H68.818Zm-15.576,0c-.235,2.068-.537,4.089-.9,6.048q-4.446-.337-9.107-.273c-2.126.03-4.406.1-6.785.251-.364-1.952-.665-3.966-.9-6.027ZM13.94,62.82A37.591,37.591,0,0,1,8.456,51.864h8.828a44.132,44.132,0,0,0,3.145,8.627A51.551,51.551,0,0,0,13.94,62.82Zm6.034-10.956H32.928c.235,2.127.54,4.209.91,6.228A75.734,75.734,0,0,0,23,59.814a41.436,41.436,0,0,1-3.027-7.949ZM40.366,78.132A45.024,45.024,0,0,1,27.013,66.217,40.426,40.426,0,0,1,24.3,62.185a74.791,74.791,0,0,1,10.053-1.524,67.027,67.027,0,0,0,1.828,6.756A50.915,50.915,0,0,0,41.037,78.2c-.224-.02-.447-.043-.671-.068Zm4.028.221H44.3A41.937,41.937,0,0,1,38.652,66.6c-.64-1.935-1.2-3.989-1.677-6.133,2.2-.133,4.317-.2,6.294-.224q4.368-.062,8.542.241c-.478,2.137-1.036,4.186-1.674,6.116a41.918,41.918,0,0,1-5.647,11.752h-.095Zm3.354-.149a50.837,50.837,0,0,0,4.86-10.786,66.584,66.584,0,0,0,1.817-6.706A82.314,82.314,0,0,1,64.4,62.329a40.386,40.386,0,0,1-2.629,3.888A45.025,45.025,0,0,1,48.408,78.14q-.329.035-.66.064ZM71,67.333A37.426,37.426,0,0,1,54.98,76.848,50.758,50.758,0,0,0,63.844,67.8a43.013,43.013,0,0,0,3.2-4.822q.632.169,1.258.345a50.444,50.444,0,0,1,4.883,1.628c-.692.819-1.416,1.616-2.183,2.382Zm3.853-4.509a49.678,49.678,0,0,0-5.836-2c-.238-.068-.48-.132-.719-.2a44.116,44.116,0,0,0,3.193-8.7h8.836a37.209,37.209,0,0,1-5.473,10.9ZM86.184,48.641a.621.621,0,0,1-.62.62H71.733V36.3h13.83a.622.622,0,0,1,.62.621Zm0,0"/>
        <path id="Trazado_129544" data-name="Trazado 129544" d="M433.088,216.073l-1.4-.2-.628-1.273a1.954,1.954,0,0,0-3.5,0l-.628,1.273-1.4.2a1.953,1.953,0,0,0-1.082,3.332l1.016.99-.24,1.4a1.954,1.954,0,0,0,2.834,2.059l1.256-.66,1.256.66a1.954,1.954,0,0,0,2.834-2.059l-.24-1.4,1.016-.99a1.953,1.953,0,0,0-1.082-3.332Zm-2,2.7a1.955,1.955,0,0,0-.562,1.729l.075.437-.392-.206a1.952,1.952,0,0,0-1.818,0l-.392.206.074-.437a1.951,1.951,0,0,0-.562-1.729l-.317-.31.438-.064a1.955,1.955,0,0,0,1.471-1.068l.2-.4.2.4a1.952,1.952,0,0,0,1.471,1.068l.438.064Zm0,0" transform="translate(-350.345 -176.069)"/>
        <path id="Trazado_129545" data-name="Trazado 129545" d="M50.9,226.231c0,.192-.289.394-.626.394-.365,0-.616-.2-.616-.394v-6.455c0-.231.251-.385.616-.385.337,0,.626.154.626.385v2.953A1.319,1.319,0,0,1,52.11,222a1.85,1.85,0,0,1,1.654,1.953v2.279c0,.26-.317.395-.625.395-.289,0-.616-.135-.616-.395v-2.279a.889.889,0,0,0-.837-.866.818.818,0,0,0-.789.866v2.28Zm0,0" transform="translate(-41.045 -180.931)"/>
        <path id="Trazado_129546" data-name="Trazado 129546" d="M83.19,228.05c0,.375.135.51.539.51H84.1a.524.524,0,1,1,0,1.049h-.375c-1.154,0-1.78-.471-1.78-1.559v-4.665c0-.231.327-.385.616-.385.317,0,.625.154.625.385v1.654h1.135c.2,0,.317.231.317.453s-.115.452-.317.452H83.19v2.107Zm0,0" transform="translate(-67.738 -183.915)"/>
        <path id="Trazado_129547" data-name="Trazado 129547" d="M105.769,228.05c0,.375.134.51.539.51h.375a.524.524,0,1,1,0,1.049h-.375c-1.154,0-1.78-.471-1.78-1.559v-4.665c0-.231.327-.385.616-.385.318,0,.625.154.625.385v1.654H106.9c.2,0,.317.231.317.453s-.115.452-.317.452h-1.135Zm0,0" transform="translate(-86.401 -183.915)"/>
        <path id="Trazado_129548" data-name="Trazado 129548" d="M128.383,234.869v.289a1.512,1.512,0,0,1,1.3-.731,1.848,1.848,0,0,1,1.722,1.953v.788a1.91,1.91,0,0,1-1.683,1.973,1.429,1.429,0,0,1-1.26-.76v2.4c0,.2-.289.394-.635.394s-.606-.192-.606-.394v-5.916c0-.231.259-.385.587-.385S128.383,234.638,128.383,234.869Zm1.78,1.511a.9.9,0,0,0-.875-.866.841.841,0,0,0-.827.866v.962a.935.935,0,0,0,.846.712.917.917,0,0,0,.856-.885Zm0,0" transform="translate(-105.157 -193.359)"/>
        <path id="Trazado_129549" data-name="Trazado 129549" d="M160.2,237.783c0-.846-2.28-.317-2.28-1.924,0-.683.433-1.433,1.722-1.433.78,0,1.53.27,1.53.625,0,.173-.163.6-.452.6-.231,0-.529-.279-1.058-.279-.481,0-.673.24-.673.433,0,.7,2.309.222,2.309,1.933,0,.857-.635,1.4-1.77,1.4-.981,0-1.741-.4-1.741-.828,0-.2.173-.548.413-.548.279,0,.491.433,1.3.433.567,0,.7-.222.7-.414Zm0,0" transform="translate(-130.426 -193.359)"/>
        <path id="Trazado_129550" data-name="Trazado 129550" d="M186.548,238.354a.665.665,0,0,1-.644.654.654.654,0,1,1,.644-.654Zm0,2.809a.665.665,0,0,1-.644.654.654.654,0,1,1,.644-.654Zm0,0" transform="translate(-153.125 -196.065)"/>
        <path id="Trazado_129551" data-name="Trazado 129551" d="M203.778,218.773a.372.372,0,0,1-.039.173l-3.453,6.985a.418.418,0,0,1-.375.211.449.449,0,0,1-.462-.423.328.328,0,0,1,.048-.163l3.453-7.013a.375.375,0,0,1,.347-.2A.466.466,0,0,1,203.778,218.773Zm0,0" transform="translate(-164.862 -180.063)"/>
        <path id="Trazado_129552" data-name="Trazado 129552" d="M220.536,218.773a.381.381,0,0,1-.039.173l-3.454,6.985a.417.417,0,0,1-.375.211.449.449,0,0,1-.462-.423.321.321,0,0,1,.048-.163l3.453-7.013a.375.375,0,0,1,.347-.2A.467.467,0,0,1,220.536,218.773Zm0,0" transform="translate(-178.714 -180.063)"/>
        <path id="Trazado_129553" data-name="Trazado 129553" d="M249.348,238.982c-.068.164-.279.222-.49.222-.24,0-.452-.077-.51-.222l-.741-2.1-.731,2.088c-.058.154-.289.231-.529.231a.481.481,0,0,1-.481-.231l-1.481-3.8a.4.4,0,0,1-.048-.183c0-.3.481-.51.808-.51a.352.352,0,0,1,.356.2l.962,2.732.721-2.376c.068-.221.231-.25.423-.25s.356.029.423.25l.712,2.386.971-2.741a.357.357,0,0,1,.356-.2c.308,0,.8.211.8.52a.353.353,0,0,1-.039.173Zm0,0" transform="translate(-201.964 -193.404)"/>
        <path id="Trazado_129554" data-name="Trazado 129554" d="M291.122,238.982c-.067.164-.278.222-.49.222-.24,0-.452-.077-.51-.222l-.74-2.1-.732,2.088c-.058.154-.288.231-.529.231a.481.481,0,0,1-.481-.231l-1.481-3.8a.4.4,0,0,1-.048-.183c0-.3.481-.51.808-.51a.353.353,0,0,1,.356.2l.962,2.732.721-2.376c.067-.221.231-.25.423-.25s.356.029.423.25l.712,2.386.972-2.741a.357.357,0,0,1,.356-.2c.308,0,.8.211.8.52a.353.353,0,0,1-.039.173Zm0,0" transform="translate(-236.494 -193.404)"/>
        <path id="Trazado_129555" data-name="Trazado 129555" d="M332.9,238.982c-.067.164-.278.222-.49.222-.24,0-.452-.077-.51-.222l-.74-2.1-.732,2.088c-.058.154-.289.231-.529.231a.481.481,0,0,1-.481-.231l-1.481-3.8a.4.4,0,0,1-.048-.183c0-.3.481-.51.808-.51a.353.353,0,0,1,.356.2l.962,2.732.721-2.376c.067-.221.23-.25.423-.25s.356.029.423.25l.712,2.386.972-2.741a.356.356,0,0,1,.356-.2c.308,0,.8.211.8.52a.353.353,0,0,1-.039.173Zm0,0" transform="translate(-271.026 -193.404)"/>
      </g>
    </g>
  </g>
</svg>
