<svg xmlns="http://www.w3.org/2000/svg" width="70" height="85" viewBox="0 0 70 85">
  <g id="Grupo_157825" data-name="Grupo 157825" transform="translate(-8003 8573)">
    <g id="Grupo_156314" data-name="Grupo 156314" transform="translate(7463 -10280)">
      <rect id="Rectángulo_36766" data-name="Rectángulo 36766" width="70" height="85" rx="12" transform="translate(540 1707)" fill="#1169e3"/>
    </g>
    <g id="Grupo_156572" data-name="Grupo 156572" transform="translate(8013 -8557)">
      <path id="Trazado_126972" data-name="Trazado 126972" d="M219.54,132.772c.395-.075.614.055.549.5-.055.374.075.583.489.518s.553.086.557.521c0,.457-.183.562-.573.51-.372-.05-.49.112-.483.482.012.58-.347.8-.908.627-.266-.083-.208-.3-.191-.464.047-.458-.058-.739-.6-.647-.419.071-.444-.191-.443-.513s.014-.581.438-.515c.458.071.674-.1.6-.58-.073-.462.224-.482.565-.441" transform="translate(-177.953 -124.764)"/>
      <path id="Trazado_126974" data-name="Trazado 126974" d="M219.54,132.772c.395-.075.614.055.549.5-.055.374.075.583.489.518s.553.086.557.521c0,.457-.183.562-.573.51-.372-.05-.49.112-.483.482.012.58-.347.8-.908.627-.266-.083-.208-.3-.191-.464.047-.458-.058-.739-.6-.647-.419.071-.444-.191-.443-.513s.014-.581.438-.515c.458.071.674-.1.6-.58-.073-.462.224-.482.565-.441" transform="translate(-210.868 -82.764)"/>
      <path id="Trazado_126973" data-name="Trazado 126973" d="M2.041,77.938c.5-.1.781.07.7.64-.069.477.1.742.623.66s.705.109.709.664c0,.582-.234.716-.729.649-.473-.064-.624.142-.615.613.015.738-.442,1.022-1.156.8-.339-.106-.265-.377-.243-.59.059-.583-.074-.941-.763-.824C.032,80.639,0,80.3,0,79.9s.017-.74.558-.656c.583.09.859-.123.762-.739-.092-.588.285-.614.72-.562" transform="translate(3 -73.049)" fill="#29c4bb"/>
      <path id="Trazado_126975" data-name="Trazado 126975" d="M2.041,77.938c.5-.1.781.07.7.64-.069.477.1.742.623.66s.705.109.709.664c0,.582-.234.716-.729.649-.473-.064-.624.142-.615.613.015.738-.442,1.022-1.156.8-.339-.106-.265-.377-.243-.59.059-.583-.074-.941-.763-.824C.032,80.639,0,80.3,0,79.9s.017-.74.558-.656c.583.09.859-.123.762-.739-.092-.588.285-.614.72-.562" transform="translate(41.583 -29.987)" fill="#29c4bb"/>
      <g id="gestion-del-tiempo" transform="translate(3.953 6.287)">
        <g id="Grupo_157679" data-name="Grupo 157679" transform="translate(0.546 2.248)">
          <g id="Grupo_157675" data-name="Grupo 157675" transform="translate(11.442)">
            <circle id="Elipse_4912" data-name="Elipse 4912" cx="9.392" cy="9.392" r="9.392" transform="translate(0 0)" fill="#d3effb"/>
            <path id="Trazado_130958" data-name="Trazado 130958" d="M167.765,27.475a9.392,9.392,0,1,1,0-18.512,9.394,9.394,0,0,0,0,18.512Z" transform="translate(-156.732 -8.827)" fill="#9dc6fb"/>
            <path id="Trazado_130959" data-name="Trazado 130959" d="M211.754,118.034H207.39a1.2,1.2,0,0,1,0-2.393h4.363a1.2,1.2,0,0,1,0,2.393Z" transform="translate(-202.362 -107.445)" fill="#365e7d"/>
            <path id="Trazado_130960" data-name="Trazado 130960" d="M264.258,81.273a1.2,1.2,0,0,1-1.2-1.2V77.021a1.2,1.2,0,0,1,2.393,0v3.055A1.2,1.2,0,0,1,264.258,81.273Z" transform="translate(-254.867 -70.684)" fill="#2b4d66"/>
          </g>
          <g id="Grupo_157677" data-name="Grupo 157677" transform="translate(0 15.011)">
            <path id="Trazado_130961" data-name="Trazado 130961" d="M231.464,263.711l9.858-5.718a2.669,2.669,0,0,1,3.365,4.071l-10.956,4.7Z" transform="translate(-214.251 -253.529)" fill="#eaac9d"/>
            <path id="Trazado_130962" data-name="Trazado 130962" d="M284.685,266.864l9.858-5.718a2.669,2.669,0,0,1,3.365,4.071l-10.956,4.7Z" transform="translate(-263.389 -256.44)" fill="#ffcbbe"/>
            <path id="Trazado_130963" data-name="Trazado 130963" d="M110.883,212.493a2.662,2.662,0,0,1-.687,1.789l-1.822,2.018-3.74,4.142a3.883,3.883,0,0,1-2.391,1.25l-16.886,2.151-4.314-7.5c-.033-.054-.064-.109-.1-.164l-.015-.026-.216-.378-.011-.017-.931-1.617L78.2,211.4l3.971-3.049a19.4,19.4,0,0,1,6.158-3.171c.094-.029.188-.058.282-.084a19.586,19.586,0,0,1,2.054-.474l.688-.12a2.667,2.667,0,0,1,3.07,2.095,2.62,2.62,0,0,1,.054.533,2.666,2.666,0,0,1-1.114,2.168l-4.382,3.14,11.747,1.468,6.1-3.7a2.67,2.67,0,0,1,4.053,2.283Z" transform="translate(-72.749 -204.465)" fill="#ffddce"/>
            <g id="Grupo_157676" data-name="Grupo 157676" transform="translate(5.453 0.159)">
              <path id="Trazado_130964" data-name="Trazado 130964" d="M90.668,206.544c-5.165,1.51-9.289,7.072-10.892,9.515L78.2,213.322l3.971-3.049a19.4,19.4,0,0,1,6.158-3.171c.094-.029.188-.058.282-.084a19.586,19.586,0,0,1,2.054-.474Z" transform="translate(-78.202 -206.544)" fill="#ffcbbe"/>
              <path id="Trazado_130965" data-name="Trazado 130965" d="M142.559,358.7l-3.74,4.142a3.881,3.881,0,0,1-2.391,1.25l-16.885,2.151-4.314-7.5C120.332,367.38,140.514,360.97,142.559,358.7Z" transform="translate(-112.388 -347.03)" fill="#ffcbbe"/>
              <path id="Trazado_130966" data-name="Trazado 130966" d="M110.978,351.857c.073.123.144.248.216.377Z" transform="translate(-108.463 -340.707)" fill="#ffcbbe"/>
            </g>
            <path id="Trazado_130967" data-name="Trazado 130967" d="M19.74,307.33l-5.453,3.486-3.4-5.915-3.752-6.523,5.453-3.486,4.1,7.121Z" transform="translate(-7.132 -287.953)" fill="#9dc6fb"/>
            <path id="Trazado_130968" data-name="Trazado 130968" d="M64.888,393.018,59.435,396.5l-3.4-5.915a6.4,6.4,0,0,0,5.8-2.888Z" transform="translate(-52.28 -373.642)" fill="#698ed5"/>
            <circle id="Elipse_4913" data-name="Elipse 4913" cx="1.174" cy="1.174" r="1.174" transform="translate(7.178 17.453)" fill="#f9f6f9"/>
          </g>
          <g id="Grupo_157678" data-name="Grupo 157678" transform="translate(4.899 0.371)">
            <path id="Trazado_130969" data-name="Trazado 130969" d="M95.306,16.148l-.077.134a1.037,1.037,0,0,1-1.354.413l-1.506-.737a1.037,1.037,0,0,1-.442-1.45l.192-.333a1.037,1.037,0,0,1,1.477-.342l1.391.936A1.037,1.037,0,0,1,95.306,16.148Z" transform="translate(-90.192 -13.657)" fill="#f6e266"/>
            <path id="Trazado_130970" data-name="Trazado 130970" d="M417.076,169.351l.077-.134a1.037,1.037,0,0,1,1.354-.413l1.506.737a1.037,1.037,0,0,1,.442,1.45l-.192.333a1.037,1.037,0,0,1-1.477.342l-1.391-.936A1.037,1.037,0,0,1,417.076,169.351Z" transform="translate(-390.393 -156.802)" fill="#f6e266"/>
            <path id="Trazado_130971" data-name="Trazado 130971" d="M74.73,96.8v.155a1.037,1.037,0,0,1-.966,1.034l-1.673.115a1.037,1.037,0,0,1-1.108-1.034v-.384a1.037,1.037,0,0,1,1.108-1.034l1.673.115A1.037,1.037,0,0,1,74.73,96.8Z" transform="translate(-70.984 -89.355)" fill="#f6e266"/>
            <path id="Trazado_130972" data-name="Trazado 130972" d="M436.58,96.953V96.8a1.037,1.037,0,0,1,.966-1.034l1.673-.115a1.037,1.037,0,0,1,1.108,1.034v.384a1.037,1.037,0,0,1-1.108,1.034l-1.673-.115A1.037,1.037,0,0,1,436.58,96.953Z" transform="translate(-408.528 -89.356)" fill="#f6e266"/>
            <path id="Trazado_130973" data-name="Trazado 130973" d="M95.228,169.216l.077.134a1.037,1.037,0,0,1-.319,1.379l-1.391.936a1.037,1.037,0,0,1-1.477-.342l-.192-.333a1.037,1.037,0,0,1,.442-1.45l1.506-.737A1.037,1.037,0,0,1,95.228,169.216Z" transform="translate(-90.191 -156.802)" fill="#f6e266"/>
            <path id="Trazado_130974" data-name="Trazado 130974" d="M417.154,16.283l-.077-.134a1.037,1.037,0,0,1,.319-1.379l1.391-.936a1.037,1.037,0,0,1,1.477.342l.192.333a1.037,1.037,0,0,1-.442,1.45l-1.506.737A1.037,1.037,0,0,1,417.154,16.283Z" transform="translate(-390.393 -13.658)" fill="#f6e266"/>
          </g>
        </g>
        <g id="Grupo_157680" data-name="Grupo 157680" transform="translate(-0.001 1.701)">
          <path id="Trazado_130975" data-name="Trazado 130975" d="M206.67,73.415V70.364a1.769,1.769,0,1,0-3.539,0v1.281h-2.588a1.769,1.769,0,0,0-1.491,2.721.575.575,0,1,0,.968-.62.613.613,0,0,1-.1-.331.621.621,0,0,1,.62-.621h2.588v.62a1.759,1.759,0,0,0,.112.62h-1.551a.575.575,0,1,0,0,1.149H204.9A1.771,1.771,0,0,0,206.67,73.415Zm-2.389-3.051a.62.62,0,1,1,1.24,0v3.051a.62.62,0,1,1-1.24,0Z" transform="translate(-183.522 -63.462)"/>
          <path id="Trazado_130976" data-name="Trazado 130976" d="M38.535,23.279a3.243,3.243,0,0,0-3.057-1.2,3.241,3.241,0,0,0-4.088-.612l-.228.132a3.252,3.252,0,0,0-3.85-.374l-6.719,3.9-2.279-.285L21.5,22.56a3.229,3.229,0,0,0,.914-1.008,9.952,9.952,0,1,0-8.53-3.353,19.985,19.985,0,0,0-4.246,2.492L5.686,23.723.264,27.189a.575.575,0,0,0-.189.771L7.22,40.38a.575.575,0,0,0,.808.2l5.337-3.411,13.394-1.706a.575.575,0,0,0-.145-1.14L13.471,35.995l-6.7-11.653L10.334,21.6a18.875,18.875,0,0,1,8.232-3.612l.687-.12a2.078,2.078,0,0,1,2.4,1.639,2.09,2.09,0,0,1-.83,2.116l-4.376,3.134a.575.575,0,0,0,.263,1.037l11.731,1.466a.574.574,0,0,0,.369-.079L34.9,23.493a2.091,2.091,0,0,1,2.635,3.189l-5.554,6.151A3.3,3.3,0,0,1,29.952,33.9l-1.061.135a.575.575,0,1,0,.145,1.14l1.061-.135A4.45,4.45,0,0,0,32.838,33.6l5.554-6.151a3.24,3.24,0,0,0,.143-4.173ZM7.916,39.285,1.345,27.862,5.821,25l6.571,11.423Zm11.14-22.547-.687.119a19.889,19.889,0,0,0-3.345.889,8.877,8.877,0,0,1-.97-1.2l.517-.3a.575.575,0,1,0-.575-1l-.519.3a8.726,8.726,0,0,1-.885-3.323h1.39a.575.575,0,0,0,0-1.149h-1.39a8.737,8.737,0,0,1,.89-3.319l.513.3a.575.575,0,1,0,.575-1l-.512-.3a8.876,8.876,0,0,1,2.429-2.429l.3.512a.575.575,0,1,0,1-.575l-.3-.513a8.738,8.738,0,0,1,3.319-.89v1.39a.575.575,0,0,0,1.149,0V2.869a8.739,8.739,0,0,1,3.319.89l-.3.513a.575.575,0,1,0,1,.575l.3-.511A8.876,8.876,0,0,1,28.7,6.765l-.512.3a.575.575,0,1,0,.575,1l.513-.3a8.737,8.737,0,0,1,.891,3.32h-1.39a.575.575,0,1,0,0,1.149h1.39a8.765,8.765,0,0,1-.888,3.321l-.516-.3a.575.575,0,0,0-.575,1l.515.3a8.865,8.865,0,0,1-2.431,2.431l-.3-.515a.575.575,0,1,0-1,.575l.3.516a8.744,8.744,0,0,1-2.452.788,3.224,3.224,0,0,0,.027-.41,3.271,3.271,0,0,0-.065-.648,3.223,3.223,0,0,0-3.727-2.542Zm8.838,5.481.01-.006a2.1,2.1,0,0,1,2.184.012l-5.8,3.361-1.814-.227Zm.5,3.88-2.213-.277,5.795-3.361.01-.006a2.091,2.091,0,0,1,2.287.079Z" transform="translate(0.001 -1.701)"/>
          <path id="Trazado_130977" data-name="Trazado 130977" d="M95.169,424.192a1.747,1.747,0,1,0,1.747,1.747A1.749,1.749,0,0,0,95.169,424.192Zm0,2.344a.6.6,0,1,1,.6-.6A.6.6,0,0,1,95.169,426.536Z" transform="translate(-86.254 -391.775)"/>
          <path id="Trazado_130978" data-name="Trazado 130978" d="M85.446,9.912l1.5.736a1.6,1.6,0,0,0,.7.163,1.615,1.615,0,0,0,1.4-.8l.077-.134a1.615,1.615,0,0,0-.5-2.141L87.244,6.8a1.61,1.61,0,0,0-2.293.531l-.192.332a1.61,1.61,0,0,0,.687,2.251Zm.309-1.676.192-.332a.456.456,0,0,1,.3-.218.467.467,0,0,1,.105-.012.456.456,0,0,1,.256.079l1.389.934a.462.462,0,0,1,.142.613h0l-.077.134a.462.462,0,0,1-.6.184l-1.5-.736a.461.461,0,0,1-.2-.644Z" transform="translate(-78.057 -6.154)"/>
          <path id="Trazado_130979" data-name="Trazado 130979" d="M409.944,164.428l1.389.934a1.61,1.61,0,0,0,2.293-.531l.192-.332a1.61,1.61,0,0,0-.687-2.251l-1.5-.736a1.615,1.615,0,0,0-2.1.641l-.077.134h0A1.615,1.615,0,0,0,409.944,164.428Zm.5-1.566.077-.134a.462.462,0,0,1,.6-.183l1.5.736a.461.461,0,0,1,.2.644l-.192.332a.461.461,0,0,1-.656.152l-1.389-.934A.462.462,0,0,1,410.443,162.862Z" transform="translate(-377.833 -149.1)"/>
          <path id="Trazado_130980" data-name="Trazado 130980" d="M64.273,91.559a1.616,1.616,0,0,0,1.1.433q.054,0,.109,0l1.67-.115a1.615,1.615,0,0,0,1.5-1.606v-.154a1.615,1.615,0,0,0-1.5-1.606l-1.67-.115A1.61,1.61,0,0,0,63.762,90v.383A1.615,1.615,0,0,0,64.273,91.559ZM64.911,90a.461.461,0,0,1,.46-.461H65.4l1.67.115a.462.462,0,0,1,.429.46v.154a.462.462,0,0,1-.429.46l-1.67.115a.461.461,0,0,1-.492-.46Z" transform="translate(-58.87 -81.737)"/>
          <path id="Trazado_130981" data-name="Trazado 130981" d="M432,88.393l-1.67.115a1.615,1.615,0,0,0-1.5,1.606v.154a1.615,1.615,0,0,0,1.5,1.606l1.67.115q.055,0,.109,0a1.61,1.61,0,0,0,1.611-1.61V90A1.61,1.61,0,0,0,432,88.393Zm.425,1.269a.456.456,0,0,1,.146.337v.383a.461.461,0,0,1-.492.46l-1.67-.115a.462.462,0,0,1-.429-.46v-.154a.462.462,0,0,1,.429-.46l1.67-.115h.033A.455.455,0,0,1,432.426,89.662Z" transform="translate(-395.927 -81.738)"/>
          <path id="Trazado_130982" data-name="Trazado 130982" d="M89.051,162.153h0a1.615,1.615,0,0,0-2.1-.641l-1.5.736a1.61,1.61,0,0,0-.687,2.251l.192.332a1.611,1.611,0,0,0,2.293.531l1.389-.934a1.615,1.615,0,0,0,.5-2.141Zm-1.06,1.321-1.389.934a.461.461,0,0,1-.656-.152l-.192-.332a.461.461,0,0,1,.2-.644l1.5-.736a.457.457,0,0,1,.2-.047.462.462,0,0,1,.4.23l.077.134A.462.462,0,0,1,87.991,163.474Z" transform="translate(-78.056 -149.1)"/>
          <path id="Trazado_130983" data-name="Trazado 130983" d="M409.526,10.007a1.614,1.614,0,0,0,1.4.8,1.6,1.6,0,0,0,.7-.163l1.5-.736a1.61,1.61,0,0,0,.687-2.251l-.192-.332a1.61,1.61,0,0,0-2.293-.531l-1.389.934a1.615,1.615,0,0,0-.5,2.141Zm1.06-1.321,1.389-.934a.456.456,0,0,1,.256-.079.466.466,0,0,1,.105.012.456.456,0,0,1,.3.219l.192.332a.461.461,0,0,1-.2.644l-1.5.736a.462.462,0,0,1-.6-.183h0l-.077-.133A.462.462,0,0,1,410.586,8.686Z" transform="translate(-377.834 -6.154)"/>
        </g>
      </g>
    </g>
  </g>
</svg>
