<svg xmlns="http://www.w3.org/2000/svg" width="85.523" height="70.967" viewBox="0 0 85.523 70.967">
  <g id="Grupo_156495" data-name="Grupo 156495" transform="translate(-179.477 -2749)">
    <path id="Trazado_99257" data-name="Trazado 99257" d="M418.688,104.917a2.239,2.239,0,1,1-2.238-2.138A2.19,2.19,0,0,1,418.688,104.917Z" transform="translate(-234.737 2646.221)" fill="#1169e3"/>
    <path id="Trazado_116526" data-name="Trazado 116526" d="M418.688,104.917a2.239,2.239,0,1,1-2.238-2.138A2.19,2.19,0,0,1,418.688,104.917Z" transform="translate(-184.081 2646.221)" fill="#1169e3"/>
    <path id="Trazado_99258" data-name="Trazado 99258" d="M427.134,104.917a2.239,2.239,0,1,1-2.236-2.138A2.189,2.189,0,0,1,427.134,104.917Z" transform="translate(-233.052 2646.221)" fill="#1169e3"/>
    <path id="Trazado_116527" data-name="Trazado 116527" d="M427.134,104.917a2.239,2.239,0,1,1-2.236-2.138A2.189,2.189,0,0,1,427.134,104.917Z" transform="translate(-182.396 2646.221)" fill="#1169e3"/>
    <path id="Trazado_99259" data-name="Trazado 99259" d="M435.58,104.917a2.239,2.239,0,1,1-2.236-2.138A2.189,2.189,0,0,1,435.58,104.917Z" transform="translate(-231.366 2646.221)" fill="#1169e3"/>
    <path id="Trazado_116531" data-name="Trazado 116531" d="M435.58,104.917a2.239,2.239,0,1,1-2.236-2.138A2.189,2.189,0,0,1,435.58,104.917Z" transform="translate(-180.711 2646.221)" fill="#1169e3"/>
    <path id="Trazado_99260" data-name="Trazado 99260" d="M444.027,104.917a2.239,2.239,0,1,1-2.238-2.138A2.19,2.19,0,0,1,444.027,104.917Z" transform="translate(-229.683 2646.221)" fill="#1169e3"/>
    <path id="Trazado_116532" data-name="Trazado 116532" d="M444.027,104.917a2.239,2.239,0,1,1-2.238-2.138A2.19,2.19,0,0,1,444.027,104.917Z" transform="translate(-179.027 2646.221)" fill="#1169e3"/>
    <path id="Trazado_99261" data-name="Trazado 99261" d="M452.473,104.917a2.239,2.239,0,1,1-2.236-2.138A2.189,2.189,0,0,1,452.473,104.917Z" transform="translate(-227.997 2646.221)" fill="#1169e3"/>
    <ellipse id="Elipse_3975" data-name="Elipse 3975" cx="2.237" cy="2.139" rx="2.237" ry="2.139" transform="translate(179.477 2760.113)" fill="#1169e3"/>
    <ellipse id="Elipse_4742" data-name="Elipse 4742" cx="2.237" cy="2.139" rx="2.237" ry="2.139" transform="translate(230.133 2760.113)" fill="#1169e3"/>
    <path id="Trazado_99268" data-name="Trazado 99268" d="M427.134,112.425a2.239,2.239,0,1,1-2.236-2.138A2.19,2.19,0,0,1,427.134,112.425Z" transform="translate(-233.052 2649.825)" fill="#1169e3"/>
    <path id="Trazado_116528" data-name="Trazado 116528" d="M427.134,112.425a2.239,2.239,0,1,1-2.236-2.138A2.19,2.19,0,0,1,427.134,112.425Z" transform="translate(-182.396 2649.825)" fill="#1169e3"/>
    <ellipse id="Elipse_3976" data-name="Elipse 3976" cx="2.237" cy="2.139" rx="2.237" ry="2.139" transform="translate(199.74 2760.113)" fill="#1169e3"/>
    <ellipse id="Elipse_4743" data-name="Elipse 4743" cx="2.237" cy="2.139" rx="2.237" ry="2.139" transform="translate(250.395 2760.113)" fill="#1169e3"/>
    <path id="Trazado_99269" data-name="Trazado 99269" d="M444.027,112.425a2.239,2.239,0,1,1-2.238-2.138A2.191,2.191,0,0,1,444.027,112.425Z" transform="translate(-229.683 2649.825)" fill="#1169e3"/>
    <path id="Trazado_116533" data-name="Trazado 116533" d="M444.027,112.425a2.239,2.239,0,1,1-2.238-2.138A2.191,2.191,0,0,1,444.027,112.425Z" transform="translate(-179.027 2649.825)" fill="#1169e3"/>
    <path id="Trazado_99270" data-name="Trazado 99270" d="M452.473,112.425a2.239,2.239,0,1,1-2.236-2.138A2.19,2.19,0,0,1,452.473,112.425Z" transform="translate(-227.997 2649.825)" fill="#1169e3"/>
    <path id="Trazado_99274" data-name="Trazado 99274" d="M418.688,119.934a2.239,2.239,0,1,1-2.238-2.14A2.191,2.191,0,0,1,418.688,119.934Z" transform="translate(-234.737 2653.432)" fill="#1169e3"/>
    <path id="Trazado_126836" data-name="Trazado 126836" d="M418.688,119.934a2.239,2.239,0,1,1-2.238-2.14A2.191,2.191,0,0,1,418.688,119.934Z" transform="translate(-234.737 2675.662)" fill="#1169e3"/>
    <path id="Trazado_116529" data-name="Trazado 116529" d="M418.688,119.934a2.239,2.239,0,1,1-2.238-2.14A2.191,2.191,0,0,1,418.688,119.934Z" transform="translate(-184.081 2653.432)" fill="#1169e3"/>
    <path id="Trazado_126827" data-name="Trazado 126827" d="M418.688,119.934a2.239,2.239,0,1,1-2.238-2.14A2.191,2.191,0,0,1,418.688,119.934Z" transform="translate(-184.081 2675.662)" fill="#1169e3"/>
    <path id="Trazado_99275" data-name="Trazado 99275" d="M427.134,119.934a2.239,2.239,0,1,1-2.236-2.14A2.19,2.19,0,0,1,427.134,119.934Z" transform="translate(-233.052 2653.432)" fill="#1169e3"/>
    <path id="Trazado_126828" data-name="Trazado 126828" d="M427.134,119.934a2.239,2.239,0,1,1-2.236-2.14A2.19,2.19,0,0,1,427.134,119.934Z" transform="translate(-233.052 2675.662)" fill="#1169e3"/>
    <path id="Trazado_116530" data-name="Trazado 116530" d="M427.134,119.934a2.239,2.239,0,1,1-2.236-2.14A2.19,2.19,0,0,1,427.134,119.934Z" transform="translate(-182.396 2653.432)" fill="#1169e3"/>
    <path id="Trazado_126829" data-name="Trazado 126829" d="M427.134,119.934a2.239,2.239,0,1,1-2.236-2.14A2.19,2.19,0,0,1,427.134,119.934Z" transform="translate(-182.396 2675.662)" fill="#1169e3"/>
    <path id="Trazado_99276" data-name="Trazado 99276" d="M435.58,119.934a2.239,2.239,0,1,1-2.236-2.14A2.191,2.191,0,0,1,435.58,119.934Z" transform="translate(-231.366 2653.432)" fill="#1169e3"/>
    <path id="Trazado_126830" data-name="Trazado 126830" d="M435.58,119.934a2.239,2.239,0,1,1-2.236-2.14A2.191,2.191,0,0,1,435.58,119.934Z" transform="translate(-231.366 2675.662)" fill="#1169e3"/>
    <path id="Trazado_116534" data-name="Trazado 116534" d="M435.58,119.934a2.239,2.239,0,1,1-2.236-2.14A2.191,2.191,0,0,1,435.58,119.934Z" transform="translate(-180.711 2653.432)" fill="#1169e3"/>
    <path id="Trazado_126831" data-name="Trazado 126831" d="M435.58,119.934a2.239,2.239,0,1,1-2.236-2.14A2.191,2.191,0,0,1,435.58,119.934Z" transform="translate(-180.711 2675.662)" fill="#1169e3"/>
    <path id="Trazado_99277" data-name="Trazado 99277" d="M444.027,119.934a2.239,2.239,0,1,1-2.238-2.14A2.191,2.191,0,0,1,444.027,119.934Z" transform="translate(-229.683 2653.432)" fill="#1169e3"/>
    <path id="Trazado_126832" data-name="Trazado 126832" d="M444.027,119.934a2.239,2.239,0,1,1-2.238-2.14A2.191,2.191,0,0,1,444.027,119.934Z" transform="translate(-229.683 2675.662)" fill="#1169e3"/>
    <path id="Trazado_116535" data-name="Trazado 116535" d="M444.027,119.934a2.239,2.239,0,1,1-2.238-2.14A2.191,2.191,0,0,1,444.027,119.934Z" transform="translate(-179.027 2653.432)" fill="#1169e3"/>
    <path id="Trazado_126833" data-name="Trazado 126833" d="M444.027,119.934a2.239,2.239,0,1,1-2.238-2.14A2.191,2.191,0,0,1,444.027,119.934Z" transform="translate(-179.027 2675.662)" fill="#1169e3"/>
    <path id="Trazado_99278" data-name="Trazado 99278" d="M452.473,119.934a2.239,2.239,0,1,1-2.236-2.14A2.19,2.19,0,0,1,452.473,119.934Z" transform="translate(-227.997 2653.432)" fill="#1169e3"/>
    <path id="Trazado_126834" data-name="Trazado 126834" d="M452.473,119.934a2.239,2.239,0,1,1-2.236-2.14A2.19,2.19,0,0,1,452.473,119.934Z" transform="translate(-227.997 2675.662)" fill="#1169e3"/>
    <ellipse id="Elipse_3980" data-name="Elipse 3980" cx="2.237" cy="2.139" rx="2.237" ry="2.139" transform="translate(179.477 2782.343)" fill="#1169e3"/>
    <ellipse id="Elipse_4802" data-name="Elipse 4802" cx="2.237" cy="2.139" rx="2.237" ry="2.139" transform="translate(179.477 2804.573)" fill="#1169e3"/>
    <ellipse id="Elipse_4806" data-name="Elipse 4806" cx="2.237" cy="2.139" rx="2.237" ry="2.139" transform="translate(179.477 2815.688)" fill="#1169e3"/>
    <ellipse id="Elipse_4744" data-name="Elipse 4744" cx="2.237" cy="2.139" rx="2.237" ry="2.139" transform="translate(230.133 2782.343)" fill="#1169e3"/>
    <ellipse id="Elipse_4799" data-name="Elipse 4799" cx="2.237" cy="2.139" rx="2.237" ry="2.139" transform="translate(230.133 2804.573)" fill="#1169e3"/>
    <ellipse id="Elipse_4803" data-name="Elipse 4803" cx="2.237" cy="2.139" rx="2.237" ry="2.139" transform="translate(230.133 2815.688)" fill="#1169e3"/>
    <path id="Trazado_99285" data-name="Trazado 99285" d="M427.134,127.442a2.239,2.239,0,1,1-2.236-2.14A2.189,2.189,0,0,1,427.134,127.442Z" transform="translate(-233.052 2657.039)" fill="#1169e3"/>
    <path id="Trazado_126835" data-name="Trazado 126835" d="M427.134,127.442a2.239,2.239,0,1,1-2.236-2.14A2.189,2.189,0,0,1,427.134,127.442Z" transform="translate(-233.052 2679.27)" fill="#1169e3"/>
    <path id="Trazado_126841" data-name="Trazado 126841" d="M427.134,127.442a2.239,2.239,0,1,1-2.236-2.14A2.189,2.189,0,0,1,427.134,127.442Z" transform="translate(-233.052 2690.385)" fill="#1169e3"/>
    <path id="Trazado_116536" data-name="Trazado 116536" d="M427.134,127.442a2.239,2.239,0,1,1-2.236-2.14A2.189,2.189,0,0,1,427.134,127.442Z" transform="translate(-182.396 2657.039)" fill="#1169e3"/>
    <path id="Trazado_126823" data-name="Trazado 126823" d="M427.134,127.442a2.239,2.239,0,1,1-2.236-2.14A2.189,2.189,0,0,1,427.134,127.442Z" transform="translate(-182.396 2679.27)" fill="#1169e3"/>
    <path id="Trazado_126837" data-name="Trazado 126837" d="M427.134,127.442a2.239,2.239,0,1,1-2.236-2.14A2.189,2.189,0,0,1,427.134,127.442Z" transform="translate(-182.396 2690.385)" fill="#1169e3"/>
    <ellipse id="Elipse_3981" data-name="Elipse 3981" cx="2.237" cy="2.139" rx="2.237" ry="2.139" transform="translate(199.74 2782.343)" fill="#1169e3"/>
    <ellipse id="Elipse_4801" data-name="Elipse 4801" cx="2.237" cy="2.139" rx="2.237" ry="2.139" transform="translate(199.74 2804.573)" fill="#1169e3"/>
    <ellipse id="Elipse_4805" data-name="Elipse 4805" cx="2.237" cy="2.139" rx="2.237" ry="2.139" transform="translate(199.74 2815.688)" fill="#1169e3"/>
    <ellipse id="Elipse_4745" data-name="Elipse 4745" cx="2.237" cy="2.139" rx="2.237" ry="2.139" transform="translate(250.395 2782.343)" fill="#1169e3"/>
    <ellipse id="Elipse_4800" data-name="Elipse 4800" cx="2.237" cy="2.139" rx="2.237" ry="2.139" transform="translate(250.395 2804.573)" fill="#1169e3"/>
    <ellipse id="Elipse_4804" data-name="Elipse 4804" cx="2.237" cy="2.139" rx="2.237" ry="2.139" transform="translate(250.395 2815.688)" fill="#1169e3"/>
    <path id="Trazado_99286" data-name="Trazado 99286" d="M444.027,127.442a2.239,2.239,0,1,1-2.238-2.14A2.189,2.189,0,0,1,444.027,127.442Z" transform="translate(-229.683 2657.039)" fill="#1169e3"/>
    <path id="Trazado_126826" data-name="Trazado 126826" d="M444.027,127.442a2.239,2.239,0,1,1-2.238-2.14A2.189,2.189,0,0,1,444.027,127.442Z" transform="translate(-229.683 2679.27)" fill="#1169e3"/>
    <path id="Trazado_126838" data-name="Trazado 126838" d="M444.027,127.442a2.239,2.239,0,1,1-2.238-2.14A2.189,2.189,0,0,1,444.027,127.442Z" transform="translate(-229.683 2690.385)" fill="#1169e3"/>
    <path id="Trazado_116537" data-name="Trazado 116537" d="M444.027,127.442a2.239,2.239,0,1,1-2.238-2.14A2.189,2.189,0,0,1,444.027,127.442Z" transform="translate(-179.027 2657.039)" fill="#1169e3"/>
    <path id="Trazado_126824" data-name="Trazado 126824" d="M444.027,127.442a2.239,2.239,0,1,1-2.238-2.14A2.189,2.189,0,0,1,444.027,127.442Z" transform="translate(-179.027 2679.27)" fill="#1169e3"/>
    <path id="Trazado_126839" data-name="Trazado 126839" d="M444.027,127.442a2.239,2.239,0,1,1-2.238-2.14A2.189,2.189,0,0,1,444.027,127.442Z" transform="translate(-179.027 2690.385)" fill="#1169e3"/>
    <path id="Trazado_99287" data-name="Trazado 99287" d="M452.473,127.442a2.239,2.239,0,1,1-2.236-2.14A2.189,2.189,0,0,1,452.473,127.442Z" transform="translate(-227.997 2657.039)" fill="#1169e3"/>
    <path id="Trazado_126825" data-name="Trazado 126825" d="M452.473,127.442a2.239,2.239,0,1,1-2.236-2.14A2.189,2.189,0,0,1,452.473,127.442Z" transform="translate(-227.997 2679.27)" fill="#1169e3"/>
    <path id="Trazado_126840" data-name="Trazado 126840" d="M452.473,127.442a2.239,2.239,0,1,1-2.236-2.14A2.189,2.189,0,0,1,452.473,127.442Z" transform="translate(-227.997 2690.385)" fill="#1169e3"/>
  </g>
</svg>
