<svg xmlns="http://www.w3.org/2000/svg" xmlns:xlink="http://www.w3.org/1999/xlink" width="295.001" height="187.328" viewBox="0 0 295.001 187.328">
  <defs>
    <clipPath id="clip-path">
      <rect id="Rect치ngulo_36783" data-name="Rect치ngulo 36783" width="230" height="187.328" fill="none"/>
    </clipPath>
  </defs>
  <g id="Grupo_86284" data-name="Grupo 86284" transform="translate(-1125 -393.399)">
    <g id="Grupo_86281" data-name="Grupo 86281" transform="translate(1104.559 -468.811)">
      <path id="Trazado_99257" data-name="Trazado 99257" d="M421.327,106.178a3.56,3.56,0,1,1-3.558-3.4A3.481,3.481,0,0,1,421.327,106.178Z" transform="translate(-234.737 884.221)" fill="#1169e3"/>
      <path id="Trazado_116526" data-name="Trazado 116526" d="M421.327,106.178a3.56,3.56,0,1,1-3.558-3.4A3.481,3.481,0,0,1,421.327,106.178Z" transform="translate(-154.204 884.221)" fill="#1169e3"/>
      <path id="Trazado_99258" data-name="Trazado 99258" d="M429.772,106.178a3.56,3.56,0,1,1-3.554-3.4A3.48,3.48,0,0,1,429.772,106.178Z" transform="translate(-227.077 884.221)" fill="#1169e3"/>
      <path id="Trazado_116527" data-name="Trazado 116527" d="M429.772,106.178a3.56,3.56,0,1,1-3.554-3.4A3.48,3.48,0,0,1,429.772,106.178Z" transform="translate(-146.543 884.221)" fill="#1169e3"/>
      <path id="Trazado_99259" data-name="Trazado 99259" d="M438.218,106.178a3.56,3.56,0,1,1-3.554-3.4A3.48,3.48,0,0,1,438.218,106.178Z" transform="translate(-219.416 884.221)" fill="#1169e3"/>
      <path id="Trazado_116531" data-name="Trazado 116531" d="M438.218,106.178a3.56,3.56,0,1,1-3.554-3.4A3.48,3.48,0,0,1,438.218,106.178Z" transform="translate(-138.883 884.221)" fill="#1169e3"/>
      <path id="Trazado_99260" data-name="Trazado 99260" d="M446.665,106.178a3.56,3.56,0,1,1-3.558-3.4A3.481,3.481,0,0,1,446.665,106.178Z" transform="translate(-211.757 884.221)" fill="#1169e3"/>
      <path id="Trazado_116532" data-name="Trazado 116532" d="M446.665,106.178a3.56,3.56,0,1,1-3.558-3.4A3.481,3.481,0,0,1,446.665,106.178Z" transform="translate(-131.223 884.221)" fill="#1169e3"/>
      <path id="Trazado_99261" data-name="Trazado 99261" d="M455.111,106.178a3.56,3.56,0,1,1-3.554-3.4A3.48,3.48,0,0,1,455.111,106.178Z" transform="translate(-204.096 884.221)" fill="#1169e3"/>
      <ellipse id="Elipse_3975" data-name="Elipse 3975" cx="3.556" cy="3.401" rx="3.556" ry="3.401" transform="translate(179.477 1004.668)" fill="#1169e3"/>
      <ellipse id="Elipse_4742" data-name="Elipse 4742" cx="3.556" cy="3.401" rx="3.556" ry="3.401" transform="translate(260.01 1004.668)" fill="#1169e3"/>
      <path id="Trazado_99268" data-name="Trazado 99268" d="M429.772,113.686a3.56,3.56,0,1,1-3.554-3.4A3.482,3.482,0,0,1,429.772,113.686Z" transform="translate(-227.077 894.38)" fill="#1169e3"/>
      <path id="Trazado_116528" data-name="Trazado 116528" d="M429.772,113.686a3.56,3.56,0,1,1-3.554-3.4A3.482,3.482,0,0,1,429.772,113.686Z" transform="translate(-146.543 894.38)" fill="#1169e3"/>
      <ellipse id="Elipse_3976" data-name="Elipse 3976" cx="3.556" cy="3.401" rx="3.556" ry="3.401" transform="translate(211.69 1004.668)" fill="#1169e3"/>
      <ellipse id="Elipse_4743" data-name="Elipse 4743" cx="3.556" cy="3.401" rx="3.556" ry="3.401" transform="translate(292.224 1004.668)" fill="#1169e3"/>
      <path id="Trazado_99269" data-name="Trazado 99269" d="M446.665,113.686a3.56,3.56,0,1,1-3.558-3.4A3.483,3.483,0,0,1,446.665,113.686Z" transform="translate(-211.757 894.38)" fill="#1169e3"/>
      <path id="Trazado_116533" data-name="Trazado 116533" d="M446.665,113.686a3.56,3.56,0,1,1-3.558-3.4A3.483,3.483,0,0,1,446.665,113.686Z" transform="translate(-131.223 894.38)" fill="#1169e3"/>
      <path id="Trazado_99270" data-name="Trazado 99270" d="M455.111,113.686a3.56,3.56,0,1,1-3.554-3.4A3.482,3.482,0,0,1,455.111,113.686Z" transform="translate(-204.096 894.38)" fill="#1169e3"/>
      <path id="Trazado_99274" data-name="Trazado 99274" d="M421.327,121.2a3.56,3.56,0,1,1-3.558-3.4A3.484,3.484,0,0,1,421.327,121.2Z" transform="translate(-234.737 904.541)" fill="#1169e3"/>
      <path id="Trazado_116529" data-name="Trazado 116529" d="M421.327,121.2a3.56,3.56,0,1,1-3.558-3.4A3.484,3.484,0,0,1,421.327,121.2Z" transform="translate(-154.204 904.541)" fill="#1169e3"/>
      <path id="Trazado_99275" data-name="Trazado 99275" d="M429.772,121.2a3.56,3.56,0,1,1-3.554-3.4A3.482,3.482,0,0,1,429.772,121.2Z" transform="translate(-227.077 904.541)" fill="#1169e3"/>
      <path id="Trazado_116530" data-name="Trazado 116530" d="M429.772,121.2a3.56,3.56,0,1,1-3.554-3.4A3.482,3.482,0,0,1,429.772,121.2Z" transform="translate(-146.543 904.541)" fill="#1169e3"/>
      <path id="Trazado_99276" data-name="Trazado 99276" d="M438.218,121.2a3.56,3.56,0,1,1-3.554-3.4A3.483,3.483,0,0,1,438.218,121.2Z" transform="translate(-219.416 904.541)" fill="#1169e3"/>
      <path id="Trazado_116534" data-name="Trazado 116534" d="M438.218,121.2a3.56,3.56,0,1,1-3.554-3.4A3.483,3.483,0,0,1,438.218,121.2Z" transform="translate(-138.883 904.541)" fill="#1169e3"/>
      <path id="Trazado_99277" data-name="Trazado 99277" d="M446.665,121.2a3.56,3.56,0,1,1-3.558-3.4A3.483,3.483,0,0,1,446.665,121.2Z" transform="translate(-211.757 904.541)" fill="#1169e3"/>
      <path id="Trazado_116535" data-name="Trazado 116535" d="M446.665,121.2a3.56,3.56,0,1,1-3.558-3.4A3.483,3.483,0,0,1,446.665,121.2Z" transform="translate(-131.223 904.541)" fill="#1169e3"/>
      <path id="Trazado_99278" data-name="Trazado 99278" d="M455.111,121.2a3.56,3.56,0,1,1-3.554-3.4A3.482,3.482,0,0,1,455.111,121.2Z" transform="translate(-204.096 904.541)" fill="#1169e3"/>
      <ellipse id="Elipse_3980" data-name="Elipse 3980" cx="3.556" cy="3.401" rx="3.556" ry="3.401" transform="translate(179.477 1040.009)" fill="#1169e3"/>
      <ellipse id="Elipse_4744" data-name="Elipse 4744" cx="3.556" cy="3.401" rx="3.556" ry="3.401" transform="translate(260.01 1040.009)" fill="#1169e3"/>
      <path id="Trazado_99285" data-name="Trazado 99285" d="M429.772,128.7a3.56,3.56,0,1,1-3.554-3.4A3.479,3.479,0,0,1,429.772,128.7Z" transform="translate(-227.077 914.704)" fill="#1169e3"/>
      <path id="Trazado_116536" data-name="Trazado 116536" d="M429.772,128.7a3.56,3.56,0,1,1-3.554-3.4A3.479,3.479,0,0,1,429.772,128.7Z" transform="translate(-146.543 914.704)" fill="#1169e3"/>
      <ellipse id="Elipse_3981" data-name="Elipse 3981" cx="3.556" cy="3.401" rx="3.556" ry="3.401" transform="translate(211.69 1040.009)" fill="#1169e3"/>
      <ellipse id="Elipse_4745" data-name="Elipse 4745" cx="3.556" cy="3.401" rx="3.556" ry="3.401" transform="translate(292.224 1040.009)" fill="#1169e3"/>
      <path id="Trazado_99286" data-name="Trazado 99286" d="M446.665,128.7a3.56,3.56,0,1,1-3.558-3.4A3.481,3.481,0,0,1,446.665,128.7Z" transform="translate(-211.757 914.704)" fill="#1169e3"/>
      <path id="Trazado_116537" data-name="Trazado 116537" d="M446.665,128.7a3.56,3.56,0,1,1-3.558-3.4A3.481,3.481,0,0,1,446.665,128.7Z" transform="translate(-131.223 914.704)" fill="#1169e3"/>
      <path id="Trazado_99287" data-name="Trazado 99287" d="M455.111,128.7a3.56,3.56,0,1,1-3.554-3.4A3.479,3.479,0,0,1,455.111,128.7Z" transform="translate(-204.096 914.704)" fill="#1169e3"/>
    </g>
    <g id="Grupo_86283" data-name="Grupo 86283" transform="translate(1125 393.399)">
      <g id="Grupo_86282" data-name="Grupo 86282" clip-path="url(#clip-path)">
        <path id="Trazado_116538" data-name="Trazado 116538" d="M92.979,124.083l-.762,78.959c-.039,4.1-1.2,6.48-7.061,7.235-7.29.94-9.5-.344-10.577-2.348-2.03-3.767-21.919-79.226-25.2-84.357s43.6.512,43.6.512" transform="translate(-9.429 -23.263)" fill="#1169e3"/>
        <path id="Trazado_116539" data-name="Trazado 116539" d="M92.814,141.091l.164-17.007s-46.887-5.644-43.6-.513c.774,1.211,3.834,10.942,6.125,18.469Z" transform="translate(-9.429 -23.263)" fill="#0d54b5"/>
        <path id="Trazado_116540" data-name="Trazado 116540" d="M9.714,80.445A8.868,8.868,0,0,0,1,87.289a42.879,42.879,0,0,0-1,9.183c-.039,4.5.3,7.424,1.4,9.884a8.669,8.669,0,0,0,7.66,4.954c16.031.581,73.755,2.845,85.791,5.674,14.012,3.293,60.945,24.124,60.945,24.124l-8.948-105.56S103.739,70.492,76.368,75.925c-21.292,4.227-53.43,4.574-66.654,4.52" transform="translate(0 -6.811)" fill="#d0d1de"/>
        <path id="Trazado_116541" data-name="Trazado 116541" d="M47.794,122.771c5.967.285,12.183.6,18.286.956-3.831-12.368-2.317-26.5-.361-34.941-6.105.576-12.342.973-18.331,1.255a64.384,64.384,0,0,0,.407,32.731" transform="translate(-8.714 -17.011)" fill="#110239"/>
        <path id="Trazado_116542" data-name="Trazado 116542" d="M229.877,80.182c.3,38.164-17.875,69.246-40.595,69.424S147.9,118.993,147.6,80.829,165.474,11.583,188.195,11.4s41.382,30.614,41.682,68.777" transform="translate(-28.28 -2.185)" fill="#e5e6ed"/>
        <path id="Trazado_116543" data-name="Trazado 116543" d="M229,82.646c.255,32.463-15.205,58.9-34.532,59.057S159.26,115.66,159.005,83.2s15.2-58.9,34.532-59.057S228.74,50.181,229,82.646" transform="translate(-30.465 -4.625)" fill="#110239"/>
        <path id="Trazado_116544" data-name="Trazado 116544" d="M186.594,98.616c.829-11.565-6.74-21.531-16.909-22.26A16.7,16.7,0,0,0,160,78.741a96.758,96.758,0,0,0-.994,14.452,93.333,93.333,0,0,0,3.276,24.035,16.235,16.235,0,0,0,4.4,1c10.168.73,19.084-8.054,19.913-19.617" transform="translate(-30.465 -14.622)" fill="#1169e3"/>
        <path id="Trazado_116545" data-name="Trazado 116545" d="M116.469,50.528A5.4,5.4,0,0,1,116.912,47c-.6.1-1.479.19-1.428-.158.067-.472.168-1.147-.174-1.084a2.468,2.468,0,0,0-.889.447,3.989,3.989,0,0,1-2.05.5c-.243.808-.93,2.053-.489,2.923.228.449,1.432.238,1.968.442a9.117,9.117,0,0,0,2.619.462" transform="translate(-21.409 -8.766)" fill="#f88667"/>
        <path id="Trazado_116546" data-name="Trazado 116546" d="M93.856,5.553s-5.084-.285-11.965,2.969L85.1,22.483a14.666,14.666,0,0,1,7.816-1.718Z" transform="translate(-15.69 -1.063)" fill="#fee734"/>
        <path id="Trazado_116547" data-name="Trazado 116547" d="M92.536,12.89c.031-2.327.176-4.656.229-6.982a21.221,21.221,0,0,1,3.13-.352l-.942,15.212c-1.309-2-1.932-1.553-2.192-1.8.009-2.01-.252-4.085-.226-6.08" transform="translate(-17.73 -1.064)" fill="#cbb829"/>
        <path id="Trazado_116548" data-name="Trazado 116548" d="M123.724,5.22S105.526-1.935,93.6.508l-.785,17.4s10.577-2.34,25.22,4.073Z" transform="translate(-17.783 0)" fill="#fee734"/>
        <rect id="Rect치ngulo_36782" data-name="Rect치ngulo 36782" width="43.635" height="1.566" transform="matrix(0.328, -0.945, 0.945, 0.328, 90.82, 46.161)" fill="#110239"/>
        <path id="Trazado_116549" data-name="Trazado 116549" d="M103.677,48.334V43.41s-14.7.113-20.863-1.653S68.392,32.738,65.1,33.912s-5.385,4.524-1.3,7.729,13.772,5.976,17.973,6.618c2.913.445,19.588.074,21.9.076" transform="translate(-11.793 -6.473)" fill="#29c4bb"/>
        <path id="Trazado_116550" data-name="Trazado 116550" d="M79.089,45.318C73.9,43.161,69,38.465,64.815,34.088,61.7,35.352,59.843,38.59,63.8,41.7c4.082,3.205,13.771,5.976,17.973,6.618,1.432.219,6.19.24,10.932.205a47.608,47.608,0,0,1-13.617-3.2" transform="translate(-11.793 -6.531)" fill="#209c95"/>
        <path id="Trazado_116551" data-name="Trazado 116551" d="M82.492,122.374s-2.873,4.638-2.45,5.739,10.4,6.9,11.749,6.435,1.6-2.048-.185-3.644c-1.606-1.434-3.175-1.842-4.251-3.239-.945-1.226,0-4.359,0-4.359Z" transform="translate(-15.328 -23.447)" fill="#110239"/>
        <path id="Trazado_116552" data-name="Trazado 116552" d="M57.911,73.365a6.222,6.222,0,0,0,4.108,1.362c2.108-.275,22.672,1.862,24.78,3.6s-6.521,36.531-6.521,36.531l-7.15-1.192s2.563-25.433,2.136-25.617-11.226-.142-29.637-.142c-4.493,0-9.5-9.443-3.82-16.043Z" transform="translate(-7.524 -13.77)" fill="#fee734"/>
        <path id="Trazado_116553" data-name="Trazado 116553" d="M65.07,25.5a8.079,8.079,0,0,1-1.925-1.213c-.282,2.114-1.077,6.014-3.233,8.051,0,0,4.462,1.843,8.12,1.032,0,0-.431-4.962.326-7.393A7.242,7.242,0,0,1,65.07,25.5" transform="translate(-11.479 -4.653)" fill="#f88667"/>
        <path id="Trazado_116554" data-name="Trazado 116554" d="M62.884,31.538a5.415,5.415,0,0,1,5.123-3.576,10.035,10.035,0,0,1,.35-1.985,7.242,7.242,0,0,1-3.289-.477,8.061,8.061,0,0,1-1.924-1.213c-.283,2.114-1.078,6.014-3.233,8.052a18.7,18.7,0,0,0,2.642.808,6.748,6.748,0,0,1,.331-1.608" transform="translate(-11.479 -4.653)" fill="#e45940"/>
        <path id="Trazado_116555" data-name="Trazado 116555" d="M63.94,10.652S69.21,9,70.876,10.035s2.964,4.31,2.675,6.225,1.909,4.135,1.966,4.826c.045.555-1.668.956-1.724,1.168s-.155,3.7-2.465,4.289c-3.251.829-7.6-1.785-9.09-3.752s-3.255-10.959,1.7-12.139" transform="translate(-11.625 -1.857)" fill="#f88667"/>
        <path id="Trazado_116556" data-name="Trazado 116556" d="M73.762,10.094c-.279-.279-.992-.729-1.167-1.088a7.1,7.1,0,0,0-.4-.912c-.585-.857-.726-1.483-3.135-2.238a7.49,7.49,0,0,0-6.427,1.43A6.114,6.114,0,0,0,61.1,9.059c-.115.205-.477.772-.39.988.11.272.89.459,1.133.6a10.074,10.074,0,0,1,1.187.96c2.4,1.954,6.165,4.045,8.813,1.334a11.489,11.489,0,0,0,.993-1.141,7.126,7.126,0,0,1,.729,3.5,3.138,3.138,0,0,0,1.074-1.694,3.615,3.615,0,0,0-.879-3.514" transform="translate(-11.63 -1.076)" fill="#110239"/>
        <path id="Trazado_116557" data-name="Trazado 116557" d="M61.857,10.9a4.354,4.354,0,0,0-2.5-.088,3.028,3.028,0,0,0-2.375,2.657,12.9,12.9,0,0,0-.248,2.472,9.493,9.493,0,0,0,.618,3.745,8.966,8.966,0,0,0,2.2,3.5c.933.846,2.765,1.821,3.679,1.453.354-.143.867-2.687.77-3.349-.091-.635-.4-.643-.9-.926-.842-.478-1.781-1.417-1.166-2.435.876-1.451,2.5-.786,3.091,1.221,0,0,.638,1.128,1,.947s1.982-5.876-4.168-9.195" transform="translate(-10.87 -2.045)" fill="#110239"/>
        <path id="Trazado_116558" data-name="Trazado 116558" d="M63.9,19.878a1.4,1.4,0,0,1,1.563.411c.629.733.332,1.917-.289,1.473s-.373-.829-.481-1.193a1.149,1.149,0,0,0-.793-.69" transform="translate(-12.243 -3.791)" fill="#e45940"/>
        <path id="Trazado_116559" data-name="Trazado 116559" d="M39.269,64s7.446,5.775,22.885,3.2a33.622,33.622,0,0,1,1.255-8.768c1.3-4.336,3.238-12.784,3.294-17.245.063-5.038-2.7-7.306-2.7-7.306s-2.9,2.719-7.221-.823a18.96,18.96,0,0,0-12.02,11.25A101.545,101.545,0,0,0,39.269,64" transform="translate(-7.524 -6.335)" fill="#29c4bb"/>
        <path id="Trazado_116560" data-name="Trazado 116560" d="M61.876,41.984c-3.985,4.306-.129,14.9,4.909,20.815a27.011,27.011,0,0,1,.639-2.7c.684-2.284,1.539-5.706,2.211-9.089a8.015,8.015,0,0,1-3.225-3.84c-1.55-3.75-2.555-6.291-4.534-5.183" transform="translate(-11.539 -7.994)" fill="#209c95"/>
        <path id="Trazado_116561" data-name="Trazado 116561" d="M101.7,78.687a4.045,4.045,0,0,0,1.876.968,2.438,2.438,0,0,1,.956.244,5.2,5.2,0,0,0,1.069.383,2.019,2.019,0,0,1,1.011.483c.306.357-.283.47-.686.488-.439.02-1.59-.731-1.935-.418s1.115,1.14,1.407,1.3c.691.378,1.2.078,1.913.087.417.006.605.136.319.522-.213.288-.634.3-.961.322a4.248,4.248,0,0,1-2.053-.335,4.953,4.953,0,0,0,1.88.51c.371.029,1.972-.126,1.978.461.012,1.178-3.539.426-4.062.018a5.829,5.829,0,0,0,1.86.635c.379.087,1.284.254.787.743-.735.722-2.483-.471-3.361-.865a6.86,6.86,0,0,0,1.6.958c.732.39.192.791-.627.524a9.474,9.474,0,0,1-1.131-.53,6.327,6.327,0,0,1-2.8-2.976c-.283-.507-1.332-1.137-1.227-1.627.2-.949,1.5-1.441,2.186-1.895" transform="translate(-19.065 -15.077)" fill="#f88667"/>
        <path id="Trazado_116562" data-name="Trazado 116562" d="M95.359,70.486,92.37,74.539S73.233,66.253,71.513,64.065s-7.346-10.206-8.225-12.34c-2.04-4.954-4.571-10.86,0-11.9,2.493-.565,4.1.064,5.652,3.736a101.052,101.052,0,0,0,8.412,15.31c.707.932,18.007,11.61,18.007,11.61" transform="translate(-11.635 -7.597)" fill="#29c4bb"/>
        <path id="Trazado_116563" data-name="Trazado 116563" d="M119.194,47.139c.272.43-.472,2.276-1.184,3.052a1.327,1.327,0,0,1-1.773.126c-.6-.36-1.31-.49-1.4-.839-.127-1.376,1.148-.342,1.712-.14,0,0-1.538-.765-1.517-1.425.06-1.242,1.952.191,2.485.43a3.16,3.16,0,0,1-1.463-.974.477.477,0,0,1-.057-.725c.41-.383,2.023.774,2.023.774-.289-.208-1.468-.631-.994-1.175.314-.361.788-.06,1.073.026a1.69,1.69,0,0,1,1.1.87" transform="translate(-22.001 -8.827)" fill="#f88667"/>
        <path id="Trazado_116564" data-name="Trazado 116564" d="M115.375,46.8c.179-.073.35-.108.525-.162,0-.01-.016-.012-.015-.023.068-.471,1.859-.591,2.256-.8,1.2-.628.717-1.384.171-1.212-.372.116-1.216.366-1.539.51a5.832,5.832,0,0,1-1.243.142,8.966,8.966,0,0,0-1.544,1.071c-.614.4.736.737,1.389.472" transform="translate(-21.81 -8.541)" fill="#f88667"/>
        <path id="Trazado_116565" data-name="Trazado 116565" d="M277.1,64.63c.4,1.078-3.175,3.382-7.975,5.145s-9.012,2.319-9.409,1.242,3.175-3.382,7.975-5.146,9.013-2.319,9.409-1.241" transform="translate(-49.756 -12.278)" fill="#d0d1de"/>
        <path id="Trazado_116566" data-name="Trazado 116566" d="M266.385,37.918c.457,1.054-2.977,3.556-7.67,5.589s-8.867,2.826-9.323,1.772,2.977-3.556,7.67-5.589,8.867-2.826,9.323-1.772" transform="translate(-47.776 -7.176)" fill="#d0d1de"/>
        <path id="Trazado_116567" data-name="Trazado 116567" d="M274.219,134.676c-.34,1.1-4.576.76-9.461-.755s-8.568-3.631-8.229-4.728,4.576-.759,9.461.755,8.569,3.631,8.229,4.728" transform="translate(-49.147 -24.63)" fill="#d0d1de"/>
        <path id="Trazado_116568" data-name="Trazado 116568" d="M263.352,163.294c-.429,1.065-4.622.382-9.367-1.528s-8.242-4.322-7.813-5.387,4.622-.382,9.367,1.528,8.242,4.322,7.813,5.387" transform="translate(-47.16 -29.866)" fill="#d0d1de"/>
        <path id="Trazado_116569" data-name="Trazado 116569" d="M280.128,100.159c-.06,1.147-4.248,1.862-9.355,1.6s-9.2-1.411-9.14-2.558,4.248-1.862,9.356-1.6,9.2,1.411,9.139,2.558" transform="translate(-50.129 -18.69)" fill="#d0d1de"/>
      </g>
    </g>
  </g>
</svg>
