<svg xmlns="http://www.w3.org/2000/svg" xmlns:xlink="http://www.w3.org/1999/xlink" width="190" height="197.231" viewBox="0 0 190 197.231">
  <defs>
    <filter id="Elipse_4764" x="5.5" y="5.5" width="179" height="179" filterUnits="userSpaceOnUse">
      <feOffset input="SourceAlpha"/>
      <feGaussianBlur stdDeviation="3.5" result="blur"/>
      <feFlood flood-opacity="0.235"/>
      <feComposite operator="in" in2="blur"/>
      <feComposite in="SourceGraphic"/>
    </filter>
  </defs>
  <g id="Grupo_157842" data-name="Grupo 157842" transform="translate(-390 -3034.999)">
    <g id="Grupo_157502" data-name="Grupo 157502" transform="translate(0 -4045.001)">
      <g id="Elipse_4767" data-name="Elipse 4767" transform="translate(398 7088)" fill="none" stroke="#707070" stroke-width="1" stroke-dasharray="3">
        <circle cx="87" cy="87" r="87" stroke="none"/>
        <circle cx="87" cy="87" r="86.5" fill="none"/>
      </g>
      <path id="Sustracción_5" data-name="Sustracción 5" d="M8227.248,11874.02h0a95.463,95.463,0,0,1-30.676-33.542A94.585,94.585,0,0,1,8185,11795a95.683,95.683,0,0,1,1.93-19.146,94.494,94.494,0,0,1,14.294-33.972,95.271,95.271,0,0,1,41.8-34.419,94.535,94.535,0,0,1,17.832-5.536,95.937,95.937,0,0,1,38.29,0,94.5,94.5,0,0,1,33.971,14.295,95.264,95.264,0,0,1,34.419,41.8,94.525,94.525,0,0,1,5.536,17.833,95.83,95.83,0,0,1-1.033,42.779,94.816,94.816,0,0,1-21.5,40,95.612,95.612,0,0,1-17.066,14.9L8280.5,11782l-53.252,92.02Z" transform="translate(-7795 -4620)" fill="#1169e3"/>
      <g transform="matrix(1, 0, 0, 1, 390, 7080)" filter="url(#Elipse_4764)">
        <circle id="Elipse_4764-2" data-name="Elipse 4764" cx="79" cy="79" r="79" transform="translate(16 16)" fill="#fff"/>
      </g>
    </g>
    <g id="Grupo_157509" data-name="Grupo 157509" transform="translate(0 -3932.001)">
      <g id="Grupo_156335" data-name="Grupo 156335" transform="translate(470 7127.001)">
        <circle id="Elipse_4765" data-name="Elipse 4765" cx="7" cy="7" r="7" transform="translate(8 0)" fill="#1169e3"/>
        <line id="Línea_142" data-name="Línea 142" y2="25.587" transform="translate(15.573 11.643)" fill="none" stroke="#1169e3" stroke-width="2"/>
      </g>
    </g>
    <g id="Grupo_157516" data-name="Grupo 157516" transform="translate(-20 -3900.033)">
      <g id="Grupo_156600" data-name="Grupo 156600" transform="translate(453.654 6975.735)">
        <g id="Grupo_156595" data-name="Grupo 156595">
          <path id="Trazado_127053" data-name="Trazado 127053" d="M16.6,125.969c.665.148.819-.165.812-.786-.017-1.556.01-1.584,1.621-1.574.6,0,.786-.182.774-.775-.011-.553-.112-.81-.75-.807-1.616.006-1.657-.026-1.64-1.639.008-.73-.35-.743-.891-.749s-.821.085-.821.733c0,1.633-.033,1.662-1.628,1.656-.617,0-.763.22-.764.793s.145.793.762.789c1.626-.009,1.665.021,1.629,1.562-.017.715.247.924.9.8" transform="translate(79.511 -62.514)" fill="#29c4bb"/>
          <path id="Trazado_127054" data-name="Trazado 127054" d="M214.4,151.171c-.6-.114-.925.083-.827.757.082.564-.113.878-.737.781s-.834.129-.839.786c0,.689.276.847.863.768.561-.076.738.168.727.726-.018.874.523,1.209,1.368.945.4-.126.314-.446.288-.7-.07-.691.087-1.114.9-.975.631.107.67-.288.668-.773s-.02-.876-.661-.777c-.69.107-1.016-.146-.9-.874.109-.7-.337-.727-.852-.665" transform="translate(-211.994 -77.35)" fill="#29c4bb"/>
          <path id="Trazado_127055" data-name="Trazado 127055" d="M207.493,70.027c-.154.664.15.891.773.786.674-.114.949.163.83.833-.115.648.165.8.793.809.648.006.892-.185.779-.816-.121-.672.16-.949.827-.823.691.13.752-.232.778-.813.031-.683-.234-.861-.829-.757-.646.113-.887-.155-.778-.786.105-.6-.09-.848-.763-.824-.593.021-.936.105-.809.785s-.168.936-.831.824c-.623-.1-.926.118-.771.782" transform="translate(-202.635 -58.429)" fill="#010000"/>
          <path id="Trazado_127056" data-name="Trazado 127056" d="M51.816,187.408c-.145.62.16.847.78.735.727-.132.9.247.795.859-.116.681.214.787.812.783.572,0,.879-.133.759-.749-.158-.81.247-1.008.944-.889.715.122.682-.329.684-.819,0-.475-.01-.878-.656-.75-.869.172-1.091-.245-.974-1.023.112-.745-.455-.53-.834-.553-.4-.024-.848-.076-.731.57.145.8-.135,1.169-.981,1.007-.706-.135-.619.357-.6.829" transform="translate(24.436 -92.788)" fill="#010000"/>
          <path id="Trazado_127057" data-name="Trazado 127057" d="M126.55,18.174c.166-.707-.225-.845-.8-.759-.6.089-.837-.159-.746-.751s-.084-.861-.765-.847c-.626.013-.912.175-.8.817.111.659-.193.873-.811.781-.573-.086-.859.051-.863.751,0,.717.267.909.891.809.66-.105.883.2.781.811-.115.691.256.77.837.782.621.013.824-.221.732-.791-.1-.625.131-.91.783-.8.636.106.908-.156.766-.8" transform="translate(-78.852 -15.816)" fill="#29c4bb"/>
        </g>
        <g id="el-pensamiento-de-diseno" transform="translate(10.011 8.93)">
          <g id="Grupo_157566" data-name="Grupo 157566" transform="translate(2.231 2.231)">
            <g id="Grupo_157552" data-name="Grupo 157552" transform="translate(51.736 14.775)">
              <path id="Trazado_130414" data-name="Trazado 130414" d="M57.539,20.156l-8.7,8.7A20.878,20.878,0,0,0,44.155,21.5l-.135-.135L51.383,14Z" transform="translate(-44.02 -14)" fill="#29c4bb"/>
            </g>
            <g id="Grupo_157553" data-name="Grupo 157553" transform="translate(12.312 50.775)">
              <path id="Trazado_130415" data-name="Trazado 130415" d="M28.252,50.086l-10.1,10.1L12,54.025,22.785,43.24A24.215,24.215,0,0,1,28.252,50.086Z" transform="translate(-12 -43.24)" fill="#29c4bb"/>
            </g>
            <g id="Grupo_157554" data-name="Grupo 157554" transform="translate(6.156 43.991)">
              <path id="Trazado_130416" data-name="Trazado 130416" d="M23.942,44.514,13.156,55.3,7,49.143,18.413,37.73a20.863,20.863,0,0,0,4.038,5.319c.492.492.985.985,1.49,1.465Z" transform="translate(-7 -37.73)" fill="#1169e3"/>
            </g>
            <g id="Grupo_157555" data-name="Grupo 157555" transform="translate(44.238 8.619)">
              <path id="Trazado_130417" data-name="Trazado 130417" d="M52.791,15.156l-7.363,7.363a20.756,20.756,0,0,0-7.5-4.814l8.7-8.7Z" transform="translate(-37.93 -9)" fill="#1169e3"/>
            </g>
            <g id="Grupo_157556" data-name="Grupo 157556" transform="translate(56.636)">
              <path id="Trazado_130418" data-name="Trazado 130418" d="M65.237,10.7a8.683,8.683,0,0,1-2.549,6.156l-2.376,2.376L48,6.925l2.376-2.376A8.7,8.7,0,0,1,65.237,10.7Z" transform="translate(-48 -2)" fill="#aab2bd"/>
            </g>
            <g id="Grupo_157557" data-name="Grupo 157557" transform="translate(0 55.405)">
              <path id="Trazado_130419" data-name="Trazado 130419" d="M20.468,59.312,4.819,65.333a2.178,2.178,0,0,1-.739.135A2.086,2.086,0,0,1,2,63.387a2.178,2.178,0,0,1,.135-.739L8.156,47l6.156,6.156Z" transform="translate(-2 -47)" fill="#ccd1d9"/>
            </g>
            <g id="Grupo_157558" data-name="Grupo 157558" transform="translate(52.942 4.925)">
              <path id="Trazado_130420" data-name="Trazado 130420" d="M61.006,18.312l-3.694,3.694L51.156,15.85,45,9.694,48.694,6Z" transform="translate(-45 -6)" fill="#e6e9ed"/>
            </g>
            <g id="Grupo_157559" data-name="Grupo 157559" transform="translate(44.533 36.937)">
              <path id="Trazado_130421" data-name="Trazado 130421" d="M53.967,33.293a3.584,3.584,0,0,0,2.216,3.324c.012,0,.037.012.049.012a3.58,3.58,0,0,0,3.928-.763l.923-.923,3.484,3.484-.923.923a3.58,3.58,0,0,0-.763,3.928c0,.012.012.037.012.049a3.584,3.584,0,0,0,3.324,2.216H67.51v4.925H66.217a3.584,3.584,0,0,0-3.324,2.216c0,.012-.012.037-.012.049a3.58,3.58,0,0,0,.763,3.928l.923.923-3.484,3.484-.923-.923a3.58,3.58,0,0,0-3.928-.763c-.012,0-.037.012-.049.012a3.584,3.584,0,0,0-2.216,3.324v1.293H49.042V62.719a3.584,3.584,0,0,0-2.216-3.324c-.012,0-.037-.012-.049-.012a3.58,3.58,0,0,0-3.928.763l-.923.923L38.81,57.954a2.436,2.436,0,0,0,.382-1.33A2.471,2.471,0,0,0,38.17,54.63c1.194-3.841,3.731-6.341,6.279-8.816a7.616,7.616,0,0,0-.332,2.192A7.387,7.387,0,1,0,51.5,40.619a7.512,7.512,0,0,0-2.844.566A15.053,15.053,0,0,0,51.5,32h2.462Z" transform="translate(-38.17 -32)" fill="#ffc729"/>
            </g>
            <g id="Grupo_157560" data-name="Grupo 157560" transform="translate(50.48 45.555)">
              <path id="Trazado_130422" data-name="Trazado 130422" d="M50.387,39A7.387,7.387,0,1,1,43,46.387a7.616,7.616,0,0,1,.332-2.192v-.012a34.156,34.156,0,0,0,4.211-4.617A7.512,7.512,0,0,1,50.387,39Zm2.462,7.387a2.462,2.462,0,1,0-2.462,2.462A2.47,2.47,0,0,0,52.85,46.387Z" transform="translate(-43 -39)" fill="#fcd770"/>
            </g>
            <g id="Grupo_157561" data-name="Grupo 157561" transform="translate(30.78 68.948)">
              <path id="Trazado_130423" data-name="Trazado 130423" d="M33.156,62.925a6.308,6.308,0,0,1-6.119-4.777L27,58H39.312l-.037.148A6.356,6.356,0,0,1,37.034,61.6,6.289,6.289,0,0,1,33.156,62.925Z" transform="translate(-27 -58)" fill="#aab2bd"/>
            </g>
            <g id="Grupo_157562" data-name="Grupo 157562" transform="translate(28.318 64.023)">
              <path id="Trazado_130424" data-name="Trazado 130424" d="M39.775,54a2.47,2.47,0,0,1,2.462,2.462,2.48,2.48,0,0,1-2.462,2.462H27.462A2.47,2.47,0,0,1,25,56.462,2.48,2.48,0,0,1,27.462,54Z" transform="translate(-25 -54)" fill="#ccd1d9"/>
            </g>
            <g id="Grupo_157563" data-name="Grupo 157563" transform="translate(28.318 59.098)">
              <path id="Trazado_130425" data-name="Trazado 130425" d="M42.237,52.462a2.436,2.436,0,0,1-.382,1.33,2.734,2.734,0,0,1-.345.406,2.407,2.407,0,0,1-1.736.726H27.462A2.47,2.47,0,0,1,25,52.462a2.407,2.407,0,0,1,.726-1.736,1.485,1.485,0,0,1,.3-.259A2.428,2.428,0,0,1,27.462,50H39.775a2.428,2.428,0,0,1,1.441.468,2.471,2.471,0,0,1,1.022,1.995Z" transform="translate(-25 -50)" fill="#ccd1d9"/>
            </g>
            <g id="Grupo_157564" data-name="Grupo 157564" transform="translate(16.006 16.006)">
              <path id="Trazado_130426" data-name="Trazado 130426" d="M55.544,28.63a20.878,20.878,0,0,0-4.679-7.363l-.135-.135A20.986,20.986,0,0,0,36.337,15h-.012a8.427,8.427,0,0,1,.837,3.694,8.524,8.524,0,0,1-.456,2.758v.012a4.822,4.822,0,0,1,1.687-.308,4.925,4.925,0,1,1,0,9.85H15.579A20.9,20.9,0,0,0,15,35.931a15.288,15.288,0,0,0,1.564,7.055A20.863,20.863,0,0,0,20.6,48.3c.492.492.985.985,1.49,1.465a24.215,24.215,0,0,1,5.467,6.846,11.866,11.866,0,0,1,.776,1.945,2.428,2.428,0,0,1,1.441-.468H42.087a2.428,2.428,0,0,1,1.441.468c1.194-3.841,3.731-6.341,6.279-8.816v-.012a34.157,34.157,0,0,0,4.211-4.617,15.053,15.053,0,0,0,2.844-9.185,20.761,20.761,0,0,0-1.317-7.3Z" transform="translate(-15 -15)" fill="#fee734"/>
            </g>
            <g id="Grupo_157565" data-name="Grupo 157565" transform="translate(0 4.925)">
              <path id="Trazado_130427" data-name="Trazado 130427" d="M28.225,12.821a8.618,8.618,0,0,1,11.106,4.26,8.427,8.427,0,0,1,.837,3.694,8.524,8.524,0,0,1-.456,2.758v.012a4.822,4.822,0,0,1,1.687-.308,4.925,4.925,0,1,1,0,9.85H8.156a6.152,6.152,0,0,1-.591-12.275V20.8a10.923,10.923,0,0,1-.64-3.718,11.08,11.08,0,0,1,21.288-4.309Z" transform="translate(-2 -6)" fill="#e6e9ed"/>
            </g>
          </g>
          <g id="Grupo_157567" data-name="Grupo 157567" transform="translate(1 1)">
            <path id="Trazado_130428" data-name="Trazado 130428" d="M49.694,49.387A3.694,3.694,0,1,0,46,45.694,3.7,3.7,0,0,0,49.694,49.387Zm0-4.925a1.231,1.231,0,1,1-1.231,1.231A1.232,1.232,0,0,1,49.694,44.462Z" transform="translate(9.405 8.48)"/>
            <path id="Trazado_130429" data-name="Trazado 130429" d="M72.608,49.975a2.363,2.363,0,0,1,.5-2.589L74.9,45.593l-5.225-5.225-1.794,1.793a2.376,2.376,0,0,1-2.636.483,2.346,2.346,0,0,1-1.455-2.177v-2.53H61.267a21.812,21.812,0,0,0-1.091-5.724L74.424,17.965A9.937,9.937,0,1,0,60.372,3.911L46.139,18.145a21.872,21.872,0,0,0-5.808-1.085,9.8,9.8,0,0,0-11.252-4.594A12.288,12.288,0,0,0,6.251,21.017,7.386,7.386,0,0,0,8.387,35.474h8.931a22.325,22.325,0,0,0-.313,3.694,16.9,16.9,0,0,0,1.31,6.8L7.332,56.951,1.22,72.841A3.277,3.277,0,0,0,1,74.027a3.308,3.308,0,0,0,4.5,3.088L21.385,71l8.031-8.032a3.6,3.6,0,0,0,.862,3.284,3.662,3.662,0,0,0,1.8,6.021,7.5,7.5,0,0,0,14.184,0,3.688,3.688,0,0,0,2.758-3.558c0-.092-.021-.179-.027-.268l1.529,1.529,1.794-1.793a2.411,2.411,0,0,1,4.091,1.7v2.53h7.387V69.88a2.413,2.413,0,0,1,4.093-1.7l1.793,1.793L74.9,64.752,73.111,62.96a2.381,2.381,0,0,1-.484-2.636,2.35,2.35,0,0,1,2.178-1.457h2.53V51.48h-2.53a2.369,2.369,0,0,1-2.2-1.5ZM54.159,53.6a36.744,36.744,0,0,0,3.85-4.2,6.084,6.084,0,0,1,2.089-.388A6.216,6.216,0,1,1,54.159,53.6ZM55.638,24.44l5.692-5.693,4.415,4.415-6.576,6.576A22.344,22.344,0,0,0,55.638,24.44Zm1.277-13.59L58.867,8.9,69.438,19.468l-1.953,1.953ZM67.4,3.462a7.475,7.475,0,0,1,5.286,12.76l-1.5,1.5L60.608,7.156l1.5-1.5A7.429,7.429,0,0,1,67.4,3.462ZM55.174,12.591l4.415,4.415L53.9,22.7a22.319,22.319,0,0,0-5.3-3.535Zm3.694,26.577c0,6.406-3.226,9.553-6.641,12.883-2.352,2.294-4.767,4.665-6.173,8.121a3.64,3.64,0,0,0-.729-.074H40.4V53.942a3.7,3.7,0,0,0-3.694-3.694H34.243a1.231,1.231,0,0,1,0-2.462H46.555a3.694,3.694,0,1,0,0-7.387h-9.85a1.232,1.232,0,0,1-1.231-1.231V35.474H41.63a6.156,6.156,0,0,0,0-12.312c-.034,0-.066.01-.1.01a9.694,9.694,0,0,0,.1-1.241A9.863,9.863,0,0,0,41.34,19.6,19.8,19.8,0,0,1,58.867,39.168ZM31.78,63.792a1.232,1.232,0,0,1,1.231-1.231H45.324a1.231,1.231,0,1,1,0,2.462H33.012A1.232,1.232,0,0,1,31.78,63.792Zm-15.5,0,9.051-9.051a22.349,22.349,0,0,1,3.957,4.872L20.7,68.207ZM3.462,28.087a4.925,4.925,0,0,1,9.85,0h2.462A7.39,7.39,0,0,0,8.7,20.715a9.84,9.84,0,0,1,18.115-7.279,9.858,9.858,0,0,0-4.825,7.418,4.924,4.924,0,0,0-3.755,4.77H20.7a2.462,2.462,0,0,1,4.925,0h2.462A4.917,4.917,0,0,0,24.473,20.9,7.378,7.378,0,1,1,38.9,23.83a6.143,6.143,0,0,0-3.423,5.488h2.462a3.694,3.694,0,1,1,3.694,3.694H8.387A4.93,4.93,0,0,1,3.462,28.087Zm29.549,7.387v3.694a3.7,3.7,0,0,0,3.694,3.694h9.85a1.231,1.231,0,1,1,0,2.462H34.243a3.694,3.694,0,1,0,0,7.387h2.462a1.232,1.232,0,0,1,1.231,1.231V60.1H33.012a3.64,3.64,0,0,0-.729.074c-1.406-3.456-3.822-5.827-6.173-8.121-3.415-3.33-6.641-6.477-6.641-12.883a19.848,19.848,0,0,1,.379-3.694ZM23.577,53.018l-9.033,9.033-4.415-4.415,9.394-9.394a27.7,27.7,0,0,0,4.054,4.776ZM8.856,59.846l9.633,9.633-8.156,3.137L5.719,68ZM4.612,74.816a.847.847,0,0,1-1.095-1.092l1.234-3.209,3.067,3.067Zm34.555.057a5.059,5.059,0,0,1-4.339-2.462h8.678a5.059,5.059,0,0,1-4.339,2.462Zm6.156-4.925H33.012a1.231,1.231,0,1,1,0-2.462H45.324a1.231,1.231,0,0,1,0,2.462ZM74.873,56.4h-.068a4.875,4.875,0,0,0-3.436,8.3l.052.052L69.677,66.5l-.052-.052a4.875,4.875,0,0,0-8.3,3.436v.068H58.867V69.88a4.875,4.875,0,0,0-8.3-3.436l-.052.052L48.85,64.828a3.609,3.609,0,0,0,.167-1.035,3.658,3.658,0,0,0-.827-2.3,15.878,15.878,0,0,1,3.364-5.247A8.615,8.615,0,1,0,60.1,46.555c-.121,0-.238.012-.357.017a16.154,16.154,0,0,0,1.55-6.173h.038v.068a4.875,4.875,0,0,0,8.3,3.436l.052-.052,1.743,1.743-.052.052a4.875,4.875,0,0,0,3.436,8.3h.068Z" transform="translate(-1 -1)"/>
          </g>
        </g>
      </g>
      <rect id="Rectángulo_37298" data-name="Rectángulo 37298" width="119" height="119" transform="translate(446 6967)" fill="none"/>
    </g>
  </g>
</svg>
