<svg xmlns="http://www.w3.org/2000/svg" xmlns:xlink="http://www.w3.org/1999/xlink" width="190" height="197.231" viewBox="0 0 190 197.231">
  <defs>
    <filter id="Elipse_4764" x="5.5" y="5.5" width="179" height="179" filterUnits="userSpaceOnUse">
      <feOffset input="SourceAlpha"/>
      <feGaussianBlur stdDeviation="3.5" result="blur"/>
      <feFlood flood-opacity="0.235"/>
      <feComposite operator="in" in2="blur"/>
      <feComposite in="SourceGraphic"/>
    </filter>
  </defs>
  <g id="Grupo_157848" data-name="Grupo 157848" transform="translate(-810 -3422.999)">
    <g id="Grupo_157536" data-name="Grupo 157536" transform="translate(420 -3657.001)">
      <g id="Elipse_4767" data-name="Elipse 4767" transform="translate(398 7088)" fill="none" stroke="#707070" stroke-width="1" stroke-dasharray="3">
        <circle cx="87" cy="87" r="87" stroke="none"/>
        <circle cx="87" cy="87" r="86.5" fill="none"/>
      </g>
      <path id="Sustracción_5" data-name="Sustracción 5" d="M8227.248,11874.02h0a95.463,95.463,0,0,1-30.676-33.542A94.585,94.585,0,0,1,8185,11795a95.683,95.683,0,0,1,1.93-19.146,94.494,94.494,0,0,1,14.294-33.972,95.271,95.271,0,0,1,41.8-34.419,94.535,94.535,0,0,1,17.832-5.536,95.937,95.937,0,0,1,38.29,0,94.5,94.5,0,0,1,33.971,14.295,95.264,95.264,0,0,1,34.419,41.8,94.525,94.525,0,0,1,5.536,17.833,95.83,95.83,0,0,1-1.033,42.779,94.816,94.816,0,0,1-21.5,40,95.612,95.612,0,0,1-17.066,14.9L8280.5,11782l-53.252,92.02Z" transform="translate(-7795 -4620)" fill="#1169e3"/>
      <g transform="matrix(1, 0, 0, 1, 390, 7080)" filter="url(#Elipse_4764)">
        <circle id="Elipse_4764-2" data-name="Elipse 4764" cx="79" cy="79" r="79" transform="translate(16 16)" fill="#fff"/>
      </g>
    </g>
    <g id="Grupo_157533" data-name="Grupo 157533" transform="translate(420 -3544.001)">
      <g id="Grupo_156335" data-name="Grupo 156335" transform="translate(470 7127.001)">
        <circle id="Elipse_4765" data-name="Elipse 4765" cx="7" cy="7" r="7" transform="translate(8 0)" fill="#1169e3"/>
        <line id="Línea_142" data-name="Línea 142" y2="25.587" transform="translate(15.573 11.643)" fill="none" stroke="#1169e3" stroke-width="2"/>
      </g>
    </g>
    <g id="Grupo_157551" data-name="Grupo 157551" transform="translate(400 -3512.033)">
      <g id="Grupo_156600" data-name="Grupo 156600" transform="translate(453.654 6975.735)">
        <g id="Grupo_156595" data-name="Grupo 156595">
          <path id="Trazado_127053" data-name="Trazado 127053" d="M16.6,125.969c.665.148.819-.165.812-.786-.017-1.556.01-1.584,1.621-1.574.6,0,.786-.182.774-.775-.011-.553-.112-.81-.75-.807-1.616.006-1.657-.026-1.64-1.639.008-.73-.35-.743-.891-.749s-.821.085-.821.733c0,1.633-.033,1.662-1.628,1.656-.617,0-.763.22-.764.793s.145.793.762.789c1.626-.009,1.665.021,1.629,1.562-.017.715.247.924.9.8" transform="translate(79.511 -62.514)" fill="#29c4bb"/>
          <path id="Trazado_127054" data-name="Trazado 127054" d="M214.4,151.171c-.6-.114-.925.083-.827.757.082.564-.113.878-.737.781s-.834.129-.839.786c0,.689.276.847.863.768.561-.076.738.168.727.726-.018.874.523,1.209,1.368.945.4-.126.314-.446.288-.7-.07-.691.087-1.114.9-.975.631.107.67-.288.668-.773s-.02-.876-.661-.777c-.69.107-1.016-.146-.9-.874.109-.7-.337-.727-.852-.665" transform="translate(-211.994 -77.35)" fill="#29c4bb"/>
          <path id="Trazado_127055" data-name="Trazado 127055" d="M207.493,70.027c-.154.664.15.891.773.786.674-.114.949.163.83.833-.115.648.165.8.793.809.648.006.892-.185.779-.816-.121-.672.16-.949.827-.823.691.13.752-.232.778-.813.031-.683-.234-.861-.829-.757-.646.113-.887-.155-.778-.786.105-.6-.09-.848-.763-.824-.593.021-.936.105-.809.785s-.168.936-.831.824c-.623-.1-.926.118-.771.782" transform="translate(-202.635 -58.429)" fill="#010000"/>
          <path id="Trazado_127056" data-name="Trazado 127056" d="M51.816,187.408c-.145.62.16.847.78.735.727-.132.9.247.795.859-.116.681.214.787.812.783.572,0,.879-.133.759-.749-.158-.81.247-1.008.944-.889.715.122.682-.329.684-.819,0-.475-.01-.878-.656-.75-.869.172-1.091-.245-.974-1.023.112-.745-.455-.53-.834-.553-.4-.024-.848-.076-.731.57.145.8-.135,1.169-.981,1.007-.706-.135-.619.357-.6.829" transform="translate(24.436 -92.788)" fill="#010000"/>
          <path id="Trazado_127057" data-name="Trazado 127057" d="M126.55,18.174c.166-.707-.225-.845-.8-.759-.6.089-.837-.159-.746-.751s-.084-.861-.765-.847c-.626.013-.912.175-.8.817.111.659-.193.873-.811.781-.573-.086-.859.051-.863.751,0,.717.267.909.891.809.66-.105.883.2.781.811-.115.691.256.77.837.782.621.013.824-.221.732-.791-.1-.625.131-.91.783-.8.636.106.908-.156.766-.8" transform="translate(-78.852 -15.816)" fill="#29c4bb"/>
        </g>
        <g id="surface1" transform="translate(11.23 10.92)">
          <path id="Trazado_130616" data-name="Trazado 130616" d="M92.217,336.178l-5.782-1.185-3.346,3.465-11.4-9,7.606-5.191,8.087-8.851a3.044,3.044,0,0,1,4.822.431l9.582,10.989a3.532,3.532,0,0,1-.855,5.356l-5.645,3.362A5.247,5.247,0,0,1,92.217,336.178Zm0,0" transform="translate(-61.087 -267.942)" fill="#ffe7cf"/>
          <path id="Trazado_130617" data-name="Trazado 130617" d="M133.519,382.92l-2.338-2.682-9.75,5.811a5.259,5.259,0,0,1-3.066.625l-5.064-.546-4.374,3.758,5.9,4.657,3.345-3.465,5.782,1.185a5.258,5.258,0,0,0,3.066-.625l5.645-3.362A3.532,3.532,0,0,0,133.519,382.92Zm0,0" transform="translate(-92.823 -324.027)" fill="#efd5bd"/>
          <path id="Trazado_130618" data-name="Trazado 130618" d="M170.613,298.54c-1.129-1.751-2.5-.865-3.633-2.616s.246-2.637-.882-4.388-2.5-.865-3.633-2.617.246-2.638-.884-4.389c-.69-1.071-1.94-3.28-2.7-3.584l-6.093,3.011,10.6,16.724a3.458,3.458,0,0,0,4.78,1.033l2.029-1.308a1.348,1.348,0,0,0,.424-1.85Zm0,0" transform="translate(-130.199 -239.412)" fill="#344a5d"/>
          <path id="Trazado_130619" data-name="Trazado 130619" d="M94.626,273.552l-4.787,2.953a1.933,1.933,0,0,1-2.66-.629l-2.706-4.386a1.933,1.933,0,0,1,.63-2.66l4.787-2.953a1.2,1.2,0,0,1,1.646.39l3.479,5.639A1.2,1.2,0,0,1,94.626,273.552Zm0,0" transform="translate(-71.74 -226.42)" fill="#344a5d"/>
          <path id="Trazado_130620" data-name="Trazado 130620" d="M111.218,71.8l-9.717,6a2.721,2.721,0,0,0-.886,3.744l4.791,7.765a2.721,2.721,0,0,0,3.744.887l9.717-6L149.6,77.5,130.982,47.328Zm0,0" transform="translate(-85.395 -40.331)" fill="#fee734"/>
          <path id="Trazado_130621" data-name="Trazado 130621" d="M159.036,203.344l-30.575,6.947-12.031,7.424,2.8,4.536a2.721,2.721,0,0,0,3.744.887l9.716-6,30.733-6.69Zm0,0" transform="translate(-99.218 -173.283)" fill="#cbb829"/>
          <path id="Trazado_130622" data-name="Trazado 130622" d="M118.867,225.232l-9.717,6a2.721,2.721,0,0,1-3.744-.887l-4.791-7.765a2.721,2.721,0,0,1,.886-3.744l9.717-6Zm0,0" transform="translate(-85.395 -181.372)" fill="#1169e3"/>
          <path id="Trazado_130623" data-name="Trazado 130623" d="M128.461,250.336,116.43,257.76l2.8,4.536a2.721,2.721,0,0,0,3.744.887l9.716-6Zm0,0" transform="translate(-99.218 -213.328)" fill="#0a3f88"/>
          <path id="Trazado_130624" data-name="Trazado 130624" d="M310.9,63.345l-1.326.818a1.463,1.463,0,0,1-2.013-.477L287.549,31.249a1.463,1.463,0,0,1,.477-2.013l1.326-.818a1.463,1.463,0,0,1,2.013.476l20.014,32.437A1.463,1.463,0,0,1,310.9,63.345Zm0,0" transform="translate(-244.854 -24.031)" fill="#1169e3"/>
          <path id="Trazado_130625" data-name="Trazado 130625" d="M409.027,221.556l-3.293-5.337-3.816,2.355,3.293,5.336a1.463,1.463,0,0,0,2.013.477l1.326-.818A1.463,1.463,0,0,0,409.027,221.556Zm0,0" transform="translate(-342.502 -184.255)" fill="#0a3f88"/>
          <path id="Trazado_130626" data-name="Trazado 130626" d="M250.855,394.908a2.512,2.512,0,0,0,3.453.834l3.662-2.238a2.512,2.512,0,0,0-2.62-4.287l-3.662,2.239A2.511,2.511,0,0,0,250.855,394.908Zm0,0" transform="translate(-213.457 -331.365)" fill="#ffe7cf"/>
          <path id="Trazado_130627" data-name="Trazado 130627" d="M258.942,391.077a2.5,2.5,0,0,0-1.224-1.026,2.512,2.512,0,0,1-1.178,2.48l-3.662,2.238a2.507,2.507,0,0,1-2.23.191,2.51,2.51,0,0,0,3.8,1.806l3.662-2.238A2.511,2.511,0,0,0,258.942,391.077Zm0,0" transform="translate(-213.594 -332.389)" fill="#efd5bd"/>
          <path id="Trazado_130628" data-name="Trazado 130628" d="M240.214,361.368a2.55,2.55,0,0,0,3.506.847l3.6-2.2a2.55,2.55,0,0,0-2.659-4.351l-3.6,2.2A2.549,2.549,0,0,0,240.214,361.368Zm0,0" transform="translate(-204.384 -302.768)" fill="#ffe7cf"/>
          <path id="Trazado_130629" data-name="Trazado 130629" d="M248.289,357.649a2.54,2.54,0,0,0-1.2-1.024,2.549,2.549,0,0,1-1.2,2.5l-3.6,2.2a2.545,2.545,0,0,1-2.306.177,2.548,2.548,0,0,0,3.858,1.854l3.6-2.2A2.55,2.55,0,0,0,248.289,357.649Zm0,0" transform="translate(-204.51 -303.905)" fill="#efd5bd"/>
          <path id="Trazado_130630" data-name="Trazado 130630" d="M222.078,332.126a2.55,2.55,0,0,0,3.506.847l3.6-2.2a2.55,2.55,0,1,0-2.659-4.351l-3.6,2.2A2.55,2.55,0,0,0,222.078,332.126Zm0,0" transform="translate(-188.929 -277.848)" fill="#ffe7cf"/>
          <path id="Trazado_130631" data-name="Trazado 130631" d="M230.133,328.473a2.539,2.539,0,0,0-1.17-1.012,2.548,2.548,0,0,1-1.2,2.459l-3.6,2.2a2.544,2.544,0,0,1-2.336.165,2.546,2.546,0,0,0,3.861,1.892l3.6-2.2A2.55,2.55,0,0,0,230.133,328.473Zm0,0" transform="translate(-189.035 -279.052)" fill="#efd5bd"/>
          <path id="Trazado_130632" data-name="Trazado 130632" d="M204.982,302.134a2.55,2.55,0,0,0,3.506.847l3.6-2.2a2.55,2.55,0,1,0-2.659-4.351l-3.6,2.2A2.55,2.55,0,0,0,204.982,302.134Zm0,0" transform="translate(-174.361 -252.29)" fill="#ffe7cf"/>
          <path id="Trazado_130633" data-name="Trazado 130633" d="M213.269,297.942a2.537,2.537,0,0,0-1.427-1.106,2.549,2.549,0,0,1-1.162,2.707l-3.6,2.2A2.543,2.543,0,0,1,205,302a2.545,2.545,0,0,0,3.821,1.644l3.6-2.2A2.55,2.55,0,0,0,213.269,297.942Zm0,0" transform="translate(-174.698 -252.954)" fill="#efd5bd"/>
          <path id="Trazado_130634" data-name="Trazado 130634" d="M140.951,302.224l-.667.408a2.2,2.2,0,0,1-3.031-.687l-1.106-1.807a1.9,1.9,0,0,0-2.623-.586c-.909,6.67-10.387,6.067-10.387,6.067l5.874-8.847a4.728,4.728,0,0,1,1.6-1.647l3.315-2.056a3.375,3.375,0,0,1,4.671,1.041l3.124,5.1A2.2,2.2,0,0,1,140.951,302.224Zm0,0" transform="translate(-104.934 -249.296)" fill="#ffe7cf"/>
          <path id="Trazado_130635" data-name="Trazado 130635" d="M178.541,324.545l-.025-.042a2.273,2.273,0,0,1-.744.738l-.668.408a2.2,2.2,0,0,1-3.031-.687l-1.105-1.807a1.9,1.9,0,0,0-2.624-.586,13.2,13.2,0,0,1-4,7.314,6.238,6.238,0,0,0,4-4.995,1.9,1.9,0,0,1,2.624.586l1.105,1.807a2.2,2.2,0,0,0,3.031.687l.668-.408A2.2,2.2,0,0,0,178.541,324.545Zm0,0" transform="translate(-141.753 -274.632)" fill="#efd5bd"/>
          <path id="Trazado_130636" data-name="Trazado 130636" d="M96.218,399.245l-9.343-11.1,3.076-2.589a.23.23,0,0,1,.324.028l9.047,10.751a.229.229,0,0,1-.028.323Zm0,0" transform="translate(-74.032 -328.51)" fill="#cdd6df"/>
          <path id="Trazado_130637" data-name="Trazado 130637" d="M124.581,425.806l-4.813-5.72-3.252,2.737,4.961,5.9,3.077-2.589A.23.23,0,0,0,124.581,425.806Zm0,0" transform="translate(-99.291 -357.984)" fill="#96a4aa"/>
          <path id="Trazado_130638" data-name="Trazado 130638" d="M29.244,409l-10.1-11.846a.243.243,0,0,0-.322-.043L8.069,405.6a1.5,1.5,0,0,0-.569,1.175v3.454a1.5,1.5,0,0,0,1.5,1.5H26.589a1.5,1.5,0,0,0,1.167-.559l1.478-1.839A.244.244,0,0,0,29.244,409Zm0,0" transform="translate(-6.391 -338.37)" fill="#3c5666"/>
          <path id="Trazado_130639" data-name="Trazado 130639" d="M86.349,445.4l-4.788-5.617-7.049,8.342h9.183a1.5,1.5,0,0,0,1.167-.559l1.478-1.84A.243.243,0,0,0,86.349,445.4Zm0,0" transform="translate(-63.497 -374.768)" fill="#194451"/>
          <path id="Trazado_130640" data-name="Trazado 130640" d="M403.459,91.624a1.109,1.109,0,0,0,1.526.363l6.01-3.7a1.109,1.109,0,1,0-1.162-1.888l-6.01,3.7A1.109,1.109,0,0,0,403.459,91.624Zm0,0" transform="translate(-343.675 -73.489)"/>
          <path id="Trazado_130641" data-name="Trazado 130641" d="M447.426,167.544l-8.811-.856a1.109,1.109,0,1,0-.214,2.207l8.81.856c.037,0,.073.005.109.005a1.109,1.109,0,0,0,.106-2.212Zm0,0" transform="translate(-372.737 -142.042)"/>
          <path id="Trazado_130642" data-name="Trazado 130642" d="M369.9,10.392a1.106,1.106,0,0,0,1.435-.631l3.209-8.25a1.109,1.109,0,0,0-2.066-.8l-3.21,8.25A1.108,1.108,0,0,0,369.9,10.392Zm0,0" transform="translate(-314.613)"/>
          <path id="Trazado_130643" data-name="Trazado 130643" d="M47.454,21.926a2.574,2.574,0,0,0-3.539-.838l-1.326.818a2.572,2.572,0,0,0-.839,3.539l.763,1.236L25.079,48.264,21.4,50.536a1.109,1.109,0,0,0,1.165,1.887l2.9-1.789,5.651,9.158a4.53,4.53,0,0,0-2.37.5l-.039.02c-.1.052-.2.107-.294.167l-3.315,2.056a5.948,5.948,0,0,0-1.957,2l-.818,1.233-.6.905-.016-.005-.027-.013c-.047-.021-.093-.044-.137-.069l-.028-.016a1.661,1.661,0,0,1-.143-.1l-.028-.022c-.042-.032-.082-.067-.121-.1l-.014-.013a1.7,1.7,0,0,1-.118-.129l-.024-.03a1.681,1.681,0,0,1-.1-.147l-4.791-7.765a1.612,1.612,0,0,1,.525-2.218l1.434-.885a1.109,1.109,0,0,0-1.164-1.887l-1.434.885a3.831,3.831,0,0,0-1.677,4.293l-1.067.658A3.045,3.045,0,0,0,11.79,63.3L14.5,67.683a3.022,3.022,0,0,0,1.887,1.362,3.07,3.07,0,0,0,.707.083,3.018,3.018,0,0,0,1.591-.454l1.068-.659a3.829,3.829,0,0,0,.729.522L17.4,73.174l-.726.5a1.339,1.339,0,0,0-1.469.169l-1.91,1.608a1.348,1.348,0,0,0-1.486.023c-.021.015-.043.03-.063.046L.991,84A2.59,2.59,0,0,0,0,86.05V89.5a2.608,2.608,0,0,0,2.6,2.6H20.2a2.592,2.592,0,0,0,2.031-.974l1.459-1.815a1.345,1.345,0,0,0,.325-1.03l1.963-1.652a1.33,1.33,0,0,0,.407-.6l4.524.927a1.088,1.088,0,0,0,.2.022c.132,0,.264,0,.4,0a5.9,5.9,0,0,0,3.257-.785l4.558-2.715c.076,0,.153.007.228.007a3.6,3.6,0,0,0,1.881-.533l3.662-2.238a3.617,3.617,0,0,0-.249-6.314,3.654,3.654,0,0,0-2.349-5.244,3.646,3.646,0,0,0-2.562-4.289,3.649,3.649,0,0,0-.415-2.828,3.707,3.707,0,0,0-.484-.626L61,56.645l.763,1.236a2.573,2.573,0,0,0,3.539.838L66.63,57.9a2.572,2.572,0,0,0,.838-3.539ZM17.517,66.787a.824.824,0,0,1-1.134-.269l-2.706-4.386A.826.826,0,0,1,13.945,61l.941-.58,3.572,5.788ZM20.5,89.746a.384.384,0,0,1-.3.145H2.6a.388.388,0,0,1-.387-.387V86.05a.386.386,0,0,1,.147-.3l10.087-7.963,9.092,10.665Zm2.254-3.3L14.78,77.095l1.181-.994,7.915,9.406Zm10.868-2.145a4.04,4.04,0,0,1-2.371.468l-5.68-1.165a1.106,1.106,0,0,0-.4-.009L18.2,75.315l.632-.431h0l.031-.024c.024-.018.047-.036.069-.055l.032-.03c.023-.021.043-.042.064-.065l.024-.027c.025-.03.048-.061.07-.092l.006-.008.005-.007.005-.009L25,65.734c.013-.019.025-.039.036-.058a3.627,3.627,0,0,1,1.224-1.26l3.315-2.056c.061-.038.124-.072.187-.1.028-.014.057-.026.085-.04s.066-.03.1-.043.077-.03.117-.043l.062-.02c.048-.015.1-.029.147-.042h0a2.355,2.355,0,0,1,.54-.066h.012c.053,0,.106,0,.158.006l.051,0c.047,0,.093.009.139.016l.082.015a2.139,2.139,0,0,1,.209.05l.08.022c.035.012.069.025.1.039s.055.021.081.032.068.031.1.047l.075.039c.033.018.067.037.1.057l.066.043c.033.022.066.044.1.068s.038.03.057.045.065.052.1.08a2.125,2.125,0,0,1,.393.471l.081.133L33.982,65.1l1.483,2.421.377.616a.971.971,0,0,1,.088.182,1.035,1.035,0,0,1,.031.6,1.14,1.14,0,0,1-.522.708l-.667.408h0a1.17,1.17,0,0,1-.141.072l-.031.013a1.148,1.148,0,0,1-.145.048l-.018,0a1.164,1.164,0,0,1-.139.024l-.027,0a1.276,1.276,0,0,1-.148,0l-.028,0a1.141,1.141,0,0,1-.149-.019h0a1.087,1.087,0,0,1-.154-.044l-.013,0a1.04,1.04,0,0,1-.287-.166h0a1.07,1.07,0,0,1-.119-.114l-.009-.011a.97.97,0,0,1-.094-.128l-1.105-1.807a2.931,2.931,0,0,0-1.839-1.329,3.03,3.03,0,0,0-2.314.38,1.11,1.11,0,0,0-.514.792c-.013.095-.028.188-.045.28-.013.067-.027.133-.042.2,0,.022-.009.044-.014.066-.02.083-.041.165-.065.246l0,.01A4.7,4.7,0,0,1,26.8,69.73a0,0,0,0,0,0,0,5.206,5.206,0,0,1-1.761,1.686,1.109,1.109,0,1,0,1.152,1.895,8.112,8.112,0,0,0,1.437-1.1l4.63,7.3a4.6,4.6,0,0,0,3.852,2.09c.081,0,.162,0,.243-.009.032.058.064.115.1.172a3.657,3.657,0,0,0,.447.588Zm.941-8.152v0c.018.052.039.1.06.154l.008.018c.019.046.04.092.061.137.005.01.009.021.014.031.02.043.043.085.065.127.007.013.013.025.02.038.029.054.061.108.093.161.055.091.116.178.178.263l.069.089c.041.052.083.1.126.152.031.035.061.07.092.1s.05.048.075.073a3.655,3.655,0,0,0,.281.254l.031.024a3.6,3.6,0,0,0,.613.393,3.651,3.651,0,0,0-.392,1.207,2.354,2.354,0,0,1-1.83-1.064l-5.1-8.039a7.135,7.135,0,0,0,.542-1.564.827.827,0,0,1,.237.021.733.733,0,0,1,.46.329l1.105,1.807.005.007a3.083,3.083,0,0,0,.175.256c.046.061.1.117.146.174.017.02.033.041.051.061l.008.029q.026.115.059.229c.007.022.013.044.02.066.027.085.056.17.09.254,0,.009.007.017.01.025.031.076.065.151.1.225.01.021.021.043.032.064.042.081.085.161.132.239a3.633,3.633,0,0,0,2.228,1.639A3.644,3.644,0,0,0,34.563,76.154Zm.707-13.2.372-.228a1.441,1.441,0,1,1,1.5,2.459l-.37.226-1.1-1.788Zm8.263,13.318a1.4,1.4,0,0,1,.4,2.561l-3.662,2.238a1.392,1.392,0,0,1-.972.184l-.058-.012-.03-.006a1.394,1.394,0,0,1-1.045-1.085.084.084,0,0,0,0-.013,1.412,1.412,0,0,1,.372-1.244l.025-.026.05-.046c.017-.015.034-.03.053-.044l.04-.032c.033-.024.066-.047.1-.069l0,0,.728-.445a3.779,3.779,0,0,0,.377-.2l2.8-1.713A1.4,1.4,0,0,1,43.533,76.277Zm-2.551-4.86a1.441,1.441,0,0,1,1.372,2.53l-.659.4a3.706,3.706,0,0,0-.379.2l-2.787,1.7a1.445,1.445,0,0,1-1.5-.283h0c-.031-.029-.061-.058-.089-.09l-.022-.027c-.021-.024-.042-.048-.061-.075s-.052-.074-.077-.113-.046-.081-.067-.122c-.006-.013-.012-.027-.018-.04s-.025-.057-.036-.087-.01-.031-.016-.046-.018-.056-.025-.084-.008-.032-.012-.047-.012-.057-.017-.087l-.007-.045c0-.03-.007-.06-.009-.09,0-.014,0-.029,0-.043,0-.031,0-.062,0-.093,0-.014,0-.027,0-.041,0-.032.005-.063.009-.094,0-.013,0-.027,0-.04s.01-.055.016-.083a1.438,1.438,0,0,1,.462-.788l.028-.028.042-.036c.035-.02.07-.038.1-.058l3.6-2.2Q40.908,71.468,40.983,71.417ZM39.26,66.993a1.441,1.441,0,0,1,.545,2.54c-.037.02-.073.041-.11.063l-2.778,1.7.027-.022c.053-.042.106-.085.156-.13.031-.028.061-.057.091-.086.045-.044.09-.088.133-.135.029-.031.057-.064.085-.1s.079-.095.116-.144.052-.069.077-.1.069-.1.1-.154c.022-.036.045-.072.066-.109.032-.055.061-.113.089-.17.018-.036.037-.072.053-.109.029-.064.054-.13.08-.2.012-.032.025-.063.036-.1.034-.1.065-.2.09-.3s.042-.2.057-.3c0-.032.007-.064.011-.1.008-.068.014-.136.018-.2,0-.037,0-.074,0-.111,0-.063,0-.126,0-.189,0-.038,0-.075-.006-.113,0-.063-.012-.127-.02-.19,0-.035-.009-.07-.014-.105-.012-.072-.027-.142-.044-.212-.006-.025-.01-.051-.017-.077-.025-.1-.054-.189-.088-.282-.007-.018-.015-.036-.022-.054-.024-.062-.048-.125-.076-.187l.255-.156A1.433,1.433,0,0,1,39.26,66.993Zm26.364-11.2a.353.353,0,0,1-.159.22l-1.326.819a.355.355,0,0,1-.487-.115L49.687,34.084A1.108,1.108,0,1,0,47.8,35.248l11.968,19.4L34,60.254l-6.824-11.06L43.748,28.681l1.338,2.17a1.109,1.109,0,1,0,1.887-1.165L43.638,24.28a.354.354,0,0,1,.115-.487l1.326-.818a.354.354,0,0,1,.487.115L65.581,55.527A.352.352,0,0,1,65.624,55.794Zm0,0" transform="translate(0 -17.644)"/>
        </g>
      </g>
      <rect id="Rectángulo_37298" data-name="Rectángulo 37298" width="119" height="119" transform="translate(446 6967)" fill="none"/>
    </g>
  </g>
</svg>
