<svg xmlns="http://www.w3.org/2000/svg" xmlns:xlink="http://www.w3.org/1999/xlink" width="190" height="197.231" viewBox="0 0 190 197.231">
  <defs>
    <filter id="Elipse_4764" x="5.5" y="5.5" width="179" height="179" filterUnits="userSpaceOnUse">
      <feOffset input="SourceAlpha"/>
      <feGaussianBlur stdDeviation="3.5" result="blur"/>
      <feFlood flood-opacity="0.235"/>
      <feComposite operator="in" in2="blur"/>
      <feComposite in="SourceGraphic"/>
    </filter>
  </defs>
  <g id="Grupo_157847" data-name="Grupo 157847" transform="translate(-600 -3422.999)">
    <g id="Grupo_157535" data-name="Grupo 157535" transform="translate(210 -3657.001)">
      <g id="Elipse_4767" data-name="Elipse 4767" transform="translate(398 7088)" fill="none" stroke="#707070" stroke-width="1" stroke-dasharray="3">
        <circle cx="87" cy="87" r="87" stroke="none"/>
        <circle cx="87" cy="87" r="86.5" fill="none"/>
      </g>
      <path id="Sustracción_5" data-name="Sustracción 5" d="M8227.248,11874.02h0a95.463,95.463,0,0,1-30.676-33.542A94.585,94.585,0,0,1,8185,11795a95.683,95.683,0,0,1,1.93-19.146,94.494,94.494,0,0,1,14.294-33.972,95.271,95.271,0,0,1,41.8-34.419,94.535,94.535,0,0,1,17.832-5.536,95.937,95.937,0,0,1,38.29,0,94.5,94.5,0,0,1,33.971,14.295,95.264,95.264,0,0,1,34.419,41.8,94.525,94.525,0,0,1,5.536,17.833,95.83,95.83,0,0,1-1.033,42.779,94.816,94.816,0,0,1-21.5,40,95.612,95.612,0,0,1-17.066,14.9L8280.5,11782l-53.252,92.02Z" transform="translate(-7795 -4620)" fill="#1169e3"/>
      <g transform="matrix(1, 0, 0, 1, 390, 7080)" filter="url(#Elipse_4764)">
        <circle id="Elipse_4764-2" data-name="Elipse 4764" cx="79" cy="79" r="79" transform="translate(16 16)" fill="#fff"/>
      </g>
    </g>
    <g id="Grupo_157538" data-name="Grupo 157538" transform="translate(210 -3544.001)">
      <g id="Grupo_156335" data-name="Grupo 156335" transform="translate(470 7127.001)">
        <circle id="Elipse_4765" data-name="Elipse 4765" cx="7" cy="7" r="7" transform="translate(8 0)" fill="#1169e3"/>
        <line id="Línea_142" data-name="Línea 142" y2="25.587" transform="translate(15.573 11.643)" fill="none" stroke="#1169e3" stroke-width="2"/>
      </g>
    </g>
    <g id="Grupo_157550" data-name="Grupo 157550" transform="translate(190 -3512.033)">
      <g id="Grupo_156600" data-name="Grupo 156600" transform="translate(453.654 6975.735)">
        <g id="Grupo_156595" data-name="Grupo 156595">
          <path id="Trazado_127053" data-name="Trazado 127053" d="M16.6,125.969c.665.148.819-.165.812-.786-.017-1.556.01-1.584,1.621-1.574.6,0,.786-.182.774-.775-.011-.553-.112-.81-.75-.807-1.616.006-1.657-.026-1.64-1.639.008-.73-.35-.743-.891-.749s-.821.085-.821.733c0,1.633-.033,1.662-1.628,1.656-.617,0-.763.22-.764.793s.145.793.762.789c1.626-.009,1.665.021,1.629,1.562-.017.715.247.924.9.8" transform="translate(79.511 -62.514)" fill="#29c4bb"/>
          <path id="Trazado_127054" data-name="Trazado 127054" d="M214.4,151.171c-.6-.114-.925.083-.827.757.082.564-.113.878-.737.781s-.834.129-.839.786c0,.689.276.847.863.768.561-.076.738.168.727.726-.018.874.523,1.209,1.368.945.4-.126.314-.446.288-.7-.07-.691.087-1.114.9-.975.631.107.67-.288.668-.773s-.02-.876-.661-.777c-.69.107-1.016-.146-.9-.874.109-.7-.337-.727-.852-.665" transform="translate(-211.994 -77.35)" fill="#29c4bb"/>
          <path id="Trazado_127055" data-name="Trazado 127055" d="M207.493,70.027c-.154.664.15.891.773.786.674-.114.949.163.83.833-.115.648.165.8.793.809.648.006.892-.185.779-.816-.121-.672.16-.949.827-.823.691.13.752-.232.778-.813.031-.683-.234-.861-.829-.757-.646.113-.887-.155-.778-.786.105-.6-.09-.848-.763-.824-.593.021-.936.105-.809.785s-.168.936-.831.824c-.623-.1-.926.118-.771.782" transform="translate(-202.635 -58.429)" fill="#010000"/>
          <path id="Trazado_127056" data-name="Trazado 127056" d="M51.816,187.408c-.145.62.16.847.78.735.727-.132.9.247.795.859-.116.681.214.787.812.783.572,0,.879-.133.759-.749-.158-.81.247-1.008.944-.889.715.122.682-.329.684-.819,0-.475-.01-.878-.656-.75-.869.172-1.091-.245-.974-1.023.112-.745-.455-.53-.834-.553-.4-.024-.848-.076-.731.57.145.8-.135,1.169-.981,1.007-.706-.135-.619.357-.6.829" transform="translate(24.436 -92.788)" fill="#010000"/>
          <path id="Trazado_127057" data-name="Trazado 127057" d="M126.55,18.174c.166-.707-.225-.845-.8-.759-.6.089-.837-.159-.746-.751s-.084-.861-.765-.847c-.626.013-.912.175-.8.817.111.659-.193.873-.811.781-.573-.086-.859.051-.863.751,0,.717.267.909.891.809.66-.105.883.2.781.811-.115.691.256.77.837.782.621.013.824-.221.732-.791-.1-.625.131-.91.783-.8.636.106.908-.156.766-.8" transform="translate(-78.852 -15.816)" fill="#29c4bb"/>
        </g>
        <g id="programar" transform="translate(14.462 6.681)">
          <path id="Trazado_130555" data-name="Trazado 130555" d="M73.506,91.2H70.4v4.742a1.6,1.6,0,1,1-3.2.061V91.2h-3.2v4.742a1.6,1.6,0,1,1-3.2.061V91.2h-3.2v4.742a1.6,1.6,0,1,1-3.2.061V91.2H25.813v4.742a1.6,1.6,0,0,1-3.2,0V91.2H19.44v4.742a1.6,1.6,0,0,1-3.2,0V91.2h-3.2v4.742a1.6,1.6,0,0,1-3.2,0V91.2H6.878A1.866,1.866,0,0,0,5,93.077v11.577a1.866,1.866,0,0,0,1.878,1.878H73.506a1.866,1.866,0,0,0,1.878-1.878V93.077A1.866,1.866,0,0,0,73.506,91.2Zm0,0" transform="translate(-4.23 -77.159)" fill="#ea4647"/>
          <path id="Trazado_130556" data-name="Trazado 130556" d="M51.747,222.391a17.1,17.1,0,0,1,30.728-10.314V190.8H15.2v46.8a1.866,1.866,0,0,0,1.878,1.878H68.835a17.089,17.089,0,0,1-17.088-17.088Zm0,0" transform="translate(-12.86 -161.428)" fill="#e9e9ea"/>
          <path id="Trazado_130557" data-name="Trazado 130557" d="M286.778,302.088A17.088,17.088,0,1,1,269.69,285,17.088,17.088,0,0,1,286.778,302.088Zm0,0" transform="translate(-213.715 -241.125)" fill="#55acd5"/>
          <path id="Trazado_130558" data-name="Trazado 130558" d="M304.081,323.239A13.239,13.239,0,1,1,290.841,310,13.24,13.24,0,0,1,304.081,323.239Zm0,0" transform="translate(-234.866 -262.276)" fill="#ffcd29"/>
          <path id="Trazado_130559" data-name="Trazado 130559" d="M356.681,387.539A1.539,1.539,0,1,1,355.141,386,1.54,1.54,0,0,1,356.681,387.539Zm0,0" transform="translate(-299.166 -326.576)" fill="#e9e9ea"/>
          <path id="Trazado_130560" data-name="Trazado 130560" d="M38,50a1.59,1.59,0,0,1,1.6,1.6v9.483a1.6,1.6,0,0,1-3.2,0V51.57A1.6,1.6,0,0,1,38,50Zm0,0" transform="translate(-30.795 -42.303)" fill="#e9e9ea"/>
          <path id="Trazado_130561" data-name="Trazado 130561" d="M79.6,50a1.59,1.59,0,0,1,1.6,1.6v9.483a1.6,1.6,0,0,1-3.2,0V51.57A1.584,1.584,0,0,1,79.6,50Zm0,0" transform="translate(-65.992 -42.303)" fill="#e9e9ea"/>
          <path id="Trazado_130562" data-name="Trazado 130562" d="M121.2,50a1.59,1.59,0,0,1,1.6,1.6v9.483a1.6,1.6,0,1,1-3.2,0V51.57A1.583,1.583,0,0,1,121.2,50Zm0,0" transform="translate(-101.189 -42.303)" fill="#e9e9ea"/>
          <path id="Trazado_130563" data-name="Trazado 130563" d="M327.4,50a1.59,1.59,0,0,1,1.6,1.6v9.483a1.6,1.6,0,0,1-3.2,0V51.57A1.6,1.6,0,0,1,327.4,50Zm0,0" transform="translate(-275.645 -42.303)" fill="#e9e9ea"/>
          <path id="Trazado_130564" data-name="Trazado 130564" d="M369,50a1.59,1.59,0,0,1,1.6,1.6v9.483a1.6,1.6,0,0,1-3.2,0V51.57A1.584,1.584,0,0,1,369,50Zm0,0" transform="translate(-310.839 -42.303)" fill="#e9e9ea"/>
          <path id="Trazado_130565" data-name="Trazado 130565" d="M410.6,50a1.59,1.59,0,0,1,1.6,1.6v9.483a1.6,1.6,0,0,1-3.2,0V51.57A1.584,1.584,0,0,1,410.6,50Zm0,0" transform="translate(-346.035 -42.303)" fill="#e9e9ea"/>
          <path id="Trazado_130566" data-name="Trazado 130566" d="M183.416,231H186.9a1.412,1.412,0,0,1,1.416,1.416V235.9a1.412,1.412,0,0,1-1.416,1.416h-3.479A1.412,1.412,0,0,1,182,235.9v-3.479A1.393,1.393,0,0,1,183.416,231Zm0,0" transform="translate(-153.982 -195.438)" fill="#acdef9"/>
          <path id="Trazado_130567" data-name="Trazado 130567" d="M244.615,231h3.479a1.412,1.412,0,0,1,1.416,1.416V235.9a1.412,1.412,0,0,1-1.416,1.416h-3.479A1.412,1.412,0,0,1,243.2,235.9v-3.479A1.412,1.412,0,0,1,244.615,231Zm0,0" transform="translate(-205.759 -195.438)" fill="#acdef9"/>
          <path id="Trazado_130568" data-name="Trazado 130568" d="M306.018,231H309.5a1.413,1.413,0,0,1,1.417,1.416V235.9a1.413,1.413,0,0,1-1.417,1.416h-3.479A1.412,1.412,0,0,1,304.6,235.9v-3.479A1.393,1.393,0,0,1,306.018,231Zm0,0" transform="translate(-257.709 -195.438)" fill="#6dcc6d"/>
          <path id="Trazado_130569" data-name="Trazado 130569" d="M60.815,292.2h3.479a1.412,1.412,0,0,1,1.416,1.416v3.479a1.412,1.412,0,0,1-1.416,1.416H60.815a1.413,1.413,0,0,1-1.417-1.416v-3.479A1.413,1.413,0,0,1,60.815,292.2Zm0,0" transform="translate(-50.254 -247.216)" fill="#6dcc6d"/>
          <path id="Trazado_130570" data-name="Trazado 130570" d="M122.018,292.2H125.5a1.413,1.413,0,0,1,1.417,1.416v3.479a1.413,1.413,0,0,1-1.417,1.416h-3.479a1.412,1.412,0,0,1-1.416-1.416v-3.479A1.432,1.432,0,0,1,122.018,292.2Zm0,0" transform="translate(-102.036 -247.216)" fill="#6dcc6d"/>
          <path id="Trazado_130571" data-name="Trazado 130571" d="M183.416,292.2H186.9a1.412,1.412,0,0,1,1.416,1.416v3.479a1.412,1.412,0,0,1-1.416,1.416h-3.479A1.412,1.412,0,0,1,182,297.095v-3.479A1.412,1.412,0,0,1,183.416,292.2Zm0,0" transform="translate(-153.982 -247.216)" fill="#6dcc6d"/>
          <path id="Trazado_130572" data-name="Trazado 130572" d="M60.815,353.6h3.479a1.412,1.412,0,0,1,1.416,1.416V358.5a1.413,1.413,0,0,1-1.416,1.417H60.815A1.413,1.413,0,0,1,59.4,358.5v-3.479A1.394,1.394,0,0,1,60.815,353.6Zm0,0" transform="translate(-50.254 -299.166)" fill="#acdef9"/>
          <path id="Trazado_130573" data-name="Trazado 130573" d="M122.018,353.6H125.5a1.413,1.413,0,0,1,1.417,1.416V358.5a1.413,1.413,0,0,1-1.417,1.417h-3.479A1.413,1.413,0,0,1,120.6,358.5v-3.479A1.412,1.412,0,0,1,122.018,353.6Zm0,0" transform="translate(-102.036 -299.166)" fill="#acdef9"/>
          <path id="Trazado_130574" data-name="Trazado 130574" d="M183.416,353.6H186.9a1.412,1.412,0,0,1,1.416,1.416V358.5a1.413,1.413,0,0,1-1.416,1.417h-3.479A1.413,1.413,0,0,1,182,358.5v-3.479A1.393,1.393,0,0,1,183.416,353.6Zm0,0" transform="translate(-153.982 -299.166)" fill="#acdef9"/>
          <path id="Trazado_130575" data-name="Trazado 130575" d="M60.815,414.8h3.479a1.412,1.412,0,0,1,1.416,1.416V419.7a1.412,1.412,0,0,1-1.416,1.416H60.815A1.413,1.413,0,0,1,59.4,419.7v-3.479A1.413,1.413,0,0,1,60.815,414.8Zm0,0" transform="translate(-50.254 -350.943)" fill="#acdef9"/>
          <path id="Trazado_130576" data-name="Trazado 130576" d="M122.018,414.8H125.5a1.413,1.413,0,0,1,1.417,1.416V419.7a1.412,1.412,0,0,1-1.417,1.416h-3.479A1.412,1.412,0,0,1,120.6,419.7v-3.479A1.432,1.432,0,0,1,122.018,414.8Zm0,0" transform="translate(-102.036 -350.943)" fill="#acdef9"/>
          <path id="Trazado_130577" data-name="Trazado 130577" d="M183.416,414.8H186.9a1.412,1.412,0,0,1,1.416,1.416V419.7a1.412,1.412,0,0,1-1.416,1.416h-3.479A1.412,1.412,0,0,1,182,419.7v-3.479A1.412,1.412,0,0,1,183.416,414.8Zm0,0" transform="translate(-153.982 -350.943)" fill="#acdef9"/>
          <path id="Trazado_130578" data-name="Trazado 130578" d="M367.217,231H370.7a1.412,1.412,0,0,1,1.416,1.416V235.9a1.412,1.412,0,0,1-1.416,1.416h-3.479A1.412,1.412,0,0,1,365.8,235.9v-3.479A1.432,1.432,0,0,1,367.217,231Zm0,0" transform="translate(-309.487 -195.438)" fill="#6dcc6d"/>
          <path id="Trazado_130579" data-name="Trazado 130579" d="M249.511,296.264v-2.648a1.432,1.432,0,0,0-1.416-1.416h-3.479a1.432,1.432,0,0,0-1.416,1.416V297.1a1.432,1.432,0,0,0,1.416,1.416h3.048A16.333,16.333,0,0,1,249.511,296.264Zm0,0" transform="translate(-205.759 -247.216)" fill="#acdef9"/>
          <path id="Trazado_130580" data-name="Trazado 130580" d="M294.616,1.324h-.554V.77a.77.77,0,1,0-1.539,0v.554h-.554a.77.77,0,0,0,0,1.539h.554v.554a.77.77,0,1,0,1.539,0V2.864h.554a.77.77,0,1,0,0-1.539Zm0,0" transform="translate(-246.37)" fill="#29c4bb"/>
          <path id="Trazado_130582" data-name="Trazado 130582" d="M152.587,14.863a2.562,2.562,0,0,1-2.033-2.032c0-.031-.031-.031-.061-.031a.03.03,0,0,0-.031.031,2.561,2.561,0,0,1-2.032,2.032c-.031,0-.031.031-.031.062a.03.03,0,0,0,.031.031,2.562,2.562,0,0,1,2.032,2.032c0,.031.031.031.061.031a.03.03,0,0,0,.031-.031,2.562,2.562,0,0,1,2.033-2.032c.031,0,.031-.031.031-.062S152.617,14.863,152.587,14.863Zm0,0" transform="translate(-125.553 -10.83)" fill="#29c4bb"/>
          <g id="Grupo_157617" data-name="Grupo 157617" transform="translate(0 6.897)">
            <path id="Trazado_130583" data-name="Trazado 130583" d="M33.77,59.056A2.371,2.371,0,0,1,31.4,56.685V47.171a2.371,2.371,0,0,1,4.742,0v9.514A2.372,2.372,0,0,1,33.77,59.056Zm0-12.685a.828.828,0,0,0-.832.831v9.483a.831.831,0,0,0,1.663,0V47.171A.821.821,0,0,0,33.77,46.371Zm0,0" transform="translate(-26.565 -44.8)" fill="#231f20"/>
            <path id="Trazado_130584" data-name="Trazado 130584" d="M75.371,59.221A2.371,2.371,0,0,1,73,56.85V47.336a2.371,2.371,0,0,1,4.742,0V56.85a2.392,2.392,0,0,1-2.371,2.371Zm0-12.685a.827.827,0,0,0-.831.831V56.85a.8.8,0,0,0,.831.8.815.815,0,0,0,.8-.8V47.336a.777.777,0,0,0-.8-.8Zm0,0" transform="translate(-61.762 -44.965)" fill="#231f20"/>
            <path id="Trazado_130585" data-name="Trazado 130585" d="M116.972,59.056a2.371,2.371,0,0,1-2.371-2.371V47.171a2.371,2.371,0,1,1,4.741,0v9.514A2.412,2.412,0,0,1,116.972,59.056Zm0-12.685a.827.827,0,0,0-.831.831v9.483a.831.831,0,1,0,1.662,0V47.171A.865.865,0,0,0,116.972,46.371Zm0,0" transform="translate(-96.959 -44.8)" fill="#231f20"/>
            <path id="Trazado_130586" data-name="Trazado 130586" d="M323.171,59.221A2.371,2.371,0,0,1,320.8,56.85V47.336a2.371,2.371,0,0,1,4.742,0V56.85A2.372,2.372,0,0,1,323.171,59.221Zm0-12.685a.827.827,0,0,0-.831.831V56.85a.8.8,0,0,0,.831.8.815.815,0,0,0,.8-.8V47.336a.776.776,0,0,0-.8-.8Zm0,0" transform="translate(-271.414 -44.965)" fill="#231f20"/>
            <path id="Trazado_130587" data-name="Trazado 130587" d="M364.77,59.221A2.371,2.371,0,0,1,362.4,56.85V47.336a2.371,2.371,0,0,1,4.742,0V56.85A2.392,2.392,0,0,1,364.77,59.221Zm0-12.685a.828.828,0,0,0-.832.831V56.85a.8.8,0,0,0,.832.8.815.815,0,0,0,.8-.8V47.336a.776.776,0,0,0-.8-.8Zm0,0" transform="translate(-306.608 -44.965)" fill="#231f20"/>
            <path id="Trazado_130588" data-name="Trazado 130588" d="M406.37,59.221A2.371,2.371,0,0,1,404,56.85V47.336a2.371,2.371,0,0,1,4.742,0V56.85a2.412,2.412,0,0,1-2.371,2.371Zm0-12.685a.827.827,0,0,0-.831.831V56.85a.8.8,0,0,0,.831.8.815.815,0,0,0,.8-.8V47.336a.815.815,0,0,0-.8-.8Zm0,0" transform="translate(-341.805 -44.965)" fill="#231f20"/>
            <path id="Trazado_130589" data-name="Trazado 130589" d="M69.276,103.072H2.648A2.648,2.648,0,0,1,0,100.425V88.847A2.648,2.648,0,0,1,2.648,86.2H5.6a.762.762,0,0,1,.77.77v4.742a.831.831,0,0,0,1.663,0V86.969a.762.762,0,0,1,.77-.77h3.2a.762.762,0,0,1,.77.77v4.742a.816.816,0,0,0,1.632.031V86.969a.762.762,0,0,1,.77-.77h3.2a.762.762,0,0,1,.77.77v4.742a.831.831,0,0,0,1.663,0V86.969a.762.762,0,0,1,.77-.77H50.156a.762.762,0,0,1,.77.77v4.742a.816.816,0,0,0,1.631.031V86.969a.762.762,0,0,1,.77-.77h3.2a.762.762,0,0,1,.77.77v4.742a.816.816,0,0,0,1.632.031V86.969a.762.762,0,0,1,.77-.77h3.2a.762.762,0,0,1,.77.77v4.742a.816.816,0,0,0,1.631.031V86.969a.762.762,0,0,1,.77-.77h3.141a2.648,2.648,0,0,1,2.648,2.648v11.577a2.54,2.54,0,0,1-2.586,2.648ZM2.648,87.739a1.1,1.1,0,0,0-1.108,1.108v11.577a1.1,1.1,0,0,0,1.108,1.108H69.276a1.1,1.1,0,0,0,1.108-1.108V88.847a1.1,1.1,0,0,0-1.108-1.108H66.906v3.972a2.371,2.371,0,1,1-4.742.061V87.739H60.5v3.972a2.371,2.371,0,1,1-4.742.061V87.739H54.1v3.972a2.371,2.371,0,1,1-4.741.061V87.739h-27v3.972a2.371,2.371,0,0,1-4.742,0V87.739H15.98v3.972a2.371,2.371,0,1,1-4.742.061V87.739H9.575v3.972a2.371,2.371,0,0,1-4.742,0V87.739Zm0,0" transform="translate(0 -79.826)" fill="#231f20"/>
            <path id="Trazado_130590" data-name="Trazado 130590" d="M191.474,137.539h-16.9a.77.77,0,0,1,0-1.539h16.9a.77.77,0,1,1,0,1.539Zm0,0" transform="translate(-147.045 -121.96)" fill="#231f20"/>
            <path id="Trazado_130591" data-name="Trazado 130591" d="M182.666,233.652h-3.479A2.195,2.195,0,0,1,177,231.466v-3.479a2.194,2.194,0,0,1,2.186-2.186h3.479a2.194,2.194,0,0,1,2.186,2.186v3.479A2.215,2.215,0,0,1,182.666,233.652Zm-3.479-6.281a.65.65,0,0,0-.646.646V231.5a.65.65,0,0,0,.646.646h3.479a.65.65,0,0,0,.646-.646v-3.479a.65.65,0,0,0-.646-.646Zm0,0" transform="translate(-149.751 -197.936)" fill="#231f20"/>
            <path id="Trazado_130592" data-name="Trazado 130592" d="M243.865,233.652h-3.479a2.195,2.195,0,0,1-2.186-2.186v-3.479a2.194,2.194,0,0,1,2.186-2.186h3.479a2.194,2.194,0,0,1,2.186,2.186v3.479A2.194,2.194,0,0,1,243.865,233.652Zm-3.479-6.281a.65.65,0,0,0-.646.646V231.5a.65.65,0,0,0,.646.646h3.479a.65.65,0,0,0,.646-.646v-3.479a.65.65,0,0,0-.646-.646Zm0,0" transform="translate(-201.529 -197.936)" fill="#231f20"/>
            <path id="Trazado_130593" data-name="Trazado 130593" d="M305.266,233.652h-3.479a2.195,2.195,0,0,1-2.186-2.186v-3.479a2.194,2.194,0,0,1,2.186-2.186h3.479a2.195,2.195,0,0,1,2.187,2.186v3.479A2.195,2.195,0,0,1,305.266,233.652Zm-3.479-6.281a.65.65,0,0,0-.646.646V231.5a.65.65,0,0,0,.646.646h3.479a.651.651,0,0,0,.647-.646v-3.479a.651.651,0,0,0-.647-.646Zm0,0" transform="translate(-253.478 -197.936)" fill="#231f20"/>
            <path id="Trazado_130594" data-name="Trazado 130594" d="M60.064,295.05H56.585a2.195,2.195,0,0,1-2.187-2.186v-3.479a2.2,2.2,0,0,1,2.187-2.186h3.479a2.195,2.195,0,0,1,2.186,2.186v3.479A2.214,2.214,0,0,1,60.064,295.05Zm-3.479-6.312a.651.651,0,0,0-.647.646v3.479a.651.651,0,0,0,.647.646h3.479a.65.65,0,0,0,.646-.646v-3.479a.65.65,0,0,0-.646-.646Zm0,0" transform="translate(-46.024 -249.882)" fill="#231f20"/>
            <path id="Trazado_130595" data-name="Trazado 130595" d="M121.266,295.05h-3.479a2.194,2.194,0,0,1-2.186-2.186v-3.479a2.195,2.195,0,0,1,2.186-2.186h3.479a2.2,2.2,0,0,1,2.187,2.186v3.479A2.195,2.195,0,0,1,121.266,295.05Zm-3.479-6.312a.65.65,0,0,0-.646.646v3.479a.65.65,0,0,0,.646.646h3.479a.651.651,0,0,0,.647-.646v-3.479a.651.651,0,0,0-.647-.646Zm0,0" transform="translate(-97.805 -249.882)" fill="#231f20"/>
            <path id="Trazado_130596" data-name="Trazado 130596" d="M182.666,295.05h-3.479A2.194,2.194,0,0,1,177,292.864v-3.479a2.195,2.195,0,0,1,2.186-2.186h3.479a2.195,2.195,0,0,1,2.186,2.186v3.479A2.214,2.214,0,0,1,182.666,295.05Zm-3.479-6.312a.65.65,0,0,0-.646.646v3.479a.65.65,0,0,0,.646.646h3.479a.65.65,0,0,0,.646-.646v-3.479a.65.65,0,0,0-.646-.646Zm0,0" transform="translate(-149.751 -249.882)" fill="#231f20"/>
            <path id="Trazado_130597" data-name="Trazado 130597" d="M60.064,356.249H56.585a2.195,2.195,0,0,1-2.187-2.186v-3.479a2.2,2.2,0,0,1,2.187-2.187h3.479a2.195,2.195,0,0,1,2.186,2.187v3.479A2.194,2.194,0,0,1,60.064,356.249Zm-3.479-6.281a.65.65,0,0,0-.647.646v3.479a.651.651,0,0,0,.647.647h3.479a.651.651,0,0,0,.646-.647v-3.479a.65.65,0,0,0-.646-.646Zm0,0" transform="translate(-46.024 -301.66)" fill="#231f20"/>
            <path id="Trazado_130598" data-name="Trazado 130598" d="M121.266,356.249h-3.479a2.194,2.194,0,0,1-2.186-2.186v-3.479a2.195,2.195,0,0,1,2.186-2.187h3.479a2.2,2.2,0,0,1,2.187,2.187v3.479A2.175,2.175,0,0,1,121.266,356.249Zm-3.479-6.281a.65.65,0,0,0-.646.646v3.479a.65.65,0,0,0,.646.647h3.479a.651.651,0,0,0,.647-.647v-3.479a.65.65,0,0,0-.647-.646Zm0,0" transform="translate(-97.805 -301.66)" fill="#231f20"/>
            <path id="Trazado_130599" data-name="Trazado 130599" d="M182.666,356.249h-3.479A2.194,2.194,0,0,1,177,354.063v-3.479a2.195,2.195,0,0,1,2.186-2.187h3.479a2.195,2.195,0,0,1,2.186,2.187v3.479A2.194,2.194,0,0,1,182.666,356.249Zm-3.479-6.281a.65.65,0,0,0-.646.646v3.479a.65.65,0,0,0,.646.647h3.479a.651.651,0,0,0,.646-.647v-3.479a.65.65,0,0,0-.646-.646Zm0,0" transform="translate(-149.751 -301.66)" fill="#231f20"/>
            <path id="Trazado_130600" data-name="Trazado 130600" d="M60.064,417.652H56.585a2.2,2.2,0,0,1-2.187-2.186v-3.479a2.195,2.195,0,0,1,2.187-2.186h3.479a2.194,2.194,0,0,1,2.186,2.186v3.479A2.215,2.215,0,0,1,60.064,417.652Zm-3.479-6.312a.651.651,0,0,0-.647.646v3.479a.651.651,0,0,0,.647.646h3.479a.65.65,0,0,0,.646-.646v-3.479a.65.65,0,0,0-.646-.646Zm0,0" transform="translate(-46.024 -353.61)" fill="#231f20"/>
            <path id="Trazado_130601" data-name="Trazado 130601" d="M121.266,417.652h-3.479a2.194,2.194,0,0,1-2.186-2.186v-3.479a2.194,2.194,0,0,1,2.186-2.186h3.479a2.195,2.195,0,0,1,2.187,2.186v3.479A2.195,2.195,0,0,1,121.266,417.652Zm-3.479-6.312a.65.65,0,0,0-.646.646v3.479a.65.65,0,0,0,.646.646h3.479a.651.651,0,0,0,.647-.646v-3.479a.651.651,0,0,0-.647-.646Zm0,0" transform="translate(-97.805 -353.61)" fill="#231f20"/>
            <path id="Trazado_130602" data-name="Trazado 130602" d="M182.666,417.652h-3.479A2.194,2.194,0,0,1,177,415.466v-3.479a2.194,2.194,0,0,1,2.186-2.186h3.479a2.194,2.194,0,0,1,2.186,2.186v3.479A2.215,2.215,0,0,1,182.666,417.652Zm-3.479-6.312a.65.65,0,0,0-.646.646v3.479a.65.65,0,0,0,.646.646h3.479a.65.65,0,0,0,.646-.646v-3.479a.65.65,0,0,0-.646-.646Zm0,0" transform="translate(-149.751 -353.61)" fill="#231f20"/>
            <path id="Trazado_130603" data-name="Trazado 130603" d="M366.467,233.652h-3.479a2.194,2.194,0,0,1-2.186-2.186v-3.479a2.194,2.194,0,0,1,2.186-2.186h3.479a2.194,2.194,0,0,1,2.186,2.186v3.479A2.195,2.195,0,0,1,366.467,233.652Zm-3.479-6.281a.65.65,0,0,0-.646.646V231.5a.65.65,0,0,0,.646.646h3.479a.65.65,0,0,0,.646-.646v-3.479a.65.65,0,0,0-.646-.646Zm0,0" transform="translate(-305.257 -197.936)" fill="#231f20"/>
            <path id="Trazado_130604" data-name="Trazado 130604" d="M243.433,295.05h-3.048a2.194,2.194,0,0,1-2.186-2.186v-3.479a2.195,2.195,0,0,1,2.186-2.186h3.479a2.194,2.194,0,0,1,2.186,2.186v2.648a.742.742,0,0,1-.215.523,16.8,16.8,0,0,0-1.755,2.155A.8.8,0,0,1,243.433,295.05Zm-3.048-6.312a.65.65,0,0,0-.646.646v3.479a.65.65,0,0,0,.646.646h2.648a20.64,20.64,0,0,1,1.478-1.785v-2.34a.65.65,0,0,0-.646-.646Zm4.9,3.295" transform="translate(-201.529 -249.882)" fill="#231f20"/>
            <path id="Trazado_130605" data-name="Trazado 130605" d="M64.605,236.018H12.848a2.648,2.648,0,0,1-2.648-2.648v-46.8a.762.762,0,0,1,.77-.77H78.244a.762.762,0,0,1,.77.77v21.275a.762.762,0,0,1-.77.77.8.8,0,0,1-.616-.308,16.309,16.309,0,1,0-12.993,26.14.762.762,0,0,1,.77.77.815.815,0,0,1-.8.8ZM11.739,187.34v46.03a1.1,1.1,0,0,0,1.108,1.108H57.37a17.866,17.866,0,1,1,20.136-28.727V187.34Zm0,0" transform="translate(-8.63 -164.094)" fill="#231f20"/>
            <path id="Trazado_130606" data-name="Trazado 130606" d="M359.372,334.609a.763.763,0,0,1-.77-.77v-8.467a.77.77,0,0,1,1.539,0v8.467A.763.763,0,0,1,359.372,334.609Zm0,0" transform="translate(-303.396 -281.527)" fill="#231f20"/>
            <path id="Trazado_130607" data-name="Trazado 130607" d="M320.969,403.185a.765.765,0,0,1-.492-1.355l4.772-4a.765.765,0,1,1,.985,1.17l-4.772,4A.755.755,0,0,1,320.969,403.185Zm0,0" transform="translate(-270.905 -343.33)" fill="#231f20"/>
            <path id="Trazado_130608" data-name="Trazado 130608" d="M308.145,242.461a.721.721,0,0,1-.554-.247L306.3,240.8a.763.763,0,0,1,1.14-1.016l.77.831,2.4-2.4a.744.744,0,0,1,1.078.031.8.8,0,0,1,0,1.078l-2.956,2.956a1.31,1.31,0,0,1-.585.185Zm0,0" transform="translate(-258.974 -208.254)" fill="#231f20"/>
            <path id="Trazado_130609" data-name="Trazado 130609" d="M370.145,242.461a.721.721,0,0,1-.554-.247L368.3,240.8a.763.763,0,0,1,1.14-1.016l.77.831,2.4-2.4a.744.744,0,0,1,1.078.031.8.8,0,0,1,0,1.078l-2.956,2.956a1.31,1.31,0,0,1-.585.185Zm0,0" transform="translate(-311.429 -208.254)" fill="#231f20"/>
            <path id="Trazado_130610" data-name="Trazado 130610" d="M64.145,302.357a.721.721,0,0,1-.554-.247L62.3,300.694a.763.763,0,1,1,1.14-1.016l.77.831,2.4-2.4a.763.763,0,0,1,1.109,1.047l-.031.031-2.956,2.956a1.052,1.052,0,0,1-.585.215Zm0,0" transform="translate(-52.537 -258.913)" fill="#231f20"/>
            <path id="Trazado_130611" data-name="Trazado 130611" d="M124.145,302.357a.721.721,0,0,1-.554-.247l-1.294-1.416a.763.763,0,1,1,1.14-1.016l.77.831,2.4-2.4a.763.763,0,0,1,1.109,1.047l-.031.031-2.956,2.956a1.053,1.053,0,0,1-.585.215Zm0,0" transform="translate(-103.3 -258.913)" fill="#231f20"/>
            <path id="Trazado_130612" data-name="Trazado 130612" d="M186.144,302.357a.721.721,0,0,1-.554-.247l-1.294-1.416a.763.763,0,1,1,1.14-1.016l.77.831,2.4-2.4a.763.763,0,0,1,1.109,1.047l-.031.031-2.956,2.956a1.052,1.052,0,0,1-.585.215Zm0,0" transform="translate(-155.756 -258.913)" fill="#231f20"/>
            <path id="Trazado_130613" data-name="Trazado 130613" d="M265.46,315.716a17.858,17.858,0,1,1,17.858-17.858A17.871,17.871,0,0,1,265.46,315.716Zm0-34.176a16.318,16.318,0,1,0,16.318,16.318A16.307,16.307,0,0,0,265.46,281.539Zm0,0" transform="translate(-209.484 -243.792)" fill="#231f20"/>
            <path id="Trazado_130614" data-name="Trazado 130614" d="M286.611,333.018a14.009,14.009,0,1,1,14.009-14.009A14.02,14.02,0,0,1,286.611,333.018Zm0-26.479a12.47,12.47,0,1,0,12.47,12.47A12.457,12.457,0,0,0,286.611,306.539Zm0,0" transform="translate(-230.636 -264.943)" fill="#231f20"/>
            <path id="Trazado_130615" data-name="Trazado 130615" d="M350.911,385.618a2.309,2.309,0,1,1,2.309-2.309A2.326,2.326,0,0,1,350.911,385.618Zm0-3.079a.77.77,0,1,0,.77.77A.762.762,0,0,0,350.911,382.539Zm0,0" transform="translate(-294.936 -329.243)" fill="#231f20"/>
          </g>
        </g>
      </g>
      <rect id="Rectángulo_37298" data-name="Rectángulo 37298" width="119" height="119" transform="translate(446 6967)" fill="none"/>
    </g>
  </g>
</svg>
