<svg xmlns="http://www.w3.org/2000/svg" xmlns:xlink="http://www.w3.org/1999/xlink" width="190" height="197.231" viewBox="0 0 190 197.231">
  <defs>
    <filter id="Elipse_4764" x="5.5" y="5.5" width="179" height="179" filterUnits="userSpaceOnUse">
      <feOffset input="SourceAlpha"/>
      <feGaussianBlur stdDeviation="3.5" result="blur"/>
      <feFlood flood-opacity="0.235"/>
      <feComposite operator="in" in2="blur"/>
      <feComposite in="SourceGraphic"/>
    </filter>
  </defs>
  <g id="Grupo_157846" data-name="Grupo 157846" transform="translate(-390 -3422.999)">
    <g id="Grupo_157542" data-name="Grupo 157542" transform="translate(0 -3657.001)">
      <g id="Elipse_4767" data-name="Elipse 4767" transform="translate(398 7088)" fill="none" stroke="#707070" stroke-width="1" stroke-dasharray="3">
        <circle cx="87" cy="87" r="87" stroke="none"/>
        <circle cx="87" cy="87" r="86.5" fill="none"/>
      </g>
      <path id="Sustracción_5" data-name="Sustracción 5" d="M8227.248,11874.02h0a95.463,95.463,0,0,1-30.676-33.542A94.585,94.585,0,0,1,8185,11795a95.683,95.683,0,0,1,1.93-19.146,94.494,94.494,0,0,1,14.294-33.972,95.271,95.271,0,0,1,41.8-34.419,94.535,94.535,0,0,1,17.832-5.536,95.937,95.937,0,0,1,38.29,0,94.5,94.5,0,0,1,33.971,14.295,95.264,95.264,0,0,1,34.419,41.8,94.525,94.525,0,0,1,5.536,17.833,95.83,95.83,0,0,1-1.033,42.779,94.816,94.816,0,0,1-21.5,40,95.612,95.612,0,0,1-17.066,14.9L8280.5,11782l-53.252,92.02Z" transform="translate(-7795 -4620)" fill="#1169e3"/>
      <g transform="matrix(1, 0, 0, 1, 390, 7080)" filter="url(#Elipse_4764)">
        <circle id="Elipse_4764-2" data-name="Elipse 4764" cx="79" cy="79" r="79" transform="translate(16 16)" fill="#fff"/>
      </g>
    </g>
    <g id="Grupo_157544" data-name="Grupo 157544" transform="translate(0 -3544.001)">
      <g id="Grupo_156335" data-name="Grupo 156335" transform="translate(470 7127.001)">
        <circle id="Elipse_4765" data-name="Elipse 4765" cx="7" cy="7" r="7" transform="translate(8 0)" fill="#1169e3"/>
        <line id="Línea_142" data-name="Línea 142" y2="25.587" transform="translate(15.573 11.643)" fill="none" stroke="#1169e3" stroke-width="2"/>
      </g>
    </g>
    <g id="Grupo_157549" data-name="Grupo 157549" transform="translate(-20 -3512.033)">
      <g id="Grupo_156600" data-name="Grupo 156600" transform="translate(453.654 6975.735)">
        <g id="Grupo_156595" data-name="Grupo 156595">
          <path id="Trazado_127053" data-name="Trazado 127053" d="M16.6,125.969c.665.148.819-.165.812-.786-.017-1.556.01-1.584,1.621-1.574.6,0,.786-.182.774-.775-.011-.553-.112-.81-.75-.807-1.616.006-1.657-.026-1.64-1.639.008-.73-.35-.743-.891-.749s-.821.085-.821.733c0,1.633-.033,1.662-1.628,1.656-.617,0-.763.22-.764.793s.145.793.762.789c1.626-.009,1.665.021,1.629,1.562-.017.715.247.924.9.8" transform="translate(79.511 -62.514)" fill="#29c4bb"/>
          <path id="Trazado_127054" data-name="Trazado 127054" d="M214.4,151.171c-.6-.114-.925.083-.827.757.082.564-.113.878-.737.781s-.834.129-.839.786c0,.689.276.847.863.768.561-.076.738.168.727.726-.018.874.523,1.209,1.368.945.4-.126.314-.446.288-.7-.07-.691.087-1.114.9-.975.631.107.67-.288.668-.773s-.02-.876-.661-.777c-.69.107-1.016-.146-.9-.874.109-.7-.337-.727-.852-.665" transform="translate(-211.994 -77.35)" fill="#29c4bb"/>
          <path id="Trazado_127055" data-name="Trazado 127055" d="M207.493,70.027c-.154.664.15.891.773.786.674-.114.949.163.83.833-.115.648.165.8.793.809.648.006.892-.185.779-.816-.121-.672.16-.949.827-.823.691.13.752-.232.778-.813.031-.683-.234-.861-.829-.757-.646.113-.887-.155-.778-.786.105-.6-.09-.848-.763-.824-.593.021-.936.105-.809.785s-.168.936-.831.824c-.623-.1-.926.118-.771.782" transform="translate(-202.635 -58.429)" fill="#010000"/>
          <path id="Trazado_127056" data-name="Trazado 127056" d="M51.816,187.408c-.145.62.16.847.78.735.727-.132.9.247.795.859-.116.681.214.787.812.783.572,0,.879-.133.759-.749-.158-.81.247-1.008.944-.889.715.122.682-.329.684-.819,0-.475-.01-.878-.656-.75-.869.172-1.091-.245-.974-1.023.112-.745-.455-.53-.834-.553-.4-.024-.848-.076-.731.57.145.8-.135,1.169-.981,1.007-.706-.135-.619.357-.6.829" transform="translate(24.436 -92.788)" fill="#010000"/>
          <path id="Trazado_127057" data-name="Trazado 127057" d="M126.55,18.174c.166-.707-.225-.845-.8-.759-.6.089-.837-.159-.746-.751s-.084-.861-.765-.847c-.626.013-.912.175-.8.817.111.659-.193.873-.811.781-.573-.086-.859.051-.863.751,0,.717.267.909.891.809.66-.105.883.2.781.811-.115.691.256.77.837.782.621.013.824-.221.732-.791-.1-.625.131-.91.783-.8.636.106.908-.156.766-.8" transform="translate(-78.852 -15.816)" fill="#29c4bb"/>
        </g>
        <g id="tecnologia" transform="translate(10.062 8.697)">
          <g id="Grupo_157615" data-name="Grupo 157615" transform="translate(2.203 2.203)">
            <g id="Grupo_157599" data-name="Grupo 157599" transform="translate(52.919 64.946)">
              <path id="Trazado_130520" data-name="Trazado 130520" d="M65.243,58.405v2.405a2.412,2.412,0,0,1-2.405,2.405H48.405A2.412,2.412,0,0,1,46,60.811V58.405A2.412,2.412,0,0,1,48.405,56H62.838A2.412,2.412,0,0,1,65.243,58.405Z" transform="translate(-46 -56)" fill="#fcd770"/>
            </g>
            <g id="Grupo_157600" data-name="Grupo 157600" transform="translate(52.919 57.73)">
              <path id="Trazado_130521" data-name="Trazado 130521" d="M65.243,52.405v2.405a2.412,2.412,0,0,1-2.405,2.405H48.405A2.412,2.412,0,0,1,46,54.811V52.405A2.412,2.412,0,0,1,48.405,50H62.838A2.412,2.412,0,0,1,65.243,52.405Z" transform="translate(-46 -50)" fill="#fcd770"/>
            </g>
            <g id="Grupo_157601" data-name="Grupo 157601" transform="translate(52.919 50.514)">
              <path id="Trazado_130522" data-name="Trazado 130522" d="M65.243,46.405v2.405a2.412,2.412,0,0,1-2.405,2.405H48.405A2.412,2.412,0,0,1,46,48.811V46.405A2.412,2.412,0,0,1,48.405,44H62.838A2.412,2.412,0,0,1,65.243,46.405Z" transform="translate(-46 -44)" fill="#fcd770"/>
            </g>
            <g id="Grupo_157602" data-name="Grupo 157602" transform="translate(57.73 16.838)">
              <path id="Trazado_130523" data-name="Trazado 130523" d="M50,16h7.216v4.811H50Z" transform="translate(-50 -16)" fill="#aab2bd"/>
            </g>
            <g id="Grupo_157603" data-name="Grupo 157603" transform="translate(50.514 12.027)">
              <path id="Trazado_130524" data-name="Trazado 130524" d="M65.649,12v2.405a2.412,2.412,0,0,1-2.405,2.405H46.405A2.412,2.412,0,0,1,44,14.405V12Z" transform="translate(-44 -12)" fill="#ccd1d9"/>
            </g>
            <g id="Grupo_157604" data-name="Grupo 157604" transform="translate(2.405 50.514)">
              <path id="Trazado_130525" data-name="Trazado 130525" d="M25.649,46.405V60.838H4V46.405A2.412,2.412,0,0,1,6.405,44H23.243A2.412,2.412,0,0,1,25.649,46.405Z" transform="translate(-4 -44)" fill="#ccd1d9"/>
            </g>
            <g id="Grupo_157605" data-name="Grupo 157605" transform="translate(0 67.352)">
              <path id="Trazado_130526" data-name="Trazado 130526" d="M28.46,59.2a3.614,3.614,0,0,1-3.608,3.608H5.608A3.6,3.6,0,0,1,2,59.2,1.206,1.206,0,0,1,3.2,58H27.257A1.206,1.206,0,0,1,28.46,59.2Z" transform="translate(-2 -58)" fill="#969faa"/>
            </g>
            <g id="Grupo_157606" data-name="Grupo 157606" transform="translate(0 0)">
              <path id="Trazado_130527" data-name="Trazado 130527" d="M16.432,4.405V6.811H2V4.405A2.412,2.412,0,0,1,4.405,2h9.622A2.412,2.412,0,0,1,16.432,4.405Z" transform="translate(-2 -2)" fill="#969faa"/>
            </g>
            <g id="Grupo_157607" data-name="Grupo 157607" transform="translate(0 16.838)">
              <path id="Trazado_130528" data-name="Trazado 130528" d="M16.432,16v2.405a2.412,2.412,0,0,1-2.405,2.405H4.405A2.412,2.412,0,0,1,2,18.405V16Z" transform="translate(-2 -16)" fill="#969faa"/>
            </g>
            <g id="Grupo_157608" data-name="Grupo 157608" transform="translate(15.635 19.243)">
              <path id="Trazado_130529" data-name="Trazado 130529" d="M51.081,30.027a7.216,7.216,0,0,1,0,14.432H22.216a7.216,7.216,0,1,1,0-14.432h.06a13.22,13.22,0,0,1,26.363.433A7.14,7.14,0,0,1,51.081,30.027Z" transform="translate(-15 -18)" fill="#e6e9ed"/>
            </g>
            <g id="Grupo_157609" data-name="Grupo 157609" transform="translate(43.297 36.081)">
              <circle id="Elipse_4904" data-name="Elipse 4904" cx="2.5" cy="2.5" r="2.5" transform="translate(0.068 0.284)" fill="#ff826e"/>
            </g>
            <g id="Grupo_157610" data-name="Grupo 157610" transform="translate(33.676 36.081)">
              <circle id="Elipse_4905" data-name="Elipse 4905" cx="2.5" cy="2.5" r="2.5" transform="translate(-0.311 0.284)" fill="#ff826e"/>
            </g>
            <g id="Grupo_157611" data-name="Grupo 157611" transform="translate(24.054 36.081)">
              <ellipse id="Elipse_4906" data-name="Elipse 4906" cx="2" cy="2.5" rx="2" ry="2.5" transform="translate(0.311 0.284)" fill="#ff826e"/>
            </g>
            <g id="Grupo_157612" data-name="Grupo 157612" transform="translate(7.216 55.325)">
              <path id="Trazado_130530" data-name="Trazado 130530" d="M8,48H20.027v7.216H8Z" transform="translate(-8 -48)" fill="#69d6f4"/>
            </g>
            <g id="Grupo_157613" data-name="Grupo 157613" transform="translate(50.514 0)">
              <path id="Trazado_130531" data-name="Trazado 130531" d="M65.649,4.405v9.622H44V4.405A2.412,2.412,0,0,1,46.405,2H63.243A2.412,2.412,0,0,1,65.649,4.405Z" transform="translate(-44 -2)" fill="#69d6f4"/>
            </g>
            <g id="Grupo_157614" data-name="Grupo 157614" transform="translate(0 4.811)">
              <path id="Trazado_130532" data-name="Trazado 130532" d="M2,6H16.432V18.027H2Z" transform="translate(-2 -6)" fill="#69d6f4"/>
            </g>
          </g>
          <g id="Grupo_157616" data-name="Grupo 157616" transform="translate(1 1)">
            <path id="Trazado_130533" data-name="Trazado 130533" d="M14,37.446a8.429,8.429,0,0,0,8.419,8.419H51.284a8.419,8.419,0,0,0,0-16.838,8.181,8.181,0,0,0-1.4.12,14.421,14.421,0,0,0-28.472-.06A8.431,8.431,0,0,0,14,37.446Zm8.408-6.012h0l1.162.067.1-1.159a12.015,12.015,0,0,1,23.962.391l.093,1.608,1.515-.545A6.01,6.01,0,1,1,51.284,43.46H22.419a6.013,6.013,0,0,1-.011-12.026Z" transform="translate(1.635 2.243)"/>
            <path id="Trazado_130534" data-name="Trazado 130534" d="M33.622,23.405V21A9.633,9.633,0,0,0,24,30.622h2.405A7.224,7.224,0,0,1,33.622,23.405Z" transform="translate(3.662 3.054)"/>
            <path id="Trazado_130535" data-name="Trazado 130535" d="M29,34.608A3.608,3.608,0,1,0,32.608,31,3.613,3.613,0,0,0,29,34.608Zm4.811,0a1.2,1.2,0,1,1-1.2-1.2A1.2,1.2,0,0,1,33.811,34.608Z" transform="translate(4.676 5.081)"/>
            <path id="Trazado_130536" data-name="Trazado 130536" d="M24.608,38.216A3.608,3.608,0,1,0,21,34.608,3.613,3.613,0,0,0,24.608,38.216Zm0-4.811a1.2,1.2,0,1,1-1.2,1.2A1.2,1.2,0,0,1,24.608,33.405Z" transform="translate(3.054 5.081)"/>
            <path id="Trazado_130537" data-name="Trazado 130537" d="M40.608,38.216A3.608,3.608,0,1,0,37,34.608,3.613,3.613,0,0,0,40.608,38.216Zm0-4.811a1.2,1.2,0,1,1-1.2,1.2A1.2,1.2,0,0,1,40.608,33.405Z" transform="translate(6.297 5.081)"/>
            <path id="Trazado_130538" data-name="Trazado 130538" d="M41.231,10.575l1.7-1.7a13.245,13.245,0,0,0-18.711,0l1.7,1.7A10.836,10.836,0,0,1,41.231,10.575Z" transform="translate(3.707 -0.188)"/>
            <path id="Trazado_130539" data-name="Trazado 130539" d="M38.957,11.467a8.418,8.418,0,0,0-11.907,0l1.7,1.7a6.013,6.013,0,0,1,8.506,0Z" transform="translate(4.281 0.622)"/>
            <path id="Trazado_130540" data-name="Trazado 130540" d="M29.878,14.051l1.7,1.7a1.227,1.227,0,0,1,1.7,0l1.7-1.7A3.7,3.7,0,0,0,29.878,14.051Z" transform="translate(4.854 1.438)"/>
            <path id="Trazado_130541" data-name="Trazado 130541" d="M24.222,49.874l1.7,1.7a10.836,10.836,0,0,1,15.309,0l1.7-1.7A13.245,13.245,0,0,0,24.222,49.874Z" transform="translate(3.707 8.123)"/>
            <path id="Trazado_130542" data-name="Trazado 130542" d="M27.05,52.467l1.7,1.7a6.013,6.013,0,0,1,8.506,0l1.7-1.7a8.418,8.418,0,0,0-11.907,0Z" transform="translate(4.281 8.933)"/>
            <path id="Trazado_130543" data-name="Trazado 130543" d="M29.878,55.051l1.7,1.7a1.227,1.227,0,0,1,1.7,0l1.7-1.7A3.7,3.7,0,0,0,29.878,55.051Z" transform="translate(4.854 9.749)"/>
            <path id="Trazado_130544" data-name="Trazado 130544" d="M1.222,26.874l1.7,1.7a10.836,10.836,0,0,1,15.309,0l1.7-1.7a13.245,13.245,0,0,0-18.711,0Z" transform="translate(-0.955 3.461)"/>
            <path id="Trazado_130545" data-name="Trazado 130545" d="M15.957,29.467a8.418,8.418,0,0,0-11.907,0l1.7,1.7a6.013,6.013,0,0,1,8.506,0Z" transform="translate(-0.382 4.27)"/>
            <path id="Trazado_130546" data-name="Trazado 130546" d="M6.878,32.051l1.7,1.7a1.227,1.227,0,0,1,1.7,0l1.7-1.7A3.7,3.7,0,0,0,6.878,32.051Z" transform="translate(0.192 5.087)"/>
            <path id="Trazado_130547" data-name="Trazado 130547" d="M65.932,26.874a13.245,13.245,0,0,0-18.711,0l1.7,1.7a10.836,10.836,0,0,1,15.309,0Z" transform="translate(8.369 3.461)"/>
            <path id="Trazado_130548" data-name="Trazado 130548" d="M61.957,29.467a8.418,8.418,0,0,0-11.907,0l1.7,1.7a6.013,6.013,0,0,1,8.506,0Z" transform="translate(8.943 4.27)"/>
            <path id="Trazado_130549" data-name="Trazado 130549" d="M52.878,32.051l1.7,1.7a1.227,1.227,0,0,1,1.7,0l1.7-1.7A3.7,3.7,0,0,0,52.878,32.051Z" transform="translate(9.516 5.087)"/>
            <path id="Trazado_130550" data-name="Trazado 130550" d="M63.446,1H46.608A3.613,3.613,0,0,0,43,4.608V16.635a3.613,3.613,0,0,0,3.608,3.608h3.608v2.405H47.811v2.405H62.243V22.649H59.838V20.243h3.608a3.613,3.613,0,0,0,3.608-3.608V4.608A3.613,3.613,0,0,0,63.446,1ZM46.608,3.405H63.446a1.2,1.2,0,0,1,1.2,1.2v8.419H45.405V4.608A1.2,1.2,0,0,1,46.608,3.405ZM57.432,22.649H52.622V20.243h4.811Zm6.014-4.811H46.608a1.2,1.2,0,0,1-1.2-1.2v-1.2H64.649v1.2A1.2,1.2,0,0,1,63.446,17.838Z" transform="translate(7.514 -1)"/>
            <path id="Trazado_130551" data-name="Trazado 130551" d="M4.608,25.054H14.23a3.613,3.613,0,0,0,3.608-3.608V4.608A3.613,3.613,0,0,0,14.23,1H4.608A3.613,3.613,0,0,0,1,4.608V21.446A3.613,3.613,0,0,0,4.608,25.054Zm9.622-2.405H4.608a1.2,1.2,0,0,1-1.2-1.2v-1.2H15.432v1.2A1.2,1.2,0,0,1,14.23,22.649ZM3.405,17.838V8.216H15.432v9.622Zm1.2-14.432H14.23a1.2,1.2,0,0,1,1.2,1.2v1.2H3.405v-1.2A1.2,1.2,0,0,1,4.608,3.405Z" transform="translate(-1 -1)"/>
            <path id="Trazado_130552" data-name="Trazado 130552" d="M63.041,43H48.608A3.613,3.613,0,0,0,45,46.608v2.405a3.585,3.585,0,0,0,.938,2.405A3.579,3.579,0,0,0,45,53.824V56.23a3.585,3.585,0,0,0,.938,2.405A3.579,3.579,0,0,0,45,61.041v2.405a3.613,3.613,0,0,0,3.608,3.608H63.041a3.613,3.613,0,0,0,3.608-3.608V61.041a3.585,3.585,0,0,0-.938-2.405,3.579,3.579,0,0,0,.938-2.405V53.824a3.585,3.585,0,0,0-.938-2.405,3.579,3.579,0,0,0,.938-2.405V46.608A3.613,3.613,0,0,0,63.041,43ZM47.405,46.608a1.2,1.2,0,0,1,1.2-1.2H63.041a1.2,1.2,0,0,1,1.2,1.2v2.405a1.2,1.2,0,0,1-1.2,1.2H48.608a1.2,1.2,0,0,1-1.2-1.2Zm16.838,7.216V56.23a1.2,1.2,0,0,1-1.2,1.2H48.608a1.2,1.2,0,0,1-1.2-1.2V53.824a1.2,1.2,0,0,1,1.2-1.2H63.041A1.2,1.2,0,0,1,64.243,53.824Zm0,9.622a1.2,1.2,0,0,1-1.2,1.2H48.608a1.2,1.2,0,0,1-1.2-1.2V61.041a1.2,1.2,0,0,1,1.2-1.2H63.041a1.2,1.2,0,0,1,1.2,1.2Z" transform="translate(7.919 7.514)"/>
            <path id="Trazado_130553" data-name="Trazado 130553" d="M27.46,59.838V46.608A3.613,3.613,0,0,0,23.851,43H7.014a3.613,3.613,0,0,0-3.608,3.608v13.23A2.408,2.408,0,0,0,1,62.243a4.816,4.816,0,0,0,4.811,4.811H25.054a4.816,4.816,0,0,0,4.811-4.811A2.408,2.408,0,0,0,27.46,59.838ZM5.811,46.608a1.2,1.2,0,0,1,1.2-1.2H23.851a1.2,1.2,0,0,1,1.2,1.2v13.23H5.811ZM25.054,64.649H5.811a2.408,2.408,0,0,1-2.405-2.405H27.46A2.408,2.408,0,0,1,25.054,64.649Z" transform="translate(-1 7.514)"/>
            <path id="Trazado_130554" data-name="Trazado 130554" d="M7,56.622H21.432V47H7Zm2.405-7.216h9.622v4.811H9.405Z" transform="translate(0.216 8.325)"/>
          </g>
        </g>
      </g>
      <rect id="Rectángulo_37298" data-name="Rectángulo 37298" width="119" height="119" transform="translate(446 6967)" fill="none"/>
    </g>
  </g>
</svg>
