<svg xmlns="http://www.w3.org/2000/svg" width="108" height="131" viewBox="0 0 108 131">
  <g id="Grupo_157918" data-name="Grupo 157918" transform="translate(-810 -3007)">
    <g id="Grupo_156902" data-name="Grupo 156902" transform="translate(115.118 1435)">
      <g id="Grupo_156383" data-name="Grupo 156383" transform="translate(695 1572)">
        <rect id="Rectángulo_36766" data-name="Rectángulo 36766" width="108" height="131" rx="12" transform="translate(-0.118)" fill="#0c487b"/>
      </g>
      <g id="Grupo_156901" data-name="Grupo 156901" transform="translate(702.705 1588.953)">
        <path id="Trazado_126894" data-name="Trazado 126894" d="M19.273,131.392c-1.235.275-1.521-.307-1.508-1.46.031-2.89-.018-2.941-3.009-2.923-1.112.006-1.459-.338-1.437-1.44.02-1.026.208-1.5,1.392-1.5,3,.011,3.076-.049,3.044-3.043-.014-1.355.65-1.379,1.654-1.39s1.524.157,1.524,1.36c0,3.032.062,3.086,3.023,3.074,1.146,0,1.417.409,1.419,1.472s-.268,1.472-1.415,1.465c-3.019-.017-3.091.039-3.025,2.9.031,1.328-.459,1.716-1.663,1.482" transform="translate(-13.318 -75.178)" fill="#29c4bb"/>
        <path id="Trazado_126895" data-name="Trazado 126895" d="M216.477,151.2c1.105-.211,1.717.154,1.535,1.406-.152,1.047.21,1.63,1.368,1.451s1.549.24,1.558,1.459c.009,1.279-.513,1.573-1.6,1.427-1.041-.141-1.371.312-1.351,1.348.033,1.622-.972,2.246-2.541,1.754-.745-.233-.582-.828-.534-1.3.13-1.282-.162-2.067-1.676-1.811-1.171.2-1.243-.536-1.24-1.434s.038-1.626,1.227-1.442c1.281.2,1.887-.27,1.674-1.624-.2-1.293.626-1.349,1.582-1.235" transform="translate(-129.288 -90.056)" fill="#29c4bb"/>
        <path id="Trazado_126896" data-name="Trazado 126896" d="M216.332,72.077c.285,1.233-.278,1.654-1.434,1.46-1.252-.211-1.762.3-1.541,1.546.214,1.2-.306,1.491-1.473,1.5-1.2.011-1.656-.344-1.447-1.516.224-1.247-.3-1.761-1.535-1.529-1.283.241-1.4-.43-1.444-1.51-.057-1.267.435-1.6,1.538-1.406,1.2.209,1.647-.287,1.444-1.459-.2-1.121.167-1.575,1.416-1.531,1.1.039,1.738.2,1.5,1.457s.312,1.738,1.543,1.531c1.157-.194,1.719.22,1.432,1.453" transform="translate(-139.275 -39.805)" fill="#010000"/>
        <path id="Trazado_126897" data-name="Trazado 126897" d="M60.645,189.479c.27,1.15-.3,1.573-1.447,1.365-1.351-.244-1.669.458-1.476,1.6.215,1.265-.4,1.461-1.508,1.454-1.062-.007-1.632-.247-1.409-1.391.293-1.5-.459-1.872-1.753-1.65-1.328.227-1.266-.611-1.271-1.522,0-.881.019-1.63,1.218-1.392,1.614.32,2.026-.456,1.808-1.9-.209-1.383.845-.985,1.548-1.027.745-.045,1.575-.141,1.358,1.059-.268,1.483.251,2.17,1.821,1.869,1.31-.251,1.15.662,1.111,1.539" transform="translate(-7.306 -95.955)" fill="#010000"/>
        <path id="Trazado_126898" data-name="Trazado 126898" d="M121.831,20.194c-.309-1.313.417-1.568,1.491-1.409,1.116.166,1.555-.3,1.385-1.4s.156-1.6,1.421-1.573c1.162.024,1.693.325,1.491,1.518-.207,1.224.357,1.622,1.505,1.449,1.063-.159,1.6.1,1.6,1.394.007,1.33-.495,1.687-1.654,1.5-1.225-.2-1.64.363-1.45,1.505.213,1.283-.475,1.43-1.554,1.452-1.154.024-1.529-.41-1.36-1.468.185-1.16-.244-1.69-1.454-1.487-1.182.2-1.686-.289-1.423-1.489" transform="translate(-105.276 -15.817)" fill="#29c4bb"/>
      </g>
      <g id="barra-de-busqueda" transform="translate(715.035 1600.683)">
        <g id="analytic" transform="translate(0 2.399)">
          <path id="Trazado_129884" data-name="Trazado 129884" d="M259.6,53.193a1.2,1.2,0,0,1,1.2-1.2h27.584V40H256v7.857a13.959,13.959,0,0,1,1.973,6.535H260.8A1.2,1.2,0,0,1,259.6,53.193Zm6-10.794h19.189a1.2,1.2,0,0,1,0,2.4H265.595a1.2,1.2,0,0,1,0-2.4Zm0,4.8h19.189a1.2,1.2,0,0,1,0,2.4H265.595a1.2,1.2,0,0,1,0-2.4Z" transform="translate(-221.22 -40)" fill="#ffe600"/>
          <path id="Trazado_129885" data-name="Trazado 129885" d="M50.48,45.152a13.957,13.957,0,0,1,21.9,2.7V40H40V51.993h4.8a1.2,1.2,0,0,1,0,2.4h1.6a13.794,13.794,0,0,1,4.08-9.24Z" transform="translate(-37.601 -40)" fill="#f2db00"/>
          <path id="Trazado_129886" data-name="Trazado 129886" d="M256,160.4a1.2,1.2,0,0,1,1.2-1.2h8.4a1.2,1.2,0,1,1,0,2.4h-8.4a1.2,1.2,0,0,1-1.2-1.2v3.6h9.595a1.2,1.2,0,1,1,0,2.4H256v7.2h9.595a1.2,1.2,0,1,1,0,2.4H256v2.4h9.595a1.2,1.2,0,1,1,0,2.4H256v7.2h9.595a1.2,1.2,0,1,1,0,2.4H256v2.4h9.595a1.2,1.2,0,1,1,0,2.4H256v4.8h32.382V154.4H265.595a1.2,1.2,0,0,1,0-2.4h-7.71A13.938,13.938,0,0,1,256,157.461Zm13.193-2.4a1.2,1.2,0,0,1,1.2-1.2h14.392a1.2,1.2,0,0,1,1.2,1.2v9.595a1.2,1.2,0,0,1-1.2,1.2H270.392a1.2,1.2,0,0,1-1.2-1.2Zm0,14.392a1.2,1.2,0,0,1,1.2-1.2h14.392a1.2,1.2,0,0,1,1.2,1.2v9.595a1.2,1.2,0,0,1-1.2,1.2H270.392a1.2,1.2,0,0,1-1.2-1.2Zm0,14.392a1.2,1.2,0,0,1,1.2-1.2h14.392a1.2,1.2,0,0,1,1.2,1.2v9.595a1.2,1.2,0,0,1-1.2,1.2H270.392a1.2,1.2,0,0,1-1.2-1.2Z" transform="translate(-221.22 -135.21)" fill="#00c6ff"/>
          <path id="Trazado_129887" data-name="Trazado 129887" d="M39.536,162.253l-2.43,2.43.657.657a1.2,1.2,0,0,1,0,1.7L32.4,172.4a1.2,1.2,0,0,1-1.7,0h0l-6.016-6.022a1.2,1.2,0,0,1,0-1.7l5.371-5.372a1.2,1.2,0,0,1,1.7,0l.764.764,1.168-1.168,1.223-1.224a14.569,14.569,0,0,1-2.017-5.7H31.2a1.2,1.2,0,0,1,0,2.4H26.4v4.8a1.2,1.2,0,1,1-2.4,0v13.195a1.2,1.2,0,1,1,2.4,0v27.584H58.78v-4.8H34.794a1.2,1.2,0,1,1,0-2.4H58.78v-2.4H34.794a1.2,1.2,0,1,1,0-2.4H58.78v-7.2H34.794a1.2,1.2,0,0,1,0-2.4H58.78v-2.4H34.794a1.2,1.2,0,0,1,0-2.4H58.78v-7.2h-4.8a1.2,1.2,0,1,1,0-2.4h4.8v-6.533a13.975,13.975,0,0,1-2.1,2.708c-1.316.954-4.228,3.606-8.577,4.04C44.206,164.584,41.031,162.857,39.536,162.253Z" transform="translate(-24 -135.196)" fill="#00bcf3"/>
          <path id="Trazado_129888" data-name="Trazado 129888" d="M400,200h6v7.2h-6Z" transform="translate(-343.632 -176.014)" fill="#d8f5ff"/>
          <path id="Trazado_129889" data-name="Trazado 129889" d="M360,200h6v7.2h-6Z" transform="translate(-309.629 -176.014)" fill="#b1dfff"/>
          <path id="Trazado_129890" data-name="Trazado 129890" d="M400,296h6v7.2h-6Z" transform="translate(-343.632 -257.622)" fill="#d8f5ff"/>
          <path id="Trazado_129891" data-name="Trazado 129891" d="M400,392h6v7.2h-6Z" transform="translate(-343.632 -339.23)" fill="#d8f5ff"/>
          <path id="Trazado_129892" data-name="Trazado 129892" d="M92.1,205.093,93.3,206.3l2.159-2.159q-.36-.314-.708-.661c-.175-.175-.345-.36-.51-.537Z" transform="translate(-81.887 -178.516)" fill="#003f68"/>
          <g id="Grupo_157327" data-name="Grupo 157327" transform="translate(3.221 3.444)">
            <path id="Trazado_129893" data-name="Trazado 129893" d="M45.487,221.509l3.674-3.674,4.324,4.324-3.674,3.674Z" transform="translate(-45.487 -194.619)" fill="#0a4b75"/>
            <path id="Trazado_129894" data-name="Trazado 129894" d="M118.325,66.376a11.609,11.609,0,1,0,0,16.419A11.61,11.61,0,0,0,118.325,66.376Zm-1.313,15.1a9.752,9.752,0,1,1,0-13.792A9.752,9.752,0,0,1,117.012,81.479Z" transform="translate(-90.558 -62.976)" fill="#0a4b75"/>
          </g>
          <circle id="Elipse_4896" data-name="Elipse 4896" cx="7.352" cy="7.352" r="7.352" transform="translate(15.421 7.702)" fill="#d8f5ff"/>
          <g id="Grupo_157328" data-name="Grupo 157328" transform="translate(50.371 38.378)">
            <path id="Trazado_129895" data-name="Trazado 129895" d="M360,296h6v7.2h-6Z" transform="translate(-360 -296)" fill="#b1dfff"/>
            <path id="Trazado_129896" data-name="Trazado 129896" d="M360,392h6v7.2h-6Z" transform="translate(-360 -377.608)" fill="#b1dfff"/>
          </g>
        </g>
        <g id="analytic_1_" transform="translate(0 0)">
          <path id="Trazado_129897" data-name="Trazado 129897" d="M127.544,92.006a9.752,9.752,0,1,0-13.792,0A9.752,9.752,0,0,0,127.544,92.006Zm-12.1-12.093a7.353,7.353,0,1,1,0,10.4h0A7.355,7.355,0,0,1,115.449,79.914Z" transform="translate(-97.869 -67.66)" fill-rule="evenodd"/>
          <path id="Trazado_129898" data-name="Trazado 129898" d="M33.627,70.021a1.2,1.2,0,0,0-1.7,0l-5.371,5.372a1.2,1.2,0,0,0,0,1.7l6.019,6.019a1.2,1.2,0,0,0,1.7,0h0l5.371-5.371a1.2,1.2,0,0,0,0-1.7l-.657-.657,2.43-2.43A14.009,14.009,0,1,0,36.783,68.4l-2.389,2.388Zm-.193,10.543-4.325-4.318,3.675-3.675L37.1,76.889Zm7.018-27.816a11.609,11.609,0,1,1,0,16.419,11.61,11.61,0,0,1,0-16.419Zm-2.21,17.577c.164.182.335.36.51.537q.345.345.708.661L37.3,73.682l-1.214-1.2Z" transform="translate(-25.878 -43.505)" fill-rule="evenodd"/>
          <path id="Trazado_129899" data-name="Trazado 129899" d="M92.361,24H25.2A1.2,1.2,0,0,0,24,25.2V39.591a1.2,1.2,0,0,0,1.2,1.2h6a1.2,1.2,0,0,0,0-2.4H26.4V26.4H91.162V38.392H63.578a1.2,1.2,0,0,0,0,2.4H92.361a1.2,1.2,0,0,0,1.2-1.2V25.2A1.2,1.2,0,0,0,92.361,24Z" transform="translate(-24 -24)" fill-rule="evenodd"/>
          <path id="Trazado_129900" data-name="Trazado 129900" d="M313.2,58.4h19.189a1.2,1.2,0,0,0,0-2.4H313.2a1.2,1.2,0,0,0,0,2.4Z" transform="translate(-268.824 -51.203)" fill-rule="evenodd"/>
          <path id="Trazado_129901" data-name="Trazado 129901" d="M313.2,90.4h19.189a1.2,1.2,0,0,0,0-2.4H313.2a1.2,1.2,0,0,0,0,2.4Z" transform="translate(-268.824 -78.405)" fill-rule="evenodd"/>
          <path id="Trazado_129902" data-name="Trazado 129902" d="M92.361,152H68.375a1.2,1.2,0,0,0,0,2.4H91.162v45.574H26.4V172.388a1.2,1.2,0,1,0-2.4,0v28.784a1.2,1.2,0,0,0,1.2,1.2H92.361a1.2,1.2,0,0,0,1.2-1.2V153.2A1.2,1.2,0,0,0,92.361,152Z" transform="translate(-24 -132.811)" fill-rule="evenodd"/>
          <path id="Trazado_129903" data-name="Trazado 129903" d="M345.2,195.993h14.392a1.2,1.2,0,0,0,1.2-1.2V185.2a1.2,1.2,0,0,0-1.2-1.2H345.2a1.2,1.2,0,0,0-1.2,1.2v9.595A1.2,1.2,0,0,0,345.2,195.993Zm1.2-9.595h11.993v7.2H346.4Z" transform="translate(-296.027 -160.014)" fill-rule="evenodd"/>
          <path id="Trazado_129904" data-name="Trazado 129904" d="M344,290.794a1.2,1.2,0,0,0,1.2,1.2h14.392a1.2,1.2,0,0,0,1.2-1.2V281.2a1.2,1.2,0,0,0-1.2-1.2H345.2a1.2,1.2,0,0,0-1.2,1.2Zm2.4-8.4h11.993v7.2H346.4Z" transform="translate(-296.027 -241.622)" fill-rule="evenodd"/>
          <path id="Trazado_129905" data-name="Trazado 129905" d="M344,386.794a1.2,1.2,0,0,0,1.2,1.2h14.392a1.2,1.2,0,0,0,1.2-1.2V377.2a1.2,1.2,0,0,0-1.2-1.2H345.2a1.2,1.2,0,0,0-1.2,1.2Zm2.4-8.4h11.993v7.2H346.4Z" transform="translate(-296.027 -323.23)" fill-rule="evenodd"/>
          <path id="Trazado_129906" data-name="Trazado 129906" d="M265.595,200h-8.4a1.2,1.2,0,1,0,0,2.4h8.4a1.2,1.2,0,1,0,0-2.4Z" transform="translate(-221.22 -173.615)" fill-rule="evenodd"/>
          <path id="Trazado_129907" data-name="Trazado 129907" d="M231.591,232H217.2a1.2,1.2,0,1,0,0,2.4h14.392a1.2,1.2,0,1,0,0-2.4Z" transform="translate(-187.216 -200.818)" fill-rule="evenodd"/>
          <path id="Trazado_129908" data-name="Trazado 129908" d="M122.78,296H89.2a1.2,1.2,0,1,0,0,2.4H122.78a1.2,1.2,0,1,0,0-2.4Z" transform="translate(-78.405 -255.223)" fill-rule="evenodd"/>
          <path id="Trazado_129909" data-name="Trazado 129909" d="M122.78,328H89.2a1.2,1.2,0,0,0,0,2.4H122.78a1.2,1.2,0,0,0,0-2.4Z" transform="translate(-78.405 -282.426)" fill-rule="evenodd"/>
          <path id="Trazado_129910" data-name="Trazado 129910" d="M122.78,392H89.2a1.2,1.2,0,1,0,0,2.4H122.78a1.2,1.2,0,1,0,0-2.4Z" transform="translate(-78.405 -336.831)" fill-rule="evenodd"/>
          <path id="Trazado_129911" data-name="Trazado 129911" d="M122.78,424H89.2a1.2,1.2,0,1,0,0,2.4H122.78a1.2,1.2,0,1,0,0-2.4Z" transform="translate(-78.405 -364.034)" fill-rule="evenodd"/>
          <path id="Trazado_129912" data-name="Trazado 129912" d="M25.2,160.4a1.2,1.2,0,0,0,1.2-1.2v-4.8h4.8a1.2,1.2,0,0,0,0-2.4h-6a1.2,1.2,0,0,0-1.2,1.2v6A1.2,1.2,0,0,0,25.2,160.4Z" transform="translate(-24 -132.811)" fill-rule="evenodd"/>
        </g>
      </g>
    </g>
  </g>
</svg>
