<svg xmlns="http://www.w3.org/2000/svg" width="114" height="111.063" viewBox="0 0 114 111.063">
  <g id="_x31_0_x2C__Advertising_x2C__Digital_x2C__Marketing_x2C__Promotion" transform="translate(-23.92 -30)">
    <g id="Grupo_157389" data-name="Grupo 157389" transform="translate(23.92 30)">
      <path id="Trazado_130143" data-name="Trazado 130143" d="M142.2,125H57.044a8.127,8.127,0,0,0-8.127,8.129c0,60.24-.006,56.269.011,56.593a8.128,8.128,0,0,0,8.116,7.711H142.2a8.128,8.128,0,0,0,8.116-7.711c.016-.324.011,3.669.011-56.593A8.127,8.127,0,0,0,142.2,125Z" transform="translate(-42.881 -102.063)" fill="#555a66"/>
      <path id="Trazado_130144" data-name="Trazado 130144" d="M83.92,165v53.117h84.5V165H83.92Z" transform="translate(-69.433 -132.405)" fill="#f2f2f2"/>
      <path id="Trazado_130145" data-name="Trazado 130145" d="M132.74,425a7.243,7.243,0,0,1,0,14.487H36.163a7.243,7.243,0,0,1,0-14.487Z" transform="translate(-27.713 -329.63)" fill="#404651"/>
      <path id="Trazado_130146" data-name="Trazado 130146" d="M368.072,86.808l-5.541-4.653-1.258-7.125H354.04L348.5,70.38l-5.544,4.65h-7.234l-1.258,7.125-1.68,1.412h0l-3.858,3.24,3.617,6.265-.027.152-1.229,6.973,6.8,2.475,3.617,6.265,6.8-2.475,5.775,2.1,1.024.372,3.617-6.265,3.81-1.386,2.989-1.089-1.255-7.125Z" transform="translate(-255.28 -60.631)" fill="#f0582f"/>
      <path id="Trazado_130147" data-name="Trazado 130147" d="M304.352,35a5.432,5.432,0,1,1-5.432,5.432A5.433,5.433,0,0,1,304.352,35Z" transform="translate(-232.523 -33.793)" fill="#87c7ff"/>
      <path id="Trazado_130148" data-name="Trazado 130148" d="M82.542,75a3.622,3.622,0,1,1-3.622,3.622A3.623,3.623,0,0,1,82.542,75Z" transform="translate(-65.641 -64.135)" fill="#87c7ff"/>
      <path id="Trazado_130149" data-name="Trazado 130149" d="M188.079,307.13l1.495,3.317-2.212,1-4.426,1.992v0l-1.352.608-1.495-3.32Z" transform="translate(-142.384 -240.219)" fill="#333940"/>
      <path id="Trazado_130150" data-name="Trazado 130150" d="M201.289,336.063a2.427,2.427,0,1,1-4.426,1.992l-1.137-2.523-3.846-8.537v0L196.306,325l1.883,4.179,2.487,5.524Z" transform="translate(-151.327 -253.774)" fill="#22282d"/>
      <path id="Trazado_130151" data-name="Trazado 130151" d="M215.577,321.153a2.289,2.289,0,0,1-1.149,3.03l-2.335,1.052-1.883-4.179,2.212-1,.123-.056A2.3,2.3,0,0,1,215.577,321.153Z" transform="translate(-165.232 -249.831)" fill="#f0582f"/>
      <path id="Trazado_130152" data-name="Trazado 130152" d="M266.514,196.425a2.427,2.427,0,1,1-4.426,1.992l-.167-.369-12.787-28.394a2.427,2.427,0,1,1,4.425-1.992Z" transform="translate(-194.596 -133.338)" fill="#efc203"/>
      <path id="Trazado_130153" data-name="Trazado 130153" d="M155.267,238.85l6.975,15.489-2.214,1-7.989,3.6-1.953.881-1.439-3.2-4.264-9.465-1.272-2.827Z" transform="translate(-114.332 -188.425)" fill="#efc203"/>
      <path id="Trazado_130154" data-name="Trazado 130154" d="M207.065,180.41,219.852,208.8l-2.257.14-17.159,1.065L193.46,194.52,204.953,182.6Z" transform="translate(-152.526 -144.095)" fill="#f5ea0a"/>
      <path id="Trazado_130155" data-name="Trazado 130155" d="M136.22,273.24l4.264,9.465-.012,0-.8.36a5.19,5.19,0,1,1-4.264-9.465l.8-.36Z" transform="translate(-106.17 -214.511)" fill="#f5ea0a"/>
      <path id="Trazado_130156" data-name="Trazado 130156" d="M215.394,299.655l17.159-1.065a22.79,22.79,0,0,1-15.72,16.08l-2.487-5.524,2.335-1.052a2.292,2.292,0,1,0-1.883-4.18l-.123.056-1.495-3.317Z" transform="translate(-167.485 -233.741)" fill="#87c7ff"/>
      <path id="Trazado_130157" data-name="Trazado 130157" d="M140.824,183.233,129.332,195.15l-12.157,5.476,1.272,2.827-.012,0-.8.36a5.19,5.19,0,0,0,4.264,9.465l.8-.36.012,0,1.439,3.2,1.953-.881,1.495,3.32,1.352-.609,3.846,8.537c-.4.022-.806.034-1.214.034a22.638,22.638,0,1,1,0-45.275A22.356,22.356,0,0,1,140.824,183.233Z" transform="translate(-88.397 -144.725)" fill="#87c7ff"/>
      <g id="Grupo_157388" data-name="Grupo 157388" transform="translate(85.711 20.703)">
        <path id="Trazado_130158" data-name="Trazado 130158" d="M434.686,166.682a2.081,2.081,0,1,1-2.794.927A2.083,2.083,0,0,1,434.686,166.682Z" transform="translate(-418.933 -154.215)" fill="#f2f2f2"/>
        <path id="Trazado_130159" data-name="Trazado 130159" d="M402.687,117.831a2.068,2.068,0,0,1-.22.93l-6.71,13.386a2.081,2.081,0,0,1-3.721-1.866l6.707-13.383a2.081,2.081,0,0,1,3.943.934Z" transform="translate(-388.702 -115.746)" fill="#f2f2f2"/>
        <path id="Trazado_130160" data-name="Trazado 130160" d="M381.931,120.692a2.081,2.081,0,1,1-2.794.927,2.082,2.082,0,0,1,2.794-.927Z" transform="translate(-378.917 -119.329)" fill="#f2f2f2"/>
      </g>
      <path id="Trazado_130161" data-name="Trazado 130161" d="M373.92,425H387.2v4.829H373.92Z" transform="translate(-289.415 -329.63)" fill="#22282d"/>
      <path id="Trazado_130162" data-name="Trazado 130162" d="M208.92,425h24.144v4.829H208.92Z" transform="translate(-164.253 -329.63)" fill="#22282d"/>
      <path id="Trazado_130163" data-name="Trazado 130163" d="M88.92,425H102.2v4.829H88.92Z" transform="translate(-73.226 -329.63)" fill="#22282d"/>
      <path id="Trazado_130164" data-name="Trazado 130164" d="M460.731,35a1.811,1.811,0,1,1-1.811,1.811A1.811,1.811,0,0,1,460.731,35Z" transform="translate(-353.892 -33.793)"/>
      <path id="Trazado_130165" data-name="Trazado 130165" d="M345.127,275a1.207,1.207,0,1,1-1.207,1.207A1.208,1.208,0,0,1,345.127,275Z" transform="translate(-266.658 -215.846)"/>
      <path id="Trazado_130166" data-name="Trazado 130166" d="M345.127,295a1.207,1.207,0,1,1-1.207,1.207A1.208,1.208,0,0,1,345.127,295Z" transform="translate(-266.658 -231.018)"/>
      <path id="Trazado_130167" data-name="Trazado 130167" d="M345.127,315a1.207,1.207,0,1,1-1.207,1.207A1.208,1.208,0,0,1,345.127,315Z" transform="translate(-266.658 -246.189)"/>
      <path id="Trazado_130168" data-name="Trazado 130168" d="M345.127,335a1.207,1.207,0,1,1-1.207,1.207A1.208,1.208,0,0,1,345.127,335Z" transform="translate(-266.658 -261.36)"/>
      <path id="Trazado_130169" data-name="Trazado 130169" d="M345.127,355a1.207,1.207,0,1,1-1.207,1.207A1.208,1.208,0,0,1,345.127,355Z" transform="translate(-266.658 -276.531)"/>
      <path id="Trazado_130170" data-name="Trazado 130170" d="M270.731,85a1.811,1.811,0,1,1-1.811,1.811A1.811,1.811,0,0,1,270.731,85Z" transform="translate(-209.767 -71.721)"/>
      <path id="Trazado_130171" data-name="Trazado 130171" d="M175.731,55a1.811,1.811,0,1,1-1.811,1.811A1.811,1.811,0,0,1,175.731,55Z" transform="translate(-137.704 -48.964)"/>
      <path id="Trazado_130172" data-name="Trazado 130172" d="M35.731,90a1.811,1.811,0,1,1-1.811,1.811A1.811,1.811,0,0,1,35.731,90Z" transform="translate(-31.506 -75.513)"/>
      <path id="Trazado_130173" data-name="Trazado 130173" d="M229.272,427.243H205.127a1.207,1.207,0,0,1-1.207-1.207v-4.829a1.207,1.207,0,0,1,2.414,0v3.622h21.73v-3.622a1.207,1.207,0,0,1,2.414,0v4.829A1.207,1.207,0,0,1,229.272,427.243Z" transform="translate(-160.46 -325.837)"/>
      <path id="Trazado_130174" data-name="Trazado 130174" d="M128.948,436.9H32.371a8.451,8.451,0,1,1,0-16.9h5.713a1.207,1.207,0,0,1,0,2.414H32.371a6.036,6.036,0,0,0,0,12.072h96.577a6.036,6.036,0,0,0,0-12.072h-5.715a1.207,1.207,0,1,1,0-2.414h5.715a8.451,8.451,0,0,1,0,16.9Z" transform="translate(-23.92 -325.837)"/>
      <path id="Trazado_130175" data-name="Trazado 130175" d="M98.407,427.243H85.127a1.207,1.207,0,0,1-1.207-1.207v-4.829a1.207,1.207,0,1,1,2.414,0v3.622H97.2v-3.622a1.207,1.207,0,1,1,2.414,0v4.829A1.207,1.207,0,0,1,98.407,427.243Z" transform="translate(-69.433 -325.837)"/>
      <path id="Trazado_130176" data-name="Trazado 130176" d="M383.407,427.243H370.127a1.207,1.207,0,0,1-1.207-1.207v-4.829a1.207,1.207,0,0,1,2.414,0v3.622H382.2v-3.622a1.207,1.207,0,0,1,2.414,0v4.829A1.207,1.207,0,0,1,383.407,427.243Z" transform="translate(-285.622 -325.837)"/>
      <path id="Trazado_130177" data-name="Trazado 130177" d="M224.516,312.083a1.207,1.207,0,0,1-.331-2.368,21.567,21.567,0,0,0,14.884-15.224,1.207,1.207,0,1,1,2.336.61,23.992,23.992,0,0,1-16.557,16.936,1.212,1.212,0,0,1-.332.047Z" transform="translate(-175.168 -229.947)"/>
      <path id="Trazado_130178" data-name="Trazado 130178" d="M127.789,223.931a23.845,23.845,0,1,1,0-47.69,23.463,23.463,0,0,1,9.74,2.1,1.207,1.207,0,1,1-1,2.2,21.065,21.065,0,0,0-8.745-1.884,21.43,21.43,0,1,0,0,42.861c.373,0,.75-.01,1.149-.032a1.207,1.207,0,0,1,.13,2.411C128.625,223.919,128.206,223.931,127.789,223.931Z" transform="translate(-84.605 -140.932)"/>
      <path id="Trazado_130179" data-name="Trazado 130179" d="M133.751,280.96a6.4,6.4,0,0,1-2.631-12.234l.8-.36a1.207,1.207,0,0,1,.991,2.2l-.8.36a3.983,3.983,0,1,0,3.272,7.263l.8-.36a1.207,1.207,0,0,1,.991,2.2l-.8.36A6.38,6.38,0,0,1,133.751,280.96Z" transform="translate(-102.378 -210.734)"/>
      <path id="Trazado_130180" data-name="Trazado 130180" d="M177.792,322.764a1.207,1.207,0,0,1-1.1-.712l-1.495-3.32a1.207,1.207,0,1,1,2.2-.991l1,2.219.251-.113a1.207,1.207,0,0,1,.991,2.2l-1.352.609A1.2,1.2,0,0,1,177.792,322.764Z" transform="translate(-138.59 -247.728)"/>
      <path id="Trazado_130181" data-name="Trazado 130181" d="M188.087,310.849a1.207,1.207,0,0,1-.5-2.308l5.536-2.493-1-2.217a1.207,1.207,0,1,1,2.2-.992l1.495,3.317a1.207,1.207,0,0,1-.6,1.6l-6.638,2.989A1.2,1.2,0,0,1,188.087,310.849Z" transform="translate(-147.533 -236.424)"/>
      <path id="Trazado_130182" data-name="Trazado 130182" d="M214.217,322.656a1.207,1.207,0,0,1-.5-2.308l2.335-1.052a1.086,1.086,0,0,0,.641-.99,1.06,1.06,0,0,0-.1-.441,1.089,1.089,0,0,0-1.438-.546l-.121.055a1.207,1.207,0,1,1-.994-2.2l.123-.056a3.508,3.508,0,0,1,4.629,1.753,3.462,3.462,0,0,1,.31,1.436,3.5,3.5,0,0,1-2.065,3.192l-2.333,1.052a1.209,1.209,0,0,1-.495.106Z" transform="translate(-167.355 -246.044)"/>
      <path id="Trazado_130183" data-name="Trazado 130183" d="M165.407,264.244a1.207,1.207,0,0,1-.5-2.308l3.532-1.591a1.207,1.207,0,1,1,.992,2.2l-3.532,1.591A1.2,1.2,0,0,1,165.407,264.244Z" transform="translate(-130.329 -204.649)"/>
      <path id="Trazado_130184" data-name="Trazado 130184" d="M171.6,277.984a1.207,1.207,0,0,1-.5-2.308l3.532-1.591a1.207,1.207,0,1,1,.992,2.2l-3.532,1.591a1.2,1.2,0,0,1-.5.107Z" transform="translate(-135.025 -215.071)"/>
      <path id="Trazado_130185" data-name="Trazado 130185" d="M177.787,291.734a1.207,1.207,0,0,1-.5-2.308l3.532-1.591a1.207,1.207,0,1,1,.992,2.2l-3.532,1.591A1.2,1.2,0,0,1,177.787,291.734Z" transform="translate(-139.72 -225.501)"/>
      <path id="Trazado_130186" data-name="Trazado 130186" d="M195.285,336.9a3.642,3.642,0,0,1-3.315-2.143l-4.983-11.061a1.208,1.208,0,1,1,2.223-.944l4.962,11.013a1.219,1.219,0,1,0,2.224-1L191.412,321.7a1.207,1.207,0,1,1,2.2-.992L198.6,331.77a3.637,3.637,0,0,1-3.312,5.128Z" transform="translate(-147.534 -249.978)"/>
      <path id="Trazado_130187" data-name="Trazado 130187" d="M247.613,228.973a1.208,1.208,0,0,1-1.1-.715L239.6,212.8a1.207,1.207,0,0,1,2.2-.985l6.905,15.46a1.208,1.208,0,0,1-1.1,1.7Z" transform="translate(-187.449 -167.374)"/>
      <path id="Trazado_130188" data-name="Trazado 130188" d="M233.15,242.606a1.207,1.207,0,0,1-1.11-.732l-3.252-7.591a1.207,1.207,0,0,1,2.219-.951l3.252,7.591a1.208,1.208,0,0,1-1.109,1.683Z" transform="translate(-179.249 -183.684)"/>
      <path id="Trazado_130189" data-name="Trazado 130189" d="M146.292,257.229a1.207,1.207,0,0,1-1.1-.712l-6.975-15.489a1.207,1.207,0,0,1,.605-1.6l12.157-5.476a1.207,1.207,0,1,1,.992,2.2l-11.056,4.98,5.984,13.286,11.056-4.979a1.207,1.207,0,1,1,.991,2.2l-12.156,5.476A1.21,1.21,0,0,1,146.292,257.229Z" transform="translate(-110.539 -184.632)"/>
      <path id="Trazado_130190" data-name="Trazado 130190" d="M196.642,207.423a1.208,1.208,0,0,1-1.1-.712l-6.975-15.488a1.208,1.208,0,0,1,.232-1.334L202.4,175.78a1.207,1.207,0,1,1,1.739,1.675L191.1,190.977l6.3,13.982,18.584-1.153a1.207,1.207,0,0,1,.149,2.41l-19.417,1.2-.075,0Z" transform="translate(-148.733 -140.302)"/>
      <path id="Trazado_130191" data-name="Trazado 130191" d="M260.507,197.263a3.642,3.642,0,0,1-3.315-2.143l-12.953-28.763a3.634,3.634,0,1,1,6.627-2.984l12.953,28.763a3.641,3.641,0,0,1-1.822,4.8A3.6,3.6,0,0,1,260.507,197.263ZM247.55,163.644a1.223,1.223,0,0,0-.5.109,1.219,1.219,0,0,0-.607,1.611l12.953,28.763a1.224,1.224,0,0,0,1.114.72,1.2,1.2,0,0,0,.5-.108,1.223,1.223,0,0,0,.611-1.614l-12.952-28.762A1.225,1.225,0,0,0,247.55,163.644Z" transform="translate(-190.799 -129.545)"/>
      <path id="Trazado_130192" data-name="Trazado 130192" d="M164.632,215.532H80.127a1.207,1.207,0,0,1-1.207-1.207V161.207A1.207,1.207,0,0,1,80.127,160h62.744a1.207,1.207,0,0,1,0,2.414H81.334v50.7h82.091V176.548a1.207,1.207,0,1,1,2.414,0v37.776A1.207,1.207,0,0,1,164.632,215.532Z" transform="translate(-65.641 -128.612)"/>
      <path id="Trazado_130193" data-name="Trazado 130193" d="M138.4,194.847H53.254a9.346,9.346,0,0,1-9.334-9.337V129.337A9.346,9.346,0,0,1,53.254,120h63.335a1.207,1.207,0,1,1,0,2.414H53.254a6.929,6.929,0,0,0-6.92,6.922v56.174a6.929,6.929,0,0,0,6.92,6.922H138.4a6.93,6.93,0,0,0,6.922-6.922V138.927a1.207,1.207,0,0,1,2.414,0v46.584A9.347,9.347,0,0,1,138.4,194.847Z" transform="translate(-39.091 -98.27)"/>
      <path id="Trazado_130194" data-name="Trazado 130194" d="M337.9,106.352a1.207,1.207,0,0,1-1.046-.6l-3.4-5.885-6.386-2.324A1.207,1.207,0,0,1,326.3,96.2l1.18-6.692-3.4-5.885a1.207,1.207,0,0,1,.269-1.528l3.858-3.24.047-.037,1.3-1.093,1.182-6.693a1.207,1.207,0,0,1,1.189-1h6.794l5.207-4.368a1.207,1.207,0,0,1,1.552,0l5.207,4.368h6.794a1.207,1.207,0,0,1,1.189,1l1.182,6.693,5.2,4.37a1.207,1.207,0,0,1,.269,1.528l-3.4,5.885,1.179,6.692a1.207,1.207,0,0,1-.776,1.344l-6.387,2.325-3.4,5.885a1.207,1.207,0,0,1-1.458.531l-6.387-2.325-6.386,2.324a1.206,1.206,0,0,1-.413.073Zm6.8-4.889a1.209,1.209,0,0,1,.413.073l5.847,2.129,3.111-5.389a1.206,1.206,0,0,1,.633-.531l5.847-2.128-1.08-6.128a1.206,1.206,0,0,1,.143-.813l3.111-5.389-4.766-4a1.208,1.208,0,0,1-.413-.714l-1.082-6.128h-6.221a1.208,1.208,0,0,1-.776-.282l-4.768-4-4.768,4a1.207,1.207,0,0,1-.776.282h-6.221l-1.082,6.128a1.207,1.207,0,0,1-.412.714l-1.68,1.412-.048.038-3.038,2.551,3.111,5.389a1.208,1.208,0,0,1,.144.812l-1.08,6.129,5.847,2.128a1.207,1.207,0,0,1,.633.531l3.11,5.388,5.847-2.128a1.21,1.21,0,0,1,.413-.073Z" transform="translate(-251.487 -56.837)"/>
      <path id="Trazado_130195" data-name="Trazado 130195" d="M377.2,122.049a3.3,3.3,0,0,1-1.471-.349,3.289,3.289,0,1,1,1.471.349Zm0-4.163a.874.874,0,0,0-.392,1.656.862.862,0,0,0,.39.093.873.873,0,0,0,.394-1.654A.859.859,0,0,0,377.2,117.885Z" transform="translate(-289.408 -94.835)"/>
      <path id="Trazado_130196" data-name="Trazado 130196" d="M429.954,168.037a3.3,3.3,0,0,1-1.474-.35,3.289,3.289,0,0,1,1.475-6.229,3.29,3.29,0,0,1,0,6.579Zm0-4.164a.876.876,0,1,0,.393.094.867.867,0,0,0-.393-.094Z" transform="translate(-329.425 -129.718)"/>
      <path id="Trazado_130197" data-name="Trazado 130197" d="M390.108,130.709a3.291,3.291,0,0,1-2.94-4.763l6.708-13.384a3.289,3.289,0,0,1,5.882,2.945l-6.71,13.387a3.269,3.269,0,0,1-2.94,1.816Zm6.71-17.549a.87.87,0,0,0-.784.483l-6.708,13.384a.876.876,0,0,0,.389,1.173.87.87,0,0,0,1.173-.388l6.71-13.387a.86.86,0,0,0,.092-.388.875.875,0,0,0-.485-.785A.854.854,0,0,0,396.818,113.16Z" transform="translate(-299.201 -91.25)"/>
      <path id="Trazado_130198" data-name="Trazado 130198" d="M372.2,357.414H360.127a1.207,1.207,0,0,1,0-2.414H372.2a1.207,1.207,0,0,1,0,2.414Z" transform="translate(-278.037 -276.531)"/>
      <path id="Trazado_130199" data-name="Trazado 130199" d="M372.2,337.414H360.127a1.207,1.207,0,0,1,0-2.414H372.2a1.207,1.207,0,0,1,0,2.414Z" transform="translate(-278.037 -261.36)"/>
      <path id="Trazado_130200" data-name="Trazado 130200" d="M372.2,317.414H360.127a1.207,1.207,0,0,1,0-2.414H372.2a1.207,1.207,0,0,1,0,2.414Z" transform="translate(-278.037 -246.189)"/>
      <path id="Trazado_130201" data-name="Trazado 130201" d="M372.2,297.414H360.127a1.207,1.207,0,0,1,0-2.414H372.2a1.207,1.207,0,0,1,0,2.414Z" transform="translate(-278.037 -231.018)"/>
      <path id="Trazado_130202" data-name="Trazado 130202" d="M372.2,277.414H360.127a1.207,1.207,0,0,1,0-2.414H372.2a1.207,1.207,0,0,1,0,2.414Z" transform="translate(-278.037 -215.846)"/>
      <path id="Trazado_130203" data-name="Trazado 130203" d="M300.56,43.279a6.64,6.64,0,1,1,6.64-6.64A6.647,6.647,0,0,1,300.56,43.279Zm0-10.865a4.225,4.225,0,1,0,4.225,4.225A4.23,4.23,0,0,0,300.56,32.414Z" transform="translate(-228.73 -30)"/>
      <path id="Trazado_130204" data-name="Trazado 130204" d="M78.749,79.658a4.829,4.829,0,1,1,4.829-4.829A4.834,4.834,0,0,1,78.749,79.658Zm0-7.243a2.414,2.414,0,1,0,2.414,2.414A2.417,2.417,0,0,0,78.749,72.414Z" transform="translate(-61.848 -60.342)"/>
    </g>
  </g>
</svg>
