<?xml version="1.0" encoding="utf-8"?>
<!-- Generator: Adobe Illustrator 26.2.1, SVG Export Plug-In . SVG Version: 6.00 Build 0)  -->
<svg version="1.1" id="Layer_1" xmlns="http://www.w3.org/2000/svg" xmlns:xlink="http://www.w3.org/1999/xlink" x="0px" y="0px"
	 viewBox="0 0 1030 628.3" style="enable-background:new 0 0 1030 628.3;" xml:space="preserve">
<style type="text/css">
	.st0{clip-path:url(#SVGID_00000053538446626662118790000010941525314229685894_);}
	.st1{fill:#CCD8E0;}
	.st2{fill:#E3F1FA;}
	.st3{fill:#E0EDF5;}
	.st4{fill:#FFFFFF;}
	.st5{fill:#D7E3EB;}
	.st6{fill:#38321B;}
	.st7{fill:#263238;}
	.st8{fill:#455A64;}
	.st9{fill:#FFC09D;}
	.st10{fill:#FF9B6C;}
	.st11{fill:#29C4BB;}
	.st12{fill:none;stroke:#263238;stroke-width:0.75;stroke-linecap:round;stroke-linejoin:round;}
	.st13{fill:#0A3F88;}
	.st14{clip-path:url(#SVGID_00000120554385390615535050000012512433563622659756_);}
	.st15{clip-path:url(#SVGID_00000103241520304218210250000002029966103528602555_);}
	.st16{clip-path:url(#SVGID_00000149360918624675845270000003638938907772387754_);}
	.st17{clip-path:url(#SVGID_00000063594676944369899080000008367303531167334057_);}
	.st18{clip-path:url(#SVGID_00000127728812967108809500000015291591551106877080_);}
	.st19{opacity:0.6;}
	.st20{clip-path:url(#SVGID_00000183209871745526773370000001381686611494823330_);}
	.st21{fill:#1169E3;}
	.st22{fill:#0D54B5;}
	.st23{fill:#D0D1DE;}
	.st24{fill:#110239;}
	.st25{fill:#E5E6ED;}
	.st26{fill:none;}
</style>
<g>
	<g id="Grupo_86293" transform="translate(-9858 -9854.957)">
		<g>
			<defs>
				<rect id="SVGID_1_" x="9858" y="9855" width="1030" height="628.3"/>
			</defs>
			<clipPath id="SVGID_00000104684994072322806170000014415706080332074935_">
				<use xlink:href="#SVGID_1_"  style="overflow:visible;"/>
			</clipPath>
			<g id="Grupo_86292" style="clip-path:url(#SVGID_00000104684994072322806170000014415706080332074935_);">
				<path id="Trazado_116570" class="st1" d="M10635.5,10079.6c-6.7-4.2-14.3-6.8-22.1-7.6c-3.6-0.4-7.6-0.3-10.5,1.9
					c-0.7,0.4-1.1,1.1-1.1,1.9c0.2,0.5,0.5,1,1,1.3C10611.8,10084,10625.5,10084.9,10635.5,10079.6"/>
				<path id="Trazado_116571" class="st1" d="M10634.9,10079c-5-3.9-10.1-7.9-14.3-12.6c-4.2-4.7-7.7-10.4-9-16.6
					c-0.4-1.9-0.5-4.1,0.7-5.6C10623.8,10053.2,10632.7,10064.7,10634.9,10079"/>
				<path id="Trazado_116572" class="st1" d="M10635.4,10079.5c-0.9-6.2-1.2-12.7,0.3-18.8c1.4-6.1,4.8-12,10-15.5
					c2,4.6,1.1,9.9-0.3,14.7c-2.2,7.5-5.5,14.5-9.9,20.9"/>
				<path id="Trazado_116573" class="st1" d="M10646.6,10099.6c-6.8,0.8-12.7,4.4-17.8,9c-5.1,4.6-8.6,10.7-10.2,17.4
					c6.7-0.4,12.3-5.1,16.4-10.4c4.1-5.3,6.9-11,11.4-16"/>
				<path id="Trazado_116574" class="st1" d="M10649,10102.8c-5.4-13.8-3.5-29.4,5.1-41.4
					C10657.9,10075.1,10656.5,10090.6,10649,10102.8"/>
				<path id="Trazado_116575" class="st1" d="M10663.8,10120.3c-12.7-0.8-24.6,6.1-30.3,17.4c-0.4,0.8-0.7,1.7-0.2,2.4
					c0.5,0.5,1.3,0.7,2,0.6c6-0.4,11.3-4,15.6-8.1c4.4-4.1,8.2-8.8,13-12.4"/>
				<path id="Trazado_116576" class="st1" d="M10663.3,10119.4c-3.2-10.2-3.4-21.2-0.6-31.5c1.1-4.1,3-8.3,6.7-10.2
					c0.3-0.2,0.7-0.3,1-0.2c0.3,0.2,0.5,0.4,0.7,0.8c1.3,2.8,1.8,5.9,1.6,9c-0.2,3.1-0.7,6.1-1.4,9.2c-1.2,5.6-1.8,11.6-4.9,16.4
					c-0.7,1.2-1.4,2.4-2,3.6c-0.6,1.2-0.6,1.7-1.1,2.6"/>
				<path id="Trazado_116577" class="st1" d="M10702.4,10125.2c-2.9-11,0.2-24.4,7.1-33.4c0.5-0.7,1.2-1.4,2-1.3
					c1.3,0.1,1.6,1.8,1.6,3.1C10712.5,10104.9,10708.8,10115.9,10702.4,10125.2"/>
				<path id="Trazado_116578" class="st1" d="M10705.9,10127.6c13.4,3.5,28.7,0.1,39.9-8.1c-6.7-3.4-14.3-4.3-21.6-2.6
					C10717,10118.5,10710.4,10121.7,10705.9,10127.6"/>
				<path id="Trazado_116579" class="st1" d="M10708.9,10120.3c7.5-12.2,21.9-20.2,36.2-20.9c-1.7,5.8-6.4,10.4-11.8,13.1
					c-5.4,2.7-11.4,3.9-17.4,5.1C10713.5,10118,10710.4,10118.5,10708.9,10120.3"/>
				<path id="Trazado_116580" class="st1" d="M10703.1,10084.7c2-7,4.1-14,4.6-21.2s-0.5-14.8-4.2-21c-7,13.6-7.7,29.4-0.6,42.9"/>
				<path id="Trazado_116581" class="st1" d="M10726.7,10072.8c8.2-14.9,24.9-26.8,41.8-28.4
					C10762,10060.6,10744.2,10073.1,10726.7,10072.8"/>
				<path id="Trazado_116582" class="st1" d="M10721.5,10075.7c12.2,1.9,22.6,9.7,34,14.4c2.4,1.2,5,1.7,7.7,1.5
					c2.6-0.3,5.2-2.1,5.8-4.7c0.4-2.2-0.4-4.4-2-6c-1.6-1.5-3.5-2.6-5.6-3.4c-12.4-5.2-25.8-5.3-38.9-2.2"/>
				<path id="Trazado_116583" class="st1" d="M10714.5,10084.3c2.8,0.8,3.7,2.2,5.9,4.1c7.5,6.3,16.3,10.9,25.8,13.3
					c1,0.2,2.3,0.3,2.8-0.5c0.4-0.8-0.1-1.7-0.7-2.4c-4-5-9.6-8.4-15.6-10.6c-6-2.2-11.1-4.9-18.2-4.3"/>
				<path id="Trazado_116584" class="st1" d="M10706.5,10032.5c10.1,9.3,23.7,14,37.4,12.7c0.6,0,1.2-0.2,1.7-0.6
					c0.9-1-0.2-2.6-1.3-3.5C10733.4,10032.6,10720,10029,10706.5,10032.5"/>
				<path id="Trazado_116585" class="st1" d="M10716,10029.1c13.4-9.9,30.8-12.8,46.7-7.7c-5.9,5.8-14,8.9-22.3,9.8
					C10732.2,10031.9,10723.9,10031.2,10716,10029.1"/>
				<path id="Trazado_116586" class="st1" d="M10712.2,10005.3c-1.1-11-0.4-19.7-1.1-30.7c-0.1-0.9-0.3-1.9-1.1-2.3
					c-1.1-0.4-2.1,1-2.5,2.1c-3.2,10.4-1.5,21.7,4.7,30.6"/>
				<path id="Trazado_116587" class="st1" d="M10711.4,10006.5c7.4-4.6,13-10.6,18.2-17.7c3.6-4.9,6.6-10.8,5.8-16.8
					c-5-0.1-9.8,2.7-13.1,6.5s-5.2,8.6-6.7,13.5S10713.1,10001.7,10711.4,10006.5"/>
				<path id="Trazado_116588" class="st1" d="M10729.3,10001.5c16.4-6.1,31.6-15,44.8-26.4c-5.4-2.2-11.5-0.9-16.8,1.3
					c-12.2,4.9-22.2,13.3-28.2,25"/>
				<path id="Trazado_116589" class="st1" d="M10716.4,10012.5c8.3,0.9,16.7,1.5,24.9,0.1c8.1-1.3,15.7-4.5,23.2-7.7
					c0.7-0.2,1.2-0.6,1.6-1.2c0.2-0.7,0-1.5-0.6-2c-0.6-0.5-1.3-0.8-2-0.9c-8.2-2.3-17-1.2-25.1,1.5
					C10730.8,10004.9,10723.4,10008.4,10716.4,10012.5"/>
				<path id="Trazado_116590" class="st1" d="M10669.2,10032.9c-5.6-11.4-5.3-24.7-0.4-36.4c3.4,5.2,3.8,11.9,3.2,18.1
					s-2.5,12.6-2.6,18.9"/>
				<path id="Trazado_116591" class="st1" d="M10646.7,10021.5c-14.3-0.2-28,5.6-37.7,16.1c7,1.1,14.3-0.7,20.7-3.8
					c6.4-3.1,12.1-7.5,17.7-11.9"/>
				<path id="Trazado_116592" class="st1" d="M10631.5,10016.5c-6.9-0.6-13.5-1.4-20.1,0.6s-12.7,6.6-15.4,13
					c6.4,0.7,13-0.9,18.9-3.6S10626.2,10020.2,10631.5,10016.5"/>
				<path id="Trazado_116593" class="st1" d="M10654,10016.7c-6.2-4.1-12.6-8.2-19.8-9.9c-7.2-1.7-15.6-0.4-20.6,5
					c5.8,3.4,12.9,3.8,19.7,3.8c6.8,0,15.1-0.1,21.5,2.2"/>
				<path id="Trazado_116594" class="st1" d="M10654,10017c-10.6-10.4-14.6-29.1-10.4-43.3
					C10652,9986.5,10655.7,10001.8,10654,10017"/>
				<path id="Trazado_116595" class="st1" d="M10683.1,9987.5c2-4.6,3.4-9.5,5.2-14.3c1.8-4.7,4-9.4,7.4-13.1
					c3.4-3.8,8.1-6.6,13.1-6.8c-3.3,14.5-12.5,26.9-25.5,34.3"/>
				<path id="Trazado_116596" class="st1" d="M10677.9,9993.7c-3.3-4.6-7.1-10.7-11.6-14.1c-4.5-3.4-10.3-5.5-15.8-4.1
					C10656.2,9985.5,10666.4,9992.2,10677.9,9993.7"/>
				<path id="Trazado_116597" class="st1" d="M10678.9,9987.9c-2.2-5.5-4.4-11.1-5.2-16.9c-0.9-5.9-0.3-12.1,2.6-17.2
					c5.8,11,7.7,22.8,2.9,34.3"/>
				<path id="Trazado_116598" class="st1" d="M10683.2,9953.8c3.3-10.9,13.3-18.9,24.1-22.6c1.3-0.5,2.8-0.8,4.2-0.6
					c1.5,0.2,2.7,1.2,3.1,2.6c0.4,1.9-1.1,3.5-2.6,4.7C10703.6,9945.1,10693.8,9950.5,10683.2,9953.8"/>
				<path id="Trazado_116599" class="st1" d="M10683.3,9944.9c0.4-7,0.9-14.2,3.1-20.8s6.7-12.9,13.1-15.8c1.1,7.1-2,14.2-5.8,20.3
					c-3.8,6.1-8.3,11.9-10.6,18.7"/>
				<path id="Trazado_116600" class="st1" d="M10683.1,9949.7c-2.7-7.9-3-18-7.8-25c-3.3-4.8-8.7-8.1-11.5-13.3
					c-1.9,4.8-1.3,10.3,0.7,15.1s5.3,8.8,8.8,12.6C10676.9,9942.9,10679.9,9945.7,10683.1,9949.7"/>
				<path id="Trazado_116601" class="st1" d="M10683.2,10183.7c-0.2,0-0.4-53-0.4-118.4c0-65.4,0.1-118.4,0.4-118.4
					c0.2,0,0.4,53,0.4,118.4C10683.6,10130.7,10683.4,10183.7,10683.2,10183.7"/>
				<path id="Trazado_116602" class="st1" d="M10729.5,10024.9c-0.6,0.3-1.3,0.6-2,0.7l-5.5,1.8c-4.6,1.6-11,3.9-17.9,6.7
					c-6.8,2.9-13.3,5.3-16.9,8.5c-1.5,1.2-2.6,2.8-3.4,4.5c-0.5,1.2-0.6,2-0.7,2c0-0.2,0-0.4,0-0.6c0.1-0.5,0.2-1,0.4-1.5
					c0.7-1.8,1.8-3.5,3.3-4.8c2.2-1.9,4.7-3.4,7.3-4.6c2.9-1.4,6.2-2.8,9.7-4.2c6.9-2.8,13.3-5,18-6.5c2.3-0.7,4.2-1.3,5.6-1.6
					C10728.1,10025.1,10728.8,10025,10729.5,10024.9"/>
				<path id="Trazado_116603" class="st1" d="M10744.7,9987.6c-0.2,0.2-0.3,0.4-0.6,0.6l-1.7,1.6l-6.3,5.8l-21.1,18.8
					c-8.2,7.3-15.4,14.4-20.3,19.6c-2.5,2.6-4.4,4.8-5.8,6.3l-1.5,1.8c-0.2,0.2-0.4,0.4-0.6,0.6c0.1-0.2,0.3-0.5,0.5-0.7
					c0.3-0.4,0.8-1.1,1.4-1.8c1.3-1.6,3.2-3.8,5.6-6.5c6.4-7,13.1-13.6,20.2-19.8c8.3-7.3,15.8-13.9,21.3-18.6l6.5-5.6l1.8-1.5
					C10744.2,9987.9,10744.5,9987.7,10744.7,9987.6"/>
				<path id="Trazado_116604" class="st1" d="M10706,10021.9c-0.2-0.1,1.5-4.1,3.2-9.1c1.7-5,2.5-9.3,2.8-9.2c0.2,0-0.3,4.4-2,9.5
					c-0.7,2.2-1.6,4.3-2.6,6.4C10707.1,10020.3,10706.6,10021.1,10706,10021.9"/>
				<path id="Trazado_116605" class="st1" d="M10683.2,10053.9c-0.5-0.4-0.9-0.9-1.3-1.5l-3.3-4.2c-2.7-3.5-6.5-8.4-10.8-13.8
					c-4.2-5.3-8.1-10.1-11-13.6c-1.3-1.6-2.4-3-3.3-4.1c-0.4-0.5-0.8-1-1.1-1.6c0.5,0.4,1,0.9,1.4,1.4c0.8,0.9,2.1,2.3,3.5,4
					c2.9,3.4,6.9,8.1,11.1,13.5c4.2,5.3,8,10.3,10.6,13.9c1.3,1.8,2.4,3.3,3.1,4.3C10682.6,10052.8,10683,10053.3,10683.2,10053.9"
					/>
				<path id="Trazado_116606" class="st1" d="M10673.1,10040.9c-0.1,0.1-2.8-3.1-4.3-8c-0.8-2.6-1.1-5.3-1-8l0.3,0
					c-0.2,0.6-0.3,0.9-0.3,0.9c-0.1,0-0.1-0.4,0-1l0.3,0c0.2,2.6,0.6,5.3,1.4,7.8C10670.9,10037.4,10673.3,10040.8,10673.1,10040.9"
					/>
				<path id="Trazado_116607" class="st1" d="M10660,10024.4c-0.9-0.7-1.9-1.3-3-1.7c-2.7-0.8-5.5-1-8.2-0.7
					c-2.8,0.2-5.6,0.7-8.3,1.3c-1.1,0.4-2.3,0.6-3.4,0.8c1-0.6,2.1-1.1,3.3-1.3c2.7-0.8,5.5-1.4,8.4-1.6c3.3-0.3,6.5,0,8.5,0.9
					C10658.4,10022.6,10659.3,10023.4,10660,10024.4"/>
				<path id="Trazado_116608" class="st1" d="M10656.9,10020.4c-0.1,0.1-1.7-0.7-4.6-1.7c-7.4-2.5-15.3-3.1-22.9-1.7
					c-2.9,0.5-4.7,1.1-4.7,0.9c0.4-0.2,0.8-0.4,1.2-0.5c1.1-0.4,2.3-0.7,3.4-1c7.7-1.7,15.8-1.1,23.2,1.8c1.1,0.4,2.2,0.9,3.2,1.5
					C10656.2,10019.9,10656.5,10020.1,10656.9,10020.4"/>
				<path id="Trazado_116609" class="st1" d="M10683.1,10003.5c-0.2,0.1-1.7-5.1-3.3-11.5c-1.6-6.4-2.8-11.7-2.6-11.7
					s1.7,5.1,3.3,11.5S10683.4,10003.5,10683.1,10003.5"/>
				<path id="Trazado_116610" class="st1" d="M10683.4,10003.5c-0.2,0.1-1.2-3.4-3.7-6.9c-2.4-3.6-5.5-5.4-5.4-5.6
					c0.8,0.2,1.5,0.6,2.1,1.1c1.5,1.1,2.9,2.5,4,4.1C10682.9,9999.8,10683.5,10003.5,10683.4,10003.5"/>
				<path id="Trazado_116611" class="st1" d="M10683.2,10155.4c-0.1,0-0.2-1.3-0.8-3.5c-0.9-3.2-2.1-6.2-3.5-9.2
					c-3.7-7.5-10.3-17-18.8-26.5c-4.2-4.8-8.3-9.3-11.7-13.6c-3.1-3.8-5.9-7.8-8.4-12.1c-1.7-2.9-3.1-5.9-4.2-9
					c-0.4-1.1-0.7-2-0.8-2.6c-0.1-0.3-0.2-0.6-0.2-0.9c0.1,0,0.5,1.2,1.3,3.4c1.2,3,2.7,6,4.4,8.8c2.5,4.2,5.4,8.2,8.5,11.9
					c3.5,4.3,7.5,8.8,11.7,13.6c8.5,9.5,15.1,19.1,18.7,26.7c1.5,3,2.6,6.1,3.3,9.3c0.2,0.9,0.4,1.8,0.5,2.7
					C10683.2,10154.8,10683.2,10155.1,10683.2,10155.4"/>
				<path id="Trazado_116612" class="st1" d="M10725,10108.1c-0.7,0.5-1.4,0.9-2.2,1.2c-2,1.1-3.9,2.4-5.7,3.8
					c-2.7,2.1-5.2,4.4-7.5,6.8c-2.6,2.8-5.3,6-8.1,9.4c-5.5,6.9-10.7,13-13.8,17.9c-1.6,2.4-2.7,4.5-3.5,5.9
					c-0.4,0.8-0.8,1.5-1.2,2.2c0-0.2,0.1-0.4,0.2-0.6c0.2-0.4,0.4-1,0.7-1.7c1-2.1,2.1-4.1,3.3-6.1c3-5,8.1-11.2,13.6-18.1
					c2.8-3.5,5.5-6.7,8.2-9.4c2.4-2.5,4.9-4.7,7.7-6.8c1.9-1.4,3.8-2.6,5.9-3.6c0.7-0.4,1.3-0.6,1.7-0.8
					C10724.6,10108.2,10724.8,10108.2,10725,10108.1"/>
				<path id="Trazado_116613" class="st1" d="M10725.9,10123.5c-1.5,0.3-3.1,0.6-4.6,0.7c-3.7,0.4-7.4,1.1-11,2.2
					c-3.5,1.2-6.9,2.9-9.8,5.2c-2.3,1.8-3.3,3.2-3.4,3.1c0.2-0.4,0.4-0.8,0.7-1.1c0.7-0.9,1.5-1.7,2.4-2.5c2.9-2.4,6.3-4.3,10-5.5
					c3.6-1.1,7.4-1.7,11.2-2C10722.7,10123.4,10724.3,10123.4,10725.9,10123.5"/>
				<path id="Trazado_116614" class="st1" d="M10698.3,10132.9c-0.2-0.1,1.8-3.3,3.5-7.6c1.5-4.3,1.9-8.1,2.2-8.1
					c0.1,0.8,0.1,1.7-0.1,2.5c-0.2,2-0.7,4-1.4,5.9c-0.7,1.9-1.6,3.7-2.7,5.4C10699.4,10131.7,10698.9,10132.3,10698.3,10132.9"/>
				<path id="Trazado_116615" class="st1" d="M10738.6,10067c-0.2,0.2-0.5,0.3-0.7,0.4l-2.2,1c-1,0.4-2.1,0.9-3.4,1.6
					c-1.3,0.7-2.8,1.4-4.4,2.3l-2.5,1.4c-0.9,0.5-1.7,1.1-2.7,1.7c-1.9,1.1-3.7,2.5-5.7,3.9c-8.5,6.4-16,14.1-22.1,22.8
					c-1.4,2-2.7,4-3.7,5.9c-0.5,0.9-1.1,1.8-1.6,2.7c-0.5,0.9-0.9,1.8-1.3,2.6c-0.9,1.6-1.5,3.2-2.2,4.5s-1.1,2.5-1.5,3.5
					c-0.4,0.9-0.7,1.6-0.9,2.2c-0.1,0.3-0.2,0.5-0.4,0.8c0-0.3,0.1-0.5,0.2-0.8c0.2-0.6,0.5-1.3,0.8-2.3c0.3-1,0.8-2.2,1.4-3.5
					c0.6-1.3,1.2-2.9,2.1-4.6l1.3-2.6c0.5-0.9,1-1.8,1.6-2.8c1-1.9,2.4-3.9,3.7-5.9c6-8.9,13.6-16.6,22.2-23c2-1.4,3.9-2.8,5.8-3.9
					c0.9-0.6,1.8-1.2,2.7-1.7l2.6-1.4c1.6-0.9,3.2-1.6,4.5-2.2s2.5-1.1,3.5-1.5l2.2-0.9
					C10738.1,10067.1,10738.3,10067,10738.6,10067"/>
				<path id="Trazado_116616" class="st1" d="M10705.5,10089.2c0.3-1.1,0.9-2,1.8-2.7c2-1.8,4.6-2.8,7.3-2.8c2.6,0,5.3,0.5,7.7,1.5
					c1,0.3,2,0.8,2.9,1.4c-1.1-0.2-2.1-0.5-3.1-0.9c-2.4-0.8-5-1.3-7.5-1.3c-2.5,0.1-5,0.9-7,2.5
					C10706.9,10087.6,10706.1,10088.3,10705.5,10089.2"/>
				<path id="Trazado_116617" class="st1" d="M10700.5,10094.3c-0.2-0.1,1.7-2.9,2.1-6.8c0.5-3.9-0.7-7-0.5-7.1
					c0.4,0.6,0.7,1.3,0.9,2c0.9,3.4,0.5,7-1.2,10.2C10701.2,10093.7,10700.6,10094.3,10700.5,10094.3"/>
				<path id="Trazado_116618" class="st1" d="M10646.6,10163c1.1,20.3,7.2,40.9,16.6,61.7h40.8c9-20.6,14.6-41.2,15.6-61.7H10646.6z
					"/>
				<path id="Trazado_116619" class="st2" d="M10713.1,10195.8c0,0.2-13.4,0.4-30,0.4c-16.6,0-30-0.2-30-0.4c0-0.2,13.4-0.4,30-0.4
					C10699.6,10195.4,10713.1,10195.6,10713.1,10195.8"/>
				<path id="Trazado_116620" class="st2" d="M10712.2,10203.1c0,0.2-12.6,0.4-28.1,0.4s-28.1-0.2-28.1-0.4s12.6-0.4,28.1-0.4
					S10712.2,10202.9,10712.2,10203.1"/>
				<path id="Trazado_116621" class="st2" d="M10663.9,10176.3c0.2,0,0.4,4.2,0.4,9.4c0,5.2-0.2,9.4-0.4,9.4s-0.4-4.2-0.4-9.4
					C10663.5,10180.5,10663.7,10176.3,10663.9,10176.3"/>
				<path id="Trazado_116622" class="st2" d="M10685.8,10176.3c0.2,0,0.4,4.4,0.4,9.7s-0.2,9.7-0.4,9.7s-0.4-4.4-0.4-9.7
					S10685.5,10176.3,10685.8,10176.3"/>
				<path id="Trazado_116623" class="st2" d="M10706.3,10176.1c0.2,0,0.4,4.4,0.4,9.9c0,5.5-0.2,9.9-0.4,9.9s-0.4-4.4-0.4-9.9
					C10705.9,10180.6,10706.1,10176.1,10706.3,10176.1"/>
				<path id="Trazado_116624" class="st2" d="M10718.4,10176.3c0,0.2-15.8,0.4-35.2,0.4c-19.4,0-35.2-0.2-35.2-0.4
					s15.8-0.4,35.2-0.4S10718.4,10176.1,10718.4,10176.3"/>
				<path id="Trazado_116625" class="st1" d="M10133.4,9861v110.4h-158.5l-5.7-109.6L10133.4,9861z"/>
				<rect id="Rectángulo_36785" x="9969.1" y="9861.8" class="st3" width="158.5" height="109.4"/>
				<path id="Trazado_116626" class="st1" d="M10128.4,9971.9h-160V9861h160V9971.9z M9969.9,9970.4h157v-107.9h-157L9969.9,9970.4z
					"/>
				<rect id="Rectángulo_36786" x="9986.3" y="9875.3" class="st4" width="124.2" height="82.2"/>
				<path id="Trazado_116627" class="st1" d="M10110.5,9875.3c0,0-0.2,0-0.6,0l-1.8,0l-6.8,0l-25.6,0.1l-89.4,0.2l0.4-0.4
					c0,25.1,0,52.9,0,82.2v0l-0.4-0.4l124.2,0.1l-0.3,0.3c0.1-25,0.1-45.5,0.2-59.8c0-7.1,0.1-12.7,0.1-16.5c0-1.9,0-3.3,0-4.3
					C10110.5,9875.9,10110.5,9875.3,10110.5,9875.3c0,0,0,0.5,0,1.4c0,1,0,2.4,0,4.3c0,3.8,0,9.4,0.1,16.5c0,14.3,0.1,34.9,0.2,60
					v0.3h-0.3l-124.2,0.1h-0.4v-0.4c0-29.2,0-57.1,0-82.2v-0.4h0.4l89.6,0.2l25.5,0.1l6.7,0l1.7,0
					C10110.3,9875.3,10110.5,9875.3,10110.5,9875.3"/>
				<path id="Trazado_116628" class="st1" d="M9969.1,9861.4c1,0.5,1.9,1.1,2.7,1.8c1.6,1.2,3.8,2.8,6.2,4.7c2.4,1.9,4.5,3.7,6,5.1
					c0.9,0.7,1.6,1.5,2.3,2.3c-0.1,0.2-4-3-8.7-6.8C9972.8,9864.8,9969,9861.6,9969.1,9861.4"/>
				<path id="Trazado_116629" class="st1" d="M10127.7,9861.8c0.1,0.2-3.6,3.3-8.3,7.1c-4.7,3.8-8.7,6.7-8.8,6.5
					c-0.1-0.2,3.6-3.3,8.3-7.1S10127.5,9861.6,10127.7,9861.8"/>
				<path id="Trazado_116630" class="st4" d="M10127.5,9971.1l-17.7-14.3"/>
				<path id="Trazado_116631" class="st1" d="M10109.8,9956.8c0.1-0.2,4.2,2.9,9.1,6.9c4.9,4,8.7,7.3,8.6,7.5
					c-0.1,0.2-4.2-2.9-9.1-6.9C10113.6,9960.3,10109.7,9957,10109.8,9956.8"/>
				<path id="Trazado_116632" class="st1" d="M9969.1,9971.1c-0.1-0.2,3.6-3.3,8.3-7c4.7-3.7,8.6-6.6,8.7-6.4c0.1,0.2-3.6,3.3-8.3,7
					C9973.2,9968.4,9969.3,9971.3,9969.1,9971.1"/>
				<rect id="Rectángulo_36787" x="10011.5" y="9901" class="st1" width="78.1" height="27.5"/>
				<path id="Trazado_116633" class="st5" d="M10871.5,10359.9c0,68.1-220.9,123.4-493.3,123.4s-493.3-55.2-493.3-123.4
					c0-68.1,220.9-123.4,493.3-123.4S10871.5,10291.8,10871.5,10359.9"/>
				<path id="Trazado_116634" class="st4" d="M10370.9,10467.9c-119.6,0-232-11.2-316.6-31.6c-84.9-20.4-131.6-47.7-131.6-76.9
					c0-29.1,46.7-56.4,131.6-76.9c84.6-20.4,197-31.6,316.6-31.6c119.6,0,232,11.2,316.6,31.6c84.9,20.4,131.6,47.7,131.6,76.9
					c0,29.1-46.7,56.4-131.6,76.9C10602.9,10456.7,10490.5,10467.9,10370.9,10467.9 M10370.9,10252.4c-246.3,0-446.8,48-446.8,107
					c0,59,200.4,107,446.8,107c246.3,0,446.8-48,446.8-107C10817.6,10300.4,10617.2,10252.4,10370.9,10252.4"/>
				<path id="Trazado_116635" class="st4" d="M10360.8,10431.5c-99.7,0-193.4-8.2-264-23.1c-70.8-15-109.8-35-109.8-56.5
					c0-21.4,39-41.5,109.8-56.5c70.5-14.9,164.3-23.1,264-23.1s193.4,8.2,264,23.1c70.8,15,109.8,35,109.8,56.5
					c0,21.4-39,41.5-109.8,56.5C10554.2,10423.3,10460.5,10431.5,10360.8,10431.5 M10360.8,10273.7c-205.3,0-372.4,35.1-372.4,78.2
					c0,43.1,167,78.2,372.4,78.2c205.3,0,372.4-35.1,372.4-78.2C10733.1,10308.8,10566.1,10273.7,10360.8,10273.7"/>
				<path id="Trazado_116636" class="st4" d="M10360.8,10407.8c-74.9,0-145.2-6.2-198.2-17.4c-53.3-11.3-82.6-26.4-82.6-42.6
					c0-16.2,29.3-31.3,82.6-42.6c52.9-11.2,123.3-17.4,198.2-17.4c74.9,0,145.2,6.2,198.2,17.4c53.3,11.3,82.6,26.4,82.6,42.6
					c0,16.2-29.3,31.3-82.6,42.6C10506,10401.6,10435.6,10407.8,10360.8,10407.8 M10360.8,10289.3c-154,0-279.3,26.2-279.3,58.5
					c0,32.3,125.3,58.5,279.3,58.5c154,0,279.3-26.2,279.3-58.5C10640.1,10315.6,10514.8,10289.3,10360.8,10289.3"/>
				<path id="Trazado_116637" class="st4" d="M10347.9,10392.3c-52.5,0-101.9-4.3-139-12.2c-37.5-7.9-58.1-18.6-58.1-30.1
					c0-11.5,20.6-22.1,58.1-30.1c37.1-7.9,86.5-12.2,139-12.2s101.9,4.3,139,12.2c37.5,7.9,58.1,18.6,58.1,30.1
					c0,11.5-20.6,22.1-58.1,30.1C10449.7,10388,10400.4,10392.3,10347.9,10392.3 M10347.9,10309.2c-52.4,0-101.7,4.3-138.7,12.1
					c-36.2,7.7-57,18.1-57,28.7c0,10.6,20.8,21,57,28.7c37,7.8,86.3,12.1,138.7,12.1s101.7-4.3,138.7-12.1c36.2-7.7,57-18.1,57-28.7
					c0-10.6-20.8-21-57-28.7C10449.5,10313.6,10400.3,10309.2,10347.9,10309.2"/>
				<rect id="Rectángulo_36788" x="10070.8" y="10071.1" class="st3" width="69.6" height="18.4"/>
				<path id="Trazado_116638" class="st1" d="M10111,10108.9c0-0.1,0-0.2,0-0.3c0-0.2,0-0.6,0-0.9c0-0.9,0-2.1-0.1-3.6
					c0-3.2-0.1-7.7-0.1-13.5l0.2,0.2l-69.6,0.1c0.2-0.2-0.4,0.4,0.3-0.4v4.7c0,1.6,0,3.1,0,4.6c0,3.1,0,6.1,0,9l-0.3-0.3l49.6,0.2
					l14.6,0.1l4,0l1,0C10110.7,10108.9,10110.8,10108.9,10111,10108.9c-0.1,0-0.2,0-0.3,0l-1,0l-3.9,0l-14.6,0.1l-49.8,0.2h-0.3
					v-0.3c0-3,0-6,0-9c0-1.5,0-3.1,0-4.6c0-0.8,0-1.6,0-2.3v-2.4c0.7-0.7,0.2-0.2,0.4-0.4l69.6,0.1h0.2v0.2
					c-0.1,5.8-0.1,10.4-0.1,13.6c0,1.5,0,2.7-0.1,3.6c0,0.4,0,0.7,0,0.9C10111,10108.7,10111,10108.8,10111,10108.9"/>
				<rect id="Rectángulo_36789" x="10776.4" y="9895.7" class="st3" width="69.6" height="18.4"/>
				<path id="Trazado_116639" class="st1" d="M10816.6,9933.4c0-0.1,0-0.2,0-0.3c0-0.2,0-0.6,0-0.9c0-0.9,0-2.1-0.1-3.6
					c0-3.2-0.1-7.7-0.1-13.5l0.2,0.2l-69.6,0.1c0.2-0.2-0.4,0.4,0.3-0.4v4.7c0,1.6,0,3.1,0,4.6c0,3.1,0,6.1,0,9l-0.3-0.3l49.6,0.2
					l14.6,0.1l4,0l1,0C10816.3,9933.4,10816.4,9933.4,10816.6,9933.4c-0.1,0-0.2,0-0.3,0l-1,0l-3.9,0l-14.6,0.1l-49.8,0.2h-0.3v-0.3
					c0-3,0-6,0-9c0-1.5,0-3.1,0-4.6c0-0.8,0-1.6,0-2.3v-2.4c0.7-0.7,0.2-0.2,0.4-0.4l69.6,0.1h0.2v0.2c-0.1,5.8-0.1,10.4-0.1,13.6
					c0,1.5,0,2.7-0.1,3.6c0,0.4,0,0.7,0,0.9C10816.6,9933.2,10816.6,9933.3,10816.6,9933.4"/>
				<rect id="Rectángulo_36790" x="10429.8" y="10080.6" class="st3" width="69.6" height="18.4"/>
				<path id="Trazado_116640" class="st1" d="M10469.9,10118.4c0-0.1,0-0.2,0-0.3c0-0.2,0-0.6,0-0.9c0-0.9,0-2.1-0.1-3.6
					c0-3.2-0.1-7.7-0.1-13.5l0.2,0.2l-69.6,0.1c0.2-0.2-0.4,0.4,0.3-0.4v4.7c0,1.6,0,3.1,0,4.6c0,3.1,0,6.1,0,9l-0.3-0.3l49.6,0.2
					l14.6,0.1l4,0l1,0C10469.7,10118.4,10469.8,10118.4,10469.9,10118.4c-0.1,0-0.2,0-0.3,0l-1,0l-3.9,0l-14.6,0.1l-49.8,0.2h-0.3
					v-0.3c0-3,0-6,0-9c0-1.5,0-3.1,0-4.6c0-0.8,0-1.6,0-2.3v-2.4c0.7-0.7,0.2-0.2,0.4-0.4l69.6,0.1h0.2v0.2
					c-0.1,5.8-0.1,10.4-0.1,13.6c0,1.5,0,2.7-0.1,3.6c0,0.4,0,0.7,0,0.9C10470,10118.2,10470,10118.3,10469.9,10118.4"/>
				<path id="Trazado_116641" class="st1" d="M10493,9986.9c0-0.1,0-0.2,0-0.3c0-0.2,0-0.6,0-0.9c0-0.9,0-2.1-0.1-3.6
					c0-3.2-0.1-7.7-0.1-13.5l0.2,0.2l-69.6,0.1c0.2-0.2-0.4,0.4,0.3-0.4v9.3c0,3.1,0,6.1,0,9l-0.3-0.3l49.6,0.2l14.6,0.1l4,0l1,0
					C10492.8,9986.9,10492.9,9986.9,10493,9986.9c-0.1,0-0.2,0-0.3,0l-1,0l-3.9,0l-14.5,0.1l-49.8,0.2h-0.3v-0.3c0-3,0-6,0-9v-4.6
					c0-0.8,0-1.6,0-2.3v-2.4c0.7-0.7,0.2-0.2,0.4-0.4l69.6,0.1h0.2v0.2c-0.1,5.8-0.1,10.4-0.1,13.6c0,1.5,0,2.7-0.1,3.6
					c0,0.4,0,0.7,0,0.9C10493,9986.7,10493,9986.8,10493,9986.9"/>
				<path id="Trazado_116642" class="st1" d="M9944.6,9995.6c0-0.1,0-0.2,0-0.3c0-0.2,0-0.6,0-0.9c0-0.9,0-2.1-0.1-3.6
					c0-3.2-0.1-7.7-0.1-13.5l0.2,0.2l-69.5,0.1c0.2-0.2-0.4,0.4,0.3-0.4v9.4c0,3.1,0,6.1,0,9l-0.3-0.3l49.6,0.2l14.6,0.1l4,0l1,0
					C9944.3,9995.6,9944.4,9995.6,9944.6,9995.6c-0.1,0-0.2,0-0.3,0l-1,0l-3.9,0l-14.6,0.1l-49.8,0.2h-0.3v-0.3c0-3,0-6,0-9
					c0-1.5,0-3.1,0-4.6v-4.7c0.7-0.7,0.2-0.2,0.4-0.4l69.5,0.1h0.2v0.2c-0.1,5.8-0.1,10.4-0.1,13.6c0,1.5,0,2.7-0.1,3.6
					c0,0.4,0,0.7,0,0.9C9944.6,9995.4,9944.6,9995.5,9944.6,9995.6"/>
				<path id="Trazado_116643" class="st1" d="M10856,10068.1c0-0.1,0-0.2,0-0.3c0-0.2,0-0.6,0-0.9c0-0.9,0-2.1-0.1-3.6
					c0-3.2-0.1-7.7-0.1-13.5l0.2,0.2l-69.6,0.1c0.2-0.2-0.4,0.4,0.3-0.4v4.7c0,1.6,0,3.1,0,4.6c0,3.1,0,6.1,0,9l-0.3-0.3l49.6,0.2
					l14.6,0.1l4,0l1,0C10855.7,10068.1,10855.9,10068.1,10856,10068.1c-0.1,0-0.2,0-0.3,0l-1,0l-3.9,0l-14.6,0.1l-49.8,0.2h-0.3
					v-0.3c0-3,0-6,0-9c0-1.5,0-3.1,0-4.6c0-0.8,0-1.6,0-2.3v-2.4c0.7-0.7,0.2-0.2,0.4-0.4l69.6,0.1h0.2v0.2
					c-0.1,5.8-0.1,10.4-0.1,13.6c0,1.5,0,2.7-0.1,3.6c0,0.4,0,0.7,0,0.9C10856,10067.9,10856,10068,10856,10068.1"/>
				<path id="Trazado_116644" class="st1" d="M10628.9,9873.4c0-0.1,0-0.2,0-0.3c0-0.2,0-0.5,0-0.9c0-0.9,0-2-0.1-3.6
					c0-3.1-0.1-7.6-0.1-13.3l0.2,0.2l-69,0.1c0.2-0.2-0.4,0.3,0.3-0.3v4.6c0,1.5,0,3.1,0,4.6c0,3,0,6,0,8.9l-0.3-0.3l49.2,0.2
					l14.5,0.1l3.9,0l1,0C10628.6,9873.4,10628.7,9873.4,10628.9,9873.4c-0.1,0-0.2,0-0.3,0l-1,0l-3.9,0l-14.4,0.1l-49.4,0.2h-0.3
					v-0.3c0-2.9,0-5.9,0-8.9c0-1.5,0-3,0-4.6c0-0.8,0-1.5,0-2.3v-2.3c0.7-0.7,0.2-0.2,0.4-0.3l69,0.1h0.2v0.2
					c0,5.7-0.1,10.2-0.1,13.4c0,1.5,0,2.7-0.1,3.5c0,0.4,0,0.7,0,0.9C10628.9,9873.2,10628.9,9873.3,10628.9,9873.4"/>
				<path id="Trazado_116645" class="st1" d="M10340.3,9904.5c0-0.1,0-0.2,0-0.3c0-0.2,0-0.6,0-0.9c0-0.9,0-2.1-0.1-3.6
					c0-3.2-0.1-7.7-0.1-13.5l0.2,0.2l-69.6,0.1c0.2-0.2-0.4,0.4,0.3-0.4v4.7c0,1.6,0,3.1,0,4.6c0,3.1,0,6.1,0,9l-0.3-0.3l49.6,0.2
					l14.6,0.1l4,0l1,0C10340,9904.5,10340.2,9904.5,10340.3,9904.5c-0.1,0-0.2,0-0.3,0l-1,0l-3.9,0l-14.5,0.1l-49.8,0.2h-0.3v-0.3
					c0-3,0-6,0-9c0-1.5,0-3.1,0-4.6c0-0.8,0-1.6,0-2.3v-2.4c0.7-0.7,0.2-0.2,0.4-0.4l69.6,0.1h0.2v0.2c-0.1,5.8-0.1,10.4-0.1,13.6
					c0,1.5,0,2.7-0.1,3.6c0,0.4,0,0.7,0,0.9C10340.3,9904.3,10340.3,9904.4,10340.3,9904.5"/>
				<path id="Trazado_116646" class="st1" d="M10349.7,9886.1c0-0.1,0-0.2,0-0.4c0-0.3,0-0.6,0-1c0-0.9,0-2.1-0.1-3.7
					c0-3.2-0.1-7.8-0.1-13.4l0.3,0.3l-41.8,0.1c-0.3,0.3,0.4-0.4,0.4-0.4v4.8c0,1.6,0,3.1,0,4.7c0,3.1,0,6.1,0,8.9l-0.3-0.3
					l29.9,0.2l8.7,0.1l2.3,0C10349.2,9886,10349.4,9886.1,10349.7,9886.1c-0.2,0-0.5,0-0.7,0l-2.3,0l-8.6,0.1l-30.1,0.2h-0.3v-0.3
					c0-2.9,0-5.8,0-8.9c0-1.5,0-3.1,0-4.7v-4.8c-0.1,0.1,0.7-0.7,0.4-0.4l41.8,0.1h0.3v0.3c-0.1,5.7-0.1,10.3-0.1,13.5
					c0,1.5,0,2.7-0.1,3.6C10349.8,9885.3,10349.8,9885.7,10349.7,9886.1"/>
				<path id="Trazado_116647" class="st1" d="M10132.5,10423.1c-15.4-14.9-34.9-30-60.2-31.4c-10.2-0.6-20.5,1.2-30.2,3.7
					c-29.1,7.6-54.6,22.5-71.6,41.5c-2.8,3.2-2.3,7.4,1.3,10.1c9.9,7.4,20.3,14.2,31.1,20.2c12.8,7.1,27.9,12.5,43.9,13.3
					c15,0.7,30-2.6,43.3-7.7c13.3-5.1,25.3-11.9,37.2-18.8c6.2-3.6,12.9-7.7,14.3-13.4
					C10143.2,10434.3,10137.8,10428.3,10132.5,10423.1"/>
				<path id="Trazado_116648" class="st4" d="M10140,10437c-0.1,0.1-0.2,0.2-0.4,0.3l-1.2,0.8c-1,0.7-2.5,1.7-4.5,2.9
					c-5.7,3.5-11.5,6.6-17.5,9.3c-15.2,7.1-37.3,14.5-62.3,19.9c-3.1,0.6-6.2,1.1-9.4,1.4c-3.1,0.2-6.2,0.3-9.2,0.1
					c-5.8-0.3-11.6-1.3-17.2-2.9c-9.5-2.8-18.4-6.9-26.7-12.4c-5.5-3.6-10.9-7.6-16-11.7l-4.2-3.4l-1.1-0.9
					c-0.1-0.1-0.2-0.2-0.3-0.3c0.1,0.1,0.3,0.2,0.4,0.3c0.3,0.2,0.7,0.5,1.1,0.8l4.3,3.3c3.7,2.8,9.1,7,16.1,11.5
					c8.2,5.3,17.2,9.4,26.6,12.2c5.6,1.6,11.3,2.5,17,2.9c3,0.1,6.1,0.1,9.1-0.1c3.1-0.3,6.2-0.7,9.3-1.4c25-5.3,47-12.6,62.2-19.6
					c6-2.7,11.9-5.7,17.6-9.1c2-1.2,3.6-2.2,4.6-2.8l1.2-0.7C10139.7,10437.1,10139.9,10437,10140,10437"/>
				<path id="Trazado_116649" class="st1" d="M10768.9,10426.6c-13.2-10.9-29.9-22-51.5-23.1c-8.8-0.4-17.5,0.9-25.8,2.7
					c-24.9,5.6-46.7,16.5-61.3,30.5c-2.4,2.3-1.9,5.4,1.1,7.4c8.5,5.5,17.4,10.5,26.6,14.8c11.7,5.8,24.5,9.1,37.6,9.8
					c12.8,0.5,25.6-1.9,37.1-5.7s21.7-8.8,31.8-13.8c5.3-2.6,11.1-5.6,12.3-9.8C10778.1,10434.8,10773.5,10430.3,10768.9,10426.6"/>
				<path id="Trazado_116650" class="st4" d="M10775.4,10436.7c-0.1,0.1-0.2,0.2-0.3,0.2l-1,0.6c-0.9,0.5-2.2,1.3-4,2.2
					c-4.9,2.6-10,4.9-15.1,6.9c-13,5.3-31.8,10.6-52.9,14.5c-5.2,0.9-10.4,1.3-15.6,1.1c-4.9-0.2-9.7-0.9-14.5-2c-8-1.9-15.8-5-23-9
					c-4.8-2.7-9.5-5.7-14.1-8.9l-3.7-2.6l-0.9-0.7c-0.1-0.1-0.2-0.2-0.3-0.3c0.1,0.1,0.2,0.1,0.4,0.2l1,0.6c0.9,0.6,2.2,1.4,3.8,2.5
					c3.3,2.1,8,5.3,14.2,8.6c7.2,3.9,14.9,6.9,22.9,8.8c9.8,2.3,19.9,2.6,29.8,0.8c21-3.9,39.8-9.1,52.8-14.3
					c6.5-2.5,11.7-4.9,15.2-6.7c1.8-0.9,3.1-1.6,4-2.1c0.4-0.2,0.8-0.4,1-0.5C10775.1,10436.8,10775.3,10436.8,10775.4,10436.7"/>
				<path id="Trazado_116651" class="st6" d="M10879.9,10226.6c0,0.2-228.8,0.4-510.9,0.4c-282.3,0-511-0.2-511-0.4
					s228.7-0.4,511-0.4C10651.2,10226.2,10879.9,10226.4,10879.9,10226.6"/>
				<path id="Trazado_116652" class="st7" d="M10846.9,10129.4c-0.3-9.8,0.8-19.5,0-29.3c-0.8-9.7-3.8-19.8-10.9-26.4
					c-7.1-6.7-19-8.8-26.7-2.8l-1.3,8.4c4.8,37.4,6.1,75.7,10.9,113.1c0.6,4.9,4.8,9.2,7.3,13.5c2.4,4.3,7.1,7.8,12,7.2
					c6.5-0.7,10.4-7.4,12.1-13.7C10856.6,10176.7,10847.7,10152.9,10846.9,10129.4"/>
				<path id="Trazado_116653" class="st8" d="M10826,10078.3c-1.1-2.3-2.6-4.4-4.4-6.2c-1.8-1.8-4.4-2.8-6.9-2.5
					c-1.2,0.1-2.3,0.9-2.8,2c-0.4,1.1,0.4,2.6,1.6,2.6l0.2,0.2c2.6,2.4,5.2,4.8,7.9,7.1c0.6,0.6,1.4,1.1,2.2,1.5
					c0.9,0.3,1.8,0.1,2.5-0.5C10827.4,10081.3,10826.7,10079.5,10826,10078.3"/>
				<path id="Trazado_116654" class="st7" d="M10830.8,10087.1c-8.6-11-20.3-17.5-34.2-18c-7.9-0.3-11.1,1.2-16.8,2.6
					c-5.7,1.2-10.8,4.4-14.4,9c-4.1,5.6-7.7,11.9-8.6,18.8c-0.9,7.1-1.9,14.2-1.5,21.4s2.1,14.4,6.2,20.3l18.1,3.6
					c10,0.6,20.2,1.1,30-0.9c9.8-2.1,19.4-7.1,24.9-15.5C10841.9,10116.5,10839.4,10098,10830.8,10087.1"/>
				<path id="Trazado_116655" class="st9" d="M10814.6,10086.6l-24-10.2l-6.3,0.6c-14.2-0.3-24.4,15.2-24.8,26.7
					c-0.4,12.8-0.4,28.4,1.4,37.9c3.6,19.1,19.8,21,19.8,21s-0.6,10.1-0.8,16.5l13.5,22.2l23.6-24l3.8-84
					C10820.8,10089.7,10818.1,10086.8,10814.6,10086.6"/>
				<path id="Trazado_116656" class="st7" d="M10764.3,10119c0,1.3,1.1,2.4,2.4,2.4c1.3,0.1,2.4-0.9,2.5-2.2c0,0,0,0,0-0.1
					c0-1.3-1.1-2.4-2.4-2.4C10765.5,10116.7,10764.4,10117.7,10764.3,10119C10764.3,10119,10764.3,10119,10764.3,10119"/>
				<path id="Trazado_116657" class="st7" d="M10763.8,10110.2c0.3,0.3,2.1-1.1,4.8-1.2c2.6-0.1,4.6,1.2,4.9,0.9
					c0.1-0.1-0.2-0.7-1.1-1.3c-1.2-0.8-2.5-1.1-3.9-1.1c-1.4,0-2.7,0.5-3.8,1.4C10763.9,10109.4,10763.6,10110,10763.8,10110.2"/>
				<path id="Trazado_116658" class="st7" d="M10780.3,10131.3c0-0.1-1.6-0.4-4.3-0.6c-0.7,0-1.3-0.2-1.4-0.6
					c-0.1-0.7,0.1-1.4,0.4-2c0.6-1.7,1.2-3.4,1.8-5.2c2.5-7.4,4.4-13.5,4.1-13.6c-0.3-0.1-2.6,5.8-5.1,13.2
					c-0.6,1.8-1.2,3.6-1.7,5.2c-0.4,0.8-0.5,1.8-0.3,2.7c0.2,0.5,0.6,0.8,1.1,1c0.4,0.1,0.8,0.1,1.2,0.1
					C10778.6,10131.5,10780.2,10131.4,10780.3,10131.3"/>
				<path id="Trazado_116659" class="st10" d="M10780.8,10162.6c9-0.1,17.8-2.8,25.4-7.7c0,0-6.4,13.5-25.6,12.3L10780.8,10162.6z"
					/>
				<path id="Trazado_116660" class="st7" d="M10764.9,10100.9c0.5,0.6,2.5,0.1,4.8,0.3c2.4,0,4.4,0.7,4.9,0.1
					c0.2-0.3-0.1-0.9-0.9-1.5c-2.3-1.5-5.4-1.7-7.8-0.3C10765,10100,10764.7,10100.6,10764.9,10100.9"/>
				<path id="Trazado_116661" class="st7" d="M10793.4,10118.6c0,1.3-1.1,2.4-2.4,2.5c-1.3,0.1-2.4-0.9-2.5-2.2c0,0,0,0,0-0.1
					c0-1.3,1.1-2.4,2.4-2.5C10792.2,10116.2,10793.3,10117.2,10793.4,10118.6C10793.4,10118.5,10793.4,10118.6,10793.4,10118.6"/>
				<path id="Trazado_116662" class="st7" d="M10799.5,10110c-0.3,0.3-2.2-1.1-4.8-1.1c-2.6,0-4.6,1.3-4.9,1c-0.1-0.1,0.2-0.7,1-1.3
					c1.1-0.8,2.5-1.2,3.9-1.2c1.4,0,2.7,0.4,3.8,1.3C10799.4,10109.2,10799.7,10109.8,10799.5,10110"/>
				<path id="Trazado_116663" class="st7" d="M10798.1,10101.5c-0.5,0.6-2.6,0-5-0.1c-2.5-0.1-4.5,0.4-5-0.3c-0.2-0.3,0.1-0.9,1-1.5
					c1.2-0.7,2.7-1,4.1-1c1.4,0,2.8,0.4,4,1.2C10798.1,10100.6,10798.4,10101.2,10798.1,10101.5"/>
				<path id="Trazado_116664" class="st9" d="M10816.9,10125.3c0-1.4,1.5-4.8,2.9-5.1c3.7-0.7,10.5-0.6,10.9,8.9
					c0.5,13.1-12.7,10.9-12.8,10.5C10817.9,10139.3,10817,10130.2,10816.9,10125.3"/>
				<path id="Trazado_116665" class="st10" d="M10821.3,10134.7c0.1,0,0.2,0.1,0.6,0.3c0.5,0.2,1.2,0.2,1.7,0
					c1.4-0.6,2.4-2.8,2.4-5.2c0-1.1-0.3-2.2-0.8-3.2c-0.3-0.8-0.9-1.4-1.8-1.7c-0.5-0.1-1.1,0.2-1.3,0.7c-0.2,0.4-0.1,0.6-0.1,0.7
					c0,0-0.3-0.2-0.2-0.8c0.1-0.3,0.2-0.6,0.5-0.8c0.3-0.3,0.8-0.4,1.2-0.4c1.1,0.2,2,0.9,2.5,1.9c0.6,1.1,0.9,2.3,0.9,3.6
					c0,2.6-1.2,5.1-3.1,5.8c-0.7,0.2-1.5,0.1-2.1-0.3C10821.4,10135,10821.3,10134.7,10821.3,10134.7"/>
				<path id="Trazado_116666" class="st7" d="M10820.3,10120.2l-3.4,3.4c-14-14-41.2-49-39.6-46.9c0,0,9.9-3.8,20.5-1.7
					s30.7,7.9,30,20.4C10827.2,10107.9,10820.3,10120.2,10820.3,10120.2"/>
				<path id="Trazado_116667" class="st8" d="M10839.3,10117.8c0-0.3-0.1-0.5-0.2-0.8c-0.2-0.7-0.5-1.4-0.8-2.1
					c-1.3-2.4-3.1-4.6-5.3-6.3c-3.3-2.5-6.9-4.3-10.9-5.5c-4.3-1.5-9.2-2.7-14-4.9c-4.5-2-8.8-4.5-12.7-7.5
					c-3.2-2.4-6.2-5.2-8.9-8.2c-1.8-2-3.5-4.1-5.1-6.4l-1.3-1.8c-0.1-0.2-0.3-0.4-0.5-0.6c0.1,0.2,0.2,0.5,0.4,0.7
					c0.3,0.4,0.6,1.1,1.2,1.9c1.5,2.3,3.2,4.5,5,6.5c2.7,3.1,5.7,5.8,8.9,8.3c4,3,8.3,5.6,12.8,7.6c4.8,2.2,9.8,3.4,14.1,4.9
					c3.9,1.2,7.5,3,10.8,5.3c2.2,1.6,4,3.7,5.4,6C10839,10116.8,10839.2,10117.8,10839.3,10117.8"/>
				<path id="Trazado_116668" class="st8" d="M10835.5,10119.8c0.1-1-0.1-1.9-0.4-2.9c-0.9-2.5-2.6-4.7-4.8-6.3
					c-2.7-2.1-6.5-3.4-10.8-4.5c-4.6-1-9.1-2.6-13.4-4.6c-4.3-2.1-8.3-4.7-11.9-7.7c-3-2.5-5.7-5.3-8.1-8.3
					c-1.6-2.1-3.1-4.2-4.5-6.4c-0.4-0.8-0.8-1.4-1.1-1.9c-0.1-0.2-0.2-0.4-0.4-0.6c0.1,0.2,0.2,0.5,0.3,0.7l1,1.9
					c1.3,2.3,2.7,4.5,4.3,6.6c5.3,6.9,12.2,12.5,20,16.3c4.3,2,8.9,3.6,13.6,4.6c4.2,1,8,2.3,10.7,4.3c2.1,1.5,3.8,3.6,4.8,6
					C10835.1,10117.9,10835.3,10118.8,10835.5,10119.8"/>
				<path id="Trazado_116669" class="st8" d="M10819.3,10142.3c0-0.1,1.1-0.2,3.1-0.7c2.7-0.7,5.3-2.1,7.4-3.9
					c3.1-2.8,5.5-6.3,7-10.2c1.9-4.8,3-9.8,3.2-15c0.3-5.1-0.5-10.3-2.4-15c-1.6-3.9-3.8-7.5-6.5-10.7c-4.7-5.4-8.7-7.7-8.6-7.8
					c0.3,0.1,0.5,0.2,0.7,0.4c0.4,0.3,1.1,0.7,1.9,1.3c2.3,1.7,4.5,3.6,6.4,5.7c2.9,3.2,5.2,6.8,6.8,10.8c2,4.9,2.9,10.1,2.6,15.4
					c-0.2,5.2-1.3,10.4-3.3,15.2c-1.6,4-4.1,7.6-7.4,10.4c-2.2,1.9-4.9,3.1-7.7,3.8c-0.8,0.2-1.5,0.3-2.3,0.3
					C10819.9,10142.3,10819.6,10142.3,10819.3,10142.3"/>
				<path id="Trazado_116670" class="st10" d="M10788.3,10133.4c0.3-0.2,0.7-0.4,1.1-0.4c0.4,0.1,0.7,0.2,1,0.5
					c1.8,1.7,1.9,4.5,0.2,6.3c-0.8,0.9-2,1.4-3.2,1.4c-1.8,0-3.9-1-5-4.2C10784.2,10135.9,10786.4,10134.5,10788.3,10133.4"/>
				<path id="Trazado_116671" class="st7" d="M10787.4,10141.2c0.9-0.2,1.8-0.6,2.6-1.1c0.8-0.6,1.3-1.5,1.5-2.5
					c0.2-1.2-0.1-2.4-0.8-3.4c-0.4-0.5-0.9-1-1.3-0.9c-0.6,0.2-1.1,0.4-1.5,0.8l-2.7,1.6c-0.8,0.5-1.7,1-2.6,1.3
					c0.7-0.7,1.5-1.2,2.4-1.7l2.7-1.7c0.5-0.4,1.1-0.7,1.8-0.9c0.4,0,0.8,0.1,1.1,0.3c0.3,0.2,0.6,0.5,0.8,0.8
					c0.8,1.1,1.2,2.5,0.9,3.9c-0.2,1.1-0.9,2.1-1.8,2.7C10789.4,10141.1,10788.4,10141.4,10787.4,10141.2"/>
				<path id="Trazado_116672" class="st8" d="M10730.4,10367.2l-43.1-15.1c-7.6-1.7-15.6-3.4-23.1-1.3s-14.2,9.3-12.9,17
					c1.1,6.2,6.9,10.6,13.1,11.9c6.1,1.3,12.5,0,18.6-1.3c6.1-1.4,12.3-2.9,18.5-2.3c4.1,0.4,8.1,1.9,12.2,2.7s8.5,0.9,12.2-1.1
					C10729.6,10375.7,10732,10371,10730.4,10367.2"/>
				<path id="Trazado_116673" class="st7" d="M10679,10252.2c-8.2,6-15.6,11.5-15.5,34.2s2.5,33.1,2.5,33.1l91.9,8.9l9.3-26.4
					C10767.3,10302,10699,10237.6,10679,10252.2"/>
				<path id="Trazado_116674" class="st8" d="M10712.6,10315.8c-0.3-0.6-0.6-1.2-0.9-1.8c-0.5-1.2-1.2-2.8-2.2-4.9
					c-4.9-10.8-11.1-20.9-18.3-30.3c-1.4-1.8-2.5-3.2-3.3-4.2c-0.4-0.5-0.8-1-1.2-1.6c0.5,0.4,1,0.9,1.4,1.4
					c0.9,0.9,2.1,2.3,3.5,4.1c7.5,9.2,13.7,19.5,18.4,30.4c0.9,2.1,1.6,3.8,2,5C10712.3,10314.6,10712.5,10315.2,10712.6,10315.8"/>
				<path id="Trazado_116675" class="st7" d="M10768.8,10297.5l-11.8,14.4l-5.4,2.6c0,0-58.2-18.6-73.9-21.9
					c-15.7-3.3-47.4-8.2-51.6,17.3c-4.2,25.5,21.8,34.7,32.6,40.6c10.7,5.9,44.6,14.2,44.6,14.2s46.6,13.2,62.7,13.8
					c16.9,0.7,49.6-2.4,58-11.1c8.4-8.7,17.1-37.3,17.1-37.3L10768.8,10297.5z"/>
				<path id="Trazado_116676" class="st8" d="M10713,10367.6c-0.3,0-0.5-0.1-0.8-0.1l-2.3-0.5c-2-0.5-4.8-1.3-8.3-2.3
					c-18.1-5.4-35.6-12.7-52.2-21.7c-3.2-1.7-5.7-3.2-7.4-4.3l-2-1.2c-0.2-0.1-0.5-0.3-0.7-0.5c0.3,0.1,0.5,0.2,0.7,0.3l2.1,1.1
					c1.8,1,4.3,2.4,7.5,4c6.4,3.4,15.4,7.8,25.5,12c10.2,4.2,19.6,7.5,26.5,9.7c3.4,1.1,6.2,1.9,8.2,2.5l2.2,0.7
					C10712.5,10367.4,10712.7,10367.5,10713,10367.6"/>
				<path id="Trazado_116677" class="st8" d="M10754.2,10315.8c-0.3-0.1-0.6-0.2-0.9-0.3l-2.6-1c-2.3-0.9-5.5-2.1-9.6-3.5
					c-8.1-2.9-19.5-6.7-32.2-10.2c-12.7-3.5-24.4-6-32.9-7.6c-4.2-0.8-7.7-1.4-10.1-1.8l-2.7-0.5c-0.3,0-0.6-0.1-0.9-0.2
					c0.3,0,0.7,0,1,0.1l2.8,0.4c2.4,0.3,5.9,0.9,10.1,1.6c8.5,1.5,20.2,3.9,33,7.4c12.8,3.5,24.1,7.4,32.2,10.4
					c4,1.5,7.3,2.8,9.5,3.8c1.1,0.5,1.9,0.8,2.6,1.1C10753.6,10315.5,10753.9,10315.6,10754.2,10315.8"/>
				<path id="Trazado_116678" class="st11" d="M10756.5,10307.5l11.7-27l-6.3-38.3l17.9-63l37-13.1c0,0,21,8.1,28.5,37.7
					c8.2,32.6,5.8,74.1,4,90.7c-1.8,16.6-10.4,46.5-10.4,46.5s-20.8,8.7-57.5-10.1c-27.7-14.2-29-17-29-17
					S10752.9,10308.7,10756.5,10307.5"/>
				<path id="Trazado_116679" class="st9" d="M10770.5,10244.6c0,0-40.1-39.2-46.5-43l-10.1,5.2v12.2l36.2,48.2
					C10759.8,10263,10767.2,10254.7,10770.5,10244.6"/>
				<path id="Trazado_116680" class="st11" d="M10832.2,10212.5c0,0-35.2,67.8-54.6,67.8c-26.6,0-36.3-21.5-36.3-21.5l16.1-26.9
					l7.9,5.3c0,0,26-51.5,31.6-58.8c5.6-7.3,23-10.5,31-3.2C10835.5,10182,10841.2,10198.5,10832.2,10212.5"/>
				<path id="Trazado_116681" class="st7" d="M10832.2,10212.5c0,0,0.1-0.2,0.3-0.6c0.2-0.4,0.6-1,1-1.8c0.4-0.8,0.9-1.9,1.3-3.1
					c0.2-0.6,0.4-1.3,0.7-2.1c0.2-0.7,0.4-1.6,0.6-2.4c0.8-4.2,0.7-8.5-0.4-12.7c-0.6-2.6-1.5-5.1-2.8-7.5c-1.4-2.7-3.2-5.1-5.4-7.1
					c-2.6-2.1-5.7-3.4-9-3.7c-3.6-0.4-7.2-0.2-10.7,0.7c-3.8,0.8-7.2,2.7-10,5.3c-0.3,0.4-0.7,0.7-1,1.1l-0.8,1.2
					c-0.6,0.8-1.1,1.7-1.6,2.6c-1,1.8-2.1,3.6-3.1,5.4c-8.2,14.9-16.8,31.6-25.8,49.3l-0.2,0.3l-0.3-0.2l-7.9-5.3l0.5-0.1
					c-1.1,1.9-2.3,3.9-3.6,6l-12.5,21l0-0.3c4.2,8.1,11.2,14.5,19.6,18.1c4,1.6,8.2,2.7,12.4,3c2.1,0.1,4.2,0.4,6.1-0.1l1.4-0.4
					c0.5-0.2,0.9-0.4,1.4-0.6c0.9-0.4,1.8-0.9,2.6-1.4c3.2-2.2,6.2-4.7,8.8-7.6c2.6-2.7,5-5.5,7.2-8.3c4.4-5.6,8.1-10.9,11.4-15.9
					c6.6-10,11.4-18.3,14.7-24l3.7-6.6c0.4-0.7,0.7-1.3,1-1.7C10832.1,10212.6,10832.2,10212.5,10832.2,10212.5c0,0-0.1,0.2-0.3,0.6
					l-0.9,1.7c-0.8,1.5-2,3.8-3.6,6.7c-3.2,5.8-8,14.1-14.5,24.1c-3.3,5-7,10.4-11.4,16c-2.2,2.8-4.6,5.6-7.2,8.4
					c-2.7,2.9-5.6,5.5-8.9,7.7c-0.9,0.6-1.8,1.1-2.7,1.5c-0.5,0.2-0.9,0.4-1.4,0.6l-1.5,0.4c-2.1,0.5-4.2,0.2-6.3,0.1
					c-4.3-0.4-8.6-1.4-12.6-3c-8.6-3.7-15.6-10.2-19.9-18.5l-0.1-0.1l0.1-0.2l12.5-21l3.6-6l0.2-0.3l0.3,0.2l7.9,5.3l-0.5,0.1
					c9-17.7,17.6-34.5,25.9-49.3c1-1.9,2.1-3.7,3.1-5.5c0.6-0.9,1.1-1.8,1.6-2.6l0.9-1.3c0.3-0.4,0.7-0.8,1-1.2
					c2.9-2.7,6.4-4.6,10.3-5.4c3.5-0.9,7.2-1.2,10.9-0.7c3.4,0.4,6.6,1.7,9.2,3.9c2.2,2.1,4.1,4.5,5.5,7.3c1.2,2.4,2.2,4.9,2.8,7.6
					c1,4.2,1.1,8.6,0.3,12.8c-0.2,0.9-0.3,1.7-0.6,2.4s-0.5,1.4-0.7,2.1c-0.5,1.3-1,2.3-1.4,3.1l-1.1,1.8
					C10832.3,10212.3,10832.2,10212.4,10832.2,10212.5"/>
				<path id="Trazado_116682" class="st9" d="M10725.5,10202.7c0,0-10.2-8.2-29.9-9.6c-19.6-1.5-30.1-0.8-30.1,1.5
					c0,2.3,0.2,2.1,1.9,3c1.7,0.8,16.1,0.6,17.3,2.7s-0.2,1.7-0.2,1.7s-23.6,3.6-23.8,6.1c-0.4,5.2,3.1,4,3.1,4s19.4-4.4,20.7-3.3
					c1.3,1,2.3,0.2,1.3,1s-22.6,7.9-22.2,9.4s1.7,3.8,4,2.9c2.3-0.8,19.6-7.7,20.7-6.7s1.5,2.5,0,3.3s-15.5,13.1-14.6,13.8
					s1.7,2.6,4,1.1c2.3-1.5,16.1-12.1,19.2-13s19.6-1.5,19.6-1.5"/>
				<path id="Trazado_116683" class="st10" d="M10716.5,10219c0,0-0.2,0-0.7,0.1l-2,0.1l-7.7,0.5c-1.7,0.1-3.5,0.3-5.5,0.5
					c-1,0.1-2.1,0.2-3.1,0.4c-1.1,0.3-2.1,0.8-3.1,1.4c-4,2.5-8.4,5.7-13.2,9.3c-1.2,0.9-2.4,1.8-3.8,2.7c-0.4,0.2-0.8,0.3-1.2,0.4
					c-0.5,0-0.9-0.1-1.3-0.4c-0.3-0.2-0.7-0.5-0.9-0.9c-0.1-0.1-0.3-0.3-0.4-0.4l-0.1,0c-0.1-0.1-0.1-0.1-0.1-0.2c0-0.1,0-0.2,0-0.3
					c0-0.1,0.1-0.2,0.2-0.3c1-1.3,2.2-2.6,3.4-3.7c1.2-1.2,2.5-2.4,3.8-3.5c1.3-1.2,2.7-2.4,4-3.5c0.7-0.6,1.4-1.2,2.1-1.8
					c0.4-0.3,0.8-0.6,1.2-0.9c0.4-0.2,0.6-0.5,0.7-0.9c0.1-0.4,0-0.8-0.2-1.2c-0.1-0.2-0.2-0.4-0.4-0.5c-0.1-0.1-0.1-0.2-0.2-0.2
					c0,0-0.1-0.1-0.1-0.1c0,0,0,0-0.1,0c-0.9,0-1.8,0.2-2.7,0.5c-1.8,0.5-3.7,1.1-5.6,1.8c-3.7,1.3-7.5,2.8-11.4,4.2
					c-0.5,0.2-1,0.4-1.6,0.4c-0.6,0-1.2-0.1-1.7-0.5c-0.9-0.7-1.5-1.7-1.8-2.8l0-0.1c0,0,0-0.1,0-0.1c0-0.1,0-0.2,0.1-0.2
					c0-0.1,0.1-0.2,0.2-0.2c0.1-0.1,0.2-0.2,0.3-0.3c0.2-0.2,0.5-0.3,0.7-0.4c0.5-0.3,1-0.5,1.4-0.7c1-0.5,2-0.9,3-1.3
					c4-1.6,8.1-3.1,12.3-4.7l3.1-1.2c0.5-0.2,1-0.4,1.4-0.7l0.1-0.1c0,0,0,0,0,0c-0.1,0.1,0,0.3,0.1,0.4c0.1,0.1,0.1,0,0.1,0h0
					c-0.1,0-0.3,0-0.4-0.1c-0.3-0.1-0.6-0.2-0.9-0.3c-0.1-0.1-0.3-0.2-0.4-0.3c0,0,0,0-0.1,0l-0.2,0c-0.3,0-0.5,0-0.8,0
					c-0.5,0-1.1,0.1-1.7,0.1c-1.1,0.1-2.2,0.3-3.4,0.5c-4.9,0.8-9.7,1.8-14.4,2.9l0,0c-1.3,0.5-2.8-0.1-3.3-1.4
					c-0.1-0.2-0.1-0.4-0.2-0.6c-0.1-0.7-0.2-1.4-0.1-2.1c0-0.2,0.1-0.5,0.2-0.6c0.1-0.2,0.3-0.3,0.4-0.4c0.3-0.2,0.6-0.4,0.9-0.5
					c2.5-1,5-1.7,7.6-2.2c5.1-1.1,10.1-2,14.9-2.7l0.1,0l0.1,0c0.1,0,0.2,0,0.3,0c0-0.1,0-0.2,0-0.2c-0.1-0.3-0.2-0.7-0.4-1
					c-0.5-0.5-1.2-0.8-1.9-0.9c-1.5-0.3-3-0.5-4.5-0.7c-3-0.3-6-0.4-8.9-0.7c-0.8,0-1.5-0.2-2.2-0.5c-0.3-0.1-0.7-0.3-1-0.5
					c-0.4-0.2-0.6-0.6-0.7-1.1c-0.1-0.4-0.1-0.7-0.1-1.1c0-0.2,0-0.4,0-0.6c0.1-0.2,0.2-0.4,0.3-0.6c0.6-0.5,1.3-0.8,2-0.9
					c2.7-0.5,5.4-0.8,8.1-0.8c5.3-0.1,10.2,0.2,14.8,0.4c4.2,0.2,8.4,0.6,12.6,1.3c5.9,1,11.6,2.9,17,5.5c1.4,0.7,2.8,1.5,4.1,2.4
					c0.5,0.3,0.8,0.5,1,0.7c0.1,0.1,0.2,0.2,0.3,0.3c-0.1-0.1-0.2-0.1-0.3-0.2c-0.2-0.2-0.6-0.4-1-0.7c-1.3-0.8-2.7-1.6-4.2-2.3
					c-5.4-2.6-11.1-4.3-17-5.3c-4.2-0.6-8.3-1.1-12.5-1.2c-4.6-0.3-9.5-0.5-14.7-0.4c-2.7,0-5.4,0.3-8,0.8c-0.6,0.1-1.2,0.4-1.8,0.8
					c-0.2,0.2-0.2,0.4-0.2,0.8c0,0.3,0,0.7,0.1,1c0,0.3,0.2,0.5,0.4,0.7c0.3,0.2,0.6,0.3,0.9,0.5c0.6,0.3,1.3,0.4,2,0.5
					c2.9,0.3,5.9,0.4,8.9,0.7c1.5,0.1,3.1,0.3,4.6,0.7c0.4,0.1,0.8,0.2,1.2,0.4c0.4,0.1,0.8,0.4,1.1,0.8c0.2,0.4,0.4,0.8,0.5,1.2
					c0.1,0.3,0,0.6-0.2,0.9c-0.3,0.2-0.6,0.2-0.8,0.1l0.1,0c-4.8,0.8-9.8,1.6-14.9,2.7c-2.6,0.5-5.1,1.2-7.5,2.2
					c-0.5,0.3-1.3,0.6-1.2,1c-0.1,0.6,0,1.3,0.1,1.9c0.1,1,1,1.8,2.1,1.7c0.2,0,0.4-0.1,0.5-0.1l0,0h0c4.7-1,9.5-2.1,14.4-2.9
					c1.1-0.2,2.3-0.4,3.4-0.5c0.6-0.1,1.1-0.1,1.7-0.1c0.3,0,0.6,0,0.9,0l0.3,0c0.1,0,0.2,0.1,0.3,0.2c0.1,0.1,0.2,0.1,0.3,0.2
					c0.2,0.1,0.4,0.2,0.7,0.3c0.1,0,0.3,0,0.4,0.1l0.1,0c0,0,0,0,0.2,0.1c0.1,0.1,0.2,0.3,0.1,0.5c0,0,0,0.1-0.1,0.1
					c-0.1,0.1-0.1,0.1-0.2,0.2c-0.5,0.4-1,0.6-1.6,0.8l-3.1,1.2c-4.2,1.5-8.3,3-12.3,4.7c-1,0.4-2,0.8-2.9,1.3
					c-0.5,0.2-1,0.5-1.4,0.7c-0.2,0.1-0.4,0.3-0.6,0.4c-0.2,0.1-0.4,0.4-0.3,0.3c0.2,1,0.8,1.8,1.5,2.4c0.4,0.3,0.8,0.4,1.3,0.4
					c0.5-0.1,1-0.2,1.4-0.4c3.9-1.5,7.7-2.9,11.4-4.2c1.9-0.7,3.7-1.3,5.6-1.8c1-0.3,1.9-0.5,2.9-0.5c0.2,0,0.3,0.1,0.5,0.2
					c0.1,0.1,0.2,0.2,0.2,0.3c0.2,0.2,0.3,0.4,0.4,0.6c0.3,0.5,0.3,1,0.2,1.6c-0.2,0.5-0.5,1-1,1.2c-0.4,0.2-0.7,0.5-1.1,0.8
					c-0.7,0.6-1.4,1.2-2.1,1.7c-1.4,1.2-2.7,2.3-4,3.5c-1.3,1.2-2.6,2.3-3.8,3.5c-1.2,1.1-2.4,2.3-3.4,3.6c0,0.1-0.1,0.1-0.1,0.2
					c0,0,0,0-0.1,0c0,0-0.1,0,0,0c0-0.1-0.1,0.1,0.1-0.1l0.1,0.1c0.2,0.1,0.3,0.3,0.4,0.5c0.2,0.3,0.5,0.6,0.8,0.8
					c0.6,0.4,1.4,0.4,2,0c1.3-0.8,2.5-1.8,3.7-2.6c4.8-3.5,9.2-6.7,13.3-9.2c1-0.7,2-1.1,3.2-1.4c1.1-0.2,2.2-0.3,3.2-0.4
					c2-0.2,3.9-0.3,5.6-0.4c3.3-0.2,5.9-0.3,7.7-0.3l2-0.1C10716.3,10219,10716.5,10219,10716.5,10219"/>
				<path id="Trazado_116684" class="st7" d="M10766.8,10257.6c-0.2,0-0.6-4.6-0.8-10.2c-0.3-5.6-0.3-10.2-0.2-10.2
					c0.2,0,0.6,4.6,0.8,10.2C10766.9,10253,10767,10257.6,10766.8,10257.6"/>
				<path id="Trazado_116685" class="st7" d="M10774.1,10287.6c0-0.2,11.1,1.1,24.7,2.9c13.6,1.8,24.6,3.4,24.6,3.6
					s-11.1-1.1-24.7-2.9C10785.1,10289.4,10774.1,10287.8,10774.1,10287.6"/>
				<path id="Trazado_116686" class="st7" d="M10788.4,10284.8c0-0.2,6.2-2,14.1-4.1c7.8-2.1,14.2-3.7,14.2-3.5s-6.2,2-14.1,4.1
					C10794.8,10283.4,10788.5,10285,10788.4,10284.8"/>
				<line id="Línea_142" class="st12" x1="10799.6" y1="10027.1" x2="10799.6" y2="10077.5"/>
				<path id="Trazado_116687" class="st7" d="M10882.1,10046.5h-165c-3.3,0-5.9-2.7-5.9-5.9c0,0,0,0,0,0v-31.1
					c0-3.3,2.7-5.9,5.9-5.9l0,0h165c3.3,0,5.9,2.7,5.9,5.9v31.1C10888,10043.8,10885.3,10046.5,10882.1,10046.5L10882.1,10046.5"/>
				<path id="Trazado_116688" class="st13" d="M10882.5,10045.6h-165.8c-2.5,0-4.5-2-4.5-4.5l0,0v-32.3c0-2.5,2-4.5,4.5-4.5h165.8
					c2.5,0,4.5,2,4.5,4.5c0,0,0,0,0,0v32.3C10887,10043.6,10885,10045.6,10882.5,10045.6
					C10882.5,10045.6,10882.5,10045.6,10882.5,10045.6"/>
			</g>
		</g>
	</g>
	<path id="Trazado_131396" class="st4" d="M886.6,176.7H875v-2.3l5.5-5.9c0.6-0.7,1.2-1.4,1.7-2.2c0.3-0.5,0.5-1.1,0.5-1.8
		c0-0.6-0.2-1.3-0.6-1.8c-0.4-0.5-1-0.7-1.6-0.7c-0.7,0-1.4,0.3-1.8,0.8c-0.5,0.6-0.7,1.3-0.7,2.1h-3.4c0-1,0.2-2,0.7-2.8
		c0.5-0.9,1.2-1.6,2.1-2c1-0.5,2-0.8,3.1-0.7c1.5-0.1,2.9,0.4,4.1,1.3c1,0.9,1.5,2.2,1.5,3.6c0,0.9-0.2,1.8-0.7,2.6
		c-0.6,1.1-1.4,2.1-2.2,3.1l-3.9,4.1h7.3L886.6,176.7z M889,175c0-0.5,0.2-1,0.5-1.3c0.4-0.3,0.9-0.5,1.4-0.5c0.5,0,1,0.2,1.4,0.5
		c0.4,0.3,0.6,0.8,0.5,1.3c0,0.5-0.2,1-0.5,1.3c-0.4,0.3-0.9,0.5-1.4,0.5c-0.5,0-1-0.2-1.4-0.5C889.2,176,889,175.5,889,175z
		 M908.4,170.4h-2.8v6.2H902v-17.1h6.3c1.7-0.1,3.3,0.4,4.7,1.3c1.1,0.9,1.7,2.4,1.6,3.8c0,1-0.2,2-0.8,2.9
		c-0.6,0.8-1.4,1.5-2.3,1.9l3.7,7v0.2h-3.8L908.4,170.4z M905.6,167.6h2.8c0.7,0,1.5-0.2,2.1-0.7c0.5-0.5,0.8-1.2,0.7-1.9
		c0-0.7-0.2-1.4-0.7-1.9c-0.6-0.5-1.3-0.8-2.1-0.7h-2.8L905.6,167.6z M923,176.9c-1.7,0.1-3.3-0.5-4.5-1.7c-1.2-1.2-1.8-2.9-1.8-4.6
		v-0.3c0-1.2,0.2-2.3,0.7-3.4c0.5-1,1.2-1.8,2.1-2.3c0.9-0.6,2-0.8,3.1-0.8c1.5-0.1,3,0.5,4.1,1.6c1.1,1.3,1.6,3,1.5,4.7v1.4h-8.1
		c0.1,0.8,0.4,1.5,1,2c0.6,0.5,1.3,0.8,2.1,0.8c1.2,0.1,2.3-0.5,3.1-1.4l1.7,1.9c-0.5,0.7-1.2,1.3-2.1,1.7
		C924.9,176.7,924,176.9,923,176.9z M922.6,166.5c-0.6,0-1.2,0.2-1.6,0.7c-0.5,0.6-0.7,1.2-0.8,2h4.7v-0.3c0-0.6-0.2-1.3-0.6-1.7
		C923.8,166.7,923.2,166.4,922.6,166.5z M935.4,174.2c0.6,0,1.1-0.2,1.5-0.5c0.4-0.3,0.6-0.8,0.6-1.4h3.2c0,0.8-0.2,1.7-0.7,2.4
		c-0.5,0.7-1.1,1.3-1.9,1.7c-0.8,0.4-1.7,0.6-2.7,0.6c-1.6,0.1-3.2-0.6-4.3-1.7c-1.1-1.3-1.7-3-1.6-4.8v-0.2
		c-0.1-1.7,0.5-3.4,1.6-4.7c1.1-1.2,2.7-1.8,4.3-1.7c1.4-0.1,2.8,0.4,3.8,1.4c1,0.9,1.5,2.2,1.5,3.6h-3.2c0-0.6-0.2-1.2-0.6-1.6
		c-0.4-0.4-1-0.6-1.5-0.6c-0.7,0-1.4,0.3-1.8,0.9c-0.5,0.9-0.7,1.8-0.6,2.8v0.4c-0.1,1,0.1,2,0.6,2.8
		C934,173.9,934.7,174.2,935.4,174.2z M948.5,176.9c-1.7,0.1-3.3-0.5-4.5-1.7c-1.2-1.2-1.8-2.9-1.8-4.6v-0.3c0-1.2,0.2-2.3,0.7-3.4
		c0.5-1,1.2-1.8,2.1-2.3c0.9-0.6,2-0.8,3.1-0.8c1.5-0.1,3,0.5,4.1,1.6c1.1,1.3,1.6,3,1.5,4.7v1.4h-8.1c0.1,0.8,0.4,1.5,1,2
		c0.6,0.5,1.3,0.8,2.1,0.8c1.2,0.1,2.3-0.5,3.1-1.4l1.7,1.9c-0.5,0.7-1.2,1.3-2.1,1.7C950.4,176.7,949.4,176.9,948.5,176.9z
		 M948.1,166.5c-0.6,0-1.2,0.2-1.6,0.7c-0.5,0.6-0.7,1.2-0.8,2h4.7v-0.3c0-0.6-0.2-1.3-0.6-1.7C949.3,166.7,948.7,166.4,948.1,166.5
		z M967,170.4c0.1,1.7-0.4,3.3-1.3,4.7c-0.8,1.1-2.2,1.8-3.6,1.8c-1.2,0-2.3-0.4-3.1-1.3v6h-3.4V164h3.1l0.1,1.2
		c0.8-1,2-1.5,3.2-1.5c1.4-0.1,2.8,0.6,3.6,1.7c0.9,1.4,1.4,3.1,1.3,4.8L967,170.4z M963.6,170.2c0.1-1-0.2-1.9-0.6-2.7
		c-0.4-0.6-1.1-1-1.8-1c-0.9-0.1-1.8,0.4-2.2,1.2v5.2c0.4,0.8,1.3,1.3,2.2,1.3C962.8,174.2,963.6,172.8,963.6,170.2z M973.2,160.9
		v3.1h2.2v2.5h-2.2v6.3c0,0.4,0.1,0.7,0.3,1c0.3,0.2,0.7,0.3,1,0.3c0.3,0,0.7,0,1-0.1v2.6c-0.7,0.2-1.4,0.3-2.1,0.3
		c-2.4,0-3.6-1.2-3.6-3.6v-6.8h-1.9V164h1.9v-3.1H973.2z M976.3,170.2c0-1.2,0.2-2.3,0.7-3.4c0.5-1,1.2-1.7,2.1-2.3
		c1-0.6,2.1-0.8,3.2-0.8c1.6-0.1,3.1,0.5,4.2,1.6c1.1,1.1,1.8,2.7,1.8,4.3l0,0.9c0.1,1.7-0.5,3.4-1.6,4.7c-1.1,1.2-2.7,1.8-4.4,1.8
		c-1.6,0.1-3.2-0.6-4.4-1.8c-1.1-1.3-1.7-3-1.6-4.8V170.2z M979.7,170.4c-0.1,1,0.2,1.9,0.7,2.8c0.4,0.6,1.2,1,1.9,1
		c0.8,0,1.5-0.3,1.9-0.9c0.5-0.9,0.8-2,0.7-3c0.1-1-0.2-1.9-0.7-2.7c-0.4-0.6-1.2-1-1.9-1c-0.8,0-1.5,0.3-1.9,1
		C979.9,168.4,979.6,169.4,979.7,170.4L979.7,170.4z M997.6,167.2c-0.4-0.1-0.8-0.1-1.2-0.1c-1-0.1-2,0.4-2.5,1.3v8.3h-3.4V164h3.2
		l0.1,1.5c0.5-1.1,1.6-1.8,2.8-1.7c0.4,0,0.7,0,1.1,0.2L997.6,167.2z"/>
	<g id="Grupo_86295" transform="translate(-9858 -9854.957)">
		<g>
			<defs>
				<rect id="SVGID_00000025416734338931020010000007488732142322184639_" x="9858" y="9855" width="1030" height="628.3"/>
			</defs>
			<clipPath id="SVGID_00000169534410707830526530000006227753120652229055_">
				<use xlink:href="#SVGID_00000025416734338931020010000007488732142322184639_"  style="overflow:visible;"/>
			</clipPath>
			<g id="Grupo_86294" style="clip-path:url(#SVGID_00000169534410707830526530000006227753120652229055_);">
				<line id="Línea_143" class="st12" x1="10614.1" y1="10167.3" x2="10774.7" y2="10142.3"/>
				<path id="Trazado_116689" class="st7" d="M10635.5,10188.8h-165c-3.3,0-5.9-2.7-5.9-5.9c0,0,0,0,0,0v-31.1
					c0-3.3,2.7-5.9,5.9-5.9h165c3.3,0,5.9,2.7,5.9,5.9v31.1C10641.5,10186.1,10638.8,10188.8,10635.5,10188.8L10635.5,10188.8"/>
				<path id="Trazado_116690" class="st13" d="M10635.9,10187.9h-165.8c-2.5,0-4.5-2-4.5-4.5v-32.3c0-2.5,2-4.5,4.5-4.5h165.8
					c2.5,0,4.5,2,4.5,4.5l0,0v32.3C10640.4,10185.9,10638.4,10187.9,10635.9,10187.9
					C10635.9,10187.9,10635.9,10187.9,10635.9,10187.9"/>
			</g>
		</g>
	</g>
	<path id="Trazado_131397" class="st4" d="M623.1,311.3l1-8.7h9.6v2.8h-6.8l-0.4,3.7c0.8-0.4,1.7-0.6,2.6-0.6
		c1.4-0.1,2.8,0.5,3.8,1.5c1,1.2,1.5,2.7,1.4,4.2c0,1-0.2,2-0.7,3c-0.5,0.9-1.1,1.6-2,2c-0.9,0.5-2,0.7-3.1,0.7c-1,0-2-0.2-2.9-0.6
		c-0.8-0.4-1.6-1-2.1-1.8c-0.5-0.8-0.8-1.7-0.8-2.6h3.4c0,0.6,0.3,1.2,0.7,1.7c0.5,0.4,1.1,0.6,1.7,0.6c0.7,0,1.4-0.3,1.8-0.8
		c0.5-0.7,0.7-1.5,0.6-2.3c0.1-0.8-0.2-1.6-0.7-2.2c-0.5-0.5-1.3-0.8-2-0.8c-0.7,0-1.4,0.2-2,0.6l-0.3,0.3L623.1,311.3z M636.7,318
		c0-0.5,0.2-1,0.5-1.3c0.4-0.3,0.9-0.5,1.4-0.5c0.5,0,1,0.2,1.4,0.5c0.4,0.3,0.6,0.8,0.5,1.3c0,0.5-0.2,1-0.5,1.3
		c-0.4,0.3-0.9,0.5-1.4,0.5c-0.5,0-1-0.2-1.4-0.5C636.8,319,636.6,318.5,636.7,318z M656,313.4h-2.8v6.2h-3.5v-17.1h6.3
		c1.7-0.1,3.3,0.4,4.7,1.3c1.1,0.9,1.7,2.4,1.6,3.8c0,1-0.2,2-0.8,2.9c-0.6,0.8-1.4,1.5-2.3,1.9l3.7,7v0.2h-3.8L656,313.4z
		 M653.2,310.6h2.8c0.7,0,1.5-0.2,2.1-0.7c0.5-0.5,0.8-1.2,0.7-1.9c0-0.7-0.2-1.4-0.7-1.9c-0.6-0.5-1.3-0.8-2.1-0.7h-2.8
		L653.2,310.6z M670.6,319.9c-1.7,0.1-3.3-0.5-4.5-1.7c-1.2-1.2-1.8-2.9-1.8-4.6v-0.3c0-1.2,0.2-2.3,0.7-3.4c0.5-1,1.2-1.8,2.1-2.3
		c0.9-0.6,2-0.8,3.1-0.8c1.5-0.1,3,0.5,4.1,1.6c1.1,1.3,1.6,3,1.5,4.7v1.4h-8.1c0.1,0.8,0.4,1.5,1,2c0.6,0.5,1.3,0.8,2.1,0.8
		c1.2,0.1,2.3-0.5,3.1-1.4l1.7,1.9c-0.5,0.7-1.2,1.3-2.1,1.7C672.6,319.7,671.6,319.9,670.6,319.9z M670.2,309.5
		c-0.6,0-1.2,0.2-1.6,0.7c-0.5,0.6-0.7,1.2-0.8,2h4.7v-0.3c0-0.6-0.2-1.3-0.6-1.7C671.4,309.7,670.8,309.5,670.2,309.5z
		 M684.6,316.2c0-0.4-0.2-0.8-0.6-1c-0.6-0.3-1.3-0.5-2-0.6c-3-0.6-4.5-1.9-4.5-3.8c0-1.1,0.5-2.2,1.4-2.8c1.1-0.8,2.3-1.2,3.7-1.1
		c1.4-0.1,2.7,0.3,3.9,1.1c0.9,0.7,1.5,1.8,1.4,3h-3.4c0-0.4-0.2-0.9-0.5-1.2c-0.4-0.3-0.9-0.5-1.5-0.5c-0.5,0-0.9,0.1-1.3,0.4
		c-0.3,0.2-0.5,0.6-0.5,1c0,0.4,0.2,0.7,0.5,0.9c0.6,0.3,1.2,0.5,1.8,0.6c0.7,0.1,1.4,0.3,2.1,0.6c1.8,0.7,2.7,1.8,2.7,3.4
		c0,1.1-0.5,2.2-1.5,2.8c-1.1,0.8-2.5,1.1-3.8,1.1c-1,0-1.9-0.2-2.8-0.6c-0.8-0.3-1.4-0.9-1.9-1.6c-0.5-0.6-0.7-1.4-0.7-2.1h3.2
		c0,0.5,0.2,1,0.7,1.4c0.5,0.3,1.1,0.5,1.7,0.5c0.5,0,1-0.1,1.5-0.4C684.4,316.9,684.6,316.6,684.6,316.2z M701.5,313.5
		c0.1,1.7-0.4,3.3-1.3,4.7c-0.8,1.1-2.2,1.8-3.6,1.8c-1.2,0-2.3-0.4-3.1-1.3v6h-3.4V307h3.1l0.1,1.2c0.8-1,2-1.5,3.2-1.5
		c1.4-0.1,2.8,0.6,3.6,1.7c0.9,1.4,1.4,3.1,1.3,4.8L701.5,313.5z M698.1,313.2c0.1-1-0.2-1.9-0.6-2.7c-0.4-0.6-1.1-1-1.8-1
		c-0.9-0.1-1.8,0.4-2.2,1.2v5.2c0.4,0.8,1.3,1.3,2.2,1.3C697.3,317.2,698.1,315.9,698.1,313.2z M711.2,318.4c-0.9,1-2.1,1.6-3.5,1.5
		c-1.2,0.1-2.3-0.3-3.1-1.2c-0.8-1-1.2-2.2-1.1-3.4V307h3.4v8.2c0,1.3,0.6,2,1.8,2c1,0.1,1.9-0.4,2.4-1.2v-9h3.4v12.7h-3.2
		L711.2,318.4z M722.8,319.9c-1.7,0.1-3.3-0.5-4.5-1.7c-1.2-1.2-1.8-2.9-1.8-4.6v-0.3c0-1.2,0.2-2.3,0.7-3.4c0.5-1,1.2-1.8,2.1-2.3
		c0.9-0.6,2-0.8,3.1-0.8c1.5-0.1,3,0.5,4.1,1.6c1.1,1.3,1.6,3,1.5,4.7v1.4H720c0.1,0.8,0.4,1.5,1,2c0.6,0.5,1.3,0.8,2.1,0.8
		c1.2,0.1,2.3-0.5,3.1-1.4l1.7,1.9c-0.5,0.7-1.2,1.3-2.1,1.7C724.8,319.7,723.8,319.9,722.8,319.9z M722.5,309.5
		c-0.6,0-1.2,0.2-1.6,0.7c-0.5,0.6-0.7,1.2-0.8,2h4.7v-0.3c0-0.6-0.2-1.3-0.6-1.7C723.7,309.7,723.1,309.5,722.5,309.5z
		 M736.8,316.2c0-0.4-0.2-0.8-0.6-1c-0.6-0.3-1.3-0.5-2-0.6c-3-0.6-4.5-1.9-4.5-3.8c0-1.1,0.5-2.2,1.4-2.8c1.1-0.8,2.3-1.2,3.7-1.1
		c1.4-0.1,2.7,0.3,3.9,1.1c0.9,0.7,1.5,1.8,1.4,3h-3.4c0-0.4-0.2-0.9-0.5-1.2c-0.4-0.3-0.9-0.5-1.5-0.5c-0.5,0-0.9,0.1-1.3,0.4
		c-0.3,0.2-0.5,0.6-0.5,1c0,0.4,0.2,0.7,0.5,0.9c0.6,0.3,1.2,0.5,1.8,0.6c0.7,0.1,1.4,0.3,2.1,0.6c1.8,0.7,2.7,1.8,2.7,3.4
		c0,1.1-0.5,2.2-1.5,2.8c-1.1,0.8-2.5,1.1-3.8,1.1c-1,0-1.9-0.2-2.8-0.6c-0.8-0.3-1.4-0.9-1.9-1.6c-0.5-0.6-0.7-1.4-0.7-2.1h3.2
		c0,0.5,0.2,1,0.7,1.4c0.5,0.3,1.1,0.5,1.7,0.5c0.5,0,1-0.1,1.5-0.4C736.7,316.9,736.9,316.6,736.8,316.2z M746.4,303.9v3.1h2.2v2.5
		h-2.2v6.3c0,0.4,0.1,0.7,0.3,1c0.3,0.2,0.7,0.3,1,0.3c0.3,0,0.7,0,1-0.1v2.6c-0.7,0.2-1.4,0.3-2.1,0.3c-2.4,0-3.6-1.2-3.6-3.6v-6.8
		h-1.9V307h1.9v-3.1H746.4z M757.8,319.7c-0.2-0.4-0.3-0.7-0.3-1.1c-0.8,0.9-2,1.4-3.2,1.4c-1.1,0-2.2-0.3-3.1-1.1
		c-0.8-0.7-1.2-1.7-1.2-2.7c-0.1-1.2,0.5-2.4,1.5-3.1c1.3-0.8,2.8-1.2,4.3-1.1h1.6v-0.7c0-0.5-0.1-1-0.5-1.4
		c-0.4-0.4-0.9-0.6-1.4-0.5c-0.5,0-1,0.1-1.3,0.4c-0.3,0.3-0.5,0.7-0.5,1.1h-3.4c0-0.7,0.2-1.5,0.7-2c0.5-0.7,1.2-1.2,1.9-1.5
		c0.9-0.4,1.8-0.5,2.8-0.5c1.3-0.1,2.7,0.3,3.7,1.2c0.9,0.8,1.4,2.1,1.4,3.3v5.5c0,0.9,0.1,1.9,0.5,2.7v0.2H757.8z M755,317.3
		c0.5,0,1-0.1,1.4-0.3c0.4-0.2,0.7-0.5,0.9-0.9v-2.2H756c-1.7,0-2.6,0.6-2.7,1.8l0,0.2c0,0.4,0.2,0.8,0.4,1
		C754.1,317.2,754.5,317.4,755,317.3L755,317.3z"/>
	<g id="Grupo_86297" transform="translate(-9858 -9854.957)">
		<g>
			<defs>
				<rect id="SVGID_00000173879461396022802100000003440706805784131979_" x="9858" y="9855" width="1030" height="628.3"/>
			</defs>
			<clipPath id="SVGID_00000013896856646772171000000006408264279894472074_">
				<use xlink:href="#SVGID_00000173879461396022802100000003440706805784131979_"  style="overflow:visible;"/>
			</clipPath>
			<g id="Grupo_86296" style="clip-path:url(#SVGID_00000013896856646772171000000006408264279894472074_);">
				<line id="Línea_144" class="st12" x1="9967.5" y1="9996" x2="9967.5" y2="10046.5"/>
				<path id="Trazado_116691" class="st7" d="M10050,10015.4h-165c-3.3,0-5.9-2.7-5.9-5.9c0,0,0,0,0,0v-31.1c0-3.3,2.7-5.9,5.9-5.9
					c0,0,0,0,0,0h165c3.3,0,5.9,2.7,5.9,5.9v31.1C10055.9,10012.8,10053.3,10015.4,10050,10015.4L10050,10015.4"/>
				<path id="Trazado_116692" class="st13" d="M10050.4,10014.6h-165.8c-2.5,0-4.5-2-4.5-4.5c0,0,0,0,0,0v-32.3c0-2.5,2-4.5,4.5-4.5
					h165.8c2.5,0,4.5,2,4.5,4.5l0,0v32.3C10054.9,10012.6,10052.9,10014.6,10050.4,10014.6
					C10050.4,10014.6,10050.4,10014.6,10050.4,10014.6"/>
			</g>
		</g>
	</g>
	<g>
		<path class="st4" d="M64.6,145.9h-3.5v-13.5l-4.2,1.3v-2.8l7.3-2.6h0.4V145.9z"/>
	</g>
	<path class="st4" d="M67,143.9c0-0.5,0.2-1,0.5-1.3c0.4-0.3,0.9-0.5,1.4-0.5c0.5,0,1,0.2,1.4,0.5c0.4,0.3,0.6,0.8,0.5,1.3
		c0,0.5-0.2,1-0.5,1.3c-0.4,0.3-0.9,0.5-1.4,0.5c-0.5,0-1-0.2-1.4-0.5C67.1,144.9,66.9,144.4,67,143.9z"/>
	<polygon class="st4" points="90.2,138.2 83.5,138.2 83.5,142.8 91.4,142.8 91.4,145.6 80,145.6 80,128.6 91.4,128.6 91.4,131.4 
		83.5,131.4 83.5,135.5 90.2,135.5 	"/>
	<path class="st4" d="M96.4,132.9l0.1,1.4c0.9-1.1,2.2-1.7,3.6-1.7c1.4-0.1,2.8,0.6,3.4,1.9c0.8-1.3,2.3-2,3.8-1.9
		c1.2-0.1,2.3,0.4,3.1,1.2c0.7,1.1,1.1,2.3,1,3.6v8.1H108v-8.1c0-0.6-0.1-1.1-0.4-1.6c-0.4-0.4-0.9-0.6-1.5-0.5
		c-1,0-1.8,0.6-2.1,1.5l0,8.7h-3.4v-8.1c0.1-0.6-0.1-1.1-0.4-1.6c-0.4-0.4-0.9-0.5-1.5-0.5c-0.9-0.1-1.7,0.4-2.1,1.2v9h-3.4v-12.7
		H96.4z"/>
	<rect x="114.2" y="132.9" class="st4" width="3.4" height="12.7"/>
	<path class="st4" d="M114,129.7c0-0.5,0.2-0.9,0.5-1.3c0.4-0.3,0.9-0.5,1.4-0.5c0.5,0,1,0.2,1.4,0.5c0.3,0.3,0.5,0.8,0.5,1.3
		c0,0.5-0.2,0.9-0.5,1.3c-0.4,0.3-0.9,0.5-1.4,0.5c-0.5,0-1-0.2-1.4-0.5C114.2,130.6,114,130.1,114,129.7L114,129.7z"/>
	<path class="st4" d="M127.2,142.1c0-0.4-0.2-0.8-0.6-1c-0.6-0.3-1.3-0.5-2-0.6c-3-0.6-4.5-1.9-4.5-3.8c0-1.1,0.5-2.2,1.4-2.8
		c1.1-0.8,2.3-1.2,3.7-1.1c1.4-0.1,2.7,0.3,3.9,1.1c0.9,0.7,1.5,1.8,1.4,3h-3.4c0-0.4-0.2-0.9-0.5-1.2c-0.4-0.3-0.9-0.5-1.5-0.5
		c-0.5,0-0.9,0.1-1.3,0.4c-0.3,0.2-0.5,0.6-0.5,1c0,0.4,0.2,0.7,0.5,0.9c0.6,0.3,1.2,0.5,1.8,0.6c0.7,0.1,1.4,0.3,2.1,0.6
		c1.8,0.7,2.7,1.8,2.7,3.4c0,1.1-0.5,2.2-1.5,2.8c-1.1,0.8-2.5,1.1-3.8,1.1c-1,0-1.9-0.2-2.8-0.6c-0.8-0.3-1.4-0.9-1.9-1.6
		c-0.5-0.6-0.7-1.4-0.7-2.1h3.2c0,0.5,0.2,1,0.7,1.4c0.5,0.3,1.1,0.5,1.7,0.5c0.5,0,1-0.1,1.5-0.4
		C127.1,142.9,127.2,142.5,127.2,142.1z"/>
	<path class="st4" d="M144.2,139.4l0-0.9c0-1.6-0.7-3.1-1.8-4.3c-1.1-1.1-2.6-1.6-4.2-1.6c-1.1,0-2.2,0.3-3.2,0.8
		c-0.9,0.5-1.6,1.3-2.1,2.3c-0.5,1.1-0.7,2.2-0.7,3.4l0,0.2c-0.1,1.7,0.5,3.5,1.6,4.8c1.1,1.2,2.7,1.8,4.4,1.8
		c1.6,0.1,3.2-0.6,4.4-1.8C143.7,142.8,144.3,141.1,144.2,139.4z M140.1,142.2c-0.4,0.6-1.2,1-1.9,0.9c-0.8,0-1.5-0.3-1.9-1
		c-0.5-0.8-0.7-1.8-0.7-2.8v0c-0.1-1,0.2-2.1,0.7-3c0.4-0.6,1.2-1,1.9-1c0.8,0,1.5,0.3,1.9,1c0.5,0.8,0.7,1.8,0.7,2.7
		C140.9,140.2,140.7,141.3,140.1,142.2z"/>
	<path class="st4" d="M153.4,136.1c-0.4-0.1-0.8-0.1-1.2-0.1c-1-0.1-2,0.4-2.5,1.3v8.3h-3.4v-12.7h3.2l0.1,1.5
		c0.5-1.1,1.6-1.8,2.8-1.7c0.4,0,0.7,0,1.1,0.2L153.4,136.1z"/>
	<g id="Grupo_86299" transform="translate(-9858 -9854.957)">
		<g>
			<defs>
				<rect id="SVGID_00000098924498792695751310000001926439468365751172_" x="9858" y="9855" width="1030" height="628.3"/>
			</defs>
			<clipPath id="SVGID_00000072265219604597713970000015631545779950651327_">
				<use xlink:href="#SVGID_00000098924498792695751310000001926439468365751172_"  style="overflow:visible;"/>
			</clipPath>
			<g id="Grupo_86298" style="clip-path:url(#SVGID_00000072265219604597713970000015631545779950651327_);">
				<line id="Línea_145" class="st12" x1="10244.4" y1="10045" x2="10149.4" y2="10115.4"/>
				<path id="Trazado_116693" class="st7" d="M10326.9,10064.4h-165c-3.3,0-5.9-2.7-5.9-5.9c0,0,0,0,0,0v-31.1
					c0-3.3,2.7-5.9,5.9-5.9l0,0h165c3.3,0,5.9,2.7,5.9,5.9v31.1C10332.9,10061.8,10330.2,10064.4,10326.9,10064.4"/>
				<path id="Trazado_116694" class="st13" d="M10327.4,10063.6h-165.8c-2.5,0-4.5-2-4.5-4.5c0,0,0,0,0,0v-32.3c0-2.5,2-4.5,4.5-4.5
					h165.8c2.5,0,4.5,2,4.5,4.5v32.3C10331.8,10061.6,10329.8,10063.6,10327.4,10063.6
					C10327.4,10063.6,10327.4,10063.6,10327.4,10063.6"/>
			</g>
		</g>
	</g>
	<path id="Trazado_131399" class="st4" d="M329,184.6h1.8c0.7,0.1,1.4-0.2,1.9-0.6c0.4-0.5,0.7-1.1,0.6-1.7c0-0.6-0.2-1.2-0.6-1.6
		c-0.5-0.4-1.1-0.6-1.7-0.6c-0.6,0-1.2,0.2-1.6,0.5c-0.4,0.3-0.7,0.8-0.7,1.4h-3.4c0-0.9,0.2-1.7,0.7-2.4c0.5-0.7,1.2-1.3,2-1.7
		c0.9-0.4,1.9-0.6,2.9-0.6c1.5-0.1,3,0.4,4.2,1.3c1,0.9,1.6,2.2,1.5,3.6c0,0.8-0.2,1.5-0.7,2.2c-0.5,0.7-1.1,1.2-1.9,1.5
		c0.9,0.3,1.6,0.8,2.1,1.5c0.5,0.7,0.7,1.6,0.7,2.4c0,1.4-0.6,2.8-1.7,3.6c-1.3,1-2.8,1.4-4.4,1.4c-1.5,0.1-3-0.4-4.2-1.3
		c-1.1-0.9-1.7-2.2-1.6-3.6h3.4c0,0.6,0.3,1.2,0.7,1.6c0.5,0.4,1.1,0.6,1.8,0.6c0.7,0,1.4-0.2,1.9-0.6c0.5-0.4,0.7-1.1,0.7-1.7
		c0-1.7-0.9-2.6-2.8-2.6H329V184.6z M339.6,193c0-0.5,0.2-1,0.5-1.3c0.4-0.3,0.9-0.5,1.4-0.5c0.5,0,1,0.2,1.4,0.5
		c0.4,0.3,0.6,0.8,0.5,1.3c0,0.5-0.2,1-0.5,1.3c-0.4,0.3-0.9,0.5-1.4,0.5c-0.5,0-1-0.2-1.4-0.5C339.8,193.9,339.6,193.5,339.6,193z
		 M357.2,177.6l4.4,12.4l4.4-12.4h4.6v17.1H367V190l0.4-8.1l-4.6,12.7h-2.4l-4.6-12.7l0.4,8v4.7h-3.5v-17.1L357.2,177.6z
		 M379.3,194.9c-1.7,0.1-3.3-0.5-4.5-1.7c-1.2-1.2-1.8-2.9-1.8-4.6v-0.3c0-1.2,0.2-2.3,0.7-3.4c0.5-1,1.2-1.8,2.1-2.3
		c0.9-0.6,2-0.8,3.1-0.8c1.5-0.1,3,0.5,4.1,1.6c1.1,1.3,1.6,3,1.5,4.7v1.4h-8.1c0.1,0.8,0.4,1.5,1,2c0.6,0.5,1.3,0.8,2.1,0.7
		c1.2,0.1,2.3-0.5,3.1-1.4l1.7,1.9c-0.5,0.7-1.2,1.3-2.1,1.7C381.2,194.7,380.3,194.9,379.3,194.9z M378.9,184.5
		c-0.6,0-1.2,0.2-1.6,0.7c-0.5,0.6-0.7,1.2-0.8,2h4.7v-0.3c0-0.6-0.2-1.3-0.6-1.7C380.1,184.6,379.5,184.4,378.9,184.5z M389.5,182
		l0.1,1.5c0.9-1.1,2.2-1.7,3.6-1.7c1.1-0.1,2.2,0.3,3,1.2c0.7,1,1.1,2.3,1,3.5v8.2h-3.4v-8.1c0.1-0.6-0.1-1.1-0.5-1.6
		c-0.4-0.4-1-0.5-1.6-0.5c-0.9,0-1.7,0.4-2.1,1.2v9h-3.4V182L389.5,182z M406.7,191.1c0-0.4-0.2-0.8-0.6-1c-0.6-0.3-1.3-0.5-2-0.6
		c-3-0.6-4.5-1.9-4.5-3.8c0-1.1,0.5-2.2,1.4-2.8c1.1-0.8,2.3-1.2,3.7-1.1c1.4-0.1,2.7,0.3,3.9,1.1c0.9,0.7,1.5,1.8,1.4,3h-3.4
		c0-0.4-0.2-0.9-0.5-1.2c-0.4-0.3-0.9-0.5-1.5-0.5c-0.5,0-0.9,0.1-1.3,0.4c-0.3,0.2-0.5,0.6-0.5,1c0,0.4,0.2,0.7,0.5,0.9
		c0.6,0.3,1.2,0.5,1.8,0.6c0.7,0.1,1.4,0.3,2.1,0.6c1.8,0.7,2.7,1.8,2.7,3.4c0,1.1-0.5,2.2-1.5,2.8c-1.1,0.8-2.5,1.1-3.8,1.1
		c-1,0-1.9-0.2-2.8-0.6c-0.8-0.3-1.4-0.9-1.9-1.6c-0.5-0.6-0.7-1.4-0.7-2.1h3.2c0,0.5,0.2,1,0.7,1.4c0.5,0.3,1.1,0.5,1.7,0.5
		c0.5,0,1-0.1,1.5-0.4C406.5,191.9,406.7,191.5,406.7,191.1z M419.5,194.6c-0.2-0.4-0.3-0.7-0.3-1.1c-0.8,0.9-2,1.4-3.2,1.4
		c-1.1,0-2.2-0.3-3.1-1.1c-0.8-0.7-1.2-1.7-1.2-2.7c-0.1-1.2,0.5-2.4,1.5-3.1c1.3-0.8,2.8-1.2,4.3-1.1h1.6v-0.7c0-0.5-0.1-1-0.5-1.4
		c-0.4-0.4-0.9-0.6-1.4-0.5c-0.5,0-1,0.1-1.3,0.4c-0.3,0.3-0.5,0.7-0.5,1.1H412c0-0.7,0.2-1.5,0.7-2c0.5-0.7,1.2-1.2,1.9-1.5
		c0.9-0.4,1.8-0.5,2.8-0.5c1.3-0.1,2.7,0.3,3.7,1.2c0.9,0.8,1.4,2.1,1.4,3.3v5.5c0,0.9,0.1,1.9,0.5,2.7v0.2H419.5z M416.7,192.3
		c0.5,0,1-0.1,1.4-0.3c0.4-0.2,0.7-0.5,0.9-0.9v-2.2h-1.3c-1.7,0-2.6,0.6-2.7,1.8l0,0.2c0,0.4,0.2,0.8,0.4,1
		C415.8,192.2,416.3,192.3,416.7,192.3L416.7,192.3z M428.6,182v13.4c0.1,1.2-0.3,2.4-1.1,3.3c-0.9,0.8-2,1.2-3.2,1.2
		c-0.6,0-1.1-0.1-1.7-0.2v-2.7c0.4,0.1,0.7,0.1,1.1,0.1c1,0,1.5-0.5,1.5-1.6V182H428.6z M425,178.7c0-0.5,0.2-0.9,0.5-1.3
		c0.4-0.3,0.9-0.5,1.4-0.5c0.5,0,1,0.1,1.4,0.5c0.3,0.3,0.5,0.8,0.5,1.3c0,0.5-0.2,0.9-0.5,1.3c-0.4,0.3-0.9,0.5-1.4,0.5
		c-0.5,0-1-0.2-1.4-0.5C425.1,179.6,424.9,179.2,425,178.7z M437.1,194.9c-1.7,0.1-3.3-0.5-4.5-1.7c-1.2-1.2-1.8-2.9-1.8-4.6v-0.3
		c0-1.2,0.2-2.3,0.7-3.4c0.5-1,1.2-1.8,2.1-2.3c0.9-0.6,2-0.8,3.1-0.8c1.5-0.1,3,0.5,4.1,1.6c1.1,1.3,1.6,3,1.5,4.7v1.4h-8.1
		c0.1,0.8,0.4,1.5,1,2c0.6,0.5,1.3,0.8,2.1,0.8c1.2,0.1,2.3-0.5,3.1-1.4l1.7,1.9c-0.5,0.7-1.2,1.3-2.1,1.7
		C439.1,194.7,438.1,194.9,437.1,194.9z M436.7,184.5c-0.6,0-1.2,0.2-1.6,0.7c-0.5,0.6-0.7,1.2-0.8,2h4.7v-0.3
		c0-0.6-0.2-1.3-0.6-1.7C438,184.6,437.3,184.4,436.7,184.5L436.7,184.5z"/>
	<g id="Grupo_86301" transform="translate(-9858 -9854.957)">
		<g>
			<defs>
				<rect id="SVGID_00000064342364553611042280000008096117533293376953_" x="9858" y="9855" width="1030" height="628.3"/>
			</defs>
			<clipPath id="SVGID_00000079479383932413293470000011314540982478330798_">
				<use xlink:href="#SVGID_00000064342364553611042280000008096117533293376953_"  style="overflow:visible;"/>
			</clipPath>
			<g id="Grupo_86300" style="clip-path:url(#SVGID_00000079479383932413293470000011314540982478330798_);">
				<line id="Línea_146" class="st12" x1="10273.6" y1="10229" x2="10115.9" y2="10169.5"/>
				<path id="Trazado_116695" class="st7" d="M10356.1,10248.4h-165c-3.3,0-5.9-2.7-5.9-5.9c0,0,0,0,0,0v-31.1
					c0-3.3,2.7-5.9,5.9-5.9h165c3.3,0,5.9,2.7,5.9,5.9v31.1C10362.1,10245.7,10359.4,10248.4,10356.1,10248.4"/>
				<path id="Trazado_116696" class="st13" d="M10356.6,10247.6h-165.8c-2.5,0-4.5-2-4.5-4.5c0,0,0,0,0,0v-32.3c0-2.5,2-4.5,4.5-4.5
					h165.8c2.5,0,4.5,2,4.5,4.5v32.3C10361.1,10245.5,10359,10247.6,10356.6,10247.6
					C10356.6,10247.6,10356.6,10247.6,10356.6,10247.6"/>
			</g>
		</g>
	</g>
	<path id="Trazado_131400" class="st4" d="M375.7,371.4h1.9v2.6h-1.9v3.5h-3.2v-3.5h-6.7l-0.1-2l6.8-10.8h3.3V371.4z M368.9,371.4
		h3.6v-5.8l-0.2,0.4L368.9,371.4z M379.6,376c0-0.5,0.2-0.9,0.5-1.3c0.4-0.3,0.8-0.5,1.3-0.5c0.5,0,1,0.2,1.3,0.5
		c0.3,0.3,0.5,0.8,0.5,1.3c0,0.5-0.2,0.9-0.5,1.2c-0.4,0.3-0.8,0.5-1.3,0.5c-0.5,0-1-0.2-1.3-0.5C379.8,376.9,379.6,376.5,379.6,376
		L379.6,376z M404.9,372.1c0,1.6-0.8,3.1-1.9,4.2c-1.3,1.1-3,1.6-4.6,1.5c-1.9,0.1-3.7-0.7-4.9-2.1c-1.3-1.7-1.9-3.7-1.8-5.8v-1
		c0-1.4,0.3-2.8,0.8-4.2c0.5-1.1,1.3-2.1,2.4-2.8c1.1-0.7,2.3-1,3.6-1c1.7-0.1,3.3,0.5,4.6,1.5c1.2,1.1,1.9,2.6,2,4.3h-3.4
		c0-0.8-0.3-1.7-0.9-2.3c-0.6-0.5-1.5-0.8-2.3-0.7c-1-0.1-1.9,0.4-2.5,1.2c-0.6,1.1-0.9,2.4-0.9,3.7v1.2c-0.1,1.3,0.2,2.7,0.8,3.9
		c0.6,0.8,1.5,1.3,2.5,1.2c0.8,0.1,1.7-0.2,2.3-0.7c0.6-0.6,0.9-1.4,0.9-2.2L404.9,372.1z M414,377.6c-0.2-0.3-0.3-0.7-0.3-1.1
		c-0.8,0.9-1.9,1.4-3.1,1.3c-1.1,0-2.1-0.3-3-1c-0.8-0.6-1.2-1.6-1.2-2.6c-0.1-1.2,0.5-2.3,1.4-3c1.2-0.8,2.7-1.1,4.1-1h1.5v-0.7
		c0-0.5-0.1-1-0.4-1.3c-0.4-0.4-0.9-0.5-1.4-0.5c-0.5,0-0.9,0.1-1.3,0.4c-0.3,0.3-0.5,0.7-0.5,1.1h-3.2c0-0.7,0.2-1.4,0.7-2
		c0.5-0.6,1.1-1.1,1.8-1.4c0.8-0.4,1.8-0.5,2.7-0.5c1.3-0.1,2.6,0.3,3.6,1.1c0.9,0.8,1.4,2,1.3,3.2v5.3c0,0.9,0.1,1.8,0.5,2.6v0.2
		H414z M411.3,375.3c0.5,0,0.9-0.1,1.3-0.3c0.4-0.2,0.7-0.5,0.9-0.9v-2.1h-1.2c-1.6,0-2.5,0.6-2.6,1.7l0,0.2c0,0.4,0.1,0.7,0.4,1
		C410.4,375.2,410.9,375.4,411.3,375.3z M422.2,365.4l0.1,1.4c0.8-1.1,2.1-1.7,3.5-1.6c1.1-0.1,2.1,0.3,2.9,1.1c0.7,1,1,2.2,1,3.4
		v7.9h-3.2v-7.8c0-0.5-0.1-1.1-0.4-1.5c-0.4-0.4-1-0.5-1.5-0.5c-0.9,0-1.6,0.4-2.1,1.2v8.6h-3.2v-12.2H422.2z M439.2,377.6
		c-0.2-0.3-0.3-0.7-0.3-1.1c-0.8,0.9-1.9,1.4-3.1,1.3c-1.1,0-2.1-0.3-3-1c-0.8-0.6-1.2-1.6-1.2-2.6c-0.1-1.2,0.5-2.3,1.4-3
		c1.2-0.8,2.7-1.1,4.1-1h1.5v-0.7c0-0.5-0.1-1-0.4-1.3c-0.4-0.4-0.9-0.5-1.4-0.5c-0.5,0-0.9,0.1-1.3,0.4c-0.3,0.3-0.5,0.7-0.5,1.1
		h-3.2c0-0.7,0.2-1.4,0.7-2c0.5-0.6,1.1-1.1,1.8-1.4c0.8-0.4,1.8-0.5,2.7-0.5c1.3-0.1,2.6,0.3,3.6,1.1c0.9,0.8,1.4,2,1.3,3.2v5.3
		c0,0.9,0.1,1.8,0.5,2.6v0.2H439.2z M436.5,375.3c0.5,0,0.9-0.1,1.3-0.3c0.4-0.2,0.7-0.5,0.9-0.9v-2.1h-1.2c-1.6,0-2.5,0.6-2.6,1.7
		l0,0.2c0,0.4,0.1,0.7,0.4,1C435.7,375.2,436.1,375.4,436.5,375.3z M447.9,377.6h-3.3v-17.2h3.3V377.6z"/>
	<g id="Grupo_86306" transform="translate(-9858 -9854.957)">
		<g>
			<defs>
				<rect id="SVGID_00000066495390762118630410000003280362614577403029_" x="9858" y="9855" width="1030" height="628.3"/>
			</defs>
			<clipPath id="SVGID_00000130626021731734837810000007610996407587548562_">
				<use xlink:href="#SVGID_00000066495390762118630410000003280362614577403029_"  style="overflow:visible;"/>
			</clipPath>
			<g id="Grupo_86305" style="clip-path:url(#SVGID_00000130626021731734837810000007610996407587548562_);">
				<path id="Trazado_116697" class="st7" d="M10082.4,10322.5l23.6,53.3l66.4-29c-3.2-6.2-43.1-3.9-43.1-3.9l-13.7-34.7
					L10082.4,10322.5z"/>
				<g id="Grupo_86304" transform="translate(248.523 493.443)" class="st19">
					<g id="Grupo_86303">
						<g>
							<defs>
								<rect id="SVGID_00000129184422188592518030000005517498657490418598_" x="9858" y="9855" width="5.5" height="5.6"/>
							</defs>
							<clipPath id="SVGID_00000118379811546607213650000016820127722315065752_">
								<use xlink:href="#SVGID_00000129184422188592518030000005517498657490418598_"  style="overflow:visible;"/>
							</clipPath>
							<g id="Grupo_86302" style="clip-path:url(#SVGID_00000118379811546607213650000016820127722315065752_);">
								<path id="Trazado_116698" class="st4" d="M9859,9855.5c-1.1,1-1.4,2.7-0.5,3.9c0.9,1.2,2.6,1.4,3.9,0.6
									c1.2-1,1.4-2.8,0.5-4.1c-1-1.1-3.2-1.3-4.1-0.1"/>
							</g>
						</g>
					</g>
				</g>
				<path id="Trazado_116699" class="st8" d="M10106,10375.8l-2.2-5.5l64.5-25.8c0,0,3.5,0,4.1,2.2L10106,10375.8z"/>
				<path id="Trazado_116700" class="st8" d="M10130.3,10342.1c0.1,0.3-1.4,1.2-2.6,2.9c-1.2,1.7-1.4,3.5-1.8,3.5
					c-0.3,0.1-0.7-2.1,0.7-4.2C10128.1,10342.2,10130.2,10341.8,10130.3,10342.1"/>
				<path id="Trazado_116701" class="st8" d="M10138.5,10341.9c0.2,0.3-1,1.4-1.5,3.3c-0.6,1.8-0.2,3.4-0.5,3.6
					c-0.3,0.2-1.3-1.6-0.7-3.9C10136.5,10342.6,10138.4,10341.6,10138.5,10341.9"/>
				<path id="Trazado_116702" class="st8" d="M10146.1,10348.5c-0.3,0.2-1.4-1.2-1.4-3.4c0-2.1,1.3-3.5,1.5-3.3
					c0.3,0.2-0.3,1.6-0.3,3.3C10145.9,10346.9,10146.4,10348.4,10146.1,10348.5"/>
				<path id="Trazado_116703" class="st7" d="M10126.3,10334.5c0,0.4-1.7,0.6-3.5,1.5c-1.8,0.9-3,2.1-3.2,1.9c-0.3-0.2,0.6-2,2.7-3
					C10124.4,10333.8,10126.3,10334.2,10126.3,10334.5"/>
				<path id="Trazado_116704" class="st7" d="M10121.3,10327.3c0.1,0.1-1.1,0.9-3.3,1.4c-1.3,0.3-2.6,0.5-3.9,0.4
					c-0.8,0-1.6-0.1-2.4-0.2c-0.5,0-0.9-0.2-1.3-0.3c-0.6-0.3-1-1-0.9-1.7c0.1-0.6,0.5-1.1,1.1-1.4c0.4-0.2,0.9-0.3,1.3-0.4
					c0.8-0.1,1.6-0.2,2.4-0.2c1.3,0,2.7,0.2,3.9,0.7c2.2,0.8,3.2,1.7,3.1,1.8c-0.1,0.2-1.3-0.5-3.4-1c-1.2-0.3-2.5-0.4-3.7-0.4
					c-0.7,0-1.5,0.1-2.2,0.2c-0.8,0.1-1.4,0.4-1.4,0.8c0,0.1,0,0.2,0.2,0.3c0.3,0.1,0.6,0.2,1,0.2c0.7,0.1,1.5,0.2,2.2,0.2
					c1.3,0.1,2.5,0,3.8-0.2C10119.9,10327.6,10121.2,10327.1,10121.3,10327.3"/>
				<path id="Trazado_116705" class="st7" d="M10121,10328c-0.1,0.1-1.2-0.8-2.3-2.8c-1-1.9-1.4-4.1-1.2-6.2c0-1.1,0.5-2,1.4-2.6
					c0.6-0.2,1.3-0.1,1.8,0.3c0.3,0.3,0.6,0.7,0.9,1.1c0.4,0.7,0.8,1.4,1,2.2c0.4,1.3,0.4,2.7,0.1,4.1c-0.5,2.3-1.7,3.3-1.8,3.2
					c-0.2-0.1,0.7-1.2,0.9-3.3c0.2-1.2,0.1-2.4-0.3-3.6c-0.2-0.7-0.5-1.3-0.9-1.9c-0.4-0.7-0.9-1.1-1.2-0.9c-0.5,0.4-0.7,1-0.7,1.6
					c-0.1,0.7-0.1,1.4,0,2.2c0.1,1.2,0.4,2.4,0.8,3.6C10120.3,10326.8,10121.2,10327.8,10121,10328"/>
				<path id="Trazado_116706" class="st7" d="M10072.3,10204.6c-2.9-1.3-15.8-3.5-29,5.2c-39.6,26.1-103.6,86-103.6,86l-1.1,13.5
					l66.4,4l46.6-44.7l38.3,80.7c-0.8-1,43.2-17.7,43.2-17.7S10088.3,10212.1,10072.3,10204.6"/>
				<path id="Trazado_116707" class="st7" d="M10031.6,10315.2c-3-0.9-8.4-1.8-18.4-3.1c-23.3-3.1-60.1-8.7-60.1-8.7l-71-4.9
					l-5.7,27.7c-1.9,24.5,12.5,34,23.4,36.8c27.2,6.9,87.7,10.1,109.3,11.9c31.5,2.6,50.5-9.2,52.9-23
					C10066.6,10325.6,10046.5,10319.9,10031.6,10315.2"/>
				<path id="Trazado_116708" class="st8" d="M10045.9,10322c-0.3-0.1-0.6-0.3-0.8-0.4c-0.5-0.3-1.3-0.8-2.3-1.3
					c-2.8-1.5-5.8-2.8-8.9-3.8c-4.6-1.5-9.2-2.5-14-3c-5.4-0.8-11.3-1.7-17.4-2.7c-12.4-2-23.6-3.7-31.7-4.6c-4.1-0.5-7.4-0.8-9.7-1
					l-2.6-0.2c-0.3,0-0.6-0.1-0.9-0.1c0.3,0,0.6,0,0.9,0l2.6,0.1c2.3,0.1,5.6,0.4,9.7,0.8c8.2,0.8,19.4,2.4,31.8,4.4l17.4,2.8
					c4.8,0.5,9.5,1.6,14.1,3.1c3.1,1,6.1,2.4,8.9,4c1,0.6,1.7,1.1,2.2,1.4C10045.4,10321.7,10045.7,10321.8,10045.9,10322"/>
				<path id="Trazado_116709" class="st8" d="M10057.6,10232.7c-0.1,0.5-0.3,0.9-0.5,1.4c-0.3,0.9-0.8,2.2-1.3,3.8
					c-2.7,8.3-4.1,17-4.2,25.8c0,1.7,0,3,0.1,4c0,0.5,0,1,0,1.5c-0.1-0.5-0.2-1-0.2-1.5c-0.1-0.9-0.2-2.3-0.2-4
					c-0.2-8.8,1.2-17.6,4.2-25.9c0.6-1.6,1.1-2.9,1.5-3.7C10057.1,10233.5,10057.3,10233.1,10057.6,10232.7"/>
				<path id="Trazado_116710" class="st8" d="M9989.2,10308.1c-1.5-1.6-2.8-3.4-3.7-5.4C9987,10304.3,9988.3,10306.1,9989.2,10308.1
					"/>
				<path id="Trazado_116711" class="st9" d="M9975.2,10146.7c0,0,8.7-4.6,24.4,4.3c16.9,9.6,84.3,40.8,84.3,40.8
					s10.9,27.8,12.7,54.4c0.9,12.9,0.2,17.1,0.2,17.1l-19.8-0.8c0,0-16.7-52-23.4-56l-62.9-14.8L9975.2,10146.7z"/>
				<path id="Trazado_116712" class="st9" d="M10056.4,10296.3c0,0-2,5.2-0.7,6.2c1.3,1,2.2,2.4,4.5,0c2.3-2.3,4.7-5,4.7-5
					c0.7,1.2,1.8,2.1,3.1,2.5c1.9,0.3,0.1,0.6-0.3,0.8s-5.5,2.6-5.8,5.4c-0.3,2.8,1.5,2.2,1.5,2.2l12.2-4c0,0-2.8,3.9,0.5,6.4
					l12.2-10.7l7.1-22l1.5-17.7l-21.3,1.3c1.1-0.1-9.6,11-10.9,12.8s-3.9,10.6-3.9,10.6"/>
				<path id="Trazado_116713" class="st10" d="M10060.9,10286.2c-1.2,3.7-2.6,7.2-4.5,10.6
					C10057.6,10293.1,10059.1,10289.6,10060.9,10286.2"/>
				<path id="Trazado_116714" class="st10" d="M10069.5,10290.8c-0.5,1.3-1.3,2.6-2.2,3.7c-0.8,1.2-1.7,2.4-2.8,3.3
					C10066,10295.4,10067.6,10293,10069.5,10290.8"/>
				<path id="Trazado_116715" class="st10" d="M10076.9,10291.7c-0.1,0.6-0.3,1.2-0.5,1.7c-0.5,1.4-1.3,2.7-2.3,3.7
					c-1.1,1-2.4,1.8-3.8,2.4c-0.5,0.3-1.1,0.5-1.8,0.6c0.5-0.4,1-0.7,1.6-0.9c1.3-0.6,2.5-1.5,3.5-2.4c1-1,1.8-2.2,2.4-3.5
					C10076.2,10292.7,10076.5,10292.2,10076.9,10291.7"/>
				<path id="Trazado_116716" class="st10" d="M10085,10294.6c0,0.7-0.1,1.4-0.4,2c-0.6,1.6-1.5,3.1-2.7,4.3
					c-1.2,1.3-2.6,2.2-4.2,2.9c-0.6,0.3-1.4,0.5-2.1,0.6c0.6-0.3,1.3-0.6,1.9-0.9c1.5-0.7,2.8-1.7,4-2.9c1.1-1.2,2.1-2.6,2.7-4.1
					C10084.5,10295.8,10084.7,10295.2,10085,10294.6"/>
				<path id="Trazado_116717" class="st11" d="M9880.6,10263.4c0,0,5.8-79.2,11.6-91.8c7.7-16.6,32.2-28.4,44.1-30.1
					c14.4-2,45.7,2.7,45.7,2.7l20.7,44.7l-16,111.2c3.7,1.5,4.7,4.5,3.9,8.7l-51.9-4.8c-15.1-1.4-30.4,1-44.3,7l-16.1,7
					c0,0-4.2-2.3-5-5.3c-0.8-2.9,1.4-9.7,7.3-10.6l-1,0.5L9880.6,10263.4z"/>
				<path id="Trazado_116718" class="st11" d="M10040,10168.5l-9.2,39l-36-9.3l-29.3-55.5c8.7,0.4,17.4,1.6,25.9,3.5
					c5.3,1.3,19.5,5.3,19.5,5.3L10040,10168.5z"/>
				<path id="Trazado_116719" class="st7" d="M9977,10241.5c-0.3,0.5-0.7,1-1.2,1.4l-3.3,3.8c-2.8,3.2-6.6,7.7-10.5,12.8
					s-7.3,9.9-9.7,13.4c-1.1,1.7-2.1,3-2.8,4.2c-0.3,0.5-0.7,1-1.1,1.5c0.2-0.6,0.5-1.1,0.9-1.6c0.6-1,1.5-2.5,2.6-4.3
					c2.3-3.6,5.6-8.4,9.6-13.5c4-5.1,7.8-9.5,10.7-12.7c1.4-1.6,2.6-2.8,3.5-3.6C9976,10242.3,9976.5,10241.9,9977,10241.5"/>
				<path id="Trazado_116720" class="st7" d="M10006.1,10166.4c0.2,0-1.2,11.6-3.1,25.9c-1.9,14.3-3.6,25.8-3.8,25.8
					c-0.2,0,1.2-11.6,3.1-25.9C10004.2,10177.9,10005.9,10166.4,10006.1,10166.4"/>
				<path id="Trazado_116721" class="st9" d="M9936.2,10141.6l0-61.9c-0.8-18.3,9.1-33.9,27.4-34.2l1.7,0.1
					c17,0.7,30.6,14.3,31.3,31.3c0.6,15.8,1.1,33.3,0.6,41.8c-0.9,17.5-18.6,19.5-18.6,19.5c0,0-0.1,10.7-0.1,15.8l-0.3,12.5
					L9936.2,10141.6z"/>
				<path id="Trazado_116722" class="st10" d="M9978.7,10138.1c-8.1-0.4-15.9-3-22.5-7.7c0,0,4.9,13.4,22.5,12.5L9978.7,10138.1z"/>
				<path id="Trazado_116723" class="st7" d="M9991.6,10091.9c0,1.4-1.2,2.4-2.5,2.4c-1.3,0-2.4-1-2.5-2.3c0,0,0,0,0-0.1
					c0-1.4,1.2-2.4,2.5-2.4C9990.4,10089.5,9991.6,10090.5,9991.6,10091.9C9991.6,10091.9,9991.6,10091.9,9991.6,10091.9"/>
				<path id="Trazado_116724" class="st7" d="M9992.6,10084.4c-0.3,0.3-2.2-1.2-4.9-1.3c-2.7-0.1-4.7,1.2-5,0.8
					c-0.1-0.2,0.2-0.7,1.1-1.3c1.2-0.8,2.6-1.1,4-1.1c1.4,0.1,2.7,0.6,3.8,1.4C9992.5,10083.6,9992.8,10084.2,9992.6,10084.4"/>
				<path id="Trazado_116725" class="st7" d="M9966.9,10091.9c0,1.4-1.2,2.4-2.5,2.4c-1.3,0.1-2.4-1-2.5-2.3c0,0,0,0,0-0.1
					c0-1.4,1.2-2.4,2.5-2.4C9965.7,10089.5,9966.8,10090.5,9966.9,10091.9C9966.9,10091.9,9966.9,10091.9,9966.9,10091.9"/>
				<path id="Trazado_116726" class="st7" d="M9966.2,10083.9c-0.3,0.3-2.2-1.2-4.9-1.3c-2.7-0.1-4.7,1.2-5,0.8
					c-0.1-0.2,0.2-0.7,1.1-1.3c1.2-0.8,2.6-1.1,4-1.1c1.4,0.1,2.7,0.5,3.8,1.4C9966.1,10083.2,9966.4,10083.8,9966.2,10083.9"/>
				<path id="Trazado_116727" class="st7" d="M9975,10105c0-0.2,1.7-0.4,4.4-0.6c0.7,0,1.3-0.2,1.5-0.6c0.1-0.7,0-1.4-0.4-2.1
					c-0.6-1.7-1.2-3.5-1.8-5.3c-2.5-7.6-4.3-13.8-4-13.9c0.3-0.1,2.6,6,5.1,13.5c0.6,1.9,1.2,3.6,1.7,5.3c0.4,0.8,0.5,1.8,0.2,2.7
					c-0.2,0.5-0.7,0.8-1.2,1c-0.4,0.1-0.8,0.1-1.2,0.1C9976.7,10105.2,9975,10105.1,9975,10105"/>
				<path id="Trazado_116728" class="st7" d="M9967.4,10075.5c-0.4,0.7-3-0.2-6.2-0.4c-3.2-0.3-5.8,0.2-6.1-0.5
					c-0.1-0.3,0.4-0.9,1.6-1.5c3.1-1.2,6.5-1,9.4,0.7C9967.1,10074.5,9967.6,10075.2,9967.4,10075.5"/>
				<path id="Trazado_116729" class="st7" d="M9993.1,10076.5c-0.6,0.6-2.8-0.1-5.4-0.2c-2.6-0.2-4.9,0.3-5.4-0.4
					c-0.2-0.3,0.2-0.9,1.1-1.5c1.4-0.7,2.9-1,4.4-0.9c1.5,0.1,3,0.5,4.3,1.3C9993,10075.5,9993.3,10076.2,9993.1,10076.5"/>
				<path id="Trazado_116730" class="st9" d="M9937.2,10092.7c-0.3-0.1-11.9-4.1-12,7.9c-0.1,12,11.9,9.6,12,9.3
					C9937.2,10109.5,9937.2,10092.7,9937.2,10092.7"/>
				<path id="Trazado_116731" class="st10" d="M9933.5,10105.3c-0.1,0-0.2,0.1-0.6,0.3c-0.5,0.2-1.1,0.2-1.6,0
					c-1.3-0.5-2.3-2.5-2.3-4.7c0-1,0.2-2,0.6-3c0.2-0.8,0.8-1.4,1.6-1.6c0.5-0.1,1,0.1,1.2,0.6c0.2,0.3,0.1,0.6,0.1,0.6
					c0,0,0.3-0.2,0.2-0.7c-0.1-0.3-0.2-0.6-0.5-0.8c-0.3-0.3-0.7-0.4-1.2-0.3c-1,0.2-1.8,0.9-2.2,1.8c-0.5,1-0.8,2.2-0.8,3.3
					c0.1,2.4,1.3,4.7,3,5.2c0.6,0.2,1.4,0.1,1.9-0.3C9933.5,10105.6,9933.6,10105.3,9933.5,10105.3"/>
				<path id="Trazado_116732" class="st7" d="M9966.6,10106.7c0.4,0,0.4,2.7,2.8,4.7c2.4,1.9,5.3,1.6,5.3,2c0,0.2-0.7,0.5-1.9,0.6
					c-1.6,0-3.2-0.5-4.4-1.5c-1.2-1-2-2.4-2.2-3.9C9966.1,10107.3,9966.4,10106.6,9966.6,10106.7"/>
				<path id="Trazado_116733" class="st7" d="M10020.9,10061c-0.2-0.7-0.7-1.3-1.3-1.7c-1.4-0.8-2.9-0.7-4.5-0.8
					c-3.8-0.1-7.6-1.1-10.9-2.9c1.2-0.6,2.3-1.3,3.3-2.2c2-1.9,3.1-4.9,2.2-7.5c-0.1-0.5-0.5-0.9-0.9-1.2c-0.8-0.2-1.5,0.5-2,1.1
					c-1.8,2-3.5,2.8-6.1,2.5c-1.6-0.1-3.2-0.6-4.5-1.4c-0.1-0.1-0.1-0.1-0.1-0.2c-0.6-0.7-1.2-1.3-1.8-1.9v0l0,0
					c-4.5-4.5-8.3-7.7-12.3-9.3c-5.8-2.4-15.6-3.5-21.7-2s-11.7,6.4-12.6,12.7c-3.4-2.9-8.5-3-12.7-1.3l-0.1,0
					c-4.7,1.6-7.4,6.5-8.8,11.2c-0.1,0.3-0.1,0.5-0.2,0.8c-1.6,2.5-3.8,4.6-6.3,6c-0.5,0.3-1,0.6-1,1.1c-0.1,0.5,0.4,0.9,0.8,1.2
					c1.1,0.8,2.4,1.4,3.7,1.6c-0.4,1.1-1,2.2-1.6,3.2c-0.5,0.9-1.2,1.9-0.7,2.9c0.4,0.7,1.2,1.1,2,0.9c0.8-0.2,1.5-0.5,2.2-1
					l-1.6,3.7c1.7,0.3,3.4,0.2,5.1-0.3c0.9,4.4,1.6,12.6,2.7,15.7c3.2,0.1,4-0.2,5.6,0.3c2.1,0.7,1.2,4.4,3.9,3.4
					c1.4-0.5,3.6-5.7,4-7.1c3.2-9.3,4.3-19.2,3.3-28.9c2-2,4.3-3.7,6.9-4.8l-0.2,0.2c4.9-1.6,10.5-3.3,15.1-0.9
					c3.6,1.8,5.7,5.6,8.3,8.6c5,5.7,10.8,8.8,18.4,9.2c0.6,5.3,0.7,14,0.9,18.9l4.3-9.8v0c0.3-0.6,0.6-1.2,0.9-1.7l0.1-0.2v0
					c0.4-1,0.9-1.9,1.4-2.8c0,0,0,0,0,0c2.6,2.4,6.6-1.2,4.6-4.1c-0.4-0.6-0.9-1.1-1.5-1.5c1.2,1.2,3,1.7,4.6,1.3
					c1.7-0.5,2.8-2,2.8-3.8c-0.1-1.2-0.9-2.2-1.9-2.6c2.2,0.2,4.4-0.3,6.3-1.3C10020,10063.7,10021.3,10062.6,10020.9,10061"/>
				<path id="Trazado_116734" class="st4" d="M9953,10048.5c-0.6,0.5-1.2,1-1.8,1.6c-1.4,1.7-2.4,3.7-2.8,5.8
					c-0.3,1.5-0.5,3-0.5,4.5c0,1.6,0.1,3.3,0.2,5.2c0.1,1.9,0.2,3.8,0.1,5.8c-0.1,1-0.2,2-0.4,3c-0.2,1.1-0.6,2.1-1.3,2.9
					c-0.6,0.7-1.6,1-2.5,0.8c-0.9-0.2-1.6-0.6-2.2-1.3c-0.9-1.3-1.5-2.9-1.6-4.5l0.4,0c-0.5,1.3-1.3,2.5-2.2,3.7
					c-0.9,1-2.1,1.7-3.4,1.8c-0.6,0.1-1.2-0.1-1.8-0.3c-0.5-0.3-0.9-0.7-1.2-1.2c-0.3-0.5-0.4-1-0.4-1.6c0-0.5,0.2-1,0.6-1.4
					l0.2,0.2c-1.1,1.2-2.4,2.1-3.8,2.8c-0.4,0.2-0.8,0.3-1.2,0.4c-0.1,0-0.3,0.1-0.4,0.1c0.1-0.1,0.3-0.1,0.4-0.2
					c0.3-0.1,0.7-0.3,1.1-0.5c1.4-0.7,2.7-1.6,3.7-2.8l0.2,0.2c-0.6,0.7-0.7,1.8-0.1,2.6c0.2,0.5,0.6,0.8,1.1,1.1
					c0.5,0.2,1.1,0.3,1.6,0.3c1.2-0.1,2.4-0.8,3.2-1.7c0.9-1.1,1.6-2.3,2.1-3.6l0.3-0.6l0.1,0.6c0.1,1.5,0.7,3,1.6,4.3
					c0.5,0.6,1.2,1,2,1.1c0.8,0.2,1.6-0.1,2.1-0.7c0.6-0.8,1-1.7,1.2-2.7c0.2-1,0.4-2,0.4-3c0.1-1.9,0.1-3.8,0-5.7
					c-0.1-1.8-0.2-3.6-0.1-5.2c0-1.5,0.2-3,0.6-4.5c0.4-2.2,1.4-4.2,2.9-5.8C9951.6,10049.4,9952.3,10048.9,9953,10048.5"/>
				<path id="Trazado_116735" class="st4" d="M10007.1,10066.2c0,0-0.1,0.1-0.1,0.1l-0.4,0.3c-0.2,0.2-0.5,0.3-0.7,0.5
					c-0.3,0.2-0.7,0.4-1.1,0.5c-2.4,1-5,1.5-7.5,1.3c-3.8-0.3-7.5-1.7-10.5-4c-3.7-2.9-6.7-6.5-9-10.6c-1.3-2.1-2.3-4.3-3.4-6.4
					c-1-2-2.3-3.8-3.9-5.4c-1.4-1.4-3.1-2.5-5-3.1c-0.9-0.3-1.8-0.4-2.7-0.3c-0.8,0-1.7,0.2-2.4,0.4c-2.4,0.8-4.5,2.5-5.7,4.7
					c-0.4,0.8-0.7,1.7-0.9,2.6c0-0.1,0-0.1,0-0.2c0-0.1,0.1-0.3,0.1-0.5c0.2-0.7,0.4-1.3,0.7-2c0.5-1,1.2-1.9,2-2.6
					c1.1-1,2.4-1.8,3.7-2.3c0.8-0.3,1.7-0.4,2.5-0.5c0.9,0,1.9,0.1,2.8,0.3c2,0.6,3.8,1.7,5.2,3.2c1.6,1.6,2.9,3.5,3.9,5.5
					c1.1,2,2.2,4.2,3.4,6.3c2.2,4.1,5.2,7.6,8.8,10.5c3,2.3,6.6,3.7,10.3,4c2.5,0.2,5.1-0.2,7.4-1.1
					C10005.4,10067.1,10006.3,10066.7,10007.1,10066.2"/>
				<path id="Trazado_116736" class="st4" d="M10008.7,10058.5c-0.2,0.2-0.4,0.3-0.6,0.4c-0.6,0.4-1.2,0.7-1.9,0.9
					c-1,0.4-1.9,0.7-3,0.9c-2.5,0.6-5.1,0.6-7.6,0.2c-1-0.2-2-0.5-3-0.8c-0.7-0.2-1.3-0.5-1.9-0.8c-0.2-0.1-0.5-0.2-0.7-0.4
					c0-0.1,1,0.4,2.7,1c1,0.3,2,0.5,3,0.7c1.2,0.2,2.5,0.3,3.7,0.3c1.2,0,2.5-0.2,3.7-0.4c1-0.2,2-0.5,2.9-0.8
					C10007.8,10059,10008.7,10058.4,10008.7,10058.5"/>
				<path id="Trazado_116737" class="st21" d="M10071.5,10155.9l-0.4,45.6c0,2.4-0.7,3.7-4.1,4.2c-4.2,0.5-5.5-0.2-6.1-1.4
					c-1.2-2.2-12.6-45.7-14.5-48.7C10044.5,10152.6,10071.5,10155.9,10071.5,10155.9"/>
				<path id="Trazado_116738" class="st22" d="M10071.4,10165.7l0.1-9.8c0,0-27.1-3.3-25.2-0.3c0.4,0.7,2.2,6.3,3.5,10.7
					L10071.4,10165.7z"/>
				<path id="Trazado_116739" class="st23" d="M10028.9,10140.2c-2.4,0-4.5,1.6-5,3.9c-0.4,1.7-0.6,3.5-0.6,5.3
					c-0.1,1.9,0.1,3.9,0.8,5.7c0.8,1.7,2.5,2.8,4.4,2.9c9.2,0.3,42.6,1.6,49.5,3.3c8.1,1.9,35.2,13.9,35.2,13.9l-5.2-60.9
					c0,0-24.9,20.2-40.7,23.3C10055.1,10140,10036.5,10140.2,10028.9,10140.2"/>
				<path id="Trazado_116740" class="st24" d="M10045.8,10158.7c3.4,0.2,7,0.3,10.6,0.6c-2.2-7.1-1.3-15.3-0.2-20.2
					c-3.5,0.3-7.1,0.6-10.6,0.7C10044.1,10146,10044.1,10152.5,10045.8,10158.7"/>
				<path id="Trazado_116741" class="st25" d="M10139.6,10142.7c0.2,22-10.3,40-23.4,40.1c-13.1,0.1-23.9-17.7-24-39.7
					c-0.2-22,10.3-40,23.4-40.1C10128.7,10102.9,10139.4,10120.7,10139.6,10142.7"/>
				<path id="Trazado_116742" class="st24" d="M10137.8,10142.7c0.1,18.7-8.8,34-19.9,34.1s-20.3-15-20.5-33.8
					c-0.1-18.7,8.8-34,19.9-34.1C10128.5,10108.9,10137.7,10124,10137.8,10142.7"/>
				<path id="Trazado_116743" class="st21" d="M10113.4,10146.2c0.5-6.7-3.9-12.4-9.8-12.8c-2-0.1-3.9,0.4-5.6,1.4
					c-0.4,2.8-0.6,5.5-0.6,8.3c0,4.7,0.7,9.3,1.9,13.9c0.8,0.3,1.7,0.5,2.5,0.6C10107.8,10157.9,10112.9,10152.8,10113.4,10146.2"/>
				<path id="Trazado_116744" class="st23" d="M10154.5,10127.9c0.2,0.6-1.8,2-4.6,3c-2.8,1-5.2,1.3-5.4,0.7c-0.2-0.6,1.8-2,4.6-3
					C10151.8,10127.6,10154.2,10127.3,10154.5,10127.9"/>
				<path id="Trazado_116745" class="st23" d="M10149.4,10115.4c0.3,0.6-1.7,2.1-4.4,3.2s-5.1,1.6-5.4,1c-0.3-0.6,1.7-2.1,4.4-3.2
					S10149.2,10114.8,10149.4,10115.4"/>
				<path id="Trazado_116746" class="st23" d="M10153.2,10161.2c-0.2,0.6-2.6,0.4-5.5-0.4c-2.8-0.9-4.9-2.1-4.7-2.7
					c0.2-0.6,2.6-0.4,5.5,0.4C10151.2,10159.3,10153.3,10160.5,10153.2,10161.2"/>
				<path id="Trazado_116747" class="st23" d="M10148,10174.7c-0.2,0.6-2.7,0.2-5.4-0.9c-2.7-1.1-4.8-2.5-4.5-3.1
					c0.2-0.6,2.7-0.2,5.4,0.9C10146.3,10172.7,10148.3,10174.1,10148,10174.7"/>
				<path id="Trazado_116748" class="st23" d="M10156,10144.7c0,0.7-2.5,1.1-5.4,0.9c-2.9-0.2-5.3-0.8-5.3-1.5
					c0-0.7,2.5-1.1,5.4-0.9C10153.7,10143.4,10156,10144,10156,10144.7"/>
				<path id="Trazado_116749" class="st9" d="M9918.4,10216c0,0,64.2,40.7,73.7,41.5c20.5,1.6,58.8-53.6,58.8-53.6l-12.4-14.7
					c0,0-42.7,32.7-45.8,32.4c-6.1-0.5-49.4-32.6-49.4-32.6L9918.4,10216z"/>
				<path id="Trazado_116750" class="st9" d="M10037.8,10189.5c0,0,4.3-13.7,6.7-15.8c0.9-0.8,2.2-1.9,3.4-3c2.4-2.2,6-2.6,8.8-1
					l1.7,1c0,0,4-1.8,5.3-0.4c1.3,1.6,2.4,3.3,3.4,5c1.8,0.3,3.5,0.9,4.9,2c0.9,0.6,1.7,1.4,2.4,2.2c0,0,3.4,1.1,4.3,3.6l0.9,2.5
					c0,0,3,2.5,2.6,5.3s-1.3,1.8-1.3,1.8l-3-0.1c0,0-18.3,10.2-22,10.8c-2,0.4-4,0.6-6.1,0.5L10037.8,10189.5z"/>
				<path id="Trazado_116751" class="st10" d="M10081.9,10192.9c-0.4-0.1-0.7-0.2-1.1-0.2c-1.1,0-2.2,0.1-3.3,0.3l0,0
					c-2.3,1.4-5.7,3.3-10.1,5.6c-2.2,1.1-4.5,2.4-7.2,3.6c-0.7,0.3-1.4,0.6-2.1,0.8c-0.7,0.2-1.5,0.3-2.3,0.4
					c-1.5,0.2-3.1,0.5-4.8,0.6l0.2-0.1c-4.6,6.1-9.9,13.1-15.8,20.2c-5.2,6.3-10.4,12.1-15.4,17c-2.5,2.5-5,4.8-7.3,6.9
					c-2.2,1.9-4.6,3.6-7.1,5.1c-2,1.3-4.2,2.4-6.4,3.3c-1.7,0.7-3.5,1.1-5.3,1.3c-1.2,0.1-2.3,0-3.4-0.3c-0.3-0.1-0.6-0.2-0.8-0.3
					c-0.1,0-0.2-0.1-0.3-0.1c1.4,0.6,3,0.8,4.5,0.6c1.8-0.2,3.5-0.7,5.2-1.4c2.2-0.9,4.3-2.1,6.3-3.4c2.5-1.5,4.8-3.2,7-5.1
					c2.3-2.1,4.8-4.4,7.3-6.9c5-5,10.1-10.8,15.3-17c5.9-7.1,11.2-14.1,15.8-20.2l0.1-0.1l0.1,0c1.6-0.2,3.2-0.4,4.7-0.6
					c0.8-0.1,1.5-0.2,2.2-0.4c0.7-0.2,1.4-0.4,2-0.7c2.6-1.1,5-2.4,7.2-3.5c4.3-2.3,7.8-4.2,10.1-5.5l0,0h0c1.1-0.2,2.2-0.2,3.3-0.2
					c0.3,0,0.6,0.1,0.8,0.2C10081.7,10192.8,10081.8,10192.8,10081.9,10192.9"/>
				<path id="Trazado_116752" class="st10" d="M10067.2,10175.3c-0.5-0.6-1-1.2-1.4-1.9c-0.4-0.6-0.9-1.3-1.5-2.1
					c-0.6-0.8-1.6-1.3-2.6-1.1c-1,0-2.1,0.2-3.1,0.4c-0.8,0.2-1.6,0.5-2.3,1c-0.5,0.4-0.9,0.7-1.4,1c-0.4,0.2-0.6,0.3-0.6,0.2
					c0-0.1,0.7-0.5,1.8-1.6c0.7-0.6,1.5-1,2.4-1.2c1-0.3,2.1-0.5,3.2-0.5c1.2-0.1,2.3,0.4,3,1.4c0.6,0.8,1.1,1.5,1.4,2.2
					C10066.6,10173.8,10066.9,10174.5,10067.2,10175.3"/>
				<path id="Trazado_116753" class="st10" d="M10069.3,10175.9c-0.1,0.2-1.5-0.3-3.3-0.2c-1.8,0.1-3.2,0.8-3.3,0.6
					C10064.6,10175,10067.2,10174.8,10069.3,10175.9"/>
				<path id="Trazado_116754" class="st10" d="M10078.2,10182.1c-0.1,0-0.4-0.5-1.1-1.1c-1-0.7-2.1-1.1-3.4-1.2
					c-1.2,0-2.5,0.1-3.7,0.4c-0.5,0.2-1,0.2-1.6,0.3c0.4-0.3,0.9-0.5,1.5-0.6c1.2-0.4,2.5-0.6,3.8-0.6c1.3,0,2.6,0.6,3.6,1.4
					C10078.1,10181.4,10078.2,10182.1,10078.2,10182.1"/>
				<path id="Trazado_116755" class="st10" d="M10080.3,10186.3c-0.1,0-0.2-0.3-0.5-0.7c-0.5-0.5-1.1-0.7-1.8-0.8
					c-0.7,0-1.4,0.1-2.1,0.4c-0.5,0.2-0.9,0.3-0.9,0.2s0.3-0.3,0.8-0.5c0.7-0.4,1.4-0.6,2.2-0.6c0.8,0,1.6,0.4,2.1,1.1
					C10080.4,10185.8,10080.4,10186.3,10080.3,10186.3"/>
				<path id="Trazado_116756" class="st10" d="M9993.4,10235.4c-0.2,0,0-3.1-0.1-6.9c-0.1-3.8-0.4-6.9-0.2-6.9
					c0.5,2.3,0.8,4.6,0.7,6.9C9993.9,10230.8,9993.8,10233.2,9993.4,10235.4"/>
				<path id="Trazado_116757" class="st10" d="M10049.6,10169.5c0,0-0.4,0.2-1.1,0.8c-1,0.8-1.9,1.6-2.7,2.6
					c-2.1,2.3-3.4,6.6-5.3,11l-2.4,5.7l0,0.1l-0.1,0c-2.6,2-4.9,3.8-6.5,5l-1.9,1.4c-0.2,0.2-0.5,0.3-0.7,0.5
					c0.2-0.2,0.4-0.4,0.6-0.6l1.8-1.5c1.6-1.3,3.8-3.1,6.4-5.1l-0.1,0.1l2.3-5.7c0.9-2.2,1.8-4.3,2.6-6.3c0.7-1.7,1.7-3.4,2.9-4.8
					C10047.6,10170.2,10049.5,10169.4,10049.6,10169.5"/>
				<path id="Trazado_116758" class="st11" d="M9892.1,10199c6.4,7.7,25.7,20.9,43.6,33.5l31.1-30.8c0,0-38.9-39.6-49.3-41.7
					C9908.5,10158.1,9885.6,10158.3,9892.1,10199"/>
				<path id="Trazado_116759" class="st7" d="M9897,10203.9c0.3,0.1,0.5,0.3,0.8,0.5l2.1,1.5l8,5.8l28.1,20.6l-0.4,0
					c7.9-7.8,16.9-16.7,26.4-26.2l4.7-4.7v0.5c-7.8-7.8-15.6-14.7-22.5-21.1c-3.5-3.2-6.7-6.3-9.6-9.3c-2.7-2.7-5.7-5.1-9-7.2
					c-2.6-1.8-5.4-3.2-8.4-4.2c-2.3-0.7-4.7-0.8-7-0.5c-1.5,0.2-2.9,0.7-4.2,1.4c-0.9,0.5-1.3,0.8-1.3,0.8c0.4-0.4,0.8-0.7,1.3-0.9
					c1.3-0.8,2.7-1.3,4.2-1.6c2.4-0.4,4.8-0.3,7.2,0.4c3.1,0.9,6,2.3,8.6,4.1c3.3,2.1,6.3,4.5,9.1,7.2c3,2.9,6.2,6,9.7,9.2
					c6.9,6.4,14.7,13.3,22.6,21.1l0.3,0.3l-0.3,0.3c-1.5,1.5-3.1,3.1-4.7,4.7c-9.5,9.4-18.5,18.3-26.4,26.1l-0.2,0.2l-0.2-0.2
					c-11.4-8.5-21.1-15.7-27.9-20.8l-7.9-5.9l-2.1-1.6C9897.4,10204.3,9897.2,10204.1,9897,10203.9"/>
			</g>
		</g>
	</g>
	<path id="Trazado_131401" class="st26" d="M0,0h1030v628.3H0V0z"/>
</g>
</svg>
