<svg xmlns="http://www.w3.org/2000/svg" width="126.666" height="127.37" viewBox="0 0 126.666 127.37">
  <g id="Grupo_156628" data-name="Grupo 156628" transform="translate(6399 6571)">
    <ellipse id="Elipse_4762" data-name="Elipse 4762" cx="63.333" cy="63.685" rx="63.333" ry="63.685" transform="translate(-6399 -6571)" fill="#b0c8cb"/>
    <g id="Grupo_156595" data-name="Grupo 156595" transform="translate(-6379.986 -6549.072)">
      <path id="Trazado_127053" data-name="Trazado 127053" d="M16.2,125.191c.583.13.719-.145.713-.69-.015-1.365.008-1.39,1.422-1.381.526,0,.689-.16.679-.68-.01-.485-.1-.71-.658-.708-1.417.005-1.454-.023-1.438-1.438.007-.64-.307-.652-.782-.657s-.72.074-.72.643c0,1.433-.029,1.458-1.428,1.453-.541,0-.669.193-.671.7s.127.7.668.692c1.427-.008,1.461.019,1.429,1.37-.015.627.217.811.786.7" transform="translate(68.115 -69.526)" fill="#29c4bb"/>
      <path id="Trazado_127054" data-name="Trazado 127054" d="M214.1,151.167c-.522-.1-.811.073-.725.664.072.495-.1.77-.647.685s-.732.113-.736.69c0,.6.242.743.757.674.492-.067.648.148.638.637-.015.766.459,1.061,1.2.829.352-.11.275-.391.252-.613-.062-.606.077-.977.792-.856.553.094.587-.253.586-.678s-.018-.768-.58-.681c-.605.093-.891-.128-.791-.767.1-.611-.3-.637-.747-.584" transform="translate(-211.994 -86.408)" fill="#29c4bb"/>
      <path id="Trazado_127055" data-name="Trazado 127055" d="M207.488,69.733c-.135.582.131.782.678.69.591-.1.833.143.728.731-.1.569.145.7.7.71.569.005.783-.163.684-.716-.106-.589.14-.832.725-.722.606.114.659-.2.682-.713.027-.6-.206-.755-.727-.664-.567.1-.778-.136-.682-.69.092-.53-.079-.744-.669-.723-.52.019-.821.092-.71.689s-.148.821-.729.723c-.547-.092-.812.1-.676.686" transform="translate(-203.227 -59.559)" fill="#010000"/>
      <path id="Trazado_127056" data-name="Trazado 127056" d="M51.812,187.111c-.127.543.141.743.684.645.638-.115.789.217.7.754-.1.6.188.69.713.687.5,0,.771-.117.666-.657-.138-.71.217-.884.828-.78.628.107.6-.289.6-.719s-.009-.77-.576-.658c-.763.151-.957-.215-.854-.9.1-.653-.4-.465-.732-.485-.352-.021-.744-.066-.642.5.127.7-.119,1.025-.86.883-.619-.119-.543.313-.525.727" transform="translate(15.08 -104.107)" fill="#010000"/>
      <path id="Trazado_127057" data-name="Trazado 127057" d="M125.962,17.885c.146-.62-.2-.741-.7-.666-.527.078-.735-.14-.655-.659s-.074-.755-.671-.743c-.549.011-.8.153-.7.717s-.169.766-.711.685c-.5-.075-.754.045-.757.659,0,.629.234.8.781.71.579-.092.775.171.685.711-.1.606.225.676.734.686.545.011.723-.194.642-.694-.088-.548.115-.8.687-.7s.8-.136.672-.7" transform="translate(-84.119 -15.817)" fill="#29c4bb"/>
    </g>
    <g id="layer1" transform="translate(-6371.573 -6822.133)">
      <path id="path11392" d="M3.075,284.565H64.668a2.276,2.276,0,0,1,2.281,2.281v41.062a2.276,2.276,0,0,1-2.281,2.281H3.075a2.276,2.276,0,0,1-2.281-2.281V286.846a2.276,2.276,0,0,1,2.281-2.281Z" transform="translate(0.879 13.152)" fill="#29c4bb"/>
      <path id="rect11394" d="M1.852,295.148h55.89v4.562H1.852Z" transform="translate(4.384 48.192)" fill="#b4eae7"/>
      <path id="path11396" d="M1.852,285.623H47.477v36.5H1.852Z" transform="translate(4.384 16.655)" fill="#dbe9ee"/>
      <g id="Grupo_156644" data-name="Grupo 156644" transform="translate(30.189 293.151)">
        <path id="circle11398" d="M20.338,289.574a3.422,3.422,0,1,1-3.422-3.422A3.422,3.422,0,0,1,20.338,289.574Z" transform="translate(12.741 -274.744)" fill="#ffbc42"/>
        <path id="circle11400" d="M20.338,292.749a3.422,3.422,0,1,1-3.422-3.422A3.422,3.422,0,0,1,20.338,292.749Z" transform="translate(12.741 -264.232)" fill="#ffbc42"/>
        <path id="path11402" d="M11.971,283.506a4.563,4.563,0,0,0-4.562,4.563h9.125a4.562,4.562,0,0,0-4.562-4.562Z" transform="translate(-7.408 -283.506)" fill="#ffbc42"/>
      </g>
      <path id="path3064-0" d="M18.771,280.593a1.141,1.141,0,0,0-.8,1.958L30,294.577a5.677,5.677,0,0,0-.838,1.994H3.957A3.451,3.451,0,0,0,.528,300a1.142,1.142,0,1,0,2.283,0,1.123,1.123,0,0,1,1.145-1.147H65.548A1.116,1.116,0,0,1,66.684,300v36.5a1.141,1.141,0,0,0,2.281,0V300a3.442,3.442,0,0,0-3.417-3.428H40.339a5.674,5.674,0,0,0-.838-1.994l12.026-12.025a1.141,1.141,0,1,0-1.613-1.613L37.888,292.964a5.637,5.637,0,0,0-6.273,0L19.589,280.939a1.14,1.14,0,0,0-.818-.345Zm15.98,13.7a3.393,3.393,0,0,1,3.215,2.279H31.536A3.393,3.393,0,0,1,34.751,294.292ZM6.238,301.136a1.141,1.141,0,0,0-1.145,1.145v36.491a1.141,1.141,0,0,0,1.145,1.145H51.856A1.141,1.141,0,0,0,53,338.772V302.281a1.141,1.141,0,0,0-1.145-1.145ZM1.658,303.4a1.141,1.141,0,0,0-1.129,1.154v36.5a3.451,3.451,0,0,0,3.429,3.428H5.093V347.9a1.141,1.141,0,0,0,1.145,1.145H62.13a1.141,1.141,0,1,0,0-2.281H7.374v-2.281H65.548a3.442,3.442,0,0,0,3.417-3.428,1.141,1.141,0,1,0-2.282,0,1.115,1.115,0,0,1-1.136,1.147H3.957a1.123,1.123,0,0,1-1.145-1.147v-36.5A1.141,1.141,0,0,0,1.658,303.4Zm5.716.017H50.72v34.218H7.374Zm52.473,0a4.564,4.564,0,1,0,4.565,4.565,4.582,4.582,0,0,0-4.565-4.565Zm0,2.281a2.282,2.282,0,1,1-2.281,2.284A2.268,2.268,0,0,1,59.847,305.7Zm-49.062,7.967a1.141,1.141,0,0,0-1.127,1.161v2.284a1.141,1.141,0,1,0,2.281,0v-2.283a1.141,1.141,0,0,0-1.154-1.161Zm49.062,3.444a4.559,4.559,0,1,0,4.565,4.554,4.572,4.572,0,0,0-4.565-4.554Zm0,2.281a2.277,2.277,0,1,1-2.281,2.272A2.259,2.259,0,0,1,59.847,319.389Zm-49.062,1.118a1.14,1.14,0,0,0-1.127,1.154V333.07a1.141,1.141,0,1,0,2.281,0V321.662a1.141,1.141,0,0,0-1.154-1.154Z" transform="translate(0)"/>
    </g>
  </g>
</svg>
