<svg xmlns="http://www.w3.org/2000/svg" width="86" height="86" viewBox="0 0 86 86">
  <g id="Grupo_157892" data-name="Grupo 157892" transform="translate(8568 4231)">
    <g id="desarrollo-de-software" transform="translate(-8557 -4220)">
      <ellipse id="Elipse_4855" data-name="Elipse 4855" cx="2.193" cy="1.645" rx="2.193" ry="1.645" transform="translate(11.869 3.474)" fill="#46ccff"/>
      <ellipse id="Elipse_4856" data-name="Elipse 4856" cx="2.193" cy="1.645" rx="2.193" ry="1.645" transform="translate(48.056 3.474)" fill="#46ccff"/>
      <path id="Trazado_128951" data-name="Trazado 128951" d="M26,48H38.138V58.115H26Z" transform="translate(0.276 0.529)" fill="#323232"/>
      <path id="Trazado_128952" data-name="Trazado 128952" d="M15,57H49.391v4.046H15Z" transform="translate(0.149 0.632)" fill="#29c4bb"/>
      <path id="Trazado_128953" data-name="Trazado 128953" d="M3,11H61.666V49.437H3Z" transform="translate(0.011 0.103)" fill="#fff"/>
      <path id="Trazado_128954" data-name="Trazado 128954" d="M3,45H61.666v4.046H3Z" transform="translate(0.011 0.494)" fill="#29c4bb"/>
      <g id="Grupo_157065" data-name="Grupo 157065" transform="translate(7.483 21.218)">
        <circle id="Elipse_4857" data-name="Elipse 4857" cx="1.645" cy="1.645" r="1.645" transform="translate(0 7.477)" fill="#fee734"/>
        <ellipse id="Elipse_4858" data-name="Elipse 4858" cx="2.193" cy="1.645" rx="2.193" ry="1.645" transform="translate(46.056 7.477)" fill="#fee734"/>
        <path id="Trazado_128955" data-name="Trazado 128955" d="M41.207,32.126V28.08H38.891a6.848,6.848,0,0,0-.556-1.345L39.973,25.1l-2.812-2.863-1.639,1.639a6.848,6.848,0,0,0-1.4-.556V21H30.08v2.316a6.848,6.848,0,0,0-1.345.556L27.1,22.234,24.234,25.1l1.639,1.639a6.848,6.848,0,0,0-.556,1.345H23v4.046h2.316a6.848,6.848,0,0,0,.556,1.345l-1.639,1.689L27.1,38.023l1.639-1.639a6.848,6.848,0,0,0,1.345.556v2.266h4.046V36.891a6.847,6.847,0,0,0,1.345-.556l1.689,1.639,2.812-2.812-1.639-1.639a6.848,6.848,0,0,0,.556-1.4Z" transform="translate(-7.241 -21)" fill="#fee734"/>
      </g>
      <circle id="Elipse_4859" data-name="Elipse 4859" cx="2.741" cy="2.741" r="2.741" transform="translate(29.414 27.599)" fill="#ffd6ba"/>
      <path id="Trazado_128956" data-name="Trazado 128956" d="M61.678,10.092H38.414V6.046H47.7a3.034,3.034,0,1,0,0-2.023H37.4a1.011,1.011,0,0,0-1.011,1.011v5.057H28.3V5.034a1.011,1.011,0,0,0-1.011-1.011H16.99a3.034,3.034,0,1,0,0,2.023h9.285v4.046H3.011A1.011,1.011,0,0,0,2,11.1V49.54a1.011,1.011,0,0,0,1.011,1.011H25.264v6.069H15.149a1.011,1.011,0,0,0-1.011,1.011v4.046a1.011,1.011,0,0,0,1.011,1.011H49.54a1.011,1.011,0,0,0,1.011-1.011V57.632a1.011,1.011,0,0,0-1.011-1.011H39.425V50.552H61.678a1.011,1.011,0,0,0,1.011-1.011V11.1A1.011,1.011,0,0,0,61.678,10.092ZM50.552,4.023A1.011,1.011,0,1,1,49.54,5.034,1.011,1.011,0,0,1,50.552,4.023ZM14.138,6.046a1.011,1.011,0,1,1,1.011-1.011A1.011,1.011,0,0,1,14.138,6.046Zm22.253,6.069v9.872l-.89.88-.121-.051v-1.6a1.011,1.011,0,0,0-1.011-1.011H30.322a1.011,1.011,0,0,0-1.011,1.011v1.6l-.121.051-.89-.88V12.115Zm1.295,15.324a5.867,5.867,0,0,1,.475,1.153,1.011,1.011,0,0,0,1.011.718h1.264v2.023h-1.3a1.011,1.011,0,0,0-1.011.718,5.867,5.867,0,0,1-.475,1.153,1.011,1.011,0,0,0,.212,1.163l.92.92L37.4,36.755l-1.011-.92a1.011,1.011,0,0,0-1.2-.172,5.867,5.867,0,0,1-1.153.475,1.011,1.011,0,0,0-.718,1.011v1.264H31.333v-1.3a1.011,1.011,0,0,0-.718-1.011,5.867,5.867,0,0,1-1.153-.475,1.011,1.011,0,0,0-1.2.172l-.92.92-1.426-1.335.92-.92a1.011,1.011,0,0,0,.172-1.2,5.867,5.867,0,0,1-.475-1.153,1.011,1.011,0,0,0-1.011-.718H24.253V29.31h1.3a1.011,1.011,0,0,0,1.011-.718,5.866,5.866,0,0,1,.475-1.153,1.011,1.011,0,0,0-.212-1.163l-.92-.92,1.426-1.426.92.92a1.011,1.011,0,0,0,1.2.172,5.867,5.867,0,0,1,1.153-.475,1.011,1.011,0,0,0,.718-1.011v-1.3h2.023v1.3a1.011,1.011,0,0,0,.718,1.011,5.866,5.866,0,0,1,1.153.475,1.011,1.011,0,0,0,1.163-.212l.92-.92,1.426,1.426-.92.92a1.012,1.012,0,0,0-.131,1.2ZM26.276,12.115v9.973L23.757,24.6a1.011,1.011,0,0,0,0,1.436l1.133,1.133a.617.617,0,0,1-.051.121h-1.6A1.011,1.011,0,0,0,22.23,28.3V29.31h-10.3a3.034,3.034,0,1,0,0,2.023h10.3v1.011a1.011,1.011,0,0,0,1.011,1.011h1.6a.617.617,0,0,1,.051.121L23.757,34.61a1.011,1.011,0,0,0-.293.718,1.062,1.062,0,0,0,.293.718l2.863,2.863a1.011,1.011,0,0,0,1.436,0l1.133-1.133.121.051v1.6a1.011,1.011,0,0,0,1.011,1.011h4.046a1.011,1.011,0,0,0,1.011-1.011v-1.6l.121-.051,1.133,1.133a1.011,1.011,0,0,0,1.436,0l2.863-2.863a1.062,1.062,0,0,0,.293-.718,1.012,1.012,0,0,0-.293-.718L39.8,33.478a.617.617,0,0,1,.051-.121h1.6a1.011,1.011,0,0,0,1.011-1.011V31.333h10.3a3.034,3.034,0,1,0,0-2.023H42.46V28.3a1.011,1.011,0,0,0-1.011-1.011h-1.6a.617.617,0,0,1-.051-.121l1.133-1.133a1.011,1.011,0,0,0,0-1.436l-2.519-2.508V12.115H60.666V44.483H4.023V12.115ZM10.092,30.322A1.011,1.011,0,1,1,9.08,29.31,1.011,1.011,0,0,1,10.092,30.322Zm44.506,0a1.011,1.011,0,1,1,1.011,1.011A1.011,1.011,0,0,1,54.6,30.322ZM48.529,60.666H16.161V58.644H48.529ZM37.4,56.621H27.287V50.552H37.4ZM4.023,48.529V46.506H60.666v2.023Z"/>
      <path id="Trazado_128957" data-name="Trazado 128957" d="M32.046,26a4.046,4.046,0,1,0,4.046,4.046A4.046,4.046,0,0,0,32.046,26Zm0,6.069a2.023,2.023,0,1,1,2.023-2.023A2.023,2.023,0,0,1,32.046,32.069Z" transform="translate(0.299 0.276)"/>
      <path id="Trazado_128958" data-name="Trazado 128958" d="M7.011,16.023h5.057v8.092a1.011,1.011,0,0,0,1.011,1.011h6.069a1.011,1.011,0,1,0,0-2.023H14.092V15.011A1.011,1.011,0,0,0,13.08,14H7.011a1.011,1.011,0,1,0,0,2.023Z" transform="translate(0.046 0.138)"/>
      <path id="Trazado_128959" data-name="Trazado 128959" d="M57.149,14H51.08a1.011,1.011,0,0,0-1.011,1.011V23.1H45.011a1.011,1.011,0,0,0,0,2.023H51.08a1.011,1.011,0,0,0,1.011-1.011V16.023h5.057a1.011,1.011,0,0,0,0-2.023Z" transform="translate(0.483 0.138)"/>
    </g>
    <rect id="Rectángulo_38058" data-name="Rectángulo 38058" width="86" height="86" transform="translate(-8568 -4231)" fill="none"/>
  </g>
</svg>
