<svg xmlns="http://www.w3.org/2000/svg" width="145" height="145" viewBox="0 0 145 145">
  <g id="Grupo_156666" data-name="Grupo 156666" transform="translate(-1171 -5097)">
    <path id="Trazado_127721" data-name="Trazado 127721" d="M72.5,0A72.5,72.5,0,1,1,0,72.5,72.5,72.5,0,0,1,72.5,0Z" transform="translate(1171 5097)" fill="#fff"/>
    <g id="Grupo_156593" data-name="Grupo 156593" transform="translate(1193.586 5120.435)">
      <path id="Trazado_127053" data-name="Trazado 127053" d="M16.525,125.968c-.665.148-.819-.165-.812-.786.017-1.556-.01-1.584-1.621-1.574-.6,0-.786-.182-.774-.775.011-.553.112-.81.75-.807,1.616.006,1.657-.026,1.64-1.639-.008-.73.35-.743.891-.749s.821.085.821.733c0,1.633.033,1.662,1.628,1.656.617,0,.763.22.764.793s-.145.793-.762.789c-1.626-.009-1.665.021-1.629,1.562.017.715-.247.924-.9.8" transform="translate(-13.318 -62.516)" fill="#29c4bb"/>
      <path id="Trazado_127054" data-name="Trazado 127054" d="M214.408,151.171c.6-.114.925.083.827.757-.082.564.113.878.737.781s.834.129.839.786c0,.689-.276.847-.863.768-.561-.076-.738.168-.727.726.018.874-.523,1.209-1.368.945-.4-.126-.313-.446-.288-.7.07-.691-.087-1.113-.9-.975-.631.107-.67-.288-.668-.773s.02-.876.661-.777c.69.106,1.016-.146.9-.874-.109-.7.337-.727.852-.665" transform="translate(-117.493 -77.353)" fill="#29c4bb"/>
      <path id="Trazado_127055" data-name="Trazado 127055" d="M212.236,70.027c.154.664-.15.891-.773.786-.674-.114-.949.163-.83.833.115.648-.165.8-.793.809-.648.006-.892-.185-.779-.816.121-.672-.16-.948-.827-.823-.691.13-.752-.232-.778-.813-.031-.683.234-.861.829-.757.646.113.887-.155.777-.786-.105-.6.09-.848.763-.824.593.021.936.105.809.785s.168.936.831.824c.623-.1.926.118.771.782" transform="translate(-114.553 -39.389)" fill="#010000"/>
      <path id="Trazado_127056" data-name="Trazado 127056" d="M56.555,187.408c.145.619-.16.847-.78.735-.727-.132-.9.247-.795.859.116.681-.214.787-.812.783-.572,0-.879-.133-.759-.749.158-.81-.247-1.008-.944-.889-.715.122-.682-.329-.684-.819,0-.475.01-.878.656-.75.869.172,1.091-.245.974-1.023-.112-.745.455-.53.834-.553.4-.024.848-.076.731.57-.145.8.135,1.169.981,1.007.706-.135.619.357.6.829" transform="translate(-33.486 -92.792)" fill="#010000"/>
      <path id="Trazado_127057" data-name="Trazado 127057" d="M121.8,18.174c-.166-.707.225-.844.8-.759.6.089.837-.159.746-.751s.084-.861.765-.847c.626.013.912.175.8.817-.111.659.193.873.811.781.573-.086.859.051.863.751,0,.716-.267.909-.891.809-.66-.105-.883.2-.781.811.115.691-.256.77-.837.782-.621.013-.824-.221-.732-.791.1-.625-.131-.91-.783-.8-.636.106-.908-.156-.766-.8" transform="translate(-70.176 -15.816)" fill="#29c4bb"/>
    </g>
    <g id="idea-genial" transform="translate(1201.436 5129)">
      <g id="Grupo_156788" data-name="Grupo 156788" transform="translate(2.325 2.324)">
        <g id="Grupo_156768" data-name="Grupo 156768" transform="translate(52.986 60.935)">
          <path id="Trazado_128784" data-name="Trazado 128784" d="M49.948,51.7a16.223,16.223,0,0,1,3.06-1.656L57.9,48a14,14,0,0,1,10.6,13.578v4.967H42a17.773,17.773,0,0,1,3.232-10.24A17.553,17.553,0,0,1,49.948,51.7Z" transform="translate(-42 -48)" fill="#e6e9ed"/>
        </g>
        <g id="Grupo_156769" data-name="Grupo 156769" transform="translate(23.301 62.657)">
          <path id="Trazado_128785" data-name="Trazado 128785" d="M52.508,55.884a17.773,17.773,0,0,0-3.232,10.24H22.782A17.8,17.8,0,0,0,19.59,55.937a15.021,15.021,0,0,1,4.65-4.8A14.727,14.727,0,0,1,28.465,49.3L30.73,59.5l5.3-5.3,5.3,5.3,2.265-10.2a14.53,14.53,0,0,1,4.146,1.8,14.7,14.7,0,0,1,4.623,4.676Z" transform="translate(-19.59 -49.3)" fill="#4fc1e9"/>
        </g>
        <g id="Grupo_156770" data-name="Grupo 156770" transform="translate(39.74 62.246)">
          <path id="Trazado_128786" data-name="Trazado 128786" d="M39.564,49.4,37.3,59.6,32,54.3l5.3-5.312A13.959,13.959,0,0,1,39.564,49.4Z" transform="translate(-32 -48.99)" fill="#3bafda"/>
        </g>
        <g id="Grupo_156771" data-name="Grupo 156771" transform="translate(32.176 62.246)">
          <path id="Trazado_128787" data-name="Trazado 128787" d="M28.555,48.99l5.3,5.312-5.3,5.3L26.29,49.4a13.959,13.959,0,0,1,2.265-.411Z" transform="translate(-26.29 -48.99)" fill="#3bafda"/>
        </g>
        <g id="Grupo_156772" data-name="Grupo 156772" transform="translate(0 60.935)">
          <path id="Trazado_128788" data-name="Trazado 128788" d="M9.948,66.545H2V61.578A14.013,14.013,0,0,1,12.6,48l1.325,5.3,6.623,3.974,2.013-4.014a16.968,16.968,0,0,1,2.742,3.1,17.8,17.8,0,0,1,3.192,10.187Z" transform="translate(-2 -48)" fill="#1169e3"/>
        </g>
        <g id="Grupo_156773" data-name="Grupo 156773" transform="translate(10.597 60.935)">
          <path id="Trazado_128789" data-name="Trazado 128789" d="M17.948,51.7a14.15,14.15,0,0,1,2.013,1.563l-2.013,4.014L11.325,53.3,10,48l4.888,2.04A16.223,16.223,0,0,1,17.948,51.7Z" transform="translate(-10 -48)" fill="#1169e3"/>
        </g>
        <g id="Grupo_156774" data-name="Grupo 156774" transform="translate(0 37.091)">
          <path id="Trazado_128790" data-name="Trazado 128790" d="M12.6,43.247V49.87l-1.55-.768A16.409,16.409,0,0,1,2,34.451V30H12.6v6.623a2.657,2.657,0,0,0-2.649,2.649V39.5a2.657,2.657,0,0,0,.782,1.881Z" transform="translate(-2 -30)" fill="#656d78"/>
        </g>
        <g id="Grupo_156775" data-name="Grupo 156775" transform="translate(68.882 37.091)">
          <path id="Trazado_128791" data-name="Trazado 128791" d="M64.6,30v4.451A16.409,16.409,0,0,1,55.55,49.1L54,49.87V43.247l1.868-1.868a2.657,2.657,0,0,0,.782-1.881v-.225A2.657,2.657,0,0,0,54,36.623V30Z" transform="translate(-54 -30)" fill="#fcd770"/>
        </g>
        <g id="Grupo_156776" data-name="Grupo 156776" transform="translate(52.986 37.091)">
          <path id="Trazado_128792" data-name="Trazado 128792" d="M49.948,49.87h-.782a4.523,4.523,0,0,1-4.517-4.517V41.922l-.768-.384A3.4,3.4,0,0,1,42,38.5a3.252,3.252,0,0,1,.172-1.073L44.649,30H57.9v6.623a2.657,2.657,0,0,1,2.649,2.649V39.5a2.657,2.657,0,0,1-.782,1.881L57.9,43.247v10.6l-4.888,2.04a16.222,16.222,0,0,0-3.06,1.656Z" transform="translate(-42 -30)" fill="#f0d0b4"/>
        </g>
        <g id="Grupo_156777" data-name="Grupo 156777" transform="translate(34.441 58.272)">
          <path id="Trazado_128793" data-name="Trazado 128793" d="M37.273,45.99,38.6,49.964l-5.3,5.312L28,49.964l1.325-3.974Z" transform="translate(-28 -45.99)" fill="#f0d0b4"/>
        </g>
        <g id="Grupo_156778" data-name="Grupo 156778" transform="translate(29.143 37.091)">
          <path id="Trazado_128794" data-name="Trazado 128794" d="M45.195,38.5v6.054a6.626,6.626,0,0,1-6.623,6.623H30.623A6.626,6.626,0,0,1,24,44.558V30H45.195Z" transform="translate(-24 -30)" fill="#f0d0b4"/>
        </g>
        <g id="Grupo_156779" data-name="Grupo 156779" transform="translate(7.948 37.091)">
          <path id="Trazado_128795" data-name="Trazado 128795" d="M18.6,49.87v7.67a16.223,16.223,0,0,0-3.06-1.656l-4.888-2.04v-10.6L8.782,41.379A2.657,2.657,0,0,1,8,39.5v-.225a2.657,2.657,0,0,1,2.649-2.649V30H23.9l2.477,7.431a3.252,3.252,0,0,1,.172,1.073,3.4,3.4,0,0,1-1.881,3.033l-.768.384v3.431a4.523,4.523,0,0,1-4.517,4.517Z" transform="translate(-8 -30)" fill="#f0d0b4"/>
        </g>
        <g id="Grupo_156780" data-name="Grupo 156780" transform="translate(3.974 13.247)">
          <path id="Trazado_128796" data-name="Trazado 128796" d="M12.948,12V35.844H5V12Z" transform="translate(-5 -12)" fill="#69d6f4"/>
        </g>
        <g id="Grupo_156781" data-name="Grupo 156781" transform="translate(11.922 13.247)">
          <path id="Trazado_128797" data-name="Trazado 128797" d="M11,12h7.948V35.844H11Z" transform="translate(-11 -12)" fill="#ef7385"/>
        </g>
        <g id="Grupo_156782" data-name="Grupo 156782" transform="translate(3.974 0.001)">
          <path id="Trazado_128798" data-name="Trazado 128798" d="M14.869,3.179,20.9,15.247H5L11.027,3.179a2.154,2.154,0,0,1,3.842,0Z" transform="translate(-5 -2)" fill="#969faa"/>
        </g>
        <g id="Grupo_156783" data-name="Grupo 156783" transform="translate(33.116 31.793)">
          <path id="Trazado_128799" data-name="Trazado 128799" d="M40.247,26v5.3H27V26H40.247Z" transform="translate(-27 -26)" fill="#aab2bd"/>
        </g>
        <g id="Grupo_156784" data-name="Grupo 156784" transform="translate(25.173)">
          <path id="Trazado_128800" data-name="Trazado 128800" d="M33.888,2.093a14.568,14.568,0,0,0-7.537,25.751,6.82,6.82,0,0,1,2.6,5.246v.7H42.193v-.7a6.709,6.709,0,0,1,2.543-5.206A14.565,14.565,0,0,0,33.888,2.093Z" transform="translate(-21.003 -1.999)" fill="#fee734"/>
        </g>
        <g id="Grupo_156785" data-name="Grupo 156785" transform="translate(42.045 11.923)">
          <path id="Trazado_128801" data-name="Trazado 128801" d="M38.6,11.782a2.59,2.59,0,0,1,.782,1.868A2.657,2.657,0,0,1,36.734,16.3H33.74l.185-2.822A2.649,2.649,0,0,1,36.562,11h.172a2.59,2.59,0,0,1,1.868.782Z" transform="translate(-33.74 -11)" fill="#fcd770"/>
        </g>
        <g id="Grupo_156786" data-name="Grupo 156786" transform="translate(63.584 26.494)">
          <circle id="Elipse_4852" data-name="Elipse 4852" cx="2.5" cy="2.5" r="2.5" transform="translate(0.092 0.182)" fill="#ef7385"/>
        </g>
        <g id="Grupo_156787" data-name="Grupo 156787" transform="translate(31.792 11.923)">
          <path id="Trazado_128802" data-name="Trazado 128802" d="M31.458,13.477l.185,2.822H28.649A2.669,2.669,0,0,1,26,13.649,2.657,2.657,0,0,1,28.649,11h.172A2.649,2.649,0,0,1,31.458,13.477Z" transform="translate(-26 -11)" fill="#fcd770"/>
        </g>
      </g>
      <g id="Grupo_156789" data-name="Grupo 156789" transform="translate(1 1)">
        <path id="Trazado_128803" data-name="Trazado 128803" d="M73.345,59.7a17.6,17.6,0,0,0,9.784-15.831V38.09H57.005l-2.778,8.332a4.758,4.758,0,0,0-.241,1.492,4.693,4.693,0,0,0,2.608,4.222l.041,2.627a5.791,5.791,0,0,0,5.3,5.794v5.692a19.158,19.158,0,0,0-3.381,3.118,15.911,15.911,0,0,0-10.2-6.01l-.548-1.647a7.957,7.957,0,0,0,6.178-7.743V38.09H50.012V33.414a5.374,5.374,0,0,1,2.045-4.171,15.88,15.88,0,0,0,.6-24.2,15.9,15.9,0,0,0-26.3,9.331A15.826,15.826,0,0,0,32,29.189a5.508,5.508,0,0,1,2.113,4.23V38.09H30.143V53.968a7.957,7.957,0,0,0,6.178,7.743l-.55,1.648a16.165,16.165,0,0,0-10.192,6.015,19.181,19.181,0,0,0-3.386-3.125V60.557a5.8,5.8,0,0,0,5.3-5.794V52.156l.041-.02A4.72,4.72,0,0,0,29.9,46.421L27.124,38.09h-3.6V15.259L17.349,2.918a3.468,3.468,0,0,0-6.2,0L4.974,15.259V38.09H1v5.777A17.6,17.6,0,0,0,10.784,59.7l.813.407v2.166A15.286,15.286,0,0,0,1,76.833v6.3H83.129v-6.3a15.286,15.286,0,0,0-10.6-14.562V60.1ZM80.48,43.867a14.946,14.946,0,0,1-7.948,13.241v-3.9l1.485-1.485a3.945,3.945,0,0,0,1.164-2.811v-.227a3.982,3.982,0,0,0-2.649-3.747v-4.2H80.48ZM64.584,60.61h2.649V57.96H62.481a3.172,3.172,0,0,1-2.259-.937,3.215,3.215,0,0,1-.938-2.261V50.518l-1.5-.754a2.069,2.069,0,0,1-1.039-2.5l2.174-6.52H69.882v6.623h1.325a1.327,1.327,0,0,1,1.325,1.325v.227a1.319,1.319,0,0,1-.388.938l-2.261,2.261V62.375l-4.076,1.7q-.624.26-1.223.56Zm-22.519,7.4-3.783-3.8.764-2.293h6.038l.764,2.293ZM36.3,65.98l3.888,3.9-2.657,2.657-1.449-6.524Zm11.521,0,.219.034-1.451,6.525L43.936,69.88ZM33.681,27.138a13.206,13.206,0,0,1-4.7-12.359A13.344,13.344,0,0,1,40.532,3.734a13.241,13.241,0,0,1,9.861,23.449A8.028,8.028,0,0,0,47.4,32.792H44.805L45.6,20.87h1.763a3.974,3.974,0,1,0,0-7.948h-.171a3.985,3.985,0,0,0-3.965,3.71l-.106,1.588H41.007l-.106-1.59a3.985,3.985,0,0,0-3.965-3.709h-.171a3.974,3.974,0,1,0,0,7.948h1.763l.795,11.922h-2.6a8.19,8.19,0,0,0-3.048-5.654Zm8.3,5.654L41.184,20.87h1.76l-.795,11.922Zm3.8-14.571.094-1.412a1.329,1.329,0,0,1,1.322-1.237h.171a1.325,1.325,0,1,1,0,2.649Zm-7.423,0H36.766a1.325,1.325,0,1,1,0-2.649h.171a1.329,1.329,0,0,1,1.322,1.237ZM36.766,35.441h10.6V38.09h-10.6ZM32.792,53.968V40.74H51.337V53.968a5.3,5.3,0,0,1-5.3,5.3H38.09a5.3,5.3,0,0,1-5.3-5.3ZM21.237,68.836l-.913,1.824L15.4,67.7,14.845,65.5,17.3,66.52A16.578,16.578,0,0,1,21.237,68.836Zm6.15-21.577a2.073,2.073,0,0,1-1.039,2.508l-1.5.754v4.244a3.2,3.2,0,0,1-3.2,3.2H16.9V60.61h2.649v4.026q-.6-.3-1.223-.56l-4.076-1.7V52.113l-2.261-2.261a1.319,1.319,0,0,1-.388-.938v-.227a1.327,1.327,0,0,1,1.325-1.325h1.325V40.74H25.213ZM15.571,38.09V16.9h5.3V38.09ZM13.514,4.1a.849.849,0,0,1,1.464,0l5.073,10.146H8.442ZM7.623,16.9h5.3V38.09h-5.3ZM3.649,43.867V40.74H11.6v4.2a3.982,3.982,0,0,0-2.649,3.747v.227a3.95,3.95,0,0,0,1.164,2.811L11.6,53.21v3.9A14.947,14.947,0,0,1,3.649,43.867ZM11.6,80.48V72.532H8.948V80.48h-5.3V76.831a12.641,12.641,0,0,1,8.327-11.894l1.118,4.473,8.32,4.993,1.833-3.668A16.491,16.491,0,0,1,27.44,80.48Zm18.5,0a19.157,19.157,0,0,0-2.865-8.854A13.486,13.486,0,0,1,33.524,66.7L36,77.824l6.068-6.068,6.068,6.068,2.474-11.136A13.28,13.28,0,0,1,56.9,71.623a19.148,19.148,0,0,0-2.867,8.857ZM80.48,76.831V80.48h-5.3V72.532H72.532V80.48H56.689A16.51,16.51,0,0,1,66.826,66.519L71.3,64.655A12.647,12.647,0,0,1,80.48,76.831Z" transform="translate(-1 -1)"/>
        <path id="Trazado_128804" data-name="Trazado 128804" d="M38.273,38H35.623A1.327,1.327,0,0,1,34.3,39.325H29v2.649h5.3A3.979,3.979,0,0,0,38.273,38Z" transform="translate(8.09 11.012)"/>
        <path id="Trazado_128805" data-name="Trazado 128805" d="M49,24.974A3.974,3.974,0,1,0,52.974,21,3.979,3.979,0,0,0,49,24.974Zm5.3,0a1.325,1.325,0,1,1-1.325-1.325A1.327,1.327,0,0,1,54.3,24.974Z" transform="translate(14.584 5.493)"/>
        <path id="Trazado_128806" data-name="Trazado 128806" d="M48.649,10.588a4.943,4.943,0,0,1,4.938-4.938h.722a4.938,4.938,0,0,1,3.084,8.794l-4.77,3.816v5.934h2.649V19.532l3.775-3.02A7.587,7.587,0,0,0,54.308,3h-.722A7.6,7.6,0,0,0,46,10.588v.36h2.649Z" transform="translate(13.61 -0.351)"/>
      </g>
    </g>
  </g>
</svg>
