<svg xmlns="http://www.w3.org/2000/svg" width="145" height="145" viewBox="0 0 145 145">
  <g id="Grupo_157684" data-name="Grupo 157684" transform="translate(-1171 -5097)">
    <path id="Trazado_127721" data-name="Trazado 127721" d="M72.5,0A72.5,72.5,0,1,1,0,72.5,72.5,72.5,0,0,1,72.5,0Z" transform="translate(1171 5097)" fill="#fff"/>
    <g id="Grupo_156593" data-name="Grupo 156593" transform="translate(1193.586 5120.435)">
      <path id="Trazado_127053" data-name="Trazado 127053" d="M16.525,125.968c-.665.148-.819-.165-.812-.786.017-1.556-.01-1.584-1.621-1.574-.6,0-.786-.182-.774-.775.011-.553.112-.81.75-.807,1.616.006,1.657-.026,1.64-1.639-.008-.73.35-.743.891-.749s.821.085.821.733c0,1.633.033,1.662,1.628,1.656.617,0,.763.22.764.793s-.145.793-.762.789c-1.626-.009-1.665.021-1.629,1.562.017.715-.247.924-.9.8" transform="translate(-13.318 -62.516)" fill="#29c4bb"/>
      <path id="Trazado_127054" data-name="Trazado 127054" d="M214.408,151.171c.6-.114.925.083.827.757-.082.564.113.878.737.781s.834.129.839.786c0,.689-.276.847-.863.768-.561-.076-.738.168-.727.726.018.874-.523,1.209-1.368.945-.4-.126-.313-.446-.288-.7.07-.691-.087-1.113-.9-.975-.631.107-.67-.288-.668-.773s.02-.876.661-.777c.69.106,1.016-.146.9-.874-.109-.7.337-.727.852-.665" transform="translate(-117.493 -77.353)" fill="#29c4bb"/>
      <path id="Trazado_127055" data-name="Trazado 127055" d="M212.236,70.027c.154.664-.15.891-.773.786-.674-.114-.949.163-.83.833.115.648-.165.8-.793.809-.648.006-.892-.185-.779-.816.121-.672-.16-.948-.827-.823-.691.13-.752-.232-.778-.813-.031-.683.234-.861.829-.757.646.113.887-.155.777-.786-.105-.6.09-.848.763-.824.593.021.936.105.809.785s.168.936.831.824c.623-.1.926.118.771.782" transform="translate(-114.553 -39.389)" fill="#010000"/>
      <path id="Trazado_127056" data-name="Trazado 127056" d="M56.555,187.408c.145.619-.16.847-.78.735-.727-.132-.9.247-.795.859.116.681-.214.787-.812.783-.572,0-.879-.133-.759-.749.158-.81-.247-1.008-.944-.889-.715.122-.682-.329-.684-.819,0-.475.01-.878.656-.75.869.172,1.091-.245.974-1.023-.112-.745.455-.53.834-.553.4-.024.848-.076.731.57-.145.8.135,1.169.981,1.007.706-.135.619.357.6.829" transform="translate(-33.486 -92.792)" fill="#010000"/>
      <path id="Trazado_127057" data-name="Trazado 127057" d="M121.8,18.174c-.166-.707.225-.844.8-.759.6.089.837-.159.746-.751s.084-.861.765-.847c.626.013.912.175.8.817-.111.659.193.873.811.781.573-.086.859.051.863.751,0,.716-.267.909-.891.809-.66-.105-.883.2-.781.811.115.691-.256.77-.837.782-.621.013-.824-.221-.732-.791.1-.625-.131-.91-.783-.8-.636.106-.908-.156-.766-.8" transform="translate(-70.176 -15.816)" fill="#29c4bb"/>
    </g>
    <g id="_18-Planning" data-name="18-Planning" transform="translate(1202.219 5129.795)">
      <path id="Trazado_128807" data-name="Trazado 128807" d="M21,5H73.82V50.274H21Z" transform="translate(5.41 1.288)" fill="#f2f6fc"/>
      <path id="Trazado_128808" data-name="Trazado 128808" d="M21,29H32.319v2.515l-3.773,3.773H21Z" transform="translate(5.41 7.471)" fill="#dce1eb"/>
      <path id="Trazado_128809" data-name="Trazado 128809" d="M21,1H73.82V6.03H21Z" transform="translate(5.41 0.258)" fill="#ff7045"/>
      <ellipse id="Elipse_4853" data-name="Elipse 4853" cx="4" cy="3.5" rx="4" ry="3.5" transform="translate(61.281 13.205)" fill="#fc9942"/>
      <ellipse id="Elipse_4854" data-name="Elipse 4854" cx="4" cy="3.5" rx="4" ry="3.5" transform="translate(36.281 13.205)" fill="#fc9942"/>
      <path id="Trazado_128810" data-name="Trazado 128810" d="M62.607,67.122H45V50.773A3.695,3.695,0,0,1,48.773,47H53.8l2.515,1.258L58.834,47h5.03a3.695,3.695,0,0,1,3.773,3.773V67.122Z" transform="translate(11.593 12.108)" fill="#e9edf5"/>
      <path id="Trazado_128811" data-name="Trazado 128811" d="M40.607,67.122H23V50.773A3.695,3.695,0,0,1,26.773,47H31.8l2.515,1.258L36.834,47h5.03a3.695,3.695,0,0,1,3.773,3.773V67.122Z" transform="translate(5.926 12.108)" fill="#e9edf5"/>
      <path id="Trazado_128812" data-name="Trazado 128812" d="M12.319,29.515,14.834,27H29.925v6.288H19.864V47.122H1V30.773A3.695,3.695,0,0,1,4.773,27H9.8l2.515,2.515L9.8,38.319l2.515,3.773,2.515-3.773Z" transform="translate(0.258 6.956)" fill="#e9edf5"/>
      <path id="Trazado_128813" data-name="Trazado 128813" d="M57.03,44v3.773L54.515,49.03,52,47.773V44Z" transform="translate(13.397 11.335)" fill="#ffb680"/>
      <path id="Trazado_128814" data-name="Trazado 128814" d="M35.03,44v3.773L32.515,49.03,30,47.773V44Z" transform="translate(7.729 11.335)" fill="#ffb680"/>
      <path id="Trazado_128815" data-name="Trazado 128815" d="M60.061,38.03v5.03c-.981.981-1.534,2.792-2.515,3.773h-5.03c-.981-.981-1.534-2.792-2.515-3.773V38.03a5.03,5.03,0,0,1,10.061,0Z" transform="translate(12.881 8.501)" fill="#ffdaaa"/>
      <path id="Trazado_128816" data-name="Trazado 128816" d="M38.061,38.03v5.03c-.981.981-1.534,2.792-2.515,3.773h-5.03c-.981-.981-1.534-2.792-2.515-3.773V38.03a5.03,5.03,0,0,1,10.061,0Z" transform="translate(7.214 8.501)" fill="#ffdaaa"/>
      <path id="Trazado_128817" data-name="Trazado 128817" d="M31.546,27v2.515l-3.773,3.773H24V27Z" transform="translate(6.183 6.956)" fill="#ffdaaa"/>
      <path id="Trazado_128818" data-name="Trazado 128818" d="M11.546,68.152H4V43H19.091V68.152Z" transform="translate(1.031 11.078)" fill="#9196aa"/>
      <path id="Trazado_128819" data-name="Trazado 128819" d="M10.515,29l2.515,8.8-2.515,3.773L8,37.8Z" transform="translate(2.061 7.471)" fill="#64e1dc"/>
      <path id="Trazado_128820" data-name="Trazado 128820" d="M13.03,24v3.773l-2.515,2.515L8,27.773V24Z" transform="translate(2.061 6.183)" fill="#ffb680"/>
      <path id="Trazado_128821" data-name="Trazado 128821" d="M16.061,18.03v5.03c-.981.981-1.534,2.792-2.515,3.773H8.515C7.534,25.853,6.981,24.042,6,23.061V18.03a5.03,5.03,0,0,1,10.061,0Z" transform="translate(1.546 3.349)" fill="#ffdaaa"/>
      <path id="Trazado_128822" data-name="Trazado 128822" d="M10,48h3.773V66.864H10Z" transform="translate(2.577 12.366)" fill="#636978"/>
      <path id="Trazado_128823" data-name="Trazado 128823" d="M4,43H7.773V68.152H4Z" transform="translate(1.031 11.078)" fill="#636978"/>
      <g id="Grupo_156794" data-name="Grupo 156794" transform="translate(2.516 38.986)">
        <path id="Trazado_128824" data-name="Trazado 128824" d="M2,31H4.515V46.091H2Z" transform="translate(-2 -31)" fill="#bec3d2"/>
        <path id="Trazado_128825" data-name="Trazado 128825" d="M25,54h2.515V65.319H25Z" transform="translate(3.925 -25.075)" fill="#bec3d2"/>
        <path id="Trazado_128826" data-name="Trazado 128826" d="M37,54h2.515V65.319H37Z" transform="translate(7.017 -25.075)" fill="#bec3d2"/>
        <path id="Trazado_128827" data-name="Trazado 128827" d="M47,54h2.515V65.319H47Z" transform="translate(9.593 -25.075)" fill="#bec3d2"/>
        <path id="Trazado_128828" data-name="Trazado 128828" d="M59,54h2.515V65.319H59Z" transform="translate(12.684 -25.075)" fill="#bec3d2"/>
      </g>
      <path id="Trazado_128829" data-name="Trazado 128829" d="M34.845,38.042l3.773-3.773a1.258,1.258,0,0,0,.368-.889V30.864a1.258,1.258,0,0,0-1.258-1.258H16.349v-2.1a12.178,12.178,0,0,0,1.1-1.7,7.7,7.7,0,0,1,1.046-1.6,1.258,1.258,0,0,0,.367-.889v-5.03a6.288,6.288,0,1,0-12.576,0v5.03a1.258,1.258,0,0,0,.367.889A7.7,7.7,0,0,1,7.7,25.81a12.178,12.178,0,0,0,1.1,1.7v2.1H5.031A4.888,4.888,0,0,0,0,34.637V50.986a1.258,1.258,0,0,0,1.258,1.258H3.773V76.139A1.258,1.258,0,0,0,5.031,77.4H20.122a1.258,1.258,0,0,0,1.258-1.258V38.41H33.956a1.257,1.257,0,0,0,.889-.368ZM12.577,31.6l-1.258-1.258V28.349h2.515v1.995Zm0,6.356,1.147,4.012-1.147,1.723L11.43,41.969ZM8.8,18.288a3.773,3.773,0,0,1,7.546,0v4.554a11.983,11.983,0,0,0-1.1,1.761,12.641,12.641,0,0,1-.739,1.234H10.645A12.641,12.641,0,0,1,9.905,24.6a11.983,11.983,0,0,0-1.1-1.761Zm5.03,56.593V58.532h2.515V56.017H8.8v2.515h2.515V74.881H6.289V52.244H18.865V74.881Zm6.288-38.986a1.258,1.258,0,0,0-1.258,1.258V49.729H6.289V35.895H3.773V49.729H2.516V34.637a2.369,2.369,0,0,1,2.515-2.515h4.51l1.624,1.624L8.853,41.838a1.258,1.258,0,0,0,.162,1.043l2.515,3.773a1.258,1.258,0,0,0,2.093,0l2.515-3.773a1.258,1.258,0,0,0,.162-1.043l-2.312-8.093,1.624-1.624H28.926v3.773Zm11.319,0V32.122h5.03v.737l-3.036,3.036Z" transform="translate(0 3.091)"/>
      <path id="Trazado_128830" data-name="Trazado 128830" d="M67.634,54.054a12.493,12.493,0,0,1,.742-1.234h5.7a1.258,1.258,0,0,0,1.258-1.258V1.258A1.258,1.258,0,0,0,74.078,0H21.258A1.258,1.258,0,0,0,20,1.258V30.183h2.515V7.546h50.3V50.3H69.047V46.532a6.288,6.288,0,0,0-12.576,0V50.3H41.38V46.532a6.288,6.288,0,1,0-12.576,0V50.3H22.515V44.017H20v7.546a1.258,1.258,0,0,0,1.258,1.258h8.217a12.741,12.741,0,0,1,.742,1.234,12.177,12.177,0,0,0,1.1,1.7v2.1H27.546a4.888,4.888,0,0,0-5.03,5.03V79.23a1.258,1.258,0,0,0,1.258,1.258H46.41a1.258,1.258,0,0,0,1.258-1.258V62.881a4.89,4.89,0,0,0-5.03-5.03H38.864v-2.1a12.065,12.065,0,0,0,1.1-1.7,12.493,12.493,0,0,1,.742-1.234H57.143a12.493,12.493,0,0,1,.742,1.234,12.067,12.067,0,0,0,1.1,1.7v2.1H55.213a4.89,4.89,0,0,0-5.03,5.03V79.23a1.258,1.258,0,0,0,1.258,1.258H74.078a1.258,1.258,0,0,0,1.258-1.258V62.881a4.89,4.89,0,0,0-5.03-5.03H66.532v-2.1a12.064,12.064,0,0,0,1.1-1.7ZM22.515,5.03V2.515h50.3V5.03Zm13.834,53.3-1.258.629-1.258-.629V56.593h2.515Zm6.288,2.035a2.368,2.368,0,0,1,2.515,2.515V77.972H42.637V67.911H40.122V77.972H30.061V67.911H27.546V77.972H25.03V62.881a2.369,2.369,0,0,1,2.515-2.515h4.734l2.25,1.132a1.258,1.258,0,0,0,1.124,0l2.25-1.132Zm-3.773-9.28a11.983,11.983,0,0,0-1.1,1.761,12.4,12.4,0,0,1-.739,1.234H33.16a12.641,12.641,0,0,1-.739-1.234,11.982,11.982,0,0,0-1.1-1.761V46.532a3.773,3.773,0,1,1,7.546,0ZM61.5,56.593h2.515v1.738l-1.258.629L61.5,58.331ZM58.986,46.532a3.773,3.773,0,1,1,7.546,0v4.554a11.982,11.982,0,0,0-1.1,1.761,12.4,12.4,0,0,1-.739,1.234H60.827a12.4,12.4,0,0,1-.739-1.234,11.982,11.982,0,0,0-1.1-1.761ZM70.3,60.366a2.368,2.368,0,0,1,2.515,2.515V77.972H70.3V67.911H67.79V77.972H57.729V67.911H55.213V77.972H52.7V62.881a2.368,2.368,0,0,1,2.515-2.515h4.734L62.2,61.5a1.258,1.258,0,0,0,1.124,0l2.25-1.132Z" transform="translate(5.153)"/>
      <path id="Trazado_128831" data-name="Trazado 128831" d="M40.071,32.617l2.884-2.884,2.884,2.884,1.778-1.778-2.884-2.884,2.884-2.884-1.778-1.778-2.884,2.884-2.884-2.884-1.778,1.778,2.884,2.884-2.884,2.884Z" transform="translate(9.865 6.001)"/>
      <path id="Trazado_128832" data-name="Trazado 128832" d="M33.03,9a5.03,5.03,0,1,0,5.03,5.03A5.03,5.03,0,0,0,33.03,9Zm0,7.546a2.515,2.515,0,1,1,2.515-2.515A2.515,2.515,0,0,1,33.03,16.546Z" transform="translate(7.214 2.319)"/>
      <path id="Trazado_128833" data-name="Trazado 128833" d="M58.061,14.03a5.03,5.03,0,1,0-5.03,5.03A5.03,5.03,0,0,0,58.061,14.03Zm-7.546,0a2.515,2.515,0,1,1,2.515,2.515A2.515,2.515,0,0,1,50.515,14.03Z" transform="translate(12.366 2.319)"/>
      <path id="Trazado_128834" data-name="Trazado 128834" d="M46,30.319h5.03A3.773,3.773,0,0,0,54.8,26.546V19H52.288v7.546A1.258,1.258,0,0,1,51.03,27.8H46Z" transform="translate(11.851 4.895)"/>
      <path id="Trazado_128835" data-name="Trazado 128835" d="M31,19c0,11.193,7.47,11.319,7.546,11.319l.015-2.515c-.206,0-5.046-.22-5.046-8.8Z" transform="translate(7.987 4.895)"/>
    </g>
  </g>
</svg>
