<svg xmlns="http://www.w3.org/2000/svg" width="86" height="86" viewBox="0 0 86 86">
  <g id="Grupo_157893" data-name="Grupo 157893" transform="translate(8770 4231)">
    <g id="lista-de-verificacion_2_" data-name="lista-de-verificacion(2)" transform="translate(-8761 -4222)">
      <path id="Trazado_128960" data-name="Trazado 128960" d="M13.2,10H58.013a3.2,3.2,0,0,1,3.2,3.2V72.418a3.2,3.2,0,0,1-3.2,3.2H13.2a3.2,3.2,0,0,1-3.2-3.2V13.2A3.2,3.2,0,0,1,13.2,10Zm0,0" transform="translate(-8.667 -8.667)" fill="#29c4bb"/>
      <path id="Trazado_128961" data-name="Trazado 128961" d="M80.72,50h9.825v54.949H50V50h9.825" transform="translate(-43.332 -43.332)" fill="#fff"/>
      <path id="Trazado_128962" data-name="Trazado 128962" d="M129.666,19.6h14.382a2.834,2.834,0,0,0,2.834-2.834V10h-20.05v6.769A2.834,2.834,0,0,0,129.666,19.6Zm0,0" transform="translate(-109.917 -8.667)" fill="#ff6977"/>
      <path id="Trazado_128963" data-name="Trazado 128963" d="M129.666,19.6h14.382a2.834,2.834,0,0,0,2.834-2.834V10h-20.05v6.769A2.834,2.834,0,0,0,129.666,19.6Zm0,0" transform="translate(-109.917 -8.667)" fill="#bdd9ff"/>
      <path id="Trazado_128964" data-name="Trazado 128964" d="M313.668,152.3l15.627-15.627a3.527,3.527,0,1,1,4.988,4.988l-15.627,15.627-8.992,4Zm0,0" transform="translate(-268.364 -117.554)" fill="#fee734"/>
      <path id="Trazado_128965" data-name="Trazado 128965" d="M318.656,265.547l-4.988-4.988-4,8.992Zm0,0" transform="translate(-268.364 -225.808)" fill="#98a1b3"/>
      <path id="Trazado_128966" data-name="Trazado 128966" d="M448.981,143.381l1.715-1.715a3.527,3.527,0,0,0-4.988-4.988l-1.715,1.715Zm0,0" transform="translate(-384.777 -117.554)" fill="#ff6977"/>
      <path id="Trazado_128967" data-name="Trazado 128967" d="M98,130h8.536v8.536H98Zm0,0" transform="translate(-84.93 -112.662)" fill="#fee734"/>
      <path id="Trazado_128968" data-name="Trazado 128968" d="M98,240h8.536v8.536H98Zm0,0" transform="translate(-84.93 -207.992)" fill="#fee734"/>
      <path id="Trazado_128969" data-name="Trazado 128969" d="M98,350h8.536v8.536H98Zm0,0" transform="translate(-84.93 -303.321)" fill="#988a1f"/>
      <path id="Trazado_128970" data-name="Trazado 128970" d="M193.334,452a1.334,1.334,0,1,0,.943.391A1.344,1.344,0,0,0,193.334,452Zm0,0" transform="translate(-166.393 -391.717)"/>
      <path id="Trazado_128971" data-name="Trazado 128971" d="M66.862,18.181a4.866,4.866,0,0,0-6.874,0l-6.106,6.106V4.534A4.54,4.54,0,0,0,49.347,0H4.534A4.54,4.54,0,0,0,0,4.534V63.751a4.54,4.54,0,0,0,4.535,4.535H49.347a4.54,4.54,0,0,0,4.535-4.535V38.035l12.98-12.981a4.866,4.866,0,0,0,0-6.874ZM51.214,4.534v22.42l-2.667,2.667V6.668a1.334,1.334,0,0,0-1.334-1.334H38.3V2.667H49.347a1.869,1.869,0,0,1,1.867,1.867ZM43.932,41.11l1.8-4.045,2.244,2.244Zm-8.3-38.444V8.1a1.5,1.5,0,0,1-1.5,1.5H19.75a1.5,1.5,0,0,1-1.5-1.5V2.667ZM49.347,65.618H4.534a1.869,1.869,0,0,1-1.867-1.867V4.534A1.869,1.869,0,0,1,4.534,2.667H15.582V5.334H6.668A1.334,1.334,0,0,0,5.335,6.668V61.617A1.334,1.334,0,0,0,6.668,62.95H21.606a1.334,1.334,0,1,0,0-2.667H8V8h7.58v.1A4.173,4.173,0,0,0,19.75,12.27H34.132A4.173,4.173,0,0,0,38.3,8.1V8h7.58V32.289L44.36,33.807a1.349,1.349,0,0,0-.275.4l-4,8.992a1.334,1.334,0,0,0,1.761,1.761l4.037-1.8V60.283h-13.6a1.334,1.334,0,1,0,0,2.667H47.213a1.334,1.334,0,0,0,1.334-1.334V41.976l2.288-1.019a1.33,1.33,0,0,0,.38-.256v23.05a1.869,1.869,0,0,1-1.867,1.867ZM60,28.14l-9.713,9.713-3.1-3.1L59.215,22.725l3.1,3.1Zm4.971-4.971-.772.772-3.1-3.1.772-.772a2.194,2.194,0,1,1,3.1,3.1Zm0,0" transform="translate(0 0)"/>
      <path id="Trazado_128972" data-name="Trazado 128972" d="M97.869,120H89.334A1.334,1.334,0,0,0,88,121.334v8.536a1.334,1.334,0,0,0,1.334,1.334h8.536a1.334,1.334,0,0,0,1.334-1.334v-8.536A1.334,1.334,0,0,0,97.869,120Zm-1.334,8.536H90.667v-5.868h5.868Zm0,0" transform="translate(-76.264 -103.996)"/>
      <path id="Trazado_128973" data-name="Trazado 128973" d="M97.869,230H89.334A1.334,1.334,0,0,0,88,231.334v8.536a1.334,1.334,0,0,0,1.334,1.334h8.536a1.334,1.334,0,0,0,1.334-1.334v-8.536A1.334,1.334,0,0,0,97.869,230Zm-1.334,8.536H90.667v-5.868h5.868Zm0,0" transform="translate(-76.264 -199.325)"/>
      <path id="Trazado_128974" data-name="Trazado 128974" d="M97.869,340H89.334A1.334,1.334,0,0,0,88,341.334v8.536a1.334,1.334,0,0,0,1.334,1.334h8.536a1.334,1.334,0,0,0,1.334-1.334v-8.536A1.334,1.334,0,0,0,97.869,340Zm-1.334,8.536H90.667v-5.868h5.868Zm0,0" transform="translate(-76.264 -294.655)"/>
      <path id="Trazado_128975" data-name="Trazado 128975" d="M211.759,137.725a1.333,1.333,0,0,0,1.886,0l6.021-6.021a1.334,1.334,0,0,0-1.886-1.886L212.7,134.9l-2.024-2.024a1.334,1.334,0,1,0-1.886,1.886Zm0,0" transform="translate(-180.607 -112.165)"/>
      <path id="Trazado_128976" data-name="Trazado 128976" d="M211.759,247.727a1.333,1.333,0,0,0,1.886,0l6.021-6.021a1.334,1.334,0,0,0-1.886-1.886L212.7,244.9l-2.024-2.024a1.334,1.334,0,1,0-1.886,1.886Zm0,0" transform="translate(-180.607 -207.497)"/>
      <path id="Trazado_128977" data-name="Trazado 128977" d="M223.871,355.657l2.068,2.067a1.334,1.334,0,0,0,1.886-1.886l-2.067-2.068,2.067-2.068a1.334,1.334,0,1,0-1.886-1.886l-2.068,2.067-2.067-2.067a1.334,1.334,0,1,0-1.886,1.886l2.068,2.068-2.068,2.068a1.334,1.334,0,0,0,1.886,1.886Zm0,0" transform="translate(-190.249 -302.824)"/>
    </g>
    <rect id="Rectángulo_38057" data-name="Rectángulo 38057" width="86" height="86" transform="translate(-8770 -4231)" fill="none"/>
  </g>
</svg>
