<svg xmlns="http://www.w3.org/2000/svg" width="90.773" height="90.773" viewBox="0 0 90.773 90.773">
  <g id="Grupo_156636" data-name="Grupo 156636" transform="translate(6399 6571)">
    <path id="Trazado_127482" data-name="Trazado 127482" d="M45.387,0A45.387,45.387,0,1,1,0,45.387,45.387,45.387,0,0,1,45.387,0Z" transform="translate(-6399 -6571)" fill="#b0c8cb"/>
    <g id="Grupo_156595" data-name="Grupo 156595" transform="translate(-6385.246 -6555.413)">
      <path id="Trazado_127053" data-name="Trazado 127053" d="M15.375,123.6c.416.093.513-.1.509-.492-.011-.974.006-.992,1.015-.986.375,0,.492-.114.485-.485-.007-.346-.07-.507-.469-.505-1.011,0-1.037-.017-1.026-1.026,0-.457-.219-.465-.558-.469s-.514.053-.514.459c0,1.022-.021,1.041-1.019,1.037-.386,0-.478.138-.479.5s.091.5.477.494c1.018-.006,1.042.013,1.02.978-.011.448.155.579.561.5" transform="translate(44.792 -83.878)" fill="#29c4bb"/>
      <path id="Trazado_127054" data-name="Trazado 127054" d="M213.5,151.159c-.373-.071-.579.052-.518.474.051.353-.071.55-.461.489s-.522.081-.525.492c0,.431.173.53.54.481.351-.047.462.105.455.455-.011.547.328.757.857.591.251-.079.2-.279.18-.437-.044-.432.055-.7.565-.611.395.067.419-.181.418-.484s-.013-.548-.414-.486c-.432.067-.636-.091-.564-.547.068-.436-.211-.455-.533-.417" transform="translate(-211.994 -104.948)" fill="#29c4bb"/>
      <path id="Trazado_127055" data-name="Trazado 127055" d="M207.478,69.132c-.1.416.094.558.484.492.422-.071.594.1.52.521s.1.5.5.507.558-.116.488-.511c-.075-.42.1-.594.518-.515s.471-.145.487-.509c.019-.427-.147-.539-.519-.474-.4.071-.555-.1-.487-.492.066-.378-.056-.531-.477-.516-.371.013-.586.066-.506.491s-.105.586-.52.516c-.39-.066-.58.074-.483.49" transform="translate(-204.437 -61.871)" fill="#010000"/>
      <path id="Trazado_127056" data-name="Trazado 127056" d="M51.8,186.5c-.091.388.1.53.488.46.455-.082.563.155.5.538-.072.426.134.493.509.49.358,0,.55-.083.475-.469-.1-.507.155-.631.591-.556s.427-.206.428-.513-.006-.549-.411-.47c-.544.108-.683-.154-.61-.641.07-.466-.285-.332-.522-.346s-.531-.047-.458.357c.09.5-.085.732-.614.63-.442-.085-.388.223-.375.519" transform="translate(-4.069 -127.272)" fill="#010000"/>
      <path id="Trazado_127057" data-name="Trazado 127057" d="M124.759,17.292c.1-.443-.141-.529-.5-.475s-.524-.1-.467-.47-.053-.539-.479-.53c-.392.008-.571.109-.5.512s-.121.547-.507.489c-.358-.054-.538.032-.54.47s.167.569.558.507c.413-.066.553.122.489.507-.072.432.16.482.524.49.389.008.516-.138.458-.495-.062-.391.082-.57.49-.5s.569-.1.48-.5" transform="translate(-94.9 -15.817)" fill="#29c4bb"/>
    </g>
    <g id="objetivo" transform="translate(-6378.626 -6550.535)">
      <path id="Trazado_128978" data-name="Trazado 128978" d="M42.659,457.19H33.023v-3.4A1.791,1.791,0,0,1,34.814,452h6.055a1.791,1.791,0,0,1,1.791,1.791Zm0,0" transform="translate(-29.759 -407.316)" fill="#dff6f5"/>
      <path id="Trazado_128979" data-name="Trazado 128979" d="M140.133,416.67H130.5v-7.844a1.791,1.791,0,0,1,1.791-1.791h6.055a1.791,1.791,0,0,1,1.791,1.791Zm0,0" transform="translate(-117.596 -366.796)" fill="#b4eae7"/>
      <path id="Trazado_128980" data-name="Trazado 128980" d="M237.609,373.141h-9.636v-12.62a1.791,1.791,0,0,1,1.791-1.791h6.055a1.791,1.791,0,0,1,1.791,1.791Zm0,0" transform="translate(-205.435 -323.267)" fill="#29c4bb"/>
      <path id="Trazado_128981" data-name="Trazado 128981" d="M335.085,307.114h-9.636V287.251a1.791,1.791,0,0,1,1.791-1.791h6.055a1.791,1.791,0,0,1,1.791,1.791Zm0,0" transform="translate(-293.276 -257.24)" fill="#209c95"/>
      <path id="Trazado_128982" data-name="Trazado 128982" d="M351.906,24.965H361.6a.326.326,0,0,0,.215-.57L359.3,22.178a.326.326,0,0,1,0-.489l2.518-2.217a.326.326,0,0,0-.215-.57h-9.692Zm0,0" transform="translate(-317.117 -17.034)" fill="#fee734"/>
      <path id="Trazado_128983" data-name="Trazado 128983" d="M231.119,108.93l-10.5,5.7c-.937.509-1.193,1.4-1.52,2.555l-2.088,7.383,5.117-2.1,1.986-6,5.284-3.21A3.867,3.867,0,0,0,231.119,108.93Zm0,0" transform="translate(-195.558 -98.161)" fill="#83d9ff"/>
      <path id="Trazado_128984" data-name="Trazado 128984" d="M231.119,108.93l-1.211.658a3.865,3.865,0,0,1-1.787,2.563l-4.814,2.925a1.494,1.494,0,0,0-.642.807l-.687,2.078a7.792,7.792,0,0,1-4.443,4.763l-.522,1.847,5.117-2.1,1.986-6,5.284-3.21a3.867,3.867,0,0,0,1.721-4.33Zm0,0" transform="translate(-195.558 -98.161)" fill="#5fc9ed"/>
      <path id="Trazado_128985" data-name="Trazado 128985" d="M222.129,245.926l3.024,3.573c.5.663.937,1.13.846,1.86l-.707,5.716h-1.845l-.482-4.914a.821.821,0,0,0-.492-.673l-5.46-3.465Zm0,0" transform="translate(-195.558 -221.614)" fill="#38627c"/>
      <path id="Trazado_128986" data-name="Trazado 128986" d="M181.382,248.023l-.3,5.418a2.38,2.38,0,0,1-.132,1.087l-3.482,7.326h1.957l5.235-6.954a2.83,2.83,0,0,0,.444-1.285l1.388-7.688Zm0,0" transform="translate(-159.928 -221.614)" fill="#4f7693"/>
      <path id="Trazado_128987" data-name="Trazado 128987" d="M231.31,112.805l.859,1.676a1.6,1.6,0,0,1-.7,2.157l-.664.34a1.6,1.6,0,0,1-2.157-.7l-.859-1.676a1.6,1.6,0,0,1,.7-2.157l.664-.34A1.6,1.6,0,0,1,231.31,112.805Zm0,0" transform="translate(-205.115 -100.867)" fill="#fecbaa"/>
      <path id="Trazado_128988" data-name="Trazado 128988" d="M45.187,6.8,43.024,4.9,45.187,3a1.068,1.068,0,0,0-.706-1.869H35.531V.742a.742.742,0,0,0-1.484,0v10l-6.093,3.308a2.347,2.347,0,0,0-.241-.779L26.855,11.6A2.347,2.347,0,0,0,23.7,10.582l-.664.34a2.344,2.344,0,0,0-1.018,3.155l.858,1.676a2.33,2.33,0,0,0,.845.918,6.5,6.5,0,0,0-.894,2.152l-.16.566a.742.742,0,0,0,.512.916.73.73,0,0,0,.2.028.742.742,0,0,0,.714-.54l.16-.565c.325-1.147.525-1.761,1.16-2.106l1.14-.619.141-.072c.047-.024.09-.051.135-.078l8.122-4.41a3.14,3.14,0,0,1-1.5,2.521l-5.282,3.209-.018.011-1.644,1a.742.742,0,0,0,.709,1.3l-1.247,3.771-.912.374-2.479,1.016.714-2.526a.742.742,0,0,0-1.428-.4L20.74,26.207a.712.712,0,0,0-.027.161l-.3,5.426a2.483,2.483,0,0,1-.061.8l-3.281,6.9H14.692a2.535,2.535,0,0,0-2.533,2.532v2.141a2.513,2.513,0,0,0-1.049-.228H5.055a2.535,2.535,0,0,0-2.532,2.532v2.657H.742a.742.742,0,1,0,0,1.484H44.481a.742.742,0,1,0,0-1.484H42.552V30.011a2.535,2.535,0,0,0-2.532-2.532H35.531V14.537a4.626,4.626,0,0,0,.745-3.965.742.742,0,0,0-.745-.544V8.673h8.95A1.068,1.068,0,0,0,45.187,6.8Zm-21.9,5.94a.855.855,0,0,1,.427-.5l.664-.34a.861.861,0,0,1,1.158.373l.859,1.676a.862.862,0,0,1-.286,1.106l-.242.131-.51.261a.861.861,0,0,1-1.158-.374L23.339,13.4a.855.855,0,0,1-.053-.656ZM21.8,39.726a2.518,2.518,0,0,0-.814-.217l.814-1.082Zm3.522-5.977a2.8,2.8,0,0,0,.535-1.329c.02-.1.386-2.1.386-2.1s.346.216.383.231a.079.079,0,0,1,.046.065l.4,4.1H24.584ZM29.7,29.653l-.626,5.065h-.517l-.417-4.244a1.563,1.563,0,0,0-.874-1.254l-.746-.473.5-2.755s2.094,2.487,2.142,2.551c.433.563.582.789.541,1.11Zm-8.013,3.59a4.022,4.022,0,0,0,.208-1.377l.27-4.949L25.6,25.511l-.624,3.455c0,.009,0,.019-.005.028l-.516,2.856a2.826,2.826,0,0,1-.31.988L19.132,39.5h-.413ZM4.006,46.475a1.05,1.05,0,0,1,1.049-1.048H11.11a1.05,1.05,0,0,1,1.049,1.048v2.657H4.006Zm9.636,0V42.03a1.05,1.05,0,0,1,1.049-1.049h6.055A1.05,1.05,0,0,1,21.8,42.03v7.1H13.643V46.475ZM41.068,30.011V49.132H32.915V44.684a.742.742,0,0,0-1.484,0v4.448H23.279V37.254a1.05,1.05,0,0,1,1.049-1.048h6.055a1.05,1.05,0,0,1,1.049,1.048v3.719a.742.742,0,1,0,1.484,0V30.011a1.05,1.05,0,0,1,1.049-1.049h6.054a1.05,1.05,0,0,1,1.049,1.049Zm-7.1-2.532a2.535,2.535,0,0,0-2.532,2.532V34.95a2.511,2.511,0,0,0-.86-.22l.605-4.894a2.865,2.865,0,0,0-.838-2.2c-.05-.065-2.933-3.489-2.933-3.489L29.175,18.8l4.873-2.96V27.479ZM35.531,7.189V2.611h7.848L41.689,4.1a1.067,1.067,0,0,0,0,1.6l1.69,1.488H35.531Zm0,0" transform="translate(0 0)"/>
    </g>
  </g>
</svg>
