<svg xmlns="http://www.w3.org/2000/svg" width="86" height="86" viewBox="0 0 86 86">
  <g id="Grupo_157894" data-name="Grupo 157894" transform="translate(8968 4231)">
    <g id="resolucion-de-problemas" transform="translate(-8964.583 -4222)">
      <g id="Grupo_157059" data-name="Grupo 157059" transform="translate(31.512 1.333)">
        <path id="Trazado_128935" data-name="Trazado 128935" d="M213.416,41.119c1.085-6.946,7.324-8.586,7.316-17.157-.011-8.885-6.889-14.054-13.582-13.96-6.693-.095-13.57,5.075-13.582,13.96-.011,8.571,6.232,10.211,7.316,17.157a2.427,2.427,0,0,1,.333-.019h11.866A2.428,2.428,0,0,1,213.416,41.119Z" transform="translate(-193.569 -10)" fill="#fee734" fill-rule="evenodd"/>
      </g>
      <g id="Grupo_157060" data-name="Grupo 157060" transform="translate(36.164 32.433)">
        <path id="Trazado_128936" data-name="Trazado 128936" d="M231.46,249.257h11.96a3,3,0,0,0,.238-5.971,2.427,2.427,0,0,0-.333-.019H231.46a2.406,2.406,0,0,0-.333.019,3,3,0,0,0,.238,5.971Z" transform="translate(-228.463 -243.267)" fill="#f3eff0" fill-rule="evenodd"/>
      </g>
      <g id="Grupo_157061" data-name="Grupo 157061" transform="translate(39.066 38.423)">
        <path id="Trazado_128937" data-name="Trazado 128937" d="M259.209,294.348a3.084,3.084,0,0,0,3.076-3.076V288.2H250.23v3.076a3.083,3.083,0,0,0,3.072,3.076Z" transform="translate(-250.23 -288.196)" fill="#cdc0c4" fill-rule="evenodd"/>
      </g>
      <g id="Grupo_157062" data-name="Grupo 157062" transform="translate(17.005 47.539)">
        <path id="Trazado_128938" data-name="Trazado 128938" d="M115.052,362.9a3.366,3.366,0,0,0-2.944-1.75h-6.764a1.908,1.908,0,0,1-1.761-.752c-4.988-4.7-9.058-4.467-14.046-2.5a4.828,4.828,0,0,1-2.2.461H84.752V371h3.877a3.345,3.345,0,0,1,1.251.234l12.875,3.443c4.527,1.228,6.341,2.354,10.642-.514l15.868-11.3a3.24,3.24,0,1,0-3.4-5.514Z" transform="translate(-84.752 -356.574)" fill="#ffdcd5" fill-rule="evenodd"/>
      </g>
      <g id="Grupo_157063" data-name="Grupo 157063" transform="translate(7.916 47.058)">
        <path id="Trazado_128939" data-name="Trazado 128939" d="M25.67,367.871V355.026a2.064,2.064,0,0,0-2.056-2.06H18.638a2.064,2.064,0,0,0-2.056,2.06v13.053a2.063,2.063,0,0,0,2.056,2.056h4.977a2.063,2.063,0,0,0,2.056-2.056Z" transform="translate(-16.582 -352.966)" fill="#29c4bb" fill-rule="evenodd"/>
      </g>
      <g id="Grupo_157064" data-name="Grupo 157064" transform="translate(6.583 0)">
        <path id="Trazado_128940" data-name="Trazado 128940" d="M57.5,344.366l-9.816,5.042a4.674,4.674,0,0,0-3.326-1.388H37.6a2.222,2.222,0,0,1-.444-.026c-.061-.042-.214-.185-.338-.3l-.065-.061c-5.506-5.185-10.158-4.856-15.45-2.768a3.5,3.5,0,0,1-1.665.365l-1.49,0a3.4,3.4,0,0,0-3.2-2.266H9.972a3.4,3.4,0,0,0-3.389,3.393V359.41A3.393,3.393,0,0,0,9.972,362.8h4.977a3.394,3.394,0,0,0,3.2-2.264h2.737a3.876,3.876,0,0,1,.906.189l12.87,3.442c.564.153,1.081.3,1.581.449a16.3,16.3,0,0,0,4.516.889,9.912,9.912,0,0,0,5.633-2.029l.034-.023,15.869-11.3a4.571,4.571,0,0,0-4.788-7.785ZM15.671,359.41a.732.732,0,0,1-.722.723H9.972a.732.732,0,0,1-.722-.723V346.357a.734.734,0,0,1,.722-.726h4.977a.734.734,0,0,1,.722.726Zm45.072-9.43L44.893,361.267c-3.226,2.147-4.6,1.748-7.909.787-.512-.149-1.041-.3-1.632-.463l-12.874-3.442a6.388,6.388,0,0,0-1.6-.28H18.338V347.9l1.419-.006a5.93,5.93,0,0,0,2.522-.548c4.586-1.81,8.125-2.026,12.644,2.23l.064.06a3.111,3.111,0,0,0,2.61,1.053h6.764a2.021,2.021,0,1,1,0,4.041H33.394a1.333,1.333,0,1,0,0,2.666H44.361a4.687,4.687,0,0,0,4.591-5.639l9.771-5.019a1.913,1.913,0,1,1,2.021,3.243Z" transform="translate(-6.583 -297.24)"/>
        <path id="Trazado_128941" data-name="Trazado 128941" d="M190.66,31.534a4.326,4.326,0,0,0,.462,7.979V41.5a4.412,4.412,0,0,0,4.405,4.409h5.906a4.414,4.414,0,0,0,4.409-4.409V39.513a4.326,4.326,0,0,0,.462-7.979,16.272,16.272,0,0,1,3.012-5.478c1.915-2.606,4.085-5.559,4.08-10.762,0-.464-.019-.941-.057-1.417a1.333,1.333,0,1,0-2.658.211c.032.406.049.811.049,1.207,0,4.328-1.729,6.686-3.563,9.182a18.169,18.169,0,0,0-3.506,6.622H193.3a18.165,18.165,0,0,0-3.507-6.621c-1.835-2.5-3.568-4.854-3.562-9.182a12.477,12.477,0,0,1,3.641-9.162,12.078,12.078,0,0,1,8.589-3.466h.038a12.074,12.074,0,0,1,7.309,2.373A1.333,1.333,0,0,0,207.4,2.9,15.123,15.123,0,0,0,188,4.234a15.153,15.153,0,0,0-4.437,11.059c-.007,5.2,2.164,8.159,4.08,10.765a16.266,16.266,0,0,1,3.012,5.477ZM203.177,41.5a1.745,1.745,0,0,1-1.743,1.743h-5.906a1.743,1.743,0,0,1-1.739-1.743V39.756h9.388ZM192.55,33.766h11.866a1.662,1.662,0,1,1,0,3.323H192.55a1.662,1.662,0,1,1,0-3.323Z" transform="translate(-159.972 0)"/>
        <path id="Trazado_128942" data-name="Trazado 128942" d="M288.106,64.384a1.333,1.333,0,0,0-2.666,0v8.269a1.333,1.333,0,1,0,2.666,0Z" transform="translate(-248.263 -54.645)"/>
        <path id="Trazado_128943" data-name="Trazado 128943" d="M286.773,170.311a1.333,1.333,0,0,0-1.333,1.333v.008a1.333,1.333,0,1,0,1.333-1.341Z" transform="translate(-248.263 -147.605)"/>
        <path id="Trazado_128944" data-name="Trazado 128944" d="M451.573,114.64h-5.415a1.333,1.333,0,1,0,0,2.666h5.415a1.333,1.333,0,1,0,0-2.666Z" transform="translate(-386.398 -99.356)"/>
        <path id="Trazado_128945" data-name="Trazado 128945" d="M429.349,13.288a1.327,1.327,0,0,0,.742-.226l4.493-3.016A1.333,1.333,0,0,0,433.1,7.832L428.6,10.847a1.333,1.333,0,0,0,.744,2.44Z" transform="translate(-371.828 -6.591)"/>
        <path id="Trazado_128946" data-name="Trazado 128946" d="M434.585,202.3l-4.493-3.016a1.333,1.333,0,0,0-1.486,2.214l4.493,3.016a1.333,1.333,0,1,0,1.486-2.214Z" transform="translate(-371.83 -172.515)"/>
        <path id="Trazado_128947" data-name="Trazado 128947" d="M86.771,117.306h5.411a1.333,1.333,0,1,0,0-2.666H86.771a1.333,1.333,0,1,0,0,2.666Z" transform="translate(-74.925 -99.356)"/>
        <path id="Trazado_128948" data-name="Trazado 128948" d="M109.752,10.046l4.493,3.016a1.333,1.333,0,0,0,1.486-2.214l-4.493-3.016a1.333,1.333,0,1,0-1.486,2.214Z" transform="translate(-95.486 -6.592)"/>
        <path id="Trazado_128949" data-name="Trazado 128949" d="M114.246,199.28l-4.493,3.016a1.333,1.333,0,1,0,1.486,2.214l4.493-3.016a1.333,1.333,0,0,0-1.486-2.214Z" transform="translate(-95.487 -172.515)"/>
        <path id="Trazado_128950" data-name="Trazado 128950" d="M374.895,54.417a1.333,1.333,0,1,0,0-1.889,1.325,1.325,0,0,0,0,1.889Z" transform="translate(-325.449 -45.186)"/>
      </g>
    </g>
    <rect id="Rectángulo_38056" data-name="Rectángulo 38056" width="86" height="86" transform="translate(-8968 -4231)" fill="none"/>
  </g>
</svg>
