<svg xmlns="http://www.w3.org/2000/svg" width="90.773" height="90.773" viewBox="0 0 90.773 90.773">
  <g id="Grupo_157070" data-name="Grupo 157070" transform="translate(6399 6571)">
    <circle id="Elipse_4762" data-name="Elipse 4762" cx="45.387" cy="45.387" r="45.387" transform="translate(-6399 -6571)" fill="#b0c8cb"/>
    <g id="Grupo_156595" data-name="Grupo 156595" transform="translate(-6385.246 -6555.413)">
      <path id="Trazado_127053" data-name="Trazado 127053" d="M15.375,123.6c.416.093.513-.1.509-.492-.011-.974.006-.992,1.015-.986.375,0,.492-.114.485-.485-.007-.346-.07-.507-.469-.505-1.011,0-1.037-.017-1.026-1.026,0-.457-.219-.465-.558-.469s-.514.053-.514.459c0,1.022-.021,1.041-1.019,1.037-.386,0-.478.138-.479.5s.091.5.477.494c1.018-.006,1.042.013,1.02.978-.011.448.155.579.561.5" transform="translate(44.792 -83.878)" fill="#29c4bb"/>
      <path id="Trazado_127054" data-name="Trazado 127054" d="M213.5,151.159c-.373-.071-.579.052-.518.474.051.353-.071.55-.461.489s-.522.081-.525.492c0,.431.173.53.54.481.351-.047.462.105.455.455-.011.547.328.757.857.591.251-.079.2-.279.18-.437-.044-.432.055-.7.565-.611.395.067.419-.181.418-.484s-.013-.548-.414-.486c-.432.067-.636-.091-.564-.547.068-.436-.211-.455-.533-.417" transform="translate(-211.994 -104.948)" fill="#29c4bb"/>
      <path id="Trazado_127055" data-name="Trazado 127055" d="M207.478,69.132c-.1.416.094.558.484.492.422-.071.594.1.52.521s.1.5.5.507.558-.116.488-.511c-.075-.42.1-.594.518-.515s.471-.145.487-.509c.019-.427-.147-.539-.519-.474-.4.071-.555-.1-.487-.492.066-.378-.056-.531-.477-.516-.371.013-.586.066-.506.491s-.105.586-.52.516c-.39-.066-.58.074-.483.49" transform="translate(-204.437 -61.871)" fill="#010000"/>
      <path id="Trazado_127056" data-name="Trazado 127056" d="M51.8,186.5c-.091.388.1.53.488.46.455-.082.563.155.5.538-.072.426.134.493.509.49.358,0,.55-.083.475-.469-.1-.507.155-.631.591-.556s.427-.206.428-.513-.006-.549-.411-.47c-.544.108-.683-.154-.61-.641.07-.466-.285-.332-.522-.346s-.531-.047-.458.357c.09.5-.085.732-.614.63-.442-.085-.388.223-.375.519" transform="translate(-4.069 -127.272)" fill="#010000"/>
      <path id="Trazado_127057" data-name="Trazado 127057" d="M124.759,17.292c.1-.443-.141-.529-.5-.475s-.524-.1-.467-.47-.053-.539-.479-.53c-.392.008-.571.109-.5.512s-.121.547-.507.489c-.358-.054-.538.032-.54.47s.167.569.558.507c.413-.066.553.122.489.507-.072.432.16.482.524.49.389.008.516-.138.458-.495-.062-.391.082-.57.49-.5s.569-.1.48-.5" transform="translate(-94.9 -15.817)" fill="#29c4bb"/>
    </g>
    <g id="Filled_outline" data-name="Filled outline" transform="translate(-6393.938 -6565.937)">
      <rect id="Rect치ngulo_37447" data-name="Rect치ngulo 37447" width="5.284" height="6.604" rx="2.642" transform="translate(27.888 16.66)" fill="#fec9a3"/>
      <path id="Trazado_129074" data-name="Trazado 129074" d="M39.4,176h4.054l3.243,5.675,1.622.811-4.054,2.432-3.243-5.675H35.351L32.108,183.3H25.622L24,184.919v-4.865h5.675L32.919,176Z" transform="translate(-7.189 -143.784)" fill="#4d5e78"/>
      <path id="Trazado_129075" data-name="Trazado 129075" d="M63.513,48H60.27l-.811,4.054H42.432L40,59.351h3.243L44.865,55.3h3.513L47.3,60.972h6.486L54.864,55.3h7.027Z" transform="translate(-21.568 -28.757)" fill="#29c4bb"/>
      <rect id="Rect치ngulo_37448" data-name="Rect치ngulo 37448" width="5.284" height="5.944" rx="2.642" transform="translate(27.888 39.776)" fill="#fec9a3"/>
      <path id="Trazado_129076" data-name="Trazado 129076" d="M39.4,400h4.054l3.243,5.675,1.622.811-4.054,2.432-3.243-5.675H35.351L32.108,407.3H25.622L24,408.919v-4.865h5.675L32.919,400Z" transform="translate(-7.189 -345.083)" fill="#4d5e78"/>
      <path id="Trazado_129077" data-name="Trazado 129077" d="M63.513,272H60.27l-.811,4.054H42.432L40,283.351h3.243l1.622-4.054h3.513L47.3,284.972h6.486l1.081-5.675h7.027Z" transform="translate(-21.568 -230.055)" fill="#348fd9"/>
      <path id="Trazado_129078" data-name="Trazado 129078" d="M394.036,391.6l-7.6-7.6L384,386.432l7.6,7.6a1.72,1.72,0,1,0,2.432-2.432Z" transform="translate(-330.704 -330.704)" fill="#29c4bb"/>
      <circle id="Elipse_4860" data-name="Elipse 4860" cx="12.218" cy="12.218" r="12.218" transform="translate(34.492 35.153)" fill="#29c4bb"/>
      <circle id="Elipse_4861" data-name="Elipse 4861" cx="8.916" cy="8.916" r="8.916" transform="translate(37.795 38.455)" fill="#5ac6d4"/>
      <ellipse id="Elipse_4862" data-name="Elipse 4862" cx="6.274" cy="6.604" rx="6.274" ry="6.604" transform="translate(40.436 41.097)" fill="#60d1e0"/>
      <path id="Trazado_129079" data-name="Trazado 129079" d="M232,292.054c4.313-5.405,13.524-5.405,17.837,0C245.524,297.459,236.313,297.459,232,292.054Z" transform="translate(-194.109 -244.434)" fill="#e0e0de"/>
      <path id="Trazado_129080" data-name="Trazado 129080" d="M288.1,292.052a4.054,4.054,0,1,1-.876-2.516A4.054,4.054,0,0,1,288.1,292.052Z" transform="translate(-237.239 -244.432)" fill="#348fd9"/>
      <path id="Trazado_129081" data-name="Trazado 129081" d="M294.2,305.686a4.054,4.054,0,0,1-7.421,2.259,47.336,47.336,0,0,0,6.545-4.776A4.036,4.036,0,0,1,294.2,305.686Z" transform="translate(-243.337 -258.066)" fill="#3086cd"/>
      <circle id="Elipse_4863" data-name="Elipse 4863" cx="1.651" cy="1.651" r="1.651" transform="translate(45.06 45.72)" fill="#2a71ad"/>
      <path id="Trazado_129082" data-name="Trazado 129082" d="M286.7,27.243V40.216a3.243,3.243,0,0,1-3.243,3.243h-5.675l-4.865,4.865V43.459h-5.675A3.237,3.237,0,0,1,264,40.216V27.243A3.243,3.243,0,0,1,267.243,24h16.216a3.241,3.241,0,0,1,3.243,3.243Z" transform="translate(-222.866 -7.189)" fill="#fee734"/>
      <path id="Trazado_129083" data-name="Trazado 129083" d="M307.545,31.305V44.278a3.243,3.243,0,0,1-3.243,3.243h-5.675l-4.865,4.865V47.521h-5.675a3.274,3.274,0,0,1-.892-.124A60.789,60.789,0,0,0,305.965,28.52,3.244,3.244,0,0,1,307.545,31.305Z" transform="translate(-243.709 -11.251)" fill="#cbb829"/>
      <path id="Trazado_129084" data-name="Trazado 129084" d="M16.5,41.883a.811.811,0,0,0,.884-.176l1.384-1.384h6.15a.811.811,0,0,0,.633-.3l3-3.75h4.815L34.755,38.7l1.409-.8-1.622-2.842a.811.811,0,0,0-.7-.409H28.162a.811.811,0,0,0-.633.3l-3,3.75h-6.1a.811.811,0,0,0-.573.237l-.237.237v-2.1h4.865a.811.811,0,0,0,.633-.3l3-3.75H35.8l1.62,2.835,1.408-.8-1.853-3.243a.811.811,0,0,0-.7-.409H33.195l.77-4.054H38.7V25.729H33.294a.811.811,0,0,0-.8.66L31.544,31.4H26.709l.9-4.713a.811.811,0,0,0-.8-.962H23.3a.811.811,0,0,0-.753.51l-1.418,3.544H19.557l1.892-5.675H37.891a.811.811,0,0,0,.8-.652l.649-3.243-1.59-.318-.518,2.591H33.4a3.222,3.222,0,0,0,.436-1.622V19.243a3.243,3.243,0,1,0-6.486,0v1.622a3.222,3.222,0,0,0,.436,1.622H20.865a.811.811,0,0,0-.769.554l-2.432,7.3a.811.811,0,0,0,.769,1.067h3.243a.811.811,0,0,0,.753-.51l1.418-3.544h1.982l-.858,4.515L22.1,35.459H16.811a.811.811,0,0,0-.811.811v4.865a.811.811,0,0,0,.5.749ZM28.972,20.865V19.243a1.622,1.622,0,0,1,3.243,0v1.622a1.622,1.622,0,0,1-3.243,0Z"/>
      <path id="Trazado_129085" data-name="Trazado 129085" d="M41.5,261.977l-1.4-.7-.341-.6-1.408.8.463.811a.811.811,0,0,0,.341.323l.3.15-2.078,1.247-2.832-4.956a.811.811,0,0,0-.7-.409H28.162a.811.811,0,0,0-.633.3l-3,3.75h-6.1a.811.811,0,0,0-.573.237l-.237.238v-2.1h4.865a.811.811,0,0,0,.633-.3l3-3.75h8.529V255.4H33.2l.617-3.084L32.231,252l-.68,3.4H26.709l.9-4.713a.811.811,0,0,0-.8-.962H23.3a.811.811,0,0,0-.753.51l-1.418,3.544H19.557l1.892-5.675H33.026v-1.1a3.229,3.229,0,0,0,.811-2.142v-1.622a3.243,3.243,0,1,0-6.486,0v1.622a3.222,3.222,0,0,0,.436,1.622H20.865a.811.811,0,0,0-.769.554l-2.432,7.3a.811.811,0,0,0,.769,1.067h3.243a.811.811,0,0,0,.753-.51l1.418-3.544h1.982l-.858,4.515L22.1,259.459H16.811a.811.811,0,0,0-.811.811v4.865a.811.811,0,0,0,1.384.573l1.384-1.384h6.15a.811.811,0,0,0,.633-.3l3-3.75h4.815l3.01,5.267a.811.811,0,0,0,1.121.293l4.054-2.432a.811.811,0,0,0-.055-1.42ZM28.972,244.865v-1.622a1.622,1.622,0,1,1,3.243,0v1.622a1.622,1.622,0,0,1-3.243,0Z" transform="translate(0 -201.298)"/>
      <path id="Trazado_129086" data-name="Trazado 129086" d="M216.025,237.36l-.061.062a12.962,12.962,0,0,0-1.879-15.958l-1.146,1.146a11.35,11.35,0,1,1-14.072-1.582L198,219.656a12.971,12.971,0,1,0,14.591,21.428l5.838,5.837a2.531,2.531,0,1,0,3.579-3.579Zm4.193,8.681a.9.9,0,0,1-.643-.266l-5.736-5.736a13.076,13.076,0,0,0,1.229-1.342l5.792,5.792a.909.909,0,0,1-.642,1.552Z" transform="translate(-158.102 -183.016)"/>
      <circle id="Elipse_4864" data-name="Elipse 4864" cx="1.651" cy="1.651" r="1.651" transform="translate(45.06 45.72)"/>
      <path id="Trazado_129087" data-name="Trazado 129087" d="M233.721,233.622c.236,0,.474.01.707.03l.139-1.616c-.28-.024-.565-.036-.847-.036a9.729,9.729,0,1,0,6.771,2.743l-1.129,1.164a8.052,8.052,0,0,1,2.147,3.565,12.53,12.53,0,0,0-7.787-2.607h-.114a12.525,12.525,0,0,0-7.672,2.6A8.121,8.121,0,0,1,233.721,233.622Zm0,16.216a8.121,8.121,0,0,1-7.785-5.847,12.519,12.519,0,0,0,7.772,2.6h.013a12.52,12.52,0,0,0,7.784-2.6A8.121,8.121,0,0,1,233.721,249.837Zm-.028-11.35h.068a3.235,3.235,0,1,1-.068,0Zm7.878,3.243a9.871,9.871,0,0,1-3.66,2.468,4.849,4.849,0,0,0,0-4.933,9.872,9.872,0,0,1,3.658,2.465Zm-12.041-2.466a4.849,4.849,0,0,0,0,4.933,9.872,9.872,0,0,1-3.66-2.468A9.878,9.878,0,0,1,229.53,239.264Z" transform="translate(-186.911 -194.109)"/>
      <path id="Trazado_129088" data-name="Trazado 129088" d="M276.269,16H260.054A4.058,4.058,0,0,0,256,20.054V33.026a4.058,4.058,0,0,0,4.054,4.054h4.865v4.054a.811.811,0,0,0,1.384.573l4.627-4.627h5.34a4.058,4.058,0,0,0,4.054-4.054V20.054A4.058,4.058,0,0,0,276.269,16ZM278.7,33.026a2.435,2.435,0,0,1-2.432,2.432h-5.675a.811.811,0,0,0-.573.237l-3.481,3.481V36.27a.811.811,0,0,0-.811-.811h-5.675a2.435,2.435,0,0,1-2.432-2.432V20.054a2.435,2.435,0,0,1,2.432-2.432h16.216a2.435,2.435,0,0,1,2.432,2.432Z" transform="translate(-215.677 0)"/>
      <path id="Trazado_129089" data-name="Trazado 129089" d="M289.622,65.189l1.622-2.162,1.784,2.378a.811.811,0,0,0,1.323-.037l2.641-3.961,3.359,4.031a.811.811,0,0,0,.623.292c.025,0,.051,0,.076,0a.811.811,0,0,0,.633-.413l4.054-7.3-1.417-.787-3.479,6.263-3.3-3.956a.811.811,0,0,0-1.3.069l-2.608,3.911-1.745-2.326a.811.811,0,0,0-1.3,0l-.973,1.3V56H288V68.162a.811.811,0,0,0,.811.811h17.026V67.351H289.622Z" transform="translate(-244.433 -35.946)"/>
    </g>
  </g>
</svg>
