<svg xmlns="http://www.w3.org/2000/svg" width="90.773" height="90.773" viewBox="0 0 90.773 90.773">
  <g id="Grupo_157068" data-name="Grupo 157068" transform="translate(6399 6571)">
    <circle id="Elipse_4762" data-name="Elipse 4762" cx="45.387" cy="45.387" r="45.387" transform="translate(-6399 -6571)" fill="#b0c8cb"/>
    <g id="Grupo_156595" data-name="Grupo 156595" transform="translate(-6385.246 -6555.413)">
      <path id="Trazado_127053" data-name="Trazado 127053" d="M15.375,123.6c.416.093.513-.1.509-.492-.011-.974.006-.992,1.015-.986.375,0,.492-.114.485-.485-.007-.346-.07-.507-.469-.505-1.011,0-1.037-.017-1.026-1.026,0-.457-.219-.465-.558-.469s-.514.053-.514.459c0,1.022-.021,1.041-1.019,1.037-.386,0-.478.138-.479.5s.091.5.477.494c1.018-.006,1.042.013,1.02.978-.011.448.155.579.561.5" transform="translate(44.792 -83.878)" fill="#29c4bb"/>
      <path id="Trazado_127054" data-name="Trazado 127054" d="M213.5,151.159c-.373-.071-.579.052-.518.474.051.353-.071.55-.461.489s-.522.081-.525.492c0,.431.173.53.54.481.351-.047.462.105.455.455-.011.547.328.757.857.591.251-.079.2-.279.18-.437-.044-.432.055-.7.565-.611.395.067.419-.181.418-.484s-.013-.548-.414-.486c-.432.067-.636-.091-.564-.547.068-.436-.211-.455-.533-.417" transform="translate(-211.994 -104.948)" fill="#29c4bb"/>
      <path id="Trazado_127055" data-name="Trazado 127055" d="M207.478,69.132c-.1.416.094.558.484.492.422-.071.594.1.52.521s.1.5.5.507.558-.116.488-.511c-.075-.42.1-.594.518-.515s.471-.145.487-.509c.019-.427-.147-.539-.519-.474-.4.071-.555-.1-.487-.492.066-.378-.056-.531-.477-.516-.371.013-.586.066-.506.491s-.105.586-.52.516c-.39-.066-.58.074-.483.49" transform="translate(-204.437 -61.871)" fill="#010000"/>
      <path id="Trazado_127056" data-name="Trazado 127056" d="M51.8,186.5c-.091.388.1.53.488.46.455-.082.563.155.5.538-.072.426.134.493.509.49.358,0,.55-.083.475-.469-.1-.507.155-.631.591-.556s.427-.206.428-.513-.006-.549-.411-.47c-.544.108-.683-.154-.61-.641.07-.466-.285-.332-.522-.346s-.531-.047-.458.357c.09.5-.085.732-.614.63-.442-.085-.388.223-.375.519" transform="translate(-4.069 -127.272)" fill="#010000"/>
      <path id="Trazado_127057" data-name="Trazado 127057" d="M124.759,17.292c.1-.443-.141-.529-.5-.475s-.524-.1-.467-.47-.053-.539-.479-.53c-.392.008-.571.109-.5.512s-.121.547-.507.489c-.358-.054-.538.032-.54.47s.167.569.558.507c.413-.066.553.122.489.507-.072.432.16.482.524.49.389.008.516-.138.458-.495-.062-.391.082-.57.49-.5s.569-.1.48-.5" transform="translate(-94.9 -15.817)" fill="#29c4bb"/>
    </g>
    <g id="_30-netflix" data-name="30-netflix" transform="translate(-6379.45 -6550.002)">
      <path id="Trazado_129046" data-name="Trazado 129046" d="M41.613,39l2.095,4.19H6L8.095,39Z" transform="translate(0.285 1.661)" fill="#aab6da"/>
      <path id="Trazado_129047" data-name="Trazado 129047" d="M49.183,7.095V38.519a2.1,2.1,0,0,1-2.095,2.095H3.095A2.1,2.1,0,0,1,1,38.519V7.095A2.1,2.1,0,0,1,3.095,5H47.088a2.1,2.1,0,0,1,2.095,2.095ZM32.424,34.329V11.285H27.186V21.529L23,11.285H17.759v22.8A21.33,21.33,0,0,1,23,33.3V24l3.844,9.333a19.323,19.323,0,0,1,5.269,1Z" transform="translate(0.047 0.047)" fill="#63677f"/>
      <path id="Trazado_129048" data-name="Trazado 129048" d="M26.427,21.244l5.237,12.8H31.35a19.322,19.322,0,0,0-5.269-1l-3.844-9.333L17,11h5.237Z" transform="translate(0.807 0.332)" fill="#ef4e74"/>
      <path id="Trazado_129049" data-name="Trazado 129049" d="M22.237,23.716v9.3A21.329,21.329,0,0,0,17,33.8V11Z" transform="translate(0.807 0.332)" fill="#d9476a"/>
      <path id="Trazado_129050" data-name="Trazado 129050" d="M31.237,11V34.044L26,21.244V11Z" transform="translate(1.234 0.332)" fill="#d9476a"/>
      <path id="Trazado_129051" data-name="Trazado 129051" d="M41.566,39H8.047L7,41.095H42.613Z" transform="translate(0.332 1.661)" fill="#8d92b2"/>
      <path id="Trazado_129052" data-name="Trazado 129052" d="M47.135,4H3.142A3.142,3.142,0,0,0,0,7.142V38.566a3.142,3.142,0,0,0,3.142,3.142H6.685L5.347,44.383A1.047,1.047,0,0,0,6.285,45.9H43.993a1.047,1.047,0,0,0,.943-1.516l-1.343-2.674h3.542a3.142,3.142,0,0,0,3.142-3.142V7.142A3.142,3.142,0,0,0,47.135,4ZM7.98,43.8l1.047-2.095H41.251L42.3,43.8Zm40.2-5.237a1.047,1.047,0,0,1-1.047,1.047H3.142a1.047,1.047,0,0,1-1.047-1.047V7.142A1.047,1.047,0,0,1,3.142,6.095H47.135a1.047,1.047,0,0,1,1.047,1.047Z" fill="#010000"/>
      <path id="Trazado_129053" data-name="Trazado 129053" d="M31.712,10H26.475a1.047,1.047,0,0,0-1.047,1.047v4.914L23.255,10.65a1.047,1.047,0,0,0-.97-.65H17.047a1.031,1.031,0,0,0-1.04,1.047H16v22.8A1.047,1.047,0,0,0,17.047,34.9a1.062,1.062,0,0,0,.3-.044,20.237,20.237,0,0,1,4.974-.743,1.047,1.047,0,0,0,1.009-1.047V29.057L25.16,33.5a1.047,1.047,0,0,0,.9.646,18.435,18.435,0,0,1,4.975.932,1.048,1.048,0,0,0,.362.065h.314a1.032,1.032,0,0,0,1.04-1.047h.007V11.047A1.047,1.047,0,0,0,31.712,10Zm-4.19,2.095h3.142V28.764l-3.142-7.682ZM21.237,32.073a23.385,23.385,0,0,0-3.142.432V16.341l3.142,7.63Zm5.614.028-8.24-20.006h2.97l3.846,9.4v.023h.009l.068.167,4.457,10.894a22.748,22.748,0,0,0-3.11-.481Z" transform="translate(0.759 0.285)" fill="#010000"/>
    </g>
  </g>
</svg>
