<svg xmlns="http://www.w3.org/2000/svg" width="90.773" height="90.773" viewBox="0 0 90.773 90.773">
  <g id="Grupo_157069" data-name="Grupo 157069" transform="translate(6399 6571)">
    <circle id="Elipse_4762" data-name="Elipse 4762" cx="45.387" cy="45.387" r="45.387" transform="translate(-6399 -6571)" fill="#b0c8cb"/>
    <g id="Grupo_156595" data-name="Grupo 156595" transform="translate(-6385.246 -6555.413)">
      <path id="Trazado_127053" data-name="Trazado 127053" d="M15.375,123.6c.416.093.513-.1.509-.492-.011-.974.006-.992,1.015-.986.375,0,.492-.114.485-.485-.007-.346-.07-.507-.469-.505-1.011,0-1.037-.017-1.026-1.026,0-.457-.219-.465-.558-.469s-.514.053-.514.459c0,1.022-.021,1.041-1.019,1.037-.386,0-.478.138-.479.5s.091.5.477.494c1.018-.006,1.042.013,1.02.978-.011.448.155.579.561.5" transform="translate(44.792 -83.878)" fill="#29c4bb"/>
      <path id="Trazado_127054" data-name="Trazado 127054" d="M213.5,151.159c-.373-.071-.579.052-.518.474.051.353-.071.55-.461.489s-.522.081-.525.492c0,.431.173.53.54.481.351-.047.462.105.455.455-.011.547.328.757.857.591.251-.079.2-.279.18-.437-.044-.432.055-.7.565-.611.395.067.419-.181.418-.484s-.013-.548-.414-.486c-.432.067-.636-.091-.564-.547.068-.436-.211-.455-.533-.417" transform="translate(-211.994 -104.948)" fill="#29c4bb"/>
      <path id="Trazado_127055" data-name="Trazado 127055" d="M207.478,69.132c-.1.416.094.558.484.492.422-.071.594.1.52.521s.1.5.5.507.558-.116.488-.511c-.075-.42.1-.594.518-.515s.471-.145.487-.509c.019-.427-.147-.539-.519-.474-.4.071-.555-.1-.487-.492.066-.378-.056-.531-.477-.516-.371.013-.586.066-.506.491s-.105.586-.52.516c-.39-.066-.58.074-.483.49" transform="translate(-204.437 -61.871)" fill="#010000"/>
      <path id="Trazado_127056" data-name="Trazado 127056" d="M51.8,186.5c-.091.388.1.53.488.46.455-.082.563.155.5.538-.072.426.134.493.509.49.358,0,.55-.083.475-.469-.1-.507.155-.631.591-.556s.427-.206.428-.513-.006-.549-.411-.47c-.544.108-.683-.154-.61-.641.07-.466-.285-.332-.522-.346s-.531-.047-.458.357c.09.5-.085.732-.614.63-.442-.085-.388.223-.375.519" transform="translate(-4.069 -127.272)" fill="#010000"/>
      <path id="Trazado_127057" data-name="Trazado 127057" d="M124.759,17.292c.1-.443-.141-.529-.5-.475s-.524-.1-.467-.47-.053-.539-.479-.53c-.392.008-.571.109-.5.512s-.121.547-.507.489c-.358-.054-.538.032-.54.47s.167.569.558.507c.413-.066.553.122.489.507-.072.432.16.482.524.49.389.008.516-.138.458-.495-.062-.391.082-.57.49-.5s.569-.1.48-.5" transform="translate(-94.9 -15.817)" fill="#29c4bb"/>
    </g>
    <g id="blog" transform="translate(-6377.536 -6550.081)">
      <g id="Grupo_157079" data-name="Grupo 157079" transform="translate(0.806 0.706)">
        <path id="Trazado_129054" data-name="Trazado 129054" d="M211.4,376.626H201.229l1.238-9.392h7.7Z" transform="translate(-183.003 -333.373)" fill="#b6c4cf"/>
        <path id="Trazado_129055" data-name="Trazado 129055" d="M204.821,367.234l-1.238,9.392H201.23l1.238-9.392Z" transform="translate(-183.004 -333.373)" fill="#9facba"/>
        <path id="Trazado_129056" data-name="Trazado 129056" d="M171.584,456.912H153.017a.376.376,0,0,1-.376-.376V453.68a1.694,1.694,0,0,1,1.694-1.694h15.932a1.694,1.694,0,0,1,1.694,1.694v2.855A.376.376,0,0,1,171.584,456.912Z" transform="translate(-138.988 -410.148)" fill="#f2fbff"/>
        <path id="Trazado_129057" data-name="Trazado 129057" d="M154.993,453.678v2.856a.376.376,0,0,0,.377.377h-2.353a.376.376,0,0,1-.377-.377v-2.856a1.694,1.694,0,0,1,1.694-1.694h2.353A1.694,1.694,0,0,0,154.993,453.678Z" transform="translate(-138.988 -410.146)" fill="#d8ecfe"/>
        <path id="Trazado_129058" data-name="Trazado 129058" d="M54.342,73.752V95.737L52.15,97.354H10.26L7.6,95.737V73.752A1.694,1.694,0,0,1,9.29,72.058H52.648A1.694,1.694,0,0,1,54.342,73.752Z" transform="translate(-7.596 -65.981)" fill="#b3dafe"/>
        <path id="Trazado_129059" data-name="Trazado 129059" d="M7.6,95.737V73.752A1.694,1.694,0,0,1,9.29,72.058h2.353a1.694,1.694,0,0,0-1.694,1.694V95.737l-1.156,1.34Z" transform="translate(-7.596 -65.981)" fill="#8ac9fe"/>
        <path id="Trazado_129060" data-name="Trazado 129060" d="M54.342,323.628v4.584a1.694,1.694,0,0,1-1.694,1.694H9.29A1.694,1.694,0,0,1,7.6,328.212v-4.584Z" transform="translate(-7.596 -293.872)" fill="#f2fbff"/>
        <path id="Trazado_129061" data-name="Trazado 129061" d="M132.457,23.209V44.98H103.826V23.209l1.513-1.515,25.119-.2Z" transform="translate(-94.768 -20.179)" fill="#f2fbff"/>
        <path id="Trazado_129062" data-name="Trazado 129062" d="M106.179,28.185v21.77h-2.353V28.185l1.165-1.2Z" transform="translate(-94.768 -25.155)" fill="#d8ecfe"/>
        <path id="Trazado_129063" data-name="Trazado 129063" d="M132.457,8.628v1.9H103.826v-1.9a1.13,1.13,0,0,1,1.129-1.13h26.372A1.13,1.13,0,0,1,132.457,8.628Z" transform="translate(-94.768 -7.498)" fill="#b3dafe"/>
        <path id="Trazado_129064" data-name="Trazado 129064" d="M107.309,7.5a1.13,1.13,0,0,0-1.13,1.13v1.9h-2.353v-1.9a1.13,1.13,0,0,1,1.13-1.13Z" transform="translate(-94.768 -7.498)" fill="#8ac9fe"/>
        <path id="Trazado_129065" data-name="Trazado 129065" d="M11.643,329.906H9.29A1.694,1.694,0,0,1,7.6,328.212v-4.584H9.949v4.584A1.694,1.694,0,0,0,11.643,329.906Z" transform="translate(-7.596 -293.872)" fill="#d8ecfe"/>
        <path id="Trazado_129066" data-name="Trazado 129066" d="M336.7,34.786V49.578a.378.378,0,0,1-.049.186L335.21,52.3a.188.188,0,0,1-.327,0l-1.442-2.539a.378.378,0,0,1-.049-.186V34.786a1.654,1.654,0,0,1,3.309,0Z" transform="translate(-302.726 -30.719)" fill="#fe99a0"/>
        <path id="Trazado_129067" data-name="Trazado 129067" d="M336.7,34.786v1.268h-3.309V34.786a1.654,1.654,0,0,1,3.309,0Z" transform="translate(-302.726 -30.719)" fill="#b6c4cf"/>
        <path id="Trazado_129068" data-name="Trazado 129068" d="M153.913,78.951h-6.245a.376.376,0,0,1-.376-.376V70.857a.377.377,0,0,1,.376-.377h6.245a.377.377,0,0,1,.376.377v7.718A.376.376,0,0,1,153.913,78.951Z" transform="translate(-134.142 -64.552)" fill="#c9f6b0"/>
        <path id="Trazado_129069" data-name="Trazado 129069" d="M150.022,78.953h-2.353a.376.376,0,0,1-.377-.377V70.859a.376.376,0,0,1,.377-.377h2.353a.376.376,0,0,0-.376.377v7.718A.376.376,0,0,0,150.022,78.953Z" transform="translate(-134.143 -64.554)" fill="#9be69d"/>
      </g>
      <g id="Grupo_157080" data-name="Grupo 157080" transform="translate(0.101 0)">
        <path id="Trazado_129070" data-name="Trazado 129070" d="M47.552,10.253a.706.706,0,0,0,.706-.706V8.477a2.4,2.4,0,0,0-2.4-2.4H39.2V1.835A1.838,1.838,0,0,0,37.366,0H10.993A1.838,1.838,0,0,0,9.158,1.835V6.077H2.5a2.4,2.4,0,0,0-2.4,2.4V35.045a2.4,2.4,0,0,0,2.4,2.4H4.129a.706.706,0,0,0,0-1.412H2.5a.989.989,0,0,1-.988-.988V31.168H46.846v3.877a.989.989,0,0,1-.988.988H7.423a.706.706,0,0,0,0,1.412H19.239l-.579,4.392H16.213a2.4,2.4,0,0,0-2.4,2.4v2.855A1.084,1.084,0,0,0,14.9,48.176H33.463a1.084,1.084,0,0,0,1.082-1.082V44.238a2.4,2.4,0,0,0-2.4-2.4H29.7l-.579-4.392H45.858a2.4,2.4,0,0,0,2.4-2.4v-22.2a.706.706,0,1,0-1.412,0V29.756H1.513V8.477A.989.989,0,0,1,2.5,7.489H9.158V24.8H8.415a.706.706,0,1,0,0,1.412H39.944a.706.706,0,1,0,0-1.412H39.2V7.489h6.657a.989.989,0,0,1,.988.988v1.07a.706.706,0,0,0,.706.706ZM33.134,44.238v2.526H15.225V44.238a.989.989,0,0,1,.988-.988H32.146A.989.989,0,0,1,33.134,44.238Zm-4.859-2.4h-8.19l.579-4.392H27.7ZM10.993,1.412H37.366a.424.424,0,0,1,.424.424V3.03H34.716a2.356,2.356,0,0,0-3.18,0H10.57V1.835a.424.424,0,0,1,.424-.424Zm23.081,3.8h-1.9V4.773a.948.948,0,0,1,1.9,0Zm-1.9,1.412h1.9V19.478l-.948,1.67-.948-1.67ZM10.57,24.8V4.442H30.79a2.365,2.365,0,0,0-.024.331V5.928H23.824a.706.706,0,1,0,0,1.412h6.942V8.752H23.824a.706.706,0,1,0,0,1.412h6.942v1.412H23.824a.706.706,0,1,0,0,1.412h6.942V14.4H23.824a.706.706,0,1,0,0,1.412h6.942v2.295H13.955a.706.706,0,1,0,0,1.412H30.766v.046a1.085,1.085,0,0,0,.141.535l1.442,2.539a.894.894,0,0,0,1.555,0L35.345,20.1h0a1.085,1.085,0,0,0,.141-.534V4.773a2.366,2.366,0,0,0-.024-.331h2.326V24.8H10.57Z" transform="translate(-0.101 0)"/>
        <path id="Trazado_129071" data-name="Trazado 129071" d="M231.012,350.889a.706.706,0,1,0,0-1.412h-4.2a.706.706,0,1,0,0,1.412Z" transform="translate(-204.834 -316.582)"/>
        <path id="Trazado_129072" data-name="Trazado 129072" d="M148.076,222.36h-7.585a.706.706,0,0,0,0,1.412h7.585a.706.706,0,0,0,0-1.412Z" transform="translate(-126.637 -201.43)"/>
        <path id="Trazado_129073" data-name="Trazado 129073" d="M140.866,72.862h6.245a1.084,1.084,0,0,0,1.082-1.082V64.061a1.084,1.084,0,0,0-1.082-1.082h-6.245a1.084,1.084,0,0,0-1.082,1.082V71.78A1.084,1.084,0,0,0,140.866,72.862Zm.329-8.471h5.586V71.45H141.2Z" transform="translate(-126.636 -57.051)"/>
      </g>
    </g>
  </g>
</svg>
