<svg xmlns="http://www.w3.org/2000/svg" width="90.773" height="90.773" viewBox="0 0 90.773 90.773">
  <g id="Grupo_157067" data-name="Grupo 157067" transform="translate(6399 6571)">
    <circle id="Elipse_4762" data-name="Elipse 4762" cx="45.387" cy="45.387" r="45.387" transform="translate(-6399 -6571)" fill="#b0c8cb"/>
    <g id="Grupo_156595" data-name="Grupo 156595" transform="translate(-6385.246 -6555.413)">
      <path id="Trazado_127053" data-name="Trazado 127053" d="M15.375,123.6c.416.093.513-.1.509-.492-.011-.974.006-.992,1.015-.986.375,0,.492-.114.485-.485-.007-.346-.07-.507-.469-.505-1.011,0-1.037-.017-1.026-1.026,0-.457-.219-.465-.558-.469s-.514.053-.514.459c0,1.022-.021,1.041-1.019,1.037-.386,0-.478.138-.479.5s.091.5.477.494c1.018-.006,1.042.013,1.02.978-.011.448.155.579.561.5" transform="translate(44.792 -83.878)" fill="#29c4bb"/>
      <path id="Trazado_127054" data-name="Trazado 127054" d="M213.5,151.159c-.373-.071-.579.052-.518.474.051.353-.071.55-.461.489s-.522.081-.525.492c0,.431.173.53.54.481.351-.047.462.105.455.455-.011.547.328.757.857.591.251-.079.2-.279.18-.437-.044-.432.055-.7.565-.611.395.067.419-.181.418-.484s-.013-.548-.414-.486c-.432.067-.636-.091-.564-.547.068-.436-.211-.455-.533-.417" transform="translate(-211.994 -104.948)" fill="#29c4bb"/>
      <path id="Trazado_127055" data-name="Trazado 127055" d="M207.478,69.132c-.1.416.094.558.484.492.422-.071.594.1.52.521s.1.5.5.507.558-.116.488-.511c-.075-.42.1-.594.518-.515s.471-.145.487-.509c.019-.427-.147-.539-.519-.474-.4.071-.555-.1-.487-.492.066-.378-.056-.531-.477-.516-.371.013-.586.066-.506.491s-.105.586-.52.516c-.39-.066-.58.074-.483.49" transform="translate(-204.437 -61.871)" fill="#010000"/>
      <path id="Trazado_127056" data-name="Trazado 127056" d="M51.8,186.5c-.091.388.1.53.488.46.455-.082.563.155.5.538-.072.426.134.493.509.49.358,0,.55-.083.475-.469-.1-.507.155-.631.591-.556s.427-.206.428-.513-.006-.549-.411-.47c-.544.108-.683-.154-.61-.641.07-.466-.285-.332-.522-.346s-.531-.047-.458.357c.09.5-.085.732-.614.63-.442-.085-.388.223-.375.519" transform="translate(-4.069 -127.272)" fill="#010000"/>
      <path id="Trazado_127057" data-name="Trazado 127057" d="M124.759,17.292c.1-.443-.141-.529-.5-.475s-.524-.1-.467-.47-.053-.539-.479-.53c-.392.008-.571.109-.5.512s-.121.547-.507.489c-.358-.054-.538.032-.54.47s.167.569.558.507c.413-.066.553.122.489.507-.072.432.16.482.524.49.389.008.516-.138.458-.495-.062-.391.082-.57.49-.5s.569-.1.48-.5" transform="translate(-94.9 -15.817)" fill="#29c4bb"/>
    </g>
    <g id="_17-google" data-name="17-google" transform="translate(-6376.9 -6547.113)">
      <rect id="Rectángulo_37446" data-name="Rectángulo 37446" width="44" height="44" rx="6" transform="translate(1 1.091)" fill="#e5e6e8"/>
      <path id="Trazado_129031" data-name="Trazado 129031" d="M40.8,1H5.264A4.264,4.264,0,0,0,1,5.264v7.107A15.635,15.635,0,0,0,16.635,28.006H29.427A15.635,15.635,0,0,0,45.062,12.371V5.264A4.264,4.264,0,0,0,40.8,1Z" transform="translate(-0.289 -0.289)" fill="#f2f2f2"/>
      <path id="Trazado_129032" data-name="Trazado 129032" d="M40.8,1H5.264A4.264,4.264,0,0,0,1,5.264V8.107A4.264,4.264,0,0,1,5.264,3.843H40.8a4.264,4.264,0,0,1,4.264,4.264V5.264A4.264,4.264,0,0,0,40.8,1Z" transform="translate(-0.289 -0.289)" fill="#fafafa"/>
      <path id="Trazado_129033" data-name="Trazado 129033" d="M40.8,57.264H5.264A4.264,4.264,0,0,1,1,53v2.843a4.264,4.264,0,0,0,4.264,4.264H40.8a4.264,4.264,0,0,0,4.264-4.264V53A4.264,4.264,0,0,1,40.8,57.264Z" transform="translate(-0.289 -15.334)" fill="#b8b8ba"/>
      <path id="Trazado_129034" data-name="Trazado 129034" d="M39.45,12.2l-4.52,4.52a11.392,11.392,0,0,0-16.09,0L14.32,12.2a17.775,17.775,0,0,1,25.13,0Z" transform="translate(-4.143 -2.025)" fill="#d73d3f"/>
      <path id="Trazado_129035" data-name="Trazado 129035" d="M16.722,34.93,12.2,39.45a17.775,17.775,0,0,1,0-25.13l4.52,4.52a11.392,11.392,0,0,0,0,16.09Z" transform="translate(-2.025 -4.143)" fill="#ffdf64"/>
      <path id="Trazado_129036" data-name="Trazado 129036" d="M44.239,30h6.4c0,6-1.961,10.774-5.131,14.057L40.927,39.48a21.169,21.169,0,0,0,2.6-3.8H35V30Z" transform="translate(-10.126 -8.68)" fill="#4a9bf6"/>
      <path id="Trazado_129037" data-name="Trazado 129037" d="M39.521,47.911a17.333,17.333,0,0,1-12.636,5.131,17.725,17.725,0,0,1-12.565-5.2l4.52-4.52a11.362,11.362,0,0,0,8.045,3.326,10.082,10.082,0,0,0,8.059-3.312Z" transform="translate(-4.143 -12.533)" fill="#28be77"/>
      <g id="Grupo_157078" data-name="Grupo 157078" transform="translate(4.975 11.291)">
        <path id="Trazado_129038" data-name="Trazado 129038" d="M27.371,15.967A11.356,11.356,0,0,0,16,27.338c0,.36.021.715.054,1.066a11.374,11.374,0,0,1,19.362-6.979l4.52-4.52c-.355-.355-.729-.694-1.114-1.018l-3.406,3.406a11.362,11.362,0,0,0-8.045-3.326Z" transform="translate(-9.604 -15.887)" fill="#b8b8ba"/>
        <path id="Trazado_129039" data-name="Trazado 129039" d="M35,38v2.132h7.215c.475-.7.9-1.421,1.313-2.132Z" transform="translate(-15.101 -22.285)" fill="#b8b8ba"/>
        <path id="Trazado_129040" data-name="Trazado 129040" d="M37.4,44.925a17.333,17.333,0,0,1-12.636,5.131,17.756,17.756,0,0,1-17.732-16.7c-.021.355-.035.711-.035,1.066A17.761,17.761,0,0,0,24.767,52.188,17.333,17.333,0,0,0,37.4,47.057C40.572,43.774,42.534,39,42.534,33h-.087A19.048,19.048,0,0,1,37.4,44.925Z" transform="translate(-7 -20.838)" fill="#b8b8ba"/>
      </g>
      <path id="Trazado_129041" data-name="Trazado 129041" d="M7.663,28.068l-1.4-.227c-.078.487-.138.985-.177,1.479l1.417.112c.036-.456.088-.915.163-1.364Z" transform="translate(-1.76 -8.055)"/>
      <path id="Trazado_129042" data-name="Trazado 129042" d="M24.478,13.817a10.593,10.593,0,0,1,7.539,3.121.711.711,0,0,0,1,0l4.523-4.523a.711.711,0,0,0,0-1A18.483,18.483,0,0,0,6.536,20.044l1.379.339a17.006,17.006,0,0,1,4-7.462l3.546,3.546a12.01,12.01,0,0,0,0,16.026L11.932,36.02A16.991,16.991,0,0,1,7.421,24.478H6A18.5,18.5,0,0,0,24.478,42.955c10.88,0,18.478-8.183,18.478-19.9a.711.711,0,0,0-.711-.711H30.163v1.421h11.36a19.231,19.231,0,0,1-4.465,12.286L33.5,32.5a24.558,24.558,0,0,0,2.247-3.4.711.711,0,0,0-.614-1.065H27.32V23.767h1.421V22.346H26.61a.711.711,0,0,0-.711.711v5.685a.711.711,0,0,0,.711.711H33.9c-1.714,2.852-3.958,5.685-9.421,5.685a10.66,10.66,0,1,1,0-21.32Zm8.067,19.732,3.531,3.531a16.449,16.449,0,0,1-11.6,4.454,16.991,16.991,0,0,1-11.541-4.511L16.465,33.5a12.021,12.021,0,0,0,8.013,3.064A10.949,10.949,0,0,0,32.545,33.549Zm3.482-21.626-3.519,3.522a12.05,12.05,0,0,0-16.04.014l-3.544-3.544a17.085,17.085,0,0,1,23.106.008Z" transform="translate(-1.736 -1.736)"/>
      <path id="Trazado_129043" data-name="Trazado 129043" d="M44.062,40.509a3.558,3.558,0,0,1-3.553,3.553H4.975a3.558,3.558,0,0,1-3.553-3.553V4.975A3.558,3.558,0,0,1,4.975,1.421H6.4V0H4.975A4.98,4.98,0,0,0,0,4.975V40.509a4.981,4.981,0,0,0,4.975,4.975H40.509a4.981,4.981,0,0,0,4.975-4.975V39.087H44.062Z"/>
      <path id="Trazado_129044" data-name="Trazado 129044" d="M44.848,0H15V1.421H44.848c3.092,0,3.553,4.008,3.553,6.4V37.666h1.421V7.817C49.823.762,46.341,0,44.848,0Z" transform="translate(-4.34)"/>
      <path id="Trazado_129045" data-name="Trazado 129045" d="M11,0h1.421V1.421H11Z" transform="translate(-3.183)"/>
    </g>
  </g>
</svg>
