<svg xmlns="http://www.w3.org/2000/svg" width="90.773" height="90.773" viewBox="0 0 90.773 90.773">
  <g id="Grupo_157071" data-name="Grupo 157071" transform="translate(6399 6571)">
    <circle id="Elipse_4762" data-name="Elipse 4762" cx="45.387" cy="45.387" r="45.387" transform="translate(-6399 -6571)" fill="#b0c8cb"/>
    <g id="Grupo_156595" data-name="Grupo 156595" transform="translate(-6385.246 -6555.413)">
      <path id="Trazado_127053" data-name="Trazado 127053" d="M15.375,123.6c.416.093.513-.1.509-.492-.011-.974.006-.992,1.015-.986.375,0,.492-.114.485-.485-.007-.346-.07-.507-.469-.505-1.011,0-1.037-.017-1.026-1.026,0-.457-.219-.465-.558-.469s-.514.053-.514.459c0,1.022-.021,1.041-1.019,1.037-.386,0-.478.138-.479.5s.091.5.477.494c1.018-.006,1.042.013,1.02.978-.011.448.155.579.561.5" transform="translate(44.792 -83.878)" fill="#29c4bb"/>
      <path id="Trazado_127054" data-name="Trazado 127054" d="M213.5,151.159c-.373-.071-.579.052-.518.474.051.353-.071.55-.461.489s-.522.081-.525.492c0,.431.173.53.54.481.351-.047.462.105.455.455-.011.547.328.757.857.591.251-.079.2-.279.18-.437-.044-.432.055-.7.565-.611.395.067.419-.181.418-.484s-.013-.548-.414-.486c-.432.067-.636-.091-.564-.547.068-.436-.211-.455-.533-.417" transform="translate(-211.994 -104.948)" fill="#29c4bb"/>
      <path id="Trazado_127055" data-name="Trazado 127055" d="M207.478,69.132c-.1.416.094.558.484.492.422-.071.594.1.52.521s.1.5.5.507.558-.116.488-.511c-.075-.42.1-.594.518-.515s.471-.145.487-.509c.019-.427-.147-.539-.519-.474-.4.071-.555-.1-.487-.492.066-.378-.056-.531-.477-.516-.371.013-.586.066-.506.491s-.105.586-.52.516c-.39-.066-.58.074-.483.49" transform="translate(-204.437 -61.871)" fill="#010000"/>
      <path id="Trazado_127056" data-name="Trazado 127056" d="M51.8,186.5c-.091.388.1.53.488.46.455-.082.563.155.5.538-.072.426.134.493.509.49.358,0,.55-.083.475-.469-.1-.507.155-.631.591-.556s.427-.206.428-.513-.006-.549-.411-.47c-.544.108-.683-.154-.61-.641.07-.466-.285-.332-.522-.346s-.531-.047-.458.357c.09.5-.085.732-.614.63-.442-.085-.388.223-.375.519" transform="translate(-4.069 -127.272)" fill="#010000"/>
      <path id="Trazado_127057" data-name="Trazado 127057" d="M124.759,17.292c.1-.443-.141-.529-.5-.475s-.524-.1-.467-.47-.053-.539-.479-.53c-.392.008-.571.109-.5.512s-.121.547-.507.489c-.358-.054-.538.032-.54.47s.167.569.558.507c.413-.066.553.122.489.507-.072.432.16.482.524.49.389.008.516-.138.458-.495-.062-.391.082-.57.49-.5s.569-.1.48-.5" transform="translate(-94.9 -15.817)" fill="#29c4bb"/>
    </g>
    <g id="Fill_Outline" data-name="Fill Outline" transform="translate(-6379.813 -6551.363)">
      <path id="Trazado_129090" data-name="Trazado 129090" d="M6,33H28.587V50.747H6Z" transform="translate(-0.773 -6.186)" fill="#aae1f9"/>
      <path id="Trazado_129091" data-name="Trazado 129091" d="M3,55H30.427v1.613A3.227,3.227,0,0,1,27.2,59.84H6.227A3.227,3.227,0,0,1,3,56.613Z" transform="translate(-0.193 -10.439)" fill="#f9e109"/>
      <path id="Trazado_129092" data-name="Trazado 129092" d="M9.227,39.453V33H6V50.747H28.587V47.52H17.294A8.067,8.067,0,0,1,9.227,39.453Z" transform="translate(-0.773 -6.186)" fill="#57b7eb"/>
      <path id="Trazado_129093" data-name="Trazado 129093" d="M7.84,57.42A2.42,2.42,0,0,1,5.42,55H3v1.613A3.227,3.227,0,0,0,6.227,59.84H27.2a3.227,3.227,0,0,0,3.114-2.42Z" transform="translate(-0.193 -10.439)" fill="#fcbc04"/>
      <rect id="Rect치ngulo_37449" data-name="Rect치ngulo 37449" width="13" height="12" rx="2" transform="translate(37 28.341)" fill="#dff6f5"/>
      <ellipse id="Elipse_4865" data-name="Elipse 4865" cx="2.5" cy="3" rx="2.5" ry="3" transform="translate(41 31.341)" fill="#57b7eb"/>
      <path id="Trazado_129094" data-name="Trazado 129094" d="M47.42,38.033V34h-.807A1.613,1.613,0,0,0,45,35.613v9.68a1.613,1.613,0,0,0,1.613,1.613h9.68a1.613,1.613,0,0,0,1.613-1.613v-.807H53.873A6.453,6.453,0,0,1,47.42,38.033Z" transform="translate(-8.313 -6.38)" fill="#b4eae7"/>
      <circle id="Elipse_4866" data-name="Elipse 4866" cx="1" cy="1" r="1" transform="translate(43 32.341)" fill="#aae1f9"/>
      <path id="Trazado_129095" data-name="Trazado 129095" d="M3,12h9.68V24.907H3Z" transform="translate(-0.193 -2.127)" fill="#dff6f5"/>
      <ellipse id="Elipse_4867" data-name="Elipse 4867" cx="7" cy="6" rx="7" ry="6" transform="translate(15 2.341)" fill="#1169e3"/>
      <path id="Trazado_129096" data-name="Trazado 129096" d="M25,11.84V7l4.84,2.42Z" transform="translate(-4.446 -1.16)" fill="#aae1f9"/>
      <path id="Trazado_129097" data-name="Trazado 129097" d="M27.893,12.69A6.453,6.453,0,0,1,21.44,6.236a6.373,6.373,0,0,1,.847-3.186,6.453,6.453,0,1,0,8.833,8.833,6.373,6.373,0,0,1-3.227.807Z" transform="translate(-3.306 -0.396)" fill="#0d54b5"/>
      <rect id="Rect치ngulo_37450" data-name="Rect치ngulo 37450" width="13" height="13" rx="2" transform="translate(37 2.341)" fill="#aae1f9"/>
      <path id="Trazado_129098" data-name="Trazado 129098" d="M47.42,7.033V3h-.807A1.613,1.613,0,0,0,45,4.613v9.68a1.613,1.613,0,0,0,1.613,1.613h9.68a1.613,1.613,0,0,0,1.613-1.613v-.807H53.873A6.453,6.453,0,0,1,47.42,7.033Z" transform="translate(-8.313 -0.387)" fill="#57b7eb"/>
      <path id="Trazado_129099" data-name="Trazado 129099" d="M5.42,17.647V12H3V24.907h9.68v-2.42H10.26A4.84,4.84,0,0,1,5.42,17.647Z" transform="translate(-0.193 -2.127)" fill="#b4eae7"/>
      <path id="Trazado_129100" data-name="Trazado 129100" d="M0,0H3.227V6.453A1.613,1.613,0,0,1,0,6.453Z" transform="matrix(0.866, -0.5, 0.5, 0.866, 15.764, 35.014)" fill="#f8664f"/>
      <path id="Trazado_129101" data-name="Trazado 129101" d="M23.9,44.7,21.859,41.16l-2.8,1.613,1.912,3.307,1.4-.807Z" transform="translate(-3.298 -7.764)" fill="#cc5144"/>
      <path id="Trazado_129102" data-name="Trazado 129102" d="M35.98,35.181,22.193,40.343,18.16,33.358,29.526,24Z" transform="translate(-3.124 -4.446)" fill="#dff6f5"/>
      <path id="Trazado_129103" data-name="Trazado 129103" d="M2.42,0H6.453V8.067H2.42A2.42,2.42,0,0,1,0,5.647V2.42A2.42,2.42,0,0,1,2.42,0Z" transform="matrix(0.866, -0.5, 0.5, 0.866, 9.451, 32.139)" fill="#f89c8d"/>
      <path id="Trazado_129104" data-name="Trazado 129104" d="M1.613,0H3.227V3.227H1.613A1.613,1.613,0,1,1,1.613,0Z" transform="matrix(0.866, -0.5, 0.5, 0.866, 7.861, 35.847)" fill="#cc5144"/>
      <path id="Trazado_129105" data-name="Trazado 129105" d="M23.893,40.137a1.686,1.686,0,0,0-.242.113l-1.541.887.847,1.468,13.786-5.163L35.735,35.7Z" transform="translate(-3.888 -6.708)" fill="#b4eae7"/>
      <path id="Trazado_129106" data-name="Trazado 129106" d="M19.775,41.828a4.033,4.033,0,0,1-6.018-3.888l-.218.129a2.42,2.42,0,0,0-.887,3.307l1.613,2.791a2.42,2.42,0,0,0,3.307.887l3.493-2.017-.847-1.468Z" transform="translate(-1.997 -7.141)" fill="#f8664f"/>
      <g id="Grupo_157081" data-name="Grupo 157081" transform="translate(2 1)">
        <path id="Trazado_129107" data-name="Trazado 129107" d="M30.234,49.747H28.62V41.842a.807.807,0,0,0-1.613,0v7.905H6.033V33.613h6.712a.807.807,0,0,0,0-1.613H5.227a.807.807,0,0,0-.807.807v16.94H2.807A.807.807,0,0,0,2,50.554v1.613A4.033,4.033,0,0,0,6.033,56.2H27.007a4.033,4.033,0,0,0,4.033-4.033V50.554A.807.807,0,0,0,30.234,49.747Zm-.807,2.42a2.42,2.42,0,0,1-2.42,2.42H25.394V53.78a.807.807,0,1,0-1.613,0v.807H9.26V53.78a.807.807,0,1,0-1.613,0v.807H6.033a2.42,2.42,0,0,1-2.42-2.42V51.36H29.427Z" transform="translate(-2 -6.993)" fill="#010000"/>
        <path id="Trazado_129108" data-name="Trazado 129108" d="M53.033,7.613h1.613a.807.807,0,0,0,0-1.613H53.033a2.42,2.42,0,0,0-2.42,2.42v.807h-.807a.807.807,0,0,0,0,1.613h.807v2.42a.807.807,0,1,0,1.613,0V10.84h.807a.807.807,0,1,0,0-1.613h-.807V8.42A.807.807,0,0,1,53.033,7.613Z" transform="translate(-11.086 -1.967)" fill="#010000"/>
        <path id="Trazado_129109" data-name="Trazado 129109" d="M56.1,2H46.42A2.42,2.42,0,0,0,44,4.42V6.033a.807.807,0,1,0,1.613,0V4.42a.807.807,0,0,1,.807-.807H56.1a.807.807,0,0,1,.807.807V14.1a.807.807,0,0,1-.807.807H46.42a.807.807,0,0,1-.807-.807V9.26A.807.807,0,1,0,44,9.26V14.1a2.42,2.42,0,0,0,2.42,2.42H56.1a2.42,2.42,0,0,0,2.42-2.42V4.42A2.42,2.42,0,0,0,56.1,2Z" transform="translate(-10.119 -1.193)" fill="#010000"/>
        <path id="Trazado_129110" data-name="Trazado 129110" d="M49,41.227A3.227,3.227,0,1,0,52.227,38,3.227,3.227,0,0,0,49,41.227Zm4.84,0a1.613,1.613,0,1,1-1.613-1.613A1.613,1.613,0,0,1,53.84,41.227Z" transform="translate(-11.086 -8.153)" fill="#010000"/>
        <path id="Trazado_129111" data-name="Trazado 129111" d="M56.1,33H46.42A2.42,2.42,0,0,0,44,35.42V45.1a2.42,2.42,0,0,0,2.42,2.42H56.1a2.42,2.42,0,0,0,2.42-2.42V43.487a.807.807,0,0,0-1.613,0V45.1a.807.807,0,0,1-.807.807H46.42a.807.807,0,0,1-.807-.807V35.42a.807.807,0,0,1,.807-.807H56.1a.807.807,0,0,1,.807.807v4.84a.807.807,0,0,0,1.613,0V35.42A2.42,2.42,0,0,0,56.1,33Z" transform="translate(-10.119 -7.186)" fill="#010000"/>
        <path id="Trazado_129112" data-name="Trazado 129112" d="M24.379,12.333a.8.8,0,0,0,.791.032l4.84-2.42a.807.807,0,0,0,0-1.436l-4.84-2.42A.807.807,0,0,0,24,6.807v4.84A.807.807,0,0,0,24.379,12.333Zm1.234-4.219L27.84,9.227l-2.226,1.113Z" transform="translate(-6.253 -1.967)" fill="#010000"/>
        <path id="Trazado_129113" data-name="Trazado 129113" d="M25.26,15.52A7.26,7.26,0,1,0,18,8.26,7.26,7.26,0,0,0,25.26,15.52Zm0-12.907A5.647,5.647,0,1,1,19.613,8.26,5.647,5.647,0,0,1,25.26,2.613Z" transform="translate(-5.093 -1)" fill="#010000"/>
        <path id="Trazado_129114" data-name="Trazado 129114" d="M36.807,21.84a.807.807,0,0,0,.645-.323l2.42-3.227a.807.807,0,1,0-1.291-.968l-2.42,3.227a.807.807,0,0,0,.645,1.291Z" transform="translate(-8.573 -4.093)" fill="#010000"/>
        <path id="Trazado_129115" data-name="Trazado 129115" d="M39.161,25.711a.807.807,0,0,0,1.129.161l3.227-2.42a.807.807,0,0,0-.968-1.291l-3.227,2.42a.807.807,0,0,0-.161,1.129Z" transform="translate(-9.153 -5.06)" fill="#010000"/>
        <path id="Trazado_129116" data-name="Trazado 129116" d="M47.626,28.641A.807.807,0,0,0,46.658,28l-4.033.807a.811.811,0,1,0,.161,1.613h.161l4.033-.807a.807.807,0,0,0,.645-.968Z" transform="translate(-9.712 -6.215)" fill="#010000"/>
        <path id="Trazado_129117" data-name="Trazado 129117" d="M2.807,25.52h9.68a.807.807,0,0,0,.807-.807V11.807A.807.807,0,0,0,12.487,11H2.807A.807.807,0,0,0,2,11.807V24.714A.807.807,0,0,0,2.807,25.52Zm.807-12.907H11.68V23.907H3.613Z" transform="translate(-2 -2.933)" fill="#010000"/>
        <path id="Trazado_129118" data-name="Trazado 129118" d="M10.42,15H8.807a.807.807,0,0,0,0,1.613H10.42a.807.807,0,0,0,0-1.613Z" transform="translate(-3.16 -3.706)" fill="#010000"/>
        <path id="Trazado_129119" data-name="Trazado 129119" d="M10.033,19H6.807a.807.807,0,0,0,0,1.613h3.227a.807.807,0,1,0,0-1.613Z" transform="translate(-2.773 -4.48)" fill="#010000"/>
        <path id="Trazado_129120" data-name="Trazado 129120" d="M10.033,23H6.807a.807.807,0,0,0,0,1.613h3.227a.807.807,0,1,0,0-1.613Z" transform="translate(-2.773 -5.253)" fill="#010000"/>
        <path id="Trazado_129121" data-name="Trazado 129121" d="M30.884,27.6a.809.809,0,1,0-1.4.807l3.557,6.155L20.131,39.4H20.01l-2.1,1.21-1.4.807a1.611,1.611,0,0,1-2.2-.589L12.7,38.037a1.613,1.613,0,0,1,.605-2.13L16.1,34.294l2.017,3.493a.809.809,0,1,0,1.4-.807l-2.081-3.6L27.56,25.033l.331.573a.809.809,0,0,0,1.4-.807l-.807-1.4a.817.817,0,0,0-1.218-.218L15.976,32.5,12.54,34.48a3.227,3.227,0,0,0-1.484,3.654l-.807.46a2.418,2.418,0,0,0,1.21,4.517,2.469,2.469,0,0,0,1.21-.323l.807-.46a3.13,3.13,0,0,0,1.412.839,3.057,3.057,0,0,0,.847.113,3.178,3.178,0,0,0,1.613-.436l.7-.4,1.613,2.8a2.418,2.418,0,1,0,4.187-2.42l-1.468-2.557,12.1-4.542a.809.809,0,0,0,.419-1.154ZM11.83,41.385a.806.806,0,1,1-.807-1.4l.7-.4.807,1.4Zm10.616,2.259a.806.806,0,0,1-1.4.807l-1.613-2.8,1.339-.766h.065Z" transform="translate(-3.36 -5.254)" fill="#010000"/>
      </g>
    </g>
  </g>
</svg>
