<svg xmlns="http://www.w3.org/2000/svg" xmlns:xlink="http://www.w3.org/1999/xlink" width="165.639" height="127.547" viewBox="0 0 165.639 127.547">
  <defs>
    <clipPath id="clip-path">
      <rect id="Rectángulo_37849" data-name="Rectángulo 37849" width="165.639" height="127.546" fill="none"/>
    </clipPath>
  </defs>
  <g id="Grupo_157741" data-name="Grupo 157741" transform="translate(0 0)">
    <g id="Grupo_157740" data-name="Grupo 157740" transform="translate(0 0)" clip-path="url(#clip-path)">
      <path id="Trazado_131092" data-name="Trazado 131092" d="M50.057,97.466c-6.046-6.822-23.9-16.1-19.212-26.739,3.991-9.05,23.144-7.935,20.839-18.846-1.364-6.454-3.133-11.963,1.034-19.3,4.539-7.994,18.1-3.643,22.807-11.064,4.04-6.378-1.213-16.23,7.134-20.488,7.409-3.781,16.361,3.6,17.7,10.151,1.671,8.187-6.437,12.035-7.477,19.159-.663,4.536,3.469,6.116,5.836,9.293,2.266,3.039,4.3,7.414,4.453,11.181.451,11.318-11.954,12.783-17.835,19.98-5.446,6.664,4.6,10.96,3.092,18.207-1.624,7.821-12.758,12.091-20.593,11.976-5.435-.081-14.028.719-17.775-3.509" transform="translate(16.703 0)" fill="#29c4bb"/>
      <path id="Trazado_131093" data-name="Trazado 131093" d="M48.141,94.094A.588.588,0,0,1,48,94.049a.41.41,0,0,1-.19-.616c.109-.163,11.184-16.817,11.823-37.746.425-13.953,6.222-22.88,10.979-30.2,2.873-4.422,5.377-8.28,5.762-12.147a.628.628,0,0,1,.649-.549.541.541,0,0,1,.535.6c-.42,4.141-3,8.1-5.958,12.646-4.687,7.2-10.4,15.978-10.842,29.643C60.075,76.859,48.84,93.7,48.729,93.864a.6.6,0,0,1-.588.23" transform="translate(26.516 7.103)" fill="#fff"/>
      <path id="Trazado_131094" data-name="Trazado 131094" d="M56.143,47.065a.49.49,0,0,1-.417-.532.576.576,0,0,1,.619-.474c4.691.28,10.958-2.461,12.853-7.034.23-.549.456-1.159.7-1.8,1.146-3.069,2.587-6.922,5.6-8.309a6.655,6.655,0,0,1,5.051-.036.491.491,0,0,1,.292.683.633.633,0,0,1-.753.32,5.382,5.382,0,0,0-4.138-.017c-2.554,1.176-3.9,4.777-4.982,7.648-.244.65-.479,1.271-.711,1.829-2.157,5.186-8.946,8.034-14.029,7.731a.635.635,0,0,1-.081-.011" transform="translate(30.954 15.779)" fill="#fff"/>
      <path id="Trazado_131095" data-name="Trazado 131095" d="M56.368,49.644a8.29,8.29,0,0,1-4.929-2.856c-1.741-2.237-2.014-5.609-.768-9.775.126-.412.282-.891.454-1.414.978-2.976,2.47-7.521,1-10.042a3.574,3.574,0,0,0-2.377-1.66.536.536,0,0,1-.4-.675.607.607,0,0,1,.722-.394l0,0a4.721,4.721,0,0,1,3.081,2.184c1.7,2.92.109,7.725-.93,10.87-.166.513-.324.98-.445,1.386-1.157,3.85-.947,6.922.593,8.908,1.316,1.692,3.618,2.632,6.83,2.8a.5.5,0,0,1,.506.54.579.579,0,0,1-.616.481,16.517,16.517,0,0,1-2.725-.359" transform="translate(27.4 12.672)" fill="#fff"/>
      <path id="Trazado_131096" data-name="Trazado 131096" d="M52.859,65.038a5.317,5.317,0,0,1-1.8-.658.42.42,0,0,1-.114-.647.6.6,0,0,1,.754-.124c2.808,1.694,8.519-.506,10.948-2.22a14.5,14.5,0,0,0,2.887-3.276c1.728-2.358,3.525-4.814,6.364-4.894a.459.459,0,0,1,.524.46.554.554,0,0,1-.557.493c-2.238.064-3.865,2.283-5.43,4.415A15.209,15.209,0,0,1,63.291,62.1c-2.178,1.537-6.939,3.575-10.433,2.937" transform="translate(28.239 29.563)" fill="#fff"/>
      <path id="Trazado_131097" data-name="Trazado 131097" d="M52.153,69.166a6.689,6.689,0,0,1-1.943-.686c-3.537-1.879-5.634-6.7-6.182-9.5-.291-1.507.16-3.5.638-5.617.767-3.385,1.568-6.917-.635-8.529a.466.466,0,0,1-.07-.708.62.62,0,0,1,.793-.075c2.711,1.986,1.8,5.99,1,9.484-.464,2.027-.9,3.931-.639,5.262.49,2.539,2.467,7.168,5.685,8.883a5.314,5.314,0,0,0,3.939.47.54.54,0,0,1,.66.313.484.484,0,0,1-.389.58,6.634,6.634,0,0,1-2.857.123" transform="translate(24.348 24.41)" fill="#fff"/>
      <path id="Trazado_131098" data-name="Trazado 131098" d="M77.5,109.431c-10.374-2.562-18.59-4.878-18.814-15.868C58.565,87.877,61.1,83.952,67.1,80.8c4.852-2.549,7.342-3.427,8.459-8.462,1.786-8.056-2.1-16,2.971-23.79,5.66-8.692,18.436-4.729,24.334-12.61,5.289-7.071,8.19-16.236,19.371-16.107,9.409.11,13.247,9.938,9.218,16.756-2.266,3.837-6.234,6.541-7.844,10.649-1.535,3.92.151,7.124,1.66,10.7,3.335,7.91,4.147,16.062-4.931,21.289-5.424,3.123-9.607,5.866-7.652,11.724,2.055,6.157,2.976,9.669-4.5,14.3-5.587,3.463-10.683,3.183-17.1,3.449-6.015.25-14.052,1.9-19.732-.706Z" transform="translate(32.595 11.013)" fill="#e5e6ed"/>
      <path id="Trazado_131099" data-name="Trazado 131099" d="M73.645,98.1a7.759,7.759,0,0,1-1.756-3.094c-1.254-4.611,3.131-9.23,7.106-13.416a31.29,31.29,0,0,0,4.811-5.839c2.45-4.681,3.181-8.857,2.661-15.4-.622-7.764,1.464-10.94,7.8-16.073,5.34-4.334,10.621-9.106,12.108-13.832A.839.839,0,0,1,107.424,30a.752.752,0,0,1,.632.885c-1.591,5.027-7.057,9.947-12.57,14.391-6.136,4.939-8.036,7.807-7.46,15.191.437,5.581.117,10.413-2.8,15.945a31.787,31.787,0,0,1-4.985,6.043c-3.839,4.016-8.081,8.454-6.961,12.582a8.354,8.354,0,0,0,3.66,4.463c.33.24.443.607.232.828a.8.8,0,0,1-.992-.025,14.349,14.349,0,0,1-2.535-2.2" transform="translate(39.813 16.644)" fill="#fff"/>
      <path id="Trazado_131100" data-name="Trazado 131100" d="M81.445,58.919a.656.656,0,0,1-.182-.4c-.014-.345.319-.588.747-.543,3.753.411,6.525-2.518,9.513-5.673,2.644-2.792,5.424-5.726,9.227-6.527a1.017,1.017,0,0,1,1.094.484.568.568,0,0,1-.471.81c-3.335.7-5.984,3.473-8.5,6.118-3.1,3.248-6.239,6.547-10.8,6.043a1.022,1.022,0,0,1-.625-.313" transform="translate(45.142 25.417)" fill="#fff"/>
      <path id="Trazado_131101" data-name="Trazado 131101" d="M82.347,71.736a.726.726,0,0,1-.138-.219,12.8,12.8,0,0,1-.667-2.489A7.229,7.229,0,0,0,80,65.35,21.617,21.617,0,0,0,78.147,63.4a10.682,10.682,0,0,1-3.284-4.705c-.873-3.015-.817-6.765.177-11.182a22.139,22.139,0,0,1,.8-2.4c.487-1.322,1.4-3.8,1.1-4.349a.557.557,0,0,1,.311-.832.9.9,0,0,1,1.017.33c.627.941.051,2.674-.961,5.387a22.088,22.088,0,0,0-.767,2.274c-.667,2.934-1.238,7.141-.213,10.688a9.085,9.085,0,0,0,2.9,4.091,23.663,23.663,0,0,1,2,2.112,8.446,8.446,0,0,1,1.82,4.262,11.908,11.908,0,0,0,.607,2.29.5.5,0,0,1-.481.689,1.008,1.008,0,0,1-.823-.317" transform="translate(41.246 22.156)" fill="#fff"/>
      <path id="Trazado_131102" data-name="Trazado 131102" d="M47.723,109.985c-11.486-2.086-22.241-1.2-26.89-13.776-3.679-9.951,4.9-19.326-3.733-26.164C11.906,65.931,3.71,63.462,1.9,56.428c-1.887-7.328,7.49-11.973,5.8-19-1.392-5.81-9.457-6.2-7.353-13.763,1.867-6.712,7.771-8.4,12.466-7.064,6.276,1.792,6.8,7.535,10.962,11.52,2.78,2.661,6.718-.012,10.8-.5,4.063-.49,9.265-.128,12.705,1.664C58.453,35.1,49.5,47.429,51.526,57.464c1.963,9.7,15.622,3.837,22.681,11.125,8.243,8.51,2.024,23.228-6.1,30.175C62.7,103.392,55.485,111.4,47.723,109.985" transform="translate(0 8.984)" fill="#d0d1de"/>
      <path id="Trazado_131103" data-name="Trazado 131103" d="M54.138,103.232a.607.607,0,0,1-.184.07.722.722,0,0,1-.859-.488c-.078-.258-7.552-25.24-25.75-41.691C17.1,51.865,14.665,42.3,12.761,34.826c-1.109-4.362-2.056-8.075-4.236-10.083a.553.553,0,0,1,.044-.734.481.481,0,0,1,.683-.151c2.35,2.151,3.332,5.979,4.485,10.475,1.891,7.375,4.312,16.813,14.419,25.877,18.563,16.65,26.2,42.027,26.279,42.291a.628.628,0,0,1-.3.731" transform="translate(4.67 13.204)" fill="#fff"/>
      <path id="Trazado_131104" data-name="Trazado 131104" d="M21.364,58.483a.544.544,0,0,1-.733-.028.6.6,0,0,1,.068-.82c3.682-3.629,6.076-10.626,3.677-15.032-.283-.52-.613-1.073-.958-1.65-1.632-2.73-3.624-6.07-2.587-9.321a8.508,8.508,0,0,1,3.556-4.29.5.5,0,0,1,.759.1.677.677,0,0,1-.285.812,6.913,6.913,0,0,0-2.971,3.5c-.884,2.772,1,5.906,2.542,8.468.355.59.692,1.154.983,1.683,2.753,5.026.04,12.57-3.984,16.516a.6.6,0,0,1-.068.059" transform="translate(11.387 15.121)" fill="#fff"/>
      <path id="Trazado_131105" data-name="Trazado 131105" d="M27.335,53.355a8.788,8.788,0,0,1-5.643,1.9c-2.817-.176-5.384-2.184-7.435-5.757-.2-.348-.422-.761-.663-1.21-1.358-2.521-3.374-6.269-5.842-6.612a3.128,3.128,0,0,0-2.411.793.407.407,0,0,1-.636-.087.617.617,0,0,1,.184-.734l0,0A4.129,4.129,0,0,1,8.03,40.617c2.864.387,5.01,4.349,6.455,7.02.24.44.459.845.656,1.187,1.91,3.305,4.237,5.152,6.738,5.3,2.184.126,4.533-1.039,6.973-3.475a.552.552,0,0,1,.8-.042.6.6,0,0,1-.062.823,18.137,18.137,0,0,1-2.257,1.929" transform="translate(2.582 22.546)" fill="#fff"/>
      <path id="Trazado_131106" data-name="Trazado 131106" d="M38.134,76.909a6.712,6.712,0,0,1-2.35.891A.673.673,0,0,1,35,77.277a.647.647,0,0,1,.548-.753c4.4-.764,7.3-7.815,7.673-11.536a16.467,16.467,0,0,0-.94-5.472c-.986-3.556-2-7.193.51-9.832a.732.732,0,0,1,.991-.112.6.6,0,0,1,.026.91c-1.993,2.091-1.066,5.4-.162,8.635a17.221,17.221,0,0,1,.988,5.94c-.33,3.355-2.545,9.465-6.5,11.853" transform="translate(19.437 27.457)" fill="#fff"/>
      <path id="Trazado_131107" data-name="Trazado 131107" d="M43.84,74.524a7.844,7.844,0,0,1-2.414.938c-4.89,1.064-11.109-1.734-14.035-3.808-1.531-1.089-2.879-3.141-4.29-5.283-2.2-3.343-4.424-6.729-7.23-6.3a.512.512,0,0,1-.583-.487.619.619,0,0,1,.5-.652c3.458-.538,5.992,3.291,8.278,6.748,1.358,2.053,2.658,4.016,4.019,4.973,2.654,1.867,8.605,4.548,13.054,3.564A5.817,5.817,0,0,0,45.09,71.4a.7.7,0,0,1,.918-.257.637.637,0,0,1,.264.88,6.989,6.989,0,0,1-2.431,2.5" transform="translate(8.491 32.708)" fill="#fff"/>
      <path id="Trazado_131108" data-name="Trazado 131108" d="M123.938,107.686H21.637a2.491,2.491,0,0,1-2.49-2.49V38.243a2.491,2.491,0,0,1,2.49-2.49h102.3a2.491,2.491,0,0,1,2.49,2.49V105.2a2.491,2.491,0,0,1-2.49,2.49" transform="translate(10.636 19.861)" fill="#0a3f88"/>
      <rect id="Rectángulo_37847" data-name="Rectángulo 37847" width="92.487" height="61.657" transform="translate(34.725 60.378)" fill="#fff"/>
      <path id="Trazado_131109" data-name="Trazado 131109" d="M87.356,59.568a1.94,1.94,0,1,1-1.94-1.94,1.939,1.939,0,0,1,1.94,1.94" transform="translate(46.372 32.013)" fill="#fff"/>
      <path id="Trazado_131110" data-name="Trazado 131110" d="M87.531,84.592H36.6a2.547,2.547,0,0,1-2.546-2.546V49.238A2.547,2.547,0,0,1,36.6,46.692H87.531a2.547,2.547,0,0,1,2.546,2.546V82.045a2.547,2.547,0,0,1-2.546,2.546" transform="translate(18.917 25.938)" fill="#e5e6ed"/>
      <rect id="Rectángulo_37848" data-name="Rectángulo 37848" width="50.932" height="31.861" transform="translate(55.516 75.649)" fill="#29c4bb"/>
      <path id="Trazado_131111" data-name="Trazado 131111" d="M45.981,52.417V73.371l20.4-10.476Z" transform="translate(25.543 29.118)" fill="#1169e3"/>
      <path id="Trazado_131112" data-name="Trazado 131112" d="M60.1,51.009s-12.946-.072-17.493-3.1S37.264,32.827,43.866,27.9s7.97-6.44,8.261-9.686S52.348,7.6,60.9,7.57c8.386-.031,7.662,6.838,8.3,11.211.446,3.044,4.632,7.536,8.3,10.339,4.705,3.6,9.972,24.919-17.4,21.889" transform="translate(21.694 4.205)" fill="#110239"/>
      <path id="Trazado_131113" data-name="Trazado 131113" d="M52.8,13.021l2.814.089,2.815.089S59,20.892,60.435,21.85c0,0,1.528,9.115-5.377,8.9-8.356-.261-4.808-9.218-4.808-9.218,1.5-.866,2.548-8.509,2.548-8.509" transform="translate(27.498 7.233)" fill="#e45940"/>
      <path id="Trazado_131114" data-name="Trazado 131114" d="M46.265,45.342H68.972l1.909-7.359c.3-7.462.4-15.077.4-15.077A35.082,35.082,0,0,0,62.822,18.4c-2.736,2.072-6.9,2.26-9.515,0a52.706,52.706,0,0,0-8.549,4.506,31.965,31.965,0,0,0-.344,8.129,121.447,121.447,0,0,0,1.851,14.308" transform="translate(24.619 10.221)" fill="#1169e3"/>
      <path id="Trazado_131115" data-name="Trazado 131115" d="M71.79,43.733c-1.736-8.745-3.352-14.289-4.777-17.577-1.86-4.3-3.3-4.859-3.3-4.859-1.658-.151-2.917,13.762-5.762,22.437Z" transform="translate(32.192 11.83)" fill="#1169e3"/>
      <path id="Trazado_131116" data-name="Trazado 131116" d="M68.823,29.059a14.538,14.538,0,0,1-2.014,3.326c-.7,1-2.63,6.53-10.187,6-3.123-.216-6.012-3.3-7.3-6.432a20.941,20.941,0,0,1-1.053-3.892,10.662,10.662,0,0,0-.768-3.094c-.943.24-1.047,1.652-1.381,2.469-.2.5-1.571,2.4-1.68.977A121.276,121.276,0,0,0,46.2,41.691h24.4c-.464-5.122-1.823-11.069-1.783-12.632" transform="translate(24.684 13.872)" fill="#0d54b5"/>
      <path id="Trazado_131117" data-name="Trazado 131117" d="M62.384,15.891c-.809-.873-1.7.521-1.7.521A21.988,21.988,0,0,0,61.1,13.1a32.522,32.522,0,0,0-5.514-2.781V10.3l-.017.006-.016-.006v.012A32.523,32.523,0,0,0,50.042,13.1a21.99,21.99,0,0,0,.422,3.316s-.894-1.394-1.7-.521,1.187,3.2,1.647,3.487c0,0,1.644,4.007,3.716,5.34a3.613,3.613,0,0,0,2.979-.076c2.073-1.341,3.632-5.264,3.632-5.264.459-.288,2.456-2.615,1.647-3.487" transform="translate(26.981 5.723)" fill="#f88667"/>
      <path id="Trazado_131118" data-name="Trazado 131118" d="M61.368,12.331s-2.837,5.015-9.859,4.537a2.017,2.017,0,0,1-.075,1.671s-.506-1.977-1.59-1.36c-.572.324-.583,1.142.009,2.008.266.39-1.725-.33-1.725-.33s-.82-7.631,4.236-9.366,9,2.839,9,2.839" transform="translate(26.709 5.055)" fill="#110239"/>
      <path id="Trazado_131119" data-name="Trazado 131119" d="M55.563,9.494a5.936,5.936,0,0,0-.106,1.09c.011.779-1.112,1.333-1.142,2.108.154.168.31.352.46.541a7.055,7.055,0,0,1,1.691,3.335,3.2,3.2,0,0,0,.5,1.818s.488-1.985,1.7-1.689c.238.058.711.415.294,1.406-.152.359,1.257-1.476,1.257-1.476s-.05-7.291-4.66-7.134" transform="translate(30.172 5.273)" fill="#110239"/>
      <path id="Trazado_131120" data-name="Trazado 131120" d="M50.653,60.653c.268.614,1.667,1.549,1.171,2.381-.249.417-1.512-.465-1.79-.824a47.933,47.933,0,0,1-3.536-5.94c-.334-.952-.649-1.879-1.022-2.753a13.768,13.768,0,0,0,2.716-2.176c1.388.639,2.862,1.526,4.226,2.126.733.32,1.537.544,2.28.821.47.174,1.472.428,1.514,1.058.048.691-.96.487-1.356.408-.574-.115-1.627-.664-2.035-.006-.59.957,1.2,2.066,1.8,2.717.557.605,2.6,2.467,1.106,2.616a18.878,18.878,0,0,1-2.767-2.033c.067.087,1.43,1.4,1.5,1.493.35.474,1.37,1.461,1.066,1.949-.652,1.042-2.892-1.708-3.232-2.075l.849,1.084c.728.823,1.182,1.518.571,1.776-.772.327-2.381-1.93-3.055-2.623" transform="translate(25.262 28.52)" fill="#f88667"/>
      <path id="Trazado_131121" data-name="Trazado 131121" d="M54.964,68.915l-4.64,3.092S35.7,53.073,37.293,45.924c1.881-8.459,6.784-17.915,9.492-22.314A7.956,7.956,0,0,1,48.729,21.3a12.345,12.345,0,0,1,4.023,9.786c-.16,1.5-.887,2.479-1.692,4.01-2.467,4.681-5.485,12.8-5.385,13.62.159,1.325,9.289,20.2,9.289,20.2" transform="translate(20.649 11.83)" fill="#1169e3"/>
    </g>
  </g>
</svg>
