<svg id="Grupo_157109" data-name="Grupo 157109" xmlns="http://www.w3.org/2000/svg" xmlns:xlink="http://www.w3.org/1999/xlink" width="171.396" height="127.082" viewBox="0 0 171.396 127.082">
  <defs>
    <clipPath id="clip-path">
      <rect id="Rectángulo_37497" data-name="Rectángulo 37497" width="171.396" height="127.082" fill="none"/>
    </clipPath>
  </defs>
  <rect id="Rectángulo_37490" data-name="Rectángulo 37490" width="120.556" height="17.701" transform="translate(25.42 84.042)" fill="#093962"/>
  <g id="Grupo_157108" data-name="Grupo 157108" transform="translate(0 0)">
    <g id="Grupo_157107" data-name="Grupo 157107" clip-path="url(#clip-path)">
      <path id="Trazado_129153" data-name="Trazado 129153" d="M149.132,96.149H20.485a7.394,7.394,0,0,1-7.394-7.394V7.393A7.393,7.393,0,0,1,20.485,0H149.132a7.393,7.393,0,0,1,7.394,7.393V88.755a7.394,7.394,0,0,1-7.394,7.394" transform="translate(0.889 0)" fill="#093962"/>
      <rect id="Rectángulo_37491" data-name="Rectángulo 37491" width="130.227" height="82.414" transform="translate(20.585 6.37)" fill="#fefefe"/>
      <path id="Trazado_129154" data-name="Trazado 129154" d="M0,114.077v2.628c0,1.453,1.583,2.632,3.536,2.632H167.859c1.953,0,3.537-1.179,3.537-2.632v-2.628Z" transform="translate(0 7.744)" fill="#093962"/>
      <path id="Trazado_129155" data-name="Trazado 129155" d="M85.7,95.087H15.35c-.238.252-11.3,10.152-14.676,17.506-1.444,3.145-.5,4.8,2.188,4.8H168.534c2.688,0,3.632-1.654,2.188-4.8-3.379-7.353-14.438-17.254-14.676-17.506Z" transform="translate(0 6.455)" fill="#093962"/>
      <path id="Trazado_129156" data-name="Trazado 129156" d="M161.694,113.429H11.8L22.185,98.051H151.306Z" transform="translate(0.801 6.656)" fill="#9c9eb9"/>
      <path id="Trazado_129157" data-name="Trazado 129157" d="M159.754,110.73l-.325-.481h-10l-1.862-3.73h9.346l-.326-.482h-9.261l-1.862-3.73h8.6l-.326-.481h-8.519l-1.885-3.776h-.864l1.855,3.776H133.619l-1.5-3.776h-.864l1.472,3.776H122.016L120.9,98.051h-.865l1.089,3.776H110.415l-.735-3.776h-.864l.7,3.776H98.812l-.35-3.776H97.6l.321,3.776H87.753V98.051H86.8v3.776H76.267l.321-3.776h-.865l-.35,3.776H64.664l.7-3.776h-.864l-.735,3.776H53.063l1.088-3.776h-.864l-1.118,3.776H41.46l1.472-3.776h-.864l-1.5,3.776H29.858l1.856-3.776h-.865l-1.885,3.776H19.519l-.326.481h9.53l-1.862,3.73H16.674l-.325.482H26.621l-1.862,3.73H13.83l-.325.481H24.518l-1.348,2.7h.985l1.326-2.7H37.025l-1.073,2.7h.985l1.052-2.7H49.532l-.8,2.7h.985l.778-2.7H62.038l-.524,2.7H62.5l.5-2.7H74.545l-.251,2.7h.985l.23-2.7H86.8v2.7h.95v-2.7H98.677l.23,2.7h.985l-.251-2.7h11.544l.5,2.7h.985l-.524-2.7H123.69l.778,2.7h.985l-.8-2.7H136.2l1.053,2.7h.985l-1.074-2.7H148.7l1.326,2.7h.985l-1.348-2.7ZM41.272,102.308H52.026l-1.1,3.73h-11.1Zm-11.651,0H40.375l-1.484,3.73h-11.1Zm7.595,7.942h-11.5l1.834-3.73H38.7Zm12.458,0h-11.5l1.454-3.73H50.779Zm12.458,0h-11.5l1.075-3.73H62.859Zm.819-4.212h-11.1l1.075-3.73H63.678Zm11.639,4.212h-11.5l.7-3.73H74.937Zm.392-4.212h-11.1l.7-3.73H75.328Zm11.82,4.212H75.55l.317-3.73H86.8Zm0-4.212H75.909l.317-3.73H86.8Zm.95-3.73H97.959l.318,3.73H87.753Zm0,7.942v-3.73H98.318l.317,3.73Zm56.811-7.942,1.834,3.73h-11.1l-1.484-3.73Zm-11.651,0,1.454,3.73h-11.1l-1.1-3.73Zm-34.056,0h10.754l.7,3.73H99.2Zm.738,7.942-.346-3.73H110.4l.7,3.73Zm10.913-7.942h10.754l1.076,3.73h-11.1Zm1.545,7.942-.725-3.73h11.148l1.076,3.73Zm12.458,0-1.1-3.73h11.148l1.454,3.73Zm12.458,0-1.483-3.73h11.148l1.835,3.73Z" transform="translate(0.917 6.656)" fill="#d0d1de"/>
      <path id="Trazado_129158" data-name="Trazado 129158" d="M80.713,115.973h-7.28a1.5,1.5,0,0,0,.363,1.007.788.788,0,0,0,.551.206H87.078a.788.788,0,0,0,.551-.206,1.5,1.5,0,0,0,.363-1.007Z" transform="translate(4.985 7.873)" fill="#110239"/>
      <path id="Trazado_129159" data-name="Trazado 129159" d="M134.879,80.1H32.151V17.412H134.879ZM34.069,78.182h98.893V19.33H34.069Z" transform="translate(2.183 1.182)" fill="#d0d1de"/>
      <rect id="Rectángulo_37492" data-name="Rectángulo 37492" width="9.552" height="40.889" transform="translate(112.567 34.371)" fill="#1169e3"/>
      <rect id="Rectángulo_37493" data-name="Rectángulo 37493" width="9.553" height="18.802" transform="translate(94.866 56.458)" fill="#d0d1de"/>
      <rect id="Rectángulo_37494" data-name="Rectángulo 37494" width="9.553" height="23.353" transform="translate(77.165 51.908)" fill="#29c4bb"/>
      <rect id="Rectángulo_37495" data-name="Rectángulo 37495" width="9.553" height="36.576" transform="translate(59.462 38.684)" fill="#d0d1de"/>
      <rect id="Rectángulo_37496" data-name="Rectángulo 37496" width="9.553" height="28.548" transform="translate(41.761 46.713)" fill="#d0d1de"/>
      <path id="Trazado_129160" data-name="Trazado 129160" d="M96.915,47.671l-18.142-3.6L61.288,27.361,43.916,42.708l-.634-.72L61.314,26.06,79.234,43.183,96.493,46.61,114.016,21.94l.781.554Z" transform="translate(2.938 1.489)" fill="#110239"/>
      <path id="Trazado_129161" data-name="Trazado 129161" d="M45.873,41.187a2.157,2.157,0,1,1-2.157-2.157,2.157,2.157,0,0,1,2.157,2.157" transform="translate(2.821 2.65)" fill="#1169e3"/>
      <path id="Trazado_129162" data-name="Trazado 129162" d="M62.337,26.544a2.157,2.157,0,1,1-2.157-2.157,2.157,2.157,0,0,1,2.157,2.157" transform="translate(3.939 1.656)" fill="#1169e3"/>
      <path id="Trazado_129163" data-name="Trazado 129163" d="M79.025,42.366a2.157,2.157,0,1,1-2.157-2.157,2.156,2.156,0,0,1,2.157,2.157" transform="translate(5.072 2.73)" fill="#1169e3"/>
      <path id="Trazado_129164" data-name="Trazado 129164" d="M95.6,45.227a2.157,2.157,0,1,1-2.157-2.157A2.157,2.157,0,0,1,95.6,45.227" transform="translate(6.197 2.924)" fill="#1169e3"/>
      <path id="Trazado_129165" data-name="Trazado 129165" d="M112.178,22.73a2.157,2.157,0,1,1-2.157-2.157,2.157,2.157,0,0,1,2.157,2.157" transform="translate(7.323 1.397)" fill="#1169e3"/>
      <path id="Trazado_129166" data-name="Trazado 129166" d="M59.771,37.76a3.976,3.976,0,0,0,1.844-.958,2.39,2.39,0,0,1,.74-.629,5.134,5.134,0,0,0,.915-.642,1.989,1.989,0,0,1,.963-.538c.461-.043.217.494,0,.829-.234.364-1.492.863-1.435,1.318s1.55-.248,1.844-.392c.7-.341.744-.921,1.158-1.489.241-.331.453-.409.6.041.11.336-.121.68-.288.957a4.192,4.192,0,0,1-1.435,1.46,4.89,4.89,0,0,0,1.479-1.222c.234-.282,1.019-1.656,1.494-1.327.955.659-1.669,3.086-2.295,3.275a5.761,5.761,0,0,0,1.568-1.135c.285-.255.933-.887,1.044-.209.162,1-1.791,1.728-2.606,2.209a6.755,6.755,0,0,0,1.682-.745c.729-.368.745.3.064.8a9.124,9.124,0,0,1-1.068.608,6.231,6.231,0,0,1-3.985.562c-.568-.061-1.671.425-2.005.061-.647-.7-.305-2.025-.281-2.834" transform="translate(4.05 2.375)" fill="#f88667"/>
      <path id="Trazado_129167" data-name="Trazado 129167" d="M61.9,37.761l1.159,3.831s-13.551,3.5-16.849,4.012-10.539-7.769-10.539-7.769-2.469-6-.624-5.917c1.425.061,11.8,7.981,12.375,8.289S61.9,37.761,61.9,37.761" transform="translate(2.333 2.167)" fill="#fee734"/>
      <path id="Trazado_129168" data-name="Trazado 129168" d="M27.13,101.558a14.059,14.059,0,0,0,.341,3.81c.439,1.217,3.568,3.081,3.568,3.081s-2.831.548-3.918-.293-3.666-5.236-3.5-5.808.95-2.338.95-2.338Z" transform="translate(1.603 6.79)" fill="#f88667"/>
      <path id="Trazado_129169" data-name="Trazado 129169" d="M42.923,100.07a14.062,14.062,0,0,0,.341,3.81c.439,1.217,3.568,3.081,3.568,3.081s-2.831.548-3.918-.293-3.666-5.236-3.5-5.808.949-2.338.949-2.338Z" transform="translate(2.675 6.689)" fill="#f88667"/>
      <path id="Trazado_129170" data-name="Trazado 129170" d="M24.347,101.46s-2.375.791-1.781,2.869a18.083,18.083,0,0,1,.494,4.751h.693s.148-2.97.594-2.87,1.435,2.87,2.424,2.87h5.591s.594-.595,0-.941-4.384-.2-4.814-1.039-3.2-5.641-3.2-5.641" transform="translate(1.525 6.888)" fill="#110239"/>
      <path id="Trazado_129171" data-name="Trazado 129171" d="M40.265,99.91s-2.375.791-1.781,2.869a18.083,18.083,0,0,1,.494,4.751h.693s.148-2.97.594-2.87,1.435,2.87,2.424,2.87h5.591s.594-.595,0-.941-4.384-.2-4.814-1.039-3.2-5.641-3.2-5.641" transform="translate(2.606 6.783)" fill="#110239"/>
      <path id="Trazado_129172" data-name="Trazado 129172" d="M39.743,51.543s-6.653,2.338-11.476,0A11.448,11.448,0,0,0,24.884,59a27.266,27.266,0,0,0,.2,5.625c.334,2.784,1.146,10.083.639,14.585-.741,6.592-2.788,25.716-2.788,25.716l4.587.713S31.73,82.552,32.229,79.7s2.1-14.425,2.1-14.425,2.854,8.951,3.59,13.285c.113.665,2.15,25.177,2.15,25.177l4.445-.027s-.248-27.227-.248-25.795c0,.585-1.2-18.361-4.526-26.375" transform="translate(1.557 3.499)" fill="#01c7e2"/>
      <path id="Trazado_129173" data-name="Trazado 129173" d="M36.743,68.232a20.574,20.574,0,0,0-3.661-7.263c.208,1.242.4,2.481.544,3.734.011-.037.017-.064.017-.064s2.443,7.661,3.392,12.239c-.106-4.939.443-6.417-.292-8.647" transform="translate(2.246 4.139)" fill="#00a7cc"/>
      <path id="Trazado_129174" data-name="Trazado 129174" d="M34.644,26.44c-.46-.1-2.665-4.747-3.609-5.652C30.583,23.965,28.662,31.5,28.662,31.5c2.33,2.5,6.979.969,6.979.969a15.789,15.789,0,0,1-1-6.027" transform="translate(1.946 1.411)" fill="#e45940"/>
      <path id="Trazado_129175" data-name="Trazado 129175" d="M33.586,15.715s4.523,1.018,5.389,2.337.864,4.751,1.343,5.658c.289.55.549.992.694,1.315.127.282-.193.449-.587.587a.685.685,0,0,0-.423.438c-.267.83-1.014,2.948-1.762,3.242-.932.367-5.539.226-6.924-3.787s-.627-10.65,2.27-9.789" transform="translate(2.08 1.062)" fill="#f88667"/>
      <path id="Trazado_129176" data-name="Trazado 129176" d="M29.66,29.347A57.034,57.034,0,0,0,35.869,31.7s3.652,7.209,3.9,9.22S41.894,56.65,41.894,56.65s-7.229,4.6-17.708.953c0,0,2.516-10.8,1.94-15.069s-.078-10.025,3.534-13.186" transform="translate(1.642 1.992)" fill="#fee734"/>
      <path id="Trazado_129177" data-name="Trazado 129177" d="M28.389,58.169c-.12-4.588.93-8.757,1.023-13.351.076-3.708-1.453-5.821-3.318-8.1a21.686,21.686,0,0,0,.032,5.311C26.7,46.3,24.186,57.1,24.186,57.1a25.414,25.414,0,0,0,4.2,1.068" transform="translate(1.642 2.493)" fill="#cbb829"/>
      <path id="Trazado_129178" data-name="Trazado 129178" d="M24.478,43.086c2.546-2.119,1.507-4.238,4.07-6.252.186-.146.373-.288.56-.432.131-1.106-2.535-.535-1.8-1.649,1.029-1.562,5.351-3.926,5.257-5.445a2.684,2.684,0,0,1,.106-1.428c.222-1.175.717-1.4-.205-2.261-.645-.6-1.187-1.253-.675-2.162.418-.74,1.087-.958,1.665-.263.152.183.914,1.714,1.108.852.054-.241-.268-.708-.3-.976a1.069,1.069,0,0,1,.306-.973c.456-.483,1.129-.742,1.6-1.229.588-.61.665-1.414,1.516-1.749a2.207,2.207,0,0,1,1.362-.059c.2.056,1.06.632,1.2.578,1.461-.572.806-2.838-.2-3.536a10.993,10.993,0,0,0-6.216-2.1c-2.647.053-5.068,2.1-6.606,4.087-1.115,1.441-1.038,2.966-1.843,4.515-.733,1.41-2.315,2.115-3.263,3.385a4.879,4.879,0,0,0-.549,4.152,7.828,7.828,0,0,1,.4,3.22c-.224,1.4-1.347,2.433-1.728,3.785a5.987,5.987,0,0,0-.066,3.844c.671,2.513,2.166,3.2,4.3,2.092" transform="translate(1.351 0.951)" fill="#110239"/>
      <path id="Trazado_129179" data-name="Trazado 129179" d="M20.739,62.652a3.8,3.8,0,0,0,.488,1.922,2.277,2.277,0,0,1,.424.825,4.888,4.888,0,0,0,.4.99,1.906,1.906,0,0,1,.292,1.012c-.061.438-.507.094-.771-.178-.288-.3-.477-1.574-.912-1.621s-.107,1.5-.037,1.8c.164.722.693.891,1.131,1.4.255.3.282.51-.169.55-.336.029-.605-.259-.827-.476a4.01,4.01,0,0,1-1.043-1.652,4.666,4.666,0,0,0,.813,1.64c.21.279,1.318,1.308.909,1.679-.821.742-2.505-2.224-2.545-2.847a5.523,5.523,0,0,0,.713,1.7c.175.32.623,1.061-.032,1.016-.965-.067-1.216-2.04-1.485-2.9a6.444,6.444,0,0,0,.326,1.726c.183.758-.438.628-.759-.115A8.627,8.627,0,0,1,17.317,68a5.938,5.938,0,0,1,.347-3.825c.179-.515-.031-1.646.379-1.877.795-.449,1.949.157,2.7.357" transform="translate(1.164 4.218)" fill="#f88667"/>
      <path id="Trazado_129180" data-name="Trazado 129180" d="M21.283,64.751l-4.171.222s-.05-12.329,1.056-16.516,9.009-15.465,10.809-16.322c2.165-1.029,8.592,1.718,3.884,5.379S23.681,49.892,23.5,50.246s-2.214,14.505-2.214,14.505" transform="translate(1.162 2.167)" fill="#fee734"/>
    </g>
  </g>
</svg>
