<svg xmlns="http://www.w3.org/2000/svg" xmlns:xlink="http://www.w3.org/1999/xlink" width="162.251" height="134.868" viewBox="0 0 162.251 134.868">
  <defs>
    <clipPath id="clip-path">
      <rect id="Rectángulo_37483" data-name="Rectángulo 37483" width="162.251" height="134.868" fill="none"/>
    </clipPath>
    <clipPath id="clip-path-3">
      <rect id="Rectángulo_37480" data-name="Rectángulo 37480" width="83.115" height="49.548" fill="none"/>
    </clipPath>
  </defs>
  <g id="Grupo_157100" data-name="Grupo 157100" transform="translate(12)">
    <g id="Grupo_157099" data-name="Grupo 157099" transform="translate(-12)" clip-path="url(#clip-path)">
      <g id="Grupo_157098" data-name="Grupo 157098">
        <g id="Grupo_157097" data-name="Grupo 157097" clip-path="url(#clip-path)">
          <path id="Trazado_129133" data-name="Trazado 129133" d="M104.288,59.925A52.144,52.144,0,1,1,52.144,7.78a52.145,52.145,0,0,1,52.145,52.145" transform="translate(0 1.019)" fill="#1169e3"/>
          <path id="Trazado_129134" data-name="Trazado 129134" d="M95.737,59.037a44.48,44.48,0,1,1-44.481-44.48,44.481,44.481,0,0,1,44.481,44.48" transform="translate(0.888 1.907)" fill="#110239"/>
          <path id="Trazado_129135" data-name="Trazado 129135" d="M46.25,59.208h-.017a.866.866,0,0,1-.866-.866v-35.7a.866.866,0,0,1,.866-.866h.017a.866.866,0,0,1,.866.866v35.7a.866.866,0,0,1-.866.866" transform="translate(5.944 2.853)" fill="#fefefe"/>
          <path id="Trazado_129136" data-name="Trazado 129136" d="M49.463,55.99l-.008.016a.867.867,0,0,1-1.174.351L27.121,44.972A.865.865,0,0,1,26.77,43.8l.008-.016a.867.867,0,0,1,1.174-.351l21.16,11.384a.865.865,0,0,1,.351,1.173" transform="translate(3.494 5.677)" fill="#fefefe"/>
          <rect id="Rectángulo_37479" data-name="Rectángulo 37479" width="94.935" height="58.762" transform="translate(67.316 62.784)" fill="#d0d1de"/>
          <path id="Trazado_129137" data-name="Trazado 129137" d="M106.986,87.5l47.468-29.382v-2.6H59.518v2.6Z" transform="translate(7.798 7.273)" fill="#110239"/>
          <path id="Trazado_129138" data-name="Trazado 129138" d="M106.986,84.892,59.518,55.51h94.936Z" transform="translate(7.798 7.273)" fill="#d0d1de"/>
          <g id="Grupo_157096" data-name="Grupo 157096" transform="translate(67.316 71.998)" opacity="0.32" style="mix-blend-mode: multiply;isolation: isolate">
            <g id="Grupo_157095" data-name="Grupo 157095">
              <g id="Grupo_157094" data-name="Grupo 157094" clip-path="url(#clip-path-3)">
                <path id="Trazado_129139" data-name="Trazado 129139" d="M59.518,113.205h83.115V63.658H59.518Z" transform="translate(-59.518 -63.658)" fill="#b1b3c8"/>
              </g>
            </g>
          </g>
          <rect id="Rectángulo_37481" data-name="Rectángulo 37481" width="94.935" height="58.762" transform="translate(50.912 76.105)" fill="#d0d1de"/>
          <path id="Trazado_129140" data-name="Trazado 129140" d="M92.481,99.274l47.467-29.382v-2.6H45.013v2.6Z" transform="translate(5.898 8.816)" fill="#110239"/>
          <path id="Trazado_129141" data-name="Trazado 129141" d="M92.481,96.67,45.013,67.288h94.935Z" transform="translate(5.898 8.816)" fill="#d0d1de"/>
          <path id="Trazado_129142" data-name="Trazado 129142" d="M105.758,9.947l3.4-.24,3.4-.24s1.632,9.2,3.485,10.178c0,0,2.961,10.794-5.386,11.383-10.1.711-6.928-10.515-6.928-10.515,1.7-1.228,2.025-10.566,2.025-10.566" transform="translate(13.53 1.24)" fill="#e45940"/>
          <path id="Trazado_129143" data-name="Trazado 129143" d="M126.989,60.394l3.691-20.011c-.512-9.031-1.744-17.937-1.744-17.937-4.73-2.71-11.592-3.979-11.592-3.979l-.058.049a10.459,10.459,0,0,1-12.18.864l-.076-.046s-7.245,2.245-11.549,5.591a46.653,46.653,0,0,0,.559,11.4,104.049,104.049,0,0,0,3.795,15.341l2.92,8.727Z" transform="translate(12.232 2.42)" fill="#29c4bb"/>
          <path id="Trazado_129144" data-name="Trazado 129144" d="M126.953,58.567l3.691-20.011c-.107-1.882-.131-3.726-.105-5.471-5.217,7.854-11.358,15.536-21.259,13.028-6.1-1.546-10.231-9.019-14.681-12.876-.327-.283-.647-.552-.968-.822.154.791.3,1.617.448,2.472a98.089,98.089,0,0,0,3.732,14.991l2.908,8.689Z" transform="translate(12.268 4.247)" fill="#209c95"/>
          <path id="Trazado_129145" data-name="Trazado 129145" d="M100.788,13.077c.866-1.15,2.114.42,2.114.42s-1.987-6.019-.621-8.816,6.511-1.738,6.511-1.738,4.946-1.769,6.691.809.62,8.816.62,8.816,1.016-1.729,2.035-.711-1.286,3.928-1.829,4.3c0,0-3.152,7.045-6.076,7.251s-7.032-6.328-7.032-6.328c-.589-.29-3.28-2.848-2.414-4" transform="translate(13.183 0.308)" fill="#f88667"/>
          <path id="Trazado_129146" data-name="Trazado 129146" d="M109.118,5.337s3.867.4,4.435,2.424a8.139,8.139,0,0,1,.011,3.073,20.1,20.1,0,0,0-.088,3.4.587.587,0,0,0,.49-.121,6.959,6.959,0,0,0,1.181-1.65c.651-1.113,1.706-1.009,2.054-.357,0,0,.139-10.12-4.093-10.177s-3.989,3.408-3.989,3.408" transform="translate(14.297 0.253)" fill="#110239"/>
          <path id="Trazado_129147" data-name="Trazado 129147" d="M107.77,5.432s-3.772.941-4.051,3.022a8.112,8.112,0,0,0,.42,3.042,20.043,20.043,0,0,1,.563,3.356.589.589,0,0,1-.5-.05,7.019,7.019,0,0,1-1.4-1.469c-.8-1.01-1.83-.76-2.083-.067,0,0-1.557-10,2.626-10.65s4.427,2.815,4.427,2.815" transform="translate(13.159 0.332)" fill="#110239"/>
          <path id="Trazado_129148" data-name="Trazado 129148" d="M117.511,71.858c-.309.572-1.737,1.367-1.323,2.211.207.423,1.5-.329,1.8-.655a46.415,46.415,0,0,0,3.9-5.468c.4-.895.776-1.768,1.209-2.583a13.356,13.356,0,0,1-2.457-2.323c-1.393.508-2.891,1.25-4.261,1.72-.734.252-1.53.406-2.272.614-.469.131-1.458.3-1.549.9-.1.665.89.549,1.28.5.566-.066,1.629-.512,1.97.156.5.973-1.323,1.9-1.957,2.487-.588.541-2.713,2.181-1.279,2.444a18.215,18.215,0,0,0,2.841-1.747c-.074.079-1.5,1.245-1.568,1.328-.377.431-1.443,1.3-1.188,1.8.547,1.061,2.935-1.423,3.295-1.751l-.909.981c-.769.74-1.266,1.376-.693,1.676.72.377,2.459-1.68,3.166-2.3" transform="translate(14.685 8.26)" fill="#f88667"/>
          <path id="Trazado_129149" data-name="Trazado 129149" d="M117.205,68.984l4.766,3.624s16.585-17.76,15.374-24.769C135.357,36.326,129.481,23.2,126,22.079c-1.448-.465-3.1,5.412-1.176,13.719,0,0,3.415,12.238,3.2,13.516s-10.815,19.67-10.815,19.67" transform="translate(15.357 2.889)" fill="#29c4bb"/>
          <path id="Trazado_129150" data-name="Trazado 129150" d="M101.888,80.5c.26.6,1.618,1.505,1.138,2.313-.242.4-1.468-.451-1.74-.8a46.345,46.345,0,0,1-3.434-5.769c-.325-.925-.629-1.825-.993-2.674A13.354,13.354,0,0,0,99.5,71.455c1.347.62,2.779,1.483,4.106,2.064.71.312,1.491.53,2.213.8.457.17,1.428.417,1.47,1.028.046.671-.932.474-1.318.4-.558-.112-1.581-.645-1.976-.006-.573.929,1.163,2.005,1.746,2.639.541.587,2.526,2.4,1.074,2.541a18.238,18.238,0,0,1-2.688-1.975c.067.085,1.388,1.363,1.453,1.451.34.46,1.331,1.419,1.036,1.892-.633,1.013-2.808-1.658-3.141-2.015,0,0,.83,1.058.826,1.053.707.8,1.149,1.475.555,1.726-.75.318-2.314-1.874-2.968-2.547" transform="translate(12.691 9.362)" fill="#f88667"/>
          <path id="Trazado_129151" data-name="Trazado 129151" d="M103.2,78.552l-4.507,3S83.134,62.371,84.677,55.428C87.211,44.032,91.52,26.6,95,23.931c1.208-.925,5.077,6.383,4.791,10.949,0,0-5.766,22.763-5.612,24.05S103.2,78.552,103.2,78.552" transform="translate(11.081 3.125)" fill="#29c4bb"/>
          <path id="Trazado_129152" data-name="Trazado 129152" d="M115.823,3.39a2.868,2.868,0,0,0-1.675-2.5,9.535,9.535,0,0,0-8.031,0c-2.772,1.386-3.615,1.7-4.423,1.237s-.3-.924-.3-.924S99.58,1.183,99.668,4s3.551,6.317,8.077,6.317c6.911,0,9.147-4.831,8.078-6.928" transform="translate(13.058 0)" fill="#110239"/>
        </g>
      </g>
    </g>
  </g>
</svg>
