<svg xmlns="http://www.w3.org/2000/svg" width="101" height="101" viewBox="0 0 101 101">
  <g id="Grupo_157898" data-name="Grupo 157898" transform="translate(9465 65.246)">
    <circle id="Elipse_4934" data-name="Elipse 4934" cx="50.5" cy="50.5" r="50.5" transform="translate(-9465 -65.246)" fill="#6dc5db"/>
    <g id="media-monitor-screen-Digital_Marketing" data-name="media-monitor-screen-Digital Marketing" transform="translate(-9450 -49.245)">
      <path id="Trazado_129335" data-name="Trazado 129335" d="M5.2,16H64.6a2.2,2.2,0,0,1,2.2,2.2v33H3v-33A2.2,2.2,0,0,1,5.2,16Z" transform="translate(0.1 1.4)" fill="#29c4bb"/>
      <path id="Trazado_129336" data-name="Trazado 129336" d="M7,28H35.6V45.6H7Z" transform="translate(0.5 2.6)" fill="#0a3f88"/>
      <path id="Trazado_129337" data-name="Trazado 129337" d="M44,57v4.4H22V57H44Z" transform="translate(2 5.499)" fill="#e8e5fb"/>
      <path id="Trazado_129338" data-name="Trazado 129338" d="M29,51h6.6v6.6H29Z" transform="translate(2.7 4.899)" fill="#8e95a3"/>
      <path id="Trazado_129339" data-name="Trazado 129339" d="M66.8,49.1v1.1a2.207,2.207,0,0,1-2.2,2.2H5.2A2.207,2.207,0,0,1,3,50.2V48H66.8Z" transform="translate(0.1 4.599)" fill="#e8e5fb"/>
      <path id="Trazado_129340" data-name="Trazado 129340" d="M22.6,14.3,16,17.6V11Z" transform="translate(1.4 0.9)" fill="#ec455a"/>
      <path id="Trazado_129341" data-name="Trazado 129341" d="M8,17V6H30V23.6H8Zm8.8,1.1,6.6-3.3-6.6-3.3Z" transform="translate(0.6 0.4)" fill="#78b9eb"/>
      <path id="Trazado_129342" data-name="Trazado 129342" d="M35.6,28,21.3,36.8,7,28Z" transform="translate(0.5 2.6)" fill="#0d54b5"/>
      <path id="Trazado_129343" data-name="Trazado 129343" d="M36,7h7.7v8.8H36Z" transform="translate(3.399 0.5)" fill="#e8e5fb"/>
      <path id="Trazado_129344" data-name="Trazado 129344" d="M41.4,15l-1.1,7.7H37V15Z" transform="translate(3.499 1.3)" fill="#c7bec5"/>
      <path id="Trazado_129345" data-name="Trazado 129345" d="M59.751,9.649A2.15,2.15,0,0,1,60.4,11.2a2.207,2.207,0,0,1-2.2,2.2H56V9h2.2a2.15,2.15,0,0,1,1.551.649Z" transform="translate(5.399 0.7)" fill="#ec455a"/>
      <path id="Trazado_129346" data-name="Trazado 129346" d="M57.3,3V20.6L43,16.2V7.4Z" transform="translate(4.099 0.1)" fill="#f6cc4f"/>
      <path id="Trazado_129347" data-name="Trazado 129347" d="M33,9h3.3v4.4H33Z" transform="translate(3.099 0.7)" fill="#ec455a"/>
      <path id="Trazado_129348" data-name="Trazado 129348" d="M37,26H56.8V39.2H37Z" transform="translate(3.499 2.4)" fill="#9e2849"/>
      <path id="Trazado_129349" data-name="Trazado 129349" d="M58.7,30V43.2H40V30H58.7Z" transform="translate(3.799 2.8)" fill="#ec455a"/>
      <path id="Trazado_129350" data-name="Trazado 129350" d="M64.7,16.3H62.5V15.2h1.1a3.3,3.3,0,1,0,0-6.6H62.5V3.1a1.065,1.065,0,0,0-.451-.88,1.09,1.09,0,0,0-.968-.176L46.934,6.4H39.4a1.1,1.1,0,0,0-1.1,1.1V8.6H36.1A1.1,1.1,0,0,0,35,9.7v4.4a1.1,1.1,0,0,0,1.1,1.1h2.2v1.1H31.7V6.4a1.1,1.1,0,0,0-1.1-1.1H8.6A1.1,1.1,0,0,0,7.5,6.4v9.9H5.3A3.31,3.31,0,0,0,2,19.6V54.8a3.31,3.31,0,0,0,3.3,3.3H30.6v3.3H24a1.1,1.1,0,0,0-1.1,1.1v4.4A1.1,1.1,0,0,0,24,68H46a1.1,1.1,0,0,0,1.1-1.1V62.5A1.1,1.1,0,0,0,46,61.4H39.4V58.1H64.7A3.31,3.31,0,0,0,68,54.8V19.6a3.31,3.31,0,0,0-3.3-3.3Zm-2.2-5.5h1.1a1.1,1.1,0,1,1,0,2.2H62.5ZM48.2,8.314,60.3,4.585v14.63L48.2,15.486ZM40.5,8.6H46v6.6H40.5Zm3.135,8.8-.792,5.5H41.6V17.4ZM37.2,13V10.8h1.1V13ZM9.7,7.5H29.5V22.9H9.7ZM44.9,63.6v2.2H25.1V63.6ZM32.8,61.4V58.1h4.4v3.3Zm33-6.6a1.1,1.1,0,0,1-1.1,1.1H5.3a1.1,1.1,0,0,1-1.1-1.1V53.7H65.8Zm0-3.3H4.2V19.6a1.1,1.1,0,0,1,1.1-1.1H7.5V24a1.1,1.1,0,0,0,1.1,1.1h22A1.1,1.1,0,0,0,31.7,24V18.5h7.7V24a1.1,1.1,0,0,0,1.1,1.1h3.3a1.1,1.1,0,0,0,1.089-.946l.968-6.754h1.078L61.08,21.756a1.018,1.018,0,0,0,.319.044,1.116,1.116,0,0,0,1.1-1.1V18.5h2.2a1.1,1.1,0,0,1,1.1,1.1Z" transform="translate(0 0)"/>
      <path id="Trazado_129351" data-name="Trazado 129351" d="M7.1,46.8H35.7a1.1,1.1,0,0,0,1.1-1.1V28.1A1.1,1.1,0,0,0,35.7,27H7.1A1.1,1.1,0,0,0,6,28.1V45.7A1.1,1.1,0,0,0,7.1,46.8Zm1.1-2.2V30.068l12.623,7.769a1.1,1.1,0,0,0,1.153,0L34.6,30.068V44.6Zm2.786-15.4H31.813L21.4,35.608Z" transform="translate(0.4 2.5)"/>
      <path id="Trazado_129352" data-name="Trazado 129352" d="M37.1,40.4h2.2v3.3a1.1,1.1,0,0,0,1.1,1.1H59.1a1.1,1.1,0,0,0,1.1-1.1V30.5a1.1,1.1,0,0,0-1.1-1.1H58V26.1A1.1,1.1,0,0,0,56.9,25H37.1A1.1,1.1,0,0,0,36,26.1V39.3A1.1,1.1,0,0,0,37.1,40.4ZM58,42.6H41.5v-11H58ZM38.2,27.2H55.8v2.2H40.4a1.1,1.1,0,0,0-1.1,1.1v7.7H38.2Z" transform="translate(3.399 2.3)"/>
      <path id="Trazado_129353" data-name="Trazado 129353" d="M43,33h2.2v2.2H43Z" transform="translate(4.099 3.1)"/>
      <path id="Trazado_129354" data-name="Trazado 129354" d="M47,33h7.7v2.2H47Z" transform="translate(4.499 3.1)"/>
      <path id="Trazado_129355" data-name="Trazado 129355" d="M43,37h4.4v2.2H43Z" transform="translate(4.099 3.5)"/>
      <path id="Trazado_129356" data-name="Trazado 129356" d="M49,37h5.5v2.2H49Z" transform="translate(4.699 3.5)"/>
      <path id="Trazado_129357" data-name="Trazado 129357" d="M15.521,18.636a1.1,1.1,0,0,0,1.07.048l6.6-3.3a1.1,1.1,0,0,0,0-1.969l-6.6-3.3A1.1,1.1,0,0,0,15,11.1v6.6A1.1,1.1,0,0,0,15.521,18.636ZM17.2,12.88l3.04,1.52L17.2,15.92Z" transform="translate(1.3 0.8)"/>
    </g>
  </g>
</svg>
