<svg xmlns="http://www.w3.org/2000/svg" width="101" height="101" viewBox="0 0 101 101">
  <g id="Grupo_157901" data-name="Grupo 157901" transform="translate(9465 -418.754)">
    <circle id="Elipse_4937" data-name="Elipse 4937" cx="50.5" cy="50.5" r="50.5" transform="translate(-9465 418.754)" fill="#6dc5db"/>
    <g id="hablar" transform="translate(-9450 435.754)">
      <g id="Grupo_157156" data-name="Grupo 157156" transform="translate(2.065 2.065)">
        <g id="Grupo_157138" data-name="Grupo 157138" transform="translate(44.38 34.065)">
          <path id="Trazado_129409" data-name="Trazado 129409" d="M52.866,34l-2.459,6.387H46.149L43.69,34Z" transform="translate(-43.69 -34)" fill="#ffeaa7"/>
        </g>
        <g id="Grupo_157139" data-name="Grupo 157139" transform="translate(51.097 27.209)">
          <path id="Trazado_129410" data-name="Trazado 129410" d="M62.774,36.076V48.254a5.325,5.325,0,0,1-5.323,5.323H56.387V40.8H50l2.459-6.387L55.1,27.56l.2.032.628.128A8.517,8.517,0,0,1,62.774,36.076Z" transform="translate(-50 -27.56)" fill="#ff826e"/>
        </g>
        <g id="Grupo_157140" data-name="Grupo 157140" transform="translate(34.065 27.209)">
          <path id="Trazado_129411" data-name="Trazado 129411" d="M44.645,47.19h2.129v6.387H39.323A5.325,5.325,0,0,1,34,48.254V36.076a8.271,8.271,0,0,1,.894-3.779,7.919,7.919,0,0,1,1.235-1.852,8.441,8.441,0,0,1,4.716-2.725l.83-.16,2.64,6.855L46.774,40.8H45.71a1.068,1.068,0,0,0-1.065,1.065Z" transform="translate(-34 -27.56)" fill="#ff826e"/>
        </g>
        <g id="Grupo_157141" data-name="Grupo 157141" transform="translate(38.323 53.226)">
          <path id="Trazado_129412" data-name="Trazado 129412" d="M57.161,52,59.29,62.645H38L40.129,52h4.258v3.194a1.068,1.068,0,0,0,1.065,1.065H56.1a1.068,1.068,0,0,0,1.065-1.065Z" transform="translate(-38 -52)" fill="#ff826e"/>
        </g>
        <g id="Grupo_157142" data-name="Grupo 157142" transform="translate(2.129 29.636)">
          <path id="Trazado_129413" data-name="Trazado 129413" d="M14.645,49.172H25.29v6.387H9.28A5.28,5.28,0,0,1,4,50.268V38.345A10.972,10.972,0,0,1,8.045,29.84l6.6,5.493,1.778-3.545a11.169,11.169,0,0,1,1.959,2.225A11.011,11.011,0,0,1,20.2,39.25l.117,1.405H15.71a1.068,1.068,0,0,0-1.065,1.065Z" transform="translate(-4 -29.84)" fill="#29c4bb"/>
        </g>
        <g id="Grupo_157143" data-name="Grupo 157143" transform="translate(4.258 54.312)">
          <path id="Trazado_129414" data-name="Trazado 129414" d="M20.9,58.321v4.258H6V53.02a5.279,5.279,0,0,0,3.151,1.043h5.365v3.194a1.068,1.068,0,0,0,1.065,1.065Z" transform="translate(-6 -53.02)" fill="#29c4bb"/>
        </g>
        <g id="Grupo_157144" data-name="Grupo 157144" transform="translate(6.174 28.742)">
          <path id="Trazado_129415" data-name="Trazado 129415" d="M9.077,29l1.639.277a11.032,11.032,0,0,1,4.748,2c.245.181.479.362.713.564L14.4,35.387,7.8,29.894A11.927,11.927,0,0,1,9.077,29Z" transform="translate(-7.8 -29)" fill="#29c4bb"/>
        </g>
        <g id="Grupo_157145" data-name="Grupo 157145" transform="translate(12.774 55.163)">
          <path id="Trazado_129416" data-name="Trazado 129416" d="M28.9,53.831v3.375a1.068,1.068,0,0,1-1.065,1.065H15.065A1.068,1.068,0,0,1,14,57.205V54.012H27.849A2.894,2.894,0,0,0,28.9,53.82Z" transform="translate(-14 -53.82)" fill="#e6e9ed"/>
        </g>
        <g id="Grupo_157146" data-name="Grupo 157146" transform="translate(12.774 40.452)">
          <path id="Trazado_129417" data-name="Trazado 129417" d="M28.9,41.065v7.643a2.951,2.951,0,0,0-1.065-.192H14V41.065A1.068,1.068,0,0,1,15.065,40H27.839A1.068,1.068,0,0,1,28.9,41.065Z" transform="translate(-14 -40)" fill="#e6e9ed"/>
        </g>
        <g id="Grupo_157147" data-name="Grupo 157147" transform="translate(44.71 40.452)">
          <path id="Trazado_129418" data-name="Trazado 129418" d="M44,52.774h5.323a3.194,3.194,0,0,0,0-6.387H44V41.065A1.068,1.068,0,0,1,45.065,40h11.71V55.968a1.068,1.068,0,0,1-1.065,1.065H45.065A1.068,1.068,0,0,1,44,55.968Z" transform="translate(-44 -40)" fill="#e6e9ed"/>
        </g>
        <g id="Grupo_157148" data-name="Grupo 157148" transform="translate(25.548 2.129)">
          <path id="Trazado_129419" data-name="Trazado 129419" d="M38.774,6.129a4.105,4.105,0,0,0,2.257,3.683,20.328,20.328,0,0,0-1.171,2.7,19.823,19.823,0,0,0-.969,4.258H34.516l-1.767,3.534a1.316,1.316,0,0,1-2.491-.6V16.774H27.065A1.068,1.068,0,0,1,26,15.71V5.065A1.068,1.068,0,0,1,27.065,4H39.349A4.247,4.247,0,0,0,38.774,6.129Z" transform="translate(-26 -4)" fill="#e6e9ed"/>
        </g>
        <g id="Grupo_157149" data-name="Grupo 157149" transform="translate(19.161 19.161)">
          <path id="Trazado_129420" data-name="Trazado 129420" d="M22.129,22.129A19.458,19.458,0,0,0,22.012,20H35.968a1.068,1.068,0,0,1,1.065,1.065v9.868A7.919,7.919,0,0,0,35.8,32.785l-.011-.011H30.645L26.824,36.6a1.505,1.505,0,0,1-2.565-1.065V32.774H21.065A1.068,1.068,0,0,1,20,31.71V22.129Z" transform="translate(-20 -20)" fill="#e6e9ed"/>
        </g>
        <g id="Grupo_157150" data-name="Grupo 157150" transform="translate(0 4.258)">
          <path id="Trazado_129421" data-name="Trazado 129421" d="M13.071,13.675l-2.555,5.1A2.145,2.145,0,0,0,8.387,20.9a2.562,2.562,0,0,0,.756,1.82L10.516,24.1l-.745,4.492L6.237,26.066A10.112,10.112,0,0,1,2,17.827a11.833,11.833,0,0,1,.735-4.1,11.709,11.709,0,0,1,2.118-3.6A11.829,11.829,0,0,1,13.827,6h8.4A1.068,1.068,0,0,1,23.29,7.065V9.194a5.305,5.305,0,0,1-5.323,5.323H14.891a2.349,2.349,0,0,1-1.82-.841Z" transform="translate(-2 -6)" fill="#656d78"/>
        </g>
        <g id="Grupo_157151" data-name="Grupo 157151" transform="translate(38.323)">
          <path id="Trazado_129422" data-name="Trazado 129422" d="M56.98,19.969a10.938,10.938,0,0,0,1-1.607,11.789,11.789,0,0,0,1.309-5.408A10.958,10.958,0,0,0,48.336,2H42.258a4.285,4.285,0,0,0-3.013,1.245,4.5,4.5,0,0,0-.671.884A4.247,4.247,0,0,0,38,6.258a4.105,4.105,0,0,0,2.257,3.683,5.261,5.261,0,0,0,2.448.575h4.769a2.378,2.378,0,0,0,1.416-.468v.011l1.884,4.716A2.135,2.135,0,0,1,52.9,16.9a2.562,2.562,0,0,1-.756,1.82L50.774,20.1l1.065,4.258.735,2.949a2.134,2.134,0,0,0,1.65,1.575l1.65.33.2.032a5.32,5.32,0,0,0,.9-9.272Z" transform="translate(-38 -2)" fill="#fcd770"/>
        </g>
        <g id="Grupo_157152" data-name="Grupo 157152" transform="translate(38.323 7.941)">
          <path id="Trazado_129423" data-name="Trazado 129423" d="M45.452,24.938a5.325,5.325,0,0,1-5.323-5.323V18.551H38a19.608,19.608,0,0,1,.117-2.129,19.823,19.823,0,0,1,.969-4.258,20.329,20.329,0,0,1,1.171-2.7,5.261,5.261,0,0,0,2.448.575h4.769a2.378,2.378,0,0,0,1.416-.468v.011l1.884,4.716A2.135,2.135,0,0,1,52.9,16.422a2.562,2.562,0,0,1-.756,1.82l-1.373,1.373,1.065,4.258.735,2.949a2.134,2.134,0,0,0,1.65,1.575l1.65.33-2.64,6.855H44.057l-2.64-6.855,1.756-.351a2.133,2.133,0,0,0,1.607-1.416Z" transform="translate(-38 -9.46)" fill="#f0d0b4"/>
        </g>
        <g id="Grupo_157153" data-name="Grupo 157153" transform="translate(46.839 46.839)">
          <path id="Trazado_129424" data-name="Trazado 129424" d="M51.45,46.937a3.192,3.192,0,0,1-2.257,5.45H46V46h3.194A3.186,3.186,0,0,1,51.45,46.937Z" transform="translate(-46 -46)" fill="#f0d0b4"/>
        </g>
        <g id="Grupo_157154" data-name="Grupo 157154" transform="translate(23.419 48.968)">
          <path id="Trazado_129425" data-name="Trazado 129425" d="M28.258,48.192A3.183,3.183,0,0,1,29.45,53.45a3.021,3.021,0,0,1-1.192.745,2.894,2.894,0,0,1-1.054.192H24V48h3.194A2.951,2.951,0,0,1,28.258,48.192Z" transform="translate(-24 -48)" fill="#f0d0b4"/>
        </g>
        <g id="Grupo_157155" data-name="Grupo 157155" transform="translate(6.387 11.912)">
          <path id="Trazado_129426" data-name="Trazado 129426" d="M20.327,25.762a5.327,5.327,0,0,1-4.875,3.194V32.3a11.032,11.032,0,0,0-4.748-2L9.065,30.02l.319-1.895.745-4.492L8.756,22.26A2.562,2.562,0,0,1,8,20.439a2.145,2.145,0,0,1,2.129-2.129l2.555-5.1a2.349,2.349,0,0,0,1.82.841h3.076A5.362,5.362,0,0,0,20.5,13.19a19.718,19.718,0,0,1,2.289,7.249,19.458,19.458,0,0,1,.117,2.129H20.774v1.065A5.259,5.259,0,0,1,20.327,25.762Z" transform="translate(-8 -13.19)" fill="#f0d0b4"/>
        </g>
      </g>
      <g id="Grupo_157157" data-name="Grupo 157157" transform="translate(1 1)">
        <path id="Trazado_129427" data-name="Trazado 129427" d="M60.917,28.87a6.347,6.347,0,0,0-.144-9.048,12.862,12.862,0,0,0,1.968-6.8A12.037,12.037,0,0,0,50.718,1H44.645a5.3,5.3,0,0,0-4.231,2.129H28.677a2.131,2.131,0,0,0-2.129,2.129V15.9a2.131,2.131,0,0,0,2.129,2.129h2.129V19.91a2.448,2.448,0,0,0,.026.251H24.163a21.083,21.083,0,0,0-1.868-5.9,6.365,6.365,0,0,0,2.125-4.743V7.387A2.131,2.131,0,0,0,22.29,5.258h-8.4A12.893,12.893,0,0,0,1,18.149a11.215,11.215,0,0,0,4.677,9.1l3,2.144-.133.8A12.076,12.076,0,0,0,3.129,40.207V52.134a6.329,6.329,0,0,0,2.129,4.732V67H22.29V62.742h6.387a2.131,2.131,0,0,0,2.129-2.129v-2.72a4.222,4.222,0,0,0,0-7.333V43.581a2.131,2.131,0,0,0-2.129-2.129H21.5l-.035-.427a12.13,12.13,0,0,0-4.492-8.46V30.717a6.348,6.348,0,0,0,3.194-1.565v3.783a2.131,2.131,0,0,0,2.129,2.129h2.129v1.688a2.57,2.57,0,0,0,4.387,1.817l3.505-3.505H35.47a9.493,9.493,0,0,0-.406,2.724V49.968a6.39,6.39,0,0,0,6.155,6.375L39.088,67H62.976L60.845,56.343A6.39,6.39,0,0,0,67,49.968V37.789a9.613,9.613,0,0,0-6.083-8.919ZM52.1,49.968a2.129,2.129,0,1,1,0,4.258H49.968V49.968Zm-4.258,6.387H52.1a4.258,4.258,0,0,0,0-8.516H47.839V43.581H58.484v14.9H47.839Zm1.8-14.9L48,37.194h6.071l-1.638,4.258Zm5.252-6.387H47.178l-1.923-5,.516-.1a3.2,3.2,0,0,0,2.4-2.122l.431-1.293h1.363V24.419H47.84a4.262,4.262,0,0,1-4.258-4.258V18.032h-2.1a18.47,18.47,0,0,1,1.685-6.692,6.51,6.51,0,0,0,1.924.3H49.86a3.486,3.486,0,0,0,.832-.111L52.441,15.9h.721a1.066,1.066,0,0,1,1.065,1.065,1.491,1.491,0,0,1-.441,1.065l-1.8,1.8,1.949,7.793A3.2,3.2,0,0,0,56.4,29.985l.407.081Zm5.726-10.645A4.249,4.249,0,0,1,58.3,28.194l-1.482-.3A1.068,1.068,0,0,1,56,27.112l-.562-2.248,1.918-1.37A12.862,12.862,0,0,0,59.5,21.549,4.26,4.26,0,0,1,60.613,24.419ZM44.645,3.129h6.073a9.9,9.9,0,0,1,9.895,9.894,10.757,10.757,0,0,1-4.5,8.738l-1.236.884-.54-2.157.951-.948a3.61,3.61,0,0,0,1.065-2.571,3.2,3.2,0,0,0-2.437-3.1l-1.4-3.494a2.918,2.918,0,0,0,.489-.926,3.2,3.2,0,0,0-3.04-4.187H48.9V7.387h1.065a1.056,1.056,0,0,1,.858.434,1.088,1.088,0,0,1,.15.993,1.147,1.147,0,0,1-1.117.7H45.092c-2.11,0-3.641-1.343-3.641-3.194a3.2,3.2,0,0,1,3.194-3.194ZM28.677,15.9V5.258H39.43a5.272,5.272,0,0,0,0,2.129H30.806V9.516h9.631a5.2,5.2,0,0,0,.841.835c-.185.394-.367.834-.546,1.294H30.806v2.129h9.228A20.488,20.488,0,0,0,39.58,15.9H35.471l-2.059,4.119a.261.261,0,0,1-.477-.112V15.9Zm8.109,2.129h2.576c-.018.351-.039.7-.039,1.065v1.065h2.129a6.394,6.394,0,0,0,4.965,6.222l-.262.785a1.069,1.069,0,0,1-.8.708l-2.589.517a9.5,9.5,0,0,0-3.443,1.443V22.29a2.131,2.131,0,0,0-2.129-2.129H35.722ZM6.917,25.519a9.081,9.081,0,0,1-3.788-7.37A10.762,10.762,0,0,1,13.89,7.387h8.4V9.516a4.262,4.262,0,0,1-4.258,4.258H14.952a1.149,1.149,0,0,1-1.122-.7,1.084,1.084,0,0,1,.151-.991,1.058,1.058,0,0,1,.858-.433H15.9V9.516H14.839A3.2,3.2,0,0,0,11.8,13.694a2.837,2.837,0,0,0,.133.327L9.884,18.109a3.2,3.2,0,0,0-2.5,3.117A3.606,3.606,0,0,0,8.452,23.8l.989.989-.378,2.271Zm8.351,8.436-.78,1.561-4.2-3.5.7.116A10.044,10.044,0,0,1,15.268,33.955Zm4.894,30.916H7.387V58.123a6.288,6.288,0,0,0,2.089.361h4.3v2.129A2.131,2.131,0,0,0,15.9,62.742h4.258ZM15.9,60.613V58.484H28.677v2.129Zm12.781-4.258H26.548V52.1h2.128a2.129,2.129,0,0,1,.007,4.258Zm-.006-6.387H15.9V43.581H28.677ZM19.339,41.2l.02.251H15.9a2.131,2.131,0,0,0-2.129,2.129v6.387H11.645V39.323H9.516V52.1h14.9v4.258H9.476a4.224,4.224,0,0,1-4.218-4.221V40.207a9.938,9.938,0,0,1,3.024-7.091l6.908,5.756,1.71-3.42a9.87,9.87,0,0,1,.787,1.013A10.065,10.065,0,0,1,19.339,41.2ZM15.9,28.677H14.839v2.51a12.1,12.1,0,0,0-3.508-1.157l-.59-.1.98-5.877L9.957,22.29a1.491,1.491,0,0,1-.441-1.065,1.066,1.066,0,0,1,1.065-1.065h.658l2.286-4.571a3.474,3.474,0,0,0,1.428.313h3.081a6.344,6.344,0,0,0,2.451-.491,18.7,18.7,0,0,1,1.776,6.878h-2.1v2.129a4.193,4.193,0,0,1-.151,1.065h-.662a2.773,2.773,0,0,1-2.493-1.54l-1.9.953a4.885,4.885,0,0,0,3.79,2.675A4.221,4.221,0,0,1,15.9,28.677ZM31.43,32.935,27.3,37.065a.458.458,0,0,1-.752-.312V32.935H22.29V24.419h2.129V23.355c0-.365-.026-.712-.045-1.065H37.194v9.492a9.646,9.646,0,0,0-.8,1.153Zm5.763,17.032V37.789a7.468,7.468,0,0,1,5.944-7.294l4.236,11.012a2.129,2.129,0,0,0-1.664,2.074v4.258H43.581V37.194H41.452V48.463L39.634,50.28l1.505,1.505,1.817-1.817h4.882v4.258H41.452A4.262,4.262,0,0,1,37.194,49.968Zm4.492,14.9,1.7-8.516H45.71v2.129a2.131,2.131,0,0,0,2.129,2.129H58.484a2.1,2.1,0,0,0,.992-.257l.9,4.515Zm23.185-14.9a4.262,4.262,0,0,1-4.258,4.258V49.968h2.129V47.839H60.613V37.194H58.484v4.258H54.711l4.214-10.957a7.468,7.468,0,0,1,5.945,7.294Z" transform="translate(-1 -1)"/>
        <path id="Trazado_129428" data-name="Trazado 129428" d="M31,25h2.129v2.129H31Z" transform="translate(0.935 0.548)"/>
        <path id="Trazado_129429" data-name="Trazado 129429" d="M27,25h2.129v2.129H27Z" transform="translate(0.677 0.548)"/>
        <path id="Trazado_129430" data-name="Trazado 129430" d="M23,25h2.129v2.129H23Z" transform="translate(0.419 0.548)"/>
      </g>
    </g>
  </g>
</svg>
