<svg xmlns="http://www.w3.org/2000/svg" width="125" height="152" viewBox="0 0 125 152">
  <g id="Grupo_157906" data-name="Grupo 157906" transform="translate(-632 -13998.754)">
    <g id="Grupo_157194" data-name="Grupo 157194" transform="translate(632 13998.754)">
      <rect id="Rectángulo_36766" data-name="Rectángulo 36766" width="125" height="152" rx="12" fill="#0c487b"/>
    </g>
    <g id="Grupo_157193" data-name="Grupo 157193" transform="translate(642.717 14021.974)">
      <g id="Grupo_156582" data-name="Grupo 156582">
        <path id="Trazado_127053" data-name="Trazado 127053" d="M17.229,127.358c-.811.181-1-.2-.991-.959.021-1.9-.012-1.932-1.976-1.92-.731,0-.958-.222-.944-.946.013-.674.137-.987.914-.984,1.97.007,2.021-.032,2-2-.009-.89.427-.906,1.087-.913s1,.1,1,.894c0,1.991.04,2.027,1.986,2.019.752,0,.931.268.932.967s-.176.967-.929.962c-1.983-.011-2.03.026-1.987,1.9.021.872-.3,1.127-1.092.974" transform="translate(-13.318 -57.784)" fill="#29c4bb"/>
        <path id="Trazado_127054" data-name="Trazado 127054" d="M214.938,151.177c.726-.138,1.128.1,1.008.923-.1.688.138,1.071.9.953s1.017.157,1.023.958c.006.84-.337,1.033-1.053.937-.684-.092-.9.205-.887.885.022,1.066-.638,1.475-1.669,1.152-.489-.153-.382-.544-.351-.852.086-.842-.107-1.358-1.1-1.189-.769.131-.817-.352-.814-.942s.025-1.068.806-.947c.841.13,1.239-.178,1.1-1.066-.133-.849.411-.886,1.039-.811" transform="translate(-114.114 -71.077)" fill="#29c4bb"/>
        <path id="Trazado_127055" data-name="Trazado 127055" d="M213.285,70.552c.188.81-.183,1.087-.942.959-.822-.138-1.158.2-1.012,1.016.141.791-.2.98-.967.987-.79.007-1.088-.226-.95-1,.147-.819-.195-1.157-1.008-1-.843.158-.917-.283-.949-.992-.037-.832.286-1.05,1.01-.923.788.138,1.082-.189.948-.958-.128-.737.11-1.035.93-1.005.723.026,1.141.128.986.957s.205,1.141,1.014,1.005c.76-.128,1.129.144.94.954" transform="translate(-111.525 -36.984)" fill="#010000"/>
        <path id="Trazado_127056" data-name="Trazado 127056" d="M57.6,187.938c.177.755-.2,1.033-.951.9-.887-.16-1.1.3-.969,1.048.141.831-.261.96-.991.955-.7,0-1.072-.162-.925-.913.192-.987-.3-1.229-1.152-1.084-.872.149-.832-.4-.835-1,0-.579.012-1.07.8-.915,1.06.21,1.331-.3,1.188-1.248-.137-.908.555-.647,1.017-.674.489-.029,1.035-.092.892.7-.176.974.165,1.425,1.2,1.228.86-.165.755.435.73,1.011" transform="translate(-32.831 -84.939)" fill="#010000"/>
        <path id="Trazado_127057" data-name="Trazado 127057" d="M121.807,18.692c-.2-.862.274-1.03.979-.925.733.109,1.021-.194.91-.916s.1-1.05.933-1.033c.763.015,1.112.213.98,1-.136.8.235,1.065.989.952.7-.1,1.048.063,1.052.915,0,.874-.325,1.108-1.086.987-.8-.128-1.077.238-.952.989.14.842-.312.939-1.021.954-.758.015-1-.269-.893-.964.122-.762-.16-1.11-.955-.977-.776.13-1.108-.19-.934-.978" transform="translate(-68.333 -15.816)" fill="#29c4bb"/>
      </g>
      <g id="red-mundial" transform="translate(14.53 13.53)">
        <g id="Grupo_157239" data-name="Grupo 157239" transform="translate(1.185 1.163)">
          <g id="Grupo_157236" data-name="Grupo 157236" transform="translate(0 8.567)">
            <g id="Grupo_157235" data-name="Grupo 157235">
              <path id="Trazado_129521" data-name="Trazado 129521" d="M86.008,68.863v45.265a7.257,7.257,0,0,1-7.247,7.266H14.748A7.257,7.257,0,0,1,7.5,114.129V68.863A7.257,7.257,0,0,1,14.748,61.6H78.761A7.257,7.257,0,0,1,86.008,68.863Z" transform="translate(-7.501 -61.597)" fill="#56788b"/>
              <path id="Trazado_129522" data-name="Trazado 129522" d="M449.028,68.863v45.265a7.257,7.257,0,0,1-7.247,7.266h-3.159a7.257,7.257,0,0,0,7.247-7.266V68.863a7.257,7.257,0,0,0-7.247-7.266h3.159A7.257,7.257,0,0,1,449.028,68.863Z" transform="translate(-370.521 -61.597)" fill="#415e6f"/>
              <path id="Trazado_129523" data-name="Trazado 129523" d="M106.475,92.665v40.76a2.565,2.565,0,0,1-2.562,2.568H39.983a2.565,2.565,0,0,1-2.562-2.568V92.665A2.565,2.565,0,0,1,39.983,90.1h63.93A2.565,2.565,0,0,1,106.475,92.665Z" transform="translate(-32.695 -85.595)" fill="#d9f0f4"/>
              <path id="Trazado_129524" data-name="Trazado 129524" d="M444.082,92.665v40.76a2.565,2.565,0,0,1-2.562,2.568h-3.159a2.565,2.565,0,0,0,2.562-2.568V92.665a2.565,2.565,0,0,0-2.562-2.568h3.159A2.565,2.565,0,0,1,444.082,92.665Z" transform="translate(-370.302 -85.595)" fill="#bae1e5"/>
              <path id="Trazado_129525" data-name="Trazado 129525" d="M215.018,450.32H196.092l3.111-10.164h12.7Z" transform="translate(-166.302 -380.358)" fill="#90abbd"/>
            </g>
          </g>
          <g id="Grupo_157238" data-name="Grupo 157238" transform="translate(13.338)">
            <path id="Trazado_129526" data-name="Trazado 129526" d="M143.908,33.347A25.984,25.984,0,0,1,117.925,59.33q-.8,0-1.58-.047a25.984,25.984,0,0,1,0-51.871q.784-.047,1.58-.047A25.983,25.983,0,0,1,143.908,33.347Z" transform="translate(-91.942 -7.364)" fill="#d9f0f4"/>
            <path id="Trazado_129527" data-name="Trazado 129527" d="M273.995,33.347A25.984,25.984,0,0,1,248.012,59.33q-.8,0-1.58-.047a25.984,25.984,0,0,0,0-51.871q.784-.047,1.58-.047A25.983,25.983,0,0,1,273.995,33.347Z" transform="translate(-222.029 -7.364)" fill="#bae1e5"/>
            <g id="Grupo_157237" data-name="Grupo 157237" transform="translate(0.93 9.863)">
              <ellipse id="Elipse_4889" data-name="Elipse 4889" cx="2.766" cy="2.764" rx="2.766" ry="2.764" fill="#fee734"/>
              <ellipse id="Elipse_4890" data-name="Elipse 4890" cx="2.766" cy="2.764" rx="2.766" ry="2.764" transform="translate(22.287 21.558)" fill="#fee734"/>
              <ellipse id="Elipse_4891" data-name="Elipse 4891" cx="2.766" cy="2.764" rx="2.766" ry="2.764" transform="translate(37.328 4.948)" fill="#fee734"/>
            </g>
          </g>
        </g>
        <g id="Grupo_157240" data-name="Grupo 157240" transform="translate(0)">
          <path id="Trazado_129528" data-name="Trazado 129528" d="M72.444,54.277H65.7a1.185,1.185,0,0,0,0,2.369h6.742a6.078,6.078,0,0,1,6.063,6.079v45.247a6.078,6.078,0,0,1-6.063,6.079H8.432a6.078,6.078,0,0,1-6.063-6.079V99.585a1.185,1.185,0,0,0-2.369,0v8.387a8.45,8.45,0,0,0,8.432,8.448H32.484L30.1,124.21H24.845a1.185,1.185,0,0,0,0,2.369H56.032a1.185,1.185,0,0,0,0-2.369H50.778l-2.385-7.79H72.444a8.45,8.45,0,0,0,8.432-8.448V62.725A8.45,8.45,0,0,0,72.444,54.277ZM48.3,124.21H32.577l2.385-7.79H45.914Z" transform="translate(0 -45.703)"/>
          <path id="Trazado_129529" data-name="Trazado 129529" d="M1.185,95.26a1.185,1.185,0,0,0,1.185-1.185V62.726a6.078,6.078,0,0,1,6.063-6.079h3.44a1.185,1.185,0,1,0,0-2.369H8.432A8.45,8.45,0,0,0,0,62.726V94.075A1.185,1.185,0,0,0,1.185,95.26Z" transform="translate(0 -45.704)"/>
          <path id="Trazado_129530" data-name="Trazado 129530" d="M433.315,86.518a3.753,3.753,0,0,0-3.746-3.751h-4.217a1.185,1.185,0,1,0,0,2.369h4.217a1.381,1.381,0,0,1,1.376,1.382v23.23a1.185,1.185,0,1,0,2.369,0Z" transform="translate(-357.166 -69.693)"/>
          <path id="Trazado_129531" data-name="Trazado 129531" d="M101.347,127.263V115.326a1.185,1.185,0,1,0-2.369,0v11.937a1.381,1.381,0,0,1-1.376,1.382H33.67a1.381,1.381,0,0,1-1.376-1.382V86.518a1.381,1.381,0,0,1,1.376-1.382H35.9a1.185,1.185,0,0,0,0-2.369H33.67a3.753,3.753,0,0,0-3.746,3.751v40.745a3.753,3.753,0,0,0,3.746,3.751H97.6A3.753,3.753,0,0,0,101.347,127.263Z" transform="translate(-25.197 -69.693)"/>
          <path id="Trazado_129532" data-name="Trazado 129532" d="M57.741,402.975a1.185,1.185,0,1,0,0,2.369h4.84a1.185,1.185,0,1,0,0-2.369Z" transform="translate(-47.622 -339.32)"/>
          <path id="Trazado_129533" data-name="Trazado 129533" d="M117.741,402.975a1.185,1.185,0,1,0,0,2.369h4.84a1.185,1.185,0,1,0,0-2.369Z" transform="translate(-98.145 -339.32)"/>
          <path id="Trazado_129534" data-name="Trazado 129534" d="M111.544,54.314A27.173,27.173,0,0,0,134.962,40.95a1.185,1.185,0,1,0-2.04-1.206,24.946,24.946,0,0,1-5.476,6.439q-1.461-.658-3.029-1.183a37.256,37.256,0,0,0,4.142-16.658h7.767a24.67,24.67,0,0,1-1.283,6.789,1.185,1.185,0,1,0,2.244.762A27.173,27.173,0,0,0,111.544,0,26.912,26.912,0,0,0,99.233,2.939a27.432,27.432,0,0,0-8.792,7.1,3.947,3.947,0,0,0-3.955,6.578,26.914,26.914,0,0,0-2.123,10.539A27.2,27.2,0,0,0,111.544,54.314ZM86.762,28.342h7.767A37.256,37.256,0,0,0,98.67,45q-1.559.523-3.018,1.179A24.746,24.746,0,0,1,86.762,28.342Zm23.6,23.522c-2.928-.4-5.7-2.293-8.007-5.454a39.27,39.27,0,0,1,8.007-1.028Zm2.369,0V45.381a39.27,39.27,0,0,1,8.007,1.028C118.431,49.57,115.657,51.461,112.729,51.863Zm-1.185-14.928a1.579,1.579,0,1,1,1.581-1.579A1.581,1.581,0,0,1,111.544,36.935Zm-1.185-5.345a3.948,3.948,0,0,0,0,7.533v3.888a41.3,41.3,0,0,0-9.363,1.3,34.477,34.477,0,0,1-4.1-15.965h13.461ZM97.853,47.82q1.013-.4,2.077-.74a20.875,20.875,0,0,0,2.592,3.169,24.778,24.778,0,0,1-4.67-2.429Zm26.174.764a24.581,24.581,0,0,1-3.468,1.672,20.856,20.856,0,0,0,2.6-3.175q1.069.34,2.089.744-.6.4-1.219.759Zm-1.935-4.277a41.3,41.3,0,0,0-9.363-1.3V39.123a3.948,3.948,0,0,0,0-7.533V28.342H126.19A34.48,34.48,0,0,1,122.092,44.307ZM112.729,2.453c2.944.415,5.731,2.361,8,5.454a39.264,39.264,0,0,1-8,1.026Zm-2.369,0V8.933a39.276,39.276,0,0,1-8.018-1.03c2.264-3.1,5.049-5.04,8.018-5.451Zm2.369,8.852a41.3,41.3,0,0,0,9.361-1.295,28.512,28.512,0,0,1,2.357,5.427,3.946,3.946,0,0,0,1.515,7.217c.12,1.093.2,2.2.228,3.32H112.729Zm13.856,9.029a1.579,1.579,0,1,1,1.581-1.579A1.581,1.581,0,0,1,126.585,20.332Zm9.742,5.64H128.56c-.033-1.233-.118-2.459-.253-3.666a3.947,3.947,0,0,0-1.573-7.5,31.463,31.463,0,0,0-2.316-5.494q1.559-.523,3.018-1.178A24.744,24.744,0,0,1,136.327,25.972ZM125.235,6.494q-1.013.4-2.077.74A21.305,21.305,0,0,0,121,4.518q-.222-.235-.448-.458A24.761,24.761,0,0,1,125.235,6.494ZM100.307,5.051q1.113-.566,2.262-1.013a20.794,20.794,0,0,0-2.637,3.2q-1.069-.34-2.089-.744a24.66,24.66,0,0,1,2.464-1.439Zm-11.05,7.177a1.578,1.578,0,1,1-1.581,1.578A1.581,1.581,0,0,1,89.257,12.229Zm0,5.526A3.945,3.945,0,0,0,92.389,11.4a25.047,25.047,0,0,1,3.255-3.271q1.46.657,3.027,1.182a32.453,32.453,0,0,0-2.822,7.232,1.185,1.185,0,1,0,2.291.6A29.953,29.953,0,0,1,100.987,10a41.3,41.3,0,0,0,9.373,1.3V25.972H96.9c.035-1.231.124-2.455.266-3.654a1.185,1.185,0,0,0-2.353-.279c-.153,1.291-.248,2.609-.283,3.933H86.761A24.49,24.49,0,0,1,88.6,17.7a3.928,3.928,0,0,0,.655.054Z" transform="translate(-71.038)"/>
          <path id="Trazado_129535" data-name="Trazado 129535" d="M75.742,298.687H70.665a1.185,1.185,0,1,0,0,2.369h5.077a1.185,1.185,0,1,0,0-2.369Z" transform="translate(-58.505 -251.506)"/>
          <path id="Trazado_129536" data-name="Trazado 129536" d="M69.48,334.872a1.185,1.185,0,0,0,1.185,1.185H78.9a1.185,1.185,0,0,0,0-2.369H70.665A1.185,1.185,0,0,0,69.48,334.872Z" transform="translate(-58.505 -280.977)"/>
        </g>
      </g>
    </g>
  </g>
</svg>
