<svg xmlns="http://www.w3.org/2000/svg" width="101" height="101" viewBox="0 0 101 101">
  <g id="Grupo_157904" data-name="Grupo 157904" transform="translate(9465 -905.754)">
    <circle id="Elipse_4940" data-name="Elipse 4940" cx="50.5" cy="50.5" r="50.5" transform="translate(-9465 905.754)" fill="#6dc5db"/>
    <g id="video" transform="translate(-9448 924.754)">
      <g id="Grupo_157180" data-name="Grupo 157180" transform="translate(2.032 2.032)">
        <g id="Grupo_157161" data-name="Grupo 157161" transform="translate(0 8.258)">
          <path id="Trazado_129466" data-name="Trazado 129466" d="M2,10H57.742V40.968H2Z" transform="translate(-2 -10)" fill="#69d6f4"/>
        </g>
        <g id="Grupo_157162" data-name="Grupo 157162" transform="translate(0 39.226)">
          <path id="Trazado_129467" data-name="Trazado 129467" d="M39.161,49.187V44.563a6.305,6.305,0,0,0-.65-2.777L37.613,40H2V50.323a2.071,2.071,0,0,0,2.065,2.065H40.059A6.113,6.113,0,0,1,39.161,49.187Z" transform="translate(-2 -40)" fill="#ccd1d9"/>
        </g>
        <g id="Grupo_157163" data-name="Grupo 157163">
          <path id="Trazado_129468" data-name="Trazado 129468" d="M55.677,2H4.065A2.071,2.071,0,0,0,2,4.065v6.194H35.032A2.071,2.071,0,0,1,37.1,8.194H57.742V4.065A2.071,2.071,0,0,0,55.677,2Z" transform="translate(-2 -2)" fill="#b4dd7f"/>
        </g>
        <g id="Grupo_157164" data-name="Grupo 157164" transform="translate(39.226 55.742)">
          <path id="Trazado_129469" data-name="Trazado 129469" d="M56.516,62.194H40a10.275,10.275,0,0,1,1.714-5.677L42.065,56H54.452l.351.516A10.275,10.275,0,0,1,56.516,62.194Z" transform="translate(-40 -56)" fill="#fcd770"/>
        </g>
        <g id="Grupo_157165" data-name="Grupo 157165" transform="translate(8.258 43.355)">
          <ellipse id="Elipse_4878" data-name="Elipse 4878" cx="2" cy="2.5" rx="2" ry="2.5" transform="translate(-0.291 -0.387)" fill="#ff826e"/>
        </g>
        <g id="Grupo_157166" data-name="Grupo 157166" transform="translate(5.172 31.535)">
          <path id="Trazado_129470" data-name="Trazado 129470" d="M24.558,37.144,26.4,32.56v-.01c.434.083.908.186,1.383.279a7.53,7.53,0,0,1,6.059,7.4v.01H7.01V40.22a7.539,7.539,0,0,1,6.059-7.391l1.394-.279v.01L16.3,37.144l4.129-2.065Z" transform="translate(-7.01 -32.55)" fill="#ff826e"/>
        </g>
        <g id="Grupo_157167" data-name="Grupo 157167" transform="translate(18.591 30.957)">
          <path id="Trazado_129471" data-name="Trazado 129471" d="M25.976,32.578l-1.837,4.583L20.01,35.1l3.1-3.1v-.01s1.249.248,2.87.578Z" transform="translate(-20.01 -31.99)" fill="#fc6e51"/>
        </g>
        <g id="Grupo_157168" data-name="Grupo 157168" transform="translate(12.625 30.957)">
          <path id="Trazado_129472" data-name="Trazado 129472" d="M20.2,35.1l-4.129,2.065L14.23,32.578v-.01l2.87-.578V32Z" transform="translate(-14.23 -31.99)" fill="#fc6e51"/>
        </g>
        <g id="Grupo_157169" data-name="Grupo 157169" transform="translate(9.301 12.387)">
          <path id="Trazado_129473" data-name="Trazado 129473" d="M13.075,22.258a2.057,2.057,0,0,0-1.61.774l-.258-1.043a6.087,6.087,0,0,1-.2-1.559A6.432,6.432,0,0,1,17.441,14H23.16a6.432,6.432,0,0,1,6.431,6.431,6.087,6.087,0,0,1-.2,1.559l-.258,1.043a2.057,2.057,0,0,0-1.61-.774H24.254a12.258,12.258,0,0,1-5.533-1.311l-1.166-.578a1.67,1.67,0,0,0-2.415,1.5v.392Z" transform="translate(-11.01 -14)" fill="#656d78"/>
        </g>
        <g id="Grupo_157170" data-name="Grupo 157170" transform="translate(33.032 6.194)">
          <path id="Trazado_129474" data-name="Trazado 129474" d="M60.839,8H36.065A2.071,2.071,0,0,0,34,10.065V26.581a2.071,2.071,0,0,0,2.065,2.065H60.839A2.071,2.071,0,0,0,62.9,26.581V10.065A2.071,2.071,0,0,0,60.839,8Z" transform="translate(-34 -8)" fill="#ffeaa7"/>
        </g>
        <g id="Grupo_157171" data-name="Grupo 157171" transform="translate(41.29 10.323)">
          <path id="Trazado_129475" data-name="Trazado 129475" d="M53.468,16.7a1.679,1.679,0,0,1,0,2.994l-9.053,4.521A1.67,1.67,0,0,1,42,22.715V13.672a1.67,1.67,0,0,1,2.415-1.5Z" transform="translate(-42 -12)" fill="#ff826e"/>
        </g>
        <g id="Grupo_157172" data-name="Grupo 157172" transform="translate(35.097 22.71)">
          <path id="Trazado_129476" data-name="Trazado 129476" d="M54.581,36.387l2.065.516.506.124a2.056,2.056,0,0,1,1.559,2V49.7a6.169,6.169,0,0,1-1.352,3.861l-2.777,3.468H42.194l-2.777-3.468a5.764,5.764,0,0,1-.454-.661,6.113,6.113,0,0,1-.9-3.2V45.079a6.305,6.305,0,0,0-.65-2.777l-.9-1.786-.341-.681a1.67,1.67,0,0,1,1.5-2.415,4.511,4.511,0,0,1,4.521,4.521V26.065A2.071,2.071,0,0,1,44.258,24a2.08,2.08,0,0,1,2.065,2.065v8.258l4.129,1.032Z" transform="translate(-36 -24)" fill="#f0d0b4"/>
        </g>
        <g id="Grupo_157173" data-name="Grupo 157173" transform="translate(23.752 20.645)">
          <path id="Trazado_129477" data-name="Trazado 129477" d="M28.53,25.52a2.018,2.018,0,0,1-1.455.609H25.01V22h2.065a2.057,2.057,0,0,1,1.61.774,2.086,2.086,0,0,1,.454,1.29A2.061,2.061,0,0,1,28.53,25.52Z" transform="translate(-25.01 -22)" fill="#f0d0b4"/>
        </g>
        <g id="Grupo_157174" data-name="Grupo 157174" transform="translate(15.494 28.625)">
          <path id="Trazado_129478" data-name="Trazado 129478" d="M23.2,32.063v.01l-3.1,3.1-3.1-3.1v-.01L17.6,29.73A4.076,4.076,0,0,0,19.075,30h2.065a4.076,4.076,0,0,0,1.476-.268Z" transform="translate(-17.01 -29.73)" fill="#f0d0b4"/>
        </g>
        <g id="Grupo_157175" data-name="Grupo 157175" transform="translate(13.43 18.581)">
          <path id="Trazado_129479" data-name="Trazado 129479" d="M25.333,22.065v4.129a4.136,4.136,0,0,1-2.653,3.85,4.076,4.076,0,0,1-1.476.268H19.139a4.076,4.076,0,0,1-1.476-.268,4.136,4.136,0,0,1-2.653-3.85V21.672a1.67,1.67,0,0,1,2.415-1.5l1.166.578a12.258,12.258,0,0,0,5.533,1.311Z" transform="translate(-15.01 -20)" fill="#f0d0b4"/>
        </g>
        <g id="Grupo_157176" data-name="Grupo 157176" transform="translate(9.301 20.645)">
          <path id="Trazado_129480" data-name="Trazado 129480" d="M15.139,26.119v.01H13.075a2.018,2.018,0,0,1-1.455-.609,2.061,2.061,0,0,1-.609-1.455,2.086,2.086,0,0,1,.454-1.29A2.057,2.057,0,0,1,13.075,22h2.065Z" transform="translate(-11.01 -22)" fill="#f0d0b4"/>
        </g>
        <g id="Grupo_157177" data-name="Grupo 157177" transform="translate(20.645 4.129)">
          <path id="Trazado_129481" data-name="Trazado 129481" d="M22,6h4.129v4.129H22Z" transform="translate(-22 -6)" fill="#e6e9ed"/>
        </g>
        <g id="Grupo_157178" data-name="Grupo 157178" transform="translate(12.387 4.129)">
          <path id="Trazado_129482" data-name="Trazado 129482" d="M14,6h4.129v4.129H14Z" transform="translate(-14 -6)" fill="#e6e9ed"/>
        </g>
        <g id="Grupo_157179" data-name="Grupo 157179" transform="translate(4.129 4.129)">
          <path id="Trazado_129483" data-name="Trazado 129483" d="M6,6h4.129v4.129H6Z" transform="translate(-6 -6)" fill="#e6e9ed"/>
        </g>
      </g>
      <g id="Grupo_157181" data-name="Grupo 157181" transform="translate(1 1)">
        <path id="Trazado_129484" data-name="Trazado 129484" d="M61.9,7.194h-3.1V4.1A3.1,3.1,0,0,0,55.71,1H4.1A3.1,3.1,0,0,0,1,4.1V51.581a3.1,3.1,0,0,0,3.1,3.1H39.559c.065.09.116.19.186.278l2.3,2.879a11.218,11.218,0,0,0-1.822,6.134V65H58.806V63.968a11.218,11.218,0,0,0-1.822-6.134l2.3-2.879a7.256,7.256,0,0,0,1.583-4.514V39.774a3.083,3.083,0,0,0-2.065-2.908V29.9h3.1a3.1,3.1,0,0,0,3.1-3.1V10.29A3.1,3.1,0,0,0,61.9,7.194ZM4.1,3.065H55.71A1.033,1.033,0,0,1,56.742,4.1v3.1H37.129a3.093,3.093,0,0,0-2.907,2.065H27.839V5.129H21.645V9.258H19.581V5.129H13.387V9.258H11.323V5.129H5.129V9.258H3.065V4.1A1.033,1.033,0,0,1,4.1,3.065ZM44.355,23.072V14.025a.638.638,0,0,1,.923-.571l9.046,4.523a.638.638,0,0,1,0,1.142l-9.047,4.523a.655.655,0,0,1-.923-.571ZM42.29,38.4a5.5,5.5,0,0,0-3.491-1.27,2.6,2.6,0,0,0-2.656,3.1H35a8.592,8.592,0,0,0-6.821-7.4l-3.613-.725-.23-.919a5.16,5.16,0,0,0,2.377-3.349h1.139a3.1,3.1,0,0,0,3.1-3.1,3.057,3.057,0,0,0-.38-1.454l.156-.623a7.462,7.462,0,0,0-7.242-9.277H17.766a7.465,7.465,0,0,0-7.242,9.276l.156.626a3.067,3.067,0,0,0-.379,1.453,3.1,3.1,0,0,0,3.1,3.1h1.139a5.158,5.158,0,0,0,2.377,3.348l-.23.919-3.621.724a8.593,8.593,0,0,0-6.823,7.4H3.065v-28.9H34.032V26.806a3.1,3.1,0,0,0,3.1,3.1H42.29ZM14.43,25.774H13.4a1.032,1.032,0,1,1,0-2.065H14.43Zm.085-4.129H13.4a3.032,3.032,0,0,0-.937.161,5.349,5.349,0,0,1,5.306-6.354h5.714a5.349,5.349,0,0,1,5.307,6.354,3.032,3.032,0,0,0-.937-.161H24.58a11.4,11.4,0,0,1-5.078-1.2l-1.161-.581a2.73,2.73,0,0,0-1.209-.285,2.7,2.7,0,0,0-2.618,2.065Zm12.3,2.065h1.032a1.032,1.032,0,0,1,0,2.065H26.817ZM16.494,22.283a.638.638,0,0,1,.923-.571l1.161.581a13.5,13.5,0,0,0,6,1.416h.172V26.8a3.1,3.1,0,0,1-3.1,3.1H19.591a3.1,3.1,0,0,1-3.1-3.1Zm7.573,11.83,1.1.221-.961,2.4-1.845-.922Zm-4.476-2.155h2.065a5.069,5.069,0,0,0,.724-.073l.2.8-1.955,1.955-1.955-1.955.2-.8a5.069,5.069,0,0,0,.724.073Zm-2.412,2.154,1.7,1.7-1.845.922-.961-2.4Zm-3.163.633,1.937,4.842,4.671-2.336,4.671,2.336,1.935-4.84.541.108a6.519,6.519,0,0,1,5.141,5.371H8.326a6.52,6.52,0,0,1,5.142-5.372ZM9.258,9.258H7.194V7.194H9.258Zm8.258,0H15.452V7.194h2.065Zm8.258,0H23.71V7.194h2.065ZM4.1,52.613a1.033,1.033,0,0,1-1.032-1.032V42.29H37.007l.609,1.219a5.189,5.189,0,0,1,.545,2.307V50.44a7.192,7.192,0,0,0,.352,2.172H4.1ZM42.348,62.935a9.171,9.171,0,0,1,1.486-4.068l.04-.061H55.157l.04.061a9.171,9.171,0,0,1,1.486,4.068ZM58.806,50.441a5.176,5.176,0,0,1-1.131,3.224l-2.462,3.077H43.819l-2.462-3.077a5.178,5.178,0,0,1-1.131-3.224V45.818a7.254,7.254,0,0,0-.763-3.231l-1.235-2.469a.639.639,0,0,1,.571-.924,3.5,3.5,0,0,1,3.491,3.491v4.767h2.065V26.806a1.032,1.032,0,1,1,2.065,0V47.452h2.065V36.387l2.065.516V47.452h2.065V37.419l2.065.516v9.516h2.065v-9l1.282.321a1.032,1.032,0,0,1,.782,1ZM56.742,36.323l-4.129-1.032-2.065-.516-2.065-.516V29.9h8.258Zm6.194-9.516A1.033,1.033,0,0,1,61.9,27.839H48.484V26.806a3.076,3.076,0,0,0-.8-2.058l7.565-3.782a2.7,2.7,0,0,0,0-4.835L46.2,11.607a2.7,2.7,0,0,0-3.911,2.418v9.047a2.682,2.682,0,0,0,.7,1.8,3.066,3.066,0,0,0-.7,1.937v1.032H37.129A1.033,1.033,0,0,1,36.1,26.806V10.29a1.033,1.033,0,0,1,1.032-1.032H61.9a1.033,1.033,0,0,1,1.032,1.032Z" transform="translate(-1 -1)"/>
        <path id="Trazado_129485" data-name="Trazado 129485" d="M12.226,43a3.093,3.093,0,0,0-2.907,2.065H5v2.065H9.319a3.079,3.079,0,0,0,5.814,0H35.968V45.065H15.133A3.093,3.093,0,0,0,12.226,43Zm0,4.129A1.032,1.032,0,1,1,13.258,46.1,1.033,1.033,0,0,1,12.226,47.129Z" transform="translate(-0.871 0.355)"/>
      </g>
    </g>
  </g>
</svg>
