<svg xmlns="http://www.w3.org/2000/svg" width="50" height="50" viewBox="0 0 50 50">
  <g id="Grupo_157908" data-name="Grupo 157908" transform="translate(-514 -19419)">
    <g id="Grupo_157263" data-name="Grupo 157263" transform="translate(313 13683)">
      <circle id="Elipse_4699" data-name="Elipse 4699" cx="25" cy="25" r="25" transform="translate(201 5736)" fill="#0a3f88"/>
    </g>
    <path id="Trazado_131484" data-name="Trazado 131484" d="M9.668-5.229a6.11,6.11,0,0,1-1.165,4A4.024,4.024,0,0,1,5.221.176a4.046,4.046,0,0,1-3.3-1.415A6.1,6.1,0,0,1,.747-5.229V-7.567a6.11,6.11,0,0,1,1.165-4A4.034,4.034,0,0,1,5.2-12.973a4.036,4.036,0,0,1,3.3,1.415,6.116,6.116,0,0,1,1.169,4ZM6.706-7.945a4.564,4.564,0,0,0-.36-2.061A1.2,1.2,0,0,0,5.2-10.687a1.176,1.176,0,0,0-1.112.633,4.3,4.3,0,0,0-.374,1.916v3.27a4.6,4.6,0,0,0,.36,2.1,1.209,1.209,0,0,0,1.143.664,1.193,1.193,0,0,0,1.116-.646,4.39,4.39,0,0,0,.369-2.026ZM17.771,0H14.8V-9.457L11.883-8.6v-2.25L17.5-12.8h.272Z" transform="translate(529 19450)" fill="#fff"/>
  </g>
</svg>
