<svg id="Grupo_157341" data-name="Grupo 157341" xmlns="http://www.w3.org/2000/svg" xmlns:xlink="http://www.w3.org/1999/xlink" width="187.366" height="264.973" viewBox="0 0 187.366 264.973">
  <defs>
    <clipPath id="clip-path">
      <rect id="Rectángulo_37649" data-name="Rectángulo 37649" width="187.366" height="264.973" fill="none"/>
    </clipPath>
    <clipPath id="clip-path-3">
      <rect id="Rectángulo_37645" data-name="Rectángulo 37645" width="8.639" height="9.116" fill="none"/>
    </clipPath>
    <clipPath id="clip-path-4">
      <rect id="Rectángulo_37646" data-name="Rectángulo 37646" width="57.442" height="61.398" fill="none"/>
    </clipPath>
    <clipPath id="clip-path-5">
      <rect id="Rectángulo_37647" data-name="Rectángulo 37647" width="31.64" height="21.92" fill="none"/>
    </clipPath>
  </defs>
  <g id="Grupo_157340" data-name="Grupo 157340" clip-path="url(#clip-path)">
    <g id="Grupo_157339" data-name="Grupo 157339">
      <g id="Grupo_157338" data-name="Grupo 157338" clip-path="url(#clip-path)">
        <path id="Trazado_129913" data-name="Trazado 129913" d="M104.827,264.141,23.88,239.057a18.46,18.46,0,0,1-12.171-23.09l62.8-202.96A18.46,18.46,0,0,1,97.611.831l80.947,25.083A18.46,18.46,0,0,1,190.729,49l-62.8,202.961a18.459,18.459,0,0,1-23.1,12.176" transform="translate(-4.193 0)" fill="#263238"/>
        <path id="Trazado_129914" data-name="Trazado 129914" d="M180.347,37.741l-15.694-4.863a4.081,4.081,0,0,0-5.043,2.8l-.882,2.847a4.081,4.081,0,0,1-5.043,2.8l-30.592-9.479a4.085,4.085,0,0,1-2.578-5.165l.881-2.847a4.086,4.086,0,0,0-2.579-5.165l-5.52-1.711L99.561,12.708a12.928,12.928,0,0,0-16.177,8.527l-61.3,198.1a12.929,12.929,0,0,0,8.523,16.172l80.786,25.032a12.929,12.929,0,0,0,16.177-8.527l61.3-198.1a12.928,12.928,0,0,0-8.524-16.171" transform="translate(-8.287 -4.673)" fill="#fff"/>
        <path id="Trazado_129915" data-name="Trazado 129915" d="M268.051,78.863c-.016.053-2.077-.518-4.6-1.276s-4.558-1.415-4.542-1.468,2.075.518,4.6,1.276,4.558,1.415,4.543,1.468" transform="translate(-99.785 -29.336)" fill="#263238"/>
        <path id="Trazado_129916" data-name="Trazado 129916" d="M266.908,82.67c-.016.053-2.075-.518-4.6-1.276s-4.558-1.415-4.542-1.469,2.075.518,4.6,1.276,4.558,1.415,4.542,1.469" transform="translate(-99.345 -30.802)" fill="#263238"/>
        <path id="Trazado_129917" data-name="Trazado 129917" d="M265.765,86.476c-.016.053-2.076-.518-4.6-1.276s-4.558-1.415-4.542-1.469,2.075.518,4.6,1.276,4.558,1.415,4.542,1.469" transform="translate(-98.904 -32.269)" fill="#263238"/>
        <path id="Trazado_129918" data-name="Trazado 129918" d="M130.6,43.463a2.042,2.042,0,0,1,.244.058l.671.184,2.472.7-.089.048.522-1.788c.105-.329.17-.651.32-1.023a.988.988,0,0,1,1.058-.5c.4.115.752.2,1.174.357a1,1,0,0,1,.512,1.2c-.247.832-.506,1.7-.773,2.6l-.079-.147,3.106.926-.155.084c.374-1.25.761-2.543,1.159-3.868l.295-.985a1.046,1.046,0,0,0-.209-.866l-.941-1.752L138.973,37l-.439-.82c-.152-.277-.256-.546-.492-.676a.872.872,0,0,0-.752-.084c-.237.1-.506.263-.751.388l-1.457.777c-.923.509-1.856.947-2.579,1.41a2.294,2.294,0,0,0-.513,1.107q-.179.575-.34,1.09-.316,1-.554,1.753l-.36,1.12c-.085.258-.133.4-.14.4a2.973,2.973,0,0,1,.094-.379c.084-.3.186-.67.311-1.115q.218-.764.508-1.784.152-.528.323-1.119l.179-.612a1.338,1.338,0,0,1,.371-.595c.789-.525,1.665-.935,2.6-1.464l1.452-.788c.259-.134.481-.277.781-.407a1.1,1.1,0,0,1,.952.1,1.748,1.748,0,0,1,.579.761l.443.819.913,1.689.945,1.75a2.685,2.685,0,0,1,.23.482,1.058,1.058,0,0,1,0,.572q-.147.491-.3.989l-1.163,3.866-.036.119-.119-.036-3.1-.938-.113-.034.034-.112.789-2.6a.781.781,0,0,0-.393-.945c-.35-.129-.774-.247-1.122-.351a.8.8,0,0,0-.854.4c-.126.3-.215.672-.319.985q-.3.962-.549,1.78l-.022.069-.068-.022-2.489-.789-.647-.212a1.244,1.244,0,0,1-.21-.078" transform="translate(-50.332 -13.541)" fill="#263238"/>
        <path id="Trazado_129919" data-name="Trazado 129919" d="M126.068,323.256a4.77,4.77,0,0,1-.867-.2l-2.329-.667c-1.962-.576-4.665-1.394-7.646-2.315s-5.675-1.774-7.62-2.406l-2.3-.764a4.721,4.721,0,0,1-.83-.321,4.711,4.711,0,0,1,.867.2l2.328.667c1.962.576,4.666,1.393,7.647,2.315s5.674,1.774,7.618,2.4l2.3.764a4.776,4.776,0,0,1,.83.322" transform="translate(-40.267 -122.012)" fill="#455a64"/>
        <path id="Trazado_129920" data-name="Trazado 129920" d="M157.329,342.393c-.026.084-12.477-3.691-27.807-8.431s-27.741-8.653-27.715-8.738,12.474,3.69,27.809,8.432,27.738,8.653,27.713,8.737" transform="translate(-39.237 -125.344)" fill="#455a64"/>
        <path id="Trazado_129921" data-name="Trazado 129921" d="M137.464,345.157c-.026.084-8.593-2.49-19.132-5.749s-19.065-5.97-19.039-6.054,8.591,2.488,19.133,5.749,19.063,5.97,19.038,6.054" transform="translate(-38.268 -128.477)" fill="#455a64"/>
        <path id="Trazado_129922" data-name="Trazado 129922" d="M184.43,373.851l-1.19-2.264-2.149,1.13,1.54-4.95L186,368.814Zm-1.123-2.479.037.071,1.047,1.993,1.4-4.517-3.061-.951-1.377,4.43Z" transform="translate(-69.794 -141.741)" fill="#263238"/>
        <path id="Trazado_129923" data-name="Trazado 129923" d="M110.448,351.043l-.525-.46a1.745,1.745,0,1,1,1.342-1.189,1.763,1.763,0,0,1-.769,1Zm-.4-3.737a1.649,1.649,0,0,0-.949,3.158,1.71,1.71,0,0,0,.833,0l.029-.007.387.339.035-.473.027-.016a1.647,1.647,0,0,0-.362-3" transform="translate(-41.547 -133.781)" fill="#263238"/>
        <path id="Trazado_129924" data-name="Trazado 129924" d="M117.911,352.846l-.171-1.918-.94-1.6,3.181.956Zm-.849-3.31.8,1.367.146,1.634,1.768-2.187Z" transform="translate(-45.016 -134.635)" fill="#263238"/>
        <rect id="Rectángulo_37640" data-name="Rectángulo 37640" width="2.161" height="0.121" transform="matrix(0.962, -0.273, 0.273, 0.962, 72.824, 216.223)" fill="#263238"/>
        <path id="Trazado_129925" data-name="Trazado 129925" d="M102.878,345.364a1.027,1.027,0,0,0-1.956-.534A1.028,1.028,0,0,0,99,344.2a1.39,1.39,0,0,0-.054,1.03,4.141,4.141,0,0,0,.47.944c.257.422.493.816.75,1.238.447-.21.835-.417,1.282-.628a4.1,4.1,0,0,0,.912-.529,1.387,1.387,0,0,0,.522-.889" transform="translate(-38.105 -132.446)" fill="#ff4f5b"/>
        <path id="Trazado_129926" data-name="Trazado 129926" d="M131.064,348.516s.052-.192.16-.556l.486-1.61c.433-1.418,1.069-3.5,1.892-6.207l7.087-23.112.069.132L46.847,288.18l-.006,0,.2-.105C43.659,299,40.379,309.606,37.31,319.524l-.1-.194,67.169,20.846,19.6,6.107,5.258,1.646,1.361.431c.307.1.466.154.466.154s-.151-.04-.454-.13l-1.35-.407-5.238-1.6-19.593-6.013L37.116,319.627l-.148-.046.046-.148,9.721-31.455.048-.153.152.047.006,0,93.88,29.087.1.031-.032.1-7.215,23.139c-.842,2.686-1.492,4.759-1.935,6.169q-.329,1.041-.5,1.586c-.113.355-.175.529-.175.529" transform="translate(-14.248 -110.93)" fill="#263238"/>
        <rect id="Rectángulo_37641" data-name="Rectángulo 37641" width="21.767" height="27.226" transform="translate(28.372 204.316) rotate(-72.492)" fill="#ebebeb"/>
        <path id="Trazado_129927" data-name="Trazado 129927" d="M78.581,306.744a.889.889,0,0,1-.132-.033l-.371-.108-1.423-.431-5.335-1.643L52.573,298.69l.18-.093c-1.945,6.182-4.174,13.265-6.532,20.761.02.047-.2-.377-.1-.2l.007,0,.014,0,.028.009.056.018.113.035.225.071.449.141.9.283,1.777.561,3.5,1.105,6.735,2.13,12.154,3.855-.167.087c1.993-6.225,3.648-11.388,4.809-15.014.584-1.8,1.043-3.22,1.363-4.205l.366-1.111c.085-.253.138-.388.138-.388s-.028.122-.1.369l-.331,1.1c-.3.983-.736,2.4-1.288,4.2-1.136,3.654-2.753,8.861-4.7,15.136l-.039.127-.127-.04-12.166-3.817-6.738-2.12-3.5-1.1-1.777-.56-.895-.282-.449-.142-.225-.071-.112-.036-.057-.018-.028-.009-.014,0-.007,0c.092.178-.133-.245-.109-.2l6.564-20.75.044-.138.136.044,18.792,6,5.281,1.705,1.386.455.35.119a.6.6,0,0,1,.112.044" transform="translate(-17.696 -114.996)" fill="#263238"/>
        <rect id="Rectángulo_37642" data-name="Rectángulo 37642" width="19.026" height="25.314" transform="translate(29.68 203.291) rotate(-72.492)" fill="#e0e0e0"/>
        <path id="Trazado_129928" data-name="Trazado 129928" d="M48.292,325.37l11.989-8.618,3,8.7,4.732-2.655,4.421,10.185Z" transform="translate(-18.612 -122.079)" fill="#f5f5f5"/>
        <path id="Trazado_129929" data-name="Trazado 129929" d="M78.173,316.7a1.993,1.993,0,1,1-1.3-2.5,1.992,1.992,0,0,1,1.3,2.5" transform="translate(-28.627 -121.058)" fill="#f5f5f5"/>
        <path id="Trazado_129930" data-name="Trazado 129930" d="M178.841,96.178a1.009,1.009,0,0,1-.287-.055l-.806-.218-2.945-.857c-2.482-.737-5.9-1.776-9.679-2.943s-7.188-2.241-9.652-3.034l-2.914-.954-.788-.275a1.024,1.024,0,0,1-.268-.117,1.008,1.008,0,0,1,.287.055L152.6,88l2.944.857c2.482.738,5.9,1.777,9.68,2.945s7.186,2.241,9.651,3.034l2.914.954.788.275a1.024,1.024,0,0,1,.268.117" transform="translate(-58.391 -33.809)" fill="#263238"/>
        <path id="Trazado_129931" data-name="Trazado 129931" d="M197.56,302.187l-1.768-3.363L192.6,300.5l2.287-7.357,5,1.556Zm-1.669-3.684.056.105,1.556,2.962,2.087-6.713-4.549-1.415-2.047,6.583Z" transform="translate(-74.229 -112.981)" fill="#263238"/>
        <path id="Trazado_129932" data-name="Trazado 129932" d="M91.882,269l-1.033-.9a3.174,3.174,0,1,1,1.127-.379Zm-.794-7.357a3.245,3.245,0,1,0-1.868,6.215,3.347,3.347,0,0,0,1.639-.008l.058-.014.761.667.068-.93.054-.031a3.242,3.242,0,0,0-.713-5.9" transform="translate(-33.403 -100.694)" fill="#263238"/>
        <path id="Trazado_129933" data-name="Trazado 129933" d="M106.572,272.548l-.337-3.776-1.85-3.144,6.262,1.881Zm-1.672-6.516,1.571,2.692.287,3.216,3.481-4.3Z" transform="translate(-40.231 -102.375)" fill="#263238"/>
        <rect id="Rectángulo_37643" data-name="Rectángulo 37643" width="4.253" height="0.239" transform="translate(66.2 166.256) rotate(-15.825)" fill="#263238"/>
        <path id="Trazado_129934" data-name="Trazado 129934" d="M76.982,257.817a2.022,2.022,0,0,0-3.849-1.051,2.022,2.022,0,0,0-3.791-1.245,2.729,2.729,0,0,0-.106,2.027,8.127,8.127,0,0,0,.924,1.858c.506.83.97,1.607,1.476,2.437.879-.414,1.644-.822,2.524-1.235a8.1,8.1,0,0,0,1.8-1.041,2.73,2.73,0,0,0,1.028-1.75" transform="translate(-26.629 -98.065)" fill="#ff4f5b"/>
        <path id="Trazado_129935" data-name="Trazado 129935" d="M137.134,81.361a4.435,4.435,0,1,1-2.927-5.547,4.434,4.434,0,0,1,2.927,5.547" transform="translate(-49.51 -29.143)" fill="#ebebeb"/>
        <path id="Trazado_129936" data-name="Trazado 129936" d="M160.529,252.112c-.026.084-17.815-5.341-39.727-12.117S81.14,227.655,81.166,227.57s17.811,5.34,39.73,12.118,39.658,12.339,39.633,12.423" transform="translate(-31.282 -87.707)" fill="#455a64"/>
        <path id="Trazado_129937" data-name="Trazado 129937" d="M163.854,241.359c-.026.084-17.815-5.341-39.727-12.117S84.465,216.9,84.491,216.817s17.811,5.34,39.73,12.119,39.658,12.339,39.633,12.423" transform="translate(-32.564 -83.563)" fill="#455a64"/>
        <path id="Trazado_129938" data-name="Trazado 129938" d="M120.995,251.825c-.026.084-9.719-2.838-21.645-6.526s-21.579-6.748-21.552-6.832,9.716,2.837,21.647,6.526,21.576,6.748,21.551,6.832" transform="translate(-29.984 -91.907)" fill="#455a64"/>
        <path id="Trazado_129939" data-name="Trazado 129939" d="M101.019,373.222a1.765,1.765,0,1,1-1.147-2.238,1.777,1.777,0,0,1,1.147,2.238" transform="translate(-37.604 -142.95)" fill="#263238"/>
        <path id="Trazado_129940" data-name="Trazado 129940" d="M109.508,375.89a1.765,1.765,0,1,1-1.147-2.238,1.777,1.777,0,0,1,1.147,2.238" transform="translate(-40.875 -143.978)" fill="#263238"/>
        <path id="Trazado_129941" data-name="Trazado 129941" d="M118,378.558a1.765,1.765,0,1,1-1.147-2.238A1.776,1.776,0,0,1,118,378.558" transform="translate(-44.147 -145.006)" fill="#263238"/>
        <rect id="Rectángulo_37644" data-name="Rectángulo 37644" width="60.109" height="98.29" transform="translate(52.9 113.601) rotate(-72.834)" fill="#e0e0e0"/>
        <path id="Trazado_129942" data-name="Trazado 129942" d="M100.166,171.825l38.045-27.695,9.717,27.682,15.032-8.551,14.284,32.374Z" transform="translate(-38.605 -55.549)" fill="#f5f5f5"/>
        <path id="Trazado_129943" data-name="Trazado 129943" d="M195.149,143.733a6.352,6.352,0,1,1-4.194-7.944,6.351,6.351,0,0,1,4.194,7.944" transform="translate(-70.425 -52.225)" fill="#f5f5f5"/>
        <path id="Trazado_129944" data-name="Trazado 129944" d="M152.6,218.974c.379-1.229,16.365-53.123,40.031-129.946l.1.181L98.835,60.19l-.011,0,.2-.105-40.2,129.894-.086-.162L152.6,218.974,58.663,190.062l-.124-.038.038-.125c11.237-36.365,25.129-81.328,40.141-129.912l.047-.153.153.047.01,0,93.887,29.048.139.043-.043.139c-11.914,38.427-21.984,70.91-29.078,93.79l-8.272,26.618-2.2,7.043q-.373,1.19-.567,1.805c-.128.4-.2.6-.2.6" transform="translate(-22.561 -23.061)" fill="#263238"/>
        <path id="Trazado_129945" data-name="Trazado 129945" d="M98.883,300.909l4.236-6.338c.83-1.4,1.864-3.038,3.142-4.875a15.06,15.06,0,0,1,5.028-4.078c2.787-1.5,3.8-1.2,5.579-1.907.155-.043.337-.117.48-.146a2.365,2.365,0,0,0,.879-.385c1.639-.949,1.1-3.37-1.46-3.946-1.924-.433-5.153-.843-11.721,2.755-.086.059-.171.1-.257.165-3.665,2.589-3.12-7.868-2.447-11.615a3.959,3.959,0,0,0-4.206-4.515L84.25,267.946a5.927,5.927,0,0,0-3.579-.975,3.775,3.775,0,0,0-3.634,3.565L75.884,291.7l-29.32,43.615,31.147,9.632Z" transform="translate(-17.946 -102.525)" fill="#ffc09d"/>
        <path id="Trazado_129946" data-name="Trazado 129946" d="M153.541,253.977l-15.462,15.89-4.4-2.826-30.288,12.2a5.131,5.131,0,0,1-6.622-2.71l-5.9-13.556s21.053-2.259,26.538-7.821,1.978-8.293,1.978-8.293L131.2,239.63Z" transform="translate(-35.021 -92.356)" fill="#29c4bb"/>
        <path id="Trazado_129947" data-name="Trazado 129947" d="M117.95,138.856s-13.13-7.475-27.066-32.681S75.461,52.761,73,52.134,61.451,43.307,27.729,80.929-1.2,131.19,2.836,132.348s33.626,1.991,50.042,9.186S88.423,164.36,88.423,164.36Z" transform="translate(0 -19.638)" fill="#29c4bb"/>
        <path id="Trazado_129948" data-name="Trazado 129948" d="M193.993,220.952l-7.635,7.655-3.421,3.429a12.489,12.489,0,0,1-17.186.474L138.8,212.644,168.81,177.92l25.207,25.418a12.49,12.49,0,0,1-.024,17.615" transform="translate(-53.494 -68.572)" fill="#187570"/>
        <path id="Trazado_129949" data-name="Trazado 129949" d="M31.313,82.708c-18.076,20.439-29.089,40.228-24.6,44.2S29.5,117.529,47.576,97.09s29.088-40.227,24.6-44.2-22.785,9.377-40.86,29.816" transform="translate(-2.202 -20.115)" fill="#187570"/>
        <path id="Trazado_129950" data-name="Trazado 129950" d="M221.543,262.476l-7.393-5.1,8.046-8.067,4.96,5.716Z" transform="translate(-82.535 -96.085)" fill="#29c4bb"/>
        <g id="Grupo_157331" data-name="Grupo 157331" transform="translate(131.615 153.221)" opacity="0.6">
          <g id="Grupo_157330" data-name="Grupo 157330">
            <g id="Grupo_157329" data-name="Grupo 157329" clip-path="url(#clip-path-3)">
              <path id="Trazado_129951" data-name="Trazado 129951" d="M222.2,249.306l-8.046,8.067,1.519,1.049,7.121-8.432Z" transform="translate(-214.151 -249.306)"/>
            </g>
          </g>
        </g>
        <path id="Trazado_129952" data-name="Trazado 129952" d="M207.285,241.614c-.206.226-3.756-2.683-7.928-6.494s-7.393-7.084-7.188-7.309,3.754,2.683,7.929,6.5,7.39,7.084,7.186,7.307" transform="translate(-74.06 -87.796)" fill="#29c4bb"/>
        <path id="Trazado_129953" data-name="Trazado 129953" d="M215.388,233.935c-.21.221-3.425-2.48-7.183-6.035s-6.636-6.615-6.426-6.836,3.423,2.481,7.183,6.036,6.635,6.614,6.427,6.834" transform="translate(-77.763 -85.195)" fill="#29c4bb"/>
        <path id="Trazado_129954" data-name="Trazado 129954" d="M199.955,250.59c-.087.126-.99-.4-2.393-1.358-.7-.479-1.526-1.066-2.433-1.733s-1.78-1.532-2.746-2.388c-3.837-3.464-6.627-6.558-6.441-6.765.221-.244,3.373,2.514,7.175,5.945.958.849,1.818,1.723,2.665,2.431s1.618,1.337,2.249,1.888c1.264,1.1,2.009,1.853,1.924,1.978" transform="translate(-71.66 -91.856)" fill="#29c4bb"/>
        <path id="Trazado_129955" data-name="Trazado 129955" d="M68.738,101.585s-9.9-11.384-21.721,3.094.227,21.185.227,21.185a115.405,115.405,0,0,0,21.494-24.279" transform="translate(-16.119 -37.512)" fill="#29c4bb"/>
        <g id="Grupo_157334" data-name="Grupo 157334" transform="translate(14.311 48.377)" opacity="0.5">
          <g id="Grupo_157333" data-name="Grupo 157333">
            <g id="Grupo_157332" data-name="Grupo 157332" clip-path="url(#clip-path-4)">
              <path id="Trazado_129956" data-name="Trazado 129956" d="M80.722,78.714a19.262,19.262,0,0,1-1.458,3.013c-1.013,1.9-2.468,4.669-4.369,8.03l-3.482,5.27-1.949,2.931-1.021,1.532c-.358.509-.768.989-1.158,1.495l-4.975,6.285L61,108.917c-.434.559-.954,1.05-1.433,1.584l-2.982,3.191L53.6,116.881c-.5.513-.958,1.066-1.485,1.536l-1.557,1.416-5.941,5.384c-.479.423-.931.864-1.415,1.255L41.738,127.6l-2.8,2.144-5.032,3.829c-3.22,2.114-5.876,3.745-7.706,4.882a19.487,19.487,0,0,1-2.913,1.656,19.559,19.559,0,0,1,2.677-2.015l7.512-5.174,4.912-3.908,2.74-2.167,1.434-1.131c.474-.394.92-.838,1.391-1.264l5.859-5.395,1.539-1.413c.522-.469.974-1.019,1.47-1.531l2.961-3.169,2.965-3.165c.477-.529,1-1.015,1.429-1.568l1.307-1.629,4.992-6.2c.393-.5.806-.971,1.168-1.471s.694-1.013,1.034-1.508Q69.7,95.91,70.66,94.514l3.575-5.166,4.652-7.824a19.73,19.73,0,0,1,1.835-2.809" transform="translate(-23.286 -78.714)"/>
            </g>
          </g>
        </g>
        <g id="Grupo_157337" data-name="Grupo 157337" transform="translate(59.187 159.779)" opacity="0.4">
          <g id="Grupo_157336" data-name="Grupo 157336">
            <g id="Grupo_157335" data-name="Grupo 157335" clip-path="url(#clip-path-5)">
              <path id="Trazado_129957" data-name="Trazado 129957" d="M96.3,270.41a24.971,24.971,0,0,0,2.146,6.92,8.432,8.432,0,0,0,5.445,4.464c2.376.481,5.151-.758,5.892-3.066a3.02,3.02,0,0,0,3.92.494,6.81,6.81,0,0,0,2.516-3.447,3.806,3.806,0,0,0,4.978.177,6.216,6.216,0,0,0,2.132-4.845,18.386,18.386,0,0,0-.983-5.365,6.684,6.684,0,0,0,3.525.706,2.3,2.3,0,0,0,2.021-2.535,3.007,3.007,0,0,0-1.352-1.595,11.378,11.378,0,0,0-4.723-2.34c-.439-.132-.784,5.21-14.729,8.349A104.375,104.375,0,0,1,96.3,270.41" transform="translate(-96.303 -259.976)"/>
            </g>
          </g>
        </g>
        <path id="Trazado_129958" data-name="Trazado 129958" d="M127.42,301.134c-.025.052-.766-.343-2.055-.7a12.267,12.267,0,0,0-9.994,1.481c-1.128.719-1.723,1.312-1.763,1.269a1.934,1.934,0,0,1,.391-.442,9.9,9.9,0,0,1,1.246-1.016,11.612,11.612,0,0,1,10.184-1.509,9.825,9.825,0,0,1,1.488.61,1.9,1.9,0,0,1,.5.31" transform="translate(-43.785 -115.49)" fill="#ff9b6c"/>
        <path id="Trazado_129959" data-name="Trazado 129959" d="M99.146,268.148c1.341,2.423,2.02,4.849,3.45,7.313.65,1.12,1.572,3.146,2.725,3.734s1.984.667,2.819-.322c.676-.8.364-2.279.115-3.189-.656-2.394-1.392-4.335-1.866-6.185-.222-.866.4-.838.51-.435.624,1.236,1.739,2.484,2.241,3.775.687,1.768.31,3.71,3.441,4.026a2.765,2.765,0,0,0,1.234-.116,3.083,3.083,0,0,0,1.774-3.294,10.066,10.066,0,0,0-.873-2.989c.816,1.8,1.724,3.719,3.669,4.5a2.875,2.875,0,0,0,3.26-.648c1-1.157.559-2.714.034-4.024a40.214,40.214,0,0,0-3.426-6.665,3.993,3.993,0,0,0-2.155-1.655,3.715,3.715,0,0,0-3.3.169,4.192,4.192,0,0,0-1.75,2.822s-2.181-2.112-4.684-1.382a6.9,6.9,0,0,0-3.747,2.927Z" transform="translate(-38.212 -100.85)" fill="#ffc09d"/>
        <path id="Trazado_129960" data-name="Trazado 129960" d="M126.9,258.1a3.24,3.24,0,0,1,.715-3.612,4.038,4.038,0,0,1,2.142-1.409c2.718-.069,12.894,5.115,12.058,7.472-.859,2.419-1.974,3.255-7.548.608-.981-.466-2.529-1.166-2.529-1.166l-2.062,1.678Z" transform="translate(-48.799 -97.54)" fill="#ffc09d"/>
        <path id="Trazado_129961" data-name="Trazado 129961" d="M122.506,273.96a14.769,14.769,0,0,0-4.264-7.2,3.606,3.606,0,0,1,1.015.753,10.686,10.686,0,0,1,3.077,5.2,3.592,3.592,0,0,1,.172,1.251" transform="translate(-45.57 -102.809)" fill="#ff9b6c"/>
        <path id="Trazado_129962" data-name="Trazado 129962" d="M129.991,265.47c-.069.033-.6-.765-1.385-1.657a12.879,12.879,0,0,0-1.047-1.086c-.284-.258-.491-.369-.476-.415s.274.007.613.236a6.026,6.026,0,0,1,1.151,1.055,4.359,4.359,0,0,1,1.143,1.867" transform="translate(-48.979 -101.093)" fill="#ff9b6c"/>
        <path id="Trazado_129963" data-name="Trazado 129963" d="M133.761,263.136a4.857,4.857,0,0,1-2-.874,3.971,3.971,0,0,1-1.111-1.1c-.218-.342-.275-.591-.238-.607a9.037,9.037,0,0,0,1.53,1.447,15.95,15.95,0,0,1,1.818,1.138" transform="translate(-50.259 -100.418)" fill="#ff9b6c"/>
        <path id="Trazado_129964" data-name="Trazado 129964" d="M108.106,275.146a7.826,7.826,0,0,1-.586-1.578,12.111,12.111,0,0,0-1.628-3.629,5.294,5.294,0,0,0-3.263-2.04,6.745,6.745,0,0,0-1.645.013,1.054,1.054,0,0,1,.427-.165,3.5,3.5,0,0,1,1.249-.072,5.232,5.232,0,0,1,3.488,2.072,10.679,10.679,0,0,1,1.589,3.758,10.036,10.036,0,0,1,.369,1.641" transform="translate(-38.92 -103.155)" fill="#ff9b6c"/>
        <path id="Trazado_129965" data-name="Trazado 129965" d="M108.273,321.559a33.929,33.929,0,0,1-4.59-.727,33.824,33.824,0,0,1-4.529-1.042,33.935,33.935,0,0,1,4.59.727,33.885,33.885,0,0,1,4.529,1.042" transform="translate(-38.215 -123.245)" fill="#ff9b6c"/>
      </g>
    </g>
  </g>
</svg>
