<svg xmlns="http://www.w3.org/2000/svg" width="108" height="131" viewBox="0 0 108 131">
  <g id="Grupo_157917" data-name="Grupo 157917" transform="translate(-285 -3007)">
    <g id="Grupo_156900" data-name="Grupo 156900" transform="translate(-16.192 1456)">
      <g id="Grupo_156382" data-name="Grupo 156382" transform="translate(301 1551)">
        <rect id="Rectángulo_36766" data-name="Rectángulo 36766" width="108" height="131" rx="12" transform="translate(0.192)" fill="#0c487b"/>
      </g>
      <g id="Grupo_156899" data-name="Grupo 156899" transform="translate(308.865 1568)">
        <path id="Trazado_126894" data-name="Trazado 126894" d="M19.29,131.426c-1.238.276-1.525-.308-1.513-1.464.032-2.9-.018-2.949-3.018-2.932-1.115.006-1.463-.339-1.441-1.444.02-1.029.209-1.507,1.4-1.5,3.008.011,3.085-.049,3.053-3.052-.014-1.358.652-1.383,1.659-1.394s1.528.158,1.528,1.364c0,3.041.062,3.1,3.032,3.083,1.149,0,1.421.41,1.423,1.477s-.269,1.476-1.419,1.469c-3.028-.017-3.1.039-3.034,2.908.032,1.331-.46,1.721-1.668,1.486" transform="translate(-13.318 -75.051)" fill="#29c4bb"/>
        <path id="Trazado_126895" data-name="Trazado 126895" d="M216.489,151.2c1.108-.211,1.722.155,1.54,1.41-.153,1.05.21,1.635,1.372,1.455s1.553.24,1.563,1.464c.009,1.282-.515,1.578-1.607,1.431-1.044-.141-1.375.313-1.355,1.352.033,1.627-.974,2.252-2.548,1.759-.747-.234-.584-.83-.536-1.3.131-1.286-.163-2.073-1.681-1.816-1.175.2-1.247-.537-1.244-1.439s.038-1.631,1.23-1.447c1.284.2,1.892-.271,1.679-1.628-.2-1.3.628-1.353,1.586-1.239" transform="translate(-129.051 -89.881)" fill="#29c4bb"/>
        <path id="Trazado_126896" data-name="Trazado 126896" d="M216.358,72.09c.286,1.236-.279,1.659-1.438,1.464-1.255-.211-1.767.3-1.546,1.551.215,1.207-.307,1.5-1.477,1.507-1.207.011-1.661-.345-1.451-1.52.225-1.251-.3-1.766-1.54-1.533-1.287.242-1.4-.431-1.448-1.514-.057-1.271.437-1.6,1.543-1.41,1.2.21,1.652-.288,1.448-1.464-.2-1.125.167-1.58,1.42-1.535,1.1.039,1.743.2,1.506,1.461s.313,1.742,1.548,1.535c1.16-.2,1.724.221,1.436,1.457" transform="translate(-139.079 -39.726)" fill="#010000"/>
        <path id="Trazado_126897" data-name="Trazado 126897" d="M60.671,189.492c.271,1.154-.3,1.577-1.452,1.369-1.354-.245-1.674.46-1.48,1.6.215,1.269-.4,1.465-1.513,1.458-1.065-.007-1.637-.248-1.413-1.395.293-1.507-.46-1.877-1.758-1.655-1.332.227-1.27-.613-1.274-1.526,0-.884.019-1.634,1.222-1.4,1.618.32,2.032-.457,1.813-1.905-.209-1.387.847-.987,1.553-1.029.747-.045,1.58-.141,1.362,1.062-.269,1.487.252,2.176,1.826,1.874,1.314-.252,1.153.664,1.114,1.544" transform="translate(-7.179 -95.7)" fill="#010000"/>
        <path id="Trazado_126898" data-name="Trazado 126898" d="M121.831,20.207c-.31-1.316.418-1.572,1.495-1.413,1.119.166,1.559-.3,1.389-1.4s.157-1.6,1.425-1.577c1.165.024,1.7.326,1.5,1.522-.208,1.228.358,1.626,1.509,1.454,1.066-.16,1.6.1,1.606,1.4.007,1.334-.5,1.692-1.658,1.507-1.228-.2-1.645.364-1.454,1.509.214,1.286-.477,1.434-1.559,1.456-1.157.024-1.534-.411-1.364-1.472.186-1.163-.244-1.7-1.458-1.492-1.185.2-1.691-.29-1.427-1.493" transform="translate(-105.228 -15.816)" fill="#29c4bb"/>
      </g>
      <g id="seo" transform="translate(320.674 1582.383)">
        <g id="Grupo_157314" data-name="Grupo 157314" transform="translate(1.068 7.755)">
          <path id="Trazado_129867" data-name="Trazado 129867" d="M69.2,115.522H10.222A2.927,2.927,0,0,1,7.295,112.6V74.564H72.132V112.6A2.927,2.927,0,0,1,69.2,115.522Z" transform="translate(-7.295 -74.564)" fill="#9dc6fb"/>
        </g>
        <g id="Grupo_157315" data-name="Grupo 157315" transform="translate(1.068 7.755)">
          <path id="Trazado_129868" data-name="Trazado 129868" d="M66.626,74.564V107.17a2.847,2.847,0,0,1-2.847,2.847H7.3V112.6a2.927,2.927,0,0,0,2.927,2.927H69.2a2.927,2.927,0,0,0,2.927-2.927V74.564Z" transform="translate(-7.295 -74.564)" fill="#89aada"/>
        </g>
        <g id="Grupo_157316" data-name="Grupo 157316" transform="translate(1.068 1.068)">
          <path id="Trazado_129869" data-name="Trazado 129869" d="M72.132,39.129H7.295V31.79a2.927,2.927,0,0,1,2.927-2.927H69.2a2.927,2.927,0,0,1,2.927,2.927Z" transform="translate(-7.295 -28.863)" fill="#f6f1f1"/>
        </g>
        <g id="Grupo_157317" data-name="Grupo 157317" transform="translate(60.397 1.068)">
          <path id="Trazado_129870" data-name="Trazado 129870" d="M415.294,28.863h-2.581V39.129h5.507V31.79A2.927,2.927,0,0,0,415.294,28.863Z" transform="translate(-412.713 -28.863)" fill="#e7ecf6"/>
        </g>
        <g id="Grupo_157318" data-name="Grupo 157318" transform="translate(56.79 50.472)">
          <path id="Trazado_129871" data-name="Trazado 129871" d="M404.292,378.558a2.9,2.9,0,0,0-1.679-.823.282.282,0,0,1-.23-.354,2.049,2.049,0,0,0-.533-1.97l-8.951-8.951-4.831,4.831,8.951,8.951a2.049,2.049,0,0,0,1.971.533.282.282,0,0,1,.353.233,2.917,2.917,0,0,0,5.063,1.568A2.938,2.938,0,0,0,404.292,378.558Z" transform="translate(-388.068 -366.461)" fill="#aa7a63"/>
        </g>
        <g id="Grupo_157319" data-name="Grupo 157319" transform="translate(59.773 50.472)">
          <path id="Trazado_129872" data-name="Trazado 129872" d="M421.689,378.558a2.9,2.9,0,0,0-1.679-.823.282.282,0,0,1-.23-.354,2.049,2.049,0,0,0-.533-1.97l-8.951-8.951-1.849,1.849,8.24,8.24a2.049,2.049,0,0,1,.533,1.97.282.282,0,0,0,.23.354,2.9,2.9,0,0,1,1.679.823,2.941,2.941,0,0,1,.262,3.838,2.917,2.917,0,0,0,2.3-4.977Z" transform="translate(-408.447 -366.461)" fill="#8b5e5e"/>
        </g>
        <g id="Grupo_157320" data-name="Grupo 157320" transform="translate(27.97 21.366)">
          <circle id="Elipse_4892" data-name="Elipse 4892" cx="18.358" cy="18.358" r="18.358" fill="#e7ecf6"/>
        </g>
        <g id="Grupo_157321" data-name="Grupo 157321" transform="translate(30.892 24.288)">
          <path id="Trazado_129873" data-name="Trazado 129873" d="M239.512,189.99a18.435,18.435,0,0,0-3.04-2.455,18.361,18.361,0,0,1-25.377,25.377,18.359,18.359,0,1,0,28.417-22.922Z" transform="translate(-211.095 -187.535)" fill="#d5dff4"/>
        </g>
        <g id="Grupo_157323" data-name="Grupo 157323" transform="translate(25.661 19.047)">
          <g id="Grupo_157322" data-name="Grupo 157322">
            <path id="Trazado_129874" data-name="Trazado 129874" d="M196.018,193.078a20.677,20.677,0,1,1,14.62-6.056A20.541,20.541,0,0,1,196.018,193.078Zm0-37.057a16.381,16.381,0,1,0,11.583,4.8A16.274,16.274,0,0,0,196.018,156.021Z" transform="translate(-175.351 -151.725)" fill="#8b5e5e"/>
          </g>
        </g>
        <g id="Grupo_157325" data-name="Grupo 157325" transform="translate(30.728 24.113)">
          <g id="Grupo_157324" data-name="Grupo 157324" transform="translate(0 0)">
            <path id="Trazado_129875" data-name="Trazado 129875" d="M240.194,187.331q-.516-.516-1.062-.99a20.676,20.676,0,0,1-29.159,29.18q.469.538.98,1.051a20.676,20.676,0,0,0,29.241-29.241Z" transform="translate(-209.973 -186.341)" fill="#664545"/>
          </g>
        </g>
        <g id="Grupo_157326" data-name="Grupo 157326" transform="translate(0)">
          <circle id="Elipse_4893" data-name="Elipse 4893" cx="1.539" cy="1.539" r="1.539" transform="translate(5.978 4.973)"/>
          <circle id="Elipse_4894" data-name="Elipse 4894" cx="1.539" cy="1.539" r="1.539" transform="translate(11.832 4.973)"/>
          <circle id="Elipse_4895" data-name="Elipse 4895" cx="1.539" cy="1.539" r="1.539" transform="translate(17.685 4.973)"/>
          <path id="Trazado_129876" data-name="Trazado 129876" d="M73.767,83.38a3.946,3.946,0,0,0-1.528-.948,3.131,3.131,0,0,0-.912-2.2l-6.894-6.894a21.73,21.73,0,1,0-38.362-4.128H3.914a1.781,1.781,0,0,1-1.779-1.779V33.97h62.7V44.991a1.068,1.068,0,0,0,2.135,0V25.482a3.919,3.919,0,0,0-3.914-3.914H22.116a1.068,1.068,0,0,0,0,2.135H63.057a1.781,1.781,0,0,1,1.779,1.779v6.352H2.135V25.482A1.781,1.781,0,0,1,3.914,23.7H16.653a1.068,1.068,0,0,0,0-2.135H3.914A3.919,3.919,0,0,0,0,25.482V67.435a3.919,3.919,0,0,0,3.914,3.914H27.043a21.765,21.765,0,0,0,30.991,8.275l6.953,6.953a3.13,3.13,0,0,0,2.2.912,3.948,3.948,0,0,0,.956,1.536,3.985,3.985,0,1,0,5.628-5.645Zm-41.3-8.222A19.609,19.609,0,1,1,46.328,80.9,19.476,19.476,0,0,1,32.462,75.158ZM72.335,87.442a1.86,1.86,0,0,1-2.687.073,1.829,1.829,0,0,1-.525-1.065,1.358,1.358,0,0,0-1.682-1.128.977.977,0,0,1-.946-.255l-6.7-6.7a22.115,22.115,0,0,0,3.353-3.29l6.67,6.67a.977.977,0,0,1,.255.946A1.358,1.358,0,0,0,71.2,84.373a1.829,1.829,0,0,1,1.063.521,1.869,1.869,0,0,1,.074,2.547Z" transform="translate(0 -21.568)"/>
          <path id="Trazado_129877" data-name="Trazado 129877" d="M227.13,178.895a17.449,17.449,0,1,0-17.92,28.878,1.068,1.068,0,1,0,.681-2.024A15.317,15.317,0,1,1,225.62,180.4a15.313,15.313,0,0,1-10.828,26.141,1.068,1.068,0,1,0,0,2.135,17.449,17.449,0,0,0,12.338-29.787Z" transform="translate(-168.464 -151.509)"/>
          <path id="Trazado_129878" data-name="Trazado 129878" d="M294.5,266.609a1.067,1.067,0,0,0-1.068-1.068h-2.451V263.5h2.191a1.068,1.068,0,1,0,0-2.135h-2.191v-2.04h2.451a1.068,1.068,0,0,0,0-2.135h-3.518a1.068,1.068,0,0,0-1.068,1.068v8.35a1.068,1.068,0,0,0,1.068,1.068h3.518A1.068,1.068,0,0,0,294.5,266.609Z" transform="translate(-246.578 -222.71)"/>
          <path id="Trazado_129879" data-name="Trazado 129879" d="M227.627,265.355a2.92,2.92,0,0,1-2.146-.9,1.068,1.068,0,0,0-1.582,1.434,5.086,5.086,0,0,0,3.728,1.6,3.49,3.49,0,0,0,3.56-2.706c.211-1.181-.324-2.723-2.459-3.51-1.033-.381-1.994-.8-2.292-.926a.571.571,0,0,1-.2-.534.833.833,0,0,1,.66-.664,2.793,2.793,0,0,1,2.306.534,1.068,1.068,0,0,0,1.368-1.639,4.926,4.926,0,0,0-4.29-.939,2.978,2.978,0,0,0-2.158,2.4,2.669,2.669,0,0,0,1.349,2.746c.049.022,1.21.539,2.517,1.021.366.135,1.206.516,1.1,1.132A1.407,1.407,0,0,1,227.627,265.355Z" transform="translate(-190.898 -222.485)"/>
          <path id="Trazado_129880" data-name="Trazado 129880" d="M348.322,262.208a5.281,5.281,0,1,0-5.281,5.281A5.287,5.287,0,0,0,348.322,262.208Zm-8.427,0a3.146,3.146,0,1,1,3.146,3.146A3.15,3.15,0,0,1,339.9,262.208Z" transform="translate(-288.332 -222.484)"/>
          <path id="Trazado_129881" data-name="Trazado 129881" d="M50.9,132.192a10.214,10.214,0,1,0-10.214,10.214A10.225,10.225,0,0,0,50.9,132.192Zm-2.208-1.068H46.4A15.113,15.113,0,0,0,45,125.37,8.088,8.088,0,0,1,48.691,131.124Zm-9.074-6.6v6.6h-2.5C37.313,127.882,38.4,125.454,39.617,124.527Zm0,8.733v6.6c-1.214-.928-2.3-3.356-2.5-6.6Zm2.135,6.6v-6.6h2.5C44.057,136.5,42.967,138.93,41.752,139.857Zm0-8.733v-6.6c1.214.928,2.3,3.356,2.5,6.6Zm-5.387-5.754a15.11,15.11,0,0,0-1.391,5.754h-2.3A8.089,8.089,0,0,1,36.366,125.37Zm-3.687,7.89h2.3a15.11,15.11,0,0,0,1.391,5.754A8.089,8.089,0,0,1,32.679,133.259ZM45,139.014a15.11,15.11,0,0,0,1.391-5.754h2.3A8.088,8.088,0,0,1,45,139.014Z" transform="translate(-26.012 -107.284)"/>
          <path id="Trazado_129882" data-name="Trazado 129882" d="M54.5,288.452a1.068,1.068,0,0,0-1.068-1.068h-14.1a1.068,1.068,0,0,0,0,2.135h14.1A1.068,1.068,0,0,0,54.5,288.452Z" transform="translate(-32.673 -248.484)"/>
          <path id="Trazado_129883" data-name="Trazado 129883" d="M39.341,318.593a1.068,1.068,0,0,0,0,2.135h4.324a1.068,1.068,0,0,0,0-2.135Z" transform="translate(-32.672 -275.126)"/>
        </g>
      </g>
    </g>
  </g>
</svg>
