<svg xmlns="http://www.w3.org/2000/svg" xmlns:xlink="http://www.w3.org/1999/xlink" width="190" height="197.231" viewBox="0 0 190 197.231">
  <defs>
    <filter id="Elipse_4764" x="5.5" y="5.5" width="179" height="179" filterUnits="userSpaceOnUse">
      <feOffset input="SourceAlpha"/>
      <feGaussianBlur stdDeviation="3.5" result="blur"/>
      <feFlood flood-opacity="0.235"/>
      <feComposite operator="in" in2="blur"/>
      <feComposite in="SourceGraphic"/>
    </filter>
  </defs>
  <g id="Grupo_157843" data-name="Grupo 157843" transform="translate(-600 -3034.999)">
    <g id="Grupo_157524" data-name="Grupo 157524" transform="translate(210 -4045.001)">
      <g id="Elipse_4767" data-name="Elipse 4767" transform="translate(398 7088)" fill="none" stroke="#707070" stroke-width="1" stroke-dasharray="3">
        <circle cx="87" cy="87" r="87" stroke="none"/>
        <circle cx="87" cy="87" r="86.5" fill="none"/>
      </g>
      <path id="Sustracción_5" data-name="Sustracción 5" d="M8227.248,11874.02h0a95.463,95.463,0,0,1-30.676-33.542A94.585,94.585,0,0,1,8185,11795a95.683,95.683,0,0,1,1.93-19.146,94.494,94.494,0,0,1,14.294-33.972,95.271,95.271,0,0,1,41.8-34.419,94.535,94.535,0,0,1,17.832-5.536,95.937,95.937,0,0,1,38.29,0,94.5,94.5,0,0,1,33.971,14.295,95.264,95.264,0,0,1,34.419,41.8,94.525,94.525,0,0,1,5.536,17.833,95.83,95.83,0,0,1-1.033,42.779,94.816,94.816,0,0,1-21.5,40,95.612,95.612,0,0,1-17.066,14.9L8280.5,11782l-53.252,92.02Z" transform="translate(-7795 -4620)" fill="#1169e3"/>
      <g transform="matrix(1, 0, 0, 1, 390, 7080)" filter="url(#Elipse_4764)">
        <circle id="Elipse_4764-2" data-name="Elipse 4764" cx="79" cy="79" r="79" transform="translate(16 16)" fill="#fff"/>
      </g>
    </g>
    <g id="Grupo_157525" data-name="Grupo 157525" transform="translate(210 -3932.001)">
      <g id="Grupo_156335" data-name="Grupo 156335" transform="translate(470 7127.001)">
        <circle id="Elipse_4765" data-name="Elipse 4765" cx="7" cy="7" r="7" transform="translate(8 0)" fill="#1169e3"/>
        <line id="Línea_142" data-name="Línea 142" y2="25.587" transform="translate(15.573 11.643)" fill="none" stroke="#1169e3" stroke-width="2"/>
      </g>
    </g>
    <g id="Grupo_157545" data-name="Grupo 157545" transform="translate(190 -3900.033)">
      <g id="Grupo_156600" data-name="Grupo 156600" transform="translate(453.654 6975.735)">
        <g id="Grupo_156595" data-name="Grupo 156595">
          <path id="Trazado_127053" data-name="Trazado 127053" d="M16.6,125.969c.665.148.819-.165.812-.786-.017-1.556.01-1.584,1.621-1.574.6,0,.786-.182.774-.775-.011-.553-.112-.81-.75-.807-1.616.006-1.657-.026-1.64-1.639.008-.73-.35-.743-.891-.749s-.821.085-.821.733c0,1.633-.033,1.662-1.628,1.656-.617,0-.763.22-.764.793s.145.793.762.789c1.626-.009,1.665.021,1.629,1.562-.017.715.247.924.9.8" transform="translate(79.511 -62.514)" fill="#29c4bb"/>
          <path id="Trazado_127054" data-name="Trazado 127054" d="M214.4,151.171c-.6-.114-.925.083-.827.757.082.564-.113.878-.737.781s-.834.129-.839.786c0,.689.276.847.863.768.561-.076.738.168.727.726-.018.874.523,1.209,1.368.945.4-.126.314-.446.288-.7-.07-.691.087-1.114.9-.975.631.107.67-.288.668-.773s-.02-.876-.661-.777c-.69.107-1.016-.146-.9-.874.109-.7-.337-.727-.852-.665" transform="translate(-211.994 -77.35)" fill="#29c4bb"/>
          <path id="Trazado_127055" data-name="Trazado 127055" d="M207.493,70.027c-.154.664.15.891.773.786.674-.114.949.163.83.833-.115.648.165.8.793.809.648.006.892-.185.779-.816-.121-.672.16-.949.827-.823.691.13.752-.232.778-.813.031-.683-.234-.861-.829-.757-.646.113-.887-.155-.778-.786.105-.6-.09-.848-.763-.824-.593.021-.936.105-.809.785s-.168.936-.831.824c-.623-.1-.926.118-.771.782" transform="translate(-202.635 -58.429)" fill="#010000"/>
          <path id="Trazado_127056" data-name="Trazado 127056" d="M51.816,187.408c-.145.62.16.847.78.735.727-.132.9.247.795.859-.116.681.214.787.812.783.572,0,.879-.133.759-.749-.158-.81.247-1.008.944-.889.715.122.682-.329.684-.819,0-.475-.01-.878-.656-.75-.869.172-1.091-.245-.974-1.023.112-.745-.455-.53-.834-.553-.4-.024-.848-.076-.731.57.145.8-.135,1.169-.981,1.007-.706-.135-.619.357-.6.829" transform="translate(24.436 -92.788)" fill="#010000"/>
          <path id="Trazado_127057" data-name="Trazado 127057" d="M126.55,18.174c.166-.707-.225-.845-.8-.759-.6.089-.837-.159-.746-.751s-.084-.861-.765-.847c-.626.013-.912.175-.8.817.111.659-.193.873-.811.781-.573-.086-.859.051-.863.751,0,.717.267.909.891.809.66-.105.883.2.781.811-.115.691.256.77.837.782.621.013.824-.221.732-.791-.1-.625.131-.91.783-.8.636.106.908-.156.766-.8" transform="translate(-78.852 -15.816)" fill="#29c4bb"/>
        </g>
        <g id="contenido" transform="translate(13.454 10.978)">
          <path id="Trazado_130430" data-name="Trazado 130430" d="M76.624,53.6H11.963a4.449,4.449,0,0,0-4.449,4.449v34.11H81.073V58.054A4.449,4.449,0,0,0,76.624,53.6Z" transform="translate(-6.402 -45.671)" fill="#90caf9"/>
          <path id="Trazado_130431" data-name="Trazado 130431" d="M91.8,86.232V70.512H88.243V53.6H37.819v2.669H22.544V82.969H37.819V89.2H71.336v2.966H72.8l7.3-5.932Z" transform="translate(-19.207 -45.671)" fill="#64b5f6"/>
          <rect id="Rectángulo_37739" data-name="Rectángulo 37739" width="32.627" height="39.449" transform="translate(21.578 1.112)" fill="#fdcc15"/>
          <path id="Trazado_130432" data-name="Trazado 130432" d="M178.412,55.5V17.534h-8.9v8.008H145.785V55.5h32.627Zm-5.932-2.966h-2.521V41.263h2.521Z" transform="translate(-124.207 -14.939)" fill="#f5b21b"/>
          <rect id="Rectángulo_37740" data-name="Rectángulo 37740" width="36.483" height="20.763" transform="translate(6.303 13.57)" fill="#1bb9db"/>
          <path id="Trazado_130433" data-name="Trazado 130433" d="M7.515,323.012a4.449,4.449,0,0,0,4.449,4.449H76.625a4.449,4.449,0,0,0,4.449-4.449v-8.9H7.515Z" transform="translate(-6.403 -267.62)" fill="#b0bec5"/>
          <path id="Trazado_130434" data-name="Trazado 130434" d="M168.392,464.407H138.731a2.966,2.966,0,0,0-2.966,2.966v2.966h35.593v-2.966A2.966,2.966,0,0,0,168.392,464.407Z" transform="translate(-115.67 -395.668)" fill="#e0e0e0"/>
          <rect id="Rectángulo_37741" data-name="Rectángulo 37741" width="20.763" height="8.898" transform="translate(27.511 59.841)" fill="#b0bec5"/>
          <rect id="Rectángulo_37742" data-name="Rectángulo 37742" width="4.449" height="4.449" transform="translate(35.667 50.943)" fill="#fff"/>
          <rect id="Rectángulo_37743" data-name="Rectángulo 37743" width="36.483" height="2.966" transform="translate(6.303 31.366)" fill="#077fa6"/>
          <path id="Trazado_130435" data-name="Trazado 130435" d="M78.777,125.746l-8.891,9.519-6.533-6.4L50.6,141.466H85.9v-9.64Z" transform="translate(-43.11 -107.134)" fill="#9ccc65"/>
          <path id="Trazado_130436" data-name="Trazado 130436" d="M66.865,181.338l3.021-3.235-2.119-2.077-4.961,5.312H53.6l-3,2.966H85.9v-2.966Z" transform="translate(-43.11 -149.972)" fill="#7cb342"/>
          <rect id="Rectángulo_37744" data-name="Rectángulo 37744" width="17.797" height="17.797" transform="translate(48.273 5.561)" fill="#f44336"/>
          <path id="Trazado_130437" data-name="Trazado 130437" d="M372.147,76.35l-5.932,3.708V72.642Z" transform="translate(-312.01 -61.89)" fill="#fff"/>
          <path id="Trazado_130438" data-name="Trazado 130438" d="M364.566,187.867h-18.39v9.788h3.856v3.856l4.746-3.856h9.788Z" transform="translate(-294.937 -160.06)" fill="#c45e9a"/>
          <rect id="Rectángulo_37745" data-name="Rectángulo 37745" width="35.593" height="2.966" transform="translate(20.095 71.705)" fill="#bdbdbd"/>
          <rect id="Rectángulo_37746" data-name="Rectángulo 37746" width="20.763" height="2.966" transform="translate(27.511 59.841)" fill="#90a4ae"/>
          <path id="Trazado_130439" data-name="Trazado 130439" d="M70.222,6.822h-3.04V4.449H55.318V0H20.466V6.822H5.561A5.568,5.568,0,0,0,0,12.383V55.392a5.568,5.568,0,0,0,5.561,5.561H26.4v6.674H23.061a4.083,4.083,0,0,0-4.078,4.078v4.078H56.8V71.705a4.083,4.083,0,0,0-4.078-4.078H49.385V60.953H70.222a5.568,5.568,0,0,0,5.561-5.561V12.383A5.568,5.568,0,0,0,70.222,6.822Zm-5.265-.148V22.246H49.385V6.674ZM41.674,14.682v7.6l-6.093-5.2L26.741,26.54l-6.5-6.374L7.415,32.842V14.682Zm-5.92,5.467,5.92,5.056V33.22H23.546ZM20.5,33.22H10.2l10.05-9.933,4.976,4.879Zm32.22,36.631a1.856,1.856,0,0,1,1.854,1.854v1.854H21.208V71.705a1.856,1.856,0,0,1,1.854-1.854Zm-24.1-2.225V60.953H47.161v6.674ZM73.559,55.392a3.341,3.341,0,0,1-3.337,3.337H5.561a3.341,3.341,0,0,1-3.337-3.337V47.606H73.559v7.786Zm0-10.011H2.225v-33A3.341,3.341,0,0,1,5.561,9.047h14.9v3.411H5.191V35.445H20.466v4H17.129v2.225h30.7V39.449H22.691v-4H43.9V12.458H22.691V2.225h30.4V4.449H47.161V24.47h5.932v2.225H50.127V38.707h3.856v5.08l6.253-5.08H70.741V26.695H55.318V24.47H67.182V9.047h3.04a3.341,3.341,0,0,1,3.337,3.337Zm-21.208-8.9V28.919H68.517v7.564H59.446l-3.239,2.631V36.483H52.352Z"/>
          <path id="Trazado_130440" data-name="Trazado 130440" d="M240.13,336.658h-6.674v6.674h6.674Zm-2.225,4.449h-2.225v-2.225h2.225Z" transform="translate(-198.901 -286.828)"/>
          <path id="Trazado_130441" data-name="Trazado 130441" d="M358.7,59.083V70.512l9.143-5.714Zm2.225,4.014,2.721,1.7-2.721,1.7Z" transform="translate(-305.608 -50.338)"/>
          <g id="Grupo_157568" data-name="Grupo 157568" transform="translate(9.714 6.822)">
            <rect id="Rectángulo_37747" data-name="Rectángulo 37747" width="2.225" height="2.225" transform="translate(2.966 32.627)" fill="#fff"/>
            <path id="Trazado_130442" data-name="Trazado 130442" d="M205.776,48.315h-4.3V46.09h4.3Zm-6.525,0H188.869V46.09H199.25Z" transform="translate(-170.628 -46.09)" fill="#fff"/>
            <path id="Trazado_130443" data-name="Trazado 130443" d="M73.043,116.448H70.077v-2.225h2.966Zm-5.191,0H65.628v-2.225h2.225v2.225Z" transform="translate(-65.628 -104.138)" fill="#fff"/>
            <path id="Trazado_130444" data-name="Trazado 130444" d="M202.374,164.972l-1.626-1.518,1.518-1.626,1.626,1.518Zm3.037-3.252-1.626-1.518,3.192-3.418L208.6,158.3Z" transform="translate(-180.748 -140.4)" fill="#fff"/>
            <path id="Trazado_130445" data-name="Trazado 130445" d="M380.083,215.642h-2.225v-2.225h2.225Zm-4.449,0h-7.415v-2.225h7.415Z" transform="translate(-323.431 -188.65)" fill="#fff"/>
          </g>
        </g>
      </g>
      <rect id="Rectángulo_37298" data-name="Rectángulo 37298" width="119" height="119" transform="translate(446 6967)" fill="none"/>
    </g>
  </g>
</svg>
