<svg xmlns="http://www.w3.org/2000/svg" xmlns:xlink="http://www.w3.org/1999/xlink" width="190" height="197.231" viewBox="0 0 190 197.231">
  <defs>
    <filter id="Elipse_4764" x="5.5" y="5.5" width="179" height="179" filterUnits="userSpaceOnUse">
      <feOffset input="SourceAlpha"/>
      <feGaussianBlur stdDeviation="3.5" result="blur"/>
      <feFlood flood-opacity="0.235"/>
      <feComposite operator="in" in2="blur"/>
      <feComposite in="SourceGraphic"/>
    </filter>
  </defs>
  <g id="Grupo_157849" data-name="Grupo 157849" transform="translate(-1019.5 -3422.999)">
    <g id="Grupo_157537" data-name="Grupo 157537" transform="translate(629.5 -3657.001)">
      <g id="Elipse_4767" data-name="Elipse 4767" transform="translate(398 7088)" fill="none" stroke="#707070" stroke-width="1" stroke-dasharray="3">
        <circle cx="87" cy="87" r="87" stroke="none"/>
        <circle cx="87" cy="87" r="86.5" fill="none"/>
      </g>
      <path id="Sustracción_5" data-name="Sustracción 5" d="M8227.248,11874.02h0a95.463,95.463,0,0,1-30.676-33.542A94.585,94.585,0,0,1,8185,11795a95.683,95.683,0,0,1,1.93-19.146,94.494,94.494,0,0,1,14.294-33.972,95.271,95.271,0,0,1,41.8-34.419,94.535,94.535,0,0,1,17.832-5.536,95.937,95.937,0,0,1,38.29,0,94.5,94.5,0,0,1,33.971,14.295,95.264,95.264,0,0,1,34.419,41.8,94.525,94.525,0,0,1,5.536,17.833,95.83,95.83,0,0,1-1.033,42.779,94.816,94.816,0,0,1-21.5,40,95.612,95.612,0,0,1-17.066,14.9L8280.5,11782l-53.252,92.02Z" transform="translate(-7795 -4620)" fill="#1169e3"/>
      <g transform="matrix(1, 0, 0, 1, 390, 7080)" filter="url(#Elipse_4764)">
        <circle id="Elipse_4764-2" data-name="Elipse 4764" cx="79" cy="79" r="79" transform="translate(16 16)" fill="#fff"/>
      </g>
    </g>
    <g id="Grupo_157534" data-name="Grupo 157534" transform="translate(629.5 -3544.001)">
      <g id="Grupo_156335" data-name="Grupo 156335" transform="translate(470 7127.001)">
        <circle id="Elipse_4765" data-name="Elipse 4765" cx="7" cy="7" r="7" transform="translate(8 0)" fill="#1169e3"/>
        <line id="Línea_142" data-name="Línea 142" y2="25.587" transform="translate(15.573 11.643)" fill="none" stroke="#1169e3" stroke-width="2"/>
      </g>
    </g>
    <g id="Grupo_157548" data-name="Grupo 157548" transform="translate(610 -3512.033)">
      <g id="Grupo_156600" data-name="Grupo 156600" transform="translate(453.654 6975.735)">
        <g id="Grupo_156595" data-name="Grupo 156595">
          <path id="Trazado_127053" data-name="Trazado 127053" d="M16.6,125.969c.665.148.819-.165.812-.786-.017-1.556.01-1.584,1.621-1.574.6,0,.786-.182.774-.775-.011-.553-.112-.81-.75-.807-1.616.006-1.657-.026-1.64-1.639.008-.73-.35-.743-.891-.749s-.821.085-.821.733c0,1.633-.033,1.662-1.628,1.656-.617,0-.763.22-.764.793s.145.793.762.789c1.626-.009,1.665.021,1.629,1.562-.017.715.247.924.9.8" transform="translate(79.511 -62.514)" fill="#29c4bb"/>
          <path id="Trazado_127054" data-name="Trazado 127054" d="M214.4,151.171c-.6-.114-.925.083-.827.757.082.564-.113.878-.737.781s-.834.129-.839.786c0,.689.276.847.863.768.561-.076.738.168.727.726-.018.874.523,1.209,1.368.945.4-.126.314-.446.288-.7-.07-.691.087-1.114.9-.975.631.107.67-.288.668-.773s-.02-.876-.661-.777c-.69.107-1.016-.146-.9-.874.109-.7-.337-.727-.852-.665" transform="translate(-211.994 -77.35)" fill="#29c4bb"/>
          <path id="Trazado_127055" data-name="Trazado 127055" d="M207.493,70.027c-.154.664.15.891.773.786.674-.114.949.163.83.833-.115.648.165.8.793.809.648.006.892-.185.779-.816-.121-.672.16-.949.827-.823.691.13.752-.232.778-.813.031-.683-.234-.861-.829-.757-.646.113-.887-.155-.778-.786.105-.6-.09-.848-.763-.824-.593.021-.936.105-.809.785s-.168.936-.831.824c-.623-.1-.926.118-.771.782" transform="translate(-202.635 -58.429)" fill="#010000"/>
          <path id="Trazado_127056" data-name="Trazado 127056" d="M51.816,187.408c-.145.62.16.847.78.735.727-.132.9.247.795.859-.116.681.214.787.812.783.572,0,.879-.133.759-.749-.158-.81.247-1.008.944-.889.715.122.682-.329.684-.819,0-.475-.01-.878-.656-.75-.869.172-1.091-.245-.974-1.023.112-.745-.455-.53-.834-.553-.4-.024-.848-.076-.731.57.145.8-.135,1.169-.981,1.007-.706-.135-.619.357-.6.829" transform="translate(24.436 -92.788)" fill="#010000"/>
          <path id="Trazado_127057" data-name="Trazado 127057" d="M126.55,18.174c.166-.707-.225-.845-.8-.759-.6.089-.837-.159-.746-.751s-.084-.861-.765-.847c-.626.013-.912.175-.8.817.111.659-.193.873-.811.781-.573-.086-.859.051-.863.751,0,.717.267.909.891.809.66-.105.883.2.781.811-.115.691.256.77.837.782.621.013.824-.221.732-.791-.1-.625.131-.91.783-.8.636.106.908-.156.766-.8" transform="translate(-78.852 -15.816)" fill="#29c4bb"/>
        </g>
        <g id="_46_advertising" data-name="46 advertising" transform="translate(8.437 6.265)">
          <path id="Trazado_130644" data-name="Trazado 130644" d="M75.587,55.639H7V9H75.587Z" transform="translate(1.115 1.487)" fill="#4e76bd"/>
          <path id="Trazado_130645" data-name="Trazado 130645" d="M72.1,55.639H9V9H72.1Z" transform="translate(1.859 1.487)" fill="#ebf1f6"/>
          <path id="Trazado_130646" data-name="Trazado 130646" d="M11.743,50.152V9H9V55.639H72.1V50.152Z" transform="translate(1.859 1.487)" fill="#d6e0eb"/>
          <path id="Trazado_130647" data-name="Trazado 130647" d="M60.268,46.372V62.833A1.372,1.372,0,0,1,58.9,64.2H53.409a1.372,1.372,0,0,1-1.372-1.372V46.372A1.372,1.372,0,0,1,53.409,45H58.9A1.372,1.372,0,0,1,60.268,46.372ZM21.859,45H16.372A1.372,1.372,0,0,0,15,46.372V62.833A1.372,1.372,0,0,0,16.372,64.2h5.487a1.372,1.372,0,0,0,1.372-1.372V46.372A1.372,1.372,0,0,0,21.859,45Z" transform="translate(4.089 14.87)" fill="#234470"/>
          <path id="Trazado_130648" data-name="Trazado 130648" d="M35.691,14.372V30.833A1.372,1.372,0,0,1,34.32,32.2H12.372A1.372,1.372,0,0,1,11,30.833V14.372A1.372,1.372,0,0,1,12.372,13H34.32A1.372,1.372,0,0,1,35.691,14.372Z" transform="translate(2.602 2.974)" fill="#e62242"/>
          <path id="Trazado_130649" data-name="Trazado 130649" d="M17.859,26.717a1.372,1.372,0,0,1-1.372-1.372V13H12.372A1.372,1.372,0,0,0,11,14.372V30.833A1.372,1.372,0,0,0,12.372,32.2H34.32a1.372,1.372,0,0,0,1.372-1.372V26.717Z" transform="translate(2.602 2.974)" fill="#ca1600"/>
          <path id="Trazado_130650" data-name="Trazado 130650" d="M26.974,21.486a1.372,1.372,0,0,1-.754,1.221l-8.23,4.115A1.365,1.365,0,0,1,16,25.6v-8.23a1.372,1.372,0,0,1,1.989-1.221l8.23,4.115A1.372,1.372,0,0,1,26.974,21.486Z" transform="translate(4.461 4.09)" fill="#ebf1f6"/>
          <path id="Trazado_130651" data-name="Trazado 130651" d="M61.178,26.372V37.346a1.372,1.372,0,0,1-1.372,1.372H32.372A1.372,1.372,0,0,1,31,37.346V26.372A1.372,1.372,0,0,1,32.372,25H59.807A1.372,1.372,0,0,1,61.178,26.372Z" transform="translate(10.037 7.435)" fill="#febf4f"/>
          <path id="Trazado_130652" data-name="Trazado 130652" d="M37.859,33.23a1.372,1.372,0,0,1-1.372-1.372V25H32.372A1.372,1.372,0,0,0,31,26.372V37.346a1.372,1.372,0,0,0,1.372,1.372H59.807a1.372,1.372,0,0,0,1.372-1.372V33.23Z" transform="translate(10.037 7.435)" fill="#f2a241"/>
          <path id="Trazado_130653" data-name="Trazado 130653" d="M5,9.115A4.115,4.115,0,0,1,9.115,5H74.959a4.115,4.115,0,1,1,0,8.23H9.115A4.115,4.115,0,0,1,5,9.115ZM74.959,54.383H9.115a4.115,4.115,0,0,0,0,8.23H74.959a4.115,4.115,0,1,0,0-8.23Z" transform="translate(0.372 0)" fill="#234470"/>
          <path id="Trazado_130654" data-name="Trazado 130654" d="M64.357,76.331V62.613H75.331A4.115,4.115,0,0,0,76.7,54.63V12.984A4.115,4.115,0,0,0,75.331,5H9.487a4.115,4.115,0,0,0-1.372,7.984V54.63a4.115,4.115,0,0,0,1.372,7.984h9.6V76.331H4v2.743H80.818V76.331Zm-53.5-63.1h63.1V54.383h-63.1ZM9.487,7.743H75.331a1.372,1.372,0,1,1,0,2.743H9.487a1.372,1.372,0,0,1,0-2.743ZM8.115,58.5a1.372,1.372,0,0,1,1.372-1.372H75.331a1.372,1.372,0,1,1,0,2.743H9.487A1.372,1.372,0,0,1,8.115,58.5Zm48.011,4.115V76.331H27.32V62.613ZM21.833,76.331V62.613h2.743V76.331Zm37.037,0V62.613h2.743V76.331ZM36.922,15.974H14.974A1.372,1.372,0,0,0,13.6,17.346V33.807a1.372,1.372,0,0,0,1.372,1.372H36.922a1.372,1.372,0,0,0,1.372-1.372V17.346A1.372,1.372,0,0,0,36.922,15.974ZM35.55,32.435h-19.2V18.717h19.2ZM21.106,30.857a1.365,1.365,0,0,0,1.344.055L30.68,26.8a1.372,1.372,0,0,0,0-2.442L22.45,20.24a1.372,1.372,0,0,0-1.989,1.221v8.23A1.372,1.372,0,0,0,21.106,30.857Zm2.1-7.174,3.786,1.893L23.2,27.469Zm17.833-7.709H71.216v2.743H41.037Zm0,5.487H71.216V24.2H41.037Zm0,5.487H71.216v2.743H41.037ZM13.6,37.922H38.294v2.743H13.6Zm0,5.487H38.294v2.743H13.6ZM69.844,32.435H42.409a1.372,1.372,0,0,0-1.372,1.372V44.781a1.372,1.372,0,0,0,1.372,1.372H69.844a1.372,1.372,0,0,0,1.372-1.372V33.807A1.372,1.372,0,0,0,69.844,32.435ZM68.472,43.409H43.781v-8.23H68.472ZM13.6,48.9h2.743v2.743H13.6Zm5.487,0h2.743v2.743H19.089Zm5.487,0H27.32v2.743H24.576Zm5.487,0h2.743v2.743H30.063Zm5.487,0h2.743v2.743H35.55Zm5.487,0h2.743v2.743H41.037Zm5.487,0h2.743v2.743H46.524Zm5.487,0h2.743v2.743H52.011Zm5.487,0h2.743v2.743H57.5Zm5.487,0h2.743v2.743H62.985Zm5.487,0h2.743v2.743H68.472Z"/>
        </g>
      </g>
      <rect id="Rectángulo_37298" data-name="Rectángulo 37298" width="119" height="119" transform="translate(446 6967)" fill="none"/>
    </g>
  </g>
</svg>
