<svg xmlns="http://www.w3.org/2000/svg" width="70" height="85" viewBox="0 0 70 85">
  <g id="Grupo_157823" data-name="Grupo 157823" transform="translate(-326 -5495)">
    <g id="Grupo_156312" data-name="Grupo 156312" transform="translate(-214 3788)">
      <rect id="Rectángulo_36766" data-name="Rectángulo 36766" width="70" height="85" rx="12" transform="translate(540 1707)" fill="#1169e3"/>
    </g>
    <g id="Grupo_156566" data-name="Grupo 156566" transform="translate(329.794 5509.192)">
      <g id="Grupo_156570" data-name="Grupo 156570">
        <path id="Trazado_126894" data-name="Trazado 126894" d="M15.507,123.96c-.454.1-.559-.113-.555-.537.012-1.063-.007-1.081-1.106-1.075-.409,0-.536-.124-.528-.529.007-.377.077-.553.512-.551,1.1,0,1.131-.018,1.119-1.119-.005-.5.239-.507.608-.511s.56.058.56.5c0,1.115.023,1.135,1.112,1.131.421,0,.521.15.522.541s-.1.541-.52.539c-1.11-.006-1.137.014-1.112,1.066.012.488-.169.631-.611.545" transform="translate(-10.111 -90.835)" fill="#29c4bb"/>
        <path id="Trazado_126895" data-name="Trazado 126895" d="M213.642,151.161c.406-.078.632.057.565.517-.056.385.077.6.5.533s.57.088.573.537c0,.47-.189.578-.589.525-.383-.052-.5.115-.5.5.012.6-.357.826-.934.645-.274-.086-.214-.3-.2-.477.048-.472-.06-.76-.616-.666-.431.073-.457-.2-.456-.527s.014-.6.451-.53c.471.073.694-.1.616-.6-.075-.475.23-.5.582-.454" transform="translate(-160.958 -114.754)" fill="#29c4bb"/>
        <path id="Trazado_126896" data-name="Trazado 126896" d="M210.718,69.268c.1.453-.1.608-.527.537-.46-.078-.648.111-.567.569s-.113.548-.542.553-.609-.127-.532-.557c.082-.459-.109-.648-.565-.562-.472.089-.513-.158-.531-.555-.021-.466.16-.588.566-.517.441.077.606-.106.531-.537-.072-.412.061-.579.521-.563.4.014.639.072.552.536s.115.639.567.563c.425-.072.632.081.526.534" transform="translate(-157.51 -51.351)" fill="#010000"/>
        <path id="Trazado_126897" data-name="Trazado 126897" d="M55.04,186.64c.1.423-.11.578-.532.5-.5-.09-.614.169-.543.587.079.465-.146.537-.555.535-.39,0-.6-.091-.518-.511.108-.553-.169-.688-.645-.607s-.466-.225-.467-.559.007-.6.448-.512c.593.117.745-.168.665-.7-.077-.508.311-.362.569-.377.274-.016.579-.052.5.389-.1.545.092.8.67.687.482-.092.423.243.409.566" transform="translate(-39.315 -140.454)" fill="#010000"/>
        <path id="Trazado_126898" data-name="Trazado 126898" d="M121.786,17.426c-.114-.483.153-.577.548-.518.41.061.572-.109.509-.513s.058-.588.522-.578c.427.009.623.119.548.558s.131.6.553.533c.391-.059.587.035.589.513s-.182.62-.608.553c-.45-.072-.6.133-.533.553.078.472-.175.526-.572.534-.424.009-.562-.151-.5-.54.068-.427-.09-.622-.535-.547s-.62-.106-.523-.547" transform="translate(-92.447 -12.009)" fill="#29c4bb"/>
        <path id="Trazado_126899" data-name="Trazado 126899" d="M16.737,219.817a3.652,3.652,0,0,0-.521,0c-.418.061-.554-.072-.557-.522,0-.482.119-.655.607-.6a4.715,4.715,0,0,0,1.1,0c.5-.059.5.222.506.589s-.059.592-.5.53a4.566,4.566,0,0,0-.637-.005" transform="translate(-11.889 -166.043)" fill="#080808"/>
        <path id="Trazado_126900" data-name="Trazado 126900" d="M230.917,219.874h-.407c-.69,0-.848-.217-.7-.9.05-.227.19-.207.34-.208.388,0,.775,0,1.163,0,.691,0,.854.222.7.9-.042.184-.138.205-.284.2-.271,0-.543,0-.814,0" transform="translate(-174.447 -166.101)" fill="#080808"/>
        <path id="Trazado_126902" data-name="Trazado 126902" d="M190.633,175.59a1.577,1.577,0,0,1,1.574-1.649,1.649,1.649,0,0,1,1.7,1.606,1.678,1.678,0,0,1-1.658,1.668,1.635,1.635,0,0,1-1.62-1.626" transform="translate(-144.739 -132.066)" fill="#1169e3"/>
        <path id="Trazado_126903" data-name="Trazado 126903" d="M54.646,36.357a1.637,1.637,0,0,1,1.655,1.6,1.66,1.66,0,0,1-1.661,1.664,1.62,1.62,0,0,1-1.608-1.643,1.584,1.584,0,0,1,1.613-1.621" transform="translate(-40.266 -27.604)" fill="#1169e3"/>
        <g id="libro" transform="translate(9.832 10.983)">
          <path id="Trazado_130885" data-name="Trazado 130885" d="M42.314,364.278s-3.52-2.847-18.3-4.255v7.039H38.091A4.953,4.953,0,0,1,42.314,364.278Zm0,0" transform="translate(-21.889 -328.345)" fill="#dce9ef"/>
          <path id="Trazado_130886" data-name="Trazado 130886" d="M248.012,364.278s3.52-2.847,18.3-4.255v7.039H252.236A4.953,4.953,0,0,0,248.012,364.278Zm0,0" transform="translate(-226.178 -328.345)" fill="#dce9ef"/>
          <path id="Trazado_130887" data-name="Trazado 130887" d="M24.012,400.023h9.151v1.408H24.012Zm0,0" transform="translate(-21.888 -364.825)" fill="#58b1cc"/>
          <path id="Trazado_130888" data-name="Trazado 130888" d="M352.012,400.023h9.151v1.408h-9.151Zm0,0" transform="translate(-321.027 -364.825)" fill="#58b1cc"/>
          <path id="Trazado_130889" data-name="Trazado 130889" d="M320.012,400.023h1.408v1.408h-1.408Zm0,0" transform="translate(-291.843 -364.825)" fill="#58b1cc"/>
          <path id="Trazado_130890" data-name="Trazado 130890" d="M137.8,34.069s9.151-5.631,2.112-11.967-8.228-10.559-7.039-14.079c0,0-8.877,8.834-.7,16.191C139.2,30.549,137.8,34.069,137.8,34.069Zm0,0" transform="translate(-117.37 -7.318)" fill="#dff6f5"/>
          <path id="Trazado_130891" data-name="Trazado 130891" d="M266.369,21.4s-5.357-3.254-1.408-6.335,4.186-5.327,3.52-7.039c0,0,5.993,4.868,1.408,8.447C265.94,19.552,266.369,21.4,266.369,21.4Zm0,0" transform="translate(-240.312 -7.318)" fill="#dff6f5"/>
          <path id="Trazado_130892" data-name="Trazado 130892" d="M240.012,216.023h1.408v1.408h-1.408Zm0,0" transform="translate(-218.882 -197.015)" fill="#d9176c"/>
          <path id="Trazado_130893" data-name="Trazado 130893" d="M216.012,192.023h1.408v1.408h-1.408Zm0,0" transform="translate(-196.994 -175.127)" fill="#d9176c"/>
          <g id="Grupo_157674" data-name="Grupo 157674" transform="translate(8.459 0.002)">
            <path id="Trazado_130894" data-name="Trazado 130894" d="M395.532,180.247a3.524,3.524,0,0,1-3.52-3.52.7.7,0,1,1,1.408,0,2.112,2.112,0,0,0,2.112,2.112.7.7,0,0,1,0,1.408Zm0,0" transform="translate(-365.966 -160.536)" fill="#ffd782"/>
            <path id="Trazado_130895" data-name="Trazado 130895" d="M395.532,180.247a3.524,3.524,0,0,1-3.52-3.52.7.7,0,1,1,1.408,0,2.112,2.112,0,0,0,2.112,2.112.7.7,0,0,1,0,1.408Zm0,0" transform="translate(-365.966 -160.536)" fill="#ffd782"/>
            <path id="Trazado_130896" data-name="Trazado 130896" d="M360.716,180.247a.7.7,0,1,1,0-1.408,2.112,2.112,0,0,0,2.112-2.112.7.7,0,1,1,1.408,0A3.524,3.524,0,0,1,360.716,180.247Zm0,0" transform="translate(-336.782 -160.536)" fill="#ffd782"/>
            <path id="Trazado_130897" data-name="Trazado 130897" d="M392.716,212.247a.7.7,0,0,1-.7-.7,3.524,3.524,0,0,1,3.52-3.52.7.7,0,0,1,0,1.408,2.112,2.112,0,0,0-2.112,2.112A.7.7,0,0,1,392.716,212.247Zm0,0" transform="translate(-365.966 -189.721)" fill="#ffd782"/>
            <path id="Trazado_130898" data-name="Trazado 130898" d="M392.716,212.247a.7.7,0,0,1-.7-.7,3.524,3.524,0,0,1,3.52-3.52.7.7,0,0,1,0,1.408,2.112,2.112,0,0,0-2.112,2.112A.7.7,0,0,1,392.716,212.247Zm0,0" transform="translate(-365.966 -189.721)" fill="#ffd782"/>
            <path id="Trazado_130899" data-name="Trazado 130899" d="M363.532,212.247a.7.7,0,0,1-.7-.7,2.112,2.112,0,0,0-2.112-2.112.7.7,0,1,1,0-1.408,3.524,3.524,0,0,1,3.52,3.52A.7.7,0,0,1,363.532,212.247Zm0,0" transform="translate(-336.782 -189.721)" fill="#ffd782"/>
            <path id="Trazado_130900" data-name="Trazado 130900" d="M131.532,260.247a3.524,3.524,0,0,1-3.52-3.52.7.7,0,1,1,1.408,0,2.112,2.112,0,0,0,2.112,2.112.7.7,0,0,1,0,1.408Zm0,0" transform="translate(-125.196 -233.497)" fill="#ffd782"/>
            <path id="Trazado_130901" data-name="Trazado 130901" d="M131.532,260.247a3.524,3.524,0,0,1-3.52-3.52.7.7,0,1,1,1.408,0,2.112,2.112,0,0,0,2.112,2.112.7.7,0,0,1,0,1.408Zm0,0" transform="translate(-125.196 -233.497)" fill="#ffd782"/>
            <path id="Trazado_130902" data-name="Trazado 130902" d="M96.716,260.247a.7.7,0,1,1,0-1.408,2.112,2.112,0,0,0,2.112-2.112.7.7,0,1,1,1.408,0A3.524,3.524,0,0,1,96.716,260.247Zm0,0" transform="translate(-96.012 -233.497)" fill="#ffd782"/>
            <path id="Trazado_130903" data-name="Trazado 130903" d="M128.716,292.247a.7.7,0,0,1-.7-.7,3.524,3.524,0,0,1,3.52-3.52.7.7,0,0,1,0,1.408,2.112,2.112,0,0,0-2.112,2.112A.7.7,0,0,1,128.716,292.247Zm0,0" transform="translate(-125.196 -262.681)" fill="#ffd782"/>
            <path id="Trazado_130904" data-name="Trazado 130904" d="M128.716,292.247a.7.7,0,0,1-.7-.7,3.524,3.524,0,0,1,3.52-3.52.7.7,0,0,1,0,1.408,2.112,2.112,0,0,0-2.112,2.112A.7.7,0,0,1,128.716,292.247Zm0,0" transform="translate(-125.196 -262.681)" fill="#ffd782"/>
            <path id="Trazado_130905" data-name="Trazado 130905" d="M99.532,292.247a.7.7,0,0,1-.7-.7,2.112,2.112,0,0,0-2.112-2.112.7.7,0,1,1,0-1.408,3.524,3.524,0,0,1,3.52,3.52A.7.7,0,0,1,99.532,292.247Zm0,0" transform="translate(-96.012 -262.681)" fill="#ffd782"/>
            <path id="Trazado_130906" data-name="Trazado 130906" d="M235.532,4.247a3.524,3.524,0,0,1-3.52-3.52.7.7,0,1,1,1.408,0,2.112,2.112,0,0,0,2.112,2.112.7.7,0,1,1,0,1.408Zm0,0" transform="translate(-220.045 -0.023)" fill="#ffd782"/>
            <path id="Trazado_130907" data-name="Trazado 130907" d="M235.532,4.247a3.524,3.524,0,0,1-3.52-3.52.7.7,0,1,1,1.408,0,2.112,2.112,0,0,0,2.112,2.112.7.7,0,1,1,0,1.408Zm0,0" transform="translate(-220.045 -0.023)" fill="#ffd782"/>
            <path id="Trazado_130908" data-name="Trazado 130908" d="M200.716,4.247a.7.7,0,0,1,0-1.408A2.112,2.112,0,0,0,202.828.727a.7.7,0,0,1,1.408,0A3.524,3.524,0,0,1,200.716,4.247Zm0,0" transform="translate(-190.861 -0.023)" fill="#ffd782"/>
            <path id="Trazado_130909" data-name="Trazado 130909" d="M232.716,36.247a.7.7,0,0,1-.7-.7,3.524,3.524,0,0,1,3.52-3.52.7.7,0,1,1,0,1.408,2.112,2.112,0,0,0-2.112,2.112A.7.7,0,0,1,232.716,36.247Zm0,0" transform="translate(-220.045 -29.208)" fill="#ffd782"/>
            <path id="Trazado_130910" data-name="Trazado 130910" d="M232.716,36.247a.7.7,0,0,1-.7-.7,3.524,3.524,0,0,1,3.52-3.52.7.7,0,1,1,0,1.408,2.112,2.112,0,0,0-2.112,2.112A.7.7,0,0,1,232.716,36.247Zm0,0" transform="translate(-220.045 -29.208)" fill="#ffd782"/>
            <path id="Trazado_130911" data-name="Trazado 130911" d="M203.532,36.247a.7.7,0,0,1-.7-.7,2.112,2.112,0,0,0-2.112-2.112.7.7,0,0,1,0-1.408,3.524,3.524,0,0,1,3.52,3.52A.7.7,0,0,1,203.532,36.247Zm0,0" transform="translate(-190.861 -29.208)" fill="#ffd782"/>
          </g>
          <path id="Trazado_130912" data-name="Trazado 130912" d="M328.012,152.023h1.408v1.408h-1.408Zm0,0" transform="translate(-299.139 -138.647)" fill="#d9176c"/>
          <path id="Trazado_130913" data-name="Trazado 130913" d="M328.012,256.023h1.408v1.408h-1.408Zm0,0" transform="translate(-299.139 -233.496)" fill="#d9176c"/>
          <path id="Trazado_130914" data-name="Trazado 130914" d="M120.012,216.023h1.408v1.408h-1.408Zm0,0" transform="translate(-109.441 -197.015)" fill="#d9176c"/>
          <path id="Trazado_130915" data-name="Trazado 130915" d="M200.012,336.023h1.408v1.408h-1.408Zm0,0" transform="translate(-182.402 -306.456)" fill="#d9176c"/>
          <path id="Trazado_130916" data-name="Trazado 130916" d="M48.012,296.023H49.42v1.408H48.012Zm0,0" transform="translate(-43.777 -269.976)" fill="#d9176c"/>
          <path id="Trazado_130917" data-name="Trazado 130917" d="M282.828,305.431a1.408,1.408,0,1,1-1.408-1.408A1.408,1.408,0,0,1,282.828,305.431Zm0,0" transform="translate(-255.363 -277.272)" fill="#87cee9"/>
          <path id="Trazado_130918" data-name="Trazado 130918" d="M66.827,169.431a1.408,1.408,0,1,1-1.408-1.408A1.408,1.408,0,0,1,66.827,169.431Zm0,0" transform="translate(-58.369 -153.239)" fill="#87cee9"/>
          <path id="Trazado_130919" data-name="Trazado 130919" d="M394.828,89.431a1.408,1.408,0,1,1-1.408-1.408A1.408,1.408,0,0,1,394.828,89.431Zm0,0" transform="translate(-357.508 -80.278)" fill="#87cee9"/>
          <path id="Trazado_130920" data-name="Trazado 130920" d="M31.242,413.654a2.816,2.816,0,0,0-5.631,0H8.012v-2.816H23.5a5.067,5.067,0,0,1,4.928-2.816,5.067,5.067,0,0,1,4.928,2.816H48.84v2.816Zm0,0" transform="translate(-7.297 -372.121)" fill="#29c4bb"/>
          <path id="Trazado_130921" data-name="Trazado 130921" d="M8.012,440.023h5.631v2.816H8.012Zm0,0" transform="translate(-7.296 -401.305)" fill="#209c95"/>
          <path id="Trazado_130922" data-name="Trazado 130922" d="M408.012,440.023h5.631v2.816h-5.631Zm0,0" transform="translate(-372.1 -401.305)" fill="#209c95"/>
          <path id="Trazado_130923" data-name="Trazado 130923" d="M41.544,359.065h-.7v-6.335a.7.7,0,0,0-.771-.7c-13.035,1.241-17.47,3.613-18.454,4.25-.163-.01-.314-.03-.486-.03s-.323.02-.486.03c-.985-.638-5.42-3.009-18.454-4.25a.7.7,0,0,0-.771.7v6.335h-.7a.7.7,0,0,0-.7.7v2.816a.7.7,0,0,0,.7.7h17.6a.7.7,0,0,0,.7-.7,2.112,2.112,0,0,1,4.224,0,.7.7,0,0,0,.7.7h17.6a.7.7,0,0,0,.7-.7v-2.816a.7.7,0,0,0-.7-.7ZM39.432,353.5v2.745H30.985v1.408h8.447v1.408H26.475a5.482,5.482,0,0,0-2.681-2.329c2.078-.887,6.63-2.317,15.637-3.232Zm-36.6,4.153h8.447v-1.408H2.827V353.5c8.925.9,13.511,2.345,15.619,3.238a5.476,5.476,0,0,0-2.662,2.323H2.827Zm-1.408,4.224v-1.408H5.643v1.408Zm19.71-2.816a3.525,3.525,0,0,0-3.449,2.816H7.051v-1.408H16.2a.7.7,0,0,0,.63-.389,4.4,4.4,0,0,1,4.3-2.426,4.4,4.4,0,0,1,4.294,2.426.7.7,0,0,0,.633.389h9.151v1.408H24.579a3.525,3.525,0,0,0-3.449-2.816Zm19.71,2.816H36.616v-1.408H40.84Zm0,0" transform="translate(0 -321.051)"/>
          <path id="Trazado_130924" data-name="Trazado 130924" d="M320.012,400.023h1.408v1.408h-1.408Zm0,0" transform="translate(-291.843 -364.825)"/>
          <path id="Trazado_130925" data-name="Trazado 130925" d="M125.965.128a.7.7,0,0,0-.869.1c-.184.183-4.5,4.542-4.364,9.855a10.1,10.1,0,0,0,3.688,7.358c6.421,5.779,5.471,9,5.443,9.081a.7.7,0,0,0,1.028.845c.192-.118,4.717-2.945,5.085-7.028.194-2.133-.774-4.173-2.871-6.061C125.393,7.343,125.4,3.512,126.26.95a.7.7,0,0,0-.295-.822Zm6.195,15.2c1.749,1.574,2.56,3.217,2.41,4.884-.2,2.211-2.012,4.069-3.254,5.1-.2-1.753-1.361-4.78-5.957-8.916a8.742,8.742,0,0,1-3.223-6.339,12.052,12.052,0,0,1,2.346-6.828c.043,3.6,2.511,7.45,7.68,12.1Zm0,0" transform="translate(-110.096 -0.02)"/>
          <path id="Trazado_130926" data-name="Trazado 130926" d="M257.279,7.19a3.763,3.763,0,0,0-1.718,3.2c.141,2.414,3.069,4.218,3.194,4.294a.749.749,0,0,0,.389.111.665.665,0,0,0,.393-.125.679.679,0,0,0,.276-.713c0-.015-.158-1.578,3.261-4.247a4.613,4.613,0,0,0,2-3.653c.03-3.08-3.256-5.786-3.4-5.9a.7.7,0,0,0-1.1.8c.469,1.207.637,3.164-3.3,6.233Zm4.908-4.505a5.731,5.731,0,0,1,1.478,3.358A3.239,3.239,0,0,1,262.209,8.6a10.244,10.244,0,0,0-3.59,4.24,4.183,4.183,0,0,1-1.651-2.534,2.431,2.431,0,0,1,1.179-2c2.483-1.938,3.822-3.792,4.04-5.613Zm0,0" transform="translate(-233.063 0)"/>
          <path id="Trazado_130927" data-name="Trazado 130927" d="M240.012,216.023h1.408v1.408h-1.408Zm0,0" transform="translate(-218.882 -197.015)"/>
          <path id="Trazado_130928" data-name="Trazado 130928" d="M216.012,192.023h1.408v1.408h-1.408Zm0,0" transform="translate(-196.994 -175.127)"/>
          <path id="Trazado_130929" data-name="Trazado 130929" d="M360.012,179.543a.7.7,0,0,0,.7.7,2.112,2.112,0,0,1,2.112,2.112.7.7,0,1,0,1.408,0,2.112,2.112,0,0,1,2.112-2.112.7.7,0,1,0,0-1.408,2.112,2.112,0,0,1-2.112-2.112.7.7,0,1,0-1.408,0,2.112,2.112,0,0,1-2.112,2.112.7.7,0,0,0-.7.7Zm3.52-.726a3.517,3.517,0,0,0,.726.726,3.524,3.524,0,0,0-.726.726,3.524,3.524,0,0,0-.726-.726A3.517,3.517,0,0,0,363.532,178.817Zm0,0" transform="translate(-328.323 -160.535)"/>
          <path id="Trazado_130930" data-name="Trazado 130930" d="M96.012,259.543a.7.7,0,0,0,.7.7,2.112,2.112,0,0,1,2.112,2.112.7.7,0,1,0,1.408,0,2.112,2.112,0,0,1,2.112-2.112.7.7,0,1,0,0-1.408,2.112,2.112,0,0,1-2.112-2.112.7.7,0,1,0-1.408,0,2.112,2.112,0,0,1-2.112,2.112A.7.7,0,0,0,96.012,259.543Zm3.52-.726a3.518,3.518,0,0,0,.726.726,3.524,3.524,0,0,0-.726.726,3.524,3.524,0,0,0-.726-.726A3.518,3.518,0,0,0,99.531,258.817Zm0,0" transform="translate(-87.553 -233.496)"/>
          <path id="Trazado_130931" data-name="Trazado 130931" d="M206.347,2.839A2.112,2.112,0,0,1,204.236.727a.7.7,0,0,0-1.408,0,2.112,2.112,0,0,1-2.112,2.112.7.7,0,0,0,0,1.408,2.112,2.112,0,0,1,2.112,2.112.7.7,0,0,0,1.408,0,2.112,2.112,0,0,1,2.112-2.112.7.7,0,0,0,0-1.408Zm-2.816,1.43a3.524,3.524,0,0,0-.726-.726,3.517,3.517,0,0,0,.726-.726,3.517,3.517,0,0,0,.726.726A3.524,3.524,0,0,0,203.532,4.269Zm0,0" transform="translate(-182.402 -0.022)"/>
          <path id="Trazado_130932" data-name="Trazado 130932" d="M328.012,152.023h1.408v1.408h-1.408Zm0,0" transform="translate(-299.139 -138.647)"/>
          <path id="Trazado_130933" data-name="Trazado 130933" d="M328.012,256.023h1.408v1.408h-1.408Zm0,0" transform="translate(-299.139 -233.496)"/>
          <path id="Trazado_130934" data-name="Trazado 130934" d="M120.012,216.023h1.408v1.408h-1.408Zm0,0" transform="translate(-109.441 -197.015)"/>
          <path id="Trazado_130935" data-name="Trazado 130935" d="M200.012,336.023h1.408v1.408h-1.408Zm0,0" transform="translate(-182.402 -306.456)"/>
          <path id="Trazado_130936" data-name="Trazado 130936" d="M48.012,296.023H49.42v1.408H48.012Zm0,0" transform="translate(-43.777 -269.976)"/>
          <path id="Trazado_130937" data-name="Trazado 130937" d="M272.012,298.135a2.112,2.112,0,1,0,2.112-2.112A2.112,2.112,0,0,0,272.012,298.135Zm2.816,0a.7.7,0,1,1-.7-.7A.7.7,0,0,1,274.828,298.135Zm0,0" transform="translate(-248.067 -269.976)"/>
          <path id="Trazado_130938" data-name="Trazado 130938" d="M58.124,160.023a2.112,2.112,0,1,0,2.112,2.112A2.112,2.112,0,0,0,58.124,160.023Zm0,2.816a.7.7,0,1,1,.7-.7A.7.7,0,0,1,58.124,162.839Zm0,0" transform="translate(-51.073 -145.943)"/>
          <path id="Trazado_130939" data-name="Trazado 130939" d="M386.124,84.247a2.112,2.112,0,1,0-2.112-2.112A2.112,2.112,0,0,0,386.124,84.247Zm0-2.816a.7.7,0,1,1-.7.7A.7.7,0,0,1,386.124,81.431Zm0,0" transform="translate(-350.212 -72.982)"/>
        </g>
      </g>
    </g>
  </g>
</svg>
