<svg xmlns="http://www.w3.org/2000/svg" width="70" height="85" viewBox="0 0 70 85">
  <g id="Grupo_157824" data-name="Grupo 157824" transform="translate(-7688 8573)">
    <g id="Grupo_156311" data-name="Grupo 156311" transform="translate(7148 -10280)">
      <rect id="Rectángulo_36766" data-name="Rectángulo 36766" width="70" height="85" rx="12" transform="translate(540 1707)" fill="#1169e3"/>
    </g>
    <g id="Grupo_156568" data-name="Grupo 156568" transform="translate(7695 -8558)">
      <g id="Grupo_156569" data-name="Grupo 156569">
        <path id="Trazado_126910" data-name="Trazado 126910" d="M82.764,12.44c.395-.075.614.055.549.5-.055.374.075.583.489.518s.554.086.557.521c0,.457-.183.562-.573.51-.372-.05-.49.112-.483.482.012.58-.347.8-.908.627-.266-.083-.208-.3-.191-.464.047-.458-.058-.739-.6-.647-.419.071-.444-.191-.443-.513s.014-.581.438-.515c.458.071.674-.1.6-.58-.073-.462.224-.482.565-.441" transform="translate(-62.175 -9.515)"/>
        <path id="Trazado_126911" data-name="Trazado 126911" d="M219.54,132.772c.395-.075.614.055.549.5-.055.374.075.583.489.518s.553.086.557.521c0,.457-.183.562-.573.51-.372-.05-.49.112-.483.482.012.58-.347.8-.908.627-.266-.083-.208-.3-.191-.464.047-.458-.058-.739-.6-.647-.419.071-.444-.191-.443-.513s.014-.581.438-.515c.458.071.674-.1.6-.58-.073-.462.224-.482.565-.441" transform="translate(-166.953 -101.696)"/>
        <path id="Trazado_126912" data-name="Trazado 126912" d="M8.433,189.459c.395-.075.614.055.549.5-.055.374.075.583.489.518s.554.086.557.521c0,.457-.183.562-.573.51-.372-.05-.49.112-.483.482.012.58-.347.8-.908.627-.266-.083-.208-.3-.191-.464.047-.458-.058-.739-.6-.647-.419.071-.444-.191-.443-.513s.014-.581.438-.515c.458.071.674-.1.6-.58-.073-.462.224-.482.565-.441" transform="translate(-5.233 -145.122)"/>
        <path id="Trazado_126913" data-name="Trazado 126913" d="M2.041,77.938c.5-.1.781.07.7.64-.069.477.1.742.623.66s.705.109.709.664c0,.582-.234.716-.729.649-.473-.064-.624.142-.615.613.015.738-.442,1.022-1.156.8-.339-.106-.265-.377-.243-.59.059-.583-.074-.941-.763-.824C.032,80.639,0,80.3,0,79.9s.017-.74.558-.656c.583.09.859-.123.762-.739-.092-.588.285-.614.72-.562" transform="translate(-0.001 -59.686)" fill="#29c4bb"/>
        <path id="Trazado_126914" data-name="Trazado 126914" d="M187.9,10.552c.5-.1.781.07.7.64-.069.477.1.742.623.66s.705.109.709.664c0,.582-.234.716-.729.649-.473-.064-.624.142-.615.613.015.738-.442,1.022-1.156.8-.339-.106-.265-.377-.243-.59.059-.583-.074-.941-.763-.824-.533.091-.566-.244-.564-.653s.017-.74.558-.656c.583.09.859-.123.762-.739-.092-.588.285-.614.72-.562" transform="translate(-142.379 -8.064)" fill="#29c4bb"/>
        <g id="lista-de-verificacion_2_" data-name="lista-de-verificacion(2)" transform="translate(9.857 4.62)">
          <path id="Trazado_130940" data-name="Trazado 130940" d="M39.641,75.266H10.311A2.811,2.811,0,0,0,7.5,78.077v32.529a2.811,2.811,0,0,0,2.811,2.811h29.33a2.812,2.812,0,0,0,2.812-2.811V78.077A2.812,2.812,0,0,0,39.641,75.266Zm0,0" transform="translate(-6.834 -68.576)" fill="#29c4bb"/>
          <path id="Trazado_130941" data-name="Trazado 130941" d="M68.3,75.266v3.249A4.2,4.2,0,0,0,72.5,82.709H88.25a4.2,4.2,0,0,0,4.195-4.195V75.266Zm0,0" transform="translate(-62.23 -68.576)" fill="#209c95"/>
          <path id="Trazado_130942" data-name="Trazado 130942" d="M47.293,109.113H75.172v30.671H47.293Zm0,0" transform="translate(-43.09 -99.415)" fill="#efedee"/>
          <path id="Trazado_130943" data-name="Trazado 130943" d="M68.3,109.113v.24a4.2,4.2,0,0,0,4.195,4.195H88.25a4.2,4.2,0,0,0,4.195-4.195v-.24Zm0,0" transform="translate(-62.23 -99.415)" fill="#d4d2d3"/>
          <path id="Trazado_130944" data-name="Trazado 130944" d="M115.58,11.239h-4.353c0-.069.007-.138.007-.208a3.531,3.531,0,1,0-7.062,0c0,.07,0,.139.007.208H99.825A1.528,1.528,0,0,0,98.3,12.767v4A1.528,1.528,0,0,0,99.825,18.3H115.58a1.528,1.528,0,0,0,1.528-1.528v-4a1.528,1.528,0,0,0-1.528-1.528Zm0,0" transform="translate(-89.56 -6.833)" fill="#bab8b9"/>
          <path id="Trazado_130945" data-name="Trazado 130945" d="M193.416,35.364a1.157,1.157,0,1,1-1.157-1.157A1.157,1.157,0,0,1,193.416,35.364Zm0,0" transform="translate(-174.117 -31.167)"/>
          <path id="Trazado_130946" data-name="Trazado 130946" d="M134.085,74.733a.666.666,0,0,0,.667-.667V73.049a.667.667,0,1,0-1.333,0v1.017A.667.667,0,0,0,134.085,74.733Zm0,0" transform="translate(-121.56 -65.949)"/>
          <path id="Trazado_130947" data-name="Trazado 130947" d="M260.487,74.733a.666.666,0,0,0,.667-.667V73.049a.667.667,0,0,0-1.333,0v1.017A.667.667,0,0,0,260.487,74.733Zm0,0" transform="translate(-236.727 -65.949)"/>
          <path id="Trazado_130948" data-name="Trazado 130948" d="M183.074,84.972a2.5,2.5,0,0,0,1.888-.841.667.667,0,0,0-1-.877,1.208,1.208,0,0,1-1.769,0,.667.667,0,1,0-1,.877A2.5,2.5,0,0,0,183.074,84.972Zm0,0" transform="translate(-164.931 -75.645)"/>
          <path id="Trazado_130949" data-name="Trazado 130949" d="M97.472,179.717a.666.666,0,0,0-.843-.422,13.164,13.164,0,0,0-4.167,2.274v-.87a.667.667,0,0,0-1.333,0v1.13a1.221,1.221,0,0,0,2,.921,11.75,11.75,0,0,1,3.922-2.19.666.666,0,0,0,.422-.843Zm0,0" transform="translate(-83.029 -163.328)"/>
          <path id="Trazado_130950" data-name="Trazado 130950" d="M204.628,194.368h8.724a.667.667,0,0,0,0-1.333h-8.724a.667.667,0,1,0,0,1.333Zm0,0" transform="translate(-185.833 -175.877)"/>
          <path id="Trazado_130951" data-name="Trazado 130951" d="M97.472,241.3a.667.667,0,0,0-.843-.422,13.17,13.17,0,0,0-4.167,2.274v-.87a.667.667,0,1,0-1.333,0v1.13a1.222,1.222,0,0,0,2,.921,11.744,11.744,0,0,1,3.922-2.19A.666.666,0,0,0,97.472,241.3Zm0,0" transform="translate(-83.029 -219.434)"/>
          <path id="Trazado_130952" data-name="Trazado 130952" d="M204.628,255.95h8.724a.667.667,0,0,0,0-1.333h-8.724a.667.667,0,1,0,0,1.333Zm0,0" transform="translate(-185.833 -231.986)"/>
          <path id="Trazado_130953" data-name="Trazado 130953" d="M97.472,302.879a.667.667,0,0,0-.843-.422,13.17,13.17,0,0,0-4.167,2.274v-.87a.667.667,0,1,0-1.333,0v1.13a1.222,1.222,0,0,0,2,.921,11.748,11.748,0,0,1,3.922-2.19A.666.666,0,0,0,97.472,302.879Zm0,0" transform="translate(-83.029 -275.542)"/>
          <path id="Trazado_130954" data-name="Trazado 130954" d="M204.628,317.532h8.724a.667.667,0,0,0,0-1.333h-8.724a.667.667,0,1,0,0,1.333Zm0,0" transform="translate(-185.833 -288.094)"/>
          <path id="Trazado_130955" data-name="Trazado 130955" d="M91.8,364.776a.667.667,0,0,0-.667.667v1.13a1.221,1.221,0,0,0,2,.921,11.747,11.747,0,0,1,3.922-2.19.667.667,0,1,0-.422-1.265,13.174,13.174,0,0,0-4.167,2.274v-.87A.667.667,0,0,0,91.8,364.776Zm0,0" transform="translate(-83.029 -331.651)"/>
          <path id="Trazado_130956" data-name="Trazado 130956" d="M204.628,379.11h8.724a.667.667,0,0,0,0-1.333h-8.724a.667.667,0,1,0,0,1.333Zm0,0" transform="translate(-185.833 -344.199)"/>
          <path id="Trazado_130957" data-name="Trazado 130957" d="M32.807,6.023H28.215v-.09A2.2,2.2,0,0,0,26.02,3.739h-3.7a4.2,4.2,0,0,0-8.345,0h-3.7A2.2,2.2,0,0,0,8.07,5.934v.09H3.477A3.482,3.482,0,0,0,0,9.5v4.346a.667.667,0,0,0,1.333,0V9.5A2.147,2.147,0,0,1,3.477,7.356H8.07V9.032H4.2a.667.667,0,0,0-.667.667V40.369a.667.667,0,0,0,.667.667H25.072a.667.667,0,0,0,0-1.333H4.87V10.365H8.112v.005l0,.01a2.221,2.221,0,0,0,2.151,1.753H26.02a2.232,2.232,0,0,0,2.15-1.753l0-.01v-.005h3.242V39.7H27.739a.667.667,0,1,0,0,1.333h4.343a.667.667,0,0,0,.667-.667V9.7a.667.667,0,0,0-.667-.667H28.215V7.356h4.593A2.147,2.147,0,0,1,34.952,9.5V42.03a2.147,2.147,0,0,1-2.145,2.145H3.478A2.147,2.147,0,0,1,1.333,42.03V16.514a.667.667,0,0,0-1.333,0V42.03a3.482,3.482,0,0,0,3.478,3.478h29.33a3.482,3.482,0,0,0,3.478-3.478V9.5a3.482,3.482,0,0,0-3.478-3.478ZM9.4,5.934a.863.863,0,0,1,.862-.862h4.353c.515,0,.66-.446.66-.875a2.864,2.864,0,0,1,5.728,0c0,.428.15.875.66.875H26.02a.863.863,0,0,1,.862.862V9.7a1.64,1.64,0,0,1-.039.5.863.863,0,0,1-.823.606H10.265a.864.864,0,0,1-.823-.606A1.662,1.662,0,0,1,9.4,9.7Zm0,0"/>
        </g>
      </g>
    </g>
  </g>
</svg>
